<svg width="32" height="28" viewBox="0 0 32 28" fill="none" xmlns="http://www.w3.org/2000/svg">
<g id="SymbolLogo">
<g id="Group 88456">
<path id="Vector" d="M19.6856 20.0889C19.6856 20.0889 15.672 18.0437 18.1252 14.4117C20.7147 10.5765 25.6708 12.184 26.8515 15.6701C28.0321 19.1563 26.1426 21.0555 24.4839 22.6818C22.8252 24.308 20.8166 25.8663 20.1429 25.3552C19.3717 24.7699 20.6074 23.7567 20.7021 22.5824C20.7941 21.4332 20.3611 20.4558 19.6865 20.0898L19.6856 20.0889Z" fill="#12C0B5"/>
<path id="Vector_2" d="M30.972 8.89323C30.9702 8.82163 30.9693 8.75092 30.9675 8.68111C30.9648 8.5397 30.9684 8.40097 30.9675 8.26224C30.9612 7.98388 30.9657 7.71001 30.945 7.43523C30.9116 6.88926 30.8277 6.33972 30.5806 5.82329L30.641 5.78122C30.6293 5.60758 30.5617 5.57894 30.5003 5.41157L30.5202 5.40889C30.4697 5.20214 30.3641 4.98554 30.2721 4.79132C30.1756 4.59799 30.0737 4.43152 30.0331 4.31069L29.9583 4.33575C29.8221 4.11646 29.9411 4.18717 29.7662 3.98311L29.8022 3.96789C29.7301 3.89181 29.6462 3.822 29.5668 3.75219C29.5984 3.73787 29.5876 3.69222 29.5524 3.62867C29.5163 3.56513 29.4595 3.48278 29.3828 3.40313C29.3089 3.32257 29.2304 3.23576 29.161 3.15968C29.0915 3.0836 29.0275 3.02095 29.0004 2.97083C28.9337 2.91534 28.8543 2.84373 28.7596 2.77213C28.6631 2.70232 28.5567 2.62535 28.4457 2.54569C28.2175 2.39532 27.9704 2.23601 27.7449 2.10265C27.698 1.98003 27.1099 1.70884 26.7293 1.55847C26.6346 1.52804 26.5336 1.50925 26.4281 1.48239C26.3235 1.46002 26.2143 1.4269 26.1016 1.41079C25.877 1.37499 25.638 1.33114 25.3954 1.31592C25.2745 1.30697 25.15 1.28907 25.0274 1.28728C24.9047 1.2837 24.782 1.27922 24.6585 1.27564C24.5331 1.26848 24.4186 1.27564 24.3004 1.27564C24.1832 1.27654 24.0668 1.27743 23.9523 1.27833L23.9766 1.36604C23.9613 1.36604 23.9451 1.36783 23.9297 1.36962C23.7692 1.35083 23.6519 1.31771 23.7448 1.34993H23.743C23.6456 1.30786 23.5076 1.32487 23.3714 1.34993C23.2343 1.38036 23.099 1.41527 22.9971 1.39737C23.1306 1.46002 23.1658 1.38752 23.302 1.37231C23.4968 1.38842 23.3362 1.48866 23.081 1.48598C23.0747 1.48418 23.0711 1.4815 23.0621 1.4806V1.46807L23.0368 1.47881C23.0242 1.47792 23.0143 1.47613 22.9962 1.47613C22.9385 1.48239 22.8943 1.49224 22.8528 1.50119C22.7915 1.46718 22.6841 1.45465 22.6571 1.40542C22.4614 1.4457 22.2828 1.48598 22.1159 1.54236C21.9482 1.59517 21.7885 1.64619 21.6307 1.70973C21.4728 1.7697 21.3141 1.82698 21.1481 1.89411C20.9813 1.95676 20.8054 2.0221 20.6133 2.0937C20.6367 2.04358 20.5006 2.10086 20.3734 2.15456C20.2471 2.21005 20.1262 2.2557 20.1713 2.16172C19.7997 2.381 20.165 2.26644 20.1623 2.34878C20.064 2.40159 19.9594 2.46693 19.8629 2.526C19.8602 2.5251 19.8566 2.52689 19.8539 2.526C19.8954 2.46872 19.7141 2.5072 19.8079 2.44455C19.7123 2.49825 19.6158 2.55016 19.5229 2.61013C19.4904 2.61729 19.5436 2.56538 19.5707 2.53942C19.2974 2.73812 19.034 2.87506 18.7824 3.02274C18.5316 3.16952 18.2899 3.32168 18.0852 3.54454C18.0834 3.60898 18.2773 3.40223 18.2764 3.46757C18.234 3.51322 18.1997 3.55081 18.1645 3.58482C18.0906 3.63583 18.0157 3.68506 17.9436 3.73966C17.8723 3.79425 17.8011 3.84975 17.7307 3.90613C17.6748 3.94193 17.618 3.99295 17.5485 4.06634L17.4538 4.15853L17.4827 4.05381C17.4394 4.12363 17.4105 4.18001 17.3744 4.23908L17.3699 4.24445L17.3041 4.21313L17.2545 4.37244C17.2355 4.39124 17.213 4.41272 17.1931 4.43151C17.1715 4.45031 17.1562 4.46732 17.1291 4.4879C17.0813 4.48164 17.1111 4.42346 17.1634 4.35275C17.2166 4.28205 17.2915 4.19702 17.3284 4.13258C17.1778 4.27578 16.8441 4.67675 17.0064 4.60426C16.9343 4.7036 16.873 4.76178 16.8143 4.80385C16.7864 4.82443 16.7548 4.84591 16.7314 4.85844C16.7241 4.85486 16.7178 4.85218 16.7106 4.8486C16.716 4.85397 16.7241 4.85934 16.735 4.86471C16.7377 4.87903 16.7783 4.85039 16.7837 4.8656L16.7665 4.88529C16.7665 4.88529 16.7647 4.88708 16.7638 4.88798L16.7593 4.89156L16.7503 4.89783L16.7341 4.91036C16.725 4.91752 16.716 4.92468 16.7079 4.93184C16.6971 4.94168 16.689 4.94974 16.6827 4.95779C16.679 4.93005 16.6736 4.89245 16.6727 4.87724C16.6772 4.95869 16.6691 4.94258 16.6664 4.89872C16.6619 4.85755 16.6637 4.78863 16.6628 4.80653C16.6619 4.82712 16.6565 4.8486 16.6394 4.85397C16.6349 4.85576 16.6285 4.85576 16.6222 4.85486C16.6186 4.85486 16.615 4.85397 16.6114 4.85307L16.606 4.85128H16.6033C16.6033 4.85128 16.6015 4.84949 16.6015 4.85039L16.606 4.85755C16.5293 4.76089 16.4527 4.66422 16.3715 4.57114C16.293 4.47716 16.2109 4.38587 16.128 4.29726C15.7988 3.94014 15.4515 3.62151 15.1259 3.34584C14.941 3.28498 14.7345 3.16057 14.5144 3.02721C14.5234 3.02721 14.5378 3.03258 14.5784 3.05496C14.4585 2.97172 14.3385 2.88759 14.2168 2.80614L14.2393 2.71037L13.9372 2.58507C13.8416 2.48125 14.1653 2.68889 13.9868 2.52421C13.9381 2.52868 13.8894 2.53316 13.8397 2.54032C13.8397 2.51257 13.6585 2.40964 13.5421 2.33357C13.4844 2.29598 13.4402 2.26913 13.4465 2.25659C13.4519 2.24585 13.5069 2.24675 13.6395 2.28882C13.5457 2.2378 13.4483 2.19663 13.3518 2.15277C13.2553 2.10981 13.1597 2.06237 13.0614 2.02478C12.8648 1.9487 12.6699 1.86636 12.4697 1.80461C12.338 1.75896 12.2911 1.77328 12.2433 1.78402C12.1946 1.79297 12.1441 1.80013 12.0016 1.74374C11.952 1.68825 12.1134 1.74643 12.1026 1.69183C11.9376 1.62649 11.796 1.58353 11.6688 1.56026C11.5407 1.54057 11.4289 1.5352 11.3233 1.53699C11.1132 1.5361 10.9319 1.57995 10.7064 1.57548C10.5351 1.52715 10.3691 1.49403 10.2924 1.51909C10.269 1.52267 10.2392 1.52267 10.2104 1.52357L10.0083 1.43227C10.002 1.45554 9.97314 1.49582 9.9073 1.52357C9.89738 1.52446 9.88205 1.52536 9.88205 1.52804C9.88385 1.52983 9.88475 1.53073 9.88566 1.53252C9.84777 1.54505 9.80358 1.55489 9.74044 1.55579C9.55194 1.50119 9.59884 1.43675 9.54111 1.39289L9.41033 1.52894C9.27414 1.50567 9.13164 1.48777 8.98462 1.47255C8.91066 1.46539 8.8367 1.45733 8.76004 1.45286C8.68067 1.45196 8.6004 1.45017 8.51922 1.44928C8.35687 1.44838 8.19001 1.44659 8.02135 1.46539C7.85269 1.48239 7.68132 1.48956 7.51086 1.52357C6.82538 1.6256 6.14171 1.83951 5.52569 2.07222C5.40032 2.14651 5.26593 2.22527 5.13064 2.31209C4.99986 2.40517 4.86367 2.50183 4.72567 2.60029C4.59399 2.70679 4.4596 2.8142 4.32521 2.91981C4.19714 3.03348 4.06726 3.14446 3.93738 3.25097L3.98067 3.18921C3.89048 3.25634 3.81111 3.33421 3.72543 3.40671C3.64335 3.48189 3.55406 3.5517 3.47829 3.63315C3.53872 3.57855 3.60547 3.52933 3.67041 3.4801L3.86613 3.33331C3.77503 3.44698 3.71641 3.54454 3.61629 3.6421C3.48731 3.7683 3.3403 3.90166 3.2014 4.0556C3.06701 4.21223 2.91819 4.37334 2.79553 4.55682C2.73149 4.64722 2.66655 4.73851 2.60612 4.83338C2.5493 4.93005 2.49338 5.0276 2.43926 5.12695C2.4122 5.17618 2.38515 5.2263 2.35989 5.27642L2.29225 5.42947C2.24805 5.5324 2.20656 5.63443 2.16778 5.73736C2.13621 6.02735 2.06947 6.09985 1.99461 6.17056C1.91794 6.23947 1.84669 6.31108 1.81783 6.58406C1.81783 6.53573 1.80069 6.51335 1.79799 6.4686C1.6663 7.03694 1.62662 7.3511 1.6167 7.92302C1.46246 7.83621 1.56438 8.28909 1.48592 8.22823L1.54634 8.28193C1.53191 8.31236 1.51658 8.35264 1.50215 8.39649C1.49042 8.44035 1.4778 8.48689 1.46697 8.52896C1.44352 8.61219 1.42188 8.67485 1.40023 8.65158L1.46066 8.90576L1.38941 8.92456C1.37768 9.09014 1.37768 9.35149 1.36866 9.59225C1.36686 9.83301 1.34792 10.0541 1.28027 10.1463C1.31996 10.3494 1.34521 10.583 1.38129 10.8319C1.42098 11.0798 1.44984 11.3474 1.49944 11.6177C1.57972 12.1619 1.70418 12.7213 1.82144 13.2153C1.91524 13.3353 2.00814 13.6145 2.08119 13.832C2.08119 13.9188 2.0848 14.0047 2.0857 14.0925C2.18943 14.3046 2.3653 14.4997 2.40319 14.7181C2.39417 14.7208 2.38424 14.7154 2.37432 14.7029C2.48075 14.9141 2.52134 15.145 2.68639 15.3097C2.77839 15.5173 2.84153 15.733 2.78561 15.7563C2.83882 15.7742 2.88031 15.8816 2.91639 15.9917C2.95878 16.1206 2.98584 16.2548 2.98584 16.2548C2.98584 16.2548 3.07062 16.424 3.22124 16.7274C3.3881 17.0219 3.61629 17.4542 3.94189 17.9554C4.57685 18.9668 5.57891 20.2673 6.82989 21.4809C6.93181 21.6044 7.04275 21.7315 7.16271 21.8515C7.28447 21.9687 7.41164 22.0824 7.53882 22.1844C7.75618 22.3616 7.91582 22.4878 8.10704 22.6838C8.2766 22.8602 8.47232 23.0231 8.66894 23.1859C8.8809 23.3596 9.11089 23.5395 9.33908 23.7194C9.57268 23.8912 9.80268 24.064 10.0318 24.2018C10.1625 24.2815 10.2654 24.3531 10.3907 24.4399C10.5459 24.5464 10.6739 24.6028 10.8327 24.6941C10.9824 24.7818 11.1384 24.8695 11.2918 24.9617C11.4451 25.0548 11.6002 25.1479 11.7527 25.24C12.0052 25.3967 12.2695 25.5426 12.5283 25.6679C12.6627 25.7305 12.7141 25.7439 12.8458 25.8317C12.8702 25.8478 12.8765 25.8675 12.9135 25.8916C12.9631 25.9256 13.0587 25.9695 13.1137 25.999C13.3879 26.1494 13.607 26.2013 13.8785 26.3221C14.003 26.3758 14.1175 26.4501 14.2456 26.502C14.454 26.5862 14.5893 26.5817 14.8003 26.6667C14.9563 26.7303 14.9527 26.7312 15.0601 26.724C15.0601 26.724 15.3234 26.7571 15.7591 26.5942H15.7609C15.9593 26.519 16.1938 26.4036 16.4563 26.2255C16.5555 26.1583 16.6574 26.0814 16.7638 25.9954C17.0001 25.803 17.2527 25.5614 17.5169 25.2553C17.7542 24.9814 17.949 24.7254 18.1086 24.4846C18.7923 23.4589 18.8464 22.7259 18.8383 22.2533C18.8383 22.2489 18.8401 22.2426 18.8392 22.2408V22.2184L18.8437 22.1227C18.8464 21.9965 18.8356 21.8774 18.8157 21.7718C18.7959 21.6662 18.7643 21.574 18.7346 21.5105C18.7273 21.4917 18.7264 21.4979 18.7255 21.4908C18.7237 21.4872 18.7219 21.4836 18.7201 21.48C18.7156 21.4729 18.7111 21.4666 18.7048 21.4621L18.7003 21.4585L18.6976 21.4568L18.7021 21.4594L18.6994 21.4576L18.685 21.4496C18.648 21.4272 18.6101 21.4057 18.5758 21.3843C18.5064 21.3413 18.4396 21.2983 18.3774 21.2563C18.2511 21.173 18.1402 21.0898 18.0383 21.0137C17.8371 20.8598 17.6829 20.7255 17.5783 20.6315C17.4755 20.5349 17.4186 20.4821 17.4186 20.4821C17.4186 20.4821 17.4105 20.4651 17.3979 20.4391C17.3853 20.4132 17.369 20.3791 17.3492 20.3478C17.3158 20.2941 17.2743 20.2476 17.2355 20.2583C17.2743 20.2243 17.2076 20.1232 17.1282 20.031C17.0019 19.9889 16.9442 19.8788 16.854 19.7893C16.8621 19.7929 16.8694 19.7929 16.8766 19.7884C16.8369 19.6703 16.6818 19.6291 16.5916 19.5369L16.5681 19.3883C16.4878 19.2944 16.4003 19.161 16.3201 19.1207C16.2858 19.0608 16.2506 18.999 16.2145 18.9364C16.1821 18.871 16.1496 18.8039 16.1162 18.7359C16.0838 18.6678 16.0486 18.6007 16.017 18.5318C15.9873 18.4611 15.9584 18.3913 15.9286 18.3215C15.8998 18.2517 15.8673 18.1845 15.8411 18.1165C15.8168 18.0476 15.7915 17.9805 15.7663 17.916C15.741 17.8516 15.7149 17.7898 15.6887 17.7307C15.6635 17.6717 15.6427 17.6144 15.6193 17.5625C15.7041 17.4434 15.5958 17.0738 15.5859 16.8903L15.6418 16.8724C15.6139 16.8303 15.5895 16.7865 15.5633 16.7435C15.6057 16.7632 15.6066 16.6012 15.6427 16.5332L15.5859 16.509C15.659 16.5359 15.5183 16.3014 15.6572 16.3372C15.5895 16.0329 15.5796 15.8601 15.5895 15.5505C15.5994 15.5746 15.6175 15.5863 15.6256 15.6122C15.6003 15.4636 15.6499 15.4243 15.6968 15.3858C15.7437 15.3464 15.7834 15.3079 15.7519 15.1495C15.8114 14.6939 16.0639 14.2625 16.2723 13.9752C16.3056 13.9161 16.3102 13.8571 16.3309 13.7881L16.1713 13.9716C16.2326 13.8812 16.2903 13.7873 16.3553 13.7013L16.3507 13.7398C16.5221 13.4641 16.6691 13.1518 16.8116 12.9101C16.9244 12.7991 17.0416 12.6819 17.1517 12.5566C17.2707 12.4384 17.3808 12.3087 17.5043 12.1914C17.6261 12.0742 17.7469 11.9569 17.8777 11.8603C17.9427 11.811 18.0049 11.7627 18.0707 11.7215C18.1375 11.6812 18.2042 11.6446 18.271 11.6132L18.2475 11.4772C18.2926 11.4852 18.3088 11.5425 18.4099 11.5103C18.4342 11.4879 18.4468 11.4664 18.455 11.445C18.4532 11.445 18.4523 11.4441 18.4514 11.4432C18.4505 11.4414 18.4559 11.436 18.4586 11.4315C18.4694 11.3904 18.4604 11.3546 18.4504 11.3367L18.5731 11.3206C18.583 11.3089 18.5939 11.2982 18.6011 11.2874C18.6083 11.2642 18.6326 11.2436 18.6651 11.2239C18.6994 11.206 18.7418 11.189 18.7851 11.1702C18.8689 11.0861 18.9158 10.9894 18.9898 10.9035C19.0647 10.8202 19.1621 10.7352 19.3425 10.686C19.3731 10.7173 19.2865 10.745 19.3316 10.7612C19.4886 10.7218 19.3903 10.6573 19.5238 10.6009C19.5734 10.5795 19.623 10.5562 19.6735 10.5356L19.8268 10.4783C19.9296 10.4416 20.0306 10.3996 20.1362 10.3709C19.8945 10.5302 20.2886 10.396 20.313 10.4327L20.3517 10.3468C20.4789 10.3539 20.2877 10.3978 20.3626 10.4112C20.4122 10.3835 20.4618 10.3557 20.5123 10.3324L20.5475 10.4049L20.7675 10.3638C20.745 10.3718 20.7387 10.3772 20.7351 10.3817C20.8595 10.3369 20.9768 10.3029 21.058 10.2277C21.3682 10.1866 21.7245 10.1463 22.0844 10.123C22.2638 10.1185 22.4451 10.1105 22.621 10.1114C22.796 10.1203 22.9655 10.1302 23.1234 10.1436C23.3597 10.1678 23.3155 10.311 23.4986 10.2599C23.4797 10.2635 23.4869 10.2877 23.4842 10.3038C23.5347 10.3154 23.5861 10.328 23.6402 10.3405C23.6934 10.3539 23.7457 10.3736 23.7998 10.3897C23.9072 10.4255 24.0172 10.4622 24.1254 10.4989C24.1381 10.4783 24.0749 10.4389 24.0803 10.4273C24.1417 10.4631 24.1687 10.5302 24.2932 10.5553C24.2355 10.4703 24.4925 10.5472 24.5917 10.5875C24.5106 10.5902 24.3672 10.5231 24.3708 10.5956C24.3852 10.6063 24.396 10.6108 24.4086 10.618C24.4213 10.6233 24.4357 10.6296 24.4483 10.6359L24.543 10.6036L24.5331 10.6609H24.5367C24.5737 10.6636 24.6089 10.6573 24.654 10.6564L24.5908 10.6815C24.6125 10.6887 24.6332 10.6958 24.6549 10.7048C24.7045 10.72 24.7379 10.7415 24.7658 10.7621C24.8461 10.8077 24.9246 10.8578 25.0003 10.9088C25.0247 10.916 25.0499 10.9223 25.0824 10.9285C25.1203 10.9017 24.9769 10.8668 25.0147 10.8399C25.1699 10.8712 25.2871 10.9608 25.4071 11.0476C25.4675 11.0914 25.528 11.1362 25.5938 11.1765C25.6596 11.2176 25.7264 11.2615 25.8076 11.2937C25.7877 11.2901 25.7489 11.283 25.7579 11.2991L25.9023 11.3841C25.849 11.3617 25.9014 11.445 25.859 11.4494C25.859 11.4512 25.8599 11.453 25.8599 11.4548C25.9113 11.4808 25.9672 11.5085 26.0186 11.5345C26.07 11.496 25.9365 11.3537 26.1368 11.4485C26.0051 11.4888 26.3244 11.632 26.2522 11.658C26.3298 11.7269 26.4064 11.7833 26.4804 11.8361C26.5516 11.8916 26.622 11.9417 26.6933 11.99C26.7645 12.0393 26.8358 12.0876 26.9106 12.1395C26.9801 12.1959 27.0513 12.2576 27.1244 12.3284C27.0982 12.3659 27.1154 12.4214 27.1072 12.4671C27.1244 12.4805 27.1424 12.4957 27.1623 12.5172C27.1668 12.5253 27.1686 12.5306 27.1713 12.536L27.1857 12.5423L27.1767 12.5476C27.1785 12.5521 27.1776 12.5557 27.1776 12.5593C27.2416 12.6738 27.3454 12.7016 27.3102 12.6031C27.2669 12.5467 27.2092 12.5682 27.2155 12.4778C27.2227 12.5047 27.2416 12.5279 27.2651 12.5521C27.2876 12.5763 27.3147 12.5995 27.3417 12.6237C27.395 12.672 27.4455 12.7231 27.4437 12.7866H27.4446C27.4419 12.7311 27.4509 12.7982 27.4815 12.8779L27.4978 12.8958L27.5501 12.843C27.6241 12.9361 27.689 13.039 27.7584 13.1393C27.8261 13.2413 27.9018 13.3379 27.9641 13.4391C28.0065 13.5071 28.048 13.5733 28.0886 13.6378C28.1084 13.6691 28.1282 13.7013 28.1472 13.7318C28.176 13.7783 28.2058 13.8231 28.2311 13.8669C28.2554 13.9117 28.2789 13.9555 28.3005 13.9967C28.3068 14.0173 28.314 14.0388 28.3222 14.0611L28.3131 14.0021C28.4006 14.3583 28.7262 14.7118 29.1438 14.7118C29.5037 14.7118 29.8103 14.4433 29.9357 14.1444H29.9366C29.9402 14.1345 29.9438 14.1238 29.9474 14.1139C29.9538 14.0978 29.9592 14.0817 29.9637 14.0656C30.0007 13.9591 30.0385 13.8535 30.0737 13.7461C30.3903 12.7893 30.6464 11.8066 30.7772 10.8453C30.7348 11.138 30.6113 10.9948 30.6798 10.7808C30.7673 10.6394 30.8097 10.4998 30.8377 10.3638C30.8638 10.2277 30.8764 10.0962 30.8773 9.961C30.8809 9.6916 30.8773 9.42578 30.9702 9.10894C30.9684 9.03733 30.9675 8.96573 30.9684 8.89502L30.972 8.89323Z" fill="#FF8CBD"/>
</g>
</g>
</svg>
