<svg width="205" height="205" viewBox="0 0 205 205" fill="none" xmlns="http://www.w3.org/2000/svg">
<path d="M71.7477 152.699C71.6122 154.384 72.0172 158.459 73.4345 159.547" stroke="#33333A" stroke-width="3" stroke-linecap="round"/>
<path d="M63.3059 147.054C63.0905 149.733 63.94 152.177 64.4669 154.748C64.7278 156.021 64.9185 157.399 65.5384 158.578C65.9459 159.354 65.8493 160.668 66.5861 161.234" stroke="#33333A" stroke-width="3" stroke-linecap="round"/>
<path d="M49.8008 135.166C49.7144 136.24 50.0918 137.983 50.3627 139.037C50.7812 140.666 51.2464 142.911 51.228 144.583C51.2106 146.159 51.7924 147.689 51.8352 149.23C51.8814 150.891 52.1652 152.5 52.345 154.164C52.6419 156.913 53.4765 159.718 54.3459 162.271C54.9991 164.189 55.9602 166.179 56.4874 168.064" stroke="#12C0B5" stroke-width="3" stroke-linecap="round"/>
<path d="M43.5829 129.699C43.95 129.819 43.2087 134.628 43.3341 135.17C43.7055 136.775 43.4999 138.729 43.545 140.353C43.5873 141.876 44.0499 143.358 44.1807 144.852C44.3018 146.233 44.2895 147.782 44.7237 149.109C45.0025 149.961 45.2972 151.731 45.181 152.584C45.0054 153.873 45.5779 155.563 45.938 156.744C46.3799 158.193 46.4777 159.785 47.1553 161.118C47.5911 161.975 47.7437 163.25 48.3707 163.987C48.7229 164.4 49.516 165.772 49.5319 166.343C49.5667 167.594 50.5119 169.242 51.5005 170.001" stroke="#12C0B5" stroke-width="3" stroke-linecap="round"/>
<path d="M36.139 121.488C35.7517 123.493 35.2464 125.511 34.9709 127.534C34.6871 129.617 35.1542 131.778 34.7466 133.887C34.5656 134.823 34.1178 136.696 34.4084 137.584C34.9741 139.313 33.9947 141.51 34.3915 143.225C34.9618 145.69 34.3893 148.541 34.9546 150.984C35.8961 155.054 35.8963 159.232 37.0877 163.311C37.7733 165.659 38.7454 167.915 39.5207 170.192C39.7965 171.002 40.3533 171.669 40.7347 172.419C41.0403 173.021 41.9021 174.225 42.4262 174.627" stroke="#33333A" stroke-width="3" stroke-linecap="round"/>
<path d="M31.671 125.139C30.8235 129.525 30.188 134.112 29.3663 138.364C28.8996 140.78 28.4415 143.07 28.5082 145.473C28.5698 147.688 28.7655 149.916 28.9566 152.096C29.0464 153.12 28.7962 155.056 29.2797 155.976C29.7016 156.779 29.3691 157.8 29.7797 158.581C30.2329 159.444 30.1325 160.751 30.4176 161.77C30.6415 162.571 31.075 164.046 31.0122 164.895C30.9409 165.861 31.6887 168.019 32.2458 168.896C33.0248 170.123 33.5851 171.539 34.3157 172.752C35.4886 174.701 37.2843 176.038 38.5353 177.888" stroke="#33333A" stroke-width="3" stroke-linecap="round"/>
<path d="M23.0825 148.816C22.6241 150.29 22.0652 151.484 21.7578 153.075C21.4675 154.577 21.6622 156.166 21.4003 157.521C21.217 158.47 21.3636 161.172 21.8324 162.064C22.3798 163.105 22.8415 165.246 22.9478 166.46C23.049 167.614 24.1565 169.297 24.6958 170.324C25.4844 171.824 25.878 173.556 26.8005 175.008C28.2189 177.241 30.1307 179.353 32.1791 180.925" stroke="#12C0B5" stroke-width="3" stroke-linecap="round"/>
<path d="M18.0393 160.632C17.7356 162.204 17.3536 165.033 18.1095 166.471C18.4777 167.172 18.4395 168.278 18.9154 169.079C19.3833 169.868 20.023 171.049 20.1842 171.889C20.3478 172.741 21.2135 173.548 21.6011 174.364C21.9127 175.021 22.2258 175.808 22.7248 176.337C23.3414 176.991 24.0073 177.992 24.517 178.746C25.1284 179.651 25.839 180.162 26.6825 180.809C27.4078 181.366 28.7004 182.509 29.582 182.679" stroke="#12C0B5" stroke-width="3" stroke-linecap="round"/>
<path d="M14.783 172.295C14.504 173.739 13.973 175.398 14.78 176.782C15.2242 177.544 15.1204 178.777 15.625 179.621C16.0468 180.326 16.6112 181.049 16.9594 181.802C17.4124 182.781 18.7878 184.585 19.7042 185.05C20.1743 185.288 20.2778 186.077 20.8633 186.263C21.2702 186.392 21.8718 186.759 22.2208 187.027" stroke="#33333A" stroke-width="3" stroke-linecap="round"/>
<path d="M66.894 142.142C68.2693 138.974 74.0488 137.812 76.9261 137.007C80.8879 135.899 81.9009 132.205 81.7217 128.434C81.5028 123.827 80.2935 117.944 82.4955 113.6C83.3461 111.923 84.3159 111.946 86.0033 111.474C92.6632 109.611 100.337 111.691 106.974 112.974C110.43 113.641 113.887 114.309 117.343 114.977C118.363 115.174 120.283 115.357 120.564 113.905C120.789 112.737 121.44 111.316 121.702 109.96C122.233 107.215 122.232 104.43 122.531 101.666C122.781 99.3493 122.322 97.0064 122.76 94.7423C123.57 90.55 124.478 86.6231 126.389 82.7835C127.571 80.4078 130.898 77.6701 133.858 78.242C136.759 78.8027 139.521 79.3182 142.214 80.5892C146.967 82.8316 151.882 83.9848 157.039 84.9814" stroke="#12C0B5" stroke-width="3" stroke-linecap="round"/>
<path d="M45.8312 125.053C46.1448 124.091 47.9364 122.894 48.6569 122.125C50.6363 120.013 51.6217 116.587 52.5846 113.928C54.3308 109.107 56.6223 100.869 51.0675 97.5221C50.5557 97.2137 40.4567 89.6612 41.2022 94.8625C41.4045 96.2738 42.5621 97.6782 43.9139 97.9394C45.8955 98.3223 46.7272 96.3388 47.7462 94.8924C49.8491 91.9074 51.4386 87.9571 51.0452 84.209C50.1661 75.8318 46.8073 67.2069 43.0207 59.7865C41.5428 56.8903 39.5511 54.2793 38.0905 51.4051C37.686 50.609 37.6614 50.4015 36.7491 50.2252C35.5033 49.9844 33.6708 49.3584 33.0338 50.8256C32.4232 52.2324 31.4459 53.2265 31.7025 54.9C32.0084 56.8955 36.617 59.8216 38.6215 59.9199C40.9198 60.0326 44.0942 59.7761 45.4732 57.7074C52.7626 46.7724 44.4476 31.2708 36.0325 23.7202" stroke="#33333A" stroke-width="3" stroke-linecap="round"/>
<path d="M78.7827 94.0965C81.1604 92.183 82.8904 89.4516 82.6402 86.2624C82.4378 83.6819 80.7421 81.8559 78.9892 80.0324C74.6312 75.4989 69.243 70.3121 66.3248 64.5694C64.992 61.9467 63.8905 60.0564 64.4706 57.0545C64.9981 54.3249 67.8981 52.1767 70.0464 50.7242C73.6531 48.2857 80.0386 44.4251 81.6548 40.1398C82.9627 36.6719 83.8354 31.0664 82.016 27.5495C81.5014 26.5547 80.0301 25.0376 79.0506 24.4863C78.3774 24.1074 77.2923 23.6922 77.0863 22.9558" stroke="#12C0B5" stroke-width="3" stroke-linecap="round"/>
<path d="M106.055 71.8687C106.968 67.1441 109.677 63.2769 111.838 59.0497C113.457 55.883 115.561 55.9136 118.638 54.5045C121.843 53.0373 126.282 50.3948 129.839 52.5256C131.69 53.6342 131.72 55.0443 130.502 56.4621C129.35 57.8014 125.961 56.5265 124.827 55.7214C122.756 54.2502 122.747 49.9703 123.128 47.8388C124.189 41.9081 126.65 35.3201 132.632 32.7672C137.048 30.8826 142.476 31.3595 147.152 31.8063C153.729 32.4349 161.043 33.6368 167.253 35.858" stroke="#33333A" stroke-width="3" stroke-linecap="round"/>
<path d="M104.4 140.858C105.143 138.374 108.056 137.642 110.292 137.33C113.167 136.929 116.153 135.907 119.051 135.863C121.987 135.817 126.05 137.977 125.401 141.337C125.098 142.904 122.039 142.043 121.08 141.821C119.547 141.465 118.66 139.456 118.308 138.084C115.173 125.884 132.99 120.437 142.006 121.465C144.618 121.763 147.015 122.195 148.745 124.274C150.053 125.845 152.468 128.615 152.993 130.661C154.08 134.892 141.651 130.334 140.584 129.581C136.231 126.515 145.679 118.217 147.771 116.971C156.774 111.606 167.389 113.48 177.167 115.369C181.972 116.298 187.061 116.986 191.686 118.635C193.186 119.17 194.52 120.51 195.95 121.259" stroke="#33333A" stroke-width="3" stroke-linecap="round"/>
<path d="M113.878 148.338L112.475 155.6" stroke="#FF8CBD" stroke-width="3" stroke-linecap="round"/>
<path d="M137.748 149.559C137.266 149.402 136.534 148.436 136.022 148.096C135.055 147.452 134.266 146.685 133.086 146.398C132.08 146.154 131.003 146.217 130.251 145.474" stroke="#33333A" stroke-width="3" stroke-linecap="round"/>
<path d="M179.729 125.281C178.301 125.321 174.625 129.577 173.383 130.835" stroke="#FF8CBD" stroke-width="3" stroke-linecap="round"/>
<path d="M93.0859 140.93C92.3862 143.179 91.1217 145.247 90.6635 147.618" stroke="#33333A" stroke-width="3" stroke-linecap="round"/>
<path d="M73.2646 126.555C72.1518 128.532 71.1615 130.925 69.823 132.67" stroke="#33333A" stroke-width="3" stroke-linecap="round"/>
<path d="M115.91 92.9844C114.724 93.7861 113.128 94.4497 111.788 94.8245" stroke="#FF8CBD" stroke-width="3" stroke-linecap="round"/>
<path d="M138.483 61.9414C138.212 63.3481 136.487 64.7787 135.421 65.6604C134.613 66.3287 132.844 68.3275 131.926 68.5843" stroke="#33333A" stroke-width="3" stroke-linecap="round"/>
<path d="M151.139 45.177C151.188 44.4407 145.058 45.9774 144.182 46.0927" stroke="#FF8CBD" stroke-width="3" stroke-linecap="round"/>
<path d="M176.845 71.9883C173.952 71.7557 170.82 71.9763 167.85 71.7567" stroke="#33333A" stroke-width="3" stroke-linecap="round"/>
<path d="M111.52 20.1934C111.064 22.5518 108.546 25.452 106.964 27.202C105.517 28.8015 104.111 30.3905 102.821 32.0724" stroke="#FF8CBD" stroke-width="3" stroke-linecap="round"/>
<path d="M59.8028 75.3635C60.3633 75.6068 60.5892 76.5349 60.8613 77.0329C61.9238 78.9776 63.074 80.8458 63.9577 82.8836C64.9597 85.1941 67.1171 87.9176 67.4438 90.3999" stroke="#FF8CBD" stroke-width="3" stroke-linecap="round"/>
<path d="M90.123 64.6484C87.5399 64.3887 83.6631 65.9804 81.3629 67.099" stroke="#33333A" stroke-width="3" stroke-linecap="round"/>
<path d="M21.1979 72.4232C20.9951 74.4396 21.1354 77.1065 21.6079 79.0731C21.7893 79.8286 22.17 82.1336 22.6415 82.4954" stroke="#FF8CBD" stroke-width="3" stroke-linecap="round"/>
<path d="M29.093 115.381C26.9446 114.966 25.4524 112.588 23.8446 111.354" stroke="#33333A" stroke-width="3" stroke-linecap="round"/>
<path d="M35.4663 114.585C35.1499 116.222 34.5093 118.006 33.7938 119.418C33.1446 120.699 33.1411 122.192 32.3195 123.369C31.2897 124.846 31.1965 126.937 30.4963 128.55C29.9304 129.853 29.1793 131.543 28.9198 132.886C28.7643 133.691 28.1421 134.314 27.9923 135.089C27.872 135.712 27.5665 136.956 27.1623 137.437C26.2549 138.519 26.6622 140.616 25.5416 141.57C25.0751 141.967 24.5252 143.512 24.2489 144.149C23.9581 144.819 23.5815 145.659 23.187 146.327C22.7861 147.005 22.2809 147.77 22.1386 148.507C22.0171 149.136 21.6236 150.403 21.2853 150.976C20.8647 151.687 20.6079 152.773 20.4086 153.566C20.2367 154.249 19.6637 155.024 19.5044 155.649C18.9835 157.692 17.7384 159.595 17.3482 161.614C16.9595 163.626 15.6312 165.665 14.9017 167.496C14.1491 169.385 13.8446 171.553 12.8737 173.375C12.1955 174.649 12.1727 176.715 11.8984 178.134C11.62 179.575 11.1111 181.018 11.7888 182.308C12.9575 184.532 13.3838 187.828 16.5542 188.44C22.4206 189.574 26.5914 184.295 31.3877 181.775C33.9904 180.407 36.765 179.272 39.1989 177.626C39.9028 177.15 42.366 175.797 42.5747 175.157C42.8452 174.328 45.4707 173.526 46.1889 173.04C47.8575 171.912 50.1929 171.653 51.7927 170.291C52.8044 169.43 54.7761 169.313 55.9539 168.517C57.2778 167.622 59.1168 167.064 60.2687 166.02C61.6524 164.766 63.7398 163.517 65.4338 162.656C68.2813 161.209 71.0886 159.92 73.9592 158.562C76.6525 157.288 79.4184 155.015 82.2388 154.226" stroke="#33333A" stroke-width="3" stroke-linecap="round"/>
<path d="M64.3329 129.646C65.2841 129.941 66.2322 130.99 66.8273 131.778C67.4427 132.592 68.356 133.377 69.1384 134.034C70.1285 134.864 71.1502 135.783 71.9294 136.814C72.4732 137.533 73.435 138.232 73.8338 138.991C74.0844 139.468 74.7541 139.991 75.1659 140.345C75.6497 140.761 75.7959 141.424 76.3132 141.88C77.0982 142.572 77.7558 143.539 78.4506 144.355C79.3379 145.398 80.3744 146.398 80.9328 147.666C81.4197 148.772 81.8094 149.977 82.3918 151.033C82.881 151.92 82.7471 153.764 81.9931 154.406C81.7143 154.643 80.6021 154.39 80.2378 154.32C79.4977 154.177 78.9569 153.997 78.2963 153.645C77.7884 153.374 77.0986 153.038 76.5405 152.93C75.8814 152.803 75.3363 152.36 74.7325 152.244C73.3627 151.979 72.3719 150.853 71.098 150.529C70.6845 150.423 69.6591 149.644 69.3462 149.309C68.9174 148.85 68.1567 148.438 67.6001 148.156C66.7539 147.727 65.9546 147.007 65.0231 146.645C64.1454 146.304 63.4181 145.438 62.5167 145.158C61.3443 144.793 60.1242 143.248 59.2566 142.428C58.0747 141.31 56.5923 140.406 55.5881 139.094C55.1417 138.51 54.3403 137.628 53.7631 137.185C53.3569 136.873 52.9588 136.114 52.4806 135.962C52.0722 135.832 51.6559 135.3 51.3119 135.023C50.7084 134.538 50.0378 134.184 49.4757 133.609C48.512 132.624 47.1276 131.866 46.2397 130.706C45.8304 130.171 45.1951 129.536 44.6947 129.095C44.027 128.506 43.4512 127.746 42.7794 127.168C41.6025 126.157 40.1501 125.508 39.4299 124.027C38.825 122.783 37.1091 121.544 36.9796 120.066C36.9135 119.312 34.2274 113.871 36.6607 114.342C37.2493 114.455 37.7773 113.882 38.4132 114.005C39.0054 114.12 39.6011 114.066 40.2342 114.188C40.8849 114.314 41.5356 114.44 42.1864 114.566C43.2307 114.767 45.0648 115.198 45.9379 115.965C47.0892 116.977 48.8272 117.498 49.835 118.65C50.5575 119.475 52.0012 120.56 53.0323 120.88C53.607 121.059 54.3566 121.781 54.9177 122.088C55.54 122.429 56.0685 122.992 56.7054 123.268C57.7392 123.717 58.8044 124.681 59.7628 125.35C60.892 126.137 62.2025 126.766 63.2802 127.67C64.1014 128.359 64.8199 129.272 65.6344 129.897" stroke="#33333A" stroke-width="3" stroke-linecap="round"/>
</svg>
