<svg xmlns="http://www.w3.org/2000/svg" width="205" height="205" viewBox="0 0 205 205" fill="none">
  <path d="M76.013 69.903C76.3824 70.2421 77.2079 70.5305 77.6651 70.743C78.1371 70.9624 78.628 71.4662 79.0993 71.5513C79.5463 71.632 80.3532 72.612 80.6473 72.9258C81.2976 73.6194 82.1798 74.1039 82.8394 74.784C84.0448 76.0269 85.8619 76.7129 87.0714 77.9995C87.9234 78.9059 89.3526 79.3064 90.1602 80.2318C90.9984 81.1924 92.4971 81.6024 93.3511 82.5811C94.0898 83.4276 95.5364 83.7779 96.3301 84.6875C96.9842 85.4371 98.4607 86.4744 99.3438 86.9062C100.617 87.5286 101.892 88.743 102.933 89.6211C103.83 90.3777 105.082 90.7943 105.832 91.6544C106.237 92.1186 106.896 92.2193 107.286 92.6671C108.257 93.7793 110.012 94.663 111.242 95.4745C111.601 95.7116 111.886 95.9838 112.269 96.162C113.612 96.786 114.628 98.3172 115.956 98.9343C116.988 99.4137 118.092 100.412 118.961 101.161C119.549 101.668 120.335 102.064 120.84 102.642C121.219 103.077 121.894 103.197 122.231 103.583C122.817 104.254 123.964 105.399 124.781 105.779C125.204 105.976 125.914 106.454 126.199 106.823C126.391 107.071 125.351 107.262 125.103 107.273C124.229 107.31 122.958 108.166 122.053 108.445C119.646 109.187 117.137 109.563 114.641 110.065C112.424 110.51 110.547 110.978 108.394 111.586C106.077 112.24 103.86 113.472 101.496 113.977C100.728 114.141 99.4228 114.915 98.6248 114.771C98.0777 114.673 95.744 115.23 95.2983 115.535C94.4237 116.134 92.9311 116.019 91.9326 116.254C91.0684 116.457 89.523 116.846 88.5953 116.678C87.9233 116.557 86.4952 117.041 85.8149 117.251C84.587 117.63 83.3306 117.749 82.065 118.02C80.8932 118.27 79.7615 118.685 78.6319 118.734C78.3953 118.744 77.2834 119.032 77.0792 119.17C76.4568 119.589 76.6344 119.16 76.4396 118.745C76.1101 118.044 76.0377 116.663 75.8685 115.821C75.6351 114.66 75.3952 113.57 75.3431 112.35C75.2627 110.472 75.5192 108.509 75.5664 106.578C75.5902 105.604 75.7134 104.666 75.7792 103.699C75.834 102.893 75.6585 101.911 75.7893 101.186C75.9362 100.372 75.6718 99.2115 75.5122 98.4175C75.4435 98.0755 75.0156 95.6646 75.2893 95.4747C75.6724 95.2087 77.5203 95.6772 78.0652 95.7143C79.1481 95.7879 80.4675 95.9379 81.4459 96.3926C82.5677 96.914 83.9405 97.0595 85.1035 97.479C86.0272 97.8123 87.2627 98.4207 88.2299 98.5378C90.112 98.7657 92.118 99.6144 94.0259 99.5328C94.9599 99.4928 96.4492 99.9022 97.3224 100.205C98.3454 100.561 99.3816 100.428 100.376 100.836C101.3 101.215 102.7 101.502 103.711 101.571C104.221 101.605 104.71 101.774 105.218 101.808C105.768 101.846 104.725 101.498 104.566 101.316C104.075 100.753 102.697 100.408 101.98 100.15C100.947 99.7771 100.037 99.4046 99.0097 99.034C98.2662 98.7658 96.8754 97.9664 96.1102 97.9992C94.9619 98.0483 93.7424 96.9759 92.6099 96.8388C91.6872 96.7271 90.5968 96.0006 89.6803 95.6242C88.7031 95.2229 87.8194 94.9085 86.8257 94.5501C84.6611 93.7692 82.8491 92.4011 80.7596 91.4299C79.7439 90.9578 78.6471 90.6165 77.6481 90.1522C76.3505 89.5491 76.1962 89.2791 75.6316 88.0774C75.4225 87.6324 75.7026 86.7707 75.4521 86.2375C75.3246 85.9661 75.1909 84.8505 75.2455 84.5481C75.4062 83.6576 74.934 82.534 75.0001 81.5615C75.1224 79.7634 75.3425 77.9642 75.6609 76.1996C76.0027 74.3061 75.3976 72.1607 76.1337 70.3681" stroke="black" stroke-width="3" stroke-linecap="round"/>
  <path d="M75.906 89.3902C73.6953 91.3193 71.2887 92.5638 69.0865 94.4855C68.0738 95.3693 66.9175 96.0931 65.8689 97.0082C65.3319 97.4767 62.8246 99.0969 62.7789 99.768C62.7061 100.839 67.7986 102.267 68.7123 102.228C70.7799 102.139 73.2746 102.751 75.0987 103.5" stroke="black" stroke-width="3" stroke-linecap="round"/>
  <path d="M75.2112 95.131C74.5521 95.7062 73.0626 96.9361 72.1921 96.9734C71.8116 96.9896 70.7566 97.4383 70.4044 97.6302C69.9214 97.8933 69.3341 97.8682 68.8471 98.1335C68.4621 98.3433 67.9574 98.6325 67.5088 98.6517C67.0558 98.6711 66.4027 99.3729 66.0176 99.3034C65.7804 99.2606 64.8768 99.8266 64.5624 99.9236C64.038 100.085 63.5092 100.252 62.9737 100.391" stroke="black" stroke-width="3" stroke-linecap="round"/>
  <path d="M79.045 91.7564C77.9769 91.8255 76.8522 91.8525 75.8243 92.1943C74.9702 92.4783 73.5811 92.5701 72.8893 93.1737C72.6739 93.3616 73.4518 93.279 73.7276 93.3539C74.6679 93.6094 75.6692 93.8158 76.6402 93.9098C78.7034 94.1095 80.7726 94.1967 82.8348 94.337C83.8747 94.4077 80.7672 94.6217 79.7263 94.6769C78.0285 94.767 76.3642 95.0108 74.6781 95.1607C73.2516 95.2876 71.813 95.5639 70.3913 95.749C69.7263 95.8356 68.7183 95.8249 68.1778 96.2965" stroke="black" stroke-linecap="round"/>
  <path d="M82.543 96.2174C84.0634 96.3208 85.5855 96.1505 87.0836 96.2094C87.878 96.2407 89.4737 96.0907 87.9439 96.8428C86.1943 97.7029 88.4353 97.8851 89.3119 97.9447C90.9654 98.0572 92.6713 98.1342 94.3082 98.396C94.7052 98.4595 93.956 98.7143 93.8771 98.7831" stroke="black" stroke-linecap="round"/>
  <path d="M156.365 68.6603C156.686 68.6479 157.192 68.4065 157.497 68.2968C157.811 68.1836 158.262 68.1914 158.515 68.0173C158.755 67.8522 159.564 67.9341 159.84 67.9442C160.449 67.9664 161.07 67.7887 161.677 67.8006C162.787 67.8222 163.924 67.3141 165.056 67.3538C165.853 67.3818 166.685 66.9188 167.47 66.9756C168.286 67.0345 169.153 66.5445 169.984 66.6045C170.703 66.6564 171.519 66.1627 172.292 66.2185C172.928 66.2645 174.068 66.0702 174.666 65.8681C175.526 65.5767 176.655 65.5539 177.526 65.4836C178.276 65.4231 179.034 65.0476 179.764 65.1003C180.158 65.1288 180.503 64.8774 180.883 64.9049C181.827 64.973 183.026 64.5829 183.952 64.3973C184.222 64.3431 184.475 64.3383 184.73 64.2463C185.623 63.9243 186.777 64.1624 187.66 63.8439C188.347 63.5965 189.301 63.5524 190.034 63.5011C190.531 63.4664 191.067 63.2917 191.559 63.3272C191.928 63.3539 192.289 63.1036 192.617 63.1273C193.186 63.1685 194.225 63.1719 194.769 62.9758C195.051 62.8743 195.59 62.7718 195.886 62.8109C196.086 62.8371 195.698 63.394 195.59 63.511C195.209 63.9226 195.017 64.8857 194.731 65.4215C193.97 66.8463 192.997 68.1503 192.087 69.5058C191.279 70.7093 190.636 71.7702 189.93 73.0188C189.17 74.3627 188.717 75.9248 187.869 77.2219C187.593 77.6437 187.348 78.5857 186.92 78.8804C186.626 79.0825 185.815 80.3899 185.75 80.7301C185.622 81.3977 184.891 82.0195 184.542 82.5771C184.24 83.0597 183.712 83.9346 183.214 84.2772C182.853 84.5255 182.422 85.3906 182.207 85.7933C181.819 86.5202 181.301 87.142 180.846 87.8365C180.426 88.4796 180.098 89.1798 179.606 89.7118C179.502 89.8233 179.126 90.4565 179.095 90.6114C179.002 91.0835 178.889 90.8078 178.613 90.707C178.146 90.5364 177.489 89.9403 177.032 89.6334C176.402 89.2099 175.8 88.8218 175.226 88.2902C174.341 87.4711 173.571 86.4614 172.721 85.561C172.292 85.1067 171.925 84.624 171.518 84.1539C171.179 83.7622 170.656 83.3945 170.388 83.0055C170.088 82.5684 169.443 82.1593 169.012 81.8699C168.826 81.7452 167.543 80.8406 167.582 80.6306C167.636 80.3365 168.689 79.7154 168.954 79.4863C169.48 79.0308 170.149 78.5034 170.799 78.2687C171.546 77.9996 172.236 77.446 172.955 77.1119C173.526 76.8465 174.364 76.5658 174.857 76.1824C175.817 75.4363 177.113 74.917 177.945 74.0184C178.352 73.5785 179.215 73.0924 179.75 72.8362C180.376 72.536 180.788 72.0076 181.425 71.7445C182.017 71.5003 182.784 70.9984 183.275 70.5733C183.523 70.3589 183.822 70.2146 184.069 70.0012C184.336 69.7698 183.704 70.0823 183.549 70.0711C183.072 70.0366 182.289 70.5021 181.846 70.7079C181.207 71.0048 180.624 71.2459 179.989 71.541C179.53 71.7546 178.535 72.0186 178.202 72.379C177.701 72.9198 176.662 72.9822 176.084 73.4311C175.614 73.7968 174.789 73.9584 174.202 74.2008C173.576 74.4593 173.031 74.7152 172.417 75.0006C171.079 75.6225 169.636 75.8177 168.246 76.3189C167.571 76.5626 166.917 76.9024 166.253 77.142C165.389 77.4533 165.197 77.4001 164.398 77.1078C164.101 76.9996 163.84 76.4808 163.485 76.3511C163.304 76.2851 162.74 75.8375 162.628 75.6752C162.299 75.1972 161.577 74.8988 161.168 74.4261C160.412 73.5521 159.7 72.6336 159.048 71.6863C158.349 70.6698 157.104 69.9662 156.63 68.8176" stroke="black" stroke-width="3" stroke-linecap="round"/>
  <path d="M165.116 77.5821C164.98 79.4586 164.446 81.1118 164.311 82.9812C164.249 83.8409 164.049 84.6926 163.985 85.5827C163.952 86.0385 163.542 87.9083 163.824 88.2344C164.275 88.7552 167.238 87.1057 167.636 86.6754C168.538 85.7015 169.95 84.8535 171.119 84.3709" stroke="black" stroke-width="3" stroke-linecap="round"/>
  <path d="M167.391 80.5089C167.35 81.0684 167.228 82.3009 166.848 82.711C166.682 82.8902 166.404 83.5708 166.331 83.8172C166.229 84.1551 165.951 84.4089 165.849 84.7495C165.768 85.0189 165.669 85.3785 165.473 85.5898C165.276 85.8031 165.295 86.4176 165.089 86.5598C164.961 86.6474 164.805 87.3131 164.706 87.4993C164.54 87.8097 164.375 88.1243 164.194 88.4294" stroke="black" stroke-width="3" stroke-linecap="round"/>
  <path d="M167.613 77.2417C167.158 77.7555 166.658 78.2755 166.344 78.8953C166.084 79.4103 165.493 80.0793 165.45 80.6665C165.437 80.8493 165.754 80.4604 165.913 80.37C166.457 80.0618 167.006 79.7037 167.491 79.308C168.52 78.4673 169.502 77.5728 170.504 76.7055C171.009 76.2682 169.691 77.7688 169.242 78.2639C168.51 79.0715 167.862 79.9339 167.162 80.7635C166.57 81.4654 166.039 82.2407 165.476 82.967C165.212 83.3067 164.748 83.7569 164.715 84.2157" stroke="black" stroke-linecap="round"/>
  <path d="M171.22 77.6936C171.959 77.0542 172.575 76.2893 173.284 75.6398C173.66 75.2953 174.319 74.5065 173.962 75.5397C173.553 76.7213 174.656 75.7924 175.082 75.4238C175.886 74.7284 176.697 73.9932 177.561 73.3733C177.77 73.223 177.544 73.6773 177.539 73.7442" stroke="black" stroke-linecap="round"/>
  <path d="M44.7698 97.3525C46.6729 97.3525 48.3864 97.8778 50.0226 97.8778" stroke="black" stroke-width="3" stroke-linecap="round"/>
  <path d="M137.082 103.313C139.234 103.056 140.605 101.883 142.479 101" stroke="black" stroke-width="3" stroke-linecap="round"/>
  <path d="M151.993 96.5473C153.105 96.4956 156.399 95.0183 156.85 93.9997" stroke="black" stroke-width="3" stroke-linecap="round"/>
  <path d="M9.32788 109.408C10.4786 108.257 12.1083 107.423 13.4877 106.733" stroke="black" stroke-width="3" stroke-linecap="round"/>
  <path d="M25.9668 101.979C27.3267 100.866 29.5258 100.942 31.0179 100.196" stroke="black" stroke-width="3" stroke-linecap="round"/>
</svg>