<svg width="278" height="166" viewBox="0 0 278 166" fill="none" xmlns="http://www.w3.org/2000/svg">
<path d="M194.935 65.2577C194.735 63.454 192.436 62.0448 192.03 60.2208C191.783 59.1076 189.859 55.7251 188.912 55.1839C186.951 54.0633 185.611 52.4256 183.422 51.4528C181.077 50.4103 177.142 49.8579 174.788 50.9731C163.418 56.3589 158.061 68.4226 154.747 80.022C154.35 81.4101 153.2 87.2271 153.92 88.5235C154.649 89.8348 155.231 92.7429 155.573 94.28C156.564 98.7418 160.28 99.3776 164.234 97.5047C166.828 96.2761 169.097 95.4138 171.19 93.3206C172.889 91.6216 174.479 89.6441 176.253 88.0172C178.018 86.3995 179.294 84.523 180.917 82.9003C182.005 81.812 183.894 79.1937 184.382 77.7301" stroke="#33333A" stroke-width="2.3" stroke-linecap="round"/>
<path d="M174.657 90.3C174.657 91.5771 174.854 94.7948 174.924 96.0634C174.976 96.9979 175.602 97.9241 175.635 98.8659C175.667 99.8084 175.789 101.527 176.257 102.369C176.696 103.16 176.457 104.347 176.789 105.211C177.216 106.321 177.292 107.736 177.845 108.764C178.344 109.689 178.335 111.019 179.099 111.783C179.586 112.271 179.684 113.059 180.076 113.619C180.469 114.18 180.978 114.611 181.279 115.247C181.732 116.201 182.608 116.864 182.957 117.872C183.211 118.605 184.22 119.462 184.812 119.944C185.937 120.86 186.817 122.406 188.069 123.102C188.583 123.388 188.951 123.973 189.45 124.306C190.07 124.719 190.757 124.978 191.434 125.283C193.019 125.996 194.705 126.772 196.427 127.059C197.427 127.226 199.299 127.485 200.187 128.036C201.312 128.734 202.957 129.102 204.272 129.102C205.886 129.102 207.5 129.634 209.107 129.634C212.316 129.634 215.756 130.295 218.956 129.723C220.173 129.506 221.22 129.41 222.35 128.845C222.895 128.573 223.498 128.43 224.107 128.302C225.811 127.946 227.178 127.767 228.784 127.128C230.517 126.439 232.159 125.381 233.935 124.839C235.19 124.456 236.491 123.668 237.31 122.628C238.092 121.635 239.034 120.896 239.935 120.043C240.94 119.09 241.669 117.531 242.323 116.342C243.616 113.991 245.6 112 246.596 109.454C246.873 108.748 247.115 108.009 247.474 107.343C247.89 106.571 247.846 105.793 248.027 104.964C248.213 104.115 248.639 103.263 248.639 102.379C248.639 101.701 248.397 101.093 248.501 100.405C248.776 98.5788 249.475 96.7271 249.527 94.899C249.561 93.7082 250.209 89.9756 250.209 88.7422" stroke="#33333A" stroke-width="2.3" stroke-linecap="round"/>
<path d="M202.697 77.9453C201.394 77.9787 200.102 78.1654 198.811 78.3359C198.381 78.3927 198.049 78.4696 197.693 78.7362C197 79.256 196.063 79.5698 195.248 79.859C194.104 80.2647 193.304 80.7967 192.572 81.7629C192.299 82.124 191.787 82.5744 191.635 82.9931C191.537 83.2642 191.014 84.0695 191.014 84.0695" stroke="#33333A" stroke-width="2.3" stroke-linecap="round"/>
<path d="M223.727 77.9453C225.031 77.9787 226.322 78.1654 227.613 78.3359C228.043 78.3927 228.375 78.4696 228.731 78.7362C229.424 79.256 230.362 79.5698 231.177 79.859C232.32 80.2647 233.121 80.7967 233.852 81.7629C234.125 82.124 234.637 82.5744 234.789 82.9931C234.888 83.2642 235.41 84.0695 235.41 84.0695" stroke="#33333A" stroke-width="2.3" stroke-linecap="round"/>
<path d="M202.758 98.8689C202.493 98.8689 202.241 98.8414 201.997 98.6955C201.899 98.6366 201.803 98.5722 201.703 98.5166C201.669 98.4973 201.617 98.4838 201.593 98.4423C201.524 98.3195 201.422 98.2254 201.343 98.1105C201.209 97.916 201.096 97.7301 200.996 97.5049C200.763 96.9809 200.433 96.4157 200.386 95.7941C200.339 95.184 200.352 94.6114 200.458 94.0117C200.541 93.5384 200.615 93.0523 200.741 92.5954C200.833 92.2636 200.941 92.0093 201.135 91.7585C201.274 91.5785 201.426 91.48 201.605 91.3773C201.753 91.2922 201.884 91.1739 202.032 91.0951C202.088 91.0658 202.192 91.0878 202.249 91.091C202.486 91.1044 202.719 91.1595 202.958 91.1639C203.311 91.1706 203.689 91.23 204 91.4626C204.114 91.5482 204.186 91.6413 204.257 91.7806C204.372 92.0065 204.513 92.1912 204.617 92.4302C204.752 92.7375 204.825 93.0855 204.887 93.4267C204.954 93.7968 205.019 94.1837 205.03 94.565C205.048 95.1482 204.99 95.7047 204.935 96.28C204.883 96.8167 204.729 97.5605 204.399 97.9385C204.067 98.3182 203.6 98.4615 203.197 98.6597C203.07 98.7218 202.947 98.7908 202.82 98.8497C202.752 98.8813 202.71 98.841 202.644 98.8194" stroke="#33333A" stroke-width="2.3" stroke-linecap="round"/>
<ellipse cx="202.697" cy="94.9745" rx="2.33666" ry="3.89443" fill="#33333A"/>
<path d="M212.753 122.607C212.323 122.435 211.826 122.422 211.429 122.169C211.216 122.033 210.89 121.98 210.647 121.906C210.155 121.759 209.684 121.896 209.306 121.496C209.013 121.186 208.576 120.953 208.212 120.724C208.031 120.611 207.905 120.449 207.747 120.311C207.421 120.029 207.084 119.828 206.707 119.614C206.23 119.343 205.896 118.862 205.552 118.448C205.33 118.18 205.196 117.895 205.169 117.545C205.155 117.355 205.114 117.065 205.06 116.883C204.992 116.654 205.072 116.455 205.123 116.229C205.173 116.005 205.531 115.727 205.741 115.663C206.421 115.454 207.12 115.331 207.823 115.242C208.678 115.133 209.543 115.096 210.395 114.962C210.913 114.881 211.49 114.727 212.012 114.727C213.138 114.727 214.255 114.375 215.394 114.484C215.998 114.541 216.598 114.694 217.202 114.765C217.968 114.856 218.732 114.954 219.498 115.045C219.816 115.082 219.911 115.144 220.152 115.378C220.635 115.85 221.12 116.106 220.964 116.848C220.77 117.771 219.954 118.549 219.342 119.22C218.777 119.838 218.193 120.424 217.602 121.015C217.415 121.202 217.257 121.41 217.033 121.556C216.546 121.872 215.998 122.093 215.489 122.372C215.004 122.637 214.583 122.99 214.105 123.264C213.89 123.386 213.657 123.47 213.443 123.592" stroke="#33333A" stroke-width="2.3" stroke-linecap="round"/>
<path d="M205.169 116.782L213.737 123.792L220.747 116.782L213.737 114.445L205.169 116.782Z" fill="#33333A"/>
<path d="M213.394 119.752C212.952 121.832 212.982 123.917 213.096 126.028C213.14 126.845 213.345 129.287 213.345 128.469" stroke="#33333A" stroke-width="2.3" stroke-linecap="round"/>
<path d="M228.28 63.4669C228.913 63.1293 229.548 62.7978 230.221 62.5528C232.61 61.6843 234.26 59.7337 235.665 57.705C237.32 55.3149 239.074 52.9372 240.564 50.4539C241.616 48.7003 242.962 47.1511 243.799 45.2672C244.959 42.6589 246.042 39.6762 248.195 37.7388C248.94 37.0682 250.77 35.9312 251.841 35.9312C253.474 35.9312 254.903 34.552 256.699 35.1506C258.058 35.6034 259.023 36.3693 260.253 37.0815C261.3 37.6877 262.734 39.9876 263.118 41.0973C263.699 42.7742 264.135 44.6938 264.135 46.4689C264.135 47.8567 264.32 49.1341 264.32 50.5361C264.32 51.5473 264.041 52.3451 263.807 53.3092C263.622 54.0675 263.466 54.9241 263.406 55.7023C263.3 57.0755 262.496 58.4689 261.978 59.7181C261.656 60.4948 261.356 61.2161 260.91 61.916C260.647 62.3291 260.699 62.8809 260.397 63.2923C260.031 63.7892 259.564 64.2899 259.154 64.7507C258.318 65.691 257.773 66.6748 257.151 67.7909C256.72 68.5649 256.152 69.2627 255.734 70.0401C255.551 70.3801 255.531 70.7832 255.302 71.098C254.923 71.6191 254.295 72.59 254.029 73.1932C252.991 75.5461 252.46 78.0613 251.759 80.5162C251.544 81.2703 250.245 87.9504 250.209 88.7431" stroke="#33333A" stroke-width="2.3" stroke-linecap="round"/>
<path d="M253.312 50.5781C253.097 52.6872 252.706 54.7907 251.936 56.7729C251.446 58.033 250.738 58.8176 249.951 59.9288C249.171 61.0302 248.404 62.2331 247.469 63.2019C246.923 63.7674 245.873 64.2701 245.536 64.9446" stroke="#FF8CBD" stroke-width="2.3" stroke-linecap="round"/>
<path d="M200.18 105.726C200.791 105.717 201.314 105.349 201.925 105.302C202.686 105.048 204.182 104.305 204.942 104.029C205.276 103.907 205.694 103.782 205.923 103.543C206.258 103.195 206.31 103.035 206.702 102.764C207.154 102.451 207.752 101.8 208.219 101.501C208.421 101.371 208.563 101.172 208.761 101.059C208.843 101.012 209.032 100.71 209.085 100.617C209.546 99.7976 210.085 98.7672 210.199 97.8293C210.341 96.6562 210.411 95.5616 210.411 94.3759C210.411 93.0386 210.319 91.5766 209.928 90.2919C209.748 89.7002 209.313 88.7324 208.855 88.3059C208.302 87.7913 207.48 87.569 206.91 87.0566C204.754 85.1162 201.702 85.3594 199.008 85.3594C197.885 85.3594 196.366 85.4718 195.324 85.9133C194.863 86.1088 194.55 86.1984 194.175 86.5262C193.463 87.1491 192.359 87.2875 191.688 87.9582C191.4 88.2468 191.034 88.3928 190.71 88.636C187.642 90.9371 187.554 95.5643 188.029 99.0079C188.229 100.462 188.97 101.719 190.021 102.732C190.587 103.278 191.354 103.669 192.012 104.088C192.417 104.345 192.651 104.694 193.12 104.824C193.746 104.998 194.382 105.231 195.006 105.431C195.502 105.591 196.099 105.514 196.621 105.514C197.818 105.514 198.981 105.744 200.18 105.726Z" stroke="#33333A" stroke-width="2.3" stroke-linecap="round"/>
<path d="M226.279 105.726C225.668 105.717 225.145 105.349 224.534 105.302C223.773 105.048 222.277 104.305 221.517 104.029C221.183 103.907 220.765 103.782 220.536 103.543C220.201 103.195 220.149 103.035 219.757 102.764C219.305 102.451 218.707 101.8 218.24 101.501C218.038 101.371 217.896 101.172 217.698 101.059C217.616 101.012 217.427 100.71 217.374 100.617C216.913 99.7976 216.374 98.7672 216.26 97.8293C216.118 96.6562 216.048 95.5616 216.048 94.3759C216.048 93.0386 216.14 91.5766 216.531 90.2919C216.711 89.7002 217.146 88.7324 217.604 88.3059C218.157 87.7913 218.979 87.569 219.549 87.0566C221.705 85.1162 224.757 85.3594 227.451 85.3594C228.574 85.3594 230.093 85.4718 231.135 85.9133C231.596 86.1088 231.909 86.1984 232.284 86.5262C232.996 87.1491 234.1 87.2875 234.771 87.9582C235.059 88.2468 235.425 88.3928 235.749 88.636C238.817 90.9371 238.905 95.5643 238.43 99.0079C238.23 100.462 237.489 101.719 236.438 102.732C235.872 103.278 235.105 103.669 234.447 104.088C234.042 104.345 233.808 104.694 233.339 104.824C232.713 104.998 232.077 105.231 231.453 105.431C230.957 105.591 230.36 105.514 229.838 105.514C228.641 105.514 227.478 105.744 226.279 105.726Z" stroke="#33333A" stroke-width="2.3" stroke-linecap="round"/>
<path d="M210.722 94.6747C212.134 94.5426 213.586 94.4933 214.984 94.2452C215.064 94.2311 215.117 94.1871 215.183 94.1543" stroke="#33333A" stroke-width="2.3" stroke-linecap="round"/>
<path d="M179.799 85.0547C180.804 85.6366 181.852 86.0672 182.888 86.5855C183.628 86.9553 184.352 87.4748 185.133 87.7976C185.474 87.939 185.631 88.3671 185.971 88.518C186.242 88.6387 186.51 88.8457 186.781 88.989C187.314 89.271 187.799 89.6884 188.402 89.8894" stroke="#33333A" stroke-width="2.3" stroke-linecap="round"/>
<path d="M250.988 81.7344C250.186 82.4216 248.836 83.5028 247.915 84.0289C247.382 84.3339 246.884 84.745 246.35 85.0541C245.345 85.636 244.297 86.0666 243.261 86.5849C242.521 86.9547 241.796 87.4742 241.016 87.797C240.675 87.9384 240.518 88.3665 240.178 88.5174C239.907 88.6381 239.638 88.8451 239.368 88.9884C238.835 89.2704 238.35 89.6878 237.747 89.8888" stroke="#33333A" stroke-width="2.3" stroke-linecap="round"/>
<path d="M231.054 92.9144C230.512 92.8843 230.023 92.7219 229.471 92.7219C228.336 92.7219 227.004 92.5267 225.9 92.7273C225.362 92.8252 224.804 93.324 224.259 93.4918C223.478 93.7321 222.673 94.1717 222.147 94.8177C221.797 95.2477 221.411 95.7875 221.163 96.2825C221.061 96.4884 220.955 96.6944 220.853 96.9027C220.779 97.0561 220.416 97.68 220.752 97.5068C221.651 97.0428 222.72 96.4975 223.74 96.3841C225.523 96.186 227.396 96.5348 229.129 96.8599" stroke="#33333A" stroke-width="2.3" stroke-linecap="round"/>
<path d="M207.133 52.1348C208.882 54.1027 211.449 57.2077 211.449 60.0111C211.449 60.6307 211.809 63.8234 211.449 64.0033" stroke="#33333A" stroke-width="2.3" stroke-linecap="round"/>
<path d="M215.549 64.4345C215.549 61.5782 216.41 59.2613 217.275 56.666" stroke="#33333A" stroke-width="2.3" stroke-linecap="round"/>
<path d="M259.318 27.2873C261.884 26.9666 263.32 26.7534 265.432 28.4429C267.955 30.4608 269.529 31.8675 269.529 35.2292" stroke="#C1C1C7" stroke-width="2.3" stroke-linecap="round"/>
<path d="M260.715 19.9766C262.072 20.1363 263.473 20.1473 264.786 20.5775C266.367 21.096 268.034 21.7522 269.531 22.5006C270.394 22.9323 271.08 23.3152 271.772 23.9899C272.453 24.6533 273.093 25.2031 273.675 25.9652C273.967 26.349 274.171 26.7685 274.458 27.1515C275.024 27.9051 275.419 28.7963 275.817 29.5919" stroke="#C1C1C7" stroke-width="2.3" stroke-linecap="round"/>
<path d="M230.697 158.309C231.917 158.599 233.237 158.469 234.527 158.279C235.807 158.089 237.097 157.779 238.237 157.299C239.367 156.609 239.287 155.279 238.417 154.059C237.817 153.219 236.957 152.979 236.027 152.999C235.167 153.019 234.237 153.219 233.407 153.729C232.617 154.219 231.927 154.919 231.427 155.649C230.757 156.639 230.287 157.669 229.977 158.649C229.597 159.859 229.557 160.959 229.867 161.909C230.197 162.919 230.887 163.679 232.167 164.059C233.027 164.319 234.107 164.349 235.467 164.189C236.397 164.059 237.477 164.069 237.987 163.329" stroke="#33333A" stroke-width="2.2" stroke-linecap="round" stroke-linejoin="round"/>
<path d="M178.46 151.969C178.58 152.199 178.81 152.479 178.8 152.729C178.76 153.659 178.56 154.639 178.47 155.659C178.39 156.619 178.27 157.599 178.13 158.579C178 159.559 177.74 160.519 177.56 161.459C177.36 162.459 177.27 163.399 177 164.289C177.57 163.419 178.17 162.349 178.68 161.199C179.19 160.049 179.5 158.789 180.18 157.969C180.87 156.949 181.6 155.849 182.44 154.909C183.31 153.949 184.38 153.189 185.61 152.839C186.65 152.539 187.24 153.539 187.38 155.009C187.47 155.919 187.29 157.029 187.19 158.149C187.09 159.209 187.07 160.319 186.9 161.279C186.64 162.789 186.4 164.019 186.29 164.379C186.65 163.289 186.84 162.189 187.24 161.239C187.69 160.159 188.27 159.219 188.75 158.329C189.33 157.259 189.99 156.389 190.57 155.619C191.41 154.509 192.08 153.619 192.79 153.249C193.89 152.659 194.76 153.089 195.06 154.679C195.21 155.469 195.22 156.549 195.07 157.939C194.97 158.869 194.85 159.959 194.59 161.179C194.38 162.149 193.93 163.159 193.61 164.319" stroke="#33333A" stroke-width="2.1472" stroke-linecap="round" stroke-linejoin="round"/>
<path d="M200.67 146.969C200.97 147.409 201.17 147.919 201.6 148.229" stroke="#33333A" stroke-width="2.2" stroke-linecap="round" stroke-linejoin="round"/>
<path d="M200.89 152.779C200.64 153.709 200.26 154.659 200.02 155.659C199.79 156.619 199.72 157.639 199.48 158.619C199.24 159.599 198.88 160.549 198.6 161.499C198.31 162.489 197.94 163.419 197.59 164.319" stroke="#33333A" stroke-width="2.2" stroke-linecap="round" stroke-linejoin="round"/>
<path d="M211.29 164.408C211.62 163.508 211.89 162.538 212.15 161.578C212.41 160.608 212.54 159.608 212.68 158.678C212.85 157.608 212.88 156.608 212.84 155.748C212.78 154.478 212.56 153.408 211.86 153.028C211.24 152.688 210.24 152.838 208.98 153.578C208.35 153.978 207.69 154.918 206.94 155.988C206.38 156.788 205.79 157.698 205.25 158.648C204.73 159.578 204.26 160.558 203.82 161.468C203.3 162.538 202.81 163.528 202.5 164.338C202.75 163.468 203.04 162.488 203.31 161.468C203.55 160.528 203.65 159.518 203.86 158.538C204.06 157.548 204.31 156.568 204.41 155.608C204.52 154.558 204.55 153.558 204.48 152.648" stroke="#33333A" stroke-width="2.2" stroke-linecap="round" stroke-linejoin="round"/>
<path d="M225.86 156.869C225.83 156.739 225.86 156.599 225.82 156.479" stroke="#33333A" stroke-width="2.2" stroke-linecap="round" stroke-linejoin="round"/>
<path d="M225.37 156.339C225.32 156.199 225.4 156.019 225.35 155.889" stroke="#33333A" stroke-width="2.2" stroke-linecap="round" stroke-linejoin="round"/>
<path d="M225.18 164.339C225.24 163.479 225.39 162.579 225.44 161.669C225.48 160.779 225.34 159.869 225.37 158.979C225.4 158.069 225.59 157.169 225.61 156.299C225.63 155.859 225.45 155.419 225.48 154.979" stroke="#33333A" stroke-width="2.2" stroke-linecap="round" stroke-linejoin="round"/>
<path d="M225.21 155.899C224.84 154.729 224.43 153.869 223.74 153.399C222.91 152.839 221.85 152.789 220.83 153.129C219.99 153.409 219.14 153.979 218.36 154.779C217.69 155.339 217.07 156.359 216.61 157.519C216.21 158.529 215.85 159.659 215.77 160.689C215.66 162.009 215.94 163.179 216.61 163.769C217.22 164.299 218.23 164.379 219.71 163.649C220.57 163.099 221.35 162.309 222.12 161.469C222.85 160.679 223.63 159.869 224.17 158.939C224.74 157.969 224.96 156.909 225.21 155.899Z" stroke="#33333A" stroke-width="2.2" stroke-linecap="round" stroke-linejoin="round"/>
<path d="M225.59 155.05C225.84 153.93 226.04 152.73 226.38 151.62C226.72 150.51 227.26 149.46 227.54 148.34C227.82 147.22 227.88 146.16 227.94 145C227.6 145.94 227.32 146.99 226.96 148.21C226.64 149.29 226.41 150.45 226.17 151.58C225.92 152.76 225.67 153.97 225.59 155.05Z" stroke="#33333A" stroke-width="2.2" stroke-linecap="round" stroke-linejoin="round"/>
<path d="M242.261 152.75C242.261 152.75 242.671 153.03 242.731 153.31C242.791 153.59 244.261 157.49 241.661 164.61C241.661 164.61 242.461 159.01 244.411 156.47C246.351 153.93 249.031 152.77 249.031 152.77" stroke="#33333A" stroke-width="2.1475" stroke-linecap="round" stroke-linejoin="round"/>
<path d="M53.0253 154.71C53.0053 154.38 52.6353 154.01 52.4153 153.81C51.6053 153.09 50.7053 152.78 49.8653 152.8C48.9053 152.83 48.0253 153.31 47.3653 153.92C46.6453 154.6 46.0853 155.5 46.1653 156.38C46.2353 157.17 46.7953 157.98 47.8753 158.54C48.9153 159.08 49.7453 159.55 50.2553 160.11C51.1153 161.04 51.3353 162.01 51.0653 162.77C50.7853 163.58 49.9353 164.24 48.8653 164.52C48.0453 164.74 47.0453 164.71 46.0153 164.43C45.1753 164.21 44.2853 163.82 43.4553 163.17" stroke="#33333A" stroke-width="2.138" stroke-linecap="round" stroke-linejoin="round"/>
<path d="M58.5654 145C58.4354 146.05 58.1154 147.13 57.9454 148.27C57.7954 149.34 57.7954 150.47 57.6254 151.58C57.4554 152.67 57.2554 153.77 57.0654 154.86C56.8754 155.97 56.5354 157.05 56.3354 158.11C56.1154 159.24 56.0454 160.37 55.8254 161.41C55.5754 162.58 55.2654 163.61 55.0254 164.59C55.3954 163.89 55.9254 162.92 56.5154 161.71C56.9654 160.78 57.3654 159.71 57.9154 158.73C58.4654 157.74 58.9554 156.7 59.5754 155.87C60.3254 154.86 61.2554 154.17 62.0554 153.72C63.0554 153.17 63.9954 153.19 64.9854 154.15C65.4454 154.6 65.6554 155.53 65.5754 156.75C65.5154 157.58 65.2354 158.5 65.0154 159.46C64.8054 160.36 64.6454 161.29 64.3554 162.15C64.0354 163.11 63.6554 164 63.3154 164.72" stroke="#33333A" stroke-width="2.2" stroke-linecap="round" stroke-linejoin="round"/>
<path d="M78.3952 157.979C78.4852 156.739 78.4152 155.779 78.1552 155.049C77.7452 153.899 77.0252 153.239 76.0852 153.099C75.2152 152.969 74.1952 153.299 73.2152 153.809C72.3752 154.249 71.5452 154.849 70.8552 155.599C70.1752 156.339 69.6552 157.209 69.3052 158.119C69.0652 158.759 68.7752 159.719 68.6852 160.739C68.6052 161.689 68.7052 162.659 68.9352 163.409C69.2252 164.379 69.8152 165.009 70.9052 164.709C71.9852 164.419 72.9152 163.709 73.7852 162.869C74.5852 162.089 75.3352 161.179 75.9552 160.189C76.5952 159.169 77.2152 158.139 77.6452 157.159" stroke="#33333A" stroke-width="2.2" stroke-linecap="round" stroke-linejoin="round"/>
<path d="M77.4854 157.08C77.5154 156.98 77.5554 156.78 77.5254 157.04C77.5254 157.07 77.4854 157.06 77.4854 157.08Z" stroke="#33333A" stroke-width="2.2" stroke-linecap="round" stroke-linejoin="round"/>
<path d="M77.6153 157.129C77.5053 158.349 77.1853 159.619 77.1553 160.859C77.1253 162.119 77.2353 163.429 77.8453 164.569" stroke="#33333A" stroke-width="2.2" stroke-linecap="round" stroke-linejoin="round"/>
<path d="M90.8154 158.469C92.0354 158.759 93.3554 158.629 94.6454 158.439C95.9254 158.249 97.2154 157.939 98.3554 157.459C99.4854 156.769 99.4054 155.439 98.5354 154.219C97.9354 153.379 97.0754 153.139 96.1454 153.159C95.2854 153.179 94.3554 153.379 93.5254 153.889C92.7354 154.379 92.0454 155.079 91.5454 155.809C90.8754 156.799 90.4054 157.829 90.0954 158.809C89.7154 160.019 89.6754 161.119 89.9854 162.069C90.3154 163.079 91.0054 163.839 92.2854 164.219C93.1454 164.479 94.2254 164.509 95.5854 164.349C96.5154 164.219 97.5954 164.229 98.1054 163.489" stroke="#33333A" stroke-width="2.2" stroke-linecap="round" stroke-linejoin="round"/>
<path d="M82.1559 152.91C82.1559 152.91 82.5659 153.19 82.6259 153.47C82.6859 153.75 84.1559 157.65 81.5559 164.77C81.5559 164.77 82.3559 159.17 84.3059 156.63C86.2459 154.09 88.9259 152.93 88.9259 152.93" stroke="#33333A" stroke-width="2.1475" stroke-linecap="round" stroke-linejoin="round"/>
<path d="M29.0178 118.723C28.7594 120.384 28.7808 122.365 27.4965 123.607C26.2196 124.843 24.643 125.749 23.0896 126.586C21.0173 127.702 19.6911 128.412 17.5004 127.65C15.5037 126.955 10.872 126.869 10.0816 124.553C9.27571 122.191 11.8961 121.078 13.7832 120.787C14.254 120.714 16.2765 120.451 16.6713 121.091C18.0405 123.31 15.6429 125.665 14.2939 127.236C12.8058 128.968 10.4759 130.221 8.51394 131.278C6.43482 132.397 3.9845 131.377 1.79529 131.047" stroke="#C1C1C7" stroke-width="2.3" stroke-linecap="round"/>
<path d="M47.5025 21.969C48.5374 25.3097 49.29 29.4616 44.4099 29.1513C40.5499 28.9058 41.6265 26.6062 44.2335 24.7424C46.6687 23.0014 53.0991 20.9554 55.4194 24.2488C56.4608 25.727 56.1272 28.9847 54.7967 30.2502C53.3526 31.6239 53.2562 27.8212 53.4037 27.286C54.6862 22.6325 59.8044 22.3196 63.7275 24.04C67.4445 25.6699 69.0596 29.5307 66.8489 33.1472C65.4566 35.4249 60.6937 35.7282 58.7166 34.0251C56.6809 32.2715 57.077 29.5829 59.8794 29.1524C62.7543 28.7108 66.162 31.9833 63.7734 34.6839C60.5378 38.342 53.7921 37.2635 49.7832 36.0866C48.5981 35.7387 46.0777 35.031 45.4303 33.6458C44.8924 32.4949 46.7229 30.578 47.3227 29.9867C48.123 29.1979 50.4495 26.8456 51.877 27.4205C54.1128 28.3211 50.7099 34.1237 50.5101 35.2908C49.9253 38.7047 53.0316 39.7718 55.9673 39.13C60.2479 38.1942 62.122 34.2608 61.0589 30.2777C59.1672 23.1898 46.2487 31.4024 49.771 34.6461C51.983 36.6832 56.354 38.4278 59.3234 37.0502C60.5868 36.4641 60.1039 35.0595 59.6948 34.0987C58.2382 30.6775 54.8648 28.8852 51.7362 27.2184C49.8688 26.2235 47.117 24.5034 44.8402 24.5013C42.6243 24.4993 40.7395 26.5658 39.6759 28.2712C37.5532 31.6749 40.1413 35.1577 43.4868 36.5396C44.4494 36.9372 45.5323 37.0715 46.5503 36.8287C46.6845 36.7966 47.1957 36.4967 46.7503 36.4592C45.6493 36.3665 46.739 39.0163 47.0323 39.2968C48.9494 41.1301 53.7011 42.2799 55.9095 40.2899C56.9634 39.3403 56.3825 37.3392 56.0686 36.2675C55.2232 33.38 53.6577 32.2275 50.6772 32.0707C47.2102 31.8883 43.6274 34.6571 44.5649 38.5678C45.1117 40.8485 47.4114 42.9277 49.3281 44.0938C52.7555 46.1791 57.4184 45.5726 61.126 44.7651C65.552 43.8011 67.9822 41.7858 67.6833 37.2475C67.58 35.6802 67.1143 32.2911 64.6603 32.7726C62.9234 33.1135 58.2574 35.9685 60.4466 37.964C61.4361 38.8658 66.2459 40.7958 66.8736 38.6411C67.934 35.0008 60.2032 34.6896 61.059 31.5842" stroke="#C1C1C7" stroke-width="1.8" stroke-linecap="round"/>
<path d="M54.9105 64.9735C54.7091 63.1607 52.3984 61.7444 51.991 59.9112C51.7424 58.7924 49.8091 55.3928 48.8572 54.8488C46.8863 53.7226 45.5393 52.0766 43.3395 51.099C40.9821 50.0512 37.0274 49.496 34.6612 50.6168C23.2339 56.0298 17.8498 68.1544 14.5189 79.8124C14.1203 81.2074 12.9647 87.0538 13.6886 88.3567C14.4207 89.6746 15.006 92.5974 15.3493 94.1423C16.3458 98.6266 20.0804 99.2656 24.0544 97.3832C26.6611 96.1485 28.9414 95.2818 31.0452 93.178C32.7528 91.4704 34.3505 89.483 36.1343 87.8478C37.908 86.222 39.1907 84.3361 40.8217 82.7051C41.9155 81.6114 43.8134 78.9798 44.3037 77.5089" stroke="#33333A" stroke-width="2.3" stroke-linecap="round"/>
<path d="M91.6764 64.9735C91.8778 63.1607 94.1885 61.7444 94.5959 59.9112C94.8446 58.7924 96.7778 55.3928 97.7298 54.8488C99.7007 53.7226 101.048 52.0766 103.247 51.099C105.605 50.0512 109.56 49.496 111.926 50.6168C123.353 56.0298 128.737 68.1544 132.068 79.8124C132.467 81.2074 133.622 87.0538 132.898 88.3567C132.166 89.6746 131.581 92.5974 131.238 94.1423C130.241 98.6266 126.506 99.2656 122.533 97.3832C119.926 96.1485 117.645 95.2818 115.542 93.178C113.834 91.4704 112.236 89.483 110.453 87.8478C108.679 86.222 107.396 84.3361 105.765 82.7051C104.671 81.6114 102.774 78.9798 102.283 77.5089" stroke="#33333A" stroke-width="2.3" stroke-linecap="round"/>
<path d="M34.5303 90.1438C34.5303 91.4273 34.7277 94.6612 34.7986 95.9363C34.8508 96.8755 35.48 97.8063 35.5127 98.753C35.5453 99.7002 35.6676 101.428 36.1375 102.274C36.5794 103.069 36.3391 104.262 36.673 105.13C37.1022 106.246 37.1783 107.668 37.7343 108.701C38.2349 109.63 38.2262 110.968 38.9938 111.735C39.484 112.226 39.5819 113.018 39.9757 113.58C40.3707 114.144 40.8831 114.578 41.1857 115.217C41.6401 116.176 42.5211 116.842 42.8717 117.855C43.1268 118.592 44.141 119.453 44.7363 119.937C45.8672 120.858 46.7512 122.412 48.0091 123.111C48.5261 123.398 48.896 123.987 49.3976 124.321C50.0206 124.736 50.7112 124.997 51.3911 125.303C52.9842 126.02 54.6788 126.8 56.4096 127.088C57.4143 127.256 59.2957 127.516 60.1882 128.07C61.3192 128.772 62.9725 129.141 64.2942 129.141C65.9166 129.141 67.5385 129.677 69.154 129.677C72.3785 129.677 75.8365 130.34 79.052 129.766C80.2755 129.548 81.3279 129.451 82.4637 128.883C83.0113 128.61 83.6172 128.466 84.2291 128.338C85.9416 127.979 87.3157 127.8 88.9301 127.158C90.6715 126.465 92.322 125.401 94.1073 124.857C95.3679 124.472 96.6758 123.68 97.4992 122.635C98.2853 121.637 99.2316 120.895 100.137 120.037C101.148 119.079 101.88 117.512 102.537 116.317C103.837 113.955 105.831 111.953 106.832 109.395C107.11 108.685 107.354 107.942 107.715 107.272C108.132 106.497 108.088 105.715 108.27 104.882C108.457 104.029 108.885 103.172 108.885 102.284C108.885 101.602 108.642 100.992 108.746 100.3C109.023 98.4644 109.725 96.6033 109.777 94.766C109.812 93.5692 110.463 89.8177 110.463 88.5781" stroke="#33333A" stroke-width="2.3" stroke-linecap="round"/>
<path d="M55.666 77.7266C56.9762 77.7602 58.2742 77.9477 59.5715 78.1191C60.0038 78.1762 60.3378 78.2535 60.6951 78.5214C61.3917 79.0439 62.3342 79.3593 63.1532 79.6499C64.3025 80.0577 65.1071 80.5923 65.8419 81.5634C66.1166 81.9263 66.631 82.379 66.784 82.7998C66.883 83.0723 67.4083 83.8817 67.4083 83.8817" stroke="#33333A" stroke-width="2.3" stroke-linecap="round"/>
<path d="M92.4585 77.7266C91.1483 77.7602 89.8503 77.9477 88.553 78.1191C88.1207 78.1762 87.7867 78.2535 87.4294 78.5214C86.7328 79.0439 85.7903 79.3593 84.9713 79.6499C83.822 80.0577 83.0175 80.5923 82.2826 81.5634C82.0079 81.9263 81.4936 82.379 81.3405 82.7998C81.2415 83.0723 80.7163 83.8817 80.7163 83.8817" stroke="#33333A" stroke-width="2.3" stroke-linecap="round"/>
<path d="M64.3392 98.7559C64.0723 98.7559 63.8194 98.7282 63.5745 98.5816C63.4757 98.5224 63.3792 98.4577 63.2791 98.4018C63.2444 98.3823 63.1918 98.3689 63.1682 98.3271C63.0987 98.2037 62.9961 98.1092 62.9165 97.9937C62.7818 97.7981 62.6683 97.6113 62.5678 97.385C62.3338 96.8583 62.0018 96.2903 61.9545 95.6655C61.9082 95.0523 61.9206 94.4769 62.0271 93.8741C62.1111 93.3984 62.1849 92.9099 62.3118 92.4507C62.404 92.1172 62.5131 91.8617 62.7075 91.6096C62.847 91.4286 63.0001 91.3296 63.1799 91.2264C63.329 91.1409 63.4605 91.022 63.6097 90.9428C63.6652 90.9134 63.7699 90.9355 63.8273 90.9387C64.0656 90.9521 64.3001 91.0075 64.5397 91.012C64.8952 91.0187 65.2746 91.0784 65.587 91.3122C65.702 91.3982 65.7739 91.4918 65.8451 91.6317C65.9608 91.8589 66.1024 92.0444 66.2077 92.2847C66.3431 92.5935 66.4162 92.9433 66.4786 93.2862C66.5463 93.6582 66.611 94.047 66.6226 94.4302C66.6403 95.0164 66.5823 95.5757 66.5266 96.1538C66.4746 96.6933 66.3197 97.4409 65.988 97.8208C65.6549 98.2024 65.1851 98.3464 64.7797 98.5456C64.6528 98.608 64.5287 98.6774 64.4011 98.7365C64.3324 98.7683 64.2912 98.7279 64.224 98.7061" stroke="#33333A" stroke-width="2.3" stroke-linecap="round"/>
<ellipse cx="64.2774" cy="94.8418" rx="2.34845" ry="3.91408" fill="#33333A"/>
<path d="M83.1266 98.7559C82.8596 98.7559 82.6068 98.7282 82.3619 98.5816C82.263 98.5224 82.1665 98.4577 82.0665 98.4018C82.0317 98.3823 81.9791 98.3689 81.9556 98.3271C81.8861 98.2037 81.7834 98.1092 81.7039 97.9937C81.5691 97.7981 81.4557 97.6113 81.3551 97.385C81.1211 96.8583 80.7891 96.2903 80.7419 95.6655C80.6955 95.0523 80.7079 94.4769 80.8144 93.8741C80.8985 93.3984 80.9722 92.9099 81.0992 92.4507C81.1913 92.1172 81.3005 91.8617 81.4948 91.6096C81.6344 91.4286 81.7874 91.3296 81.9673 91.2264C82.1164 91.1409 82.2478 91.022 82.3971 90.9428C82.4525 90.9134 82.5572 90.9355 82.6147 90.9387C82.853 90.9521 83.0875 91.0075 83.3271 91.012C83.6825 91.0187 84.0619 91.0784 84.3744 91.3122C84.4893 91.3982 84.5612 91.4918 84.6325 91.6317C84.7481 91.8589 84.8898 92.0444 84.9951 92.2847C85.1305 92.5935 85.2036 92.9433 85.266 93.2862C85.3336 93.6582 85.3984 94.047 85.41 94.4302C85.4277 95.0164 85.3697 95.5757 85.314 96.1538C85.262 96.6933 85.107 97.4409 84.7754 97.8208C84.4422 98.2024 83.9725 98.3464 83.567 98.5456C83.4401 98.608 83.316 98.6774 83.1884 98.7365C83.1198 98.7683 83.0785 98.7279 83.0114 98.7061" stroke="#33333A" stroke-width="2.3" stroke-linecap="round"/>
<ellipse cx="83.0648" cy="94.8418" rx="2.34845" ry="3.91408" fill="#33333A"/>
<path d="M72.8185 122.615C72.3855 122.442 71.8865 122.429 71.4876 122.175C71.2732 122.038 70.946 121.984 70.7012 121.911C70.2069 121.763 69.7335 121.9 69.3538 121.498C69.0592 121.186 68.6197 120.953 68.2538 120.723C68.0727 120.609 67.9459 120.446 67.7864 120.308C67.4592 120.024 67.1203 119.822 66.7414 119.606C66.2617 119.334 65.9266 118.851 65.581 118.435C65.3573 118.166 65.2231 117.879 65.196 117.528C65.1814 117.337 65.1403 117.045 65.086 116.862C65.0177 116.631 65.0988 116.432 65.1493 116.205C65.1994 115.979 65.5597 115.701 65.7708 115.636C66.4543 115.425 67.1563 115.302 67.8634 115.212C68.7223 115.103 69.5923 115.066 70.4482 114.932C70.9684 114.85 71.5487 114.695 72.0733 114.695C73.2052 114.695 74.3275 114.342 75.4721 114.451C76.079 114.508 76.6825 114.662 77.2898 114.734C78.0591 114.824 78.8275 114.923 79.5969 115.014C79.9166 115.052 80.0122 115.114 80.2541 115.35C80.7395 115.823 81.2276 116.081 81.0708 116.826C80.8754 117.754 80.0549 118.537 79.4401 119.21C78.8729 119.832 78.2851 120.421 77.6912 121.014C77.5033 121.202 77.3453 121.412 77.1193 121.559C76.6299 121.876 76.0793 122.099 75.5684 122.378C75.0805 122.645 74.6572 123 74.177 123.275C73.9611 123.398 73.7262 123.482 73.5115 123.605" stroke="#33333A" stroke-width="2.3" stroke-linecap="round"/>
<path d="M65.1958 116.761L73.8068 123.806L80.8521 116.761L73.8068 114.412L65.1958 116.761Z" fill="#33333A"/>
<path d="M73.4627 119.744C73.0178 121.835 73.0483 123.93 73.163 126.052C73.2074 126.873 73.4132 129.327 73.4132 128.505" stroke="#33333A" stroke-width="2.3" stroke-linecap="round"/>
<path d="M60.9486 105.02C60.9486 105.02 61.2562 105.684 61.2562 106.173C61.2562 106.636 61.094 107.207 60.9144 107.634C60.3757 108.914 59.5009 110.118 58.7185 111.248C57.9 112.431 57.5842 114.046 57.1719 115.401C56.5489 117.448 55.9806 119.5 55.5314 121.596C55.0164 123.999 53.545 126.424 51.1823 127.474C50.219 127.902 49.9643 127.906 49.0206 127.637C48.6206 127.522 48.1581 127.486 47.8414 127.201C47.4765 126.872 46.6177 126.816 46.3718 126.398C45.8408 125.495 45.1896 124.427 45.1072 123.356C45.0546 122.671 45.0196 122.188 45.0987 121.476C45.2076 120.496 45.6677 119.646 45.8762 118.708C46.2466 117.041 47.2156 115.738 47.961 114.248C48.4635 113.243 48.8869 112.006 49.687 111.206C50.8075 110.085 51.6758 109.276 52.9852 108.403C53.9405 107.766 54.9005 107.169 55.7963 106.472C57.1006 105.458 58.7617 105.02 60.3623 105.02" stroke="#12C0B5" stroke-width="2.3" stroke-linecap="round"/>
<path d="M47.3569 114.015C50.4882 107.753 57.5335 105.665 60.6648 105.404C60.6648 106.448 60.3517 109.005 59.0994 110.884C57.5341 113.232 56.751 117.929 55.1854 122.626C53.6197 127.323 50.4882 128.106 47.3569 127.323C44.2256 126.54 43.4428 121.843 47.3569 114.015Z" fill="#12C0B5"/>
<path d="M79.1506 101.885C79.9171 102.866 80.9765 103.249 82.1584 103.314C83.4263 103.384 84.7349 103.479 85.9524 103.02C86.5845 102.782 86.8357 102.228 87.3503 101.885" stroke="#12C0B5" stroke-width="2.3" stroke-linecap="round"/>
<path d="M90.141 98.9006C90.0675 98.6984 90.1361 98.493 90.2318 98.3108C90.3339 98.1163 90.3757 97.9068 90.4999 97.723C90.7893 97.2947 91.0857 96.9033 91.496 96.5825C91.8327 96.3193 92.2007 96.1002 92.5272 95.8236C92.8366 95.5614 93.1384 95.3083 93.4841 95.0914C93.9858 94.7767 94.6689 94.6741 95.2371 94.5366C95.6746 94.4308 96.1129 94.3162 96.5653 94.2995C97.044 94.2817 97.5259 94.2974 98.0048 94.2974C98.4279 94.2974 98.8253 94.3435 99.2381 94.4315C99.496 94.4864 99.8759 94.4958 100.075 94.6954C100.478 95.0984 100.697 95.5473 100.779 96.0979C100.829 96.4324 100.979 96.745 100.925 97.0878C100.83 97.6955 100.758 98.333 100.375 98.8387C100.24 99.0159 100.112 99.2224 99.9084 99.3255C99.5463 99.5091 99.1593 99.5417 98.7576 99.5606C98.0446 99.594 97.3353 99.5422 96.6705 99.2883C96.4708 99.2121 96.3189 99.0451 96.1219 98.9542C95.6732 98.7472 95.2171 98.5913 94.7277 98.5046C93.9637 98.3694 93.1022 98.3295 92.3271 98.3892C92.1045 98.4063 91.8987 98.4637 91.7002 98.5583C91.4755 98.6652 91.1782 98.6966 90.9371 98.7439C90.7367 98.7832 90.5351 98.8659 90.3266 98.9006" stroke="#12C0B5" stroke-width="2.3" stroke-linecap="round"/>
<path d="M96.5072 94.0566C94.6284 94.0566 91.5493 96.666 90.2446 97.9707V98.7535C91.0274 98.4926 92.7496 97.9707 93.3759 97.9707C94.1587 97.9707 96.5072 99.5364 98.0728 99.5364C99.6384 99.5364 100.421 98.7535 100.421 97.1879C100.421 95.6223 98.8556 94.0566 96.5072 94.0566Z" fill="#12C0B5"/>
<path d="M67.1699 52.0918C68.928 54.0697 71.5075 57.1903 71.5075 60.0079C71.5075 60.6306 71.8691 63.8394 71.5075 64.0202" stroke="#33333A" stroke-width="2.3" stroke-linecap="round"/>
<path d="M75.6279 64.4522C75.6279 61.5816 76.4935 59.2529 77.363 56.6445" stroke="#33333A" stroke-width="2.3" stroke-linecap="round"/>
<path d="M89.9062 30.4706C87.2712 27.0416 84.5802 23.6796 83.4163 19.4722C82.7324 17.0002 82.1113 14.5998 82.8087 12.0563C83.6912 8.83741 85.1413 6.28005 87.8648 4.32643C89.5004 3.15324 91.9352 1.94918 94.0397 2.44817C95.0179 2.68009 95.9776 3.90867 96.6202 4.627C97.5277 5.64132 98.8613 6.70544 99.3493 7.99716C99.7477 9.05174 99.7913 8.98181 98.7736 9.63581C97.9444 10.1687 97.1088 10.7455 96.2318 11.1986C95.9234 11.358 95.8699 11.3732 96.1046 11.6936C96.6256 12.4047 97.2104 13.0459 97.7908 13.7041C98.0603 14.0097 95.629 15.0216 95.3391 15.1527C95.2684 15.1847 94.8756 15.3273 94.8764 15.4738C94.8772 15.6331 95.1476 15.8768 95.2246 15.967C95.8239 16.6691 96.3939 17.3945 96.9862 18.1024C97.1188 18.2608 98.8111 20.178 98.6202 20.211C97.9708 20.3235 97.3042 20.3883 96.6485 20.4534C96.0501 20.5129 95.1244 20.4813 94.6039 20.8296C94.3875 20.9744 96.0661 22.9186 96.2475 23.2343C96.3567 23.4243 96.9904 24.2123 96.6609 24.3226C96.1809 24.4833 95.7587 24.8832 95.2846 25.0926C94.2122 25.5663 93.4714 26.2305 92.597 27.0016C92.2403 27.316 91.8315 27.5913 91.5987 28.0036C91.2197 28.675 90.9573 29.4075 90.6763 30.1047" stroke="#FF8CBD" stroke-width="2" stroke-linecap="round"/>
<path d="M94.2395 34.7465C95.6912 35.3225 97.0114 36.3692 98.5868 36.5669C100.66 36.827 102.852 36.2702 104.814 35.6515C106.452 35.135 107.939 34.3535 109.5 33.6622C110.871 33.0553 112.215 32.4922 113.513 31.7237C114.718 31.0102 115.847 30.1391 116.958 29.291C118.109 28.4137 118.874 27.6777 119.47 26.3587C119.9 25.4082 120.285 24.4388 120.714 23.4881C121.12 22.5901 121.01 21.9214 120.809 20.9567C120.672 20.2934 119.989 19.8426 119.527 19.4041C118.729 18.646 117.851 17.9697 116.885 17.4336C115.542 16.6881 113.773 16.4623 112.262 16.362C111.453 16.3083 110.081 16.2972 109.384 16.71C108.734 17.0945 107.557 16.8424 106.836 16.9658C106.597 17.0068 106.384 16.9723 106.149 16.9947C105.961 17.0126 106.535 18.7304 106.579 19.0227C106.654 19.5249 106.718 20.4392 106.01 20.4413C105.451 20.443 104.874 20.3998 104.313 20.3793C103.759 20.359 104.566 22.4097 104.649 22.6998C105.03 24.0389 105.516 25.3268 105.986 26.636C106.3 27.5113 105.222 27.3331 104.593 27.2385C103.704 27.1048 102.827 26.6427 101.92 26.6569C101.53 26.663 101.5 27.1086 101.379 27.4216C101.103 28.1382 101.083 28.5405 100.418 28.954C98.8067 29.9572 97.7305 31.3139 96.3554 32.56C95.7664 33.0938 95.1418 33.8121 94.4593 34.2162" stroke="#FF8CBD" stroke-width="2" stroke-linecap="round"/>
</svg>
