<svg width="181" height="107" viewBox="0 0 181 107" fill="none" xmlns="http://www.w3.org/2000/svg">
<g id="Group 88432">
<g id="Group 88428">
<path id="Vector 2587" d="M41.0889 32.499C42.2172 32.3736 43.9381 31.3949 44.9812 30.9313C46.058 30.4527 47.6484 30.3652 48.4951 29.6879C49.2981 29.0455 52.1712 29.128 53.1442 29.0932C55.2955 29.0164 57.4352 28.2329 59.5773 28.1202C63.492 27.9141 67.3672 25.8354 71.3624 25.6875C74.1771 25.5832 76.9878 23.7413 79.7687 23.7413C82.6551 23.7413 85.5855 21.7952 88.5264 21.7952C91.0701 21.7952 93.8211 19.849 96.5543 19.849C98.8067 19.849 102.774 18.8746 104.825 18.011C107.782 16.7662 111.752 16.3985 114.8 15.9297C117.426 15.5256 120 14.0105 122.584 14.0105C123.979 14.0105 125.131 13.0375 126.476 13.0375C129.819 13.0375 133.939 11.3586 137.153 10.4696C138.092 10.2098 138.981 10.1286 139.856 9.7398C142.919 8.37861 147.044 8.92373 150.074 7.5774C152.427 6.53153 155.775 6.13347 158.345 5.7664C160.085 5.51777 161.93 4.76629 163.67 4.76629C164.976 4.76629 166.184 3.79321 167.346 3.79321C169.361 3.79321 173.022 3.54111 174.887 2.71202C175.852 2.283 177.725 1.78506 178.779 1.84706C179.488 1.88874 178.266 3.94855 177.914 4.38787C176.677 5.93428 176.244 9.37503 175.374 11.3346C173.058 16.5457 169.962 21.3853 167.102 26.3902C164.563 30.8343 162.567 34.734 160.399 39.3106C158.066 44.2364 156.867 49.8527 154.209 54.6365C153.345 56.192 152.724 59.5714 151.29 60.7183C150.307 61.5046 147.784 66.3152 147.641 67.5298C147.36 69.9133 144.943 72.289 143.857 74.3414C142.916 76.1175 141.28 79.3331 139.613 80.6664C138.406 81.6322 137.105 84.7887 136.45 86.2616C135.269 88.9202 133.603 91.2417 132.18 93.8029C130.862 96.1745 129.887 98.7237 128.287 100.723C127.952 101.141 126.789 103.467 126.72 104.02C126.509 105.707 126.041 104.765 125.044 104.48C123.357 103.998 120.893 102.065 119.205 101.101C116.876 99.7701 114.66 98.5564 112.502 96.8303C109.178 94.1708 106.211 90.811 102.987 87.8563C101.361 86.3654 99.9441 84.7589 98.3923 83.2072C97.0989 81.9137 95.1631 80.7519 94.1216 79.45C92.9514 77.9872 90.578 76.7107 88.9859 75.801C88.3001 75.4091 83.5507 72.5501 83.634 71.8005C83.7506 70.7509 87.3006 68.2961 88.175 67.4217C89.9127 65.684 92.1326 63.6565 94.3649 62.6644C96.9242 61.527 99.216 59.4017 101.663 58.0423C103.606 56.9626 106.484 55.7608 108.123 54.2851C111.314 51.4137 115.748 49.255 118.449 45.8788C119.771 44.2261 122.686 42.295 124.503 41.2567C126.632 40.0403 127.948 38.0748 130.125 36.986C132.146 35.9755 134.72 34.013 136.342 32.3909C137.16 31.5731 138.177 30.9886 138.991 30.1744C139.874 29.2915 137.728 30.5529 137.18 30.5529C135.489 30.5529 132.85 32.3911 131.342 33.2288C129.168 34.4366 127.178 35.4338 125.017 36.6346C123.452 37.5037 120.018 38.6862 118.935 40.0404C117.309 42.0724 113.665 42.5563 111.745 44.2841C110.181 45.6918 107.318 46.4704 105.312 47.4736C103.173 48.5433 101.321 49.5827 99.2303 50.7442C94.6759 53.2744 89.6445 54.3288 84.8774 56.4475C82.56 57.4775 80.3449 58.8404 78.0658 59.8533C75.1053 61.1691 74.415 61.0305 71.5246 60.2047C70.4543 59.8989 69.4013 58.1384 68.1188 57.772C67.4661 57.5855 65.3638 56.1528 64.9293 55.6096C63.6495 54.0099 61.0298 53.1428 59.4692 51.5821C56.5839 48.6968 53.8423 45.6432 51.3062 42.4731C48.5848 39.0713 44.0241 36.9098 42.0619 32.9855" stroke="black" stroke-width="3" stroke-linecap="round"/>
<path id="Vector 2588" d="M74.1735 61.6914C74.1735 68.3343 72.7139 74.2922 72.7139 80.9097C72.7139 83.953 72.2273 87.003 72.2273 90.1539C72.2273 91.7674 71.2587 98.4565 72.3355 99.5333C74.0548 101.253 84.0704 94.69 85.3639 93.0732C88.2909 89.4144 93.0475 86.0689 97.0408 84.0722" stroke="black" stroke-width="3" stroke-linecap="round"/>
<path id="Vector 2589" d="M82.9313 71.4219C82.9313 73.4024 82.8121 77.7742 81.5798 79.3146C81.041 79.988 80.236 82.4556 80.039 83.3421C79.7689 84.5576 78.8518 85.5222 78.5794 86.7478C78.3641 87.7169 78.1063 89.0084 77.4712 89.8022C76.8299 90.6039 77.0547 92.7627 76.363 93.3161C75.9368 93.6571 75.5573 96.0412 75.2547 96.7219C74.7502 97.8572 74.2471 99.0075 73.687 100.128" stroke="black" stroke-width="3" stroke-linecap="round"/>
<path id="Vector 2590" d="M82.882 59.8588C81.4099 61.7839 79.7816 63.7425 78.8345 66.005C78.0476 67.8847 76.1362 70.391 76.1362 72.4697C76.1362 73.1168 77.153 71.6669 77.6914 71.308C79.527 70.0842 81.3698 68.6834 82.9757 67.1668C86.3876 63.9444 89.6167 60.5445 92.9257 57.2354C94.5945 55.5667 90.3336 61.1865 88.8782 63.0443C86.5046 66.0745 84.4428 69.2766 82.1887 72.376C80.2815 74.9984 78.6113 77.8638 76.8107 80.5647C75.9686 81.828 74.4497 83.5317 74.4497 85.1556" stroke="black" stroke-width="3" stroke-linecap="round"/>
<path id="Vector 2591" d="M95.6992 60.5324C98.1389 58.0927 100.114 55.2426 102.445 52.7748C103.681 51.4662 105.801 48.5208 104.806 52.2501C103.669 56.515 107.316 52.9634 108.722 51.5568C111.376 48.9035 114.046 46.1082 116.93 43.7054C117.629 43.1227 116.949 44.7801 116.949 45.0171" stroke="black" stroke-width="3" stroke-linecap="round"/>
</g>
<path id="Vector 2600" d="M2.08734 86.5346C3.63019 86.5748 5.86234 87.8142 7.56467 88.1439C11.8679 88.9774 16.1876 90.0544 20.6093 89.8211C25.0625 89.5861 27.7648 86.407 31.6291 85.5995C34.4873 85.0022 34.8346 76.5922 33.677 74.3602C32.4549 72.0037 27.3462 70.0263 25.7744 73.5056C23.9534 77.5366 22.5615 79.9879 24.7782 84.5628C26.2323 87.564 28.7438 90.4805 32.4627 89.5617C43.7662 86.769 53.366 82.4975 60.9802 73.257" stroke="black" stroke-width="3" stroke-linecap="round"/>
</g>
</svg>
