<svg width="252" height="150" viewBox="0 0 252 150" fill="none" xmlns="http://www.w3.org/2000/svg">
<path d="M49.48 60.2577C49.2796 58.454 46.9804 57.0448 46.5751 55.2208C46.3277 54.1076 44.4041 50.7251 43.457 50.1839C41.496 49.0633 40.1558 47.4256 37.967 46.4528C35.6214 45.4103 31.6866 44.8579 29.3323 45.9731C17.9624 51.3589 12.6053 63.4226 9.29118 75.022C8.89459 76.4101 7.74478 82.2271 8.46502 83.5235C9.19349 84.8348 9.77576 87.7429 10.1173 89.28C11.1089 93.7418 14.8248 94.3776 18.7787 92.5047C21.3724 91.2761 23.6413 90.4138 25.7345 88.3206C27.4335 86.6216 29.0232 84.6441 30.7981 83.0172C32.5628 81.3995 33.8391 79.523 35.4619 77.9003C36.5501 76.812 38.4386 74.1937 38.9264 72.7301" stroke="#33333A" stroke-width="2.3" stroke-linecap="round"/>
<path d="M29.2021 85.3C29.2021 86.5771 29.3986 89.7948 29.4691 91.0634C29.521 91.9979 30.1471 92.9241 30.1796 93.8659C30.2121 94.8084 30.3337 96.5275 30.8013 97.3691C31.241 98.1605 31.0019 99.3473 31.3342 100.211C31.7611 101.321 31.8368 102.736 32.39 103.764C32.8882 104.689 32.8795 106.019 33.6433 106.783C34.131 107.271 34.2284 108.059 34.6202 108.619C35.0132 109.18 35.5231 109.611 35.8241 110.247C36.2762 111.201 37.1528 111.864 37.5017 112.872C37.7555 113.605 38.7646 114.462 39.3569 114.944C40.4822 115.86 41.3617 117.406 42.6133 118.102C43.1277 118.388 43.4957 118.973 43.9949 119.306C44.6147 119.719 45.3018 119.978 45.9783 120.283C47.5635 120.996 49.2495 121.772 50.9716 122.059C51.9713 122.226 53.8432 122.485 54.7313 123.036C55.8565 123.734 57.5016 124.102 58.8167 124.102C60.4308 124.102 62.0446 124.634 63.652 124.634C66.8603 124.634 70.3009 125.295 73.5003 124.723C74.7177 124.506 75.7648 124.41 76.8949 123.845C77.4397 123.573 78.0426 123.43 78.6514 123.302C80.3553 122.946 81.7225 122.767 83.3289 122.128C85.0615 121.439 86.7037 120.381 88.48 119.839C89.7344 119.456 91.0357 118.668 91.8549 117.628C92.6371 116.635 93.5786 115.896 94.4798 115.043C95.485 114.09 96.214 112.531 96.8678 111.342C98.1609 108.991 100.145 107 101.141 104.454C101.417 103.748 101.66 103.009 102.019 102.343C102.435 101.571 102.39 100.793 102.572 99.9644C102.757 99.1151 103.183 98.2633 103.183 97.379C103.183 96.7011 102.941 96.0934 103.045 95.4053C103.321 93.5788 104.019 91.7271 104.071 89.899C104.106 88.7082 104.754 84.9756 104.754 83.7422" stroke="#33333A" stroke-width="2.3" stroke-linecap="round"/>
<path d="M57.2417 72.9453C55.9381 72.9787 54.6466 73.1654 53.3558 73.3359C52.9257 73.3927 52.5933 73.4696 52.2379 73.7362C51.5448 74.256 50.607 74.5698 49.7921 74.859C48.6486 75.2647 47.8481 75.7967 47.1169 76.7629C46.8436 77.124 46.3318 77.5744 46.1796 77.9931C46.081 78.2642 45.5584 79.0695 45.5584 79.0695" stroke="#33333A" stroke-width="2.3" stroke-linecap="round"/>
<path d="M78.272 72.9453C79.5756 72.9787 80.8671 73.1654 82.1579 73.3359C82.5879 73.3927 82.9203 73.4696 83.2758 73.7362C83.9689 74.256 84.9067 74.5698 85.7216 74.859C86.8651 75.2647 87.6656 75.7967 88.3968 76.7629C88.6701 77.124 89.1819 77.5744 89.3341 77.9931C89.4327 78.2642 89.9553 79.0695 89.9553 79.0695" stroke="#33333A" stroke-width="2.3" stroke-linecap="round"/>
<path d="M57.303 93.8689C57.0373 93.8689 56.7858 93.8414 56.5421 93.6955C56.4437 93.6366 56.3477 93.5722 56.2482 93.5166C56.2136 93.4973 56.1612 93.4838 56.1378 93.4423C56.0687 93.3195 55.9665 93.2254 55.8874 93.1105C55.7533 92.916 55.6404 92.7301 55.5404 92.5049C55.3076 91.9809 54.9772 91.4157 54.9302 90.7941C54.8841 90.184 54.8964 89.6114 55.0024 89.0117C55.086 88.5384 55.1594 88.0523 55.2857 87.5954C55.3774 87.2636 55.486 87.0093 55.6794 86.7585C55.8182 86.5785 55.9705 86.48 56.1495 86.3773C56.2978 86.2922 56.4286 86.1739 56.5771 86.0951C56.6323 86.0658 56.7364 86.0878 56.7936 86.091C57.0307 86.1044 57.264 86.1595 57.5024 86.1639C57.8561 86.1706 58.2336 86.23 58.5445 86.4626C58.6589 86.5482 58.7304 86.6413 58.8013 86.7806C58.9163 87.0065 59.0573 87.1912 59.1621 87.4302C59.2968 87.7375 59.3695 88.0855 59.4316 88.4267C59.4989 88.7968 59.5633 89.1837 59.5749 89.565C59.5925 90.1482 59.5348 90.7047 59.4794 91.28C59.4276 91.8167 59.2735 92.5605 58.9435 92.9385C58.612 93.3182 58.1446 93.4615 57.7412 93.6597C57.6149 93.7218 57.4915 93.7908 57.3645 93.8497C57.2962 93.8813 57.2552 93.841 57.1883 93.8194" stroke="#33333A" stroke-width="2.3" stroke-linecap="round"/>
<ellipse cx="57.2414" cy="89.9745" rx="2.33666" ry="3.89443" fill="#33333A"/>
<path d="M67.2979 117.607C66.8671 117.435 66.3705 117.422 65.9737 117.169C65.7603 117.033 65.4347 116.98 65.1912 116.906C64.6994 116.759 64.2284 116.896 63.8505 116.496C63.5574 116.186 63.1201 115.953 62.7561 115.724C62.5759 115.611 62.4498 115.449 62.291 115.311C61.9654 115.029 61.6282 114.828 61.2513 114.614C60.774 114.343 60.4406 113.862 60.0967 113.448C59.8741 113.18 59.7406 112.895 59.7137 112.545C59.6991 112.355 59.6582 112.065 59.6042 111.883C59.5362 111.654 59.6169 111.455 59.6672 111.229C59.717 111.005 60.0755 110.727 60.2855 110.663C60.9656 110.454 61.6641 110.331 62.3676 110.242C63.2222 110.133 64.0878 110.096 64.9395 109.962C65.457 109.881 66.0344 109.727 66.5564 109.727C67.6826 109.727 68.7992 109.375 69.9382 109.484C70.542 109.541 71.1424 109.694 71.7467 109.765C72.5121 109.856 73.2767 109.954 74.0422 110.045C74.3603 110.082 74.4554 110.144 74.6961 110.378C75.1791 110.85 75.6647 111.106 75.5087 111.848C75.3143 112.771 74.498 113.549 73.8862 114.22C73.3218 114.838 72.737 115.424 72.1461 116.015C71.9591 116.202 71.8019 116.41 71.577 116.556C71.0901 116.872 70.5423 117.093 70.0339 117.372C69.5485 117.637 69.1273 117.99 68.6495 118.264C68.4347 118.386 68.201 118.47 67.9874 118.592" stroke="#33333A" stroke-width="2.3" stroke-linecap="round"/>
<path d="M59.7134 111.782L68.2811 118.792L75.2911 111.782L68.2811 109.445L59.7134 111.782Z" fill="#33333A"/>
<path d="M67.9391 114.752C67.4965 116.832 67.5268 118.917 67.6409 121.028C67.685 121.845 67.8899 124.287 67.8899 123.469" stroke="#33333A" stroke-width="2.3" stroke-linecap="round"/>
<path d="M82.8247 58.4669C83.4576 58.1293 84.0921 57.7978 84.7659 57.5528C87.1544 56.6843 88.8049 54.7337 90.2093 52.705C91.864 50.3149 93.6185 47.9372 95.1084 45.4539C96.1606 43.7003 97.5064 42.1511 98.3437 40.2672C99.503 37.6589 100.587 34.6762 102.74 32.7388C103.485 32.0682 105.314 30.9312 106.386 30.9312C108.018 30.9312 109.448 29.552 111.244 30.1506C112.602 30.6034 113.567 31.3693 114.797 32.0815C115.844 32.6877 117.279 34.9876 117.663 36.0973C118.243 37.7742 118.68 39.6938 118.68 41.4689C118.68 42.8567 118.865 44.1341 118.865 45.5361C118.865 46.5473 118.586 47.3451 118.351 48.3092C118.167 49.0675 118.01 49.9241 117.95 50.7023C117.845 52.0755 117.041 53.4689 116.523 54.7181C116.201 55.4948 115.9 56.2161 115.455 56.916C115.192 57.3291 115.244 57.8809 114.941 58.2923C114.576 58.7892 114.108 59.2899 113.698 59.7507C112.863 60.691 112.317 61.6748 111.696 62.7909C111.265 63.5649 110.697 64.2627 110.278 65.0401C110.095 65.3801 110.076 65.7832 109.847 66.098C109.468 66.6191 108.839 67.59 108.573 68.1932C107.535 70.5461 107.005 73.0613 106.303 75.5162C106.088 76.2703 104.79 82.9504 104.754 83.7431" stroke="#33333A" stroke-width="2.3" stroke-linecap="round"/>
<path d="M107.857 45.5781C107.641 47.6872 107.251 49.7907 106.48 51.7729C105.99 53.033 105.283 53.8176 104.496 54.9288C103.716 56.0302 102.949 57.2331 102.014 58.2019C101.468 58.7674 100.418 59.2701 100.081 59.9446" stroke="#FF8CBD" stroke-width="2.3" stroke-linecap="round"/>
<path d="M54.725 100.726C55.336 100.717 55.8582 100.349 56.4694 100.302C57.2304 100.048 58.727 99.3051 59.4867 99.0288C59.8205 98.9075 60.2382 98.7815 60.4674 98.5431C60.8024 98.1947 60.8546 98.0354 61.2463 97.7642C61.6988 97.4509 62.2963 96.7996 62.7633 96.5007C62.9659 96.371 63.1079 96.1716 63.3055 96.0587C63.3877 96.0117 63.5771 95.71 63.6296 95.6167C64.0903 94.7976 64.6297 93.7672 64.7434 92.8293C64.8856 91.6562 64.9555 90.5616 64.9555 89.3759C64.9555 88.0386 64.8633 86.5766 64.4723 85.2919C64.2922 84.7002 63.8578 83.7324 63.3997 83.3059C62.847 82.7913 62.0244 82.569 61.455 82.0566C59.2991 80.1162 56.2467 80.3594 53.5523 80.3594C52.4293 80.3594 50.9111 80.4718 49.8691 80.9133C49.4078 81.1088 49.0946 81.1984 48.7199 81.5262C48.008 82.1491 46.9037 82.2875 46.233 82.9582C45.9445 83.2468 45.579 83.3928 45.2548 83.636C42.1866 85.9371 42.0984 90.5643 42.5734 94.0079C42.774 95.462 43.5146 96.7192 44.5653 97.7323C45.1312 98.278 45.8988 98.6688 46.5572 99.0878C46.9619 99.3453 47.1959 99.6941 47.6651 99.8244C48.2903 99.9981 48.9263 100.231 49.5509 100.431C50.0471 100.591 50.6435 100.514 51.1656 100.514C52.3622 100.514 53.5258 100.744 54.725 100.726Z" stroke="#33333A" stroke-width="2.3" stroke-linecap="round"/>
<path d="M80.8233 100.726C80.2123 100.717 79.6901 100.349 79.0789 100.302C78.318 100.048 76.8213 99.3051 76.0616 99.0288C75.7279 98.9075 75.3102 98.7815 75.0809 98.5431C74.746 98.1947 74.6938 98.0354 74.302 97.7642C73.8495 97.4509 73.2521 96.7996 72.7851 96.5007C72.5825 96.371 72.4405 96.1716 72.2429 96.0587C72.1606 96.0117 71.9713 95.71 71.9188 95.6167C71.458 94.7976 70.9186 93.7672 70.805 92.8293C70.6628 91.6562 70.5928 90.5616 70.5928 89.3759C70.5928 88.0386 70.685 86.5766 71.076 85.2919C71.2561 84.7002 71.6905 83.7324 72.1486 83.3059C72.7014 82.7913 73.524 82.569 74.0933 82.0566C76.2493 80.1162 79.3016 80.3594 81.996 80.3594C83.1191 80.3594 84.6372 80.4718 85.6792 80.9133C86.1405 81.1088 86.4537 81.1984 86.8284 81.5262C87.5403 82.1491 88.6446 82.2875 89.3153 82.9582C89.6039 83.2468 89.9693 83.3928 90.2936 83.636C93.3617 85.9371 93.4499 90.5643 92.9749 94.0079C92.7744 95.462 92.0337 96.7192 90.9831 97.7323C90.4172 98.278 89.6495 98.6688 88.9912 99.0878C88.5865 99.3453 88.3525 99.6941 87.8833 99.8244C87.258 99.9981 86.622 100.231 85.9975 100.431C85.5012 100.591 84.9049 100.514 84.3828 100.514C83.1861 100.514 82.0225 100.744 80.8233 100.726Z" stroke="#33333A" stroke-width="2.3" stroke-linecap="round"/>
<path d="M65.2666 89.6747C66.6786 89.5426 68.1304 89.4933 69.5289 89.2452C69.6082 89.2311 69.6615 89.1871 69.7272 89.1543" stroke="#33333A" stroke-width="2.3" stroke-linecap="round"/>
<path d="M34.3438 80.0547C35.3489 80.6366 36.3965 81.0672 37.433 81.5855C38.1727 81.9553 38.8971 82.4748 39.6772 82.7976C40.0189 82.939 40.1759 83.3671 40.5153 83.518C40.7869 83.6387 41.0552 83.8457 41.3257 83.989C41.8585 84.271 42.3435 84.6884 42.9465 84.8894" stroke="#33333A" stroke-width="2.3" stroke-linecap="round"/>
<path d="M105.533 76.7344C104.731 77.4216 103.381 78.5028 102.46 79.0289C101.926 79.3339 101.428 79.745 100.894 80.0541C99.8893 80.636 98.8417 81.0666 97.8052 81.5849C97.0655 81.9547 96.3411 82.4742 95.561 82.797C95.2193 82.9384 95.0623 83.3665 94.7229 83.5174C94.4513 83.6381 94.1831 83.8451 93.9125 83.9884C93.3797 84.2704 92.8947 84.6878 92.2917 84.8888" stroke="#33333A" stroke-width="2.3" stroke-linecap="round"/>
<path d="M85.5986 87.9144C85.0567 87.8843 84.5672 87.7219 84.0161 87.7219C82.8804 87.7219 81.5483 87.5267 80.4449 87.7273C79.9063 87.8252 79.3489 88.324 78.8036 88.4918C78.0226 88.7321 77.2176 89.1717 76.6918 89.8177C76.3418 90.2477 75.9557 90.7875 75.7081 91.2825C75.6052 91.4884 75.4992 91.6944 75.398 91.9027C75.3235 92.0561 74.9608 92.68 75.2965 92.5068C76.1955 92.0428 77.2646 91.4975 78.285 91.3841C80.0677 91.186 81.9402 91.5348 83.674 91.8599" stroke="#33333A" stroke-width="2.3" stroke-linecap="round"/>
<path d="M61.6777 47.1348C63.427 49.1027 65.9936 52.2077 65.9936 55.0111C65.9936 55.6307 66.3533 58.8234 65.9936 59.0033" stroke="#33333A" stroke-width="2.3" stroke-linecap="round"/>
<path d="M70.0933 59.4345C70.0933 56.5782 70.9545 54.2613 71.8196 51.666" stroke="#33333A" stroke-width="2.3" stroke-linecap="round"/>
<path d="M165.067 63.0033C164.879 61.3079 162.718 59.9834 162.337 58.269C162.104 57.2226 160.296 54.0434 159.406 53.5347C157.563 52.4814 156.303 50.9421 154.246 50.0277C152.041 49.0479 148.343 48.5286 146.13 49.5769C135.443 54.639 130.408 65.9781 127.293 76.8806C126.92 78.1853 125.839 83.6528 126.516 84.8714C127.201 86.1039 127.748 88.8373 128.069 90.282C129.001 94.4758 132.494 95.0734 136.21 93.313C138.648 92.1582 140.781 91.3477 142.748 89.3803C144.345 87.7833 145.839 85.9247 147.507 84.3954C149.166 82.875 150.366 81.1112 151.891 79.586C152.914 78.5631 154.689 76.102 155.147 74.7264" stroke="#33333A" stroke-width="2.3" stroke-linecap="round"/>
<path d="M199.45 63.0033C199.639 61.3079 201.8 59.9834 202.181 58.269C202.413 57.2226 204.221 54.0434 205.111 53.5347C206.954 52.4814 208.214 50.9421 210.271 50.0277C212.476 49.0479 216.175 48.5286 218.387 49.5769C229.074 54.639 234.11 65.9781 237.225 76.8806C237.597 78.1853 238.678 83.6528 238.001 84.8714C237.316 86.1039 236.769 88.8373 236.448 90.282C235.516 94.4758 232.023 95.0734 228.307 93.313C225.869 92.1582 223.737 91.3477 221.769 89.3803C220.172 87.7833 218.678 85.9247 217.01 84.3954C215.351 82.875 214.151 81.1112 212.626 79.586C211.603 78.5631 209.828 76.102 209.37 74.7264" stroke="#33333A" stroke-width="2.3" stroke-linecap="round"/>
<path d="M146.007 86.5423C146.007 87.7427 146.192 90.7671 146.258 91.9595C146.307 92.8379 146.896 93.7084 146.926 94.5937C146.957 95.4795 147.071 97.0953 147.51 97.8864C147.924 98.6302 147.699 99.7457 148.011 100.558C148.413 101.601 148.484 102.931 149.004 103.897C149.472 104.766 149.464 106.017 150.182 106.735C150.64 107.193 150.732 107.934 151.1 108.46C151.469 108.988 151.949 109.393 152.231 109.991C152.656 110.888 153.48 111.51 153.808 112.458C154.047 113.147 154.995 113.952 155.552 114.406C156.61 115.266 157.436 116.72 158.613 117.374C159.096 117.642 159.442 118.192 159.911 118.505C160.494 118.894 161.14 119.137 161.776 119.423C163.266 120.094 164.85 120.823 166.469 121.093C167.409 121.25 169.168 121.493 170.003 122.011C171.06 122.668 172.607 123.013 173.843 123.013C175.36 123.013 176.877 123.514 178.388 123.514C181.403 123.514 184.637 124.134 187.644 123.597C188.788 123.393 189.773 123.303 190.835 122.772C191.347 122.516 191.914 122.381 192.486 122.262C194.087 121.926 195.372 121.758 196.882 121.158C198.511 120.51 200.054 119.515 201.724 119.006C202.903 118.646 204.126 117.906 204.896 116.928C205.631 115.995 206.516 115.301 207.363 114.498C208.308 113.603 208.993 112.137 209.608 111.02C210.823 108.81 212.688 106.938 213.624 104.546C213.884 103.882 214.112 103.188 214.45 102.561C214.84 101.836 214.799 101.105 214.969 100.326C215.144 99.5275 215.544 98.7268 215.544 97.8956C215.544 97.2585 215.317 96.6873 215.414 96.0406C215.673 94.3238 216.33 92.5833 216.379 90.865C216.411 89.7458 217.02 86.2374 217.02 85.0781" stroke="#33333A" stroke-width="2.3" stroke-linecap="round"/>
<path d="M200.182 80.6875C198.957 80.6561 197.743 80.4807 196.53 80.3204C196.125 80.267 195.813 80.1947 195.479 79.9442C194.827 79.4556 193.946 79.1606 193.18 78.8888C192.105 78.5074 191.353 78.0075 190.666 77.0993C190.409 76.7599 189.928 76.3365 189.785 75.943C189.692 75.6882 189.201 74.9312 189.201 74.9312" stroke="#33333A" stroke-width="2.3" stroke-linecap="round"/>
<path d="M165.774 80.6875C166.999 80.6561 168.213 80.4807 169.426 80.3204C169.831 80.267 170.143 80.1947 170.477 79.9442C171.129 79.4556 172.01 79.1606 172.776 78.8888C173.851 78.5074 174.603 78.0075 175.29 77.0993C175.547 76.7599 176.028 76.3365 176.171 75.943C176.264 75.6882 176.755 74.9312 176.755 74.9312" stroke="#33333A" stroke-width="2.3" stroke-linecap="round"/>
<path d="M173.884 94.5963C173.634 94.5963 173.398 94.5704 173.169 94.4333C173.076 94.378 172.986 94.3174 172.893 94.2651C172.86 94.247 172.811 94.2344 172.789 94.1953C172.724 94.0799 172.628 93.9915 172.553 93.8835C172.427 93.7006 172.321 93.5259 172.227 93.3143C172.008 92.8217 171.698 92.2905 171.654 91.7062C171.61 91.1327 171.622 90.5945 171.722 90.0309C171.8 89.586 171.869 89.1291 171.988 88.6997C172.074 88.3878 172.176 88.1488 172.358 87.9131C172.488 87.7438 172.632 87.6512 172.8 87.5547C172.939 87.4747 173.062 87.3636 173.202 87.2895C173.254 87.262 173.352 87.2826 173.405 87.2856C173.628 87.2982 173.847 87.35 174.071 87.3542C174.404 87.3605 174.759 87.4163 175.051 87.6349C175.158 87.7154 175.226 87.8029 175.292 87.9338C175.4 88.1462 175.533 88.3197 175.631 88.5444C175.758 88.8332 175.826 89.1604 175.885 89.481C175.948 89.8289 176.009 90.1925 176.019 90.5509C176.036 91.0991 175.982 91.6222 175.93 92.1629C175.881 92.6674 175.736 93.3665 175.426 93.7218C175.114 94.0787 174.675 94.2134 174.296 94.3997C174.177 94.458 174.061 94.5229 173.942 94.5782C173.878 94.6079 173.839 94.5701 173.776 94.5497" stroke="#33333A" stroke-width="2.3" stroke-linecap="round"/>
<ellipse cx="173.826" cy="90.9359" rx="2.19628" ry="3.66046" fill="#33333A"/>
<path d="M191.455 94.5963C191.205 94.5963 190.969 94.5704 190.74 94.4333C190.647 94.378 190.557 94.3174 190.463 94.2651C190.431 94.247 190.382 94.2344 190.36 94.1953C190.295 94.0799 190.199 93.9915 190.124 93.8835C189.998 93.7006 189.892 93.5259 189.798 93.3143C189.579 92.8217 189.269 92.2905 189.225 91.7062C189.181 91.1327 189.193 90.5945 189.292 90.0309C189.371 89.586 189.44 89.1291 189.559 88.6997C189.645 88.3878 189.747 88.1488 189.929 87.9131C190.059 87.7438 190.202 87.6512 190.371 87.5547C190.51 87.4747 190.633 87.3636 190.773 87.2895C190.824 87.262 190.922 87.2826 190.976 87.2856C191.199 87.2982 191.418 87.35 191.642 87.3542C191.975 87.3605 192.33 87.4163 192.622 87.6349C192.729 87.7154 192.796 87.8029 192.863 87.9338C192.971 88.1462 193.104 88.3197 193.202 88.5444C193.329 88.8332 193.397 89.1604 193.456 89.481C193.519 89.8289 193.579 90.1925 193.59 90.5509C193.607 91.0991 193.553 91.6222 193.5 92.1629C193.452 92.6674 193.307 93.3665 192.997 93.7218C192.685 94.0787 192.246 94.2134 191.867 94.3997C191.748 94.458 191.632 94.5229 191.513 94.5782C191.448 94.6079 191.41 94.5701 191.347 94.5497" stroke="#33333A" stroke-width="2.3" stroke-linecap="round"/>
<ellipse cx="191.397" cy="90.9359" rx="2.19628" ry="3.66046" fill="#33333A"/>
<path d="M181.815 116.909C181.41 116.747 180.943 116.735 180.57 116.497C180.369 116.37 180.063 116.319 179.834 116.25C179.372 116.112 178.929 116.241 178.574 115.865C178.299 115.573 177.888 115.354 177.546 115.139C177.376 115.033 177.258 114.88 177.108 114.751C176.802 114.486 176.486 114.296 176.131 114.095C175.683 113.84 175.369 113.389 175.046 113C174.837 112.748 174.711 112.48 174.686 112.151C174.672 111.973 174.634 111.7 174.583 111.529C174.519 111.313 174.595 111.127 174.642 110.914C174.689 110.703 175.026 110.443 175.223 110.382C175.863 110.185 176.519 110.07 177.18 109.986C177.984 109.884 178.797 109.849 179.598 109.723C180.084 109.647 180.627 109.502 181.118 109.502C182.176 109.502 183.226 109.171 184.296 109.273C184.864 109.327 185.428 109.471 185.996 109.538C186.716 109.623 187.434 109.715 188.154 109.801C188.453 109.836 188.542 109.894 188.768 110.114C189.222 110.557 189.679 110.799 189.532 111.495C189.349 112.363 188.582 113.095 188.007 113.725C187.477 114.306 186.927 114.857 186.372 115.412C186.196 115.588 186.048 115.784 185.837 115.921C185.379 116.218 184.864 116.426 184.386 116.687C183.93 116.937 183.534 117.269 183.085 117.526C182.883 117.641 182.663 117.72 182.463 117.834" stroke="#33333A" stroke-width="2.3" stroke-linecap="round"/>
<path d="M174.686 111.433L182.739 118.021L189.328 111.433L182.739 109.236L174.686 111.433Z" fill="#33333A"/>
<path d="M182.417 114.227C182.001 116.182 182.029 118.141 182.137 120.126C182.178 120.893 182.371 123.188 182.371 122.42" stroke="#33333A" stroke-width="2.3" stroke-linecap="round"/>
<path d="M176.532 50.9551C178.176 52.8048 180.589 55.7233 180.589 58.3583C180.589 58.9406 180.927 61.9415 180.589 62.1106" stroke="#33333A" stroke-width="2.3" stroke-linecap="round"/>
<path d="M184.442 62.5166C184.442 59.832 185.252 57.6542 186.065 55.2148" stroke="#33333A" stroke-width="2.3" stroke-linecap="round"/>
<path d="M198.608 104.848C199.45 104.365 200.237 103.934 200.978 103.302C202.587 101.931 204.748 101.314 206.397 100.003C207.439 99.1743 208.501 98.4576 209.621 97.7491C209.692 97.7042 210.245 97.3666 210.228 97.4122C209.964 98.1417 209.554 98.8268 209.292 99.5642C208.976 100.451 208.892 101.42 208.575 102.305C208.465 102.611 208.209 102.974 208.189 103.303C208.171 103.608 208.526 103.352 208.652 103.289C209.388 102.925 210.076 102.473 210.781 102.052C213.42 100.474 216.055 98.9318 218.742 97.4423C219.613 96.9598 220.518 96.3554 221.44 95.9823" stroke="#12C0B5" stroke-width="2.3" stroke-linecap="round"/>
<path d="M163.234 97.524C162.351 97.9266 161.527 98.2831 160.73 98.8434C159.001 100.059 156.793 100.473 155.029 101.627C153.915 102.355 152.792 102.97 151.611 103.572C151.536 103.61 150.954 103.895 150.975 103.851C151.305 103.149 151.777 102.505 152.107 101.795C152.503 100.942 152.677 99.9847 153.074 99.1323C153.212 98.8376 153.501 98.5002 153.551 98.1741C153.598 97.8721 153.221 98.0945 153.089 98.1452C152.322 98.4401 151.595 98.8263 150.855 99.1804C148.08 100.507 145.314 101.798 142.5 103.033C141.589 103.432 140.632 103.95 139.679 104.236" stroke="#FF8CBD" stroke-width="2.3" stroke-linecap="round"/>
<path d="M174.631 33.2813C173.551 34.6417 172.292 36.3324 171.018 37.5005C168.703 39.6228 172.935 38.6566 174.093 38.5105C176.517 38.2042 178.231 37.8551 180.287 36.8273C180.968 36.4865 181.904 36.1216 182.666 36.1091C186.615 36.0444 190.645 36.4017 194.583 36.0867C197.977 35.8151 201.253 34.9946 204.705 34.9196C209.402 34.8175 214.005 34.6174 218.664 33.9995C223.769 33.3223 229.104 30.9471 233.97 29.2416C238.733 27.5721 246.38 25.5493 248.535 20.3767C249.746 17.4716 251.316 14.5989 250.488 11.2874C249.17 6.01615 243.092 2.38036 237.987 2.19804C225.888 1.76594 213.715 2.1756 201.607 2.1756C196.857 2.1756 192.012 1.89186 187.267 2.19804C184.738 2.36119 182.241 2.77898 179.703 2.89377C177.657 2.98633 175.497 2.75398 173.487 3.20797C166.042 4.88893 158.332 5.50832 150.842 7.02324C147.598 7.67928 144.224 8.39015 141.147 9.64905C139.053 10.5054 137.467 12.2741 135.446 13.2848C132.441 14.7873 130.931 17.2119 131.002 20.444C131.126 25.9934 139.532 28.708 143.952 29.6456C149.217 30.7623 154.472 31.2562 159.819 30.5433C163.182 30.0949 166.998 30.1811 170.39 30.476C171.966 30.613 173.102 31.2615 174.631 31.2615" stroke="#33333A" stroke-width="2.3" stroke-linecap="round"/>
<path d="M145.141 21.9698C146.144 20.3932 149.696 19.7415 151.38 20.3539C152.465 20.7485 153.36 21.617 154.612 21.319C155.952 21 157.899 18.1371 159.28 18.8278C160.887 19.6311 162.244 19.546 164.128 19.546" stroke="#12C0B5" stroke-width="2.3" stroke-linecap="round"/>
<path d="M169.379 20.3535C171.187 18.8748 174.612 18.8376 176.808 18.5581C178.971 18.2828 179.984 18.0878 180.915 19.9495C181.679 21.4772 180.187 21.5238 178.85 21.9694C178.184 22.1916 176.425 21.9281 177.728 21.1614C181.07 19.1958 186.207 18.618 190.004 18.3561C191.329 18.2647 191.434 18.4523 192.226 19.3885C192.987 20.2872 194.519 22.5208 195.952 21.5654C196.99 20.8731 198.465 19.2468 198.465 17.9297" stroke="#12C0B5" stroke-width="2.3" stroke-linecap="round"/>
<path d="M204.525 21.1618C204.667 19.4513 206.279 16.9146 208.34 17.1894C209.934 17.402 210.251 19.5459 211.976 19.5459C213.977 19.5459 215.763 16.5303 217.676 16.7855C219.619 17.0444 221.559 18.6761 223.601 19.0746C224.655 19.2802 229.12 20.3453 229.997 19.3215C230.679 18.5264 231.474 17.9746 232.085 17.2119C232.895 16.1983 229.788 17.1081 229.347 17.5261C228.061 18.7443 238.058 18.9796 239.087 18.8278C240.371 18.6383 241.142 18.2187 241.69 17.1221" stroke="#12C0B5" stroke-width="2.3" stroke-linecap="round"/>
</svg>
