<svg width="205" height="205" viewBox="0 0 205 205" fill="none" xmlns="http://www.w3.org/2000/svg">
<path d="M55.0603 115.477C54.4064 115.395 54.2649 107.558 54.2649 106.456C54.2649 102.647 54.2649 98.8384 54.2649 95.0296C54.2649 88.1313 56.3602 81.2148 57.8664 74.3818C59.1746 68.4477 62.462 62.7596 67.1907 58.9461C71.0331 55.8474 74.9955 55.8595 79.7187 56.1396C81.4661 56.2432 84.0922 58.2233 85.4856 59.347C87.4085 60.8978 88.9961 62.9899 90.1477 65.1828C92.2499 69.1857 95.6274 73.2913 95.6274 78.3911C95.6274 81.2389 96.4228 83.7471 96.4228 86.6101C96.4228 90.4932 96.4228 94.3762 96.4228 98.2593C96.4228 103.998 96.4228 109.738 96.4228 115.477" stroke="black" stroke-width="3" stroke-linecap="round"/>
<path d="M53.1841 118.286C72.4813 118.286 91.85 118.719 111.195 118.719C114.915 118.719 118.931 117.533 122.681 117.421C127.308 117.284 132.045 116.557 136.607 116.557C147.366 116.557 158.111 116.989 168.848 116.989" stroke="black" stroke-width="3" stroke-linecap="round"/>
<path d="M101.828 128.447C101.828 133.289 100.747 137.923 100.747 142.784C100.747 146.992 101.828 150.825 101.828 155.13C101.828 166.414 101.828 177.698 101.828 188.982" stroke="black" stroke-width="3" stroke-linecap="round"/>
<path d="M121.285 120.881C123.226 132.329 121.826 144.447 121.826 156.265C121.826 168.27 122.366 180.315 122.366 192.225" stroke="black" stroke-width="3" stroke-linecap="round"/>
<path d="M111.557 121.961C111.557 146.914 112.638 171.651 112.638 196.548" stroke="black" stroke-width="3" stroke-linecap="round"/>
<path d="M93.1716 197.63C93.2703 196.79 93.9722 196.031 94.0044 195.18C94.0549 193.842 94.0044 192.493 94.0044 191.154C94.0044 186.445 94.1257 181.595 92.9634 176.978C92.5095 175.176 92.2097 173.278 91.9224 171.443C91.4742 168.583 89.4765 165.362 87.9434 162.846C87.781 162.579 86.682 160.87 86.6942 160.877C88.1744 161.664 88.9065 163.776 89.8866 165.012C93.6571 169.766 95.367 175.446 96.4102 181.266C97.3318 186.408 98.5848 191.373 98.5848 196.449" stroke="black" stroke-width="3" stroke-linecap="round"/>
<path d="M108.313 196.549C114.801 196.549 120.017 196.733 124.562 191.521C127.227 188.465 128.122 184.769 129.31 181.039C129.815 179.455 130.362 177.828 130.813 176.235C131.094 175.243 131.181 174.147 131.358 173.128C131.374 173.037 131.461 171.55 131.641 171.698C132.766 172.621 131.445 177.64 131.445 179.028C131.445 181.432 130.393 183.8 130.269 186.09C130.148 188.321 129.508 190.278 128.308 192.124" stroke="black" stroke-width="3" stroke-linecap="round"/>
<path d="M128.004 196.549C126.916 196.406 129.966 192.04 130.417 191.381C131.77 189.405 133.61 187.712 135.442 186.213C135.838 185.889 139.368 183.936 139.642 184.944C139.829 185.632 138.649 186.293 138.369 186.824C137.945 187.625 138.056 188.466 138.056 189.361" stroke="black" stroke-width="3" stroke-linecap="round"/>
<path d="M133.176 196.549C133.176 194.141 136.675 191.767 137.594 189.598C139.081 186.089 144.914 184.086 148.081 183.255C148.537 183.136 150.97 182.119 151.473 182.647C151.917 183.113 150.376 183.328 149.956 183.817C148.693 185.288 147.303 186.829 146.341 188.545C144.951 191.022 144.422 192.577 144.422 195.706" stroke="black" stroke-width="3" stroke-linecap="round"/>
<path d="M93.1799 187.439C93.1799 184.204 90.2715 180.215 87.5605 178.335C86.9786 177.932 82.5335 175.067 83.6221 176.332C84.9496 177.874 86.3089 178.888 87.3443 180.579C90.7947 186.211 91.0186 191.294 91.0186 197.631" stroke="black" stroke-width="3" stroke-linecap="round"/>
<path d="M91.0181 193.528C88.9683 191.521 86.3215 189.93 84.1085 188.197C82.0051 186.549 74.1187 184.754 76.2449 186.374C77.3613 187.224 78.393 187.543 79.3857 188.516C80.0994 189.215 80.2836 190.314 80.9677 191.067C82.2384 192.467 83.4803 195.829 83.4803 197.629" stroke="black" stroke-width="3" stroke-linecap="round"/>
<path d="M98.585 187.9C101.069 188.201 102.101 194.785 102.909 196.548" stroke="black" stroke-width="3" stroke-linecap="round"/>
<path d="M78.8669 54.8552C79.1278 55.8987 87.0712 54.9849 87.8871 54.6711C89.9607 53.8736 93.0938 54.487 95.2914 54.487C97.0027 54.487 98.714 54.487 100.425 54.487C103.971 54.487 107.516 54.487 111.061 54.487C112.893 54.487 114.857 54.8552 116.768 54.8552C117.965 54.8552 119.977 54.4584 121.022 55.0393C122.142 55.6613 123.978 55.1455 125.236 55.4075C126.284 55.6258 127.321 55.5915 128.386 55.5915C129.77 55.5915 131.154 55.5915 132.538 55.5915C136.554 55.5915 140.569 55.5915 144.585 55.5915C149.889 55.5915 154.772 55.9359 158.944 59.2732C160.664 60.6492 162.419 62.8223 163.464 64.7958C164.122 66.0385 165.083 67.1511 165.673 68.4774C166.046 69.3179 166.379 70.6389 166.941 71.341C168.09 72.7767 167.964 76.1888 167.964 78.0498C167.964 80.6844 168.332 83.4172 168.332 86.1495C168.332 96.5462 170.909 106.244 170.909 116.708" stroke="black" stroke-width="3" stroke-linecap="round"/>
<path d="M54.1996 120.021C54.0772 121.124 52.5298 122.101 52.0724 123.13C51.657 124.065 50.8131 125.155 50.5384 126.117C49.9182 128.287 47.6784 130.13 47.184 132.355C46.9127 133.576 45.9788 134.465 45.7113 135.669C45.4375 136.901 44.8526 138.383 44.3409 139.534C43.3217 141.828 43.4039 144.864 42.3364 147.266C41.4785 149.196 41.3137 151.945 41.3137 154.077C41.3137 156.393 41.9813 157.91 42.4387 159.968C42.8748 161.93 45.6607 165.449 47.5726 165.674C48.7496 165.813 50.2634 166.17 51.4384 166.431C53.2976 166.844 54.8217 166.229 56.7768 166.043C58.8448 165.846 61.9946 164.602 63.6084 163.281C64.5967 162.473 65.8025 162.235 66.7992 161.338C67.651 160.572 68.6593 160.051 69.4991 159.211C72.1206 156.589 74.678 154.098 77.1079 151.398C78.8826 149.426 80.3622 147.35 82.1804 145.425C83.9308 143.572 85.9388 140.927 86.9666 138.614C87.9192 136.471 89.668 134.451 90.8324 132.355C91.8853 130.46 92.6064 127.791 93.88 126.199C94.8552 124.98 94.6712 121.876 96.1708 121.126" stroke="black" stroke-width="3" stroke-linecap="round"/>
<path d="M58.626 115.899C58.626 105.887 58.7357 95.5025 60.8443 86.014C61.3415 83.7765 61.7496 81.5915 62.3323 79.552C62.9013 77.5605 63.2113 74.8261 64.523 73.1865C65.0735 72.4985 65.1616 71.4582 65.763 70.7065C66.4953 69.7912 67.1036 68.647 67.8986 67.6753C69.4329 65.8001 71.1329 65.0652 73.2583 64.1205C77.7537 62.1226 83.4527 66.0201 86.1546 69.3976C87.7711 71.4181 88.2141 73.4139 89.1858 75.7217C90.3422 78.4681 90.2416 81.3325 90.6325 84.2641C91.4723 90.5629 90.8667 97.3552 90.8667 103.746C90.8667 108.541 90.8667 113.336 90.8667 118.131" stroke="black" stroke-width="3" stroke-linecap="round"/>
<path d="M62.0981 98.5388C62.0981 96.933 65.0171 94.7053 66.1627 93.8543C69.4438 91.4169 72.8079 89.5156 76.5376 87.847C79.4372 86.5498 82.0705 84.9428 84.8871 83.5345C85.3179 83.3191 85.9968 83.14 86.3476 82.8594C86.7905 82.5051 86.04 83.9705 85.7276 84.4438C83.9846 87.0847 81.3036 89.2071 78.9625 91.2916C76.7287 93.2806 74.7819 95.6747 72.9277 98.0153C71.2439 100.141 69.6548 102.283 67.3063 103.692C66.2838 104.305 65.2067 105.807 64.4542 106.723C64.033 107.236 62.41 109.266 63.8342 107.605C65.8605 105.241 68.674 103.593 71.0539 101.625C73.3775 99.7038 75.8961 97.8996 78.5768 96.4997C81.1425 95.1598 83.7378 93.3449 86.4716 92.38C87.5493 91.9997 87.2154 92.1705 86.3889 93.1241C82.5628 97.5388 78.5455 101.569 74.03 105.331C72.3117 106.763 70.9425 108.547 69.2352 109.947C67.6475 111.249 65.7241 112.163 64.2751 113.612C64.1526 113.735 63.9033 114.064 64.3026 114.053C66.102 114.004 68.397 112.675 70.0206 112.041C73.3701 110.735 76.5985 109.109 79.8995 107.715C81.8053 106.91 83.5091 105.817 85.4934 105.125C86.0472 104.932 86.545 104.709 87.0641 104.436C87.1217 104.406 88.49 103.78 88.4694 103.857C88.2325 104.746 86.2313 105.984 85.6311 106.447C82.4559 108.899 78.508 110.732 75.6282 113.529C75.3199 113.829 73.2881 115.893 73.8095 115.748C78.7263 114.382 83.299 111.795 87.8908 109.754C89.0744 109.228 88.0622 111.022 87.8219 111.352C86.3193 113.418 84.3148 115.109 82.8617 117.208C82.1542 118.23 85.0188 115.963 86.1547 115.458C86.5447 115.285 86.4027 117.257 86.4027 117.635" stroke="black" stroke-width="3" stroke-linecap="round"/>
<path d="M31.0142 58.6016C33.0713 59.6302 35.3923 59.7602 37.4675 60.7527C38.493 61.2431 40.9901 61.8853 41.6819 62.7501C42.4538 63.7149 44.5544 64.779 45.633 65.3183" stroke="#12C0B5" stroke-width="3" stroke-linecap="round"/>
<path d="M16 80.7283C19.0364 80.7283 22.0729 80.7283 25.1093 80.7283C26.4944 80.7283 29.638 80.2046 31.0139 80.8161C32.4554 81.4567 34.3756 81.1234 35.9527 81.1234C37.2641 81.1234 38.3065 81.5185 39.7062 81.5185" stroke="#12C0B5" stroke-width="3" stroke-linecap="round"/>
<path d="M31.4092 106.806C33.2757 105.279 36.2336 105.142 37.9284 103.448C38.9615 102.415 40.4251 101.113 41.6819 100.484" stroke="#12C0B5" stroke-width="3" stroke-linecap="round"/>
<path d="M121.802 40C122.727 34.9919 130.37 30.4461 134.128 27.9885C140.206 24.0137 147.367 20.6045 154.735 20.0862C157.059 19.9228 159.315 23.8664 160.064 25.6494C161.021 27.9287 161.425 28.4637 160.064 30.7701C158.625 33.2068 156.391 36.4715 153.13 36.5862C150.657 36.6732 151.269 31.2852 151.269 30.0115C151.269 18.0491 165.796 13.3074 173.802 7" stroke="#12C0B5" stroke-width="3" stroke-linecap="round"/>
</svg>
