<svg width="205" height="205" viewBox="0 0 205 205" fill="none" xmlns="http://www.w3.org/2000/svg">
<g id="icon_&#237;&#140;&#169;&#237;&#143;&#173;2">
<g id="Group 88454">
<path id="Vector 2491" d="M74.7821 70.9671C74.5173 68.5163 71.4795 66.6017 70.9439 64.1234C70.617 62.6108 68.0754 58.015 66.8239 57.2797C64.2328 55.7571 62.462 53.532 59.57 52.2103C56.4708 50.7938 51.2717 50.0432 48.1609 51.5585C33.1378 58.8761 26.0595 75.2673 21.6805 91.0274C21.1565 92.9134 19.6373 100.817 20.5889 102.578C21.5514 104.36 22.3208 108.311 22.7721 110.4C24.0822 116.462 28.992 117.326 34.2164 114.781C37.6435 113.112 40.6414 111.94 43.4071 109.096C45.652 106.788 47.7525 104.101 50.0976 101.89C52.4294 99.6925 54.1158 97.143 56.2599 94.9381C57.6979 93.4595 60.1931 89.9019 60.8377 87.9134" stroke="#33333A" stroke-width="3" stroke-linecap="round"/>
<path id="Vector 2492" d="M50.2578 104.56C50.2578 106.249 50.52 110.504 50.6141 112.181C50.6834 113.417 51.5189 114.642 51.5622 115.887C51.6056 117.134 51.7679 119.407 52.3919 120.52C52.9786 121.566 52.6596 123.136 53.103 124.278C53.6728 125.746 53.7738 127.617 54.5121 128.976C55.1769 130.199 55.1653 131.959 56.1846 132.969C56.8354 133.614 56.9655 134.656 57.4883 135.396C58.0128 136.138 58.6932 136.709 59.0949 137.549C59.6982 138.811 60.8681 139.687 61.3336 141.02C61.6724 141.99 63.019 143.123 63.8094 143.76C65.3111 144.972 66.4849 147.017 68.1552 147.936C68.8417 148.314 69.3327 149.088 69.9989 149.528C70.8261 150.075 71.743 150.417 72.6458 150.82C74.7612 151.763 77.0112 152.789 79.3093 153.169C80.6435 153.389 83.1416 153.732 84.3267 154.461C85.8284 155.384 88.0237 155.87 89.7787 155.87C91.9329 155.87 94.0865 156.575 96.2315 156.575C100.513 156.575 105.105 157.448 109.374 156.692C110.999 156.405 112.396 156.278 113.904 155.531C114.631 155.17 115.436 154.982 116.248 154.813C118.522 154.341 120.347 154.105 122.491 153.26C124.803 152.349 126.994 150.949 129.365 150.233C131.039 149.727 132.775 148.685 133.869 147.31C134.912 145.997 136.169 145.02 137.371 143.891C138.713 142.631 139.686 140.569 140.558 138.997C142.284 135.888 144.931 133.255 146.261 129.889C146.63 128.955 146.954 127.978 147.433 127.097C147.987 126.076 147.928 125.048 148.17 123.952C148.418 122.829 148.987 121.702 148.987 120.533C148.987 119.636 148.664 118.833 148.802 117.923C149.17 115.508 150.102 113.059 150.172 110.642C150.217 109.067 151.083 104.131 151.083 102.5" stroke="#33333A" stroke-width="3" stroke-linecap="round"/>
<path id="Vector 2545" d="M77.5078 83.4258C79.3322 83.4704 81.1395 83.7195 82.9459 83.9471C83.5477 84.0229 84.0129 84.1256 84.5103 84.4815C85.4803 85.1754 86.7926 85.5943 87.933 85.9803C89.5333 86.5219 90.6536 87.2319 91.6768 88.5217C92.0592 89.0037 92.7755 89.605 92.9885 90.1639C93.1265 90.5257 93.8578 91.6008 93.8578 91.6008" stroke="#33333A" stroke-width="3" stroke-linecap="round"/>
<path id="Vector 2546" d="M126.557 83.4258C124.732 83.4704 122.925 83.7195 121.119 83.9471C120.517 84.0229 120.052 84.1256 119.554 84.4815C118.584 85.1754 117.272 85.5943 116.131 85.9803C114.531 86.5219 113.411 87.2319 112.388 88.5217C112.005 89.0037 111.289 89.605 111.076 90.1639C110.938 90.5257 110.207 91.6008 110.207 91.6008" stroke="#33333A" stroke-width="3" stroke-linecap="round"/>
<g id="Group 88396">
<path id="Vector 2496" d="M87.117 114.308C86.8073 114.308 86.5139 114.276 86.2298 114.106C86.115 114.037 86.0031 113.962 85.887 113.897C85.8466 113.874 85.7856 113.859 85.7583 113.81C85.6776 113.667 85.5585 113.557 85.4662 113.423C85.3099 113.197 85.1782 112.98 85.0616 112.717C84.79 112.106 84.4048 111.447 84.35 110.722C84.2962 110.011 84.3106 109.343 84.4341 108.643C84.5317 108.091 84.6173 107.525 84.7646 106.992C84.8715 106.605 84.9982 106.308 85.2237 106.016C85.3856 105.806 85.5631 105.691 85.7719 105.571C85.9449 105.472 86.0974 105.334 86.2706 105.242C86.3349 105.208 86.4564 105.234 86.523 105.237C86.7996 105.253 87.0717 105.317 87.3497 105.322C87.7621 105.33 88.2024 105.399 88.5649 105.671C88.6983 105.771 88.7817 105.879 88.8644 106.041C88.9986 106.305 89.1629 106.52 89.2851 106.799C89.4422 107.157 89.5271 107.563 89.5995 107.961C89.678 108.393 89.7531 108.844 89.7665 109.289C89.7871 109.969 89.7198 110.618 89.6552 111.289C89.5948 111.915 89.415 112.782 89.0302 113.223C88.6436 113.666 88.0986 113.833 87.6281 114.064C87.4809 114.136 87.3369 114.217 87.1888 114.285C87.1092 114.322 87.0613 114.275 86.9834 114.25" stroke="#33333A" stroke-width="3" stroke-linecap="round"/>
<ellipse id="Ellipse 106" cx="87.2879" cy="111.706" rx="2.72499" ry="4.54166" transform="rotate(-6.56552 87.2879 111.706)" fill="#33333A"/>
</g>
<g id="Group 88405">
<path id="Vector 2496_2" d="M117.09 114.308C116.78 114.308 116.487 114.276 116.202 114.106C116.088 114.037 115.976 113.962 115.86 113.897C115.819 113.874 115.758 113.859 115.731 113.81C115.65 113.667 115.531 113.557 115.439 113.423C115.283 113.197 115.151 112.98 115.034 112.717C114.763 112.106 114.377 111.447 114.323 110.722C114.269 110.011 114.283 109.343 114.407 108.643C114.504 108.091 114.59 107.525 114.737 106.992C114.844 106.605 114.971 106.308 115.196 106.016C115.358 105.806 115.536 105.691 115.745 105.571C115.918 105.472 116.07 105.334 116.243 105.242C116.308 105.208 116.429 105.234 116.496 105.237C116.772 105.253 117.044 105.317 117.322 105.322C117.735 105.33 118.175 105.399 118.538 105.671C118.671 105.771 118.754 105.879 118.837 106.041C118.971 106.305 119.136 106.52 119.258 106.799C119.415 107.157 119.5 107.563 119.572 107.961C119.651 108.393 119.726 108.844 119.739 109.289C119.76 109.969 119.692 110.618 119.628 111.289C119.567 111.915 119.388 112.782 119.003 113.223C118.616 113.666 118.071 113.833 117.601 114.064C117.454 114.136 117.31 114.217 117.161 114.285C117.082 114.322 117.034 114.275 116.956 114.25" stroke="#33333A" stroke-width="3" stroke-linecap="round"/>
<ellipse id="Ellipse 106_2" cx="117.061" cy="108.278" rx="2.72499" ry="4.54166" transform="rotate(-6.56552 117.061 108.278)" fill="#33333A"/>
</g>
<g id="Group 88398">
<path id="Vector 2497" d="M102.617 148.159C102.028 147.902 101.21 147.841 100.668 147.464C100.377 147.261 99.6386 147.114 99.3058 147.005C98.6341 146.785 97.4826 146.295 96.9665 145.698C96.5662 145.235 95.9688 144.888 95.4716 144.547C95.2255 144.378 95.0532 144.135 94.8363 143.93C94.3917 143.509 93.9311 143.208 93.4162 142.889C92.7643 142.484 92.3089 141.767 91.8392 141.149C91.5351 140.749 91.3528 140.324 91.316 139.802C91.296 139.518 91.2402 139.085 91.1665 138.813C91.0736 138.471 91.1838 138.175 91.2525 137.837C91.3206 137.502 91.8102 137.089 92.097 136.992C93.0261 136.68 93.9801 136.497 94.941 136.363C96.1082 136.201 97.2906 136.147 98.4538 135.947C99.1608 135.825 99.9495 135.596 100.662 135.596C102.201 135.596 103.726 135.07 105.281 135.232C106.106 135.318 106.926 135.547 107.752 135.653C108.797 135.787 109.842 135.934 110.887 136.069C111.322 136.126 111.452 136.217 111.78 136.567C112.44 137.271 113.103 137.654 112.89 138.76C112.625 140.138 111.51 141.3 110.674 142.301C109.903 143.224 109.104 144.098 108.297 144.979C108.042 145.259 107.827 145.57 107.52 145.788C106.855 146.259 106.107 146.59 105.412 147.005C104.749 147.401 104.174 147.929 103.521 148.336C103.228 148.519 102.909 148.644 102.617 148.826" stroke="#33333A" stroke-width="3" stroke-linecap="round"/>
<path id="Vector 2498" d="M91.1309 139.289C91.1309 140.651 102.031 148.826 102.031 148.826C102.031 148.826 112.931 142.014 112.931 139.289C112.931 136.564 103.121 135.201 103.121 135.201C103.121 135.201 91.1309 137.926 91.1309 139.289Z" fill="#33333A"/>
</g>
<path id="Vector 2499" d="M102.032 146.1C102.032 148.653 102.032 151.211 102.032 153.802C102.032 154.804 102.032 157.8 102.032 156.797" stroke="#33333A" stroke-width="3" stroke-linecap="round"/>
<path id="Vector 2536" d="M160.398 73.8145C159.812 74.8741 159.039 75.8295 158.469 76.8937C158.22 77.3592 158.194 77.9109 157.882 78.342C157.366 79.0554 156.511 80.3845 156.149 81.2104C154.736 84.4315 154.014 87.8748 153.06 91.2356C152.766 92.268 150.999 101.413 150.95 102.498" stroke="#33333A" stroke-width="3" stroke-linecap="round"/>
<path id="Vector 2537" d="M149.096 69.8008C148.003 71.2631 146.928 72.8602 145.617 74.1466C144.852 74.8974 143.38 75.5648 142.907 76.4605" stroke="#FF8CBD" stroke-width="3" stroke-linecap="round"/>
<g id="Group 88404">
<path id="Vector 2538" d="M119.035 94.494C118.237 94.6358 117.632 95.2329 116.842 95.4249C115.9 95.9215 114.1 97.2204 113.164 97.7466C112.753 97.9777 112.233 98.2328 111.984 98.5962C111.62 99.1272 111.586 99.3486 111.131 99.7899C110.606 100.3 109.963 101.286 109.416 101.78C109.178 101.994 109.035 102.288 108.8 102.479C108.703 102.558 108.519 102.997 108.471 103.131C108.043 104.31 107.557 105.785 107.61 107.047C107.675 108.626 107.818 110.086 108.072 111.651C108.358 113.416 108.793 115.326 109.58 116.939C109.942 117.682 110.719 118.867 111.41 119.332C112.244 119.894 113.369 120.013 114.224 120.568C117.463 122.671 121.407 121.701 124.936 121.128C126.406 120.89 128.37 120.418 129.64 119.614C130.202 119.258 130.593 119.073 131.013 118.561C131.812 117.587 133.228 117.17 133.963 116.142C134.279 115.7 134.726 115.429 135.098 115.039C138.623 111.35 137.746 105.223 136.387 100.779C135.812 98.9018 134.573 97.3998 132.98 96.2858C132.122 95.6858 131.033 95.3332 130.082 94.9201C129.496 94.6662 129.115 94.2556 128.473 94.1833C127.617 94.087 126.734 93.9152 125.874 93.783C125.19 93.6779 124.425 93.9064 123.742 94.0174C122.175 94.2717 120.602 94.2158 119.035 94.494Z" stroke="#33333A" stroke-width="3" stroke-linecap="round"/>
<path id="Vector 2539" d="M81.4841 100.59C82.286 100.472 83.0488 100.847 83.8591 100.779C84.9099 100.952 87.0288 101.615 88.0828 101.818C88.5458 101.907 89.1198 101.985 89.471 102.251C89.9843 102.639 90.0868 102.838 90.6578 103.113C91.3175 103.431 92.2394 104.163 92.9149 104.459C93.208 104.587 93.4367 104.82 93.7196 104.927C93.8374 104.971 94.15 105.329 94.2387 105.441C95.0176 106.424 95.9446 107.67 96.2945 108.884C96.7321 110.402 97.0582 111.832 97.3124 113.397C97.5989 115.162 97.7915 117.112 97.5548 118.891C97.4458 119.71 97.0844 121.08 96.576 121.74C95.9625 122.537 94.933 123.005 94.2973 123.803C91.8901 126.822 87.8413 127.15 84.3132 127.723C82.8427 127.962 80.8307 128.136 79.3716 127.775C78.7258 127.615 78.2964 127.563 77.7356 127.21C76.6699 126.539 75.1943 126.591 74.1723 125.848C73.7327 125.529 73.2228 125.414 72.7462 125.162C68.2355 122.777 67.1284 116.688 67.0124 112.041C66.9634 110.079 67.6638 108.262 68.8224 106.701C69.4465 105.861 70.3679 105.182 71.1401 104.489C71.6149 104.063 71.8465 103.553 72.433 103.281C73.2145 102.919 73.9974 102.477 74.7722 102.079C75.3878 101.763 76.1851 101.738 76.8688 101.627C78.4357 101.372 79.9101 100.822 81.4841 100.59Z" stroke="#33333A" stroke-width="3" stroke-linecap="round"/>
<path id="Vector 2541" d="M51.3848 103.59C52.747 104.033 57.2836 105.674 58.6735 106.04C59.6654 106.302 60.6653 106.733 61.6992 106.933C62.1522 107.021 62.4258 107.466 62.8776 107.565C63.239 107.644 63.6119 107.82 63.9762 107.924C64.6934 108.13 65.3754 108.496 66.1659 108.597" stroke="#33333A" stroke-width="3" stroke-linecap="round"/>
<path id="Vector 2542" d="M153.829 86.1504C152.738 87.1445 148.566 89.846 147.29 90.6368C146.55 91.0951 145.871 91.6916 145.132 92.1554C143.739 93.0288 142.272 93.7044 140.829 94.4958C139.799 95.0606 138.804 95.8236 137.712 96.3296C137.234 96.5512 137.047 97.1373 136.572 97.3714C136.193 97.5586 135.826 97.8607 135.45 98.0779" stroke="#33333A" stroke-width="3" stroke-linecap="round"/>
</g>
<path id="Vector 2510" d="M93.8574 53.4492C95.9875 55.7084 99.1127 59.2729 99.1127 62.4912C99.1127 63.2025 99.5508 66.8677 99.1127 67.0742" stroke="#33333A" stroke-width="3" stroke-linecap="round"/>
<path id="Vector 2511" d="M104.758 67.0734C104.758 64.0677 106.117 61.6295 107.483 58.8984" stroke="#33333A" stroke-width="3" stroke-linecap="round"/>
<path id="Vector 2544" d="M97.0635 110.772C99.2759 110.51 101.438 110.463 103.657 110.463C104.602 110.463 105.52 110.926 106.478 110.926" stroke="#33333A" stroke-width="3" stroke-linecap="round"/>
</g>
<g id="Group 88399">
<path id="Vector 2505" d="M74.4286 118.85C74.4286 118.85 74.7831 119.616 74.7831 120.179C74.7831 120.712 74.5963 121.371 74.3892 121.863C73.7682 123.338 72.76 124.726 71.8582 126.029C70.9148 127.392 70.5508 129.254 70.0756 130.815C69.3575 133.175 68.7025 135.539 68.1848 137.955C67.5911 140.726 65.8952 143.521 63.172 144.731C62.0616 145.225 61.7681 145.229 60.6803 144.918C60.2193 144.786 59.6863 144.744 59.3213 144.416C58.9006 144.037 57.9107 143.972 57.6273 143.49C57.0153 142.45 56.2648 141.219 56.1698 139.984C56.1091 139.195 56.0688 138.638 56.1599 137.817C56.2855 136.688 56.8158 135.708 57.0561 134.627C57.483 132.706 58.6 131.204 59.4591 129.486C60.0383 128.328 60.5263 126.902 61.4485 125.98C62.7399 124.688 63.7407 123.756 65.25 122.75C66.3511 122.015 67.4576 121.327 68.4901 120.524C69.9934 119.355 71.9079 118.85 73.7528 118.85" stroke="#12C0B5" stroke-width="3" stroke-linecap="round"/>
<path id="Vector 2506" d="M58.7616 129.22C62.3707 122.002 70.4911 119.596 74.1002 119.295C74.1002 120.498 73.7394 123.445 72.296 125.611C70.4918 128.318 69.5892 133.731 67.7847 139.145C65.9801 144.559 62.3707 145.461 58.7616 144.559C55.1525 143.656 54.2502 138.243 58.7616 129.22Z" fill="#12C0B5"/>
</g>
<path id="Vector 2690" d="M121 68.3301C122.222 67.2436 124.099 66.764 125.51 65.9463C127.382 64.861 129.231 63.1907 130.749 61.6912C133.285 59.1872 135.305 56.3672 138.329 54.3309C142.687 51.3961 147.703 50.1023 152.778 48.9047C155.872 48.1748 159.062 48.0056 162.232 48.0056C165.063 48.0056 167.932 47.9194 170.732 48.4238C174.73 49.1441 178.436 50.6436 181.932 52.6894C185.177 54.5888 186.858 57.8393 186.928 61.5343C186.981 64.301 187.336 67.186 185.785 69.6369C183.269 73.6122 177.877 74.0733 173.654 74.6867C168.013 75.506 162.776 74.601 157.267 73.3275C154.138 72.6043 150.832 71.4051 149.01 68.7064" stroke="#33333A" stroke-width="3" stroke-linecap="round"/>
</g>
</svg>
