<svg width="248" height="174" viewBox="0 0 248 174" fill="none" xmlns="http://www.w3.org/2000/svg">
<path d="M49.4452 76.2141C49.2443 74.406 46.9396 72.9933 46.5332 71.1649C46.2853 70.0489 44.357 66.6582 43.4075 66.1156C41.4417 64.9923 40.0982 63.3506 37.9041 62.3754C35.5528 61.3304 31.6083 60.7766 29.2482 61.8945C17.8504 67.2935 12.4803 79.3868 9.15803 91.0146C8.76047 92.406 7.60784 98.2373 8.32984 99.5369C9.0601 100.851 9.6438 103.767 9.98621 105.307C10.9802 109.78 14.7052 110.418 18.6688 108.54C21.2688 107.308 23.5433 106.444 25.6416 104.346C27.3448 102.643 28.9384 100.66 30.7176 99.0293C32.4866 97.4077 33.7661 95.5266 35.3928 93.8999C36.4837 92.8089 38.3768 90.1842 38.8658 88.717" stroke="#33333A" stroke-width="2.3" stroke-linecap="round"/>
<path d="M29.1177 101.319C29.1177 102.6 29.3146 105.825 29.3853 107.097C29.4373 108.034 30.065 108.962 30.0975 109.906C30.1301 110.851 30.252 112.574 30.7207 113.418C31.1615 114.211 30.9219 115.401 31.2549 116.267C31.6829 117.38 31.7588 118.798 32.3134 119.828C32.8128 120.756 32.8041 122.09 33.5697 122.855C34.0586 123.344 34.1563 124.134 34.549 124.695C34.943 125.258 35.4541 125.69 35.7559 126.327C36.2091 127.284 37.0878 127.948 37.4375 128.959C37.692 129.694 38.7036 130.553 39.2973 131.036C40.4253 131.954 41.307 133.505 42.5617 134.202C43.0774 134.488 43.4462 135.075 43.9466 135.408C44.568 135.823 45.2568 136.083 45.9349 136.388C47.524 137.103 49.2141 137.881 50.9404 138.168C51.9426 138.335 53.8191 138.595 54.7093 139.148C55.8373 139.848 57.4864 140.216 58.8047 140.216C60.4228 140.216 62.0406 140.75 63.6519 140.75C66.8681 140.75 70.3171 141.412 73.5243 140.839C74.7447 140.621 75.7943 140.525 76.9272 139.959C77.4734 139.686 78.0777 139.543 78.688 139.415C80.3961 139.057 81.7667 138.878 83.3769 138.238C85.1138 137.547 86.76 136.486 88.5407 135.943C89.7981 135.559 91.1026 134.769 91.9238 133.727C92.7079 132.732 93.6518 131.991 94.5551 131.135C95.5628 130.18 96.2936 128.617 96.9491 127.425C98.2453 125.069 100.234 123.072 101.232 120.521C101.51 119.812 101.753 119.072 102.113 118.404C102.529 117.63 102.485 116.851 102.667 116.02C102.853 115.168 103.28 114.314 103.28 113.428C103.28 112.748 103.037 112.139 103.142 111.45C103.418 109.619 104.118 107.762 104.17 105.93C104.204 104.736 104.855 100.994 104.855 99.7578" stroke="#33333A" stroke-width="2.3" stroke-linecap="round"/>
<path d="M67.308 133.703C66.8761 133.53 66.3783 133.517 65.9805 133.264C65.7666 133.128 65.4403 133.074 65.1961 133.001C64.7031 132.853 64.231 132.991 63.8522 132.589C63.5584 132.278 63.12 132.045 62.7551 131.816C62.5745 131.703 62.448 131.54 62.2888 131.402C61.9625 131.119 61.6245 130.917 61.2466 130.702C60.7681 130.431 60.4339 129.949 60.0892 129.534C59.866 129.265 59.7322 128.98 59.7052 128.629C59.6906 128.439 59.6496 128.148 59.5955 127.965C59.5273 127.735 59.6082 127.537 59.6586 127.31C59.7086 127.085 60.068 126.807 60.2784 126.742C60.9603 126.532 61.6604 126.409 62.3656 126.32C63.2223 126.211 64.0901 126.174 64.9438 126.04C65.4626 125.958 66.0415 125.804 66.5647 125.804C67.6937 125.804 68.813 125.451 69.9547 125.56C70.56 125.618 71.162 125.771 71.7677 125.842C72.535 125.933 73.3014 126.031 74.0688 126.122C74.3877 126.16 74.4831 126.221 74.7243 126.457C75.2085 126.929 75.6953 127.186 75.5389 127.93C75.344 128.855 74.5257 129.636 73.9125 130.308C73.3467 130.927 72.7604 131.514 72.1681 132.107C71.9806 132.294 71.8231 132.504 71.5976 132.65C71.1095 132.966 70.5604 133.188 70.0507 133.467C69.5641 133.733 69.1419 134.088 68.6629 134.361C68.4476 134.484 68.2133 134.568 67.9992 134.69" stroke="#33333A" stroke-width="2.3" stroke-linecap="round"/>
<path d="M59.7051 127.864L68.2938 134.891L75.3209 127.864L68.2938 125.521L59.7051 127.864Z" fill="#33333A"/>
<path d="M67.9493 130.844C67.5056 132.929 67.536 135.019 67.6504 137.136C67.6946 137.954 67.8999 140.402 67.8999 139.582" stroke="#33333A" stroke-width="2.3" stroke-linecap="round"/>
<path d="M82.8716 74.4194C83.506 74.081 84.1421 73.7487 84.8175 73.5031C87.2119 72.6324 88.8664 70.6771 90.2743 68.6435C91.933 66.2475 93.6918 63.8639 95.1854 61.3746C96.2401 59.6167 97.5893 58.0637 98.4286 56.1752C99.5907 53.5605 100.677 50.5705 102.835 48.6283C103.582 47.9561 105.416 46.8163 106.49 46.8163C108.127 46.8163 109.56 45.4337 111.36 46.0338C112.722 46.4877 113.689 47.2555 114.923 47.9694C115.972 48.5771 117.41 50.8827 117.795 51.9951C118.377 53.6761 118.814 55.6004 118.814 57.3798C118.814 58.771 119 60.0515 119 61.457C119 62.4707 118.72 63.2704 118.485 64.2368C118.3 64.997 118.143 65.8557 118.083 66.6358C117.977 68.0124 117.171 69.4092 116.652 70.6614C116.329 71.44 116.028 72.1632 115.581 72.8648C115.318 73.2788 115.37 73.832 115.067 74.2444C114.7 74.7425 114.232 75.2444 113.821 75.7064C112.983 76.649 112.436 77.6351 111.813 78.754C111.381 79.5299 110.812 80.2295 110.392 81.0088C110.209 81.3496 110.189 81.7536 109.96 82.0692C109.58 82.5916 108.95 83.5648 108.683 84.1696C107.643 86.5282 107.111 89.0496 106.408 91.5105C106.192 92.2664 104.89 98.9629 104.854 99.7575" stroke="#33333A" stroke-width="2.3" stroke-linecap="round"/>
<path d="M107.965 61.498C107.749 63.6123 107.358 65.721 106.585 67.708C106.094 68.9712 105.385 69.7577 104.596 70.8716C103.814 71.9757 103.045 73.1815 102.108 74.1527C101.56 74.7196 100.508 75.2235 100.17 75.8997" stroke="#FF8CBD" stroke-width="2.3" stroke-linecap="round"/>
<path d="M80.8658 96.3569C80.2533 96.3659 79.7298 96.7351 79.1171 96.7822C78.3543 97.0365 76.854 97.7813 76.0925 98.0582C75.7579 98.1799 75.3391 98.3062 75.1093 98.5451C74.7735 98.8944 74.7212 99.0541 74.3285 99.3259C73.8749 99.64 73.276 100.293 72.8078 100.593C72.6048 100.723 72.4624 100.922 72.2644 101.036C72.1819 101.083 71.9921 101.385 71.9394 101.479C71.4776 102.3 70.9369 103.333 70.8229 104.273C70.6804 105.449 70.6102 106.546 70.6102 107.735C70.6102 109.075 70.7027 110.541 71.0947 111.829C71.2752 112.422 71.7106 113.392 72.1698 113.82C72.724 114.336 73.5486 114.558 74.1193 115.072C76.2806 117.017 79.3404 116.773 82.0414 116.773C83.1672 116.773 84.6891 116.661 85.7336 116.218C86.196 116.022 86.51 115.932 86.8856 115.604C87.5992 114.979 88.7062 114.841 89.3786 114.168C89.6678 113.879 90.0342 113.733 90.3592 113.489C93.4349 111.182 93.5233 106.544 93.0472 103.091C92.8461 101.634 92.1037 100.374 91.0504 99.3579C90.4831 98.8109 89.7136 98.4191 89.0537 97.9992C88.648 97.741 88.4134 97.3914 87.943 97.2607C87.3162 97.0866 86.6787 96.8535 86.0526 96.6522C85.5552 96.4923 84.9574 96.5695 84.4339 96.5695C83.2344 96.5695 82.0679 96.3392 80.8658 96.3569Z" stroke="#33333A" stroke-width="2.3" stroke-linecap="round"/>
<path d="M54.7036 96.3569C55.316 96.3659 55.8395 96.7351 56.4522 96.7822C57.215 97.0365 58.7153 97.7813 59.4769 98.0582C59.8115 98.1799 60.2302 98.3062 60.46 98.5451C60.7958 98.8944 60.8481 99.0541 61.2408 99.3259C61.6944 99.64 62.2933 100.293 62.7615 100.593C62.9646 100.723 63.1069 100.922 63.305 101.036C63.3875 101.083 63.5773 101.385 63.6299 101.479C64.0918 102.3 64.6325 103.333 64.7464 104.273C64.889 105.449 64.9591 106.546 64.9591 107.735C64.9591 109.075 64.8666 110.541 64.4747 111.829C64.2942 112.422 63.8587 113.392 63.3995 113.82C62.8454 114.336 62.0207 114.558 61.45 115.072C59.2888 117.017 56.229 116.773 53.528 116.773C52.4022 116.773 50.8803 116.661 49.8357 116.218C49.3733 116.022 49.0593 115.932 48.6838 115.604C47.9701 114.979 46.8631 114.841 46.1908 114.168C45.9015 113.879 45.5351 113.733 45.2101 113.489C42.1344 111.182 42.046 106.544 42.5222 103.091C42.7232 101.634 43.4657 100.374 44.5189 99.3579C45.0862 98.8109 45.8557 98.4191 46.5157 97.9992C46.9214 97.741 47.156 97.3914 47.6263 97.2607C48.2531 97.0866 48.8906 96.8535 49.5167 96.6522C50.0142 96.4923 50.612 96.5695 51.1354 96.5695C52.335 96.5695 53.5014 96.3392 54.7036 96.3569Z" stroke="#33333A" stroke-width="2.3" stroke-linecap="round"/>
<path d="M65.271 105.703C66.6865 105.571 68.1418 105.521 69.5438 105.273C69.6232 105.259 69.6767 105.215 69.7425 105.182" stroke="#33333A" stroke-width="2.3" stroke-linecap="round"/>
<path d="M34.272 96.0566C35.2796 96.64 36.3297 97.0716 37.3688 97.5912C38.1103 97.9619 38.8365 98.4827 39.6185 98.8063C39.9611 98.948 40.1184 99.3772 40.4587 99.5284C40.7309 99.6494 40.9998 99.857 41.271 100.001C41.8051 100.283 42.2913 100.702 42.8958 100.903" stroke="#33333A" stroke-width="2.3" stroke-linecap="round"/>
<path d="M105.635 92.7305C104.831 93.4194 103.478 94.5032 102.555 95.0307C102.02 95.3363 101.521 95.7485 100.986 96.0583C99.978 96.6417 98.9279 97.0733 97.8888 97.5928C97.1474 97.9636 96.4211 98.4844 95.6391 98.8079C95.2966 98.9497 95.1392 99.3788 94.799 99.5301C94.5267 99.6511 94.2578 99.8586 93.9866 100.002C93.4525 100.285 92.9663 100.703 92.3618 100.905" stroke="#33333A" stroke-width="2.3" stroke-linecap="round"/>
<path d="M61.6733 63.0586C63.4269 65.0314 65.9997 68.144 65.9997 70.9542C65.9997 71.5753 66.3604 74.7758 65.9997 74.9562" stroke="#33333A" stroke-width="2.3" stroke-linecap="round"/>
<path d="M70.1089 75.3891C70.1089 72.5258 70.9722 70.2032 71.8394 67.6016" stroke="#33333A" stroke-width="2.3" stroke-linecap="round"/>
<path d="M50.1992 86.4844C51.5061 86.5179 52.8007 86.705 54.0946 86.8759C54.5258 86.9328 54.859 87.0099 55.2153 87.2772C55.9101 87.7983 56.8502 88.1129 57.6671 88.4027C58.8134 88.8095 59.6159 89.3427 60.3488 90.3113C60.6228 90.6733 61.1358 91.1248 61.2884 91.5445C61.3873 91.8162 61.9111 92.6236 61.9111 92.6236" stroke="#33333A" stroke-width="2.3" stroke-linecap="round"/>
<path d="M86.8965 86.4844C85.5896 86.5179 84.295 86.705 83.0011 86.8759C82.5699 86.9328 82.2367 87.0099 81.8804 87.2772C81.1856 87.7983 80.2455 88.1129 79.4286 88.4027C78.2823 88.8095 77.4798 89.3427 76.7469 90.3113C76.4729 90.6733 75.9599 91.1248 75.8073 91.5445C75.7085 91.8162 75.1846 92.6236 75.1846 92.6236" stroke="#33333A" stroke-width="2.3" stroke-linecap="round"/>
<path d="M56.5076 111.471C56.2413 111.471 55.9891 111.438 55.7449 111.262C55.6462 111.192 55.55 111.114 55.4502 111.047C55.4155 111.024 55.3631 111.008 55.3396 110.958C55.2703 110.81 55.1679 110.697 55.0885 110.559C54.9541 110.325 54.841 110.101 54.7407 109.83C54.5073 109.2 54.1761 108.52 54.129 107.772C54.0828 107.038 54.0951 106.35 54.2014 105.628C54.2852 105.059 54.3588 104.474 54.4854 103.924C54.5773 103.525 54.6862 103.219 54.88 102.918C55.0192 102.701 55.1718 102.583 55.3513 102.459C55.5 102.357 55.6311 102.214 55.78 102.12C55.8353 102.084 55.9397 102.111 55.997 102.115C56.2347 102.131 56.4685 102.197 56.7075 102.202C57.0621 102.21 57.4405 102.282 57.7521 102.562C57.8668 102.665 57.9385 102.777 58.0096 102.944C58.1249 103.216 58.2662 103.438 58.3712 103.726C58.5063 104.095 58.5792 104.514 58.6414 104.924C58.7089 105.37 58.7735 105.835 58.785 106.294C58.8027 106.995 58.7449 107.665 58.6893 108.357C58.6374 109.002 58.4829 109.897 58.1521 110.352C57.8198 110.809 57.3513 110.981 56.9469 111.219C56.8203 111.294 56.6965 111.377 56.5693 111.448C56.5008 111.486 56.4596 111.438 56.3927 111.411" stroke="#33333A" stroke-width="2.3" stroke-linecap="round"/>
<ellipse cx="56.4459" cy="106.786" rx="2.34238" ry="4.68476" fill="#33333A"/>
<path d="M50.1993 105.061C50.57 104.52 50.9201 104.12 51.324 103.709C52.029 102.992 52.7369 102.339 53.4454 102.061C54.1049 101.803 55.3638 101.613 55.9518 101.774" stroke="#33333A" stroke-width="2.3" stroke-linecap="round"/>
<path d="M81.4929 111.471C81.2266 111.471 80.9744 111.438 80.7302 111.262C80.6316 111.192 80.5353 111.114 80.4355 111.047C80.4009 111.024 80.3484 111.008 80.3249 110.958C80.2556 110.81 80.1532 110.697 80.0739 110.559C79.9395 110.325 79.8263 110.101 79.726 109.83C79.4926 109.2 79.1615 108.52 79.1144 107.772C79.0681 107.038 79.0805 106.35 79.1867 105.628C79.2705 105.059 79.3441 104.474 79.4707 103.924C79.5627 103.525 79.6715 103.219 79.8654 102.918C80.0045 102.701 80.1572 102.583 80.3366 102.459C80.4853 102.357 80.6164 102.214 80.7653 102.12C80.8206 102.084 80.925 102.111 80.9823 102.115C81.22 102.131 81.4539 102.197 81.6929 102.202C82.0474 102.21 82.4258 102.282 82.7375 102.562C82.8522 102.665 82.9238 102.777 82.9949 102.944C83.1102 103.216 83.2515 103.438 83.3566 103.726C83.4916 104.095 83.5646 104.514 83.6268 104.924C83.6943 105.37 83.7588 105.835 83.7704 106.294C83.7881 106.995 83.7302 107.665 83.6746 108.357C83.6228 109.002 83.4683 109.897 83.1375 110.352C82.8052 110.809 82.3366 110.981 81.9322 111.219C81.8056 111.294 81.6819 111.377 81.5546 111.448C81.4861 111.486 81.445 111.438 81.378 111.411" stroke="#33333A" stroke-width="2.3" stroke-linecap="round"/>
<ellipse cx="81.4312" cy="106.786" rx="2.34238" ry="4.68476" fill="#33333A"/>
<path d="M75.1847 105.061C75.5554 104.52 75.9054 104.12 76.3094 103.709C77.0143 102.992 77.7222 102.339 78.4307 102.061C79.0902 101.803 80.3492 101.613 80.9371 101.774" stroke="#33333A" stroke-width="2.3" stroke-linecap="round"/>
<path d="M50.907 60.4079C49.5584 58.3495 48.428 56.6305 47.8319 54.2461C47.6296 53.4367 47.5904 52.6245 47.3018 51.8308C46.9954 50.9884 47.0954 50.6639 46.2061 51.442C43.7349 53.6043 42 56.9092 42 60.1958" stroke="#FF8CBD" stroke-width="2" stroke-linecap="round"/>
<path d="M80.491 60.4079C81.8396 58.3495 82.9699 56.6305 83.566 54.2461C83.7684 53.4367 83.8076 52.6245 84.0962 51.8308C84.4025 50.9884 84.3026 50.6639 85.1919 51.442C87.6631 53.6043 89.3979 56.9092 89.3979 60.1958" stroke="#FF8CBD" stroke-width="2" stroke-linecap="round"/>
<path d="M160.919 71.772C160.919 71.772 156.628 66.9802 154.597 66.0773C152.42 65.1098 148.768 64.5971 146.583 65.6321C136.03 70.6308 131.058 81.8275 127.982 92.5932C127.614 93.8815 126.547 99.2804 127.215 100.484C127.892 101.701 128.432 104.4 128.749 105.826C129.669 109.968 133.118 110.558 136.788 108.819C139.195 107.679 141.301 106.879 143.244 104.936C144.821 103.359 146.296 101.524 147.943 100.014C149.581 98.5123 150.766 96.7707 152.272 95.2646C153.282 94.2546 155.035 91.8244 155.487 90.466" stroke="#33333A" stroke-width="2.3" stroke-linecap="round"/>
<path d="M205.017 70.3262C205.017 70.3262 207.888 66.9802 209.92 66.0773C212.097 65.1098 215.749 64.5971 217.934 65.6321C228.486 70.6308 233.458 81.8275 236.534 92.5932C236.902 93.8815 237.97 99.2804 237.301 100.484C236.625 101.701 236.085 104.4 235.768 105.826C234.847 109.968 231.399 110.558 227.729 108.819C225.321 107.679 223.216 106.879 221.273 104.936C219.696 103.359 218.221 101.524 216.573 100.014C214.935 98.5123 213.751 96.7707 212.245 95.2646C211.235 94.2546 209.482 91.8244 209.029 90.466" stroke="#33333A" stroke-width="2.3" stroke-linecap="round"/>
<path d="M146.462 102.133C146.462 103.319 146.644 106.305 146.71 107.483C146.758 108.35 147.339 109.209 147.369 110.084C147.399 110.958 147.512 112.554 147.946 113.335C148.354 114.07 148.132 115.171 148.441 115.973C148.837 117.003 148.907 118.316 149.421 119.27C149.883 120.129 149.875 121.364 150.584 122.072C151.037 122.525 151.127 123.257 151.491 123.776C151.855 124.297 152.329 124.697 152.608 125.287C153.028 126.173 153.841 126.788 154.165 127.723C154.401 128.404 155.337 129.199 155.887 129.647C156.931 130.497 157.748 131.932 158.909 132.578C159.387 132.843 159.728 133.386 160.191 133.695C160.767 134.079 161.404 134.319 162.032 134.602C163.504 135.264 165.068 135.984 166.667 136.25C167.595 136.405 169.332 136.645 170.156 137.157C171.201 137.805 172.727 138.146 173.948 138.146C175.446 138.146 176.944 138.641 178.436 138.641C181.414 138.641 184.607 139.253 187.576 138.723C188.706 138.521 189.678 138.433 190.727 137.908C191.233 137.655 191.792 137.523 192.357 137.404C193.939 137.073 195.208 136.907 196.698 136.314C198.307 135.675 199.831 134.693 201.479 134.19C202.644 133.834 203.851 133.103 204.612 132.138C205.338 131.217 206.211 130.531 207.048 129.738C207.981 128.855 208.657 127.407 209.264 126.304C210.464 124.122 212.306 122.273 213.23 119.911C213.487 119.255 213.712 118.57 214.045 117.951C214.431 117.235 214.39 116.513 214.558 115.744C214.73 114.956 215.126 114.165 215.126 113.344C215.126 112.715 214.901 112.151 214.998 111.512C215.254 109.817 215.902 108.099 215.95 106.402C215.982 105.297 216.584 101.832 216.584 100.688" stroke="#33333A" stroke-width="2.3" stroke-linecap="round"/>
<path d="M181.821 132.123C181.421 131.963 180.96 131.951 180.592 131.717C180.394 131.591 180.091 131.541 179.865 131.473C179.409 131.336 178.972 131.463 178.621 131.092C178.349 130.804 177.943 130.588 177.605 130.376C177.438 130.271 177.321 130.12 177.174 129.993C176.871 129.731 176.559 129.544 176.209 129.345C175.766 129.093 175.456 128.648 175.137 128.263C174.93 128.014 174.807 127.75 174.782 127.425C174.768 127.249 174.73 126.98 174.68 126.811C174.617 126.598 174.692 126.414 174.738 126.204C174.785 125.996 175.117 125.738 175.312 125.678C175.944 125.484 176.592 125.37 177.245 125.287C178.038 125.186 178.841 125.152 179.632 125.028C180.112 124.953 180.648 124.81 181.133 124.81C182.178 124.81 183.214 124.483 184.271 124.584C184.832 124.637 185.389 124.779 185.95 124.845C186.66 124.929 187.37 125.02 188.08 125.104C188.375 125.139 188.464 125.196 188.687 125.414C189.135 125.851 189.586 126.09 189.441 126.778C189.261 127.635 188.503 128.357 187.935 128.979C187.412 129.553 186.869 130.097 186.32 130.645C186.147 130.819 186.001 131.013 185.792 131.148C185.34 131.441 184.832 131.647 184.36 131.905C183.91 132.151 183.519 132.479 183.075 132.733C182.876 132.846 182.659 132.924 182.461 133.037" stroke="#33333A" stroke-width="2.3" stroke-linecap="round"/>
<path d="M174.782 126.716L182.734 133.222L189.24 126.716L182.734 124.547L174.782 126.716Z" fill="#33333A"/>
<path d="M182.415 129.469C182.004 131.4 182.032 133.334 182.138 135.294C182.179 136.052 182.369 138.318 182.369 137.559" stroke="#33333A" stroke-width="2.3" stroke-linecap="round"/>
<path d="M198.402 120.211C199.234 119.734 200.011 119.308 200.743 118.685C202.332 117.331 204.465 116.722 206.094 115.427C207.123 114.609 208.171 113.901 209.277 113.202C209.348 113.157 209.893 112.824 209.877 112.869C209.616 113.589 209.211 114.266 208.952 114.994C208.641 115.869 208.557 116.826 208.244 117.7C208.136 118.003 207.883 118.361 207.863 118.686C207.845 118.987 208.195 118.734 208.32 118.672C209.047 118.312 209.727 117.866 210.422 117.45C213.029 115.892 215.63 114.369 218.284 112.899C219.144 112.422 220.037 111.825 220.948 111.457" stroke="#12C0B5" stroke-width="2.3" stroke-linecap="round"/>
<path d="M176.604 61.2109C178.228 63.0374 180.61 65.9193 180.61 68.5212C180.61 69.0962 180.944 72.0595 180.61 72.2264" stroke="#33333A" stroke-width="2.3" stroke-linecap="round"/>
<path d="M184.415 72.6261C184.415 69.9752 185.214 67.8248 186.017 65.416" stroke="#33333A" stroke-width="2.3" stroke-linecap="round"/>
<path d="M189.779 111.532C190.025 111.532 190.259 111.502 190.485 111.339C190.576 111.274 190.665 111.202 190.758 111.14C190.79 111.118 190.838 111.103 190.86 111.057C190.924 110.92 191.019 110.816 191.092 110.688C191.217 110.471 191.322 110.264 191.414 110.013C191.631 109.429 191.937 108.8 191.981 108.108C192.024 107.428 192.012 106.79 191.914 106.122C191.836 105.595 191.768 105.054 191.651 104.545C191.566 104.176 191.465 103.892 191.285 103.613C191.157 103.413 191.015 103.303 190.849 103.188C190.711 103.094 190.59 102.962 190.452 102.874C190.401 102.842 190.304 102.866 190.251 102.87C190.031 102.884 189.815 102.946 189.593 102.951C189.265 102.958 188.915 103.024 188.626 103.283C188.52 103.379 188.454 103.482 188.388 103.638C188.281 103.889 188.15 104.095 188.053 104.361C187.928 104.703 187.861 105.091 187.803 105.471C187.74 105.883 187.681 106.314 187.67 106.739C187.654 107.388 187.707 108.008 187.759 108.649C187.807 109.247 187.95 110.075 188.256 110.496C188.564 110.919 188.997 111.079 189.372 111.299C189.489 111.368 189.604 111.445 189.721 111.511C189.785 111.546 189.823 111.501 189.885 111.477" stroke="#33333A" stroke-width="2.3" stroke-linecap="round"/>
<ellipse cx="2.16871" cy="4.33743" rx="2.16871" ry="4.33743" transform="matrix(-1 0 0 1 192.004 102.857)" fill="#33333A"/>
<path d="M195.62 105.597C195.277 105.096 194.953 104.725 194.579 104.345C193.926 103.681 193.27 103.077 192.615 102.82C192.004 102.581 190.838 102.405 190.294 102.554" stroke="#33333A" stroke-width="2.3" stroke-linecap="round"/>
<path d="M172.429 111.532C172.676 111.532 172.909 111.502 173.135 111.339C173.226 111.274 173.316 111.202 173.408 111.14C173.44 111.118 173.489 111.103 173.51 111.057C173.575 110.92 173.669 110.816 173.743 110.688C173.867 110.471 173.972 110.264 174.065 110.013C174.281 109.429 174.588 108.8 174.631 108.108C174.674 107.428 174.663 106.79 174.564 106.122C174.487 105.595 174.418 105.054 174.301 104.545C174.216 104.176 174.115 103.892 173.936 103.613C173.807 103.413 173.666 103.303 173.5 103.188C173.362 103.094 173.24 102.962 173.103 102.874C173.051 102.842 172.955 102.866 172.902 102.87C172.682 102.884 172.465 102.946 172.244 102.951C171.916 102.958 171.565 103.024 171.277 103.283C171.171 103.379 171.104 103.482 171.038 103.638C170.932 103.889 170.801 104.095 170.703 104.361C170.578 104.703 170.511 105.091 170.453 105.471C170.391 105.883 170.331 106.314 170.32 106.739C170.304 107.388 170.358 108.008 170.409 108.649C170.457 109.247 170.6 110.075 170.906 110.496C171.214 110.919 171.648 111.079 172.022 111.299C172.139 111.368 172.254 111.445 172.372 111.511C172.435 111.546 172.473 111.501 172.535 111.477" stroke="#33333A" stroke-width="2.3" stroke-linecap="round"/>
<ellipse cx="2.16871" cy="4.33743" rx="2.16871" ry="4.33743" transform="matrix(-1 0 0 1 174.655 102.857)" fill="#33333A"/>
<path d="M178.27 105.597C177.927 105.096 177.603 104.725 177.229 104.345C176.576 103.681 175.921 103.077 175.265 102.82C174.654 102.581 173.489 102.405 172.944 102.554" stroke="#33333A" stroke-width="2.3" stroke-linecap="round"/>
<path d="M166.492 91.2734C167.624 91.3025 168.746 91.4646 169.867 91.6126C170.24 91.662 170.529 91.7288 170.838 91.9603C171.44 92.4118 172.254 92.6843 172.962 92.9355C173.955 93.2879 174.65 93.7499 175.285 94.5891C175.523 94.9027 175.967 95.2939 176.099 95.6575C176.185 95.893 176.639 96.5924 176.639 96.5924" stroke="#33333A" stroke-width="2.3" stroke-linecap="round"/>
<path d="M198.286 91.2734C197.154 91.3025 196.032 91.4646 194.911 91.6126C194.538 91.662 194.249 91.7288 193.94 91.9603C193.338 92.4118 192.524 92.6843 191.816 92.9355C190.823 93.2879 190.128 93.7499 189.493 94.5891C189.255 94.9027 188.811 95.2939 188.678 95.6575C188.593 95.893 188.139 96.5924 188.139 96.5924" stroke="#33333A" stroke-width="2.3" stroke-linecap="round"/>
<path d="M199 51.3789V53.638" stroke="#FF8CBD" stroke-width="2.3" stroke-linecap="round"/>
<path d="M205.213 51.9434V53.6377" stroke="#FF8CBD" stroke-width="2.3" stroke-linecap="round"/>
<path d="M202.954 35C202.616 38.7177 199.565 42.2784 199.565 45.7309" stroke="#FF8CBD" stroke-width="2.3" stroke-linecap="round"/>
<path d="M210.296 36.1289C208.5 39.8853 207.218 43.5847 205.778 47.4246" stroke="#FF8CBD" stroke-width="2.3" stroke-linecap="round"/>
<path d="M58.89 15C58.2774 15.8953 57.3674 16.1668 56.9573 17.1408C56.5022 18.2217 57.0014 19.3186 57.4033 20.3521C57.9568 21.7754 59.1722 22.6792 60.228 21.0955C61.0843 19.8111 61.0308 18.477 61.0308 17.007C61.0308 15.8849 60.285 15.6975 59.4252 15.2676" stroke="#12C0B5" stroke-width="2" stroke-linecap="round"/>
<path d="M66.383 15.8027C66.274 18.4719 65.8684 21.0929 65.0449 23.5633" stroke="#12C0B5" stroke-width="2" stroke-linecap="round"/>
<path d="M71.1998 17.141C69.0548 19.286 70.5693 23.9498 73.8759 21.8241C75.2458 20.9434 74.9705 19.0686 74.4111 17.81C73.8523 16.5527 72.9709 16.6058 71.735 16.6058" stroke="#12C0B5" stroke-width="2" stroke-linecap="round"/>
<path d="M80.0308 18.7462C81.1744 18.2887 82.8611 17.9434 84.0448 17.9434" stroke="#12C0B5" stroke-width="2" stroke-linecap="round"/>
<path d="M95.0167 15.5352C93.9987 17.3167 91.5284 18.1183 89.8728 19.133C89.4095 19.4169 89.2216 19.9046 88.8618 20.0845" stroke="#12C0B5" stroke-width="2" stroke-linecap="round"/>
<path d="M88.5942 16.873C90.6932 18.0002 92.1783 20.1369 94.214 21.1547" stroke="#12C0B5" stroke-width="2" stroke-linecap="round"/>
<path d="M105.453 17.4082C103.403 19.3727 101.491 21.2736 99.2983 23.0279" stroke="#12C0B5" stroke-width="2" stroke-linecap="round"/>
<path d="M98.228 18.7461C100.123 20.1055 102.138 21.3422 103.967 22.7899C104.24 23.0066 104.311 23.0278 104.651 23.0278" stroke="#12C0B5" stroke-width="2" stroke-linecap="round"/>
<path d="M114.285 15.5352C113.272 17.4597 111.147 18.6356 110.003 20.3521" stroke="#12C0B5" stroke-width="2" stroke-linecap="round"/>
<path d="M109.468 15.5352C110.91 17.4206 112.636 18.7035 114.285 20.3521" stroke="#12C0B5" stroke-width="2" stroke-linecap="round"/>
<path d="M88.6312 33.2813C87.5509 34.6417 86.2923 36.3324 85.0179 37.5005C82.7027 39.6228 86.9354 38.6566 88.0926 38.5105C90.5173 38.2042 92.2312 37.8551 94.2868 36.8273C94.9683 36.4865 95.9038 36.1216 96.6657 36.1091C100.615 36.0444 104.645 36.4017 108.583 36.0867C111.977 35.8151 115.253 34.9946 118.705 34.9196C123.402 34.8175 128.005 34.6174 132.664 33.9995C137.769 33.3223 143.104 30.9471 147.97 29.2416C152.733 27.5721 160.38 25.5493 162.535 20.3767C163.746 17.4716 165.316 14.5989 164.488 11.2874C163.17 6.01615 157.092 2.38036 151.987 2.19804C139.888 1.76594 127.715 2.1756 115.607 2.1756C110.857 2.1756 106.012 1.89186 101.267 2.19804C98.7378 2.36119 96.2413 2.77898 93.7033 2.89377C91.6567 2.98633 89.4972 2.75398 87.4866 3.20797C80.0424 4.88893 72.3323 5.50832 64.8419 7.02324C61.5981 7.67928 58.2239 8.39015 55.1466 9.64905C53.0532 10.5054 51.4674 12.2741 49.4461 13.2848C46.4411 14.7873 44.9306 17.2119 45.0024 20.444C45.1258 25.9934 53.5322 28.708 57.9519 29.6456C63.2166 30.7623 68.4724 31.2562 73.819 30.5433C77.1819 30.0949 80.9984 30.1811 84.3895 30.476C85.9659 30.613 87.1019 31.2615 88.6312 31.2615" stroke="#33333A" stroke-width="2.3" stroke-linecap="round"/>
<path d="M118.525 21.1618C118.667 19.4513 120.279 16.9146 122.34 17.1894C123.934 17.402 124.251 19.5459 125.976 19.5459C127.977 19.5459 129.763 16.5303 131.676 16.7855C133.619 17.0444 135.559 18.6761 137.601 19.0746C138.655 19.2802 143.12 20.3453 143.997 19.3215C144.679 18.5264 145.474 17.9746 146.085 17.2119C146.895 16.1983 143.788 17.1081 143.347 17.5261C142.061 18.7443 152.058 18.9796 153.087 18.8278C154.371 18.6383 155.142 18.2187 155.69 17.1221" stroke="#12C0B5" stroke-width="2.3" stroke-linecap="round"/>
<path d="M93.4047 153.956C94.7542 157.105 97.7521 160.12 98.318 163.521C99.3249 163.935 101.985 163.607 102.712 163.607C105.133 163.607 107.457 163.688 109.727 162.959C112.014 162.224 113.394 161.206 115.486 160.16C116.68 159.563 117.685 158.601 118.973 158.133C120.794 157.471 122.531 156.638 124.245 155.781C125.125 155.341 126.212 155.365 127.084 154.848C128.934 153.751 131.376 153.416 133.37 152.577C134.967 151.904 136.75 151.503 138.398 150.914C139.798 150.414 144.679 150.72 144.339 149.191C144.031 147.803 142.52 145.675 141.744 144.446C140.547 142.551 139.731 139.807 138.398 138.14C137.705 137.273 137.056 135.862 136.736 134.774C136.429 133.73 135.615 134.044 134.647 134.044C129.251 134.044 121.293 135.276 116.946 138.505C110.076 143.608 103.461 146.323 94.9052 147.366C93.9345 147.484 90.7807 147.055 91.0121 148.096C91.1369 148.657 91.1023 149.552 91.4785 150.022C92.2645 151.005 92.8829 152.738 93.4047 153.956Z" fill="white"/>
<path d="M98.3319 163.607C97.8032 160.171 94.7657 157.131 93.4047 153.956C92.8829 152.738 92.2645 151.005 91.4785 150.022C91.1023 149.552 91.1369 148.657 91.0121 148.096C90.7807 147.055 93.9345 147.484 94.9052 147.366C103.461 146.323 110.076 143.608 116.946 138.505C121.293 135.276 129.251 134.044 134.647 134.044C135.615 134.044 136.429 133.73 136.736 134.774C137.056 135.862 137.705 137.273 138.398 138.14C139.731 139.807 140.547 142.551 141.744 144.446C142.52 145.675 144.031 147.803 144.339 149.191C144.679 150.72 139.798 150.414 138.398 150.914C136.75 151.503 134.967 151.904 133.37 152.577C131.376 153.416 128.934 153.751 127.084 154.848C126.212 155.365 125.125 155.341 124.245 155.781C122.531 156.638 120.794 157.471 118.973 158.133C117.685 158.601 116.68 159.563 115.486 160.16C113.394 161.206 112.014 162.224 109.727 162.959C107.457 163.688 105.133 163.607 102.712 163.607C101.862 163.607 98.3734 164.055 97.9669 163.242" stroke="#33333A" stroke-width="2" stroke-linecap="round"/>
<path d="M109.155 148.852C112.111 150.274 115.128 151.594 118.255 152.571C119.094 152.834 118.707 152.478 118.314 151.686C117.55 150.148 116.67 148.712 116.222 147.047C115.889 145.81 116.603 146.157 117.605 146.491C119.248 147.038 120.82 147.819 122.303 148.709C122.884 149.058 123.382 149.398 124.032 149.603C124.72 149.82 125.325 150.01 125.179 149.105C124.783 146.661 124.183 144.354 124.183 141.869" stroke="#33333A" stroke-width="2" stroke-linecap="round"/>
<path d="M110.218 151.582C114.306 150.395 118.039 148.077 121.94 146.421C123.82 145.623 125.908 144.876 127.675 143.992" stroke="#33333A" stroke-width="2" stroke-linecap="round"/>
<path d="M111.069 162.788C112.419 165.937 115.417 168.952 115.983 172.353C116.989 172.767 119.649 172.439 120.376 172.439C122.798 172.439 125.122 172.52 127.392 171.791C129.678 171.056 131.059 170.038 133.15 168.992C134.345 168.395 135.349 167.433 136.638 166.965C138.458 166.303 140.195 165.47 141.91 164.613C142.79 164.173 143.876 164.197 144.749 163.68C146.599 162.583 149.041 162.248 151.034 161.409C152.632 160.736 154.415 160.335 156.063 159.746C157.462 159.247 162.344 159.552 162.004 158.023C161.695 156.635 160.185 154.507 159.408 153.278C158.211 151.383 157.396 148.639 156.063 146.972C155.369 146.105 154.72 144.694 154.4 143.606C154.093 142.562 153.28 142.876 152.312 142.876C146.916 142.876 138.958 144.108 134.61 147.337C127.741 152.44 121.126 155.155 112.57 156.198C111.599 156.316 108.445 155.887 108.677 156.928C108.801 157.489 108.767 158.384 109.143 158.854C109.929 159.837 110.547 161.57 111.069 162.788Z" fill="white"/>
<path d="M115.996 172.439C115.468 169.003 112.43 165.963 111.069 162.788C110.547 161.57 109.929 159.837 109.143 158.854C108.767 158.384 108.801 157.489 108.677 156.928C108.445 155.887 111.599 156.316 112.57 156.198C121.126 155.155 127.741 152.44 134.61 147.337C138.958 144.108 146.916 142.876 152.312 142.876C153.28 142.876 154.093 142.562 154.4 143.606C154.72 144.694 155.369 146.105 156.063 146.972C157.396 148.639 158.211 151.383 159.408 153.278C160.185 154.507 161.695 156.635 162.004 158.023C162.344 159.552 157.462 159.247 156.063 159.746C154.415 160.335 152.632 160.736 151.034 161.409C149.041 162.248 146.599 162.583 144.749 163.68C143.876 164.197 142.79 164.173 141.91 164.613C140.195 165.47 138.458 166.303 136.638 166.965C135.349 167.433 134.345 168.395 133.15 168.992C131.059 170.038 129.678 171.056 127.392 171.791C125.122 172.52 122.798 172.439 120.376 172.439C119.527 172.439 116.038 172.887 115.631 172.074" stroke="#33333A" stroke-width="2.3" stroke-linecap="round"/>
<path d="M126.819 157.684C129.776 159.106 132.793 160.426 135.919 161.403C136.758 161.666 136.372 161.31 135.978 160.518C135.214 158.98 134.335 157.544 133.887 155.879C133.553 154.642 134.268 154.989 135.27 155.323C136.912 155.87 138.485 156.651 139.967 157.541C140.549 157.89 141.046 158.23 141.696 158.435C142.384 158.652 142.99 158.842 142.843 157.937C142.447 155.493 141.848 153.186 141.848 150.701" stroke="#33333A" stroke-width="2.3" stroke-linecap="round"/>
<path d="M127.882 160.414C131.971 159.228 135.704 156.909 139.605 155.253C141.484 154.455 143.572 153.708 145.34 152.824" stroke="#33333A" stroke-width="2.3" stroke-linecap="round"/>
</svg>
