<svg xmlns="http://www.w3.org/2000/svg" width="181" height="107" viewBox="0 0 181 107" fill="none">
  <path d="M41.089 32.6572C42.2174 32.5318 43.9382 31.5531 44.9813 31.0895C46.0581 30.6109 47.6485 30.5234 48.4952 29.8461C49.2982 29.2037 52.1713 29.2862 53.1443 29.2514C55.2956 29.1746 57.4354 28.3911 59.5775 28.2784C63.4921 28.0723 67.3673 25.9936 71.3625 25.8457C74.1772 25.7414 76.9879 23.8995 79.7688 23.8995C82.6552 23.8995 85.5857 21.9534 88.5265 21.9534C91.0702 21.9534 93.8212 20.0072 96.5544 20.0072C98.8068 20.0072 102.774 19.0328 104.826 18.1692C107.782 16.9244 111.752 16.5567 114.8 16.0879C117.426 15.6838 120 14.1687 122.584 14.1687C123.979 14.1687 125.131 13.1957 126.477 13.1957C129.819 13.1957 133.939 11.5168 137.153 10.6278C138.093 10.368 138.982 10.2868 139.856 9.898C142.919 8.53681 147.044 9.08194 150.074 7.73561C152.427 6.68974 155.775 6.29167 158.345 5.9246C160.085 5.67597 161.93 4.92449 163.67 4.92449C164.976 4.92449 166.184 3.95142 167.346 3.95142C169.362 3.95142 173.022 3.69931 174.887 2.87022C175.852 2.44121 177.725 1.94326 178.779 2.00526C179.488 2.04694 178.266 4.10675 177.915 4.54608C176.677 6.09249 176.245 9.53323 175.374 11.4928C173.058 16.7039 169.963 21.5435 167.103 26.5484C164.563 30.9925 162.567 34.8922 160.399 39.4688C158.066 44.3946 156.867 50.0109 154.209 54.7947C153.345 56.3502 152.724 59.7296 151.29 60.8765C150.307 61.6628 147.784 66.4734 147.641 67.688C147.361 70.0715 144.943 72.4472 143.857 74.4996C142.916 76.2758 141.28 79.4913 139.613 80.8246C138.406 81.7904 137.105 84.9469 136.451 86.4198C135.269 89.0784 133.603 91.3999 132.18 93.9611C130.862 96.3327 129.887 98.8819 128.288 100.881C127.953 101.3 126.789 103.625 126.72 104.178C126.509 105.865 126.041 104.923 125.044 104.638C123.357 104.156 120.893 102.224 119.206 101.259C116.876 99.9283 114.66 98.7146 112.502 96.9885C109.178 94.329 106.211 90.9692 102.988 88.0145C101.361 86.5236 99.9442 84.9171 98.3925 83.3654C97.099 82.0719 95.1632 80.9101 94.1217 79.6082C92.9515 78.1454 90.5781 76.8689 88.986 75.9592C88.3003 75.5673 83.5508 72.7083 83.6341 71.9587C83.7507 70.9091 87.3007 68.4543 88.1751 67.5799C89.9128 65.8422 92.1327 63.8147 94.365 62.8226C96.9243 61.6852 99.2161 59.5599 101.663 58.2005C103.607 57.1208 106.484 55.919 108.123 54.4433C111.314 51.5719 115.748 49.4132 118.449 46.037C119.771 44.3843 122.686 42.4532 124.503 41.4149C126.632 40.1985 127.948 38.233 130.126 37.1442C132.147 36.1337 134.72 34.1712 136.342 32.5491C137.16 31.7313 138.177 31.1468 138.991 30.3326C139.874 29.4497 137.729 30.7111 137.18 30.7111C135.489 30.7111 132.85 32.5493 131.342 33.387C129.168 34.5948 127.178 35.592 125.017 36.7928C123.453 37.6619 120.019 38.8444 118.935 40.1986C117.31 42.2306 113.665 42.7145 111.745 44.4423C110.181 45.85 107.319 46.6286 105.312 47.6318C103.173 48.7015 101.321 49.7409 99.2304 50.9024C94.6761 53.4326 89.6446 54.487 84.8775 56.6057C82.5602 57.6357 80.345 58.9986 78.0659 60.0115C75.1054 61.3273 74.4151 61.1887 71.5247 60.3629C70.4544 60.0571 69.4015 58.2966 68.1189 57.9302C67.4662 57.7437 65.3639 56.311 64.9294 55.7678C63.6496 54.1681 61.03 53.301 59.4693 51.7403C56.584 48.855 53.8424 45.8014 51.3063 42.6313C48.5849 39.2295 44.0242 37.068 42.0621 33.1438" stroke="black" stroke-width="3" stroke-linecap="round"/>
  <path d="M74.1736 61.8496C74.1736 68.4925 72.714 74.4504 72.714 81.0679C72.714 84.1112 72.2275 87.1612 72.2275 90.3121C72.2275 91.9256 71.2588 98.6147 72.3356 99.6915C74.055 101.411 84.0706 94.8482 85.364 93.2314C88.291 89.5726 93.0476 86.2271 97.0409 84.2304" stroke="black" stroke-width="3" stroke-linecap="round"/>
  <path d="M82.9314 71.5801C82.9314 73.5606 82.8122 77.9324 81.5799 79.4728C81.0412 80.1462 80.2362 82.6138 80.0392 83.5003C79.7691 84.7158 78.8519 85.6804 78.5796 86.9061C78.3642 87.8751 78.1064 89.1666 77.4713 89.9604C76.83 90.7621 77.0548 92.9209 76.3631 93.4743C75.9369 93.8153 75.5574 96.1994 75.2549 96.8801C74.7503 98.0154 74.2472 99.1657 73.6871 100.286" stroke="black" stroke-width="3" stroke-linecap="round"/>
  <path d="M82.8823 60.017C81.4102 61.9421 79.7819 63.9007 78.8349 66.1632C78.048 68.0429 76.1365 70.5492 76.1365 72.6279C76.1365 73.275 77.1534 71.8251 77.6918 71.4662C79.5274 70.2424 81.3702 68.8416 82.976 67.325C86.3879 64.1026 89.617 60.7027 92.9261 57.3937C94.5949 55.7249 90.3339 61.3447 88.8786 63.2025C86.505 66.2327 84.4432 69.4348 82.189 72.5343C80.2819 75.1566 78.6117 78.022 76.8111 80.7229C75.9689 81.9862 74.4501 83.6899 74.4501 85.3138" stroke="black" stroke-width="3" stroke-linecap="round"/>
  <path d="M95.6993 60.6907C98.1391 58.2509 100.114 55.4008 102.445 52.933C103.681 51.6244 105.801 48.679 104.806 52.4083C103.669 56.6732 107.316 53.1216 108.723 51.715C111.376 49.0617 114.047 46.2664 116.93 43.8636C117.629 43.2809 116.949 44.9383 116.949 45.1753" stroke="black" stroke-width="3" stroke-linecap="round"/>
  <path d="M2.08734 86.6918C3.63019 86.732 5.86234 87.9715 7.56467 88.3012C11.8679 89.1346 16.1876 90.2116 20.6093 89.9783C25.0625 89.7433 27.7648 86.5643 31.6291 85.7567C34.4873 85.1594 34.8346 76.7495 33.677 74.5174C32.4549 72.161 27.3462 70.1835 25.7744 73.6628C23.9534 77.6938 22.5615 80.1451 24.7782 84.72C26.2323 87.7212 28.7438 90.6377 32.4627 89.7189C43.7662 86.9262 53.366 82.6547 60.9802 73.4142" stroke="black" stroke-width="3" stroke-linecap="round"/>
</svg>