<svg width="172" height="146" viewBox="0 0 172 146" fill="none" xmlns="http://www.w3.org/2000/svg">
<g id="Group 34433">
<path id="Vector 2189" d="M2 30.2699C2.3507 30.2261 3.23673 29.5301 3.46563 29.244C3.68147 28.9742 5.77325 29.5558 6.03862 29.7488C7.25159 30.631 6.99736 32.685 8.00907 33.4943C9.15845 34.4138 10.2466 37.0992 10.9566 38.4775C12.0553 40.6102 12.9648 42.913 14.1647 45.0728C17.5473 51.1614 20.0606 58.1476 23.5447 64.4191C25.092 67.2042 26.4654 69.9836 27.8602 72.7731C29.3223 75.6975 31.0729 78.5362 32.4199 81.5669C33.8357 84.7525 35.0593 87.6416 36.6539 90.6538C37.4099 92.0818 38.2844 93.4445 38.771 94.9041C39.122 95.9573 35.7661 96.9986 35.1883 97.4608C34.6269 97.9099 33.901 98.2714 33.6738 97.2491C33.5177 96.5467 32.8625 95.7257 32.7782 95.0507C32.626 93.8337 31.3231 92.4147 30.7263 91.3703C29.7664 89.6905 28.7286 87.9938 27.8602 86.2569C27.175 84.8866 27.1914 83.2944 26.476 82.0066C26.0788 81.2916 26.1332 79.856 25.678 79.287C25.3003 78.8149 24.8993 77.7732 24.8638 77.17C24.7919 75.9483 23.3075 73.7824 22.6653 72.6266C21.9342 71.3104 21.2955 70.0208 20.6949 68.6694C19.9325 66.954 18.6208 65.4936 17.9753 63.6862C17.6534 62.7848 16.5991 60.4162 15.9235 59.8756C15.4399 59.4888 15.3639 58.2601 14.9627 57.7586C14.813 57.5715 14.3227 55.83 14.3113 55.5439C14.2744 54.6225 13.0938 51.339 12.406 50.7887C11.0873 49.7338 10.9388 47.3745 9.84925 46.1639C9.17182 45.4112 7.86613 43.4 7.58567 42.4184C7.2314 41.1784 5.96495 40.0823 5.81063 38.7706C5.64708 37.3804 4.70203 35.8431 4.32872 34.5366C3.93273 33.1506 3.21922 31.5359 2.58625 30.2699" stroke="black" stroke-width="3" stroke-linecap="round"/>
<path id="Vector 2190" d="M34.2437 98.8614C36.4488 100.822 37.9666 103.241 40.5621 104.724C41.5246 105.274 41.6642 104.565 41.2135 103.551C40.861 102.758 40.6924 101.644 40.6924 100.767C40.6924 98.8421 39.5199 96.967 39.5199 95.0508" stroke="black" stroke-width="3" stroke-linecap="round"/>
<path id="Vector 2191" d="M40.1062 103.552C39.9028 103.371 38.9663 102.853 38.9663 102.526C38.9663 102.422 40.1062 101.911 40.1062 102.672" stroke="black" stroke-width="3" stroke-linecap="round"/>
<path id="Vector 2192" d="M170.254 35.5459C170.254 31.1595 169.376 27.5605 166.737 24.2606C166.158 23.5374 165.614 22.7361 164.978 22.0622C164.097 21.1297 163.027 20.7685 162.112 19.9451C160.185 18.2108 157.481 19.1537 155.305 18.1864C154.325 17.7512 153.207 18.063 152.227 17.5187C151.542 17.138 149.793 17.079 149.002 17.079C146.237 17.079 142.876 16.776 140.209 16.1834C138.211 15.7394 135.872 14.8497 133.907 14.734C133.374 14.7027 131.315 13.921 130.91 13.6267C130.438 13.2831 128.528 12.9972 127.979 12.9753C126.922 12.933 125.046 13.3618 124.087 12.8287C123.285 12.3832 121.255 13.209 120.716 12.5356C120.355 12.0839 118.391 12.166 117.785 11.9493C116.728 11.5721 115.768 11.1515 114.707 10.7605C112.717 10.0273 110.523 9.57543 108.405 9.45776C105.11 9.27471 101.732 7.87236 98.4383 7.69901C94.1947 7.47566 89.9249 6.46003 85.9968 5.33772C80.515 3.77149 74.2361 2.42944 68.5396 2.12963C63.7982 1.88008 59.6638 1.66758 55.7886 4.76775C54.1664 6.06549 53.905 7.81846 52.7759 9.22977C51.9082 10.3144 50.952 13.3368 50.952 14.734C50.952 15.5923 50.4744 16.6307 50.3495 17.5676C50.1791 18.8455 50.11 20.3926 49.7632 21.6062C49.2551 23.3847 48.5428 25.1449 48.0371 26.915C46.861 31.0313 46.262 35.5895 46.262 39.9428C46.262 42.1344 46.4516 44.4391 45.9852 46.5381C45.7679 47.5159 45.9689 48.7594 45.9689 49.7625C45.9689 50.7164 45.3826 51.9629 45.3826 52.9869C45.3826 53.9892 45.5616 55.1491 45.1547 56.0647C44.9282 56.5743 45.1827 57.1658 44.943 57.6932C44.5963 58.4559 44.2519 59.6256 44.2101 60.4616C44.1543 61.5779 43.6834 62.6143 43.6239 63.686C43.5738 64.5876 43.3407 66.0818 42.9725 66.9103C42.1312 68.8033 42.4236 71.0918 41.7186 73.066C41.0166 75.0314 40.5251 77.1177 40.0901 79.075C39.6665 80.9813 39.4944 83.3101 38.7059 85.0841C38.4208 85.7255 38.0545 87.3509 38.0545 88.0154C38.0545 89.3494 37.4683 90.6985 37.4683 92.1191" stroke="black" stroke-width="3" stroke-linecap="round"/>
<path id="Vector 2193" d="M35.123 100.914C35.123 102.709 34.7266 104.283 34.5368 105.897C34.4502 106.633 33.6991 107.24 33.6574 107.949C33.6079 108.79 33.3643 109.393 33.3643 110.294" stroke="black" stroke-width="3" stroke-linecap="round"/>
<path id="Vector 2194" d="M148.562 32.0273C150.451 32.2372 152.181 33.0851 154.132 33.1998C155.791 33.2974 157.695 33.8889 159.408 34.0792C163.014 34.4798 166.648 36.4242 170.254 36.4242" stroke="black" stroke-width="3" stroke-linecap="round"/>
<path id="Vector 2195" d="M159.702 20.0098C158.202 20.0098 156.156 19.7324 154.865 20.4495C153.293 21.3227 152.14 22.5895 150.973 23.8856C150.03 24.933 149.983 27.14 149.003 27.9242C148.49 28.3339 147.684 32.0517 147.684 32.7608C147.684 34.2171 146.804 35.8611 146.804 37.3042C146.804 39.063 146.023 40.7467 145.648 42.4339C145.204 44.4301 145.063 46.8637 144.231 48.7361C143.869 49.5516 144.01 50.5536 143.645 51.3743C143.344 52.0512 143.968 53.3804 143.515 53.9472C143.086 54.483 143.287 55.5145 143.287 56.2108C143.287 56.8185 142.881 57.7032 142.717 58.279C142.266 59.8568 141.912 61.7499 141.821 63.3924C141.804 63.6994 141.577 65.5811 141.381 65.7374C140.748 66.2442 141.719 67.8711 141.088 68.3755C140.822 68.5883 140.769 70.2243 140.665 70.5903C140.444 71.3623 140.558 72.1367 140.339 72.9027C139.944 74.285 139.589 75.6891 139.248 77.1367C139.004 78.1748 138.89 79.1731 138.89 80.2471C138.89 81.0356 138.304 81.8729 138.304 82.5921C138.304 86.3638 137.277 90.0169 137.131 93.8123C137.065 95.5376 135.959 97.1932 135.959 99.0071C135.959 100.677 135.173 102.153 135.079 103.844C134.993 105.387 134.338 107.245 133.923 108.697C133.339 110.742 132.663 112.645 132.148 114.706C131.648 116.705 130.606 118.492 130.389 120.552C130.185 122.487 129.869 124.396 129.526 126.284C129.184 128.166 128.74 130.009 128.63 131.984C128.583 132.837 128.044 133.47 128.044 134.329C128.044 134.636 127.862 136.388 127.686 136.609C127.253 137.15 127.085 137.946 126.579 138.579C126.104 139.172 125.586 139.746 125.113 140.338C124.343 141.3 122.812 142.758 121.595 142.829C118.29 143.024 114.53 143.789 111.483 142.097C108.607 140.499 107.257 138.594 106.337 135.371C105.882 133.782 105.767 132.323 105.767 130.518C105.767 128.88 106.646 127.383 106.646 125.828" stroke="black" stroke-width="3" stroke-linecap="round"/>
<path id="Vector 2196" d="M21.0532 110C22.6529 110 24.1188 110.586 25.7432 110.586C27.5848 110.586 29.2328 110.774 31.0195 110.879C31.4131 110.903 31.8647 111.366 32.3223 111.449C32.7492 111.527 33.2526 111.351 33.6576 111.531C34.4733 111.893 35.6859 112.052 36.5889 112.052C37.5175 112.052 38.3295 112.345 39.2921 112.345C40.1566 112.345 41.7285 112.411 42.5817 112.654C45.9306 113.611 49.4727 114.834 52.8573 115.586C56.4602 116.386 60.1141 117.48 63.7844 117.621C67.7333 117.773 71.6482 119.087 75.5094 119.087C79.2642 119.087 82.4121 121.725 86.2899 121.725C88.2533 121.725 90.1613 122.431 92.1524 122.621C94.0152 122.798 95.6231 123.777 97.4124 123.777C98.0662 123.777 98.8105 124.363 99.4643 124.363C99.9633 124.363 101.242 124.515 101.793 124.673C103.294 125.101 104.742 125.829 106.353 125.829" stroke="black" stroke-width="3" stroke-linecap="round"/>
<path id="Vector 2197" d="M20.7603 110.586C20.7603 112.953 20.7603 115.319 20.7603 117.686C20.7603 120.148 21.5254 121.19 22.5841 123.19C23.435 124.797 25.416 127.083 27.209 127.294C29.5249 127.567 31.8852 128.629 34.244 128.76C38.6717 129.006 42.3115 131.398 46.8484 131.398C48.9257 131.398 51.1505 132.277 53.2972 132.277C55.4475 132.277 57.6496 133.45 59.8925 133.45C60.9734 133.45 62.0306 134.071 63.1169 134.313C63.969 134.502 66.4924 134.628 67.0741 135.355C67.423 135.791 69.5194 136.236 70.1356 136.381C71.3476 136.666 72.4514 136.973 73.6694 137.244C75.9871 137.759 78.6152 138.726 80.9975 138.726C83.1084 138.726 85.4209 139.898 87.4463 139.898C89.6207 139.898 91.9604 140.497 93.9113 141.055C95.0363 141.376 96.3508 141.333 97.4288 141.641C98.537 141.958 99.8372 141.608 100.914 142.097C101.968 142.576 103.598 142.266 104.741 142.52C105.429 142.673 107.697 142.459 108.112 142.976C108.281 143.189 111.117 143.416 111.483 143.416C112.778 143.416 113.918 144.002 115.147 144.002" stroke="black" stroke-width="3" stroke-linecap="round"/>
<path id="Vector 2198" d="M64.4355 18.8379C66.8585 18.8379 69.0688 19.576 71.4706 19.7173C73.449 19.8336 75.5272 21.1047 77.5611 21.1829C78.14 21.2052 78.6819 21.6292 79.2384 21.7529C80.4098 22.0132 81.6871 21.9172 82.8536 22.2088C84.0494 22.5078 85.3012 22.3793 86.42 22.8765C88.3384 23.7291 91.0381 22.6126 92.8687 23.5279" stroke="#12C0B5" stroke-width="3" stroke-linecap="round"/>
<path id="Vector 2199" d="M63.8496 22.6484C65.4646 22.6484 67.0564 23.5278 68.6862 23.5278C70.6742 23.5278 72.653 24.5869 74.6952 24.7003C75.3677 24.7377 75.8862 25.2866 76.6006 25.2866C77.1573 25.2866 78.0737 25.4353 78.6362 25.596C79.8548 25.9442 81.4399 26.3248 82.6096 26.8173C83.1158 27.0304 84.6419 26.8009 84.9546 27.1919C85.2662 27.5813 87.1795 27.6316 87.7393 27.6316C89.336 27.6316 91.9316 28.3549 93.4553 29.0321C94.6223 29.5507 96.4274 29.3831 97.7056 29.6672C99.004 29.9557 100.485 29.681 101.663 30.2697" stroke="#12C0B5" stroke-width="3" stroke-linecap="round"/>
<path id="Vector 2200" d="M60.625 37.3047C62.6408 37.3047 64.5597 37.8909 66.6015 37.8909C67.9179 37.8909 69.1381 38.2263 70.4284 38.4609C71.9794 38.7429 73.7312 39.3566 75.2813 39.3566C76.5116 39.3566 77.5936 40.169 78.7988 40.2359C82.0183 40.4148 84.7257 41.9947 88.0159 41.9947C89.2113 41.9947 90.2381 42.2193 91.4032 42.2878C93.2367 42.3957 95.3903 43.3561 97.2657 43.4603C100.023 43.6135 102.752 44.6328 105.62 44.6328C107.692 44.6328 109.698 45.9849 111.629 46.0985C113.623 46.2158 115.541 47.5641 117.638 47.5641C119.688 47.5641 121.836 48.7366 123.94 48.7366" stroke="#12C0B5" stroke-width="3" stroke-linecap="round"/>
<path id="Vector 2201" d="M59.1597 42.5801C62.3501 42.6864 65.4813 43.1218 68.3931 43.7689C70.6493 44.2702 72.949 45.6749 75.2816 45.8045C76.3439 45.8635 77.5152 46.2224 78.5059 46.6187C79.5369 47.0311 81.1387 46.9545 82.1863 47.2538C83.666 47.6766 85.5872 47.3537 87.0066 47.9215C88.2844 48.4326 89.6786 47.8032 90.9475 48.1657C92.9027 48.7244 95.1213 49.322 97.266 49.322C98.1238 49.322 99.0463 49.9082 99.9041 49.9082C100.67 49.9082 102.57 50.1617 103.145 50.641C103.776 51.1672 105.866 50.9113 106.353 51.5204C106.966 52.2866 108.505 51.7475 109.219 52.3184C109.966 52.9159 111.679 52.5817 112.639 52.8558C113.54 53.1132 114.432 53.4257 115.44 53.4257" stroke="#12C0B5" stroke-width="3" stroke-linecap="round"/>
<path id="Vector 2202" d="M57.4009 49.9082C59.3039 49.9082 60.9951 50.7876 62.8237 50.7876C64.0625 50.7876 65.6168 51.1046 66.7809 51.5204C68.0491 51.9733 69.7062 52.2356 71.0312 52.53C71.6786 52.6739 74.3509 52.8487 74.6953 53.2791C74.9361 53.5802 77.7067 53.6891 78.2128 53.7188C79.2892 53.7822 80.548 54.536 81.7303 54.5982C83.1461 54.6727 84.4191 55.4776 85.834 55.4776C86.9456 55.4776 88.4008 55.7052 89.6447 55.7707C90.736 55.8282 92.0451 56.3519 93.0319 56.6338C93.8252 56.8605 94.9922 57.1979 95.8003 57.2363C96.4022 57.265 97.1636 57.0818 97.7056 57.3829C98.3685 57.7511 100.217 58.1157 100.93 58.1157C102.241 58.1157 103.669 58.9951 105.034 58.9951C106.214 58.9951 107.204 59.5107 108.405 59.5813C108.577 59.5915 109.779 59.9064 109.87 60.021C110.248 60.493 111.946 60.1676 112.508 60.1676C113.582 60.1676 115.043 60.2517 116.026 60.6887C117.182 61.2026 118.758 60.6209 119.837 61.3401" stroke="#12C0B5" stroke-width="3" stroke-linecap="round"/>
<path id="Vector 2203" d="M56.228 56.0645C59.2192 56.2219 61.8979 57.6742 64.7287 57.8232C65.5438 57.8661 66.3916 58.5347 67.2202 58.7189C67.7388 58.8341 68.3469 59.0079 68.8324 59.2237C70.1103 59.7916 71.8473 59.701 73.2293 59.9402C75.4486 60.3243 78.2278 60.3704 80.2643 61.2756C81.2167 61.6989 82.5615 61.2869 83.4887 61.699C84.3536 62.0834 85.7717 62.4609 86.7131 62.5132C91.6693 62.7886 96.6077 64.8705 101.662 65.1513C102.822 65.2158 104.008 65.1817 105.115 65.5096C105.803 65.7136 107.865 65.7169 108.339 66.0959C109.091 66.6974 110.356 65.9503 111.108 66.5518C111.492 66.859 113.446 66.9101 113.974 66.9101" stroke="#12C0B5" stroke-width="3" stroke-linecap="round"/>
<path id="Vector 2204" d="M54.1763 63.9785C59.6896 63.9785 64.8063 66.4079 70.233 66.6166C72.9791 66.7223 75.6241 68.0823 78.4405 68.0823C79.0674 68.0823 79.5443 68.2984 80.1504 68.3917C81.4831 68.5967 82.8417 68.4825 84.1565 68.6848C84.9685 68.8097 86.686 68.9791 87.446 69.4013C88.3338 69.8946 89.1899 69.9126 90.1981 70.069C90.8976 70.1776 91.593 70.6821 92.2826 70.7204C93.275 70.7755 95.0925 70.9787 95.9466 71.4532C96.6164 71.8253 98.3386 71.864 99.0896 71.8929C100.303 71.9396 101.46 72.4792 102.689 72.4792C104.94 72.4792 107.404 73.3585 109.724 73.3585C111.87 73.3585 113.942 74.2379 116.026 74.2379" stroke="#12C0B5" stroke-width="3" stroke-linecap="round"/>
</g>
</svg>
