<svg width="196" height="135" viewBox="0 0 196 135" fill="none" xmlns="http://www.w3.org/2000/svg">
<g id="Group 88412">
<g id="Group 88411">
<path id="Subtract" fill-rule="evenodd" clip-rule="evenodd" d="M115.024 8.85306C114.244 8.07343 112.554 6.73864 110.921 5.74249C110.108 5.24623 109.22 4.779 108.411 4.52214C108.01 4.39488 107.538 4.28936 107.056 4.30653C106.561 4.32419 105.92 4.48238 105.429 5.02803C104.326 6.25267 103.629 7.29441 103.174 8.27787C102.715 9.26768 102.535 10.1282 102.396 10.8961C102.377 11.0025 102.359 11.1061 102.341 11.2075C102.228 11.8443 102.131 12.3979 101.914 13.0563C101.668 13.8009 101.258 14.7071 100.464 15.8972L100.402 15.9909L100.354 16.093C99.7946 17.2871 98.7097 18.9329 97.4917 20.7196C97.3151 20.9787 97.1358 21.2406 96.9559 21.5034L96.9558 21.5035C95.9382 22.9898 94.8991 24.5074 94.1983 25.7338C92.9945 27.8404 91.499 29.8588 89.9313 31.9747L89.9303 31.9759C89.6412 32.3662 89.3495 32.7598 89.0568 33.1579C87.2082 35.672 85.3378 38.3395 84.0361 41.2683C83.0674 43.448 81.6191 45.4184 80.0159 47.4892C79.8381 47.7189 79.658 47.9501 79.4766 48.1831L79.4764 48.1834C78.0571 50.0066 76.5541 51.9373 75.3821 54.0467C73.3737 57.6619 71.2866 61.0264 68.7568 63.8725C66.453 66.4643 64.3515 69.2989 62.2956 72.0721L62.2954 72.0724C61.537 73.0954 60.7848 74.1101 60.0309 75.1011C57.1966 78.8269 54.2819 82.3027 50.7104 85.0805C49.4381 86.0701 48.1574 87.2198 46.921 88.3299C46.5455 88.667 46.1741 89.0004 45.8082 89.3246C44.1978 90.7516 42.6695 92.0238 41.1652 92.9086C40.9926 93.0102 40.7207 93.152 40.3534 93.3436C40.0344 93.5099 39.6433 93.7139 39.1827 93.9617C38.2585 94.4588 37.1528 95.0832 36.1846 95.751C35.2854 96.3712 34.249 97.1958 33.7452 98.1483C33.468 98.6722 33.2612 99.4117 33.5485 100.207C33.8258 100.975 34.4433 101.455 35.0433 101.755C38.3523 103.409 41.6604 105.212 45.0112 107.038L45.0117 107.038L45.0445 107.056C48.3985 108.884 51.7947 110.734 55.231 112.453C56.7732 113.224 58.273 114.155 59.8523 115.136C60.2727 115.397 60.6988 115.662 61.1329 115.928C63.1556 117.168 65.314 118.412 67.6444 119.251C68.243 119.467 68.8934 119.836 69.628 120.3C69.8208 120.421 70.0254 120.554 70.2364 120.69C70.7678 121.034 71.3397 121.403 71.867 121.696C72.5732 122.089 73.43 122.469 74.2244 122.821C74.4592 122.925 74.6886 123.027 74.907 123.126C75.9421 123.595 76.7707 124.016 77.3092 124.447C78.6611 125.528 80.9556 126.805 83.2551 127.849C85.5408 128.887 88.0619 129.799 89.8795 130.026C90.4839 130.102 91.145 130.419 92.0758 130.929C92.1136 130.95 92.1519 130.971 92.1908 130.992C92.2318 131.015 92.2734 131.038 92.3156 131.061L92.3157 131.061C93.1127 131.501 94.1178 132.057 95.18 132.322L95.2764 132.346C97.6494 132.94 99.8349 133.486 101.88 134.395C102.58 134.706 103.276 134.68 103.84 134.556C104.39 134.434 104.9 134.202 105.312 133.99C105.573 133.855 105.867 133.689 106.118 133.547C106.239 133.478 106.35 133.415 106.443 133.365C106.79 133.174 106.999 133.08 107.128 133.043C108.68 132.599 110.237 131.68 111.619 130.724C112.722 129.962 113.801 129.114 114.74 128.376L114.74 128.376C114.985 128.183 115.221 127.998 115.445 127.824C116.257 127.192 117.209 126.667 118.289 126.089L118.486 125.983C119.478 125.452 120.574 124.866 121.57 124.146C122.877 123.202 124.294 122.026 125.707 120.852C126.381 120.292 127.054 119.732 127.714 119.199C129.676 117.615 131.574 116.217 133.354 115.349C133.036 115.292 132.719 115.229 132.401 115.16C131.502 114.965 130.68 114.666 129.832 114.358C129.686 114.305 129.54 114.252 129.392 114.199C128.173 115.015 126.976 115.94 125.829 116.865C125.089 117.463 124.374 118.058 123.681 118.634L123.68 118.634C122.318 119.767 121.039 120.829 119.814 121.714C118.987 122.311 118.056 122.81 117.019 123.365L116.871 123.444C115.813 124.012 114.644 124.646 113.603 125.456C113.355 125.649 113.103 125.847 112.847 126.048L112.847 126.048C111.915 126.78 110.933 127.552 109.914 128.256C108.607 129.159 107.376 129.852 106.304 130.158C105.823 130.296 105.358 130.538 104.998 130.735C104.833 130.826 104.69 130.907 104.556 130.984L104.555 130.984C104.344 131.104 104.155 131.211 103.938 131.323C103.605 131.494 103.367 131.588 103.195 131.626C103.131 131.64 103.093 131.643 103.074 131.643C100.795 130.633 98.397 130.034 96.1107 129.463L95.9076 129.412C95.2449 129.246 94.5816 128.882 93.6988 128.397L93.5176 128.298C92.6436 127.819 91.5052 127.206 90.2516 127.049C88.9035 126.881 86.7234 126.129 84.4951 125.117C82.2806 124.112 80.2483 122.956 79.1833 122.104C78.3148 121.409 77.1616 120.854 76.1447 120.393C75.8688 120.268 75.6018 120.15 75.3443 120.035C74.5806 119.696 73.9013 119.395 73.3239 119.074C72.888 118.832 72.4545 118.551 71.965 118.235C71.7341 118.085 71.4908 117.928 71.2288 117.763C70.4674 117.282 69.5854 116.762 68.6605 116.429C66.6381 115.701 64.7004 114.596 62.7006 113.37C62.3042 113.127 61.9035 112.878 61.499 112.627L61.4971 112.625L61.497 112.625C59.9037 111.635 58.2513 110.609 56.5726 109.769C53.1916 108.079 49.8417 106.254 46.4801 104.422L46.4226 104.391L46.422 104.39C43.1804 102.624 39.9268 100.851 36.6644 99.2116C36.9089 98.9578 37.3079 98.6206 37.8879 98.2206C38.7178 97.6482 39.7075 97.0859 40.6039 96.6037C40.9459 96.4197 41.2961 96.2364 41.6159 96.069L41.6163 96.0688C42.0716 95.8305 42.4653 95.6244 42.6863 95.4945C44.4635 94.449 46.1799 93.0035 47.7978 91.57C48.1991 91.2144 48.5934 90.8604 48.9828 90.5109L48.983 90.5107C50.2019 89.4167 51.3717 88.3667 52.5523 87.4485C56.441 84.424 59.5462 80.6933 62.4185 76.9175C63.2229 75.8601 64.0051 74.805 64.7804 73.7592L64.7806 73.7589L64.7807 73.7588C66.8091 71.0228 68.7904 68.3502 70.999 65.8656C73.75 62.7707 75.9638 59.1771 78.0046 55.5037C79.0561 53.6111 80.4081 51.8726 81.8446 50.0255C82.0246 49.7941 82.2058 49.5611 82.388 49.3258C83.9902 47.2563 85.6462 45.0323 86.7776 42.4867C87.9354 39.8817 89.6308 37.4414 91.4737 34.9351C91.7514 34.5575 92.033 34.1776 92.3165 33.7953L92.318 33.7933L92.3181 33.7932C93.8834 31.6819 95.5028 29.4976 96.8031 27.2222C97.4375 26.1119 98.3915 24.7179 99.4152 23.222C99.5985 22.9541 99.7841 22.6829 99.9705 22.4095C101.127 20.7128 102.331 18.9068 103.022 17.4689C103.91 16.1218 104.431 15.0018 104.763 13.9951C105.052 13.1172 105.188 12.3442 105.299 11.7085C105.316 11.6122 105.332 11.5191 105.349 11.4292C105.473 10.7393 105.599 10.1784 105.896 9.53907C106.165 8.95808 106.602 8.2562 107.384 7.34651C107.419 7.35592 107.459 7.36745 107.504 7.38156C107.972 7.53032 108.619 7.85228 109.359 8.30349C110.832 9.20227 112.323 10.3955 112.902 10.9744C114.25 12.3225 116.197 12.9221 117.721 13.3848L117.869 13.4296C119.5 13.9242 120.729 14.2971 121.567 14.9673C122.746 15.9104 124.423 16.7662 126.045 17.481C127.694 18.2078 129.404 18.839 130.713 19.3065C137.781 21.8308 144.684 25.1253 151.711 28.4786L151.798 28.52C158.83 31.8759 165.983 35.2862 173.418 37.9413C174.208 38.2237 176.821 39.3971 179.273 40.5635C180.309 41.0561 181.29 41.535 182.06 41.9272C181.778 42.3189 181.521 42.7331 181.285 43.1528C180.695 44.202 180.183 45.3858 179.728 46.5472C179.393 47.4008 179.077 48.2765 178.781 49.0936L178.781 49.0938C178.676 49.3839 178.574 49.6666 178.475 49.9383C178.084 51.0054 177.74 51.895 177.412 52.5515C174.496 58.3822 171.253 64.0151 167.978 69.7022L167.974 69.7093C167.194 71.0644 166.411 72.4226 165.632 73.7873C164.996 74.8996 164.25 75.9509 163.45 77.0787C163.37 77.1912 163.29 77.3045 163.209 77.4188C163.723 78.7504 163.976 80.0889 164.099 81.4531C164.487 80.8332 164.908 80.2172 165.349 79.5894C165.518 79.3493 165.69 79.1061 165.865 78.8598L165.865 78.8594C166.67 77.726 167.521 76.5282 168.236 75.2757C169.006 73.9293 169.781 72.583 170.557 71.2348L170.559 71.2318C173.838 65.5387 177.136 59.8107 180.095 53.8931C180.509 53.0657 180.905 52.027 181.292 50.969C181.399 50.6751 181.507 50.3785 181.615 50.0802L181.615 50.0795C181.906 49.2737 182.202 48.4551 182.521 47.642C182.956 46.5323 183.41 45.4956 183.9 44.6227C184.399 43.7354 184.884 43.1129 185.341 42.7469C185.738 42.4294 185.943 41.9416 185.905 41.4495C185.876 41.0689 185.713 40.8062 185.648 40.7096C185.509 40.5029 185.347 40.37 185.298 40.3302L185.297 40.3294C185.16 40.2178 185.002 40.1173 184.879 40.0428C184.611 39.8798 184.238 39.6771 183.815 39.4568C182.958 39.0106 181.785 38.4361 180.562 37.8542C178.146 36.7055 175.388 35.4595 174.427 35.116C167.161 32.521 160.144 29.179 153.09 25.8125L152.933 25.7379C145.955 22.4077 138.935 19.0574 131.722 16.4813C130.431 16.0203 128.803 15.4181 127.255 14.7358C125.68 14.0416 124.301 13.3127 123.441 12.6247C122.131 11.5768 120.365 11.0467 118.94 10.6189C118.822 10.5833 118.706 10.5485 118.593 10.5141C116.936 10.0113 115.753 9.58237 115.024 8.85306ZM36.251 98.9914C36.2512 98.9914 36.253 98.9928 36.2561 98.9957C36.2525 98.9929 36.2509 98.9915 36.251 98.9914Z" fill="black"/>
<path id="Vector 2570" d="M161.092 104.533C162.289 104.683 164.266 105.869 165.257 106.662C166.53 107.68 168.334 108.479 169.833 109.322C172.664 110.914 175.145 113.262 178.057 114.718C178.618 114.999 179.327 115.303 179.759 115.691C181.023 116.829 183.026 117.562 184.472 118.428C184.759 118.6 186.109 119.803 186.539 119.856C187.68 119.999 188.75 121.214 189.959 121.483C191.213 121.762 191.748 120.933 192.422 119.72C192.776 119.083 194.151 116.785 193.593 116.087C192.924 115.251 192.605 114.185 191.677 113.35C190.551 112.336 189.219 111.493 188.044 110.553C185.484 108.505 182.166 107.274 179.698 105.081C178.704 104.196 177.019 103.562 175.868 102.952C174.531 102.245 173.319 101.333 171.9 100.703C169.244 99.5222 167.276 97.3462 164.923 95.7773" stroke="black" stroke-width="3" stroke-linecap="round"/>
<path id="Vector 2571" d="M127.591 66.2366C129.995 65.1679 131.669 64.0273 134.469 64.0273H138.649C140.272 64.0273 141.023 64.9393 142.465 65.383C143.255 65.6258 145.473 66.654 145.993 67.3035C146.767 68.2722 148.754 68.5979 149.721 69.3495C151.755 70.9315 152.7 72.9899 154.252 74.9855C155.976 77.2016 156.612 80.316 156.612 83.1195C156.612 85.934 156.386 88.8529 156.386 91.5923C156.386 92.8485 155.772 93.8498 155.206 94.9814C154.556 96.281 154.173 97.5225 153.323 98.7722C152.682 99.7147 151.967 100.655 151.139 101.484C150.168 102.455 148.992 103.055 147.976 103.969C147.582 104.323 147.009 104.559 146.557 104.81C144.646 105.872 142.11 106.282 139.967 106.68C138.439 106.965 136.31 106.886 134.821 106.555C133.821 106.333 132.956 106.492 131.984 106.103C131.413 105.874 130.456 105.525 129.838 105.387C128.508 105.092 127.583 104.117 126.298 103.668C123.413 102.658 120.7 101.346 118.528 99.1739C116.5 97.1463 115.875 94.3982 115.277 91.7053C114.738 89.2819 114.105 86.3314 114.825 83.8098C115.547 81.2814 115.456 78.4302 116.67 76.0023C117.905 73.532 119.346 71.849 121.315 70.0776C122.158 69.3182 123.309 68.641 124.302 68.1445C125.491 67.5501 126.481 66.7296 127.591 66.2366Z" stroke="black" stroke-width="3" stroke-linecap="round"/>
<path id="Vector 2572" d="M111.162 23.4434C114.179 23.4434 116.709 24.96 119.369 26.1426C120.411 26.6056 121.76 26.838 122.816 27.0727C123.994 27.3344 124.939 28.183 125.935 28.7689C126.927 29.3524 127.648 30.6626 128.744 30.9757C129.781 31.272 131.923 31.63 132.756 32.38C133.397 32.9571 134.733 33.3903 135.601 33.6384C136.438 33.8777 137.134 34.9333 138.082 34.9333" stroke="black" stroke-width="3" stroke-linecap="round"/>
<path id="Vector 2573" d="M105.581 30.9928C107.003 30.9928 110.537 30.2939 111.49 31.4852C112.406 32.6298 114.143 33.1717 115.174 34.2027C116.981 36.0098 119.484 36.0045 121.667 36.9748C122.772 37.4657 123.958 37.6116 125.114 37.8685C126.016 38.069 127.083 38.8379 127.904 39.2728C129.826 40.2902 131.714 40.9405 133.485 41.8262" stroke="black" stroke-width="3" stroke-linecap="round"/>
<path id="Vector 2574" d="M96.0605 48.7207C98.3639 49.0086 100.023 50.2578 102.116 51.0187C103.834 51.6435 105.314 53.7612 107.222 53.9733C109.253 54.199 110.545 56.5996 112.639 56.5996C114.193 56.5996 115.45 58.8976 117.071 58.8976" stroke="black" stroke-width="3" stroke-linecap="round"/>
<path id="Vector 2575" d="M89.8232 58.5703C91.5098 58.5703 92.4891 59.5727 93.9268 60.2117C95.146 60.7536 97.153 61.2489 98.0304 62.3456C98.3604 62.7582 99.9578 62.7131 100.584 63.1663C101.907 64.1247 102.485 65.2193 103.94 65.8655C104.893 66.2892 107.473 66.9506 107.879 67.7623" stroke="black" stroke-width="3" stroke-linecap="round"/>
<path id="Vector 2576" d="M83.585 67.4336C84.4195 67.5379 85.2994 67.9127 86.1018 68.1266C88.2213 68.6918 90.0277 68.8238 91.7556 70.1328C92.963 71.0475 94.0324 71.3296 95.2573 72.0296C96.0126 72.4612 96.558 72.8895 96.9717 73.671C97.5605 74.7831 99.3377 75.3084 100.255 76.042C101.516 77.0512 103.765 77.6777 104.595 78.9236" stroke="black" stroke-width="3" stroke-linecap="round"/>
<path id="Vector 2577" d="M127.498 72.6242C130.436 70.2205 129.766 75.6174 131.146 76.0117C132.858 76.5009 134.273 75.3313 134.273 77.5752" stroke="black" stroke-width="3" stroke-linecap="round"/>
<path id="Vector 2578" d="M126.196 77.3145C126.196 78.4817 122.662 83.5149 121.825 82.4681C121.387 81.9208 124.405 82.2654 124.894 82.2654" stroke="black" stroke-width="3" stroke-linecap="round"/>
<path id="Vector 2579" d="M131.407 80.1816C131.407 81.7396 129.918 82.0996 129.626 83.4099C129.558 83.7172 130.526 83.6788 130.611 83.9745C130.7 84.287 130.738 84.6496 131.016 84.872C131.541 85.2916 134.43 87.6852 135.055 86.4355" stroke="black" stroke-width="3" stroke-linecap="round"/>
<path id="Vector 2580" d="M143.394 81.2227C144.256 82.1921 142.57 83.5844 142.149 84.3496C141.784 85.0137 142.069 86.313 141.831 87.0856C141.441 88.3516 140.011 91.6457 138.443 91.6457" stroke="black" stroke-width="3" stroke-linecap="round"/>
<path id="Vector 2569" d="M123.059 59.334C125.657 58.7564 127.852 56.6191 130.548 56.6191H139.634C141.107 56.6191 142.722 56.9549 144.054 57.5468C145.601 58.2345 146.811 58.5845 148.283 59.5659C149.553 60.4126 151.606 61.2248 152.703 62.2125C153.891 63.2817 155.377 63.8766 156.523 65.0228C157.324 65.8232 159.393 67.8439 159.525 68.8973C159.68 70.1395 161.138 71.3991 161.244 72.7717C161.327 73.8561 162.496 75.5828 162.963 76.6325C164.371 79.8025 164.19 82.9966 164.19 86.4687C164.19 90.2625 163.882 93.4717 162.772 97.0824C162.057 99.4049 161.094 101.861 159.961 104.013C159.103 105.643 157.633 106.591 156.332 107.833C153.025 110.989 148.658 112.138 144.654 113.958C140.757 115.73 136.558 115.846 132.39 114.94C131.315 114.707 130.35 114.326 129.32 113.958C128.828 113.782 127.682 113.629 127.356 113.221C127.057 112.848 125.765 112.583 125.269 112.362C122.314 111.049 119.008 110.085 116.428 108.078C113.838 106.064 110.072 103.8 108.693 100.698C108.172 99.5246 106.974 97.8371 106.974 96.5231C106.974 95.8207 106.483 95.1494 106.483 94.4358V91.1889C106.483 86.5004 106.208 81.9247 107.411 77.3828C108.228 74.2938 109.485 71.5484 111.026 68.7745C112.577 65.9823 114.981 63.8231 117.643 62.0488C119.151 61.0433 121.284 59.7282 123.059 59.334Z" stroke="black" stroke-width="3" stroke-linecap="round"/>
</g>
<path id="Vector 2582" d="M165.042 3.74142C165.042 7.14466 164.612 9.74244 163.881 13.029C163.422 15.0951 162.134 16.5088 161.108 18.2532C160.339 19.5603 161.943 18.4235 162.978 18.2855C166.227 17.8523 170.144 21.8869 172.524 23.413C173.46 24.0131 176.071 24.7086 176.071 26.0896C176.071 27.3051 176.05 23.2894 176.071 22.768C176.196 19.7117 178.082 11.7785 180.973 10.1266C183.18 8.86545 181.31 8.96567 179.844 8.96567C176.212 8.96567 167.945 6.61334 167.945 2" stroke="#12C0B5" stroke-width="3" stroke-linecap="round"/>
<path id="Vector 2583" d="M23.9876 61.2074C21.3319 64.1951 19.2539 67.6247 15.2805 69.0438C12.5445 70.0209 10.1007 69.9145 7.18612 69.9145C6.00205 69.9145 -0.0304283 70.0323 3.67103 70.495C6.4255 70.8393 10.8089 75.6121 12.0556 78.1056C13.7433 81.481 14.67 87.4068 13.2488 91.1018C12.8817 92.0564 12.5646 93.0198 12.3459 94.0041C12.1751 94.7727 10.2605 96.2314 10.9914 95.939C11.8881 95.5804 11.9224 94.1586 12.7006 93.7139C14.3337 92.7807 15.3843 91.3087 16.8929 90.2311C19.8978 88.0847 22.4339 85.3097 25.471 83.0719C27.1748 81.8165 29.0597 80.8181 30.7598 79.5246C32.7096 78.041 39.4983 75.7192 37.0482 75.7192C29.0603 75.7192 27.4704 66.975 27.4704 60.627" stroke="#12C0B5" stroke-width="3" stroke-linecap="round"/>
</g>
</svg>
