<svg width="52" height="52" viewBox="0 0 52 52" fill="none" xmlns="http://www.w3.org/2000/svg">
<path d="M17.3908 14.1433C17.2708 14.154 17.0812 24.2629 17.0812 25.028C17.0812 28.114 17.0812 31.2 17.0812 34.2861C17.0812 34.9793 16.8876 35.813 17.0984 36.4875C17.4323 37.5558 17.8942 36.7279 18.3198 36.0472C19.0589 34.8648 20.9337 34.0114 21.7947 32.8552C22.0679 32.4882 25.1377 29.6631 25.1492 29.6754C26.1604 30.7537 27.4921 31.7691 28.7789 32.6839C30.134 33.6473 31.5379 34.8961 33.1828 35.5458C33.2996 35.5919 35.2559 36.3755 34.9718 36.5486C34.7308 36.6955 34.731 35.718 34.731 35.6069C34.731 34.653 34.731 33.699 34.731 32.7451C34.731 29.9567 34.731 27.1682 34.731 24.3798C34.731 21.5978 34.4214 18.8554 34.4214 16.1246C34.4214 15.8462 34.2674 14.3917 34.0429 14.1922C33.5907 13.7904 31.1165 14.1433 30.2239 14.1433C25.9462 14.1433 21.6685 14.1433 17.3908 14.1433Z" stroke="#33333A" stroke-width="2" stroke-linecap="round"/>
</svg>
