<svg xmlns="http://www.w3.org/2000/svg" width="189" height="182" viewBox="0 0 189 182" fill="none">
  <path d="M55.3324 111.646C56.2837 111.941 57.2317 112.99 57.8268 113.778C58.4422 114.592 59.3556 115.377 60.1379 116.034C61.128 116.864 62.1498 117.783 62.9289 118.814C63.4727 119.533 64.4345 120.232 64.8333 120.991C65.0839 121.468 65.7536 121.991 66.1654 122.345C66.6492 122.761 66.7954 123.424 67.3128 123.88C68.0977 124.572 68.7553 125.539 69.4501 126.355C70.3374 127.398 71.374 128.398 71.9323 129.666C72.4192 130.772 72.809 131.977 73.3913 133.033C73.8805 133.92 73.7466 135.764 72.9926 136.406C72.7138 136.643 71.6016 136.39 71.2373 136.32C70.4973 136.177 69.9564 135.997 69.2958 135.645C68.788 135.374 68.0981 135.038 67.54 134.93C66.8809 134.803 66.3358 134.36 65.732 134.244C64.3622 133.979 63.3714 132.853 62.0976 132.529C61.684 132.423 60.6587 131.644 60.3457 131.309C59.9169 130.85 59.1562 130.438 58.5996 130.156C57.7535 129.727 56.9541 129.007 56.0227 128.645C55.1449 128.304 54.4176 127.438 53.5162 127.158C52.3438 126.793 51.1237 125.248 50.2561 124.428C49.0742 123.31 47.5918 122.406 46.5876 121.094C46.1412 120.51 45.3398 119.628 44.7627 119.185C44.3565 118.873 43.9583 118.114 43.4801 117.962C43.0717 117.832 42.6554 117.3 42.3114 117.023C41.7079 116.538 41.0373 116.184 40.4752 115.609C39.5115 114.624 38.1271 113.866 37.2392 112.706C36.8299 112.171 36.1946 111.536 35.6942 111.095C35.0265 110.506 34.4507 109.746 33.7789 109.168C32.602 108.157 31.1496 107.508 30.4294 106.027C29.8245 104.783 28.1086 103.544 27.9791 102.066C27.913 101.312 25.2269 95.8713 27.6602 96.3415C28.2488 96.4553 28.7768 95.8823 29.4127 96.0052C30.0049 96.1196 30.6006 96.0659 31.2337 96.1883C31.8844 96.314 32.5352 96.4398 33.1859 96.5655C34.2303 96.7673 36.0643 97.1979 36.9374 97.9655C38.0887 98.9774 39.8268 99.4982 40.8345 100.65C41.557 101.475 43.0007 102.56 44.0318 102.88C44.6065 103.059 45.3561 103.781 45.9172 104.088C46.5396 104.429 47.068 104.992 47.705 105.268C48.7387 105.717 49.8039 106.681 50.7623 107.35C51.8915 108.137 53.202 108.766 54.2797 109.67C55.1009 110.359 55.8195 111.272 56.6339 111.897" stroke="black" stroke-width="3" stroke-linecap="round"/>
  <path d="M26.4665 96.5849C26.1501 98.2222 25.5096 100.006 24.794 101.418C24.1448 102.699 24.1414 104.192 23.3197 105.369C22.29 106.846 22.1967 108.937 21.4965 110.55C20.9307 111.853 20.1796 113.543 19.9201 114.886C19.7645 115.691 19.1423 116.314 18.9926 117.089C18.8722 117.712 18.5667 118.956 18.1626 119.437C17.2552 120.519 17.6625 122.616 16.5419 123.57C16.0753 123.967 15.5254 125.512 15.2492 126.149C14.9583 126.819 14.5817 127.659 14.1873 128.327C13.7863 129.005 13.2812 129.77 13.1389 130.507C13.0173 131.136 12.6239 132.403 12.2855 132.976C11.865 133.687 11.6082 134.773 11.4088 135.566C11.2369 136.249 10.664 137.024 10.5046 137.649C9.98374 139.692 8.73861 141.595 8.34845 143.614C7.95975 145.626 6.63146 147.665 5.90191 149.496C5.14933 151.385 4.84481 153.553 3.87397 155.375C3.19572 156.649 3.17298 158.715 2.89868 160.134C2.62024 161.575 2.11137 163.018 2.78901 164.308C3.95777 166.532 4.38405 169.828 7.55445 170.44C13.4208 171.574 17.5917 166.295 22.3879 163.775C24.9907 162.407 27.7652 161.272 30.1992 159.626C30.9031 159.15 33.3663 157.797 33.5749 157.157C33.8454 156.328 36.4709 155.526 37.1891 155.04C38.8578 153.912 41.1931 153.653 42.793 152.291C43.8046 151.43 45.7763 151.313 46.9541 150.517C48.2781 149.622 50.117 149.064 51.2689 148.02C52.6526 146.766 54.74 145.517 56.434 144.656C59.2816 143.209 62.0889 141.92 64.9594 140.562C67.6528 139.288 70.4186 137.015 73.239 136.226" stroke="black" stroke-width="3" stroke-linecap="round"/>
  <path d="M62.7477 134.699C62.6122 136.384 63.0172 140.459 64.4345 141.547" stroke="black" stroke-width="3" stroke-linecap="round"/>
  <path d="M54.3064 129.054C54.091 131.733 54.9404 134.177 55.4674 136.748C55.7283 138.021 55.919 139.399 56.5389 140.578C56.9464 141.354 56.8497 142.668 57.5866 143.234" stroke="black" stroke-width="3" stroke-linecap="round"/>
  <path d="M40.8009 117.166C40.7146 118.24 41.0919 119.983 41.3628 121.037C41.7813 122.666 42.2465 124.911 42.2281 126.583C42.2107 128.159 42.7925 129.689 42.8353 131.23C42.8815 132.891 43.1654 134.5 43.3451 136.164C43.642 138.913 44.4766 141.718 45.346 144.271C45.9993 146.189 46.9603 148.179 47.4876 150.064" stroke="black" stroke-width="3" stroke-linecap="round"/>
  <path d="M34.5829 111.699C34.9499 111.819 34.2087 116.628 34.3341 117.17C34.7054 118.775 34.4998 120.729 34.5449 122.353C34.5873 123.875 35.0498 125.358 35.1807 126.851C35.3017 128.232 35.2894 129.782 35.7236 131.109C36.0024 131.961 36.2971 133.731 36.181 134.584C36.0053 135.873 36.5778 137.563 36.938 138.743C37.3799 140.193 37.4777 141.784 38.1552 143.118C38.591 143.975 38.7437 145.25 39.3707 145.986C39.7228 146.4 40.516 147.772 40.5319 148.343C40.5666 149.594 42.1711 152.231 43.1597 152.989" stroke="black" stroke-width="3" stroke-linecap="round"/>
  <path d="M27.139 103.488C26.7517 105.493 26.2464 107.511 25.9709 109.534C25.6871 111.617 26.1542 113.778 25.7466 115.887C25.5656 116.823 25.1178 118.696 25.4084 119.584C25.9741 121.313 24.9947 123.51 25.3915 125.225C25.9618 127.69 25.3893 130.541 25.9546 132.984C26.8961 137.054 26.8963 141.232 28.0877 145.311C28.7733 147.659 29.7454 149.915 30.5207 152.192C30.7965 153.002 31.3533 153.669 31.7347 154.419C32.0403 155.021 32.9021 156.225 33.4262 156.627" stroke="black" stroke-width="3" stroke-linecap="round"/>
  <path d="M22.6713 107.139C21.8238 111.525 21.1882 116.112 20.3665 120.364C19.8998 122.78 19.4417 125.07 19.5085 127.473C19.57 129.688 19.7658 131.916 19.9568 134.096C20.0466 135.12 19.7964 137.056 20.2799 137.976C20.7018 138.779 20.3693 139.8 20.7799 140.581C21.2332 141.444 21.1328 142.751 21.4179 143.77C21.6417 144.571 22.0752 146.046 22.0125 146.895C21.9411 147.861 22.6889 150.019 23.2461 150.896C24.0251 152.123 24.5854 153.539 25.316 154.752C26.4889 156.701 28.2845 158.038 29.5355 159.888" stroke="black" stroke-width="3" stroke-linecap="round"/>
  <path d="M14.0827 130.816C13.6243 132.29 13.0655 133.484 12.758 135.075C12.4677 136.577 12.6624 138.166 12.4006 139.521C12.2172 140.47 12.3638 143.172 12.8327 144.064C13.3801 145.105 13.8417 147.246 13.9481 148.46C14.0493 149.614 15.1567 151.297 15.696 152.324C16.4847 153.824 16.8782 155.556 17.8008 157.008C19.2192 159.241 21.1309 161.353 23.1793 162.925" stroke="black" stroke-width="3" stroke-linecap="round"/>
  <path d="M9.0399 142.632C8.73621 144.204 8.35421 147.033 9.11012 148.471C9.47831 149.172 9.44014 150.278 9.91604 151.079C10.3839 151.868 11.0236 153.049 11.1848 153.889C11.3484 154.741 12.2141 155.548 12.6017 156.364C12.9133 157.021 13.2265 157.808 13.7255 158.337C14.342 158.991 15.0079 159.992 15.5176 160.746C16.129 161.651 16.8396 162.162 17.6831 162.809C18.4084 163.366 19.701 164.509 20.5826 164.679" stroke="black" stroke-width="3" stroke-linecap="round"/>
  <path d="M5.7831 154.295C5.50412 155.739 4.97314 157.398 5.78012 158.782C6.22433 159.544 6.12054 160.777 6.6251 161.621C7.04693 162.326 7.6113 163.049 7.95955 163.802C8.41253 164.781 9.7879 166.585 10.7044 167.05C11.1745 167.288 11.278 168.077 11.8635 168.263C12.2703 168.392 12.8719 168.759 13.2209 169.027" stroke="black" stroke-width="3" stroke-linecap="round"/>
  <path d="M57.894 124.142C59.2693 120.974 65.0488 119.812 67.9261 119.007C71.8879 117.899 72.9009 114.205 72.7217 110.434C72.5028 105.827 71.2935 99.9441 73.4955 95.6004C74.3461 93.9225 75.3159 93.9462 77.0033 93.4742C83.6632 91.6112 91.3368 93.691 97.9742 94.9736C101.43 95.6414 104.887 96.3093 108.343 96.9772C109.363 97.1744 111.283 97.3567 111.564 95.9045C111.789 94.7367 112.44 93.3157 112.702 91.9603C113.233 89.2149 113.232 86.4304 113.531 83.6664C113.781 81.3493 113.322 79.0064 113.76 76.7423C114.57 72.55 115.478 68.6231 117.389 64.7835C118.571 62.4078 121.898 59.6701 124.858 60.242C127.759 60.8027 130.521 61.3182 133.214 62.5892C137.967 64.8316 142.882 65.9848 148.039 66.9814" stroke="black" stroke-width="3" stroke-linecap="round"/>
  <path d="M36.8316 107.053C37.1452 106.091 38.9368 104.894 39.6573 104.125C41.6367 102.013 42.6221 98.5867 43.585 95.9281C45.3312 91.1069 47.6226 82.8694 42.0678 79.5221C41.5561 79.2137 31.4571 71.6612 32.2026 76.8625C32.4049 78.2738 33.5625 79.6782 34.9143 79.9394C36.8959 80.3223 37.7275 78.3388 38.7466 76.8924C40.8495 73.9074 42.4389 69.9571 42.0456 66.209C41.1665 57.8318 37.8077 49.2069 34.0211 41.7865C32.5432 38.8903 30.5515 36.2793 29.0909 33.4051C28.6863 32.609 28.6617 32.4015 27.7495 32.2252C26.5036 31.9844 24.6711 31.3584 24.0342 32.8256C23.4235 34.2324 22.4463 35.2265 22.7028 36.9C23.0088 38.8955 27.6173 41.8216 29.6218 41.9199C31.9202 42.0326 35.0946 41.7761 36.4736 39.7074C43.763 28.7724 35.448 13.2708 27.0329 5.7202" stroke="black" stroke-width="3" stroke-linecap="round"/>
  <path d="M69.783 76.0965C72.1607 74.183 73.8907 71.4516 73.6406 68.2624C73.4381 65.6819 71.7425 63.8559 69.9896 62.0324C65.6315 57.4989 60.2434 52.3121 57.3251 46.5694C55.9924 43.9467 54.8909 42.0564 55.471 39.0545C55.9984 36.3249 58.8984 34.1767 61.0468 32.7242C64.6534 30.2857 71.0389 26.4251 72.6552 22.1398C73.9631 18.6719 74.8358 13.0664 73.0164 9.5495C72.5018 8.55471 71.0305 7.0376 70.0509 6.4863C69.3778 6.10741 68.2927 5.69223 68.0867 4.95582" stroke="black" stroke-width="3" stroke-linecap="round"/>
  <path d="M97.0545 53.8687C97.9674 49.1441 100.676 45.2769 102.838 41.0497C104.457 37.883 106.561 37.9136 109.638 36.5045C112.843 35.0373 117.282 32.3948 120.839 34.5256C122.69 35.6342 122.72 37.0443 121.501 38.4621C120.35 39.8014 116.961 38.5265 115.827 37.7214C113.756 36.2502 113.747 31.9703 114.128 29.8388C115.189 23.9081 117.649 17.3201 123.632 14.7672C128.048 12.8826 133.476 13.3595 138.152 13.8063C144.729 14.4349 152.043 15.6368 158.253 17.858" stroke="black" stroke-width="3" stroke-linecap="round"/>
  <path d="M95.4005 122.856C96.1431 120.372 99.0566 119.64 101.293 119.328C104.167 118.927 107.153 117.905 110.051 117.861C112.987 117.815 117.05 119.975 116.401 123.336C116.098 124.902 113.039 124.041 112.081 123.819C110.547 123.463 109.661 121.454 109.308 120.082C106.174 107.882 123.99 102.435 133.006 103.463C135.618 103.761 138.015 104.193 139.745 106.272C141.053 107.843 143.468 110.613 143.994 112.659C145.08 116.89 132.652 112.332 131.584 111.58C127.232 108.513 136.679 100.216 138.771 98.9689C147.774 93.6036 158.389 95.4776 168.167 97.3672C172.973 98.2957 178.061 98.9841 182.686 100.633C184.186 101.168 185.52 102.508 186.951 103.257" stroke="black" stroke-width="3" stroke-linecap="round"/>
  <path d="M104.878 130.338L103.475 137.6" stroke="black" stroke-width="3" stroke-linecap="round"/>
  <path d="M128.748 131.559C128.267 131.402 127.534 130.436 127.022 130.096C126.055 129.452 125.266 128.685 124.086 128.398C123.08 128.154 122.004 128.217 121.251 127.474" stroke="black" stroke-width="3" stroke-linecap="round"/>
  <path d="M170.73 107.279C169.301 107.319 165.625 111.575 164.383 112.833" stroke="black" stroke-width="3" stroke-linecap="round"/>
  <path d="M84.0862 122.93C83.3865 125.179 82.1219 127.247 81.6637 129.618" stroke="black" stroke-width="3" stroke-linecap="round"/>
  <path d="M64.2644 108.555C63.1515 110.532 62.1612 112.925 60.8228 114.67" stroke="black" stroke-width="3" stroke-linecap="round"/>
  <path d="M106.911 74.9824C105.725 75.7841 104.128 76.4478 102.789 76.8225" stroke="black" stroke-width="3" stroke-linecap="round"/>
  <path d="M129.483 43.9395C129.211 45.3461 127.487 46.7768 126.421 47.6584C125.613 48.3267 123.844 50.3256 122.926 50.5824" stroke="black" stroke-width="3" stroke-linecap="round"/>
  <path d="M142.139 27.175C142.188 26.4388 136.058 27.9754 135.182 28.0907" stroke="black" stroke-width="3" stroke-linecap="round"/>
  <path d="M167.845 53.9883C164.952 53.7557 161.82 53.9763 158.85 53.7567" stroke="black" stroke-width="3" stroke-linecap="round"/>
  <path d="M102.52 2.19336C102.065 4.55182 99.5468 7.45201 97.9643 9.20201C96.5179 10.8015 95.1121 12.3905 93.8215 14.0724" stroke="black" stroke-width="3" stroke-linecap="round"/>
  <path d="M50.8034 57.3635C51.3639 57.6068 51.5898 58.5349 51.8619 59.0329C52.9244 60.9776 54.0747 62.8458 54.9583 64.8836C55.9603 67.1941 58.1177 69.9176 58.4444 72.3999" stroke="black" stroke-width="3" stroke-linecap="round"/>
  <path d="M81.1235 46.6484C78.5404 46.3887 74.6636 47.9804 72.3634 49.099" stroke="black" stroke-width="3" stroke-linecap="round"/>
  <path d="M12.1981 54.4232C11.9953 56.4396 12.1357 59.1065 12.6081 61.0731C12.7896 61.8286 13.1702 64.1336 13.6418 64.4954" stroke="black" stroke-width="3" stroke-linecap="round"/>
  <path d="M20.0935 97.3814C17.945 96.9663 16.4529 94.5877 14.8451 93.3539" stroke="black" stroke-width="3" stroke-linecap="round"/>
</svg>