<svg width="52" height="52" viewBox="0 0 52 52" fill="none" xmlns="http://www.w3.org/2000/svg">
<path d="M18.6367 20.9261C19.9197 20.9261 21.2049 21.0056 22.494 21.0056C23.0965 21.0056 23.6838 20.9261 24.2878 20.9261C24.7231 20.9261 25.1452 20.9404 25.5736 20.8642C26.5916 20.6833 27.7064 20.767 28.746 20.767C29.9242 20.767 31.0611 20.6875 32.2365 20.6875" stroke="#33333A" stroke-width="2" stroke-linecap="round"/>
<path d="M18.4766 25.7757C18.9803 25.7757 19.484 25.7757 19.9877 25.7757C20.4705 25.7757 20.929 25.6166 21.4192 25.6166C22.8179 25.6166 24.2253 25.5371 25.6344 25.5371C27.225 25.5371 28.8156 25.5371 30.4062 25.5371" stroke="#33333A" stroke-width="2" stroke-linecap="round"/>
<path d="M13.9766 35.4903C13.9766 33.9935 13.9766 32.4966 13.9766 30.9998C13.9766 30.6701 14.1137 30.3463 14.1137 30.0209C14.1137 29.7644 14.1137 29.508 14.1137 29.2515C14.1137 28.4144 14.1822 27.5363 14.1822 26.6806C14.1822 24.9202 14.2508 23.138 14.2508 21.3673C14.2508 20.8925 14.2508 20.4176 14.2508 19.9428C14.2508 19.6558 14.1441 19.105 14.266 18.8306C14.4701 18.3714 14.2466 17.7275 14.4908 17.2881C14.8001 16.7312 15.0099 16.3602 15.5839 16.0883C16.1842 15.8039 16.8963 15.8269 17.5226 15.6427C18.0801 15.4787 18.8089 15.4713 19.3889 15.4713C21.8573 15.4713 24.3531 15.4027 26.8046 15.4027C29.2479 15.4027 31.6775 15.3342 34.1175 15.3342C34.7891 15.3342 35.4607 15.3342 36.1323 15.3342C36.7804 15.3342 37.4309 15.3162 38.0786 15.3342C38.1917 15.3373 38.2872 15.4671 38.311 15.5741C38.4264 16.0934 38.3833 16.6479 38.3833 17.1852C38.3833 18.0687 38.4519 18.9497 38.4519 19.8247C38.4519 21.4993 38.4519 23.1739 38.4519 24.8485C38.4519 25.502 38.6576 26.1641 38.6576 26.8177C38.6576 27.3319 38.6576 27.8461 38.6576 28.3603C38.6576 28.8629 38.7261 29.3276 38.7261 29.8343C38.7261 30.127 38.4879 30.2322 38.2995 30.4018C38.136 30.5489 37.5822 30.7346 37.355 30.7598C37.0958 30.7886 36.8331 30.9215 36.5703 30.9693C35.987 31.0754 35.4433 31.1026 34.8373 31.1026C33.8483 31.1026 32.8593 31.1026 31.8703 31.1026C29.4756 31.1026 27.1184 31.2397 24.725 31.2397C22.8104 31.2397 20.8959 31.2397 18.9813 31.2397C18.7401 31.2397 18.4989 31.2397 18.2577 31.2397C17.8664 31.2397 17.9053 31.2896 17.6521 31.5711C17.4842 31.7576 17.3223 32.0216 17.1988 32.2376C16.9888 32.6051 16.6185 32.8939 16.3609 33.2279C16.2505 33.371 16.14 33.5951 15.999 33.7078C15.917 33.7735 15.7577 33.8885 15.7058 33.982C15.6011 34.1704 15.4667 34.343 15.3135 34.4962C15.147 34.6627 15.0802 34.9335 14.9364 35.1133C14.7312 35.3697 14.13 35.647 14.0451 35.9017" stroke="#33333A" stroke-width="2" stroke-linecap="round"/>
</svg>
