<svg width="20" height="20" viewBox="0 0 20 20" fill="none" xmlns="http://www.w3.org/2000/svg">
<g id="icon_save3">
<path id="Vector 2106" d="M6.19541 5.06854C6.13538 5.07365 6.04059 9.90835 6.04059 10.2743C6.04059 11.7502 6.04059 13.2261 6.04059 14.702C6.04059 15.0336 5.94378 15.4323 6.04919 15.7549C6.21616 16.2658 6.44711 15.8698 6.65988 15.5443C7.02947 14.9788 7.96683 14.5707 8.39734 14.0177C8.53397 13.8422 10.0689 12.4911 10.0746 12.4969C10.5802 13.0127 11.246 13.4982 11.8895 13.9358C12.567 14.3965 13.2689 14.9938 14.0914 15.3045C14.1498 15.3266 15.128 15.7013 14.9859 15.7841C14.8654 15.8544 14.8655 15.3869 14.8655 15.3337C14.8655 14.8775 14.8655 14.4213 14.8655 13.965C14.8655 12.6314 14.8655 11.2978 14.8655 9.96425C14.8655 8.63374 14.7107 7.32216 14.7107 6.0161C14.7107 5.88294 14.6337 5.18735 14.5215 5.09194C14.2953 4.89974 13.0582 5.06854 12.612 5.06854C10.4731 5.06854 8.33426 5.06854 6.19541 5.06854Z" stroke="#12C0B5" stroke-width="2" stroke-linecap="round"/>
</g>
</svg>
