<svg xmlns="http://www.w3.org/2000/svg" width="13" height="12" viewBox="0 0 13 12" fill="none">
  <path d="M6.30357 11C6.06783 11 5.69554 10.7639 5.53241 10.6062C5.20138 10.2862 4.7382 10.1118 4.34292 9.88889C3.62695 9.48518 3.01185 8.66823 2.50595 8.05696C2.29073 7.79691 2.081 7.55977 1.90212 7.26582C1.61264 6.79014 1.13095 6.03467 1.13095 5.46203C1.13095 5.04118 1 4.60365 1 4.16456C1 3.76187 1.11172 3.50454 1.20007 3.12025C1.30114 2.6806 1.95982 1.66224 2.50595 1.63291C2.9022 1.61163 3.30207 1.56962 3.71726 1.56962C4.04354 1.56962 4.44984 1.7418 4.79762 1.75949C5.02309 1.77096 5.63364 2.05762 5.77976 2.23418C5.92192 2.40595 6.17896 2.46291 6.30357 2.6737C6.35952 2.76834 6.48984 2.87978 6.56548 2.96203C6.77321 3.18793 6.87751 3.49555 6.9547 3.75668C6.95799 3.76783 6.96051 3.78395 6.9624 3.80291C6.97918 3.57664 7.04668 3.35533 7.14021 3.1519C7.73337 1.86182 8.86023 1 10.3304 1C10.7295 1 11.4943 1.67838 11.6035 2.04782C11.7731 2.62156 12 3.22895 12 3.87975V5.08228C12 5.40334 11.7625 5.67988 11.7381 5.98594C11.724 6.16343 11.4677 6.57993 11.3598 6.71027C11.2749 6.8129 11.2367 6.98263 11.1161 7.07595C10.8876 7.25263 10.7858 7.58153 10.5741 7.78622C10.0138 8.3278 9.56619 8.94214 8.90807 9.38256C8.51975 9.64242 8.21459 10.1157 7.77679 10.3038C7.49105 10.4266 6.57712 10.8678 6.30357 11Z" fill="#FF8CBD" stroke="#FF8CBD" stroke-linecap="round"/>
</svg>