<svg width="52" height="52" viewBox="0 0 52 52" fill="none" xmlns="http://www.w3.org/2000/svg">
<path d="M21.9747 16.0971C20.1761 16.0971 18.4744 16.4358 16.6558 16.4358C14.9335 16.4358 13.3626 16.236 12.0756 17.3016C10.7226 18.4218 11.03 20.3066 11.03 21.7715C11.03 23.4434 11.03 25.1153 11.03 26.7872C11.03 27.7534 11.03 28.7195 11.03 29.6856C11.03 30.0662 11.0045 30.4538 11.03 30.8337C11.0467 31.0825 11.0322 31.7059 11.155 31.9347C11.3286 32.2581 11.2346 32.724 11.2346 33.0781C11.2346 33.5344 11.2983 33.8344 11.4448 34.2591C11.6677 34.905 12.5662 35.3034 13.2576 35.473C14.4562 35.7671 15.8813 35.4071 17.1161 35.4071C17.9703 35.4071 18.8246 35.4071 19.6789 35.4071C20.4333 35.4071 21.1967 35.5646 21.9292 35.5765C23.7699 35.6064 25.6059 35.8215 27.4527 35.9153C28.7849 35.983 30.0936 36 31.4248 36C32.8593 36 34.3333 35.9153 35.7322 35.9153C36.2241 35.9153 36.7243 35.9379 37.2154 35.9153C37.66 35.8949 38.0977 35.683 38.5451 35.6612C38.6836 35.6545 39.6089 35.3644 39.6703 35.2754C39.7945 35.0953 40.105 35.039 40.284 34.899C40.4596 34.7616 40.5947 34.4899 40.7443 34.3908C40.8437 34.325 40.8977 33.5021 40.8977 33.3745C40.8977 32.9888 41 32.6528 41 32.2735C41 31.5254 41 30.7772 41 30.0291C41 26.9237 41 23.8183 41 20.7129C41 19.9948 40.8977 19.2466 40.8977 18.572C40.8977 18.1767 40.7648 17.0154 40.1249 16.864C39.7175 16.7676 39.346 16.553 38.8974 16.4547C38.406 16.3469 37.9542 16.2418 37.4541 16.1629C36.0149 15.936 34.5367 16.0124 33.0728 16.0124C29.3052 16.0124 25.5377 16.0124 21.7701 16.0124" stroke="#33333A" stroke-width="2" stroke-linecap="round"/>
<path d="M19.7095 23.5175C19.7737 24.0613 20.0702 24.5607 20.2773 25.0865C20.6168 25.9482 21.3286 26.702 21.5966 27.5838C21.7419 28.0622 22.2198 28.5121 22.3042 28.9885C22.3199 29.077 22.6709 28.6262 22.7148 28.5614C22.9203 28.2578 23.1297 27.8614 23.3876 27.6002C23.7196 27.264 24.0199 26.8353 24.2219 26.4132C24.3913 26.0592 24.7867 25.68 24.8946 25.3248C24.9486 25.1472 25.0728 25.0693 25.196 24.9222C25.2693 24.8348 25.3261 24.6945 25.4188 24.8319C25.8068 25.4072 26.0735 26.0468 26.4279 26.6391C26.7216 27.1301 27.1591 27.7045 27.5811 28.1013C27.853 28.357 28.146 28.5997 28.4198 28.8571C28.6179 29.0433 29.1573 27.9875 29.2411 27.8385C29.4342 27.4947 29.6728 27.1295 29.9007 26.8034C30.0812 26.5451 30.3821 26.2903 30.4817 25.9861C30.5809 25.6829 30.8672 25.481 30.9534 25.1769C31.0375 24.8806 31.217 24.6853 31.3903 24.4335C31.5951 24.1358 31.9824 23.1447 32.2901 23" stroke="#33333A" stroke-width="2" stroke-linecap="round"/>
<path d="M11 20C14.2057 20 17.4052 20 20.6077 20C23.4615 20 26.3153 20 29.1691 20C32.7987 20 36.4082 20 40.0323 20" stroke="#33333A" stroke-width="2" stroke-linecap="round"/>
<path d="M11.9678 31C13.1681 31 14.3782 31 15.5483 31C16.7435 31 18.2312 31 19.4609 31C21.4403 31 23.4197 31 25.3991 31C27.9948 31 30.5906 31 33.1864 31C33.4215 31 33.627 31 33.8714 31C34.0731 31 34.2748 31 34.4765 31C35.4022 31 36.3259 31 37.2586 31C38.1832 31 39.1077 31 40.0323 31" stroke="#33333A" stroke-width="2" stroke-linecap="round"/>
</svg>
