<svg xmlns="http://www.w3.org/2000/svg" width="13" height="12" viewBox="0 0 13 12" fill="none">
  <path d="M6.24498 11C6.00924 11 5.63695 10.7639 5.47381 10.6062C5.14279 10.2862 4.67961 10.1118 4.28433 9.88889C3.56836 9.48518 2.95325 8.66823 2.44736 8.05696C2.23214 7.79691 2.0224 7.55977 1.84352 7.26582C1.55405 6.79014 1.07236 6.03467 1.07236 5.46203C1.07236 5.04118 0.941406 4.60365 0.941406 4.16456C0.941406 3.76187 1.05313 3.50454 1.14147 3.12025C1.24255 2.6806 1.90123 1.66224 2.44736 1.63291C2.84361 1.61163 3.24348 1.56962 3.65867 1.56962C3.98495 1.56962 4.39125 1.7418 4.73903 1.75949C4.9645 1.77096 5.57505 2.05762 5.72117 2.23418C5.86333 2.40595 6.12037 2.46291 6.24498 2.6737C6.30092 2.76834 6.43125 2.87978 6.50688 2.96203C6.71462 3.18793 6.81892 3.49555 6.8961 3.75668C6.92207 3.84455 6.89974 4.24035 6.89974 3.91139C6.89974 3.64762 6.97318 3.38775 7.08162 3.1519C7.67478 1.86182 8.80164 1 10.2718 1C10.6709 1 11.4357 1.67838 11.5449 2.04782C11.7145 2.62156 11.9414 3.22895 11.9414 3.87975C11.9414 4.28059 11.9414 4.68143 11.9414 5.08228C11.9414 5.40334 11.7039 5.67988 11.6795 5.98594C11.6654 6.16343 11.4091 6.57993 11.3012 6.71027C11.2163 6.8129 11.1781 6.98263 11.0575 7.07595C10.829 7.25263 10.7272 7.58153 10.5155 7.78622C9.9552 8.3278 9.5076 8.94214 8.84947 9.38256C8.46116 9.64242 8.156 10.1157 7.71819 10.3038C7.43246 10.4266 7.23877 10.8045 6.96522 10.9367" stroke="#FF8CBD" stroke-linecap="round"/>
</svg>