<svg width="198" height="17" viewBox="0 0 198 17" fill="none" xmlns="http://www.w3.org/2000/svg">
<path d="M4.23438 4.16406C5.11328 4.1582 5.86328 4.48633 6.34375 5.04297H9.07422V3.53125H10V9.70703H9.07422V8.21875H6.35547C5.86328 8.77539 5.11328 9.10352 4.23438 9.09766C2.67578 9.10938 1.52734 8.08984 1.52734 6.63672C1.52734 5.17188 2.67578 4.15234 4.23438 4.16406ZM4.23438 4.96094C3.16797 4.94922 2.40625 5.65234 2.40625 6.63672C2.40625 7.60938 3.16797 8.3125 4.23438 8.3125C5.26562 8.3125 6.03906 7.60938 6.03906 6.63672C6.03906 5.65234 5.26562 4.94922 4.23438 4.96094ZM6.54297 9.95312C8.69922 9.95312 10.0352 10.6797 10.0352 11.9336C10.0352 13.1992 8.69922 13.9258 6.54297 13.9258C4.375 13.9258 3.05078 13.1992 3.05078 11.9336C3.05078 10.6797 4.375 9.95312 6.54297 9.95312ZM6.54297 10.668C4.94922 10.668 3.95312 11.1484 3.95312 11.9336C3.95312 12.7188 4.94922 13.1875 6.54297 13.1875C8.14844 13.1875 9.13281 12.7188 9.13281 11.9336C9.13281 11.1484 8.14844 10.668 6.54297 10.668ZM6.78906 5.79297C6.87695 6.05078 6.92969 6.33203 6.92969 6.63672C6.92969 6.92969 6.87695 7.20508 6.78906 7.45703H9.07422V5.79297H6.78906ZM21.2617 8.86328V9.625H17.0195V11.7578H16.1055V9.625H11.7227V8.86328H21.2617ZM20.0195 4.04688V7.66797H12.9648V4.04688H20.0195ZM13.8672 4.77344V6.92969H19.1055V4.77344H13.8672ZM20.1953 12.9531V13.7266H12.9414V10.7266H13.8672V12.9531H20.1953ZM23.8164 12.2148L22.9023 15.4023H22.0352L22.6797 12.2148H23.8164ZM37.7148 8.28906V9.05078H33.3672V10.2227H32.4648V9.05078H28.1875V8.28906H37.7148ZM33.3789 11.0312C33.3789 12.1797 35.0664 13.0117 36.9531 13.1992L36.6602 13.9023C35.0137 13.7266 33.5312 13.0938 32.9102 12.0859C32.2891 13.082 30.8184 13.7266 29.1836 13.9023L28.8789 13.1992C30.7422 13.0117 32.4414 12.168 32.4414 11.0312V10.6914H33.3789V11.0312ZM33.4141 4.15234C33.4141 5.44141 35.3125 6.56641 37.1523 6.78906L36.8125 7.50391C35.1953 7.28125 33.6074 6.47852 32.9453 5.32422C32.2773 6.49023 30.6777 7.28125 29.0664 7.50391L28.7266 6.78906C30.5781 6.56641 32.4648 5.46484 32.4648 4.15234V3.66016H33.4141V4.15234ZM42.0859 6.73047C42.0742 8.40625 43.2812 10.2461 44.793 10.9609L44.2656 11.6875C43.0938 11.1191 42.1035 9.87695 41.6406 8.46484C41.1602 10 40.1113 11.3477 38.9453 11.9453L38.3828 11.2188C39.8828 10.4922 41.1719 8.51172 41.1836 6.73047V5.37109H38.7578V4.60938H44.4297V5.37109H42.0859V6.73047ZM46.6211 3.53125V7.75H48.3672V8.53516H46.6211V13.9492H45.707V3.53125H46.6211ZM50.6406 12.2148L49.7266 15.4023H48.8594L49.5039 12.2148H50.6406ZM64.5039 9.05078V9.78906H55V9.05078H64.5039ZM63.2734 10.8086V13.9492H62.3359V11.5469H56.0664V10.8086H63.2734ZM63.3789 7.32812V8.04297H56.2656V3.8125H63.3203V4.55078H57.1914V5.54688H63.0391V6.26172H57.1914V7.32812H63.3789ZM70.6094 4.50391C70.6094 5.96875 72.5312 7.24609 74.4062 7.50391L74.0312 8.25391C72.4141 7.98438 70.8145 7.08789 70.1406 5.80469C69.4727 7.09375 67.8672 7.98438 66.25 8.25391L65.875 7.50391C67.75 7.24609 69.6602 5.99219 69.6602 4.50391V3.90625H70.6094V4.50391ZM74.875 9.40234V10.1758H70.5625V13.9492H69.6602V10.1758H65.3828V9.40234H74.875ZM85.2812 8.86328V9.625H81.0391V11.7578H80.125V9.625H75.7422V8.86328H85.2812ZM84.0391 4.04688V7.66797H76.9844V4.04688H84.0391ZM77.8867 4.77344V6.92969H83.125V4.77344H77.8867ZM84.2148 12.9531V13.7266H76.9609V10.7266H77.8867V12.9531H84.2148ZM89.6523 6.73047C89.6406 8.40625 90.8477 10.2461 92.3594 10.9609L91.832 11.6875C90.6602 11.1191 89.6699 9.87695 89.207 8.46484C88.7266 10 87.6777 11.3477 86.5117 11.9453L85.9492 11.2188C87.4492 10.4922 88.7383 8.51172 88.75 6.73047V5.37109H86.3242V4.60938H91.9961V5.37109H89.6523V6.73047ZM94.1875 3.53125V7.75H95.9336V8.53516H94.1875V13.9492H93.2734V3.53125H94.1875ZM109 8.40625V9.16797H104.699V10.2812C106.668 10.3633 107.828 11.0078 107.84 12.1094C107.828 13.2695 106.492 13.9258 104.254 13.9258C101.992 13.9258 100.656 13.2695 100.656 12.1094C100.656 11.0078 101.811 10.3633 103.797 10.2812V9.16797H99.5078V8.40625H109ZM104.254 10.9844C102.578 10.9961 101.582 11.4062 101.594 12.1094C101.582 12.8008 102.578 13.2109 104.254 13.2109C105.906 13.2109 106.914 12.8008 106.914 12.1094C106.914 11.4062 105.906 10.9961 104.254 10.9844ZM108.156 4.02344V4.77344H104.852C104.91 5.94531 106.633 6.85352 108.473 7.04688L108.133 7.77344C106.428 7.56836 104.828 6.80664 104.254 5.64062C103.686 6.80664 102.092 7.56836 100.375 7.77344L100.047 7.04688C101.852 6.85352 103.586 5.94531 103.656 4.77344H100.375V4.02344H108.156ZM113.266 13L113.254 12.2266L116.148 9.17969C117.156 8.11328 117.637 7.53906 117.637 6.75391C117.637 5.88672 116.898 5.3125 115.949 5.3125C114.941 5.3125 114.297 5.95703 114.297 6.90625H113.301C113.289 5.40625 114.449 4.39844 115.984 4.39844C117.52 4.39844 118.621 5.42969 118.621 6.75391C118.621 7.70312 118.176 8.44141 116.676 9.98828L114.73 11.9922V12.0625H118.773V13H113.266ZM125.125 7.23438V8.72266H129.426V9.48438H119.934V8.72266H124.223V7.23438H125.125ZM124.68 10.3398C126.918 10.3398 128.254 10.9727 128.266 12.1328C128.254 13.293 126.918 13.9258 124.68 13.9258C122.418 13.9258 121.082 13.293 121.082 12.1328C121.082 10.9727 122.418 10.3398 124.68 10.3398ZM124.68 11.0664C122.992 11.0664 122.008 11.4531 122.02 12.1328C122.008 12.8125 122.992 13.2109 124.68 13.2109C126.344 13.2109 127.34 12.8125 127.34 12.1328C127.34 11.4531 126.344 11.0664 124.68 11.0664ZM128.582 4.02344V4.77344H125.277C125.336 5.93359 127.082 6.83008 128.898 7.02344L128.559 7.75C126.854 7.54492 125.254 6.80078 124.68 5.64062C124.111 6.80078 122.518 7.54492 120.801 7.75L120.461 7.02344C122.277 6.83008 124.012 5.94531 124.082 4.77344H120.801V4.02344H128.582ZM141.906 3.53125V13.9727H140.98V3.53125H141.906ZM136.363 4.33984C137.91 4.35156 139.023 5.75781 139.023 7.97266C139.023 10.1875 137.91 11.5938 136.363 11.5938C134.805 11.5938 133.703 10.1875 133.703 7.97266C133.703 5.75781 134.805 4.35156 136.363 4.33984ZM136.363 5.16016C135.32 5.17188 134.594 6.27344 134.594 7.97266C134.594 9.67188 135.32 10.7734 136.363 10.7734C137.406 10.7734 138.133 9.67188 138.133 7.97266C138.133 6.27344 137.406 5.17188 136.363 5.16016ZM147.168 5.21875C147.168 6.63672 148.246 7.9375 149.758 8.45312L149.254 9.17969C148.1 8.75781 147.191 7.89648 146.734 6.8125C146.289 8.03711 145.363 9.00391 144.145 9.47266L143.652 8.73438C145.211 8.14844 146.254 6.75391 146.266 5.14844V4.07031H147.168V5.21875ZM151.832 3.53125V6.25H153.402V7.02344H151.832V9.87109H150.918V3.53125H151.832ZM148.492 10.1406C150.637 10.1406 151.926 10.832 151.926 12.0273C151.926 13.2461 150.637 13.9258 148.492 13.9258C146.348 13.9258 145.035 13.2461 145.035 12.0273C145.035 10.832 146.348 10.1406 148.492 10.1406ZM148.492 10.8789C146.922 10.8789 145.949 11.3125 145.961 12.0273C145.949 12.7656 146.922 13.1875 148.492 13.1992C150.074 13.1875 151.035 12.7656 151.035 12.0273C151.035 11.3125 150.074 10.8789 148.492 10.8789ZM166.609 11.8398V12.6133H157.07V11.8398H161.371V9.30859H162.297V11.8398H166.609ZM162.297 5.51172C162.297 7.17578 164.359 8.60547 166.152 8.89844L165.777 9.625C164.184 9.31445 162.502 8.30078 161.84 6.84766C161.166 8.30664 159.49 9.34375 157.926 9.67188L157.539 8.93359C159.297 8.62891 161.348 7.17578 161.348 5.51172V5.25391H157.855V4.48047H165.789V5.25391H162.297V5.51172ZM175.586 3.53125V6.20312H177.156V6.98828H175.586V9.58984H174.672V3.53125H175.586ZM169.914 10.0469V11.1602H174.672V10.0469H175.586V13.8086H169V10.0469H169.914ZM169.914 13.0703H174.672V11.8867H169.914V13.0703ZM173.676 4.60938V5.37109H167.465V4.60938H170.113V3.4375H171.027V4.60938H173.676ZM170.57 5.85156C172.07 5.85156 173.066 6.56641 173.078 7.67969C173.066 8.79297 172.07 9.50781 170.57 9.50781C169.059 9.50781 168.051 8.79297 168.062 7.67969C168.051 6.56641 169.059 5.85156 170.57 5.85156ZM170.57 6.56641C169.586 6.55469 168.93 7.01172 168.941 7.67969C168.93 8.35938 169.586 8.80469 170.57 8.80469C171.543 8.80469 172.199 8.35938 172.211 7.67969C172.199 7.01172 171.543 6.55469 170.57 6.56641Z" fill="#FF002E"/>
<path d="M186.551 5.09961C186.566 5.24063 186.903 5.68995 187.019 5.75571C187.334 5.93624 187.677 6.39428 187.924 6.66697C188.502 7.30692 189.194 7.79564 189.777 8.41051C190.078 8.72871 190.49 8.99789 190.761 9.33695C190.939 9.55917 191.278 9.75267 191.417 9.99609C191.645 10.3947 192.131 10.7586 192.456 11.0835C192.593 11.2206 192.674 11.411 192.814 11.5513C192.897 11.6341 193.007 11.7252 193.057 11.8247" stroke="#FF002E" stroke-width="2" stroke-linecap="round"/>
<path d="M193.166 5.1543C192.822 5.49923 192.404 5.78342 192.061 6.1263C191.909 6.2785 191.768 6.46195 191.605 6.60319C191.461 6.72838 191.394 6.88915 191.253 7.01022C191.111 7.13153 190.965 7.25501 190.87 7.42029C190.741 7.64657 190.484 7.8239 190.323 8.02475C190.103 8.29993 189.83 8.54122 189.57 8.77502C188.957 9.32641 188.395 9.89506 187.893 10.5398C187.711 10.7741 187.498 10.9689 187.316 11.1959C187.215 11.3226 187.015 11.4055 186.861 11.527C186.705 11.649 186.553 11.8509 186.387 11.934" stroke="#FF002E" stroke-width="2" stroke-linecap="round"/>
</svg>
