<svg width="28" height="28" viewBox="0 0 28 28" fill="none" xmlns="http://www.w3.org/2000/svg">
<path d="M3 14.1467C3.74664 13.3067 4.1512 12.1068 5.16788 11.5258C5.8072 11.1605 6.17193 10.4737 6.88277 10.0859C7.35203 9.82998 7.99126 9.53384 8.37117 9.19614C10.0549 7.69951 13.5496 8.03131 15.6675 8.03131C19.2172 8.03131 25.1318 10.837 25.1318 15.0203" stroke="#C1C1C7" stroke-width="3" stroke-linecap="round"/>
<path d="M13.4831 12.1074C9.3949 12.1074 10.3049 19.0964 14.3567 19.0964C15.9748 19.0964 17.6746 17.5714 17.8512 15.8931C18.1596 12.9632 16.8166 12.1074 14.0655 12.1074" stroke="#C1C1C7" stroke-width="3" stroke-linecap="round"/>
<path d="M4 24.681C4.06889 24.1298 5.30231 23.3741 5.71093 23.0932C6.47837 22.5656 7.00129 21.6911 7.80512 21.2317C9.06216 20.5134 10.3184 18.6089 11.3912 17.5361C12.1757 16.7516 13.5667 15.6248 14.1014 14.6891C14.6859 13.6662 16.0295 13.3068 16.6199 12.3622C17.2369 11.375 18.6807 10.9268 19.3847 10.0217C20.1607 9.024 21.233 8.22956 22.177 7.37999C22.8686 6.75752 23.4373 6.01017 24.0932 5.35425C24.7713 4.67615 25.596 3.41204 26.4201 3" stroke="#C1C1C7" stroke-width="3" stroke-linecap="round"/>
</svg>
