<svg width="17" height="18" viewBox="0 0 17 18" fill="none" xmlns="http://www.w3.org/2000/svg">
<rect width="17" height="18" fill="#EEEEEE"/>
<g id="&#237;&#140;&#144;&#235;&#167;&#164;&#236;&#158;&#144;-&#236;&#131;&#129;&#235;&#139;&#180;&#235;&#170;&#169;&#235;&#161;&#157; (&#236;&#177;&#132;&#237;&#140;&#133;)" clip-path="url(#clip0_133_311)">
<rect width="375" height="812" transform="translate(-36 -258)" fill="white"/>
<g id="Frame 809">
<g id="&#236;&#131;&#129;&#235;&#139;&#180;&#235;&#166;&#172;&#236;&#138;&#164;&#237;&#138;&#184;-&#236;&#177;&#132;&#237;&#140;&#133;">
<rect x="-15.5" y="-18.5" width="334" height="174" rx="11.5" fill="#F6F6FA"/>
<rect x="-15.5" y="-18.5" width="334" height="174" rx="11.5" stroke="#F6F6FA"/>
<g id="Frame 444">
<g id="Frame 808">
<g id="Frame 801">
<g id="Frame 800">
<g id="Group 88664">
<path id="Vector 2793" d="M5.35448 7.31836C5.35448 6.40975 5.10044 4.85909 5.78781 4.2246C6.6182 3.45808 7.55131 3.47579 8.60176 3.5147C8.88322 3.52512 9.28522 3.91751 9.50411 4.08775C9.77827 4.30098 9.86297 4.58871 10.0643 4.84042C10.434 5.30247 10.3555 6.75558 10.3555 7.31836" stroke="#95959B" stroke-width="2" stroke-linecap="round"/>
<path id="Vector 2794" d="M4.38489 8.3657C5.1277 8.34506 5.83906 8.13477 6.57875 8.13477C6.98787 8.13477 7.39699 8.13477 7.80611 8.13477C8.37061 8.13477 8.93511 8.13477 9.49961 8.13477C10.2155 8.13477 11.219 8.28892 11.6977 8.82756C12.0098 9.17863 12.0057 9.92818 12.0057 10.3671C12.0057 10.9766 11.9287 11.5634 11.9287 12.1761C11.9287 12.6351 11.9287 13.0941 11.9287 13.5531C11.9287 13.9848 10.9828 13.9935 10.6885 14.1775C10.4767 14.3098 9.94509 14.216 9.69633 14.216C9.38842 14.216 9.08051 14.216 8.7726 14.216C8.22289 14.216 7.64668 14.293 7.0791 14.293C6.25301 14.293 5.44007 14.062 4.65431 14.062C4.32462 14.062 4.07698 13.0919 4.07698 12.8304C4.07698 12.3099 4 11.8061 4 11.2908C4 10.3928 4 9.4947 4 8.59663" stroke="#95959B" stroke-width="2" stroke-linecap="round"/>
</g>
</g>
</g>
</g>
</g>
</g>
</g>
</g>
<defs>
<clipPath id="clip0_133_311">
<rect width="375" height="812" fill="white" transform="translate(-36 -258)"/>
</clipPath>
</defs>
</svg>
