<svg width="28" height="28" viewBox="0 0 28 28" fill="none" xmlns="http://www.w3.org/2000/svg">
<path d="M13.5098 8.0819C12.5538 8.0819 12.576 8.0819 11.62 8.0819C10.9444 8.0819 10.2689 8.0819 9.59337 8.0819C9.32891 8.0819 9.03418 8.1199 8.78045 8.04183C8.34361 7.90742 7.80781 8.09519 7.35498 8.00462C6.93577 7.92078 6.45494 7.97886 6.02682 7.97886C5.75351 7.97886 5.11329 7.85441 5.01067 8.21357C4.69249 9.32719 5.05933 10.633 5.05933 11.7916C5.05933 12.1857 5.00781 12.5802 5.00781 12.9508C5.00781 13.3992 4.90476 13.8171 4.90476 14.2647C4.90476 15.0528 4.90476 15.8409 4.90476 16.629C4.90476 17.1101 5.00781 17.584 5.00781 18.0516C5.00781 18.573 5.11086 19.0732 5.11086 19.5945C5.11086 20.2659 5.07823 20.9425 5.05933 21.6039C5.04743 22.0205 4.94221 22.6583 5.2139 22.9979C5.43287 23.2716 6.23339 23.2297 6.55351 23.2297C7.73198 23.2297 8.92882 23.4358 10.1086 23.4358C11.2192 23.4358 12.3298 23.4358 13.4404 23.4358C14.4324 23.4358 15.4049 23.3843 16.3944 23.3843C17.0051 23.3843 17.6157 23.3843 18.2264 23.3843C18.402 23.3843 18.8009 23.4479 18.9305 23.3442C19.0136 23.2777 19.3979 23.2063 19.5116 23.1811C20.0581 23.0596 19.7949 22.4571 19.9095 22.0848C20.0331 21.6828 19.9495 21.1533 19.9495 20.7309C19.9495 19.9017 19.9495 19.0622 19.9495 18.232C19.9495 17.8439 19.8465 17.4616 19.8465 17.0727C19.8465 16.6777 19.8465 16.2827 19.8465 15.8877C19.8465 15.1062 19.8465 15.2225 19.8465 14.4411" stroke="white" stroke-width="2" stroke-linecap="round"/>
<path d="M13.6496 16.35C13.3339 16.6026 12.3055 16.9103 11.903 16.9103C10.9542 16.9103 11.4248 16.5394 11.6855 15.7154C12.3815 13.5157 14.9457 11.0887 16.28 9.41137C17.2149 8.23613 17.9892 7.20204 18.9907 6.02542C19.3965 5.38776 19.8449 4.74822 20.2187 4.09403C20.3324 3.89505 20.9674 3.14211 21.1985 3.09075C21.4453 3.03591 22.136 3.7871 22.3408 3.95096C22.513 4.08874 23.0688 4.22384 23.1098 4.46958C23.2192 5.1262 22.4987 5.85854 22.1501 6.37116C21.778 6.91826 21.3865 7.54519 21.0532 8.11179C20.2348 9.50313 19.0032 10.8383 17.9892 12.1057C17.0762 13.247 16.2739 14.4987 15.1917 15.4942C14.8154 15.8404 14.0763 16.0086 13.6496 16.35Z" stroke="white" stroke-width="2" stroke-linecap="round"/>
</svg>
