<svg xmlns="http://www.w3.org/2000/svg" width="21" height="20" viewBox="0 0 21 20" fill="none">
  <path d="M10.8036 15C10.5678 15 10.1955 14.7639 10.0324 14.6062C9.70138 14.2862 9.2382 14.1118 8.84292 13.8889C8.12695 13.4852 7.51185 12.6682 7.00595 12.057C6.79073 11.7969 6.581 11.5598 6.40212 11.2658C6.11264 10.7901 5.63095 10.0347 5.63095 9.46203C5.63095 9.04118 5.5 8.60365 5.5 8.16456C5.5 7.76187 5.61172 7.50454 5.70007 7.12025C5.80114 6.6806 6.45982 5.66224 7.00595 5.63291C7.4022 5.61163 7.80207 5.56962 8.21726 5.56962C8.54354 5.56962 8.94984 5.7418 9.29762 5.75949C9.52309 5.77096 10.1336 6.05762 10.2798 6.23418C10.4219 6.40595 10.679 6.46291 10.8036 6.6737C10.8595 6.76834 10.9898 6.87978 11.0655 6.96203C11.2732 7.18793 11.3775 7.49555 11.4547 7.75668C11.458 7.76783 11.4605 7.78395 11.4624 7.80291C11.4792 7.57664 11.5467 7.35533 11.6402 7.1519C12.2334 5.86182 13.3602 5 14.8304 5C15.2295 5 15.9943 5.67838 16.1035 6.04782C16.2731 6.62156 16.5 7.22895 16.5 7.87975V9.08228C16.5 9.40334 16.2625 9.67988 16.2381 9.98594C16.224 10.1634 15.9677 10.5799 15.8598 10.7103C15.7749 10.8129 15.7367 10.9826 15.6161 11.0759C15.3876 11.2526 15.2858 11.5815 15.0741 11.7862C14.5138 12.3278 14.0662 12.9421 13.4081 13.3826C13.0198 13.6424 12.7146 14.1157 12.2768 14.3038C11.9911 14.4266 11.0771 14.8678 10.8036 15Z" fill="#FF8CBD" stroke="#FF8CBD" stroke-linecap="round"/>
</svg>