<svg width="20" height="20" viewBox="0 0 20 20" fill="none" xmlns="http://www.w3.org/2000/svg">
<path d="M10.3036 15C10.0678 15 9.69554 14.7639 9.53241 14.6062C9.20138 14.2862 8.7382 14.1118 8.34292 13.8889C7.62695 13.4852 7.01185 12.6682 6.50595 12.057C6.29073 11.7969 6.081 11.5598 5.90212 11.2658C5.61264 10.7901 5.13095 10.0347 5.13095 9.46203C5.13095 9.04118 5 8.60365 5 8.16456C5 7.76187 5.11172 7.50454 5.20007 7.12025C5.30114 6.6806 5.95982 5.66224 6.50595 5.63291C6.9022 5.61163 7.30207 5.56962 7.71726 5.56962C8.04354 5.56962 8.44984 5.7418 8.79762 5.75949C9.02309 5.77096 9.63364 6.05762 9.77976 6.23418C9.92192 6.40595 10.179 6.46291 10.3036 6.6737C10.3595 6.76834 10.4898 6.87978 10.5655 6.96203C10.7732 7.18793 10.8775 7.49555 10.9547 7.75668C10.9807 7.84455 10.9583 8.24035 10.9583 7.91139C10.9583 7.64762 11.0318 7.38775 11.1402 7.1519C11.7334 5.86182 12.8602 5 14.3304 5C14.7295 5 15.4943 5.67838 15.6035 6.04782C15.7731 6.62156 16 7.22895 16 7.87975C16 8.28059 16 8.68143 16 9.08228C16 9.40334 15.7625 9.67988 15.7381 9.98594C15.724 10.1634 15.4677 10.5799 15.3598 10.7103C15.2749 10.8129 15.2367 10.9826 15.1161 11.0759C14.8876 11.2526 14.7858 11.5815 14.5741 11.7862C14.0138 12.3278 13.5662 12.9421 12.9081 13.3826C12.5198 13.6424 12.2146 14.1157 11.7768 14.3038C11.4911 14.4266 10.5771 14.8678 10.3036 15Z" stroke="#FF8CBD" stroke-width="2" stroke-linecap="round"/>
</svg>
