<svg xmlns="http://www.w3.org/2000/svg" width="28" height="28" viewBox="0 0 28 28" fill="none">
  <path d="M8.05862 14.1511C8.05862 13.5856 8.19554 6.11382 8.28226 6.10593H17.5506C18.1952 6.10593 19.9822 5.84505 20.3088 6.14209C20.4709 6.28954 20.5821 7.36455 20.5821 7.57034C20.5821 9.5888 20.8057 11.6158 20.8057 13.672V19.8551V21.9703V21.9706C20.8057 22.0193 20.8057 22.286 20.8405 22.4775C20.9692 22.5609 21.0365 22.6309 20.9797 22.6664C20.9074 22.7114 20.8652 22.6134 20.8405 22.4775C20.5043 22.2595 19.7486 21.9498 19.6876 21.9251C18.4996 21.4449 17.4856 20.5219 16.507 19.8099C15.5776 19.1337 14.6158 18.3832 13.8855 17.5861C13.8772 17.5771 11.6602 19.6652 11.4628 19.9364C10.841 20.791 9.48701 21.4218 8.95316 22.2957C8.64583 22.7989 8.31223 23.4108 8.07105 22.6212C7.91879 22.1227 8.05862 21.5065 8.05862 20.994V14.1511Z" fill="#12C0B5" stroke="#12C0B5" stroke-width="2" stroke-linecap="round"/>
</svg>