<svg width="14" height="13" viewBox="0 0 14 13" fill="none" xmlns="http://www.w3.org/2000/svg">
<path d="M10.0007 0.5C12.0257 0.5 13.6673 2.16667 13.6673 4.5C13.6673 9.16667 8.66732 11.8333 7.00065 12.8333C5.33398 11.8333 0.333984 9.16667 0.333984 4.5C0.333984 2.16667 2.00065 0.5 4.00065 0.5C5.24063 0.5 6.33398 1.16667 7.00065 1.83333C7.66732 1.16667 8.76065 0.5 10.0007 0.5ZM7.62325 10.9025C8.21098 10.5323 8.74065 10.1637 9.23725 9.7686C11.2231 8.18867 12.334 6.46233 12.334 4.5C12.334 2.92717 11.3093 1.83333 10.0007 1.83333C9.28338 1.83333 8.50685 2.21274 7.94345 2.77614L7.00065 3.71895L6.05785 2.77614C5.49444 2.21274 4.71792 1.83333 4.00065 1.83333C2.70669 1.83333 1.66732 2.93767 1.66732 4.5C1.66732 6.46233 2.77816 8.18867 4.76408 9.7686C5.26065 10.1637 5.79032 10.5323 6.37805 10.9025C6.57705 11.0279 6.77472 11.1486 7.00065 11.2835C7.22658 11.1486 7.42425 11.0279 7.62325 10.9025Z" fill="#FF8CBD"/>
</svg>
