<svg xmlns="http://www.w3.org/2000/svg" width="21" height="20" viewBox="0 0 21 20" fill="none">
  <path d="M10.4177 17.4443C10.0657 17.4443 9.50993 17.0796 9.26639 16.8361C8.77221 16.3419 8.08073 16.0725 7.49062 15.7283C6.42175 15.1048 5.50347 13.8431 4.74822 12.899C4.42692 12.4974 4.11381 12.1311 3.84676 11.6771C3.41461 10.9425 2.6955 9.77571 2.6955 8.89129C2.6955 8.24133 2.5 7.56559 2.5 6.88744C2.5 6.26551 2.66679 5.86809 2.79868 5.27459C2.94957 4.59557 3.93291 3.02278 4.74822 2.97749C5.33978 2.94462 5.93675 2.87974 6.55658 2.87974C7.04368 2.87974 7.65024 3.14566 8.16943 3.17299C8.50604 3.1907 9.41753 3.63343 9.63567 3.9061C9.8479 4.1714 10.2316 4.25937 10.4177 4.58491C10.5012 4.73108 10.6957 4.90318 10.8087 5.03021C11.1188 5.37911 11.2745 5.85421 11.3897 6.25751C11.4285 6.39322 11.3951 7.00449 11.3951 6.49645C11.3951 6.08907 11.5048 5.68771 11.6667 5.32346C12.5522 3.33103 14.2345 2 16.4292 2C17.0251 2 18.1669 3.04771 18.3299 3.61829C18.5831 4.50439 18.9218 5.44246 18.9218 6.44757C18.9218 7.06665 18.9218 7.68572 18.9218 8.3048C18.9218 8.80066 18.5672 9.22776 18.5308 9.70044C18.5097 9.97456 18.1271 10.6178 17.966 10.8191C17.8392 10.9776 17.7823 11.2398 17.6022 11.3839C17.2611 11.6568 17.1092 12.1647 16.7931 12.4808C15.9566 13.3173 15.2884 14.2661 14.3059 14.9463C13.7262 15.3476 13.2706 16.0786 12.617 16.3691C12.1904 16.5587 10.826 17.2401 10.4177 17.4443Z" stroke="#FF8CBD" stroke-width="2" stroke-linecap="round"/>
</svg>