<svg xmlns="http://www.w3.org/2000/svg" width="28" height="28" viewBox="0 0 28 28" fill="none">
  <path d="M8.28226 6.10593C8.19554 6.11382 8.05862 13.5856 8.05862 14.1511C8.05862 16.4321 8.05862 18.7131 8.05862 20.994C8.05862 21.5065 7.91879 22.1227 8.07105 22.6212C8.31223 23.4108 8.64583 22.7989 8.95316 22.2957C9.48701 21.4218 10.841 20.791 11.4628 19.9364C11.6602 19.6652 13.8772 17.5771 13.8855 17.5861C14.6158 18.3832 15.5776 19.1337 16.507 19.8099C17.4856 20.5219 18.4996 21.4449 19.6876 21.9251C19.7719 21.9592 21.1848 22.5384 20.9797 22.6664C20.8056 22.7749 20.8057 22.0525 20.8057 21.9703C20.8057 21.2652 20.8057 20.5602 20.8057 19.8551C20.8057 17.7941 20.8057 15.733 20.8057 13.672C20.8057 11.6158 20.5821 9.5888 20.5821 7.57034C20.5821 7.36455 20.4709 6.28954 20.3088 6.14209C19.9822 5.84505 18.1952 6.10593 17.5506 6.10593C14.4612 6.10593 11.3717 6.10593 8.28226 6.10593Z" stroke="#C1C1C7" stroke-width="2" stroke-linecap="round"/>
</svg>