<svg width="29" height="28" viewBox="0 0 29 28" fill="none" xmlns="http://www.w3.org/2000/svg">
<g id="local_fire_department">
<path id="Vector" d="M11.5997 23.3806C11.031 23.2182 10.5633 22.9268 9.91995 22.7928C9.37966 22.6802 9.00496 22.4792 8.60019 22.1149C7.68648 21.2925 7.21491 20.0725 6.62654 19.0134C6.39334 18.5937 6.24861 17.7677 6.24861 17.2857C6.24861 16.6558 6.14062 16.0393 6.14062 15.3961C6.14062 14.6428 6.56808 13.7054 6.87249 13.0205C7.13082 12.4393 7.28241 11.8075 7.59837 11.2388C8.28081 10.0104 8.49401 8.35107 9.35605 7.27351C10.4302 5.9308 12.9434 2.27347 12.9434 5.78577C12.9434 6.34745 13.2291 6.86666 13.3693 7.35749C13.6336 8.28229 14.5787 9.16494 15.427 9.5891C16.304 10.0276 18.1199 9.30027 18.8284 8.74925C19.2749 8.40191 19.0516 8.34671 19.4463 8.78524C19.5901 8.94512 19.6934 9.29931 19.7522 9.50511C19.8654 9.90112 20.1901 10.6729 20.4781 10.9928C20.8692 11.4274 20.9716 12.2011 21.3419 12.6126C21.7084 13.0197 21.6111 13.721 21.8518 14.1543C22.1089 14.617 22.0138 15.3443 22.0138 15.882C22.0138 16.4373 21.7195 16.9441 21.6899 17.4477C21.6294 18.4748 21.1728 19.3994 20.67 20.2612C20.2148 21.0416 19.648 21.943 18.8224 22.4148C17.8129 22.9916 16.354 23.2733 15.427 23.3866M11.5997 23.3806C12.7999 23.7236 14.5 23.5 15.427 23.3866M11.5997 23.3806C11.1597 22.8918 10.9998 20.9841 10.9998 20.3632C10.9998 19.3995 11.0626 18.8434 11.5157 17.9876C11.8012 17.4482 12.4523 16.907 12.8834 16.4759C13.1952 16.1641 13.5314 15.9029 13.8073 15.558C14.1161 15.172 14.2139 14.8789 14.6471 15.3121C15.2341 15.8991 15.8194 16.4023 16.3988 17.0158C16.5798 17.2074 17.0917 18.1624 17.2147 18.1976C17.6178 18.3127 17.3544 18.9391 17.5626 19.1994C17.7247 19.402 17.5866 20.249 17.5866 20.5252C17.5866 20.971 17.4376 21.369 17.2387 21.7669C17.0248 22.1946 16.5 23 15.427 23.3866" stroke="#FF8CBD" stroke-width="2" stroke-linecap="round"/>
</g>
</svg>
