<svg width="21" height="16" viewBox="0 0 21 16" fill="none" xmlns="http://www.w3.org/2000/svg">
<path id="Vector 2797" d="M5.0104 14.8217C6.70711 14.8217 8.38339 15.1547 10.0802 14.9105C11.6066 14.691 13.1198 14.2691 14.5872 13.9087C16.1894 13.515 17.0887 12.6196 18.2642 11.3682C19.0933 10.4855 19.682 9.17092 19.925 7.90618C20.0298 7.3605 20.4102 5.17781 17.4987 2.99508C12.1609 0.266801 10.2772 0.803095 6.59529 1.86609C4.63051 2.43334 0.721508 4.01032 1.01572 6.8293C1.12368 7.86375 2.05505 9.01434 2.80452 9.59212C3.82275 10.3771 4.6813 10.8311 5.85256 11.1803C6.62681 11.4111 7.18319 11.2695 8.01336 11.2695C8.44093 11.2695 8.88539 11.6976 8.27884 12.2716C7.35834 13.1427 8.69716 11.9073 7.79358 12.8173C7.26646 13.3482 5.0104 14.6925 5.0104 14.6925" stroke="#C1C1C7" stroke-width="2" stroke-linecap="round"/>
</svg>
