<svg width="21" height="20" viewBox="0 0 21 20" fill="none" xmlns="http://www.w3.org/2000/svg">
<g id="icon_save3">
<path id="Vector 2106" d="M4.55862 10.1511C4.55862 9.58564 4.69554 2.11382 4.78226 2.10593L14.0506 2.10593C14.6952 2.10593 16.4822 1.84505 16.8088 2.14209C16.9709 2.28954 17.0821 3.36455 17.0821 3.57034C17.0821 5.5888 17.3057 7.61578 17.3057 9.67202V15.8551V17.9703V17.9706C17.3057 18.0193 17.3057 18.286 17.3405 18.4775C17.4692 18.5609 17.5365 18.6309 17.4797 18.6664C17.4074 18.7114 17.3652 18.6134 17.3405 18.4775C17.0043 18.2595 16.2486 17.9498 16.1876 17.9251C14.9996 17.4449 13.9856 16.5219 13.007 15.8099C12.0776 15.1337 11.1158 14.3832 10.3855 13.5861C10.3772 13.5771 8.16017 15.6652 7.96282 15.9364C7.34097 16.791 5.98701 17.4218 5.45316 18.2957C5.14583 18.7989 4.81223 19.4108 4.57105 18.6212C4.41879 18.1227 4.55862 17.5065 4.55862 16.9941V10.1511Z" fill="#12C0B5" stroke="#12C0B5" stroke-width="2" stroke-linecap="round"/>
</g>
</svg>
