<svg width="109" height="18" viewBox="0 0 109 18" fill="none" xmlns="http://www.w3.org/2000/svg">
<path d="M8.91766 16.4443C8.56572 16.4443 8.00993 16.0796 7.76639 15.8361C7.27221 15.3419 6.58073 15.0725 5.99062 14.7283C4.92175 14.1048 4.00347 12.8431 3.24822 11.899C2.92692 11.4974 2.61381 11.1311 2.34676 10.6771C1.91461 9.94247 1.1955 8.77571 1.1955 7.89129C1.1955 7.24133 1 6.56559 1 5.88744C1 5.26551 1.16679 4.86809 1.29868 4.27459C1.44957 3.59557 2.43291 2.02278 3.24822 1.97749C3.83978 1.94462 4.43675 1.87974 5.05658 1.87974C5.54368 1.87974 6.15024 2.14566 6.66943 2.17299C7.00604 2.1907 7.91753 2.63343 8.13567 2.9061C8.3479 3.1714 8.73163 3.25937 8.91766 3.58491C9.00118 3.73108 9.19574 3.90318 9.30865 4.03021C9.61878 4.37911 9.77449 4.85421 9.88971 5.25751C9.89464 5.27473 9.8984 5.29962 9.90121 5.3289C9.92627 4.97945 10.027 4.63765 10.1667 4.32346C11.0522 2.33103 12.7345 1 14.9292 1C15.5251 1 16.6669 2.04771 16.8299 2.61829C17.0831 3.50439 17.4218 4.44246 17.4218 5.44757V7.3048C17.4218 7.80066 17.0672 8.22776 17.0308 8.70044C17.0097 8.97456 16.6271 9.61781 16.466 9.81912C16.3392 9.97762 16.2823 10.2398 16.1022 10.3839C15.7611 10.6568 15.6092 11.1647 15.2931 11.4808C14.4566 12.3173 13.7884 13.2661 12.8059 13.9463C12.2262 14.3476 11.7706 15.0786 11.117 15.3691C10.6904 15.5587 9.32604 16.2401 8.91766 16.4443Z" fill="#FF8CBD" stroke="#FF8CBD" stroke-width="2" stroke-linecap="round"/>
<path d="M31.3395 16.4443C30.9876 16.4443 30.4318 16.0796 30.1883 15.8361C29.6941 15.3419 29.0026 15.0725 28.4125 14.7283C27.3436 14.1048 26.4253 12.8431 25.6701 11.899C25.3488 11.4974 25.0357 11.1311 24.7686 10.6771C24.3365 9.94247 23.6174 8.77571 23.6174 7.89129C23.6174 7.24133 23.4219 6.56559 23.4219 5.88744C23.4219 5.26551 23.5887 4.86809 23.7206 4.27459C23.8714 3.59557 24.8548 2.02278 25.6701 1.97749C26.2617 1.94462 26.8586 1.87974 27.4785 1.87974C27.9656 1.87974 28.5721 2.14566 29.0913 2.17299C29.4279 2.1907 30.3394 2.63343 30.5575 2.9061C30.7698 3.1714 31.1535 3.25937 31.3395 3.58491C31.4231 3.73108 31.6176 3.90318 31.7305 4.03021C32.0407 4.37911 32.1964 4.85421 32.3116 5.25751C32.3504 5.39322 32.317 6.00449 32.317 5.49645C32.317 5.08907 32.4267 4.68771 32.5885 4.32346C33.4741 2.33103 35.1564 1 37.3511 1C37.947 1 39.0887 2.04771 39.2518 2.61829C39.5049 3.50439 39.8437 4.44246 39.8437 5.44757C39.8437 6.06665 39.8437 6.68572 39.8437 7.3048C39.8437 7.80066 39.489 8.22776 39.4527 8.70044C39.4316 8.97456 39.049 9.61781 38.8879 9.81912C38.7611 9.97762 38.7042 10.2398 38.5241 10.3839C38.183 10.6568 38.0311 11.1647 37.7149 11.4808C36.8785 12.3173 36.2103 13.2661 35.2278 13.9463C34.6481 14.3476 34.1925 15.0786 33.5389 15.3691C33.1123 15.5587 31.7479 16.2401 31.3395 16.4443Z" stroke="#FF8CBD" stroke-width="2" stroke-linecap="round"/>
<path d="M53.7614 16.4443C53.4095 16.4443 52.8537 16.0796 52.6101 15.8361C52.116 15.3419 51.4245 15.0725 50.8344 14.7283C49.7655 14.1048 48.8472 12.8431 48.092 11.899C47.7707 11.4974 47.4576 11.1311 47.1905 10.6771C46.7584 9.94247 46.0392 8.77571 46.0392 7.89129C46.0392 7.24133 45.8438 6.56559 45.8438 5.88744C45.8438 5.26551 46.0105 4.86809 46.1424 4.27459C46.2933 3.59557 47.2767 2.02278 48.092 1.97749C48.6835 1.94462 49.2805 1.87974 49.9003 1.87974C50.3874 1.87974 50.994 2.14566 51.5132 2.17299C51.8498 2.1907 52.7613 2.63343 52.9794 2.9061C53.1916 3.1714 53.5754 3.25937 53.7614 3.58491C53.8449 3.73108 54.0395 3.90318 54.1524 4.03021C54.4625 4.37911 54.6182 4.85421 54.7335 5.25751C54.7722 5.39322 54.7389 6.00449 54.7389 5.49645C54.7389 5.08907 54.8485 4.68771 55.0104 4.32346C55.8959 2.33103 57.5782 1 59.773 1C60.3689 1 61.5106 2.04771 61.6736 2.61829C61.9268 3.50439 62.2656 4.44246 62.2656 5.44757C62.2656 6.06665 62.2656 6.68572 62.2656 7.3048C62.2656 7.80066 61.9109 8.22776 61.8746 8.70044C61.8535 8.97456 61.4708 9.61781 61.3098 9.81912C61.183 9.97762 61.1261 10.2398 60.9459 10.3839C60.6049 10.6568 60.4529 11.1647 60.1368 11.4808C59.3004 12.3173 58.6321 13.2661 57.6496 13.9463C57.0699 14.3476 56.6144 15.0786 55.9608 15.3691C55.5342 15.5587 54.1698 16.2401 53.7614 16.4443Z" stroke="#FF8CBD" stroke-width="2" stroke-linecap="round"/>
<path d="M76.1833 16.4443C75.8313 16.4443 75.2756 16.0796 75.032 15.8361C74.5378 15.3419 73.8464 15.0725 73.2562 14.7283C72.1874 14.1048 71.2691 12.8431 70.5138 11.899C70.1925 11.4974 69.8794 11.1311 69.6124 10.6771C69.1802 9.94247 68.4611 8.77571 68.4611 7.89129C68.4611 7.24133 68.2656 6.56559 68.2656 5.88744C68.2656 5.26551 68.4324 4.86809 68.5643 4.27459C68.7152 3.59557 69.6985 2.02278 70.5138 1.97749C71.1054 1.94462 71.7024 1.87974 72.3222 1.87974C72.8093 1.87974 73.4159 2.14566 73.9351 2.17299C74.2717 2.1907 75.1832 2.63343 75.4013 2.9061C75.6135 3.1714 75.9973 3.25937 76.1833 3.58491C76.2668 3.73108 76.4614 3.90318 76.5743 4.03021C76.8844 4.37911 77.0401 4.85421 77.1553 5.25751C77.1941 5.39322 77.1608 6.00449 77.1608 5.49645C77.1608 5.08907 77.2704 4.68771 77.4323 4.32346C78.3178 2.33103 80.0001 1 82.1948 1C82.7908 1 83.9325 2.04771 84.0955 2.61829C84.3487 3.50439 84.6874 4.44246 84.6874 5.44757C84.6874 6.06665 84.6874 6.68572 84.6874 7.3048C84.6874 7.80066 84.3328 8.22776 84.2964 8.70044C84.2753 8.97456 83.8927 9.61781 83.7317 9.81912C83.6049 9.97762 83.548 10.2398 83.3678 10.3839C83.0267 10.6568 82.8748 11.1647 82.5587 11.4808C81.7222 12.3173 81.054 13.2661 80.0715 13.9463C79.4918 14.3476 79.0362 15.0786 78.3826 15.3691C77.9561 15.5587 76.5917 16.2401 76.1833 16.4443Z" stroke="#FF8CBD" stroke-width="2" stroke-linecap="round"/>
<path d="M98.6052 16.4443C98.2532 16.4443 97.6974 16.0796 97.4539 15.8361C96.9597 15.3419 96.2682 15.0725 95.6781 14.7283C94.6093 14.1048 93.691 12.8431 92.9357 11.899C92.6144 11.4974 92.3013 11.1311 92.0343 10.6771C91.6021 9.94247 90.883 8.77571 90.883 7.89129C90.883 7.24133 90.6875 6.56559 90.6875 5.88744C90.6875 5.26551 90.8543 4.86809 90.9862 4.27459C91.1371 3.59557 92.1204 2.02278 92.9357 1.97749C93.5273 1.94462 94.1242 1.87974 94.7441 1.87974C95.2312 1.87974 95.8377 2.14566 96.3569 2.17299C96.6935 2.1907 97.605 2.63343 97.8232 2.9061C98.0354 3.1714 98.4191 3.25937 98.6052 3.58491C98.6887 3.73108 98.8832 3.90318 98.9962 4.03021C99.3063 4.37911 99.462 4.85421 99.5772 5.25751C99.616 5.39322 99.5826 6.00449 99.5826 5.49645C99.5826 5.08907 99.6923 4.68771 99.8542 4.32346C100.74 2.33103 102.422 1 104.617 1C105.213 1 106.354 2.04771 106.517 2.61829C106.771 3.50439 107.109 4.44246 107.109 5.44757C107.109 6.06665 107.109 6.68572 107.109 7.3048C107.109 7.80066 106.755 8.22776 106.718 8.70044C106.697 8.97456 106.315 9.61781 106.154 9.81912C106.027 9.97762 105.97 10.2398 105.79 10.3839C105.449 10.6568 105.297 11.1647 104.981 11.4808C104.144 12.3173 103.476 13.2661 102.493 13.9463C101.914 14.3476 101.458 15.0786 100.805 15.3691C100.378 15.5587 99.0135 16.2401 98.6052 16.4443Z" stroke="#FF8CBD" stroke-width="2" stroke-linecap="round"/>
</svg>
