<svg xmlns="http://www.w3.org/2000/svg" width="current" height="current" viewBox="0 0 99 17" fill="none">
  <path d="M21.1762 14.6424C21.2118 15.787 20.0791 16.2126 19.1075 16.1965C18.1842 16.2677 17.5093 15.3927 17.5025 14.5449C17.3686 12.4236 18.5148 10.4261 18.4157 8.31153C18.3393 7.47216 17.5254 7.16778 16.8777 7.34837C16.246 7.54253 15.6288 7.85708 15.1243 8.29457C14.8021 8.57436 14.5537 8.93045 14.3977 9.32809C13.8687 10.6804 13.5422 12.0641 13.2989 13.5037C13.2082 14.1371 13.0335 14.7628 13.0047 15.4029C13.0225 16.277 11.3514 16.1236 10.7571 16.0981C10.1678 15.9888 10.4815 15.1308 10.5595 14.7382C11.0937 12.633 11.4998 10.5024 11.8635 8.36155C12.1043 6.94734 12.3798 5.53992 12.6384 4.12825C12.8538 3.1083 13.1446 1.89672 11.9585 1.38038C11.9262 1.20997 11.9474 0.644454 12.2586 0.505407C13.07 0.143377 13.9127 -0.0151706 14.7962 0.166268C15.522 0.321424 15.9705 0.368904 15.6737 1.24219C15.0946 3.32534 14.9107 5.37628 14.4749 7.52896C15.2286 6.8278 15.9798 6.16054 16.9845 5.85786C18.6624 5.233 20.8981 6.11561 20.9668 8.08854C20.9897 9.83256 20.308 11.5071 20.0545 13.2248C19.8587 14.0803 20.3827 14.4932 21.1754 14.6424H21.1762Z" fill="black"/>
  <path d="M32.6469 14.7717C32.3604 15.8188 31.7618 16.0918 30.9877 16.1003C30.1509 16.1096 29.8736 14.9438 29.0207 14.9362C28.7095 14.9608 28.3458 15.1872 28.033 15.3635C26.0219 16.9524 22.7848 16.4996 22.1905 13.6839C21.179 8.88938 26.0066 3.54031 30.4391 6.56712C30.7011 6.36788 30.9843 6.18983 31.2963 6.07283C31.5269 5.98635 31.7728 5.94565 32.0187 5.94481C32.3451 5.94481 32.8801 5.927 32.836 6.27377C32.6046 8.0907 32.0662 9.8627 31.7228 11.6635C31.4871 13.0752 30.7842 14.681 32.6469 14.7717ZM24.5627 12.4342C24.4974 13.7077 25.33 15.0592 26.7595 14.7183C29.0699 14.0706 29.3904 11.2566 29.8338 9.25141C29.9983 8.5265 29.9075 7.53621 28.9597 7.39801C28.2661 7.29627 27.3284 7.19199 26.7163 7.68204C25.2622 8.84783 24.5924 10.6046 24.5627 12.4342Z" fill="black"/>
  <path d="M74.6054 14.368C74.5859 14.7419 74.4417 15.2048 74.089 15.5541C73.3683 16.268 72.4043 16.5046 71.3394 16.2663C68.901 15.5872 70.9172 11.9525 71.108 10.2678C71.4378 8.78068 71.7193 7.67169 69.8693 7.78276C69.7574 7.78954 69.6666 7.69713 69.6743 7.58521C69.6912 7.34188 69.765 7.08838 70.0897 6.76874C70.7858 6.08368 71.9753 5.52664 73.1038 6.03026C75.0988 7.08837 73.5099 9.67091 73.2573 11.3073C72.9164 12.8351 72.1559 14.7546 74.6045 14.3663L74.6054 14.368Z" fill="black"/>
  <path d="M73.8859 0.57423C75.8979 0.581861 75.6588 3.86218 73.7376 3.79944C71.6112 3.85115 71.6892 0.422466 73.8859 0.57423Z" fill="black"/>
  <path d="M42.0321 12.3545C41.9575 5.7269 50.9387 3.71327 51.3533 8.08561C51.4127 11.176 47.5618 11.7407 45.2124 12.2112C45.0047 12.2799 44.7257 12.3164 44.585 12.3596C44.4357 13.6534 45.4549 15.0413 46.6571 14.9913C48.5605 14.826 48.892 13.5873 50.2248 13.4245C50.4071 13.4025 50.6564 13.4576 50.7344 13.5593C50.859 13.7221 50.9065 14.1138 50.7607 14.3096C48.3884 17.5382 42.0245 17.3051 42.0313 12.3537L42.0321 12.3545ZM44.6977 11.0861C45.894 10.9852 47.1489 10.775 48.1247 10.0195C49.0099 9.4693 49.555 7.66338 48.3384 7.25727C46.1984 6.78841 44.9394 9.29294 44.6977 11.0861Z" fill="black"/>
  <path d="M56.4072 7.21884C58.1928 5.51552 61.641 4.76857 62.3464 7.87168C63.5105 6.34387 66.3397 4.73465 67.8845 6.58465C69.3547 8.49824 67.9879 10.8943 67.7404 13.0045C67.4945 13.9796 67.6191 14.6968 68.8002 14.6816C69.0477 16.2645 66.0642 16.8131 65.4885 15.4082C64.6203 13.5277 65.8174 11.4275 66.026 9.49616C66.4584 7.36128 64.9357 6.77966 63.4172 8.13876C61.5189 9.54703 61.5943 13.4302 60.9779 15.671C60.8406 16.4663 59.2009 16.1534 58.6548 15.9389C58.4946 15.8669 58.3835 15.7846 58.4276 15.5956C58.9507 13.1945 59.6824 10.7645 59.7901 8.31002C59.674 7.58681 59.1245 7.20273 58.4107 7.38756C55.1693 8.21167 55.2796 12.9215 54.6106 15.6108C54.2927 16.2467 53.3312 16.1865 52.7157 16.1619C52.0866 16.0924 51.9501 15.9067 52.0968 15.2725C52.4647 13.8778 52.7708 12.4687 53.048 11.052C53.1142 10.0133 54.1672 7.94968 52.8327 7.45115C52.6657 7.33754 52.363 7.31465 52.3197 7.09166C52.2036 5.94538 54.1994 5.71052 54.859 6.31673C55.2457 6.56854 55.9672 7.47913 55.9773 7.58681C56.0367 7.56561 56.3436 7.28073 56.408 7.22054L56.4072 7.21884Z" fill="black"/>
  <path d="M4.75968 16.43C3.24203 16.4647 0.0524346 15.5609 0.853649 13.5066C0.905368 13.3726 0.985913 13.2497 1.09444 13.1556C1.59043 12.7274 2.35179 12.8851 2.91731 13.4998C3.39295 14.017 3.82026 14.8301 4.48413 15.0649C5.85255 15.3693 7.85262 14.1671 6.64359 12.8046C4.89618 11.3175 1.2869 11.376 2.18392 8.00493C2.9987 4.94251 9.6916 5.05527 9.75603 7.52759C9.76282 7.78364 9.73484 8.0558 9.54916 8.3695C9.41605 8.57468 9.07606 8.67642 8.90564 8.70949C7.94419 8.87058 7.00562 7.62594 6.2858 7.06297C5.92716 6.75436 5.43965 7.00956 5.05134 7.1715C3.72276 7.72514 4.60791 9.40218 5.69485 9.72945C6.51641 10.0279 7.33798 10.3738 8.09256 10.813C9.12608 11.4514 9.5127 12.5875 9.16169 13.7516C8.65044 15.7237 6.53761 16.3672 4.75968 16.43Z" fill="black"/>
  <path d="M93.8123 14.517C91.8267 17.0597 88.1504 17.0343 87.1143 13.6845C86.247 9.51051 89.9088 4.50567 94.4338 5.96058C94.7178 6.03264 95.1078 6.23867 95.3859 6.31922C95.5097 5.98262 95.809 4.2191 95.8794 3.66037C96.1473 2.21395 95.7556 1.65437 95.1239 1.39153C95.1112 1.20925 95.1706 0.636951 95.4241 0.516557C96.1651 0.190136 97.1469 0.0231105 97.7268 0.13757C98.3262 0.256268 99.1851 0.244399 98.857 1.1889C98.4042 2.49034 97.4767 8.55838 96.5966 12.4474C96.4245 13.4072 96.1379 14.6654 97.5767 14.6807C97.5539 15.749 96.2829 16.3018 95.3961 16.278C94.4855 16.2458 93.9971 15.3734 93.8123 14.517ZM89.579 12.4466C89.5926 14.2279 90.9381 15.4463 92.3226 14.4068C92.7762 14.0923 93.2519 13.8082 93.5859 13.3233C94.5694 11.8947 94.6559 10.1057 94.9857 8.36677C95.0264 8.19974 95.0137 8.23281 95.0561 8.06239C95.0035 7.94454 94.873 7.79786 94.7153 7.62829C94.2057 7.0543 93.3986 6.88134 92.6219 7.04158C90.4124 7.70545 89.601 10.3634 89.5782 12.4474L89.579 12.4466Z" fill="black"/>
  <path d="M82.9239 15.544C81.7098 13.371 83.8481 10.49 83.3614 8.18133C82.6959 6.28894 79.8632 8.094 79.413 9.36577C78.5686 11.3608 78.4507 13.5448 77.9929 15.6415C77.9717 15.7526 77.8598 15.8806 77.7555 15.9349C77.3731 16.1909 75.4256 16.5012 75.4654 15.8314C75.6995 14.1663 76.131 12.5401 76.4913 10.8995C76.5651 10.5672 76.6355 10.2331 76.7008 9.89907C76.7152 9.79648 76.7304 9.69134 76.7448 9.58536C76.9873 8.67986 77.145 7.74554 76.2955 7.42844C76.1285 7.31483 75.8258 7.29109 75.7825 7.06811C75.7571 6.8146 75.8343 6.60603 75.9775 6.4407L75.9818 6.43646C76.3845 6.05578 77.034 5.9676 77.6113 5.99474C77.8971 6.03798 78.1531 6.13802 78.3218 6.29318C78.4524 6.37796 78.6313 6.52718 78.8119 6.69167C79.0171 6.92652 79.2112 7.17324 79.4393 7.3479C79.4452 7.35298 79.4571 7.36062 79.469 7.36825C79.4834 7.37673 79.4978 7.38605 79.5063 7.38859C79.8649 7.33603 80.1769 6.88921 80.6543 6.58144C82.5407 5.27407 85.3055 5.358 85.8414 7.81506C86.1899 9.4938 85.4531 11.2022 85.1826 12.8385C84.991 13.9959 84.5535 14.8267 86.1602 14.7699C86.3501 16.2147 83.5429 16.7649 82.9239 15.544Z" fill="black"/>
  <path d="M77.612 5.99457C77.0346 5.96744 76.3851 6.05562 75.9824 6.4363C76.3233 6.04883 77.0295 5.9047 77.612 5.99457Z" fill="black"/>
  <path d="M42.3961 7.92411C41.6823 8.78721 39.9374 9.48669 39.1989 8.3209C38.3239 8.8915 37.4524 9.7775 37.3769 10.9153C37.0513 12.5101 36.7402 14.1074 36.4468 15.7082C36.3112 16.4373 34.7884 15.9685 34.2136 16.0812C33.7464 16.0482 33.9372 15.3801 34.0169 15.0731C34.5163 13.1596 34.8944 11.218 35.2683 9.27557C35.4989 8.16913 35.3319 7.85713 34.6367 7.41201C34.4857 7.33316 34.2721 7.29331 34.1983 7.14663C34.1873 7.12713 34.1797 7.10594 34.1754 7.0822C34.1686 7.01522 34.1686 6.95248 34.1763 6.89143C34.1898 6.83463 34.2026 6.77528 34.217 6.71593C34.3484 6.34457 34.7511 6.1165 35.2064 6.02663C35.7177 5.97915 36.2298 6.15041 36.6282 6.54297C36.6537 6.56755 36.6783 6.59384 36.7029 6.62012C37.2641 7.23566 37.1819 7.7893 37.4608 7.80541C38.8632 7.1992 39.8814 5.53912 41.55 5.73582C42.609 5.81721 43.0676 7.15426 42.3961 7.92411Z" fill="black"/>
  <path d="M34.2165 6.71533C34.2021 6.77468 34.1893 6.83403 34.1758 6.89084C34.1817 6.82894 34.1961 6.77044 34.2165 6.71533Z" fill="black"/>
</svg>