<svg xmlns="http://www.w3.org/2000/svg" width="26" height="24" viewBox="0 0 26 24" fill="none">
  <path d="M12.3531 23.2694C11.8456 23.2694 11.0442 22.7435 10.6931 22.3924C9.9805 21.6798 8.98345 21.2913 8.13256 20.795C6.59135 19.8959 5.26727 18.0766 4.17826 16.7154C3.71498 16.1363 3.2635 15.6082 2.87844 14.9536C2.25531 13.8943 1.21841 12.2119 1.21841 10.9366C1.21841 9.99945 0.936523 9.02509 0.936523 8.04726C0.936523 7.15049 1.17702 6.57745 1.36719 5.72167C1.58476 4.74259 3.00265 2.47476 4.17826 2.40945C5.03123 2.36207 5.89201 2.26851 6.78575 2.26851C7.48811 2.26851 8.36271 2.65194 9.11135 2.69134C9.5967 2.71689 10.911 3.35526 11.2255 3.74843C11.5315 4.13096 12.0849 4.25781 12.3531 4.72722C12.4735 4.93797 12.7541 5.18614 12.9169 5.3693C13.364 5.87238 13.5886 6.55743 13.7547 7.13895C13.7618 7.16379 13.7672 7.19967 13.7713 7.2419C13.8074 6.73802 13.9527 6.24517 14.1541 5.79214C15.4309 2.91922 17.8566 1 21.0212 1C21.8805 1 23.5268 2.5107 23.7618 3.33343C24.1269 4.61111 24.6153 5.96372 24.6153 7.41301C24.6153 8.30566 23.9992 10.9293 23.5216 11.2659C23.3587 11.3807 22.8372 10.5815 21.4684 9.89715C19.0931 8.70947 17.4789 9.15429 15.9932 9.89715C14.5075 10.64 13.2556 12.6347 13.2556 14.6879C13.2556 17.4255 15.3088 18.7943 15.3088 18.7943C16.109 19.6815 13.0489 23.2694 12.3531 23.2694Z" fill="#FF8CBD"/>
  <path d="M15.3088 18.7943C15.3088 18.7943 13.2556 17.4255 13.2556 14.6879C13.2556 12.6347 14.5075 10.64 15.9932 9.89715C17.4789 9.15429 19.0931 8.70947 21.4684 9.89715C22.8372 10.5815 23.3587 11.3807 23.5216 11.2659C23.9992 10.9293 24.6153 8.30566 24.6153 7.41301C24.6153 5.96372 24.1269 4.61111 23.7618 3.33343C23.5268 2.5107 21.8805 1 21.0212 1C17.8566 1 15.4309 2.91922 14.1541 5.79214C13.9206 6.31735 13.7625 6.89608 13.7625 7.48348C13.7625 8.21604 13.8106 7.33463 13.7547 7.13895C13.5886 6.55743 13.364 5.87238 12.9169 5.3693C12.7541 5.18614 12.4735 4.93797 12.3531 4.72722C12.0849 4.25781 11.5315 4.13096 11.2255 3.74843C10.911 3.35526 9.5967 2.71689 9.11135 2.69134C8.36271 2.65194 7.48811 2.26851 6.78575 2.26851C5.89201 2.26851 5.03123 2.36207 4.17826 2.40945C3.00265 2.47476 1.58476 4.74259 1.36719 5.72167C1.17702 6.57745 0.936523 7.15049 0.936523 8.04726C0.936523 9.02509 1.21841 9.99945 1.21841 10.9366C1.21841 12.2119 2.25531 13.8943 2.87844 14.9536C3.2635 15.6082 3.71498 16.1363 4.17826 16.7154C5.26727 18.0766 6.59135 19.8959 8.13256 20.795C8.98345 21.2913 9.9805 21.6798 10.6931 22.3924C11.0442 22.7435 11.8456 23.2693 12.3531 23.2693C13.0489 23.2693 16.109 19.6815 15.3088 18.7943ZM15.3088 18.7943C15.4989 19.0051 15.3258 18.8131 15.3088 18.7943Z" stroke="#FF8CBD" stroke-linecap="round"/>
  <path d="M23.3096 17.7798C22.6429 19.1447 21.3842 20.1477 20.114 21.0306C19.7798 21.2612 19.4387 21.4907 19.07 21.6627C18.4867 22.0581 17.8591 22.3925 17.2036 22.66C16.8193 22.8162 16.325 22.9292 16.0323 22.6406C15.799 22.41 15.8232 22.0197 15.9726 21.729C16.1011 21.4794 16.3024 21.2766 16.4826 21.0595C16.512 21.0236 16.5413 20.9876 16.5693 20.9504C16.8583 20.5734 16.9611 20.1892 17.0122 19.7212C17.0887 19.0644 17.0646 18.5144 16.6827 17.9724C16.6827 17.9724 16.5824 17.8276 16.5612 17.8065C16.54 17.7854 16.4905 17.7367 16.4638 17.7171C15.7423 17.1989 14.7723 16.0284 14.7306 14.8606C14.6876 13.6929 15.2632 12.5333 16.184 11.7705C16.6868 11.3528 17.2891 11.0515 17.9249 10.8725C19.0186 10.5638 19.9957 10.687 20.9979 11.1938C21.9289 11.6645 22.7182 12.4028 23.2087 13.3017C23.954 14.6702 23.9932 16.3765 23.311 17.7784L23.3096 17.7798Z" fill="#12C0B5"/>
</svg>