<svg xmlns="http://www.w3.org/2000/svg" width="120" height="24" viewBox="0 0 120 24" fill="none">
  <path d="M12.9196 11.7703C12.8996 11.4403 12.5296 11.0703 12.3096 10.8703C11.4996 10.1503 10.5996 9.84028 9.75961 9.86028C8.79961 9.89028 7.91961 10.3703 7.25961 10.9803C6.53961 11.6603 5.97961 12.5603 6.05961 13.4403C6.12961 14.2303 6.68961 15.0403 7.76961 15.6003C8.80961 16.1403 9.63961 16.6103 10.1496 17.1703C11.0096 18.1003 11.2296 19.0703 10.9596 19.8303C10.6796 20.6403 9.82961 21.3003 8.75961 21.5803C7.93961 21.8003 6.93961 21.7703 5.90961 21.4903C5.06961 21.2703 4.17961 20.8803 3.34961 20.2303" stroke="black" stroke-width="2.138" stroke-linecap="round" stroke-linejoin="round"/>
  <path d="M18.4594 2.06055C18.3294 3.11055 18.0094 4.19055 17.8394 5.33055C17.6894 6.40055 17.6894 7.53055 17.5194 8.64055C17.3494 9.73055 17.1494 10.8305 16.9594 11.9205C16.7694 13.0305 16.4294 14.1105 16.2294 15.1705C16.0094 16.3005 15.9394 17.4305 15.7194 18.4705C15.4694 19.6405 15.1594 20.6705 14.9194 21.6505C15.2894 20.9505 15.8194 19.9805 16.4094 18.7705C16.8594 17.8405 17.2594 16.7705 17.8094 15.7905C18.3594 14.8005 18.8494 13.7605 19.4694 12.9305C20.2194 11.9205 21.1494 11.2305 21.9494 10.7805C22.9494 10.2305 23.8894 10.2505 24.8794 11.2105C25.3394 11.6605 25.5494 12.5905 25.4694 13.8105C25.4094 14.6405 25.1294 15.5605 24.9094 16.5205C24.6994 17.4205 24.5394 18.3505 24.2494 19.2105C23.9294 20.1705 23.5494 21.0605 23.2094 21.7805" stroke="black" stroke-width="2.2" stroke-linecap="round" stroke-linejoin="round"/>
  <path d="M38.2895 15.0393C38.3795 13.7993 38.3095 12.8393 38.0495 12.1093C37.6395 10.9593 36.9195 10.2993 35.9795 10.1593C35.1095 10.0293 34.0895 10.3593 33.1095 10.8693C32.2695 11.3093 31.4395 11.9093 30.7495 12.6593C30.0695 13.3993 29.5495 14.2693 29.1995 15.1793C28.9595 15.8193 28.6695 16.7793 28.5795 17.7993C28.4995 18.7493 28.5995 19.7193 28.8295 20.4693C29.1195 21.4393 29.7095 22.0693 30.7995 21.7693C31.8795 21.4793 32.8095 20.7693 33.6795 19.9293C34.4795 19.1493 35.2295 18.2393 35.8495 17.2493C36.4895 16.2293 37.1095 15.1993 37.5395 14.2193" stroke="black" stroke-width="2.2" stroke-linecap="round" stroke-linejoin="round"/>
  <path d="M37.3794 14.1407C37.4094 14.0407 37.4494 13.8407 37.4194 14.1007C37.4194 14.1307 37.3794 14.1207 37.3794 14.1407Z" stroke="black" stroke-width="2.2" stroke-linecap="round" stroke-linejoin="round"/>
  <path d="M37.5094 14.1895C37.3994 15.4095 37.0794 16.6795 37.0494 17.9195C37.0194 19.1795 37.1294 20.4895 37.7394 21.6295" stroke="black" stroke-width="2.2" stroke-linecap="round" stroke-linejoin="round"/>
  <path d="M50.7097 15.5299C51.9297 15.8199 53.2497 15.6899 54.5397 15.4999C55.8197 15.3099 57.1097 14.9999 58.2497 14.5199C59.3797 13.8299 59.2997 12.4999 58.4297 11.2799C57.8297 10.4399 56.9697 10.1999 56.0397 10.2199C55.1797 10.2399 54.2497 10.4399 53.4197 10.9499C52.6297 11.4399 51.9397 12.1399 51.4397 12.8699C50.7697 13.8599 50.2997 14.8899 49.9897 15.8699C49.6097 17.0799 49.5697 18.1799 49.8797 19.1299C50.2097 20.1399 50.8997 20.8999 52.1797 21.2799C53.0397 21.5399 54.1197 21.5699 55.4797 21.4099C56.4097 21.2799 57.4897 21.2899 57.9997 20.5499" stroke="black" stroke-width="2.2" stroke-linecap="round" stroke-linejoin="round"/>
  <path d="M63.2496 9.18945C63.3696 9.41945 63.5996 9.69945 63.5896 9.94945C63.5496 10.8795 63.3496 11.8595 63.2596 12.8795C63.1796 13.8395 63.0596 14.8195 62.9196 15.7995C62.7896 16.7795 62.5296 17.7395 62.3496 18.6795C62.1496 19.6795 62.0596 20.6195 61.7896 21.5095C62.3596 20.6395 62.9596 19.5695 63.4696 18.4195C63.9796 17.2695 64.2896 16.0095 64.9696 15.1895C65.6596 14.1695 66.3895 13.0695 67.2295 12.1295C68.0995 11.1695 69.1696 10.4095 70.3996 10.0595C71.4396 9.75945 72.0296 10.7595 72.1696 12.2295C72.2596 13.1395 72.0795 14.2495 71.9795 15.3695C71.8795 16.4295 71.8595 17.5395 71.6895 18.4995C71.4295 20.0095 71.1896 21.2395 71.0796 21.5995C71.4396 20.5095 71.6296 19.4095 72.0296 18.4595C72.4796 17.3795 73.0596 16.4395 73.5396 15.5495C74.1196 14.4795 74.7796 13.6095 75.3596 12.8395C76.1996 11.7295 76.8696 10.8395 77.5796 10.4695C78.6796 9.87945 79.5496 10.3095 79.8496 11.8995C79.9996 12.6895 80.0096 13.7695 79.8596 15.1595C79.7596 16.0895 79.6396 17.1795 79.3796 18.3995C79.1696 19.3695 78.7196 20.3795 78.3996 21.5395" stroke="black" stroke-width="2.1472" stroke-linecap="round" stroke-linejoin="round"/>
  <path d="M85.4595 4.18945C85.7595 4.62945 85.9595 5.13945 86.3895 5.44945" stroke="black" stroke-width="2.2" stroke-linecap="round" stroke-linejoin="round"/>
  <path d="M85.6794 10C85.4294 10.93 85.0494 11.88 84.8094 12.88C84.5794 13.84 84.5094 14.86 84.2694 15.84C84.0294 16.82 83.6694 17.77 83.3894 18.72C83.0994 19.71 82.7294 20.64 82.3794 21.54" stroke="black" stroke-width="2.2" stroke-linecap="round" stroke-linejoin="round"/>
  <path d="M96.0796 21.6291C96.4096 20.7291 96.6795 19.7591 96.9395 18.7991C97.1995 17.8291 97.3296 16.8291 97.4696 15.8991C97.6396 14.8291 97.6695 13.8291 97.6295 12.9691C97.5695 11.6991 97.3496 10.6291 96.6496 10.2491C96.0296 9.90914 95.0295 10.0591 93.7695 10.7991C93.1395 11.1991 92.4795 12.1391 91.7295 13.2091C91.1695 14.0091 90.5796 14.9191 90.0396 15.8691C89.5196 16.7991 89.0496 17.7791 88.6096 18.6891C88.0896 19.7591 87.5996 20.7491 87.2896 21.5591C87.5396 20.6891 87.8295 19.7091 88.0995 18.6891C88.3395 17.7491 88.4396 16.7391 88.6496 15.7591C88.8496 14.7691 89.0995 13.7891 89.1995 12.8291C89.3095 11.7791 89.3395 10.7791 89.2695 9.86914" stroke="black" stroke-width="2.2" stroke-linecap="round" stroke-linejoin="round"/>
  <path d="M110.649 14.0892C110.619 13.9592 110.649 13.8192 110.609 13.6992" stroke="black" stroke-width="2.2" stroke-linecap="round" stroke-linejoin="round"/>
  <path d="M110.16 13.5594C110.11 13.4194 110.19 13.2394 110.14 13.1094" stroke="black" stroke-width="2.2" stroke-linecap="round" stroke-linejoin="round"/>
  <path d="M109.97 21.5592C110.03 20.6992 110.18 19.7992 110.23 18.8892C110.27 17.9992 110.13 17.0892 110.16 16.1992C110.19 15.2892 110.38 14.3892 110.4 13.5192C110.42 13.0792 110.24 12.6392 110.27 12.1992" stroke="black" stroke-width="2.2" stroke-linecap="round" stroke-linejoin="round"/>
  <path d="M109.999 13.12C109.629 11.95 109.219 11.09 108.529 10.62C107.699 10.06 106.639 10.01 105.619 10.35C104.779 10.63 103.929 11.2 103.149 12C102.479 12.56 101.859 13.58 101.399 14.74C100.999 15.75 100.639 16.88 100.559 17.91C100.449 19.23 100.729 20.4 101.399 20.99C102.009 21.52 103.019 21.6 104.499 20.87C105.359 20.32 106.139 19.53 106.909 18.69C107.639 17.9 108.419 17.09 108.959 16.16C109.529 15.19 109.749 14.13 109.999 13.12Z" stroke="black" stroke-width="2.2" stroke-linecap="round" stroke-linejoin="round"/>
  <path d="M110.379 12.2707C110.629 11.1507 110.829 9.9507 111.169 8.8407C111.509 7.7307 112.049 6.6807 112.329 5.5607C112.609 4.4407 112.669 3.3807 112.729 2.2207C112.389 3.1607 112.109 4.2107 111.749 5.4307C111.429 6.5107 111.199 7.6707 110.959 8.8007C110.709 9.9807 110.459 11.1907 110.379 12.2707Z" stroke="black" stroke-width="2.2" stroke-linecap="round" stroke-linejoin="round"/>
  <path d="M42.0502 9.9707C42.0502 9.9707 42.4602 10.2507 42.5202 10.5307C42.5802 10.8107 44.0502 14.7107 41.4502 21.8307C41.4502 21.8307 42.2502 16.2307 44.2002 13.6907C46.1402 11.1507 48.8202 9.9907 48.8202 9.9907" stroke="black" stroke-width="2.1475" stroke-linecap="round" stroke-linejoin="round"/>
</svg>