<svg xmlns="http://www.w3.org/2000/svg" width="29" height="29" viewBox="0 0 29 29" fill="none">
  <path d="M24.3276 2.28206C22.5234 1.51981 20.5038 1.43386 18.6673 2.14974C17.3812 2.65074 16.2827 3.52042 15.4859 4.56992C13.7818 2.32164 11.0588 0.725904 7.91426 1.03804C4.32646 1.39541 1.89238 4.41272 1.23147 7.4176C0.527961 10.6272 1.52393 14.1274 2.92865 17.0802C4.25738 19.8691 6.13418 22.4272 8.53027 24.5658C9.78876 25.6877 11.4157 27.3309 13.3789 26.9408C14.3668 26.7451 15.2131 26.1367 15.9764 25.5701C16.308 25.3224 16.6304 25.0657 16.9448 24.8011C18.711 24.5138 19.4491 22.3017 18.7629 20.939C18.4335 20.2887 17.9983 19.7232 17.8037 19.0209C17.6299 18.3898 17.6218 17.7249 17.7807 17.0893C18.0605 15.9685 18.9505 15.135 20.1687 14.7109C20.825 14.4814 21.5424 14.3728 22.2459 14.3977C23.0945 14.4259 23.7818 14.6793 24.5694 14.9258C25.5619 15.2357 26.4946 15.1656 27.3052 14.5187C28.0962 13.8854 28.513 12.9704 28.7467 12.0589C28.7559 12.0216 28.7663 11.9831 28.7755 11.9458C28.779 11.9266 28.7824 11.9085 28.7859 11.8893C29.5458 8.24091 28.3276 3.97166 24.3276 2.28206ZM26.7951 12.3993C26.7652 12.5237 26.7398 12.63 26.688 12.7544L26.6373 12.8212C26.604 12.8664 26.5614 12.9037 26.5199 12.9433C26.3576 13.0994 26.1065 13.0881 25.8809 13.062C25.654 13.0372 25.441 12.9501 25.228 12.8732C24.6558 12.6662 24.0593 12.526 23.4548 12.4525C22.3046 12.3145 21.2902 12.5113 20.171 12.7149C20.0778 12.7318 19.912 12.7895 19.821 12.8257C19.1278 13.1276 18.5441 13.4183 17.9949 13.9102C16.5245 15.2255 15.6748 17.0259 15.6356 18.8942C15.6183 19.7176 15.7818 20.5624 16.1388 21.3201C16.3219 21.7125 16.5671 22.0676 16.7824 22.4442C16.7905 22.4578 16.8193 22.5132 16.8538 22.5844H16.855C16.8584 22.6037 16.855 22.624 16.8434 22.6399C16.4428 22.9972 16.0259 23.3399 15.5942 23.6667C15.091 24.049 14.5291 24.5364 13.8578 24.6507C13.1463 24.7717 12.528 24.3883 11.9914 24.0117C11.3892 23.5898 10.8227 23.1239 10.2816 22.641C8.23781 20.8168 6.54408 18.6771 5.28559 16.3451C4.5153 14.9168 3.8636 13.3482 3.46521 11.7468C3.15778 10.8861 3.02192 9.96783 3.06106 9.05631C3.09215 8.36079 3.22341 7.66979 3.45715 7.01385C3.84748 5.91912 4.52105 4.92503 5.38807 4.13565C5.7853 3.77262 6.27235 3.51477 6.80545 3.41072C6.87914 3.39715 6.95513 3.38358 7.03113 3.37227C8.63389 3.13138 10.2827 3.61316 11.5884 4.43987C12.2263 4.84474 12.7744 5.33443 13.2591 5.88293C13.5032 6.16227 13.73 6.45405 13.9396 6.756C14.2194 7.16088 14.3242 7.52164 14.901 7.59854C15.5216 7.68223 16.1169 6.95052 16.2804 6.51059C17.2775 3.84613 20.8941 3.42995 23.4053 4.71016C26.4025 6.23804 27.4215 9.48267 26.7962 12.3971L26.7951 12.3993Z" fill="#33333A"/>
  <path d="M26.0219 21.1497C25.4347 22.2761 24.3604 23.087 23.2792 23.7972C22.9948 23.9827 22.7047 24.167 22.3926 24.3027C21.8964 24.6205 21.3644 24.8863 20.8106 25.0955C20.4859 25.2177 20.0702 25.3013 19.8319 25.0537C19.6419 24.8558 19.6707 24.5301 19.802 24.2903C19.9148 24.0845 20.0875 23.9194 20.2429 23.7418C20.2683 23.7124 20.2936 23.683 20.3178 23.6525C20.5676 23.3437 20.6621 23.0248 20.715 22.6346C20.7933 22.0873 20.7853 21.627 20.4778 21.1655C20.4778 21.1655 20.3972 21.0423 20.38 21.0242C20.3627 21.0061 20.3224 20.9642 20.3005 20.9473C19.7087 20.4983 18.9234 19.4986 18.9142 18.5214C18.9039 17.5443 19.4105 16.5876 20.1969 15.9701C20.6264 15.6319 21.1364 15.3933 21.6718 15.2576C22.593 15.0235 23.407 15.1479 24.2337 15.5935C25.0017 16.0074 25.6454 16.6418 26.0357 17.4041C26.6287 18.5644 26.6241 19.9916 26.023 21.1486L26.0219 21.1497Z" fill="#24A78B"/>
</svg>