<svg width="20" height="18" viewBox="0 0 20 18" fill="none" xmlns="http://www.w3.org/2000/svg">
<path id="Vector 2070" d="M9.60516 16.4443C9.25322 16.4443 8.69743 16.0796 8.45389 15.8361C7.95971 15.3419 7.26823 15.0725 6.67812 14.7283C5.60925 14.1048 4.69097 12.8431 3.93572 11.899C3.61442 11.4974 3.30131 11.1311 3.03426 10.6771C2.60211 9.94247 1.883 8.77571 1.883 7.89129C1.883 7.24133 1.6875 6.56559 1.6875 5.88744C1.6875 5.26551 1.85429 4.86809 1.98618 4.27459C2.13707 3.59557 3.12041 2.02278 3.93572 1.97749C4.52728 1.94462 5.12425 1.87974 5.74408 1.87974C6.23118 1.87974 6.83774 2.14566 7.35693 2.17299C7.69354 2.1907 8.60503 2.63343 8.82317 2.9061C9.0354 3.1714 9.41913 3.25937 9.60516 3.58491C9.68868 3.73108 9.88324 3.90318 9.99615 4.03021C10.3063 4.37911 10.462 4.85421 10.5772 5.25751C10.5821 5.27473 10.5859 5.29962 10.5887 5.3289C10.6138 4.97945 10.7145 4.63765 10.8542 4.32346C11.7397 2.33103 13.422 1 15.6167 1C16.2126 1 17.3544 2.04771 17.5174 2.61829C17.7706 3.50439 18.1093 4.44246 18.1093 5.44757V7.3048C18.1093 7.80066 17.7547 8.22776 17.7183 8.70044C17.6972 8.97456 17.3146 9.61781 17.1535 9.81912C17.0267 9.97762 16.9698 10.2398 16.7897 10.3839C16.4486 10.6568 16.2967 11.1647 15.9806 11.4808C15.1441 12.3173 14.4759 13.2661 13.4934 13.9463C12.9137 14.3476 12.4581 15.0786 11.8045 15.3691C11.3779 15.5587 10.0135 16.2401 9.60516 16.4443Z" fill="#F04A63" stroke="#F04A63" stroke-width="2" stroke-linecap="round"/>
</svg>
