<svg width="52" height="50" viewBox="0 0 52 50" fill="none" xmlns="http://www.w3.org/2000/svg">
<g id="Frame 335">
<g id="Group 87">
<path id="Vector 2081" d="M19.1355 19.9261C20.4185 19.9261 21.7037 20.0056 22.9928 20.0056C23.5953 20.0056 24.1826 19.9261 24.7866 19.9261C25.2218 19.9261 25.644 19.9404 26.0724 19.8642C27.0903 19.6833 28.2052 19.767 29.2448 19.767C30.423 19.767 31.5599 19.6875 32.7353 19.6875" stroke="#33333A" stroke-width="2" stroke-linecap="round"/>
<path id="Vector 2082" d="M18.9763 24.7757C19.48 24.7757 19.9837 24.7757 20.4874 24.7757C20.9702 24.7757 21.4288 24.6166 21.919 24.6166C23.3177 24.6166 24.725 24.5371 26.1341 24.5371C27.7247 24.5371 29.3154 24.5371 30.906 24.5371" stroke="#33333A" stroke-width="2" stroke-linecap="round"/>
<path id="Vector 2090" d="M14.4763 34.4903C14.4763 32.9935 14.4763 31.4966 14.4763 29.9998C14.4763 29.6701 14.6134 29.3463 14.6134 29.0209C14.6134 28.7644 14.6134 28.508 14.6134 28.2515C14.6134 27.4144 14.682 26.5363 14.682 25.6806C14.682 23.9202 14.7506 22.138 14.7506 20.3673C14.7506 19.8925 14.7506 19.4176 14.7506 18.9428C14.7506 18.6558 14.6439 18.105 14.7658 17.8306C14.9699 17.3714 14.7464 16.7275 14.9905 16.2881C15.2999 15.7312 15.5096 15.3602 16.0836 15.0883C16.684 14.8039 17.396 14.8269 18.0223 14.6427C18.5799 14.4787 19.3087 14.4713 19.8886 14.4713C22.357 14.4713 24.8529 14.4027 27.3043 14.4027C29.7477 14.4027 32.1773 14.3342 34.6172 14.3342C35.2889 14.3342 35.9605 14.3342 36.6321 14.3342C37.2801 14.3342 37.9306 14.3162 38.5784 14.3342C38.6915 14.3373 38.7869 14.4671 38.8107 14.5741C38.9261 15.0934 38.8831 15.6479 38.8831 16.1852C38.8831 17.0687 38.9517 17.9497 38.9517 18.8247C38.9517 20.4993 38.9517 22.1739 38.9517 23.8485C38.9517 24.502 39.1573 25.1641 39.1573 25.8177C39.1573 26.3319 39.1573 26.8461 39.1573 27.3603C39.1573 27.8629 39.2259 28.3276 39.2259 28.8343C39.2259 29.127 38.9877 29.2322 38.7993 29.4018C38.6358 29.5489 38.0819 29.7346 37.8547 29.7598C37.5955 29.7886 37.3329 29.9215 37.0701 29.9693C36.4867 30.0754 35.9431 30.1026 35.3371 30.1026C34.3481 30.1026 33.3591 30.1026 32.37 30.1026C29.9754 30.1026 27.6182 30.2397 25.2247 30.2397C23.3102 30.2397 21.3956 30.2397 19.4811 30.2397C19.2399 30.2397 18.9986 30.2397 18.7574 30.2397C18.3661 30.2397 18.4051 30.2896 18.1518 30.5711C17.9839 30.7576 17.822 31.0216 17.6986 31.2376C17.4886 31.6051 17.1182 31.8939 16.8606 32.2279C16.7502 32.371 16.6397 32.5951 16.4988 32.7078C16.4167 32.7735 16.2575 32.8885 16.2055 32.982C16.1009 33.1704 15.9664 33.343 15.8132 33.4962C15.6468 33.6627 15.5799 33.9335 15.4361 34.1133C15.231 34.3697 14.6298 34.647 14.5449 34.9017" stroke="#33333A" stroke-width="2" stroke-linecap="round"/>
</g>
</g>
</svg>
