<svg xmlns="http://www.w3.org/2000/svg" width="28" height="28" viewBox="0 0 28 28" fill="none">
  <path d="M19.0116 12.2449C18.9755 12.6058 18.7364 13.1511 18.5898 13.481C18.5227 13.6318 18.554 13.8041 18.4818 13.9666C18.4017 14.1468 18.2971 14.3161 18.217 14.4963C17.9844 15.0196 17.1374 15.9314 16.6277 16.1984C15.1752 16.9592 13.4058 17.4541 11.7276 17.4541C10.8305 17.4541 9.82876 17.2354 9.05429 16.7477C8.18448 16.2001 6.89013 15.7745 6.40555 14.8053C5.70892 13.4121 6.12105 11.6704 6.12105 10.17C6.12105 9.4201 6.55188 8.19881 7.16093 7.74202C7.47944 7.50314 7.78071 7.28989 8.15175 7.10436C8.58082 6.88983 9.11017 6.86621 9.52027 6.63838C10.1732 6.27565 11.0928 6.38582 11.7717 6.08411C12.3162 5.84209 13.3536 6.18699 13.8907 6.30974C14.6696 6.48777 15.2776 6.48879 15.9214 7.0406C16.4194 7.46744 17.0468 7.75511 17.4272 8.32573C17.8275 8.92607 18.4818 9.61222 18.4818 10.3908C18.4818 10.7162 18.6584 11.0454 18.6584 11.4061C18.6584 11.7808 18.5701 12.1497 18.5701 12.5098" stroke="black" stroke-width="2" stroke-linecap="round"/>
  <path d="M16.627 16.7476C16.6503 16.9347 17.0848 17.0809 17.2254 17.2086C17.5137 17.4708 17.9266 17.7901 18.2652 17.9836C18.8138 18.2971 19.2755 18.9056 19.7171 19.3472C20.7421 20.3722 21.9989 21.1855 22.8073 22.3982" stroke="black" stroke-width="2" stroke-linecap="round"/>
</svg>