<svg width="60" height="48" viewBox="-5 0 60 48" fill="none" xmlns="http://www.w3.org/2000/svg">
<path d="M32.8418 10.7196C32.9131 10.7252 32.9846 10.7306 33.0561 10.7361C32.9635 10.9878 32.8881 11.2474 32.7193 11.4645C32.6944 11.4965 32.6762 11.5364 32.6645 11.5755C32.5805 11.8565 32.6287 12.1139 32.8385 12.321C33.0258 12.506 33.2543 12.5842 33.521 12.516C33.7826 12.449 33.9582 12.2928 34.0446 12.0356C34.0969 11.8798 34.125 11.7105 34.2705 11.6029C34.4139 11.6053 34.5553 11.6126 34.6733 11.7123C34.8041 11.8228 34.9533 11.8746 35.1259 11.845C35.0763 11.908 35.0366 11.9848 34.9743 12.0309C34.8937 12.0908 34.7864 12.115 34.7054 12.1746C34.4913 12.3323 34.3806 12.5518 34.4186 12.8164C34.4556 13.0742 34.592 13.2738 34.8484 13.3739C34.9651 13.4193 35.0844 13.4635 35.2074 13.4269C35.4614 13.3516 35.6949 13.2189 35.9604 13.1682C36.0519 13.1507 36.1411 13.0683 36.209 12.9948C36.2972 12.8993 36.4118 12.8617 36.5168 12.7999C36.6857 12.7004 36.8726 12.7098 37.0517 12.672C37.3079 12.711 37.5497 12.7888 37.7644 12.9386C37.7064 13.0247 37.6418 13.1068 37.5922 13.1972C37.3518 13.6341 37.5662 14.1558 38.044 14.2963C38.1228 14.3195 38.2085 14.3186 38.2889 14.3376C38.4704 14.3807 38.6603 14.4072 38.8282 14.4823C38.9826 14.5513 39.1323 14.6089 39.3007 14.6211C39.4126 14.629 39.4901 14.6963 39.5512 14.7854C39.7861 15.1281 39.9633 15.4982 40.1211 15.8832C40.2018 16.0803 40.2777 16.2711 40.2636 16.478C40.2462 16.7349 40.3322 16.9721 40.3823 17.2125C40.4609 17.59 40.9154 17.7333 41.1682 17.6233C41.3301 17.5529 41.4537 17.4589 41.5299 17.3016C41.5856 17.1866 41.6517 17.0939 41.798 17.075C41.9469 17.0558 42.0519 16.9448 42.1699 16.8601C42.233 16.815 42.3238 16.7886 42.402 16.7886C42.5879 16.7886 42.7744 16.8034 42.959 16.8253C43.0141 16.8318 43.0753 16.8708 43.114 16.9131C43.2112 17.0193 43.3036 17.1263 43.3706 17.261C43.6015 17.7266 43.8029 18.1975 43.82 18.7286C43.8233 18.8306 43.8545 18.9329 43.8814 19.0327C43.9803 19.3997 44.0212 19.7616 43.8761 20.1309C43.8063 20.3085 43.8076 20.5109 43.9022 20.6778C44.0381 20.9175 44.0567 21.1908 44.1589 21.4413C44.2663 21.7044 44.3393 21.9881 44.4147 22.2672C44.4912 22.5495 44.5904 22.8164 44.5222 23.1131C44.5132 23.1524 44.515 23.1975 44.5242 23.237C44.6138 23.622 44.607 24.0166 44.644 24.4069C44.6536 24.5087 44.6724 24.615 44.7134 24.7072C44.8264 24.961 44.8479 25.228 44.8472 25.4982C44.8465 25.6842 44.84 25.8718 44.8144 26.0557C44.7857 26.2611 44.8814 26.4651 44.7943 26.6744C44.7591 26.7588 44.8027 26.8762 44.8106 26.9784C44.8169 27.0602 44.8406 27.1449 44.8264 27.223C44.7877 27.4363 44.8174 27.634 44.9091 27.8287C44.974 27.9663 44.9733 28.1154 44.9158 28.2533C44.8497 28.4128 44.8639 28.5792 44.8423 28.7428C44.8209 28.9056 44.7504 29.0571 44.7474 29.2291C44.7446 29.3922 44.663 29.555 44.6657 29.7171C44.6713 30.0582 44.5757 30.367 44.4456 30.6742C44.4066 30.7663 44.385 30.8779 44.3953 30.9763C44.4131 31.1455 44.3766 31.3053 44.363 31.4698C44.3474 31.6573 44.3082 31.8364 44.2713 32.0192C44.235 32.1981 44.2608 32.3893 44.2574 32.5751C44.2516 32.8849 44.2427 33.1948 44.2393 33.5047C44.2386 33.566 44.243 33.6338 44.268 33.6879C44.3782 33.9264 44.3552 34.1827 44.3279 34.4232C44.3037 34.6369 44.3343 34.8287 44.3658 35.0344C44.4245 35.4183 44.53 35.806 44.3811 36.198C44.329 36.3352 44.3435 36.4868 44.3975 36.6266C44.4915 36.8701 44.4799 37.1123 44.4053 37.3574C44.3874 37.4162 44.3772 37.4796 44.3766 37.5409C44.3749 37.7176 44.3106 37.8702 44.1846 37.9868C44.0253 38.1343 43.9229 38.3084 43.8854 38.5198C43.8613 38.6563 43.7776 38.7395 43.6609 38.7976C43.5284 38.8636 43.3979 38.942 43.3354 39.0773C43.2103 39.3481 42.9436 39.4979 42.7926 39.7513C42.6885 39.9261 42.4742 39.9202 42.2818 39.8765C42.2206 39.8626 42.1406 39.7493 42.1465 39.6855C42.1502 39.6444 42.146 39.6 42.1607 39.5631C42.267 39.299 42.279 39.0437 42.139 38.7824C42.0928 38.6961 42.0777 38.5792 42.0867 38.4798C42.1153 38.1692 42.1058 37.8604 42.0903 37.5503C42.0852 37.448 42.0964 37.3396 42.1264 37.2422C42.1835 37.0564 42.1904 36.8788 42.1275 36.6928C42.0678 36.5163 42.1289 36.3218 42.0433 36.1428C41.9163 35.8773 41.8695 35.592 41.8654 35.2966C41.864 35.1975 41.8278 35.092 41.7828 35.0018C41.5375 34.5097 41.2341 33.7727 41.0996 33.3452C41.0485 33.1829 41.0186 33.0265 41.071 32.8586C41.1364 32.6491 41.1085 32.4457 40.9967 32.258C40.845 32.0028 40.8091 31.7133 40.757 31.4314C40.7301 31.2866 40.7159 31.1433 40.626 31.023C40.5493 30.9201 40.5251 30.7993 40.4837 30.6821C40.3994 30.4435 40.3848 30.1949 40.349 29.9498C40.3195 29.7468 40.2842 29.5348 40.3123 29.3354C40.3462 29.0949 40.2087 28.8903 40.2267 28.6613C40.2443 28.4363 40.1463 28.2618 39.9996 28.1024C39.9618 28.0614 39.9231 27.9905 39.9321 27.9421C39.9996 27.5774 40.0789 27.215 40.1544 26.8518C40.3148 26.593 40.3348 26.309 40.3211 26.0134C40.3144 25.8703 40.3445 25.725 40.361 25.5811C40.3826 25.3944 40.4133 25.2101 40.5201 25.0486C40.6175 24.9012 40.6293 24.7377 40.6073 24.569C40.5692 24.2769 40.5788 23.9921 40.6961 23.7141C40.7264 23.6423 40.7294 23.5468 40.7122 23.4696C40.6585 23.2275 40.5979 22.9861 40.5236 22.7496C40.4411 22.4868 40.1828 22.3192 39.8994 22.3234C39.5555 22.3285 39.2564 22.616 39.2512 22.9536C39.249 23.0981 39.2735 23.2437 39.2642 23.3875C39.2531 23.557 39.2603 23.7182 39.3352 23.874C39.4012 24.0113 39.4002 24.1649 39.3647 24.3022C39.3071 24.5249 39.2862 24.7477 39.2765 24.9754C39.2721 25.0768 39.2546 25.1962 39.1972 25.2736C39.0436 25.4806 39.0313 25.7415 38.9047 25.957C38.8303 26.0838 38.8147 26.2292 38.8081 26.3773C38.7877 26.8392 38.6367 27.2663 38.4498 27.684C38.2901 28.0405 38.0393 28.3487 37.9382 28.7394C37.8828 28.953 37.756 29.155 37.631 29.3418C37.5364 29.4832 37.4663 29.6268 37.4197 29.7878C37.312 30.159 37.1503 30.5632 36.9384 30.7833C36.721 31.0091 36.5995 31.3031 36.3645 31.5138C36.2938 31.5772 36.2616 31.6911 36.2296 31.7878C36.204 31.8652 36.2034 31.9513 36.1953 32.0339C36.1864 32.1255 36.1285 32.1764 36.058 32.2255C35.9089 32.3293 35.7678 32.3704 35.6055 32.2427C35.5443 32.1945 35.4547 32.1748 35.3748 32.1592C34.874 32.0604 34.4585 32.3943 34.4443 32.9026C34.5431 33.1924 34.3658 33.4763 34.4261 33.7653C34.371 34.3739 34.26 34.575 33.7487 34.9463C33.6296 35.0328 33.5191 35.1204 33.4336 35.2419C33.3626 35.3431 33.2719 35.4303 33.1984 35.5299C33.0662 35.7091 32.904 35.8153 32.6706 35.7969C32.495 35.783 32.3475 35.8631 32.2137 35.9678C32.1649 36.0061 32.1243 36.0548 32.0775 36.096C32.0121 36.1536 31.9334 36.1751 31.8473 36.1704C31.7436 36.1648 31.6391 36.1469 31.5364 36.1542C31.1239 36.1837 30.7123 36.2235 30.2998 36.2547C29.9053 36.2845 29.5142 36.2784 29.1319 36.1501C28.7995 36.0385 28.4644 35.9376 28.1593 35.7565C28.0733 35.7055 27.9644 35.6635 27.8676 35.6668C27.6522 35.674 27.4565 35.5954 27.2619 35.5379C26.9468 35.4445 26.6499 35.291 26.3381 35.184C26.1338 35.1141 25.9897 34.9632 25.8145 34.8554C25.6791 34.6233 25.453 34.5262 25.2152 34.4385C25.1426 34.4116 25.0772 34.3456 25.0268 34.283C24.9622 34.2028 24.9103 34.1107 24.8626 34.0188C24.7146 33.7337 24.6261 33.4449 24.7961 33.1317C24.8443 33.0427 24.8566 32.935 24.8916 32.8383C24.9759 32.605 25.0257 32.3476 25.1593 32.1464C25.3775 31.8179 25.5011 31.436 25.7422 31.128C25.9911 30.8101 26.1196 30.4426 26.263 30.0777C26.2707 30.0585 26.2674 30.0285 26.2803 30.0193C26.312 29.9968 26.3603 29.9598 26.3844 29.97C26.6621 30.0869 26.9618 29.9859 27.2456 30.0655C27.4047 30.1101 27.5662 30.0499 27.7267 29.9854C28.0513 29.855 28.3681 29.7015 28.7118 29.6176C28.8292 29.5889 28.9356 29.5146 29.0466 29.4606C29.139 29.4156 29.2268 29.3563 29.3238 29.327C29.5363 29.2625 29.6849 29.1328 29.7871 28.939C29.8354 28.8477 29.9015 28.7659 29.9507 28.6751C30.1083 28.3834 30.2819 28.0976 30.2402 27.741C30.231 27.662 30.2644 27.5775 30.2809 27.4962C30.3287 27.2615 30.3058 27.0405 30.1525 26.8467C30.0735 26.7468 30.0312 26.6338 29.9949 26.5122C29.9393 26.3266 29.8183 26.1777 29.6432 26.0944C29.509 26.0306 29.408 25.9229 29.2857 25.8526C28.9649 25.6686 28.6931 25.3969 28.321 25.3043C28.1551 25.1811 27.9286 25.1589 27.791 24.9866C27.7704 24.9607 26.9703 24.6336 26.9366 24.6306C26.875 24.6251 26.8094 24.6097 26.7515 24.6236C26.5394 24.6745 26.3446 24.5569 26.1347 24.5697C26.0381 24.5757 25.9365 24.5199 25.8391 24.4864C25.6965 24.4371 25.5404 24.4152 25.4113 24.4759C25.0797 24.6318 24.6736 24.6451 24.4321 24.9833C24.3889 25.0439 24.2879 25.0609 24.2186 25.1057C23.9717 25.2653 23.8522 25.4949 23.8583 25.7883C23.8608 25.9126 23.8931 26.0405 23.8722 26.1599C23.8267 26.4193 23.8732 26.6467 24.0025 26.8765C24.0811 27.0163 24.1208 27.1791 24.0627 27.3562C24.0014 27.5431 24.0633 27.7241 24.1554 27.8944C24.2241 28.0214 24.2978 28.1483 24.3455 28.2835C24.4292 28.5198 24.6283 28.691 24.6922 28.9407C24.7154 29.0315 24.8233 29.0982 24.8827 29.1827C24.9658 29.3009 25.0377 29.4265 25.1179 29.5466C25.1602 29.6099 25.1469 29.6683 25.0892 29.6969C24.7886 29.8456 24.6196 30.0802 24.5384 30.4085C24.4849 30.6252 24.3736 30.8285 24.2139 31.0013C24.1322 31.0898 24.0799 31.2078 24.0234 31.3172C23.8055 31.7395 23.5995 32.1695 23.2015 32.4625C23.0333 32.7621 22.7528 32.7961 22.4513 32.7785C22.3489 32.7726 22.2431 32.7771 22.1454 32.7518C21.9977 32.7136 21.8596 32.7198 21.7182 32.7724C21.5293 32.8426 21.3591 32.8214 21.1936 32.6895C21.0986 32.6137 20.9728 32.585 20.8462 32.5636C20.5398 32.5116 20.2316 32.4312 19.9755 32.26C19.7358 32.0999 19.4929 31.9493 19.2459 31.8015C19.0856 31.7057 18.9334 31.6125 18.7544 31.5468C18.4607 31.4388 18.1907 31.2782 18.0684 30.957C18.0468 30.8999 18.016 30.8396 17.9729 30.7979C17.6408 30.4775 17.4729 30.0399 17.1795 29.6908C17.0907 29.5853 17.0246 29.4445 17.0327 29.2884C17.0418 29.1147 16.975 28.9658 16.88 28.8235C16.8114 28.7211 16.7407 28.6142 16.7028 28.4988C16.6488 28.334 16.5633 28.1965 16.4334 28.0881C16.3272 27.9994 16.2911 27.8942 16.302 27.7591C16.3105 27.6564 16.307 27.5509 16.2939 27.4486C16.2483 27.0934 16.3129 26.7437 16.3571 26.3958C16.388 26.1528 16.4469 25.9049 16.6079 25.7016C16.6203 25.6861 16.6265 25.6636 16.6299 25.6437C16.6508 25.5216 16.6465 25.3885 16.6959 25.2797C16.7574 25.1444 16.9335 25.1275 17.0377 25.0286C17.188 24.8861 17.3433 24.7483 17.4868 24.5992C17.6811 24.3971 17.7007 24.0918 17.5467 23.8509C17.3931 23.6107 17.1211 23.4983 16.8439 23.578C16.6658 23.6292 16.4948 23.7049 16.3197 23.7672C16.0895 23.8491 15.9215 23.9999 15.8539 24.2345C15.7768 24.5017 15.64 24.7249 15.4399 24.915C15.2779 25.0688 15.2079 25.2707 15.2432 25.4826C15.2754 25.6753 15.2387 25.8539 15.2095 26.0368C15.1446 26.444 15.0751 26.8504 15.0079 27.2553C14.9598 27.2602 14.9166 27.2755 14.8788 27.267C14.5815 27.2006 14.353 27.2983 14.1679 27.5359C14.0799 27.6489 13.982 27.7648 13.864 27.8419C13.5282 28.0611 13.2897 28.3726 13.0326 28.6677C13.0056 28.6986 12.9913 28.7442 12.9594 28.7665C12.9101 28.8013 12.8533 28.83 12.7954 28.847C12.5844 28.9092 12.3829 28.8542 12.1905 28.7728C12.0664 28.7202 12.0341 28.5876 11.9788 28.4764C11.9145 28.3467 11.8348 28.2245 11.77 28.0949C11.6642 27.883 11.6247 27.6568 11.7119 27.433C11.7747 27.2723 11.7781 27.1132 11.7858 26.9462C11.8 26.6377 11.8643 26.3324 11.8198 26.02C11.8054 25.9198 11.8118 25.8058 11.8455 25.7114C11.9446 25.4339 12.0132 25.1589 11.945 24.8616C11.9326 24.8081 11.9787 24.7431 11.9894 24.6819C12.0002 24.6209 12.016 24.5546 12.0027 24.4968C11.9652 24.3356 11.8739 24.1764 11.8786 24.0186C11.8839 23.8399 11.9723 23.664 12.0197 23.4857C12.03 23.4469 12.0203 23.4029 12.0197 23.3614C12.0129 22.8387 12.1105 22.3313 12.2555 21.8328C12.3245 21.5958 12.3924 21.3557 12.5569 21.158C12.6084 21.096 12.6529 21.0178 12.6712 20.9403C12.7376 20.6584 12.7976 20.3747 12.8488 20.0897C12.889 19.8657 12.9184 19.646 13.0554 19.4479C13.2091 19.2257 13.1664 18.9216 13.3351 18.6983C13.3588 18.6669 13.3719 18.6209 13.3735 18.5809C13.3775 18.4781 13.3905 18.3704 13.3668 18.2727C13.3254 18.1016 13.3306 17.932 13.4141 17.7882C13.5356 17.5793 13.5452 17.362 13.5617 17.1312C13.5778 16.9066 13.6237 16.6828 13.6363 16.4554C13.6432 16.3315 13.6752 16.2091 13.7616 16.1095C13.8915 15.96 13.9227 15.7819 13.9319 15.5884C13.9388 15.4465 13.9722 15.2993 14.026 15.1679C14.08 15.0359 14.1826 14.9245 14.2484 14.796C14.3235 14.6496 14.3144 14.4726 14.4184 14.3312C14.4778 14.2502 14.5256 14.1493 14.5428 14.0509C14.5794 13.8405 14.6962 13.6657 14.7719 13.4733C14.8332 13.3172 14.9315 13.1841 15.0884 13.1029C15.2409 13.0241 15.3426 12.899 15.4257 12.748C15.5563 12.5105 15.7166 12.299 15.9697 12.1674C16.1215 12.0886 16.2031 11.9365 16.2644 11.7773C16.3986 11.4294 16.5858 11.1071 16.7695 10.7851C16.9377 10.4903 17.1696 10.2612 17.5283 10.1942C17.6936 10.1633 17.8251 10.0589 17.954 9.94778C18.2568 9.68683 18.6055 9.51625 19.0049 9.44945C19.1247 9.42947 19.249 9.38577 19.3514 9.32132C19.7776 9.0524 20.2408 8.89024 20.7323 8.79222C20.8503 8.76866 20.9725 8.71403 21.0683 8.6413C21.3327 8.44044 21.601 8.25034 21.9131 8.12969C21.9514 8.11487 21.991 8.09473 22.0199 8.06664C22.2727 7.8202 22.6456 7.73936 22.8673 7.45078C23.0648 7.37087 23.1939 7.19623 23.3665 7.08651C23.5444 6.97336 23.7013 6.84569 23.8398 6.689C23.8965 6.62485 23.9833 6.60878 24.0685 6.61034C24.1514 6.6119 24.2472 6.59191 24.3146 6.62625C24.5523 6.74752 24.7886 6.73488 25.0421 6.68962C25.2798 6.64702 25.4994 6.71397 25.6311 6.94214C25.7289 7.11164 25.8694 7.22713 26.0456 7.30439C26.2774 7.40615 26.4714 7.5666 26.631 7.75341C26.8244 7.97972 27.0612 8.06696 27.3429 8.07429C27.4465 8.07695 27.5503 8.07851 27.6538 8.07429C28.0791 8.05666 28.4744 8.14546 28.8323 8.38628C28.8989 8.43123 28.9834 8.47383 29.0605 8.47508C29.3359 8.47976 29.5741 8.63646 29.8466 8.65316C29.9232 8.65784 30.0144 8.70295 30.0676 8.75914C30.2226 8.92301 30.3818 9.08923 30.5015 9.27855C30.6168 9.46084 30.7479 9.60926 30.9391 9.7065C31.0942 9.78547 31.2082 9.90065 31.2439 10.0779C31.2695 10.205 31.3416 10.3055 31.4226 10.4015C31.5294 10.5279 31.6336 10.6565 31.7438 10.78C31.9706 11.0341 32.35 11.0727 32.6478 10.8727C32.7161 10.8268 32.7776 10.7709 32.8422 10.7196H32.8418ZM22.4483 11.687C22.2872 11.6881 22.143 11.7337 22.0449 11.8225C21.8766 11.9744 21.7566 12.1717 21.5693 12.3087C21.4908 12.3661 21.4555 12.4794 21.39 12.5584C21.2985 12.6686 21.1843 12.7618 21.1031 12.8785C21.0096 13.013 20.9517 13.1721 20.8595 13.3074C20.7908 13.4081 20.6934 13.4897 20.6062 13.5769C20.5334 13.6497 20.4395 13.7071 20.3847 13.7907C20.1703 14.1187 19.9362 14.4306 19.6818 14.7283C19.6292 14.7898 19.5825 14.8687 19.5664 14.9466C19.4982 15.2775 19.3109 15.5503 19.1567 15.8408C18.9925 16.1503 18.8511 16.4705 18.6163 16.7394C18.5378 16.8293 18.4853 16.9529 18.4535 17.07C18.4154 17.2098 18.3697 17.3422 18.3129 17.4762C18.2241 17.6857 18.1334 17.8912 18.019 18.0887C17.9222 18.2555 17.9064 18.4373 17.9759 18.6279C18.0875 18.9336 18.3032 19.1011 18.6206 19.1337C18.9415 19.1665 19.2277 18.989 19.3634 18.6791C19.4044 18.5853 19.4015 18.4628 19.4619 18.3886C19.6623 18.1425 19.6696 17.8042 19.8769 17.5621C19.9257 17.505 19.9413 17.4076 19.9466 17.3269C19.9663 17.0297 20.0395 16.7578 20.2491 16.5323C20.2879 16.4905 20.2854 16.4132 20.316 16.3606C20.4504 16.1298 20.5605 15.8835 20.7685 15.7001C20.8434 15.6341 20.8952 15.5386 20.9463 15.45C20.9974 15.361 21.0268 15.2592 21.0789 15.1709C21.341 14.7267 21.6629 14.323 21.9542 13.8986C22.055 13.7516 22.1908 13.6125 22.3724 13.5381C22.5952 13.4468 22.7345 13.2773 22.8233 13.0516C22.8675 12.9395 22.9682 12.8512 23.0281 12.7435C23.0774 12.6547 23.1205 12.5564 23.1381 12.4573C23.2032 12.0903 22.9067 11.67 22.4485 11.6869L22.4483 11.687ZM35.7329 21.9894C35.7347 21.9507 35.7372 21.8475 35.7452 21.7445C35.757 21.5914 35.7057 21.4604 35.6153 21.3407C35.5406 21.2418 35.4641 21.1436 35.3946 21.0409C35.2679 20.8536 35.0863 20.7645 34.8687 20.7606C34.7251 20.758 34.5856 20.7744 34.439 20.7421C34.1982 20.689 33.9847 20.7823 33.8274 20.9646C33.718 21.0912 33.5973 21.1976 33.467 21.3002C33.3887 21.3618 33.3077 21.4486 33.2788 21.5402C33.1608 21.9148 32.9996 22.2692 32.8287 22.621C32.7937 22.6928 32.7818 22.7793 32.7745 22.8604C32.7577 23.0452 32.7469 23.2306 32.7394 23.416C32.7233 23.8104 32.9944 24.1106 33.3799 24.0911C33.6505 24.0773 33.9126 24.0851 34.1812 24.1293C34.3878 24.1632 34.6016 24.0973 34.7463 23.93C34.908 23.7429 35.0596 23.5487 35.2543 23.3926C35.3007 23.3555 35.341 23.2973 35.3588 23.2409C35.4103 23.0783 35.5044 22.9467 35.6167 22.822C35.7494 22.6745 35.7828 22.4921 35.7711 22.3001C35.7659 22.2177 35.7514 22.1359 35.7332 21.9897L35.7329 21.9894ZM26.4345 20.4753C26.5514 20.4669 26.6705 20.4535 26.7843 20.389C27.0698 20.2273 27.1252 19.8763 27.3769 19.6854C27.4354 19.641 27.4567 19.5437 27.4877 19.4677C27.5029 19.4307 27.5079 19.3864 27.5061 19.346C27.4971 19.129 27.6274 18.9558 27.6864 18.7604C27.9174 18.4946 27.8957 18.1419 27.9898 17.8313C28.0739 17.5535 27.9272 17.3078 27.6969 17.1307C27.5915 17.0497 26.8408 16.8399 26.6971 16.8434C26.4776 16.8485 26.2994 16.9437 26.1536 17.1023C26.0565 17.208 25.9832 17.349 25.8663 17.4199C25.6369 17.5591 25.5899 17.8294 25.4045 17.9933C25.1832 18.1889 25.1443 18.4492 25.1295 18.7243C25.1253 18.8016 25.06 18.8734 25.0388 18.9521C24.9498 19.2806 25.014 19.5637 25.2938 19.7819C25.5211 19.959 25.7471 20.1379 25.9681 20.3227C26.1037 20.436 26.2585 20.4736 26.4347 20.4752L26.4345 20.4753Z" fill="#FCFCFC"/>
<path d="M32.8424 10.7195C32.7777 10.7709 32.7163 10.8268 32.6479 10.8726C32.35 11.0727 31.9707 11.034 31.7439 10.7799C31.6337 10.6565 31.5295 10.5279 31.4227 10.4015C31.3417 10.3055 31.2696 10.205 31.244 10.0779C31.2083 9.90047 31.0945 9.78529 30.9392 9.70648C30.748 9.60924 30.6169 9.46082 30.5016 9.27853C30.3819 9.08937 30.2227 8.92299 30.0677 8.75911C30.0145 8.70293 29.9233 8.65798 29.8467 8.65314C29.5742 8.63644 29.336 8.47974 29.0606 8.47506C28.9836 8.47381 28.8992 8.43121 28.8324 8.38626C28.4745 8.14529 28.0792 8.05648 27.6539 8.07427C27.5504 8.07864 27.4466 8.07708 27.343 8.07427C27.0613 8.06694 26.8245 7.97954 26.6311 7.75339C26.4715 7.56658 26.2775 7.40613 26.0457 7.30437C25.8695 7.22695 25.7292 7.11162 25.6312 6.94212C25.4995 6.71395 25.2797 6.647 25.0422 6.6896C24.7889 6.73502 24.5526 6.7475 24.3147 6.62623C24.2475 6.59189 24.1515 6.61188 24.0686 6.61032C23.9834 6.60876 23.8966 6.62499 23.8399 6.68898C23.7014 6.84567 23.5445 6.97334 23.3666 7.08649C23.1941 7.19621 23.0651 7.37085 22.8675 7.45076C22.6457 7.73934 22.273 7.82018 22.02 8.06662C21.9911 8.09471 21.9513 8.11485 21.9132 8.12967C21.6011 8.25032 21.3328 8.44042 21.0684 8.64128C20.9727 8.71401 20.8505 8.76879 20.7324 8.7922C20.2408 8.89022 19.7777 9.05223 19.3515 9.32129C19.2492 9.38591 19.1248 9.42945 19.005 9.44943C18.6056 9.51623 18.2569 9.68681 17.9541 9.94776C17.8252 10.0589 17.6938 10.1633 17.5284 10.1942C17.1699 10.2612 16.9378 10.4903 16.7696 10.7851C16.5859 11.1071 16.3987 11.4294 16.2645 11.7772C16.2032 11.9364 16.1216 12.0886 15.9699 12.1674C15.7165 12.299 15.5564 12.5105 15.4258 12.748C15.3427 12.8989 15.241 13.0241 15.0885 13.1029C14.9315 13.1839 14.8332 13.3172 14.772 13.4733C14.6963 13.6657 14.5796 13.8405 14.5429 14.0509C14.5257 14.1492 14.4779 14.2502 14.4185 14.3312C14.3145 14.4726 14.3236 14.6496 14.2485 14.796C14.1827 14.9244 14.0803 15.0357 14.0261 15.1679C13.9723 15.2995 13.9389 15.4465 13.932 15.5884C13.9228 15.7819 13.8916 15.96 13.7617 16.1095C13.6753 16.2092 13.6433 16.3316 13.6364 16.4554C13.6238 16.6827 13.5777 16.9067 13.5618 17.1311C13.5453 17.362 13.5357 17.5792 13.4142 17.7882C13.3305 17.932 13.3255 18.1016 13.3669 18.2727C13.3906 18.3704 13.3777 18.4781 13.3736 18.5809C13.372 18.6209 13.3589 18.6669 13.3352 18.6983C13.1665 18.9216 13.2094 19.2258 13.0555 19.4479C12.9185 19.6459 12.8893 19.8657 12.8489 20.0897C12.7977 20.3746 12.7378 20.6584 12.6713 20.9402C12.6529 21.0178 12.6085 21.096 12.557 21.158C12.3925 21.3557 12.3246 21.5957 12.2556 21.8328C12.1106 22.3313 12.013 22.8387 12.0198 23.3614C12.0204 23.4029 12.03 23.4469 12.0198 23.4856C11.9722 23.664 11.8839 23.8397 11.8787 24.0186C11.874 24.1764 11.9654 24.3356 12.0028 24.4968C12.0162 24.5546 12.0005 24.6209 11.9895 24.6819C11.9788 24.7431 11.9327 24.808 11.9451 24.8616C12.0133 25.1589 11.9447 25.4339 11.8456 25.7114C11.8119 25.8058 11.8055 25.9197 11.8199 26.0199C11.8644 26.3322 11.8001 26.6377 11.7859 26.9462C11.7782 27.1132 11.7748 27.2723 11.712 27.433C11.6248 27.6568 11.6643 27.8831 11.7701 28.0949C11.8349 28.2245 11.9145 28.3466 11.9789 28.4763C12.0342 28.5876 12.0663 28.7201 12.1906 28.7727C12.383 28.8542 12.5843 28.9091 12.7955 28.847C12.8534 28.83 12.9102 28.8013 12.9595 28.7665C12.9914 28.7442 13.0057 28.6986 13.0327 28.6677C13.2898 28.3726 13.5283 28.061 13.8641 27.8419C13.9821 27.765 14.08 27.649 14.168 27.5359C14.3531 27.2982 14.5817 27.2004 14.8789 27.2669C14.9167 27.2754 14.9599 27.2602 15.008 27.2552C15.0752 26.8504 15.1447 26.444 15.2096 26.0368C15.2388 25.8539 15.2755 25.6753 15.2433 25.4826C15.2081 25.2706 15.2778 25.069 15.44 24.9149C15.6401 24.7248 15.7769 24.5016 15.854 24.2345C15.9216 23.9999 16.0896 23.849 16.3198 23.7672C16.4949 23.7049 16.6659 23.6294 16.844 23.578C17.1212 23.4983 17.3932 23.6106 17.5468 23.8508C17.7008 24.0918 17.6812 24.3971 17.4869 24.5992C17.3434 24.7484 17.1881 24.8861 17.0378 25.0285C16.9334 25.1275 16.7576 25.1444 16.6961 25.2797C16.6466 25.3885 16.6509 25.5216 16.63 25.6436C16.6266 25.6638 16.6204 25.6861 16.608 25.7015C16.447 25.9051 16.3883 26.1527 16.3572 26.3958C16.3131 26.7436 16.2483 27.0934 16.294 27.4486C16.3071 27.5508 16.3106 27.6563 16.3021 27.759C16.291 27.8942 16.3273 27.9994 16.4335 28.088C16.5634 28.1964 16.6489 28.334 16.7029 28.4988C16.7407 28.6142 16.8116 28.7211 16.8801 28.8235C16.9753 28.9658 17.0421 29.1147 17.0329 29.2884C17.0247 29.4445 17.0908 29.5852 17.1796 29.6908C17.473 30.0399 17.6409 30.4775 17.973 30.7979C18.0161 30.8396 18.0467 30.8997 18.0686 30.957C18.1909 31.2782 18.4609 31.4388 18.7545 31.5468C18.9335 31.6126 19.0857 31.7058 19.246 31.8015C19.493 31.9491 19.7359 32.0999 19.9756 32.26C20.2319 32.4311 20.5401 32.5116 20.8463 32.5636C20.9729 32.5851 21.0987 32.6138 21.1937 32.6895C21.3592 32.8214 21.5295 32.8426 21.7183 32.7724C21.8597 32.7198 21.9978 32.7134 22.1455 32.7518C22.2432 32.7771 22.349 32.7726 22.4514 32.7785C22.7529 32.7961 23.0334 32.7619 23.2016 32.4624C23.5996 32.1696 23.8056 31.7395 24.0235 31.3172C24.08 31.2078 24.1323 31.0898 24.214 31.0013C24.3737 30.8287 24.485 30.6253 24.5385 30.4085C24.6197 30.0801 24.7887 29.8456 25.0893 29.6968C25.147 29.6683 25.1605 29.6097 25.118 29.5465C25.0378 29.4265 24.9657 29.3007 24.8828 29.1827C24.8234 29.0981 24.7155 29.0315 24.6923 28.9407C24.6284 28.6908 24.4293 28.5197 24.3456 28.2834C24.2977 28.1481 24.2242 28.0214 24.1555 27.8944C24.0634 27.7241 24.0015 27.5432 24.0628 27.3562C24.121 27.1791 24.0812 27.0163 24.0026 26.8764C23.8733 26.6467 23.8268 26.4193 23.8723 26.1599C23.8932 26.0405 23.861 25.9126 23.8584 25.7883C23.8523 25.4951 23.9718 25.2653 24.2187 25.1057C24.288 25.0609 24.389 25.0439 24.4322 24.9833C24.6737 24.6451 25.0798 24.632 25.4114 24.4759C25.5405 24.4152 25.6966 24.4372 25.8392 24.4864C25.9365 24.5201 26.0382 24.5756 26.1348 24.5697C26.3448 24.5569 26.5394 24.6744 26.7516 24.6236C26.8095 24.6097 26.8751 24.6253 26.9367 24.6306C26.9703 24.6335 27.7703 24.9607 27.7911 24.9866C27.9287 25.1589 28.155 25.181 28.3211 25.3043C28.6933 25.3969 28.9652 25.6686 29.2858 25.8526C29.4081 25.9229 29.509 26.0305 29.6433 26.0944C29.8184 26.1777 29.9394 26.3266 29.995 26.5122C30.0313 26.6338 30.0736 26.7466 30.1526 26.8466C30.3059 27.0405 30.3288 27.2615 30.2811 27.4962C30.2645 27.5775 30.2311 27.662 30.2403 27.7409C30.282 28.0974 30.1084 28.3833 29.9508 28.675C29.9016 28.766 29.8355 28.8476 29.7872 28.939C29.685 29.1328 29.5364 29.2625 29.3239 29.3269C29.2269 29.3563 29.1391 29.4156 29.0467 29.4605C28.9356 29.5145 28.8293 29.5888 28.7119 29.6175C28.3682 29.7014 28.0514 29.8548 27.7268 29.9854C27.5663 30.05 27.4048 30.1101 27.2458 30.0655C26.9619 29.9859 26.6622 30.0869 26.3846 29.97C26.3604 29.9598 26.3121 29.9966 26.2805 30.0193C26.2675 30.0285 26.2706 30.0585 26.2631 30.0777C26.1197 30.4424 25.9913 30.8101 25.7423 31.128C25.5012 31.4359 25.3776 31.8179 25.1594 32.1464C25.0258 32.3476 24.976 32.6049 24.8917 32.8383C24.8568 32.935 24.8444 33.0429 24.7962 33.1317C24.6264 33.4448 24.7147 33.7336 24.8627 34.0188C24.9105 34.1107 24.9623 34.2029 25.0269 34.283C25.0774 34.3456 25.1427 34.4116 25.2153 34.4385C25.4531 34.5263 25.6793 34.6233 25.8146 34.8553C25.9899 34.9632 26.1339 35.1139 26.3382 35.184C26.65 35.2909 26.9469 35.4445 27.262 35.5378C27.4566 35.5954 27.6523 35.6739 27.8677 35.6667C27.9645 35.6635 28.0734 35.7055 28.1594 35.7565C28.4645 35.9375 28.7996 36.0385 29.132 36.1501C29.5143 36.2784 29.9054 36.2845 30.2999 36.2547C30.7123 36.2235 31.124 36.1837 31.5365 36.1542C31.6392 36.1468 31.7438 36.1646 31.8474 36.1704C31.9335 36.1751 32.0122 36.1537 32.0776 36.0959C32.1244 36.0547 32.165 36.006 32.2138 35.9678C32.3476 35.8631 32.4951 35.783 32.6707 35.7969C32.9042 35.8153 33.0663 35.709 33.1985 35.5299C33.272 35.4303 33.3625 35.3431 33.4337 35.2419C33.5192 35.1202 33.6296 35.0328 33.7488 34.9463C34.2601 34.575 34.3711 34.3738 34.4262 33.7653C34.3659 33.4763 34.5431 33.1924 34.4444 32.9026C34.4588 32.3942 34.8743 32.0604 35.3749 32.1592C35.4548 32.175 35.5444 32.1946 35.6056 32.2427C35.7679 32.3703 35.909 32.3293 36.0581 32.2255C36.1286 32.1764 36.1865 32.1256 36.1954 32.0339C36.2034 31.9513 36.2042 31.8651 36.2298 31.7877C36.2617 31.6911 36.2939 31.5772 36.3646 31.5138C36.5995 31.3031 36.7211 31.0091 36.9385 30.7833C37.1504 30.563 37.3121 30.1588 37.4198 29.7878C37.4666 29.6268 37.5365 29.4832 37.6311 29.3418C37.7561 29.1549 37.883 28.9532 37.9383 28.7393C38.0394 28.3487 38.2902 28.0404 38.4499 27.684C38.6369 27.2663 38.7879 26.839 38.8082 26.3773C38.8148 26.2292 38.8304 26.0838 38.9048 25.957C39.0312 25.7415 39.0437 25.4805 39.1973 25.2736C39.2547 25.1963 39.2722 25.0769 39.2766 24.9753C39.2863 24.7476 39.3072 24.5249 39.3648 24.3022C39.4003 24.1648 39.4013 24.0114 39.3353 23.8739C39.2604 23.7182 39.2532 23.557 39.2643 23.3875C39.2736 23.2437 39.2491 23.0981 39.2513 22.9536C39.2563 22.616 39.5555 22.3285 39.8995 22.3233C40.1831 22.3191 40.4414 22.4868 40.5238 22.7496C40.5981 22.9862 40.6586 23.2275 40.7123 23.4695C40.7295 23.547 40.7265 23.6423 40.6962 23.7141C40.579 23.9921 40.5693 24.2769 40.6074 24.5689C40.6294 24.7378 40.6176 24.9012 40.5202 25.0485C40.4134 25.2101 40.3825 25.3944 40.3611 25.5811C40.3446 25.7249 40.3145 25.8701 40.3212 26.0134C40.3349 26.309 40.3149 26.593 40.1545 26.8518C40.079 27.215 39.9997 27.5774 39.9322 27.9421C39.9234 27.9905 39.9619 28.0615 39.9997 28.1024C40.1465 28.2617 40.2444 28.4362 40.2268 28.6613C40.2088 28.8903 40.3463 29.0949 40.3124 29.3354C40.2844 29.5348 40.3196 29.7466 40.3491 29.9498C40.3847 30.1949 40.3995 30.4436 40.4838 30.6821C40.5252 30.7993 40.5494 30.9201 40.6261 31.023C40.716 31.1435 40.7304 31.2866 40.7571 31.4314C40.8092 31.7133 40.845 32.0028 40.9968 32.258C41.1086 32.4457 41.1363 32.6491 41.0711 32.8585C41.0188 33.0263 41.0486 33.1827 41.0997 33.3452C41.2342 33.7727 41.5374 34.5096 41.783 35.0017C41.8279 35.0919 41.8641 35.1976 41.8655 35.2965C41.8696 35.592 41.9164 35.8773 42.0434 36.1428C42.1291 36.3218 42.0679 36.5163 42.1276 36.6928C42.1905 36.8788 42.1834 37.0564 42.1265 37.2421C42.0965 37.3397 42.0854 37.448 42.0904 37.5502C42.1059 37.8605 42.1152 38.1694 42.0868 38.4798C42.0778 38.5792 42.0929 38.6961 42.1391 38.7824C42.2791 39.0438 42.2671 39.299 42.1608 39.5631C42.146 39.5998 42.1503 39.6444 42.1466 39.6855C42.1407 39.7493 42.2207 39.8626 42.2819 39.8765C42.4742 39.9202 42.6886 39.9261 42.7927 39.7513C42.9437 39.498 43.2104 39.348 43.3356 39.0772C43.398 38.9419 43.5285 38.8636 43.661 38.7976C43.7777 38.7395 43.8614 38.6563 43.8856 38.5197C43.923 38.3083 44.0254 38.1343 44.1847 37.9868C44.3107 37.8702 44.3749 37.7175 44.3767 37.5409C44.3773 37.4795 44.3876 37.4162 44.4054 37.3573C44.48 37.1123 44.4916 36.8701 44.3976 36.6266C44.3436 36.4868 44.3291 36.335 44.3812 36.198C44.5301 35.806 44.4246 35.4181 44.3659 35.0343C44.3344 34.8286 44.3038 34.6368 44.328 34.4232C44.3553 34.1828 44.3783 33.9265 44.2681 33.6879C44.2431 33.6337 44.2386 33.566 44.2394 33.5047C44.2428 33.1949 44.2519 32.8851 44.2575 32.5751C44.2609 32.3894 44.2352 32.198 44.2714 32.0192C44.3084 31.8363 44.3475 31.6572 44.3631 31.4698C44.3769 31.3055 44.4134 31.1455 44.3954 30.9763C44.3851 30.8778 44.4067 30.7662 44.4457 30.6742C44.5759 30.367 44.6714 30.0581 44.6658 29.7171C44.6631 29.555 44.7447 29.3922 44.7475 29.2291C44.7505 29.0571 44.8211 28.9055 44.8424 28.7428C44.864 28.5792 44.8498 28.4128 44.9159 28.2533C44.9732 28.1152 44.974 27.9663 44.9092 27.8286C44.8175 27.634 44.7878 27.4363 44.8265 27.2229C44.8407 27.1449 44.817 27.0602 44.8108 26.9784C44.8029 26.876 44.7593 26.7588 44.7944 26.6743C44.8815 26.4652 44.7858 26.2611 44.8145 26.0557C44.8401 25.8718 44.8468 25.6842 44.8473 25.4982C44.8481 25.228 44.8265 24.961 44.7135 24.7072C44.6725 24.6148 44.6537 24.5085 44.6441 24.4069C44.6071 24.0167 44.614 23.6222 44.5244 23.237C44.5152 23.1975 44.5133 23.1523 44.5223 23.1131C44.5905 22.8164 44.4913 22.5495 44.4148 22.2672C44.3393 21.9883 44.2664 21.7044 44.159 21.4412C44.0568 21.1907 44.0382 20.9175 43.9023 20.6777C43.8077 20.5109 43.8064 20.3085 43.8762 20.1309C44.0213 19.7616 43.9804 19.3995 43.8815 19.0327C43.8547 18.9328 43.8234 18.8305 43.8202 18.7285C43.8032 18.1976 43.6018 17.7267 43.3707 17.261C43.3039 17.1263 43.2115 17.0192 43.1141 16.9131C43.0754 16.8708 43.0141 16.8318 42.9591 16.8252C42.7745 16.8034 42.588 16.7886 42.4021 16.7886C42.3239 16.7886 42.2331 16.8148 42.17 16.86C42.052 16.9446 41.947 17.0558 41.7981 17.075C41.6518 17.0938 41.5857 17.1865 41.53 17.3016C41.4538 17.4589 41.3302 17.5529 41.1683 17.6232C40.9155 17.7333 40.461 17.59 40.3824 17.2125C40.3323 16.9721 40.2463 16.7349 40.2637 16.478C40.278 16.2709 40.2021 16.0802 40.1213 15.8832C39.9635 15.4982 39.7862 15.1281 39.5513 14.7854C39.4901 14.6961 39.4127 14.629 39.3008 14.621C39.1324 14.609 38.9827 14.5513 38.8284 14.4823C38.6604 14.4072 38.4703 14.3807 38.289 14.3376C38.2086 14.3186 38.1229 14.3193 38.0441 14.2963C37.5664 14.1556 37.3519 13.634 37.5923 13.1972C37.642 13.1068 37.7067 13.0247 37.7646 12.9386C38.2175 12.7063 38.6512 12.8385 39.0804 13.0121C39.1758 13.0506 39.2571 13.1352 39.354 13.1557C39.6143 13.2108 39.7969 13.3556 39.9572 13.5619C40.0819 13.7225 40.3025 13.7948 40.3933 13.9955C40.6197 14.1541 40.724 14.418 40.9202 14.6046C41.0266 14.7059 41.0725 14.8487 41.0972 14.9959C41.1318 15.203 41.2344 15.3847 41.3269 15.5689C41.3923 15.6989 41.5741 15.7792 41.6999 15.7018C41.9225 15.565 42.1792 15.5773 42.4127 15.4949C42.6359 15.4162 42.8578 15.4203 43.0749 15.5387C43.1639 15.5873 43.2698 15.6051 43.3686 15.6349C43.5093 15.6773 43.6377 15.7352 43.7456 15.8429C43.8175 15.9149 43.9113 15.9653 43.997 16.023C44.1016 16.0934 44.1863 16.1789 44.2581 16.2851C44.3503 16.4216 44.5056 16.5296 44.5573 16.6768C44.6603 16.9696 44.8535 17.2193 44.9141 17.5341C44.9843 17.8992 45.0466 18.2653 45.104 18.6321C45.1263 18.7749 45.1299 18.9177 45.1819 19.0577C45.2165 19.1509 45.2243 19.2636 45.2106 19.363C45.173 19.6364 45.1994 19.8994 45.2927 20.1575C45.3442 20.3002 45.3494 20.4474 45.2857 20.5833C45.2 20.7659 45.2615 20.8978 45.3888 21.0297C45.4441 21.0868 45.4884 21.1672 45.5078 21.2444C45.6131 21.6653 45.7344 22.0819 45.8407 22.5022C45.8853 22.6791 45.8903 22.8682 45.9287 23.0518C45.9707 23.2531 45.9908 23.4597 46.035 23.6628C46.0785 23.8633 46.0512 24.0739 46.1079 24.2772C46.1346 24.3727 46.1324 24.4901 46.1026 24.5848C46.0375 24.7918 46.0581 24.9992 46.081 25.2027C46.1505 25.8184 46.255 26.4307 46.2419 27.0536C46.2412 27.0943 46.2485 27.1379 46.263 27.176C46.3435 27.3862 46.3106 27.5919 46.2073 27.7773C46.1102 27.9513 46.0994 28.1296 46.1054 28.3181C46.1204 28.7935 46.1381 29.2689 46.1402 29.7444C46.1406 29.8643 46.1172 30.0068 46.0504 30.1C45.8802 30.3375 45.8421 30.5885 45.8787 30.8678C45.8978 31.0135 45.8756 31.1613 45.7956 31.2886C45.7122 31.4211 45.6946 31.577 45.7216 31.7102C45.7976 32.0849 45.7011 32.4545 45.7239 32.8264C45.7352 33.0101 45.6776 33.193 45.7146 33.3823C45.7335 33.4791 45.7188 33.5944 45.683 33.6874C45.5886 33.9336 45.6114 34.1791 45.6702 34.4211C45.7107 34.5878 45.6938 34.745 45.6846 34.9115C45.662 35.32 45.5849 35.7329 45.7283 36.1381C45.7775 36.2768 45.7654 36.4232 45.7444 36.5698C45.7238 36.7124 45.7419 36.8624 45.7089 37.0012C45.646 37.2656 45.7967 37.5476 45.6487 37.7967C45.5092 38.0319 45.5189 38.3209 45.3554 38.5463C45.3085 38.6111 45.2907 38.6988 45.2676 38.7784C45.2251 38.9244 45.1404 39.0426 45.0199 39.1281C44.859 39.2424 44.763 39.3908 44.7166 39.5812C44.6924 39.6809 44.6456 39.7754 44.6066 39.8712C44.5937 39.903 43.9019 40.6015 43.8657 40.6125C43.6828 40.6681 43.5363 40.7781 43.3889 40.8958C43.312 40.9573 43.2004 41.0032 43.1029 41.0061C42.7837 41.016 42.4914 41.109 42.2039 41.2367C42.0213 41.3177 41.837 41.2922 41.6643 41.1976C41.4828 41.0982 41.2999 40.9999 41.126 40.888C40.9178 40.7539 40.8217 40.5526 40.8311 40.3054C40.8342 40.223 40.8575 40.1413 40.8645 40.0588C40.882 39.8507 40.8779 39.6475 40.7945 39.4474C40.7114 39.2477 40.7176 39.0401 40.8198 38.8445C40.9005 38.6903 40.9207 38.5226 40.9004 38.3592C40.872 38.1305 40.8879 37.9073 40.8982 37.6793C40.913 37.3494 40.8951 37.0152 40.8593 36.6862C40.8258 36.3773 40.764 36.0674 40.5807 35.8033C40.4952 35.6802 40.4374 35.5469 40.4228 35.4021C40.4056 35.2338 40.3493 35.081 40.2956 34.9234C40.1695 34.5527 40.0682 34.1736 39.9866 33.7912C39.9294 33.524 39.8514 33.2696 39.7106 33.0366C39.6441 32.9266 39.5922 32.8092 39.6046 32.6844C39.6279 32.4501 39.5583 32.2332 39.509 32.012C39.4686 31.8311 39.3954 31.6529 39.3858 31.4709C39.3759 31.2803 39.3401 31.1023 39.281 30.9243C39.1967 30.6709 39.0854 30.4252 39.0604 30.1538C39.0576 30.1228 39.0099 30.0934 38.9787 30.0688C38.9708 30.0627 38.9384 30.072 38.9312 30.0833C38.7527 30.3597 38.5086 30.59 38.3651 30.8909C38.3297 30.9651 38.2819 31.0348 38.2574 31.1123C38.1822 31.35 38.0274 31.5482 37.9473 31.7882C37.8779 31.9964 37.6622 32.138 37.5857 32.3622C37.561 32.4347 37.4896 32.499 37.4251 32.5484C37.2587 32.6763 37.2066 32.8454 37.2242 33.0432C37.2423 33.2481 37.2191 33.4618 37.3416 33.6469C37.3527 33.6636 37.3594 33.6856 37.3611 33.7057C37.4076 34.291 37.6512 34.8227 37.8104 35.3774C37.8381 35.4735 37.8554 35.5912 37.8256 35.682C37.7254 35.9865 37.7535 36.2979 37.7507 36.6065C37.7474 36.9788 37.7524 37.3508 37.8733 37.7132C37.9106 37.8251 37.9047 37.964 37.8788 38.0818C37.8151 38.371 37.8201 38.656 37.8621 38.9463C37.8796 39.0676 37.8746 39.1946 37.8621 39.3173C37.8156 39.7727 37.802 40.2239 37.9464 40.6682C38.0622 41.0247 37.9862 41.3671 37.8384 41.6971C37.6907 42.0268 37.2522 42.1517 36.9346 41.9548C36.8475 41.9008 36.773 41.826 36.693 41.7611C36.6671 41.6824 36.6502 41.5989 36.6132 41.5256C36.4846 41.2707 36.4586 41.0124 36.562 40.7435C36.6153 40.6049 36.6195 40.4613 36.614 40.3143C36.604 40.0454 36.6037 39.7761 36.5993 39.5071C36.4651 39.2321 36.5667 38.9351 36.521 38.6504C36.4916 38.4678 36.5094 38.281 36.4347 38.101C36.3974 38.0113 36.3869 37.8902 36.4139 37.7975C36.55 37.3285 36.482 36.8499 36.4951 36.3758C36.499 36.2341 36.4973 36.0857 36.4237 35.9506C36.3198 35.7599 36.3175 35.558 36.3529 35.3455C36.405 35.0331 36.388 34.7155 36.2415 34.4336C36.1442 34.2466 36.0912 34.0488 36.0113 33.8587C36.0003 33.8327 35.954 33.8179 35.9209 33.8075C35.9109 33.8042 35.8887 33.8309 35.8756 33.8468C35.8494 33.8786 35.8094 33.9099 35.8032 33.9462C35.7498 34.2548 35.5899 34.5252 35.4957 34.8193C35.433 35.0151 35.3614 35.2054 35.3233 35.4106C35.2801 35.6436 35.141 35.8319 34.917 35.931C34.7639 35.9987 34.6175 36.0721 34.4899 36.181C34.392 36.2645 34.2726 36.2957 34.1496 36.3244C34.0255 36.3535 33.9224 36.4245 33.8501 36.5323C33.7558 36.6726 33.6441 36.7867 33.483 36.8565C33.391 36.8964 33.3081 36.9675 33.2347 37.0385C33.0947 37.1743 32.9282 37.2418 32.7406 37.281C32.4181 37.3484 32.0913 37.3952 31.7778 37.5059C31.6851 37.5387 31.5693 37.5407 31.4722 37.5198C31.1671 37.4538 30.8571 37.4606 30.5492 37.4386C30.2806 37.4194 30.0075 37.3767 29.7432 37.4059C29.4635 37.4368 29.2134 37.326 28.9443 37.3174C28.5313 37.3041 28.133 37.1702 27.7204 37.1374C27.6202 37.1295 27.5134 37.0942 27.4271 37.0422C26.9793 36.7728 26.4858 36.6264 25.9898 36.4832C25.9106 36.4602 25.8269 36.436 25.7595 36.3911C25.4174 36.1623 25.0717 35.9388 24.7324 35.7064C24.5818 35.6031 24.4574 35.459 24.3105 35.3431C24.1502 35.2165 24.0536 35.0197 23.8802 34.8998C23.8635 34.8883 23.8478 34.872 23.8382 34.8542C23.7607 34.7085 23.6893 34.5591 23.6068 34.4163C23.5447 34.3088 23.4765 34.2025 23.395 34.1096C23.3611 34.0709 23.2831 34.0484 23.2296 34.055C23.1504 34.0647 23.0763 34.1101 22.9983 34.1343C22.8804 34.171 22.7565 34.2413 22.643 34.2284C22.3939 34.2001 22.1495 34.2103 21.9017 34.2228C21.8031 34.2278 21.6932 34.193 21.603 34.1474C21.3712 34.0303 21.1333 34.0049 20.8804 34.0441C20.7101 34.0704 20.5407 34.0364 20.4086 33.9273C20.1986 33.7541 19.9345 33.6787 19.7198 33.5098C19.4999 33.3369 18.9076 33.1242 18.5759 33.0578C18.3838 33.0194 18.2157 32.9441 18.0995 32.7892C17.8377 32.4404 17.4752 32.1873 17.2134 31.8395C16.9957 31.7322 16.926 31.4846 16.7565 31.3442C16.5461 31.1698 16.5031 30.9206 16.3791 30.7093C16.3166 30.603 16.2775 30.4825 16.2124 30.3781C16.0928 30.1867 16.01 29.9689 15.8139 29.8307C15.71 29.7574 15.6472 29.647 15.6018 29.5289C15.5566 29.4112 15.4882 29.3104 15.3994 29.2199C15.263 29.0807 15.2045 28.9046 15.1831 28.7142C15.1761 28.6526 15.1712 28.5904 15.1609 28.5293C15.1488 28.4568 15.0315 28.4195 14.9582 28.4617C14.9224 28.4823 14.8794 28.4938 14.85 28.5208C14.7278 28.6329 14.602 28.7423 14.4915 28.8653C14.2439 29.1407 14.0261 29.4409 13.7624 29.7043C13.5563 29.9102 13.4048 30.1586 13.3508 30.4583C13.3332 30.5563 13.2881 30.6682 13.2183 30.7344C13.0123 30.9301 12.8768 31.1471 12.8932 31.4414C12.8954 31.4806 12.8824 31.5277 12.8604 31.56C12.7065 31.7852 12.6666 32.0609 12.535 32.2936C12.3991 32.5341 12.3201 32.783 12.327 33.0603C12.3312 33.2311 12.2806 33.3842 12.1734 33.5231C12.0187 33.7235 11.9343 33.9532 11.9121 34.2079C11.8889 34.4758 11.7553 34.7183 11.7301 34.9899C11.7197 35.103 11.6399 35.2265 11.5577 35.3126C11.3751 35.5041 11.2796 35.7192 11.2805 35.983C11.2807 36.0427 11.2527 36.1031 11.2342 36.1621C11.1407 36.4583 11.0603 36.7561 11.0653 37.0714C11.0676 37.2206 11.0241 37.365 10.9215 37.4736C10.7993 37.603 10.731 37.7656 10.731 37.9232C10.731 38.2206 10.6409 38.4899 10.5655 38.7684C10.5334 38.8868 10.5072 39.0073 10.4742 39.1267C10.3753 39.4863 10.3077 39.8512 10.3965 40.2272C10.4252 40.3489 10.4084 40.4738 10.3684 40.5954C10.3364 40.6926 10.2968 40.7943 10.2972 40.8938C10.2982 41.0706 10.2092 41.2107 10.1466 41.3628C10.0741 41.403 10.0035 41.4474 9.92876 41.4828C9.50362 41.6843 9.0688 41.3715 9.0379 41.0011C9.02572 40.8555 9.00075 40.7165 8.95315 40.5765C8.88386 40.3722 8.91554 40.1718 9.01496 39.9743C9.19444 39.6176 9.28652 39.2335 9.30244 38.8352C9.31071 38.6296 9.38734 38.4316 9.34474 38.2184C9.32616 38.1249 9.35583 38.0064 9.40093 37.9186C9.53843 37.6509 9.59867 37.3786 9.54732 37.0775C9.51876 36.9103 9.57464 36.7544 9.65533 36.6008C9.87617 36.1799 10.0706 35.7467 10.2038 35.288C10.2389 35.1672 10.2727 35.0517 10.2418 34.9235C10.2064 34.7767 10.2381 34.6318 10.2915 34.4956C10.4489 34.0923 10.6063 33.6887 10.7781 33.2915C10.8357 33.1584 10.8853 33.0266 10.9279 32.8877C10.9888 32.6894 11.0191 32.4833 11.0832 32.2898C11.1482 32.0936 11.2117 31.8973 11.2747 31.7005C11.3436 31.4856 11.4527 31.2833 11.5079 31.0611C11.5388 30.9365 11.6293 30.8471 11.717 30.7564C11.7877 30.6832 11.8581 30.6045 11.9051 30.5157C11.9285 30.4713 11.9082 30.3964 11.8909 30.3405C11.88 30.3052 11.8433 30.2702 11.8093 30.251C11.641 30.156 11.5087 30.0266 11.428 29.8515C11.3281 29.6352 11.1705 29.4875 10.9593 29.3755C10.6963 29.236 10.5772 28.9904 10.5988 28.7C10.6178 28.4445 10.5818 28.2052 10.4936 27.969C10.4068 27.7364 10.4282 27.4772 10.3101 27.2495C10.2752 27.1824 10.2813 27.084 10.2941 27.004C10.3239 26.8185 10.3352 26.6361 10.3172 26.4477C10.3079 26.3494 10.3467 26.2448 10.3729 26.1454C10.4046 26.0252 10.45 25.9086 10.4816 25.7885C10.5025 25.7084 10.5434 25.6118 10.5175 25.545C10.3967 25.2335 10.5607 24.9293 10.5222 24.6217C10.5011 24.4541 10.5401 24.2959 10.6139 24.1394C10.6656 24.0298 10.7094 23.895 10.694 23.78C10.657 23.5045 10.7009 23.2476 10.7714 22.9843C10.8137 22.8264 10.8265 22.6544 10.8182 22.4903C10.8085 22.2949 10.8574 22.1255 10.9379 21.9516C11.0071 21.8024 11.0759 21.6404 11.0874 21.4798C11.1104 21.1651 11.2722 20.8884 11.3002 20.5772C11.3072 20.4982 11.3446 20.4152 11.3888 20.3478C11.5382 20.1198 11.5808 19.8456 11.7174 19.6119C11.7575 19.5431 11.7801 19.4519 11.7773 19.3722C11.7676 19.1001 11.8397 18.8397 11.8676 18.5745C11.8945 18.3196 11.9215 18.0844 12.0832 17.8761C12.1623 17.7743 12.182 17.6449 12.162 17.519C12.1247 17.2839 12.1995 17.0731 12.2575 16.8504C12.3095 16.6506 12.3217 16.4441 12.4454 16.2663C12.5322 16.1416 12.5523 15.9971 12.5242 15.8481C12.4802 15.6149 12.5086 15.4019 12.6352 15.1908C12.7644 14.9753 12.8326 14.7336 12.8069 14.4745C12.8028 14.4339 12.8025 14.3874 12.8181 14.3512C12.9575 14.0297 13.0955 13.7074 13.2626 13.3988C13.4749 13.2272 13.5626 12.9536 13.7819 12.7817C13.9283 12.6669 14.0146 12.4974 14.043 12.2999C14.0709 12.1064 14.1875 11.9558 14.3467 11.8453C14.5886 11.6772 14.8023 11.4857 14.9229 11.2088C15.1729 10.9622 15.2856 10.6036 15.592 10.3997C15.6744 10.3448 15.7517 10.2518 15.7852 10.1594C15.8896 9.87237 16.1131 9.68915 16.317 9.48423C16.4765 9.32378 16.6511 9.17864 16.7689 8.97559C16.8663 8.80781 17.0361 8.71884 17.2323 8.69169C17.5641 8.6458 17.8827 8.5595 18.1719 8.38314C18.1895 8.37237 18.2112 8.36832 18.2284 8.35692C18.3829 8.25485 18.533 8.14575 18.6918 8.05086C18.8527 7.95456 19.0637 8.00029 19.2188 7.87138C19.2633 7.83454 19.3391 7.83861 19.3942 7.8113C19.7008 7.65913 20.0908 7.5274 20.4276 7.46669C20.4889 7.45561 20.5518 7.4467 20.6099 7.42547C20.7274 7.3824 20.8376 7.32997 20.8947 7.20324C20.9738 7.02719 21.1012 6.89749 21.2744 6.80525C21.3639 6.7575 21.4455 6.68632 21.5146 6.61109C21.6151 6.50169 21.7269 6.41398 21.8633 6.35607C21.9201 6.33204 21.9793 6.30925 22.0292 6.27429C22.1308 6.20312 22.2173 6.10261 22.3273 6.05298C22.5161 5.96777 22.6947 5.86726 22.876 5.76878C23.0381 5.68075 23.2185 5.62159 23.3964 5.56899C23.6147 5.50438 23.8389 5.45882 24.0611 5.40778C24.1009 5.39858 24.1438 5.40231 24.1853 5.40044C24.3935 5.39045 24.5802 5.24094 24.7921 5.28698C24.9936 5.33084 25.195 5.39076 25.3841 5.47207C25.6315 5.57836 25.9054 5.60349 26.1423 5.73959C26.2119 5.7797 26.2981 5.80077 26.3789 5.80982C26.5968 5.83417 26.7679 5.93172 26.9197 6.08872C27.0038 6.1755 27.1242 6.22606 27.222 6.30113C27.3037 6.36371 27.3833 6.43192 27.4515 6.50855C27.5457 6.61437 27.5382 6.80946 27.6962 6.85098C27.8324 6.88672 27.9943 6.83678 28.124 6.88282C28.3119 6.94962 28.4972 6.89062 28.6791 6.92402C28.8625 6.95773 29.0407 7.01782 29.2324 6.99737C29.2915 6.99097 29.3637 7.00019 29.4136 7.02968C29.6981 7.19809 30.0345 7.26613 30.2923 7.4851C30.4697 7.63571 30.6648 7.73309 30.9049 7.76181C31.0912 7.78413 31.2607 7.88433 31.3711 8.04836C31.4536 8.17103 31.5504 8.2728 31.6729 8.3577C31.8519 8.48178 31.9582 8.66376 31.9861 8.87711C32.0055 9.02491 32.0804 9.08265 32.212 9.12869C32.5088 9.23232 32.6919 9.44599 32.7515 9.75938C32.7592 9.80011 32.762 9.84585 32.7829 9.87925C32.9521 10.1497 32.9338 10.4316 32.8419 10.7195H32.8424Z" fill="#070607"/>
<path d="M10.1484 41.3632C10.211 41.2112 10.2998 41.0711 10.2991 40.8942C10.2986 40.7947 10.3381 40.693 10.3702 40.5958C10.4103 40.4741 10.427 40.3494 10.3983 40.2276C10.3095 39.8515 10.3772 39.4866 10.476 39.1272C10.509 39.0078 10.5352 38.8875 10.5673 38.7688C10.6427 38.4906 10.7329 38.221 10.7328 37.9237C10.7328 37.7661 10.8011 37.6034 10.9233 37.4741C11.0259 37.3654 11.0696 37.2211 11.0671 37.0719C11.0621 36.7566 11.1423 36.4588 11.236 36.1626C11.2545 36.1036 11.2826 36.0432 11.2823 35.9834C11.2814 35.7196 11.3769 35.5046 11.5595 35.3131C11.6417 35.2268 11.7213 35.1033 11.7319 34.9903C11.7572 34.7188 11.8907 34.4762 11.9139 34.2084C11.9361 33.9537 12.0204 33.724 12.1752 33.5236C12.2824 33.3847 12.333 33.2315 12.3288 33.0608C12.3219 32.7835 12.4009 32.5345 12.5368 32.294C12.6684 32.0613 12.7083 31.7855 12.8622 31.5605C12.8844 31.5282 12.8972 31.481 12.895 31.4419C12.8786 31.1475 13.0139 30.9306 13.2201 30.7349C13.2899 30.6685 13.3348 30.5568 13.3526 30.4588C13.4068 30.1591 13.5581 29.9106 13.7642 29.7048C14.0279 29.4413 14.2457 29.1412 14.4933 28.8657C14.6038 28.7428 14.7298 28.6332 14.8518 28.5213C14.8812 28.4943 14.9242 28.4827 14.96 28.4621C15.0333 28.42 15.1506 28.4573 15.1627 28.5297C15.173 28.5909 15.1779 28.6529 15.1849 28.7147C15.2063 28.9049 15.2648 29.0811 15.4012 29.2203C15.49 29.3108 15.5582 29.4117 15.6036 29.5294C15.6492 29.6475 15.7118 29.7578 15.8157 29.8312C16.0118 29.9695 16.0946 30.1874 16.2142 30.3785C16.2794 30.483 16.3184 30.6033 16.3809 30.7097C16.505 30.9209 16.548 31.1703 16.7583 31.3446C16.9278 31.4851 16.9977 31.7326 17.2152 31.84C17.477 32.1877 17.8395 32.441 18.1013 32.7897C18.2175 32.9445 18.3856 33.0199 18.5777 33.0583C18.9094 33.1246 19.5017 33.3374 19.7216 33.5103C19.9364 33.6792 20.2004 33.7545 20.4104 33.9278C20.5426 34.0369 20.7119 34.0709 20.8822 34.0445C21.1351 34.0052 21.373 34.0306 21.6048 34.1479C21.695 34.1934 21.8049 34.2282 21.9035 34.2232C22.1513 34.2106 22.3958 34.2006 22.6448 34.2288C22.7583 34.2416 22.8822 34.1714 23.0001 34.1347C23.0781 34.1104 23.1522 34.065 23.2314 34.0555C23.2849 34.0489 23.3629 34.0715 23.3968 34.1101C23.4783 34.2029 23.5463 34.3092 23.6086 34.4168C23.6912 34.5596 23.7625 34.7089 23.84 34.8547C23.8494 34.8725 23.8653 34.8887 23.882 34.9003C24.0554 35.02 24.152 35.2168 24.3123 35.3435C24.4592 35.4595 24.5836 35.6035 24.7342 35.7069C25.0733 35.9392 25.4192 36.1627 25.7613 36.3915C25.8286 36.4366 25.9122 36.4608 25.9916 36.4836C26.4875 36.6269 26.9811 36.7733 27.4289 37.0427C27.5152 37.0945 27.622 37.1299 27.7222 37.1379C28.1348 37.1705 28.5331 37.3046 28.9461 37.3178C29.215 37.3264 29.4654 37.4374 29.745 37.4063C30.0093 37.3771 30.2824 37.4199 30.551 37.4391C30.8588 37.4611 31.1687 37.4542 31.474 37.5203C31.5711 37.5413 31.6869 37.5391 31.7796 37.5064C32.093 37.3957 32.42 37.3489 32.7424 37.2815C32.93 37.2423 33.0965 37.1747 33.2365 37.0389C33.3099 36.9678 33.3928 36.8969 33.4848 36.857C33.6459 36.787 33.7576 36.6731 33.8519 36.5328C33.9243 36.4249 34.0273 36.3541 34.1514 36.3249C34.2743 36.2962 34.3936 36.265 34.4917 36.1815C34.6195 36.0725 34.7659 35.9992 34.9188 35.9314C35.1426 35.8322 35.2819 35.644 35.3251 35.4111C35.3632 35.2059 35.4348 35.0156 35.4975 34.8197C35.5917 34.5257 35.7516 34.2552 35.805 33.9467C35.8113 33.9103 35.8512 33.8792 35.8774 33.8472C35.8905 33.8313 35.9125 33.8048 35.9227 33.8079C35.9556 33.8185 36.0021 33.8332 36.0131 33.8591C36.093 34.0492 36.1462 34.2471 36.2433 34.4341C36.3897 34.716 36.4068 35.0336 36.3547 35.346C36.3193 35.5583 36.3216 35.7602 36.4256 35.9511C36.4991 36.0861 36.5008 36.2345 36.4969 36.3762C36.4836 36.8502 36.5518 37.3287 36.4157 37.7979C36.3889 37.8905 36.3993 38.0117 36.4365 38.1015C36.5112 38.2814 36.4934 38.4682 36.5228 38.6508C36.5685 38.9355 36.4669 39.2325 36.6011 39.5075C36.6055 39.7766 36.6058 40.0458 36.6158 40.3147C36.6213 40.4618 36.6172 40.6055 36.5638 40.7439C36.4604 41.0127 36.4864 41.2711 36.615 41.526C36.652 41.5994 36.6689 41.6829 36.6948 41.7615C36.571 41.7746 36.4415 41.769 36.3246 41.8049C36.0348 41.8939 35.756 41.8923 35.4783 41.7664C35.3778 41.7208 35.277 41.7247 35.1845 41.7915C35.0615 41.8805 34.9224 41.9123 34.7732 41.9118C34.7109 41.9118 34.6473 41.9095 34.5867 41.921C34.4245 41.9521 34.2646 42.0142 34.1024 42.0186C33.9402 42.0231 33.7789 41.9585 33.6106 42.0064C33.5551 42.0222 33.483 42.0112 33.4276 41.9894C33.2679 41.9262 33.1032 41.929 32.9367 41.924C32.75 41.9184 32.5631 41.9048 32.3774 41.885C32.2742 41.874 32.1748 41.8536 32.0697 41.88C31.8211 41.9424 31.5765 41.9332 31.3385 41.8258C31.2828 41.8007 31.2182 41.7795 31.1584 41.7812C30.6829 41.7945 30.2014 41.7219 29.7344 41.862C29.5695 41.9115 29.4026 41.9327 29.2444 41.8764C28.906 41.7557 28.5395 41.8232 28.2021 41.7057C28.1654 41.6929 28.1156 41.6932 28.0797 41.7072C27.887 41.7826 27.7086 41.7103 27.5344 41.6499C27.3322 41.5799 27.1436 41.5544 26.93 41.627C26.7166 41.6994 26.4784 41.6732 26.2606 41.7554C26.1883 41.7827 26.0925 41.7774 26.0155 41.7568C25.5631 41.6356 25.1222 41.6406 24.6677 41.7771C24.4351 41.8471 24.1753 41.8258 23.9341 41.8992C23.8585 41.9223 23.7634 41.9213 23.6877 41.8976C23.5049 41.8402 23.3248 41.855 23.1382 41.8569C22.9749 41.8584 22.8145 41.8136 22.6505 41.8784C22.5985 41.899 22.5267 41.8811 22.4668 41.8683C22.2041 41.8122 21.9433 41.7479 21.6802 41.6946C21.5793 41.6741 21.4734 41.6621 21.3711 41.6687C21.1865 41.6802 20.9981 41.7437 20.8199 41.7203C20.6338 41.696 20.45 41.6808 20.2633 41.6763C19.9724 41.6691 19.6874 41.6701 19.4006 41.7575C19.2281 41.8101 19.03 41.7949 18.8448 41.7855C18.5066 41.7685 18.1782 41.8122 17.8692 41.943C17.6497 42.0359 17.4301 42.0593 17.1996 42.039C16.9936 42.0208 16.7888 42.0128 16.583 41.9655C16.3636 41.9151 16.1299 41.919 15.9022 41.9159C15.6736 41.9128 15.4496 41.9188 15.2261 41.8392C15.0936 41.7921 14.9403 41.7924 14.7961 41.7909C14.2978 41.7854 13.7993 41.7909 13.3009 41.7866C13.1984 41.7859 13.0885 41.7813 12.9949 41.7453C12.7747 41.6602 12.5501 41.6527 12.3202 41.6605C12.1126 41.6676 11.9047 41.6677 11.697 41.6685C11.5934 41.6688 11.4827 41.6863 11.387 41.657C11.0649 41.5585 10.7361 41.5321 10.403 41.523C10.2923 41.5201 10.2118 41.452 10.1491 41.364L10.1484 41.3632Z" fill="#FCFCFC"/>
<path d="M9.21389 9.96398C9.10604 9.63388 9.31065 9.30583 9.32657 8.95513C9.33718 8.72149 9.5123 8.54216 9.74531 8.4571C9.90092 8.40029 10.0617 8.35736 10.2202 8.30867C10.4835 8.22782 10.7134 8.09969 10.8767 7.86761C10.9358 7.78364 11.0197 7.71669 11.0761 7.63147C11.1074 7.58434 11.1197 7.51411 11.1158 7.45589C11.1028 7.26595 11.0343 7.09255 10.929 6.93461C10.8954 6.88435 10.8634 6.83285 10.791 6.82318C10.6886 6.80929 10.5801 6.80243 10.4876 6.76232C10.2505 6.65947 10.0459 6.7144 9.84193 6.84768C9.76623 6.89716 9.72144 6.95412 9.70817 7.04105C9.69881 7.10254 9.69272 7.16576 9.67353 7.22428C9.50185 7.7465 8.86272 7.90662 8.46505 7.52831C8.24842 7.32229 8.18116 6.93119 8.32943 6.66415C8.42963 6.48388 8.54387 6.31096 8.66108 6.1413C8.70681 6.07513 8.76924 6.00988 8.83932 5.97273C9.23995 5.76079 9.64481 5.55665 10.0807 5.42352C10.1996 5.38716 10.3229 5.36032 10.4361 5.31084C10.6941 5.19769 10.9405 5.24888 11.1387 5.41042C11.3163 5.5551 11.5153 5.66512 11.6895 5.80871C11.8315 5.92576 11.9458 6.07699 12.0697 6.21527C12.1107 6.26116 12.147 6.3122 12.1799 6.36433C12.2264 6.43784 12.4234 7.22522 12.4213 7.31668C12.417 7.50256 12.4099 7.6886 12.4077 7.87464C12.4062 8.00496 12.3617 8.12263 12.284 8.22002C12.1682 8.36517 12.0557 8.51281 11.9414 8.65827C11.7502 8.90143 11.4813 9.06718 11.2339 9.25135C11.1317 9.32736 10.9989 9.32018 10.8757 9.33922C10.7059 9.36528 10.5805 9.50247 10.5625 9.6768C10.5477 9.82038 10.5477 9.9657 10.5461 10.1102C10.5452 10.1929 10.5613 10.276 10.5572 10.3584C10.5439 10.6357 10.3961 10.8411 10.1489 10.934C9.57629 11.1487 9.17596 10.7125 9.17955 10.3033C9.18049 10.2003 9.19984 10.0976 9.21389 9.96445V9.96398Z" fill="#12C0B5"/>
<path d="M34.2721 11.6028C34.1268 11.7103 34.0987 11.8796 34.0463 12.0354C33.9598 12.2927 33.7842 12.4488 33.5227 12.5158C33.2559 12.584 33.0273 12.5058 32.8402 12.3208C32.6304 12.1137 32.582 11.8565 32.6661 11.5753C32.6778 11.5361 32.6959 11.4963 32.7209 11.4643C32.8898 11.2474 32.9652 10.9877 33.0577 10.7359C33.1674 10.7103 33.2389 10.634 33.2857 10.5405C33.3805 10.351 33.5017 10.1928 33.6873 10.0789C33.7717 10.0271 33.8295 9.93075 33.8966 9.85224C33.9938 9.73862 34.1143 9.64685 34.2565 9.61954C34.5537 9.56226 34.7876 9.39542 35.0128 9.21469C35.1469 9.10716 35.2908 9.01741 35.4561 9.00835C35.6537 8.99759 35.8043 8.88116 35.9814 8.82887C36.2112 8.60428 36.5406 8.56886 36.7994 8.39765C36.9402 8.30447 37.1023 8.2589 37.2723 8.27248C37.4889 8.28981 37.6835 8.23502 37.8548 8.10704C37.9932 8.00356 38.1446 7.9619 38.3152 7.94473C38.4979 7.92631 38.6762 7.85701 38.8589 7.84344C39.0251 7.83126 39.184 7.80333 39.3465 7.76837C39.6382 7.70548 39.8801 7.82533 40.0519 8.05944C40.2263 8.29698 40.2422 8.56309 40.0992 8.82124C39.9574 9.07766 39.7234 9.23404 39.434 9.19143C39.1161 9.14446 38.8202 9.15133 38.5251 9.27977C38.4516 9.31177 38.3639 9.32737 38.2838 9.3244C38.036 9.31535 37.844 9.41321 37.6832 9.59487C37.6436 9.63982 37.5843 9.68696 37.5287 9.69492C37.2373 9.73643 36.9917 9.91078 36.7076 9.96899C36.4623 10.0192 36.2311 10.0949 36.0424 10.2716C35.919 10.3873 35.7717 10.4514 35.6004 10.4801C35.3927 10.5149 35.209 10.6123 35.0732 10.781C34.9801 10.8968 34.8605 10.9752 34.7317 11.0449C34.5638 11.1358 34.4411 11.2783 34.3306 11.4287C34.2963 11.4755 34.2911 11.5436 34.2726 11.602L34.2721 11.6028Z" fill="#070607"/>
<path d="M48.2162 16.2403C48.2162 16.1697 48.2004 16.0631 48.2193 15.9631C48.2691 15.7 48.3339 15.4398 48.3927 15.1784C48.5772 14.9524 48.8241 14.796 49.046 14.6142C49.1489 14.5301 49.3148 14.5159 49.4555 14.4867C49.6868 14.4386 49.8871 14.345 50.04 14.1591C50.0984 14.0881 50.1181 14.0103 50.0809 13.9304C50.0288 13.8187 49.9734 13.7061 49.9018 13.6066C49.8399 13.5204 49.7399 13.4747 49.6313 13.4745C49.312 13.4741 49.0153 13.5524 48.7559 13.7461C48.6318 13.8387 48.4918 13.8599 48.3432 13.8497C48.0904 13.8326 47.8713 13.6253 47.8435 13.3753C47.8216 13.1799 47.8613 13.0032 48.01 12.863C48.1456 12.7352 48.2725 12.5957 48.4206 12.4844C48.5853 12.3608 48.7785 12.2795 48.9421 12.149C49.0583 12.0563 49.211 12.0316 49.3567 12.0472C49.5245 12.0652 49.6818 12.0476 49.8477 12.0162C50.1368 11.9616 50.3756 12.0861 50.5573 12.3118C50.6084 12.3755 50.6457 12.453 50.6768 12.5294C50.7347 12.6719 50.8435 12.7639 50.9662 12.8445C51.0008 12.8673 51.037 12.8883 51.0745 12.906C51.4367 13.0769 51.5876 13.3645 51.5683 13.7605C51.5624 13.8817 51.6031 14.0052 51.6212 14.1279C51.6601 14.3905 51.6082 14.6284 51.4011 14.8066C51.2888 14.9032 51.1998 15.0134 51.1199 15.1356C51.0131 15.2989 50.8599 15.3998 50.6726 15.4512C50.5737 15.4783 50.4697 15.4952 50.3773 15.5369C50.058 15.6811 49.7427 15.8342 49.4259 15.9839C49.3872 16.0021 49.37 16.1058 49.382 16.1535C49.42 16.3046 49.5484 16.3878 49.6346 16.5025C49.797 16.719 49.8292 16.9553 49.7457 17.2097C49.6475 17.5092 49.3571 17.7122 49.0318 17.7094C48.709 17.7066 48.4028 17.4959 48.3379 17.1884C48.2744 16.8878 48.143 16.593 48.2163 16.24L48.2162 16.2403Z" fill="#12C0B5"/>
<path d="M37.0545 12.6717C36.8755 12.7096 36.6885 12.7001 36.5197 12.7995C36.4146 12.8613 36.3001 12.8991 36.2119 12.9944C36.144 13.0679 36.0547 13.1503 35.9633 13.1678C35.6978 13.2185 35.4643 13.3512 35.2102 13.4266C35.0872 13.4631 34.968 13.4189 34.8512 13.3735C34.5948 13.2735 34.4584 13.0739 34.4214 12.816C34.3835 12.5515 34.4941 12.3319 34.7083 12.1743C34.7893 12.1146 34.8964 12.0905 34.9772 12.0305C35.0395 11.9843 35.0791 11.9077 35.1287 11.8446C35.2893 11.8108 35.4245 11.6918 35.5993 11.7042C35.8164 11.7195 36.0123 11.6277 36.1819 11.5233C36.4167 11.3789 36.6597 11.2989 36.9254 11.236C37.5379 11.0911 38.0076 10.9876 38.4384 10.9613C38.585 10.9522 38.722 10.9734 38.854 11.054C39.2319 11.2843 39.2456 11.8668 38.9136 12.1192C38.81 12.198 38.6942 12.2613 38.5729 12.2481C38.1447 12.2014 37.7623 12.3743 37.3681 12.4839C37.2549 12.5153 37.1586 12.6074 37.0547 12.6717H37.0545Z" fill="#070607"/>
<path d="M49.5539 18.6697C49.858 18.6826 50.1597 18.9572 50.1693 19.3876C50.1791 19.8352 49.8751 20.1301 49.4349 20.1461C49.2107 20.1544 48.9842 20.1057 48.7591 20.0789C48.7197 20.0742 48.68 20.0544 48.6444 20.0345C48.2095 19.7911 48.234 19.1691 48.5887 18.9413C48.6746 18.886 49.2342 18.6808 49.3399 18.6703C49.3806 18.6663 49.4223 18.6697 49.554 18.6697H49.5539Z" fill="#12C0B5"/>
<path d="M9.41992 13.653C9.42008 13.2917 9.72987 12.9744 10.0874 12.9785C10.4086 12.9821 10.7542 13.221 10.7578 13.6502C10.7612 14.0552 10.4403 14.3142 10.0904 14.3234C9.73378 14.3327 9.41961 14.0136 9.41992 13.653Z" fill="#12C0B5"/>
<path d="M22.4489 11.6869C22.9071 11.67 23.2038 12.0903 23.1386 12.4573C23.121 12.5564 23.0779 12.6547 23.0285 12.7435C22.9688 12.851 22.868 12.9395 22.8238 13.0516C22.735 13.2773 22.5958 13.4468 22.3729 13.5381C22.1911 13.6125 22.0554 13.7516 21.9546 13.8986C21.6634 14.323 21.3413 14.7267 21.0794 15.1709C21.0272 15.2592 20.9979 15.3608 20.9467 15.45C20.8957 15.5386 20.8439 15.6343 20.7689 15.7001C20.5609 15.8835 20.4509 16.1296 20.3165 16.3606C20.2859 16.4134 20.2884 16.4906 20.2495 16.5323C20.0399 16.7578 19.9667 17.0297 19.9471 17.3269C19.9418 17.4074 19.9262 17.505 19.8773 17.5621C19.67 17.8042 19.6627 18.1425 19.4623 18.3886C19.4019 18.4628 19.4049 18.5853 19.3638 18.6791C19.2282 18.989 18.942 19.1665 18.6211 19.1337C18.3036 19.1013 18.0879 18.9336 17.9763 18.6279C17.9069 18.4375 17.9227 18.2555 18.0194 18.0887C18.134 17.8912 18.2247 17.6857 18.3133 17.4762C18.3701 17.3422 18.4158 17.2097 18.4539 17.07C18.4859 16.9529 18.5382 16.8293 18.6167 16.7394C18.8516 16.4705 18.9928 16.1501 19.1572 15.8408C19.3112 15.5505 19.4987 15.2777 19.5669 14.9466C19.5829 14.8687 19.6296 14.7898 19.6822 14.7283C19.9368 14.4305 20.1707 14.1187 20.3852 13.7907C20.4399 13.7071 20.5339 13.6497 20.6066 13.5769C20.694 13.4897 20.7913 13.4081 20.8599 13.3074C20.9522 13.1719 21.0101 13.0129 21.1036 12.8785C21.1847 12.7618 21.299 12.6687 21.3904 12.5584C21.456 12.4794 21.4912 12.3661 21.5697 12.3087C21.7569 12.1717 21.877 11.9744 22.0453 11.8225C22.1436 11.7337 22.2877 11.6881 22.4487 11.687L22.4489 11.6869Z" fill="#070607"/>
<path d="M35.7337 21.9892C35.752 22.1354 35.7665 22.2172 35.7716 22.2996C35.7835 22.4916 35.7499 22.674 35.6173 22.8215C35.5051 22.9462 35.4108 23.0778 35.3593 23.2404C35.3415 23.2969 35.3011 23.355 35.2549 23.3921C35.0601 23.5482 34.9086 23.7423 34.7469 23.9295C34.6022 24.0968 34.3884 24.1628 34.1817 24.1288C33.9133 24.0848 33.6511 24.0768 33.3805 24.0905C32.995 24.1102 32.7239 23.8101 32.7399 23.4155C32.7474 23.2301 32.7582 23.0447 32.7751 22.8599C32.7825 22.7788 32.7944 22.6923 32.8292 22.6205C33.0001 22.2687 33.1612 21.9141 33.2793 21.5397C33.3082 21.4481 33.389 21.3613 33.4675 21.2996C33.5977 21.1971 33.7185 21.0908 33.8279 20.9641C33.9854 20.7818 34.1987 20.6885 34.4396 20.7415C34.5861 20.7738 34.7256 20.7575 34.8692 20.7601C35.0868 20.7642 35.2686 20.8531 35.3952 21.0404C35.4646 21.1431 35.5411 21.2411 35.6159 21.3402C35.7062 21.4599 35.7576 21.591 35.7457 21.744C35.7378 21.8468 35.7353 21.9502 35.7334 21.9889L35.7337 21.9892Z" fill="#070607"/>
<path d="M26.4372 20.4751C26.2608 20.4735 26.1062 20.4359 25.9705 20.3226C25.7495 20.1378 25.5236 19.959 25.2963 19.7818C25.0163 19.5636 24.9523 19.2804 25.0413 18.952C25.0625 18.8733 25.1279 18.8014 25.132 18.7243C25.1468 18.4491 25.1858 18.1888 25.407 17.9932C25.5925 17.8292 25.6394 17.559 25.8688 17.4198C25.9857 17.3488 26.059 17.2079 26.1561 17.1022C26.3019 16.9437 26.48 16.8485 26.6996 16.8433C26.8433 16.8399 27.5942 17.0498 27.6994 17.1306C27.9297 17.3078 28.0766 17.5534 27.9923 17.8312C27.8982 18.1418 27.9199 18.4945 27.6889 18.7603C27.6301 18.9557 27.4996 19.1288 27.5086 19.3459C27.5104 19.3865 27.5054 19.4307 27.4902 19.4676C27.4592 19.5437 27.4381 19.6409 27.3794 19.6854C27.1278 19.8762 27.0723 20.2274 26.7868 20.3889C26.673 20.4532 26.5541 20.4668 26.437 20.4753L26.4372 20.4751Z" fill="#070607"/>
</svg>
