<svg width="79" height="59" viewBox="0 0 79 59" fill="none" xmlns="http://www.w3.org/2000/svg">
<path d="M27.5173 14.4233C27.3887 13.2654 25.9128 12.3608 25.6526 11.1898C25.4938 10.4752 24.2589 8.30386 23.6509 7.95642C22.3921 7.23708 21.5317 6.18577 20.1267 5.5613C18.6209 4.89209 16.095 4.53745 14.5837 5.25335C7.28482 8.7107 3.84588 16.455 1.71841 23.9011C1.46383 24.7922 0.725708 28.5263 1.18806 29.3586C1.6557 30.2003 2.02948 32.0672 2.24876 33.0539C2.88526 35.9182 5.27065 36.3263 7.80887 35.124C9.47387 34.3353 10.9304 33.7817 12.2741 32.438C13.3647 31.3474 14.3852 30.0779 15.5246 29.0335C16.6575 27.9951 17.4768 26.7905 18.5185 25.7488C19.2171 25.0502 20.4294 23.3694 20.7426 22.4298" stroke="#33333A" stroke-width="1.5" stroke-linecap="round"/>
<path d="M51.0002 14.4233C51.1289 13.2654 52.6048 12.3608 52.865 11.1898C53.0238 10.4752 54.2586 8.30386 54.8667 7.95642C56.1255 7.23708 56.9859 6.18577 58.3909 5.5613C59.8966 4.89209 62.4226 4.53745 63.9339 5.25335C71.2328 8.7107 74.6717 16.455 76.7992 23.9011C77.0538 24.7922 77.7919 28.5263 77.3295 29.3586C76.8619 30.2003 76.4881 32.0672 76.2688 33.0539C75.6323 35.9182 73.2469 36.3263 70.7087 35.124C69.0437 34.3353 67.5872 33.7817 66.2435 32.438C65.1528 31.3474 64.1323 30.0779 62.993 29.0335C61.8601 27.9951 61.0408 26.7905 59.9991 25.7488C59.3005 25.0502 58.0882 23.3694 57.775 22.4298" stroke="#33333A" stroke-width="1.5" stroke-linecap="round"/>
<path d="M14.5 30.5C14.5 31.3198 14.6261 33.3854 14.6714 34.1998C14.7047 34.7997 15.1066 35.3942 15.1275 35.9989C15.1483 36.6039 15.2264 37.7074 15.5266 38.2477C15.8088 38.7557 15.6554 39.5176 15.8686 40.0721C16.1427 40.7847 16.1913 41.6931 16.5464 42.3526C16.8662 42.9465 16.8607 43.8007 17.351 44.291C17.664 44.6041 17.7266 45.11 17.9781 45.4693C18.2304 45.8297 18.5577 46.1065 18.7509 46.5145C19.0412 47.1272 19.6039 47.5526 19.8278 48.1995C19.9908 48.6703 20.6386 49.2204 21.0188 49.5298C21.7411 50.1178 22.3057 51.1106 23.1092 51.5569C23.4394 51.7404 23.6757 52.1162 23.9961 52.3298C24.394 52.5951 24.8351 52.7615 25.2694 52.9569C26.2869 53.4148 27.3693 53.9129 28.4747 54.0972C29.1165 54.2041 30.3182 54.3705 30.8883 54.7243C31.6106 55.1727 32.6666 55.4084 33.5108 55.4084C34.547 55.4084 35.583 55.7505 36.6148 55.7505C38.6744 55.7505 40.8831 56.1743 42.9369 55.8075C43.7184 55.668 44.3906 55.6065 45.116 55.2437C45.4658 55.0689 45.8528 54.9771 46.2436 54.8953C47.3374 54.6664 48.2151 54.5515 49.2463 54.1415C50.3585 53.6993 51.4127 53.0197 52.553 52.6718C53.3582 52.4262 54.1936 51.9203 54.7195 51.2529C55.2216 50.6156 55.826 50.1412 56.4045 49.5932C57.0498 48.9818 57.5178 47.9808 57.9375 47.2177C58.7676 45.7084 60.0411 44.43 60.6804 42.796C60.8579 42.3424 61.0139 41.8682 61.2442 41.4404C61.511 40.9449 61.4826 40.4459 61.599 39.9137C61.7182 39.3685 61.9917 38.8217 61.9917 38.254C61.9917 37.8189 61.8364 37.4288 61.903 36.9871C62.08 35.8146 62.5283 34.6259 62.5619 33.4523C62.5837 32.6879 63 30.2918 63 29.5" stroke="#33333A" stroke-width="1.5" stroke-linecap="round"/>
<path d="M28 22.5684C28.8369 22.5898 29.6659 22.7096 30.4945 22.8191C30.7706 22.8555 30.984 22.9049 31.2122 23.076C31.6571 23.4097 32.2591 23.6112 32.7822 23.7968C33.5163 24.0573 34.0302 24.3988 34.4996 25.019C34.675 25.2508 35.0035 25.54 35.1013 25.8087C35.1645 25.9828 35.5 26.4998 35.5 26.4998" stroke="#33333A" stroke-width="1.5" stroke-linecap="round"/>
<path d="M51.5 22.5684C50.6631 22.5898 49.8341 22.7096 49.0055 22.8191C48.7294 22.8555 48.516 22.9049 48.2878 23.076C47.8429 23.4097 47.2409 23.6112 46.7178 23.7968C45.9837 24.0573 45.4698 24.3988 45.0004 25.019C44.825 25.2508 44.4965 25.54 44.3987 25.8087C44.3355 25.9828 44 26.4998 44 26.4998" stroke="#33333A" stroke-width="1.5" stroke-linecap="round"/>
<path d="M38.9557 51.2387C38.6791 51.1281 38.3603 51.1198 38.1056 50.9577C37.9686 50.8705 37.7596 50.836 37.6033 50.7891C37.2876 50.6944 36.9852 50.7825 36.7426 50.5256C36.5545 50.3264 36.2738 50.1771 36.0401 50.0303C35.9244 49.9577 35.8434 49.8535 35.7415 49.7651C35.5325 49.584 35.3161 49.4547 35.0741 49.3173C34.7677 49.1432 34.5536 48.8349 34.3329 48.569C34.19 48.3969 34.1043 48.2141 34.087 47.9894C34.0776 47.8676 34.0514 47.6813 34.0168 47.5644C33.9731 47.4171 34.0249 47.2899 34.0572 47.1446C34.0892 47.0005 34.3193 46.8225 34.4541 46.7811C34.8907 46.6467 35.3391 46.5681 35.7907 46.5106C36.3393 46.4408 36.895 46.4174 37.4417 46.3314C37.7739 46.2792 38.1446 46.1804 38.4797 46.1804C39.2026 46.1804 39.9194 45.9544 40.6505 46.0241C41.0382 46.061 41.4236 46.1593 41.8115 46.205C42.3029 46.2628 42.7937 46.3258 43.2851 46.3841C43.4893 46.4083 43.5504 46.4477 43.7049 46.5984C44.015 46.9009 44.3267 47.0657 44.2265 47.5416C44.1017 48.1342 43.5777 48.634 43.185 49.0643C42.8227 49.4614 42.4472 49.8372 42.0679 50.2165C41.9479 50.3365 41.847 50.4707 41.7026 50.5643C41.39 50.7669 41.0384 50.9091 40.712 51.0877C40.4004 51.2582 40.13 51.485 39.8233 51.6602C39.6854 51.739 39.5354 51.7926 39.3983 51.871" stroke="#33333A" stroke-width="2" stroke-linecap="round"/>
<path d="M34.0859 47.5L39.5859 52L44.0859 47.5L39.5859 46L34.0859 47.5Z" fill="#33333A"/>
<path d="M39.3669 49.4053C39.0828 50.7408 39.1022 52.079 39.1755 53.4344C39.2038 53.9585 39.3353 55.526 39.3353 55.0011" stroke="#33333A" stroke-width="1.5" stroke-linecap="round"/>
<path d="M50.0418 43.0031C50.617 42.6734 51.1547 42.3789 51.6611 41.9475C52.76 41.0114 54.2354 40.5901 55.362 39.6942C56.0735 39.1284 56.7987 38.639 57.5638 38.1551C57.6124 38.1244 57.9896 37.8939 57.9784 37.9249C57.7982 38.4232 57.5182 38.8911 57.3389 39.3947C57.1235 40.0002 57.0658 40.6619 56.8492 41.2667C56.7743 41.4758 56.5991 41.7235 56.5857 41.9485C56.5732 42.1568 56.8155 41.9817 56.9018 41.9389C57.4046 41.6899 57.8746 41.3812 58.3557 41.0936C60.1584 40.0158 61.9578 38.9628 63.7933 37.9455C64.3879 37.616 65.0057 37.2032 65.636 36.9484" stroke="#FA4D81" stroke-width="1.5" stroke-linecap="round"/>
<path d="M26.2656 37.9996C25.6623 38.2746 25.0997 38.5181 24.5555 38.9007C23.3747 39.731 21.8665 40.0139 20.6618 40.8016C19.901 41.299 19.1336 41.7192 18.3269 42.1302C18.2757 42.1562 17.8787 42.3508 17.8928 42.3209C18.1184 41.8415 18.4405 41.4015 18.6656 40.9167C18.9363 40.3337 19.0549 39.6803 19.3266 39.098C19.4206 38.8968 19.6179 38.6664 19.6522 38.4436C19.6839 38.2374 19.4264 38.3893 19.3365 38.4239C18.8128 38.6253 18.3162 38.8891 17.8106 39.1309C15.9158 40.0371 14.0266 40.9189 12.1048 41.7618C11.4823 42.0349 10.8288 42.3886 10.1777 42.584" stroke="#FA4D81" stroke-width="1.5" stroke-linecap="round"/>
<path d="M35.3477 6.19531C36.4706 7.45862 38.1182 9.45185 38.1182 11.2515C38.1182 11.6492 38.3491 13.6987 38.1182 13.8142" stroke="#33333A" stroke-width="1.5" stroke-linecap="round"/>
<path d="M40.75 14.0904C40.75 12.2569 41.3029 10.7695 41.8582 9.10352" stroke="#33333A" stroke-width="1.5" stroke-linecap="round"/>
<path d="M32.8929 37C32.7643 37 32.5612 36.8583 32.4722 36.7637C32.2917 36.5717 32.039 36.4671 31.8234 36.3333C31.4329 36.0911 31.0974 35.6009 30.8214 35.2342C30.704 35.0781 30.5896 34.9359 30.4921 34.7595C30.3342 34.4741 30.0714 34.0208 30.0714 33.6772C30.0714 33.4247 30 33.1622 30 32.8987C30 32.6571 30.0609 32.5027 30.1091 32.2722C30.1643 32.0084 30.5235 31.3973 30.8214 31.3797C31.0376 31.367 31.2557 31.3418 31.4821 31.3418C31.6601 31.3418 31.8817 31.4451 32.0714 31.4557C32.1944 31.4626 32.5274 31.6346 32.6071 31.7405C32.6847 31.8436 32.8249 31.8777 32.8929 32.0042C32.9234 32.061 32.9945 32.1279 33.0357 32.1772C33.149 32.3128 33.2059 32.4973 33.248 32.654C33.2498 32.6607 33.2512 32.6704 33.2522 32.6817C33.2614 32.546 33.2982 32.4132 33.3492 32.2911C33.6727 31.5171 34.2874 31 35.0893 31C35.307 31 35.7242 31.407 35.7837 31.6287C35.8762 31.9729 36 32.3374 36 32.7278V33.4494C36 33.642 35.8704 33.8079 35.8571 33.9916C35.8494 34.0981 35.7096 34.348 35.6508 34.4262C35.6045 34.4877 35.5837 34.5896 35.5179 34.6456C35.3932 34.7516 35.3377 34.9489 35.2222 35.0717C34.9166 35.3967 34.6725 35.7653 34.3135 36.0295C34.1017 36.1855 33.9352 36.4694 33.6964 36.5823C33.5406 36.6559 33.0421 36.9207 32.8929 37Z" fill="#FA4D81" stroke="#FA4D81" stroke-width="2" stroke-linecap="round"/>
<path d="M45.8929 37C45.7643 37 45.5612 36.8583 45.4722 36.7637C45.2917 36.5717 45.039 36.4671 44.8234 36.3333C44.4329 36.0911 44.0974 35.6009 43.8214 35.2342C43.704 35.0781 43.5896 34.9359 43.4921 34.7595C43.3342 34.4741 43.0714 34.0208 43.0714 33.6772C43.0714 33.4247 43 33.1622 43 32.8987C43 32.6571 43.0609 32.5027 43.1091 32.2722C43.1643 32.0084 43.5235 31.3973 43.8214 31.3797C44.0376 31.367 44.2557 31.3418 44.4821 31.3418C44.6601 31.3418 44.8817 31.4451 45.0714 31.4557C45.1944 31.4626 45.5274 31.6346 45.6071 31.7405C45.6847 31.8436 45.8249 31.8777 45.8929 32.0042C45.9234 32.061 45.9945 32.1279 46.0357 32.1772C46.149 32.3128 46.2059 32.4973 46.248 32.654C46.2498 32.6607 46.2512 32.6704 46.2522 32.6817C46.2614 32.546 46.2982 32.4132 46.3492 32.2911C46.6727 31.5171 47.2874 31 48.0893 31C48.307 31 48.7242 31.407 48.7837 31.6287C48.8762 31.9729 49 32.3374 49 32.7278V33.4494C49 33.642 48.8704 33.8079 48.8571 33.9916C48.8494 34.0981 48.7096 34.348 48.6508 34.4262C48.6045 34.4877 48.5837 34.5896 48.5179 34.6456C48.3932 34.7516 48.3377 34.9489 48.2222 35.0717C47.9166 35.3967 47.6725 35.7653 47.3135 36.0295C47.1017 36.1855 46.9352 36.4694 46.6964 36.5823C46.5406 36.6559 46.0421 36.9207 45.8929 37Z" fill="#FA4D81" stroke="#FA4D81" stroke-width="2" stroke-linecap="round"/>
</svg>
