<svg width="61" height="54" viewBox="0 0 61 54" fill="none" xmlns="http://www.w3.org/2000/svg">
<path d="M23 19.4284C22.9028 18.5291 21.788 17.8265 21.5915 16.917C21.4715 16.3619 20.5388 14.6754 20.0796 14.4055C19.1287 13.8468 18.4788 13.0302 17.4176 12.5452C16.2802 12.0254 14.3723 11.75 13.2307 12.306C7.71765 14.9914 5.12009 21.0065 3.51314 26.7901C3.32084 27.4821 2.76331 30.3825 3.11254 31.029C3.46577 31.6828 3.7481 33.1328 3.91373 33.8992C4.3945 36.1239 6.19627 36.4409 8.11348 35.5071C9.37111 34.8945 10.4713 34.4645 11.4862 33.4208C12.31 32.5737 13.0809 31.5877 13.9415 30.7765C14.7971 29.9699 15.416 29.0343 16.2029 28.2252C16.7305 27.6825 17.6462 26.377 17.8828 25.6473" stroke="#33333A" stroke-linecap="round"/>
<path d="M14 31.7559C14 32.3757 14.0962 33.9371 14.1307 34.5528C14.1562 35.0063 14.4628 35.4557 14.4787 35.9128C14.4946 36.3701 14.5542 37.2044 14.7831 37.6128C14.9985 37.9968 14.8814 38.5727 15.0441 38.9919C15.2532 39.5306 15.2903 40.2173 15.5612 40.7158C15.8052 41.1648 15.8009 41.8106 16.175 42.1812C16.4138 42.4179 16.4615 42.8003 16.6534 43.0719C16.8459 43.3443 17.0956 43.5536 17.243 43.862C17.4644 44.3252 17.8937 44.6468 18.0645 45.1358C18.1888 45.4917 18.683 45.9075 18.9731 46.1414C19.5242 46.5859 19.9549 47.3364 20.5679 47.6738C20.8198 47.8125 21 48.0966 21.2444 48.258C21.548 48.4586 21.8845 48.5844 22.2158 48.7321C22.9921 49.0783 23.8178 49.4548 24.6611 49.5941C25.1507 49.6749 26.0675 49.8007 26.5024 50.0682C27.0534 50.4071 27.8591 50.5854 28.5031 50.5854C29.2936 50.5854 30.0839 50.8439 30.8711 50.8439C32.4423 50.8439 34.1273 51.1643 35.6941 50.887C36.2903 50.7815 36.8031 50.7351 37.3566 50.4608C37.6234 50.3286 37.9186 50.2593 38.2168 50.1975C39.0512 50.0244 39.7208 49.9375 40.5075 49.6276C41.356 49.2933 42.1602 48.7796 43.0301 48.5166C43.6444 48.3309 44.2817 47.9485 44.6829 47.444C45.066 46.9622 45.5271 46.6036 45.9684 46.1893C46.4607 45.7272 46.8177 44.9704 47.1379 44.3936C47.7711 43.2527 48.7427 42.2862 49.2304 41.0511C49.3658 40.7082 49.4848 40.3497 49.6605 40.0263C49.8641 39.6517 49.8424 39.2745 49.9312 38.8722C50.0222 38.4601 50.2308 38.0467 50.2308 37.6176C50.2308 37.2886 50.1123 36.9937 50.1631 36.6598C50.2982 35.7735 50.6402 34.8749 50.6657 33.9877C50.6824 33.4099 51 31.5985 51 31" stroke="#33333A" stroke-linecap="round"/>
<path d="M28 25C27.3305 25.0164 26.6673 25.1078 26.0044 25.1913C25.7835 25.2191 25.6128 25.2568 25.4303 25.3874C25.0743 25.642 24.5927 25.7958 24.1742 25.9374C23.587 26.1362 23.1759 26.3968 22.8003 26.8701C22.66 27.0469 22.3972 27.2676 22.319 27.4727C22.2684 27.6055 22 28 22 28" stroke="#33333A" stroke-linecap="round"/>
<path d="M38 25C38.6695 25.0164 39.3327 25.1078 39.9956 25.1913C40.2165 25.2191 40.3872 25.2568 40.5697 25.3874C40.9257 25.642 41.4073 25.7958 41.8258 25.9374C42.413 26.1362 42.8241 26.3968 43.1997 26.8701C43.34 27.0469 43.6028 27.2676 43.681 27.4727C43.7316 27.6055 44 28 44 28" stroke="#33333A" stroke-linecap="round"/>
<path d="M27.0263 35.3333C26.9127 35.3333 26.805 35.3215 26.7007 35.2591C26.6586 35.2339 26.6175 35.2063 26.5749 35.1825C26.5601 35.1743 26.5377 35.1685 26.5277 35.1507C26.4981 35.0982 26.4544 35.0579 26.4205 35.0088C26.3631 34.9255 26.3148 34.846 26.272 34.7496C26.1724 34.5253 26.031 34.2835 26.0109 34.0174C25.9912 33.7563 25.9964 33.5113 26.0418 33.2546C26.0776 33.0521 26.109 32.844 26.163 32.6485C26.2023 32.5065 26.2488 32.3977 26.3315 32.2904C26.3909 32.2133 26.4561 32.1711 26.5327 32.1272C26.5962 32.0908 26.6521 32.0402 26.7157 32.0064C26.7393 31.9939 26.7839 32.0033 26.8083 32.0047C26.9098 32.0104 27.0097 32.034 27.1117 32.0359C27.2631 32.0387 27.4246 32.0641 27.5577 32.1637C27.6066 32.2003 27.6372 32.2402 27.6676 32.2998C27.7168 32.3965 27.7771 32.4755 27.822 32.5778C27.8796 32.7093 27.9107 32.8583 27.9373 33.0043C27.9661 33.1626 27.9937 33.3282 27.9986 33.4914C28.0062 33.741 27.9815 33.9791 27.9577 34.2253C27.9356 34.455 27.8696 34.7734 27.7284 34.9351C27.5865 35.0976 27.3865 35.159 27.2139 35.2438C27.1598 35.2704 27.107 35.2999 27.0527 35.3251C27.0234 35.3386 27.0059 35.3214 26.9773 35.3121" stroke="#33333A" stroke-width="1.5" stroke-linecap="round"/>
<ellipse cx="27" cy="33.6667" rx="1" ry="1.66667" fill="#33333A"/>
<path d="M33.2151 47.7552C32.9991 47.6608 32.6989 47.6383 32.5 47.5C32.393 47.4256 32.1221 47.3717 32 47.3317C31.7535 47.2508 31.3309 47.0713 31.1415 46.8521C30.9946 46.6822 30.7754 46.5547 30.5929 46.4295C30.5026 46.3676 30.4394 46.2786 30.3598 46.2033C30.1966 46.0487 30.0276 45.9384 29.8387 45.8211C29.5994 45.6727 29.4323 45.4096 29.2599 45.1827C29.1484 45.0359 29.0814 44.8799 29.0679 44.6882C29.0606 44.5842 29.0401 44.4254 29.0131 44.3256C28.979 44.1999 29.0194 44.0914 29.0446 43.9674C29.0696 43.8445 29.2493 43.6926 29.3546 43.6572C29.6955 43.5426 30.0456 43.4755 30.3982 43.4265C30.8266 43.3669 31.2605 43.347 31.6873 43.2736C31.9468 43.229 32.2362 43.1447 32.4978 43.1447C33.0623 43.1447 33.622 42.952 34.1929 43.0114C34.4956 43.0429 34.7965 43.1268 35.0994 43.1657C35.4831 43.215 35.8663 43.2688 36.25 43.3186C36.4095 43.3392 36.4572 43.3728 36.5778 43.5014C36.8199 43.7595 37.0633 43.9001 36.9851 44.3061C36.8877 44.8118 36.4785 45.2382 36.1718 45.6053C35.8889 45.9441 35.5958 46.2648 35.2996 46.5884C35.2059 46.6908 35.1271 46.8052 35.0144 46.8851C34.7703 47.0579 34.4957 47.1793 34.2409 47.3317C33.9976 47.4771 33.7865 47.6706 33.547 47.8202C33.4393 47.8874 33.3222 47.9331 33.2151 48" stroke="#33333A" stroke-linecap="round"/>
<path d="M29 44.5C29 45 33 48 33 48C33 48 37 45.5 37 44.5C37 43.5 33.4 43 33.4 43C33.4 43 29 44 29 44.5Z" fill="#33333A"/>
<path d="M33 47C33 47.9369 33 48.8757 33 49.8265C33 50.1943 33 51.2939 33 50.9256" stroke="#33333A" stroke-linecap="round"/>
<path d="M40 18.3015C40.3161 18.1319 40.633 17.9653 40.9695 17.8423C42.1625 17.4059 42.9868 16.426 43.6882 15.4068C44.5147 14.206 45.3909 13.0115 46.1351 11.7639C46.6606 10.8829 47.3328 10.1046 47.7509 9.15816C48.3299 7.84776 48.8713 6.34929 49.9464 5.37596C50.3186 5.03903 51.2324 4.46782 51.7675 4.46782C52.583 4.46782 53.2968 3.77491 54.1938 4.07567C54.8722 4.30315 55.3542 4.68792 55.9687 5.04573C56.4916 5.35029 57.208 6.50574 57.3998 7.06325C57.6897 7.90568 57.9077 8.87008 57.9077 9.76187C57.9077 10.4591 58 11.1008 58 11.8052C58 12.3132 57.8606 12.714 57.7435 13.1984C57.6514 13.5793 57.5734 14.0097 57.5435 14.4006C57.4907 15.0905 57.0891 15.7905 56.8304 16.4181C56.6696 16.8083 56.5194 17.1707 56.297 17.5224C56.1657 17.7299 56.1915 18.0071 56.0405 18.2138C55.858 18.4634 55.6244 18.715 55.4198 18.9465C55.0024 19.4189 54.73 19.9131 54.4195 20.4738C54.2042 20.8627 53.9207 21.2133 53.7116 21.6038C53.6202 21.7746 53.6105 21.9771 53.4962 22.1353C53.3069 22.3971 52.993 22.8848 52.8601 23.1879C52.3416 24.37 52.0767 25.6336 51.7264 26.8669C51.6188 27.2458 50.9703 30.6018 50.9523 31" stroke="#33333A" stroke-linecap="round"/>
<path d="M52 12C51.889 13.0276 51.6884 14.0526 51.2919 15.0183C51.0398 15.6324 50.676 16.0147 50.2712 16.5561C49.8699 17.0927 49.4755 17.6788 48.9944 18.1509C48.7135 18.4264 48.1735 18.6713 48 19" stroke="#FF8CBD" stroke-linecap="round"/>
<path d="M26.0197 38.9995C26.3171 38.9951 26.5713 38.8144 26.8689 38.7913C27.2393 38.6668 27.9679 38.3022 28.3377 38.1666C28.5002 38.1071 28.7036 38.0453 28.8151 37.9283C28.9782 37.7573 29.0036 37.6791 29.1943 37.546C29.4146 37.3923 29.7055 37.0726 29.9328 36.926C30.0314 36.8623 30.1006 36.7645 30.1967 36.7091C30.2368 36.686 30.329 36.538 30.3545 36.4922C30.5788 36.0902 30.8414 35.5845 30.8967 35.1243C30.9659 34.5486 31 34.0114 31 33.4295C31 32.7733 30.9551 32.0558 30.7648 31.4254C30.6771 31.135 30.4656 30.6601 30.2426 30.4508C29.9735 30.1982 29.5731 30.0891 29.2959 29.8377C28.2464 28.8855 26.7605 29.0048 25.4488 29.0048C24.9021 29.0048 24.1631 29.06 23.6558 29.2766C23.4312 29.3726 23.2788 29.4165 23.0964 29.5774C22.7498 29.8831 22.2122 29.951 21.8857 30.2802C21.7453 30.4218 21.5673 30.4934 21.4095 30.6127C19.9159 31.742 19.873 34.0127 20.1042 35.7027C20.2018 36.4163 20.5624 37.0332 21.0738 37.5304C21.3493 37.7982 21.723 37.99 22.0435 38.1956C22.2405 38.3219 22.3544 38.4931 22.5829 38.5571C22.8872 38.6423 23.1968 38.7564 23.5009 38.8549C23.7424 38.9332 24.0328 38.8954 24.2869 38.8954C24.8695 38.8954 25.4359 39.0082 26.0197 38.9995Z" stroke="#33333A" stroke-linecap="round"/>
<path d="M39.9803 38.9995C39.6829 38.9951 39.4287 38.8144 39.1311 38.7913C38.7607 38.6668 38.0321 38.3022 37.6623 38.1666C37.4998 38.1071 37.2964 38.0453 37.1849 37.9283C37.0218 37.7573 36.9964 37.6791 36.8057 37.546C36.5854 37.3923 36.2945 37.0726 36.0672 36.926C35.9686 36.8623 35.8994 36.7645 35.8033 36.7091C35.7632 36.686 35.671 36.538 35.6455 36.4922C35.4212 36.0902 35.1586 35.5845 35.1033 35.1243C35.0341 34.5486 35 34.0114 35 33.4295C35 32.7733 35.0449 32.0558 35.2352 31.4254C35.3229 31.135 35.5344 30.6601 35.7574 30.4508C36.0265 30.1982 36.4269 30.0891 36.7041 29.8377C37.7536 28.8855 39.2395 29.0048 40.5512 29.0048C41.0979 29.0048 41.8369 29.06 42.3442 29.2766C42.5688 29.3726 42.7212 29.4165 42.9036 29.5774C43.2502 29.8831 43.7878 29.951 44.1143 30.2802C44.2547 30.4218 44.4327 30.4934 44.5905 30.6127C46.0841 31.742 46.127 34.0127 45.8958 35.7027C45.7982 36.4163 45.4376 37.0332 44.9262 37.5304C44.6507 37.7982 44.277 37.99 43.9565 38.1956C43.7595 38.3219 43.6456 38.4931 43.4171 38.5571C43.1128 38.6423 42.8032 38.7564 42.4991 38.8549C42.2576 38.9332 41.9672 38.8954 41.7131 38.8954C41.1305 38.8954 40.5641 39.0082 39.9803 38.9995Z" stroke="#33333A" stroke-linecap="round"/>
<path d="M16 29C16.4674 29.2407 16.9544 29.4188 17.4364 29.6332C17.7803 29.7862 18.1172 30.0011 18.4799 30.1347C18.6388 30.1932 18.7117 30.3703 18.8696 30.4327C18.9958 30.4826 19.1206 30.5683 19.2464 30.6275C19.4941 30.7442 19.7196 30.9168 20 31" stroke="#33333A" stroke-linecap="round"/>
<path d="M51.5 27.5C51.0761 27.8371 50.8623 27.8674 50.3755 28.1256C50.0934 28.2751 49.8302 28.4768 49.5479 28.6284C49.0166 28.9139 48.4628 29.1251 47.9148 29.3793C47.5238 29.5607 47.1407 29.8156 46.7284 29.9739C46.5477 30.0433 46.4647 30.2533 46.2853 30.3273C46.1417 30.3865 45.9999 30.488 45.8569 30.5583C45.5752 30.6967 45.3188 30.9014 45 31" stroke="#33333A" stroke-linecap="round"/>
<path d="M42 32.6133C41.7405 32.6011 41.5061 32.5348 41.2423 32.5348C40.6985 32.5348 40.0606 32.4551 39.5323 32.537C39.2744 32.5769 39.0075 32.7805 38.7464 32.849C38.3725 32.9471 37.987 33.1265 37.7353 33.3901C37.5677 33.5657 37.3828 33.786 37.2643 33.988C37.215 34.072 37.1642 34.1561 37.1158 34.2411C37.0801 34.3038 36.9064 34.5584 37.0671 34.4877C37.4976 34.2983 38.0095 34.0758 38.4981 34.0295C39.3517 33.9486 40.2483 34.091 41.0784 34.2237" stroke="#33333A" stroke-linecap="round"/>
<path d="M30 13C30.7817 13.8291 31.9285 15.1371 31.9285 16.3182C31.9285 16.5792 32.0893 17.9242 31.9285 18" stroke="#33333A" stroke-linecap="round"/>
<path d="M34 18C34 16.897 34.4989 16.0022 35 15" stroke="#33333A" stroke-linecap="round"/>
<path d="M31.1777 34.0354C31.9897 33.9392 32.7831 33.9221 33.5975 33.9221C33.9443 33.9221 34.2809 34.092 34.6327 34.092" stroke="#33333A" stroke-linecap="round"/>
</svg>
