<svg width="60" height="48" viewBox="0 0 60 48" fill="none" xmlns="http://www.w3.org/2000/svg">
<path d="M32.5677 9.21099C32.7843 9.22473 32.9985 9.24346 33.1901 9.36379C33.2908 9.427 33.4021 9.46726 33.5247 9.46211C33.4824 9.60039 33.4238 9.73602 33.4013 9.87726C33.3435 10.2403 33.6037 10.6208 33.9942 10.7116C34.329 10.6751 34.6046 10.7792 34.8103 11.0523C34.822 11.0678 34.8429 11.08 34.862 11.0854C35.1474 11.1683 35.3321 11.4208 35.6092 11.5249C35.7166 11.5653 35.795 11.6832 35.8864 11.7657C35.9876 12.0949 36.2953 12.2797 36.4502 12.5762C36.5511 12.7696 36.7543 12.8483 36.9791 12.8494C37.1295 12.8501 37.2686 12.8203 37.3878 12.7254C37.5567 12.5909 37.7462 12.5235 37.9639 12.5328C38.0251 12.5355 38.0916 12.5306 38.1481 12.5094C38.572 12.3499 38.9938 12.1856 39.4163 12.0226C39.6397 11.8007 39.9811 11.7642 40.194 11.5174C40.2763 11.4221 40.4225 11.4043 40.5444 11.4533C40.7933 11.5533 41.0413 11.6585 41.2792 11.7821C41.4278 11.8594 41.571 11.9384 41.7384 11.9643C41.8267 11.9778 41.8999 12.0298 41.9286 12.1083C42.0074 12.3239 42.1839 12.4862 42.2404 12.7151C42.2642 12.8116 42.3197 12.9124 42.3895 12.9828C42.6153 13.2105 42.7367 13.4919 42.8421 13.785C42.87 13.8626 42.8842 13.9562 42.9373 14.0112C43.0899 14.1689 43.0806 14.404 43.2142 14.5626C43.3543 14.7288 43.3776 14.942 43.4654 15.1285C43.5708 15.3521 43.6332 15.5859 43.8169 15.7757C43.9418 15.9048 44.0239 16.0885 44.0861 16.2617C44.1686 16.4918 44.3026 16.6581 44.5196 16.7649C44.6965 16.852 44.8138 16.9918 44.866 17.1835C44.9305 17.4196 45.0786 17.593 45.299 17.6843C45.466 17.7536 45.569 17.8691 45.6511 18.0174C45.771 18.234 45.8849 18.4542 46.0144 18.6649C46.0783 18.7687 46.1569 18.8748 46.2543 18.9444C46.4982 19.1186 46.6726 19.3407 46.796 19.6101C46.8666 19.764 46.9655 19.9004 47.1263 19.9698C47.3509 20.0666 47.4968 20.2267 47.5716 20.4593C47.5965 20.537 47.6263 20.6283 47.6842 20.6776C47.9115 20.871 47.9817 21.1728 48.1913 21.3806C48.2714 21.4599 48.3182 21.6031 48.3251 21.7203C48.3466 22.0927 48.4012 22.4595 48.4541 22.8277C48.4743 22.9674 48.4704 23.1247 48.4254 23.2562C48.3586 23.452 48.356 23.665 48.2461 23.8501C48.1957 23.935 48.1723 24.0486 48.1735 24.1488C48.1756 24.3174 48.1448 24.4774 48.1127 24.6404C48.0931 24.7399 48.0936 24.8504 48.1153 24.9495C48.2016 25.345 48.1409 25.7326 48.0638 26.1183C48.0395 26.2399 47.9953 26.356 48.0022 26.4835C48.0296 26.9847 47.8856 27.4655 47.8206 27.9557C47.8044 28.0789 47.7663 28.1987 47.7911 28.3238C47.8121 28.4293 47.7702 28.5282 47.7652 28.6283C47.7509 28.9189 47.6714 29.2007 47.6586 29.4887C47.644 29.8196 47.6168 30.1454 47.5394 30.4687C47.4818 30.7092 47.4503 30.9558 47.4072 31.1997C47.4765 31.389 47.3754 31.5679 47.3729 31.753C47.3702 31.9598 47.3673 32.1667 47.3576 32.3734C47.3527 32.4764 47.3401 32.58 47.3186 32.6808C47.2107 33.1854 47.0395 33.6731 46.9281 34.1783C46.8535 34.5167 46.7083 34.8451 46.5541 35.158C46.4756 35.3175 46.3052 35.4307 46.1819 35.5697C46.1418 35.6151 46.1209 35.6771 46.0886 35.7299C45.9528 35.9505 45.9164 35.9505 45.7466 35.7314C45.6832 35.6498 45.6336 35.5493 45.5535 35.4906C45.3962 35.3753 45.3535 35.1697 45.1986 35.0625C45.0396 34.9525 44.9522 34.7825 44.82 34.6531C44.6176 34.4551 44.518 34.2238 44.4748 33.9455C44.4492 33.7814 44.4443 33.6159 44.4153 33.4549C44.3827 33.2741 44.2772 33.1041 44.257 32.9235C44.2294 32.676 44.093 32.4516 44.12 32.194C44.1261 32.1368 44.0999 32.069 44.0702 32.0166C43.9624 31.826 43.96 31.6178 43.9713 31.4118C43.9806 31.2421 43.9678 31.0859 43.8968 30.9272C43.803 30.7176 43.7587 30.4963 43.7799 30.2598C43.7907 30.1403 43.7817 29.9956 43.7225 29.8982C43.622 29.7325 43.6192 29.5389 43.5302 29.3758C43.408 29.1519 43.3426 28.9159 43.3573 28.6602C43.3657 28.512 43.3392 28.3742 43.2764 28.2373C43.2253 28.1254 43.1866 28.0038 43.1672 27.8825C43.14 27.7123 43.0718 27.5676 42.9699 27.4316C42.8914 27.3268 42.8764 27.2047 42.9073 27.0766C42.9606 26.856 43.0152 26.6357 43.0626 26.4139C43.0798 26.3338 43.0924 26.248 43.0826 26.1679C43.0562 25.9552 43.1037 25.7576 43.1781 25.5624C43.2075 25.4854 43.2533 25.408 43.2571 25.329C43.271 25.0403 43.2936 24.7489 43.2679 24.4625C43.2454 24.2122 43.231 23.9609 43.2699 23.7184C43.3131 23.4484 43.2309 23.1806 43.295 22.9129C43.3127 22.8394 43.2888 22.7407 43.2509 22.6718C43.1082 22.4125 43.1364 22.1083 43.0086 21.8408C42.9225 21.6604 42.8989 21.4414 42.8853 21.2373C42.8725 21.0444 42.8369 20.8711 42.7293 20.7088C42.6849 20.642 42.6709 20.5554 42.6412 20.4785C42.5521 20.2475 42.48 20.0076 42.3672 19.7888C42.2635 19.5879 42.1273 19.4044 42.0505 19.1876C42.0305 19.1314 41.9876 19.0765 41.9412 19.0378C41.736 18.8659 41.6553 18.6428 41.6307 18.3832C41.6213 18.285 41.577 18.1792 41.5184 18.0988C41.397 17.932 41.2826 17.7647 41.1791 17.5841C40.9418 17.1694 40.3192 17.1883 40.077 17.5659C39.9417 17.7767 39.9426 17.9972 40.0239 18.2217C40.0659 18.3376 40.1447 18.4424 40.174 18.5602C40.2312 18.7898 40.3253 18.9853 40.518 19.1348C40.6346 19.2252 40.7061 19.3565 40.7087 19.5118C40.7123 19.7293 40.8169 19.8963 40.9301 20.078C41.1256 20.3923 41.3594 20.6988 41.4548 21.0586C41.5342 21.3581 41.6542 21.6456 41.7104 21.951C41.7254 22.0323 41.7505 22.1141 41.7502 22.1956C41.749 22.5297 41.8574 22.8464 41.92 23.1676C42.0002 23.5792 42.0407 23.9831 42.0009 24.3992C41.9714 24.7072 41.9359 25.0178 41.9486 25.3255C41.9572 25.5369 41.952 25.7347 41.8879 25.9368C41.7566 26.3513 41.6844 26.7797 41.6313 27.2102C41.6165 27.3307 41.6144 27.4685 41.6589 27.5768C41.7352 27.763 41.7355 27.9411 41.6797 28.1227C41.613 28.3394 41.6491 28.544 41.7732 28.7177C41.932 28.9401 41.9725 29.2174 42.1393 29.4356C42.1986 29.5132 42.2237 29.6274 42.2359 29.7284C42.2731 30.0385 42.2704 30.35 42.2128 30.6581C42.2089 30.6786 42.1416 30.7015 42.1064 30.6979C42.07 30.6943 42.026 30.6677 42.004 30.6374C41.8648 30.4476 41.695 30.3056 41.4635 30.238C41.3866 30.2155 41.316 30.1631 41.2497 30.1144C40.9911 29.9247 40.6702 29.9052 40.3815 29.799C40.2062 29.7345 40.0169 29.7824 39.8497 29.897C39.4528 30.1692 39.4722 30.857 39.9814 31.0702C40.2101 31.1658 40.4344 31.2741 40.6526 31.3917C40.7791 31.4599 40.913 31.5382 41.0033 31.6459C41.3774 32.0927 41.7037 32.5697 41.7972 33.165C41.8195 33.307 41.8601 33.4535 41.8428 33.5917C41.8315 33.6811 41.729 33.7582 41.6698 33.8426C41.6463 33.8763 41.6249 33.9127 41.6096 33.9508C41.4914 34.2442 41.3129 34.4933 41.0811 34.7087C41.0068 34.7778 40.936 34.8641 40.8984 34.9568C40.7938 35.215 40.6073 35.4054 40.4158 35.5947C40.3423 35.6674 40.2594 35.7341 40.2003 35.8172C40.0408 36.0414 39.8274 36.1967 39.5949 36.3342C39.4887 36.3969 39.3778 36.464 39.2969 36.5541C39.1888 36.6747 39.0666 36.7226 38.9125 36.7112C38.7179 36.6969 38.5412 36.7535 38.3822 36.8595C38.227 36.9628 38.1556 37.1648 37.9695 37.2308C37.7953 37.2926 37.6149 37.3369 37.4384 37.3925C37.3004 37.4359 37.162 37.4791 37.0278 37.5325C36.8745 37.5934 36.7302 37.6795 36.5738 37.7291C36.3952 37.7858 36.216 37.8278 36.0633 37.9487C36.0019 37.9973 35.9112 38.009 35.8337 38.0368C35.5193 38.1497 35.1889 38.1844 34.8609 38.2123C34.6698 38.2286 34.4913 38.2563 34.3273 38.3553C34.1426 38.4666 33.9475 38.4914 33.7314 38.4789C33.4656 38.4635 33.1965 38.4811 32.9303 38.5019C32.5034 38.5353 32.1062 38.4731 31.7541 38.2094C31.6719 38.1477 31.5715 38.1112 31.485 38.0547C31.2832 37.9228 31.1582 37.7418 31.1415 37.4942C31.1318 37.3507 31.1507 37.2055 31.0842 37.066C30.9644 36.8144 30.9598 36.5481 31.0021 36.2764C31.0248 36.1316 31.0181 35.9855 30.9466 35.8508C30.8345 35.6393 30.8111 35.4205 30.8731 35.1875C30.9282 34.9802 30.9076 34.7766 30.8085 34.5821C30.791 34.5476 30.7894 34.5006 30.7936 34.4608C30.7977 34.4217 30.8077 34.362 30.8337 34.3494C31.0549 34.2417 31.2464 34.0803 31.4961 34.021C31.7054 33.9714 31.8635 33.8295 31.9504 33.6254C32.0413 33.412 32.1722 33.2269 32.3348 33.0638C32.6304 32.7678 32.8602 32.4263 33.0582 32.0592C33.1293 31.9275 33.1943 31.7945 33.1898 31.6497C33.1839 31.4569 33.2483 31.2821 33.2869 31.1006C33.3133 30.9757 33.3175 30.8513 33.2805 30.7305C33.1712 30.3735 33.0969 30.009 33.035 29.6415C33.0056 29.4671 32.9019 29.3388 32.7626 29.2391C32.6788 29.179 32.5824 29.1367 32.5 29.0749C32.1686 28.8268 31.8435 28.5722 31.4072 28.5301C31.3316 28.5228 31.2561 28.4647 31.1905 28.4165C31.0874 28.3403 30.9748 28.2874 30.8503 28.2708C30.6245 28.2409 30.3977 28.2173 30.1706 28.1989C30.0244 28.187 29.8859 28.2217 29.7451 28.2708C29.453 28.3728 29.1586 28.4923 28.8557 28.532C28.5954 28.566 28.3939 28.6807 28.1705 28.7906C27.9052 28.921 27.7062 29.1356 27.451 29.275C27.299 29.358 27.2289 29.5257 27.2007 29.6917C27.138 30.0601 27.0747 30.4268 26.9525 30.7819C26.9271 30.8559 26.9308 30.9486 26.948 31.0268C26.9877 31.208 27.086 31.3768 27.0557 31.5722C27.1603 31.841 27.2647 32.1098 27.3691 32.3785C27.5696 32.5624 27.6655 32.8283 27.8593 33.0151C28.0407 33.1899 28.1941 33.3786 28.2941 33.6121C28.3803 33.813 28.5323 33.9692 28.743 34.0152C28.9757 34.0661 29.1485 34.2192 29.3559 34.3097C29.4338 34.3438 29.4779 34.4385 29.4498 34.5165C29.3557 34.7778 29.3394 35.0383 29.4007 35.3116C29.4319 35.4508 29.4303 35.6042 29.3564 35.7381C29.2507 35.9298 29.2313 36.1322 29.2676 36.3424C29.3 36.5307 29.298 36.7273 29.2345 36.8968C29.1596 37.0967 29.1376 37.2948 29.1137 37.5013C29.0837 37.7596 28.9579 37.9692 28.7066 38.0865C28.6135 38.1301 28.5282 38.1922 28.4426 38.2506C28.1193 38.4706 27.7562 38.5423 27.3769 38.5073C27.0891 38.4808 26.8007 38.482 26.5143 38.4833C26.2984 38.4842 26.1015 38.4647 25.9192 38.3533C25.792 38.2755 25.6545 38.2097 25.5103 38.2212C25.276 38.2401 25.0597 38.1552 24.8323 38.1365C24.6494 38.1213 24.466 38.0661 24.2923 38.0026C24.1581 37.9536 24.0444 37.8496 23.911 37.7972C23.7579 37.7368 23.5981 37.6995 23.4448 37.6294C23.1642 37.5013 22.873 37.3822 22.5736 37.3143C22.3367 37.2606 22.1455 37.181 22.0021 36.9828C21.9003 36.842 21.7467 36.7676 21.5804 36.7362C21.4391 36.7095 21.2787 36.7403 21.1532 36.6853C21.0076 36.6216 20.8926 36.4896 20.7604 36.3925C20.7109 36.3562 20.6464 36.3404 20.5957 36.3054C20.4258 36.1886 20.2427 36.0827 20.1225 35.9107C20.0257 35.7725 19.9037 35.6643 19.7854 35.5477C19.6249 35.3898 19.4775 35.2154 19.3824 35.0049C19.3219 34.8708 19.2242 34.7669 19.1213 34.6608C18.9345 34.4683 18.7633 34.2598 18.6656 34.0015C18.6369 33.9255 18.5957 33.8464 18.5385 33.7908C18.4026 33.6588 18.3821 33.5113 18.4248 33.3354C18.4586 33.1957 18.4586 33.0523 18.5075 32.9106C18.644 32.514 18.8426 32.16 19.101 31.829C19.2597 31.6256 19.4394 31.468 19.6674 31.359C19.891 31.252 20.1228 31.1599 20.3393 31.0399C20.7705 30.8008 20.747 30.265 20.5317 30.016C20.3494 29.8052 20.1189 29.7448 19.8567 29.7964C19.6548 29.8362 19.4619 29.9177 19.2691 29.9837C18.9986 30.0764 18.7503 30.2375 18.4984 30.3797C18.429 30.4189 18.3807 30.4953 18.3225 30.5545C18.2796 30.598 18.2376 30.6425 18.1922 30.6831C18.1794 30.6945 18.1508 30.7029 18.1376 30.6964C18.1037 30.6795 18.0531 30.6583 18.0469 30.6305C18.0196 30.5092 17.9862 30.3841 17.9912 30.2619C18.002 29.994 17.952 29.6983 18.0975 29.4698C18.2443 29.2391 18.2929 28.9671 18.4592 28.7506C18.579 28.5949 18.617 28.4102 18.581 28.2193C18.5338 27.9699 18.514 27.729 18.6247 27.4872C18.6562 27.4181 18.662 27.3116 18.6312 27.2444C18.5317 27.0263 18.5961 26.7897 18.5317 26.5698C18.4621 26.3326 18.3943 26.0947 18.3344 25.855C18.3096 25.7554 18.2913 25.6491 18.298 25.5477C18.3143 25.2983 18.2919 25.0512 18.2838 24.8029C18.2777 24.6149 18.2818 24.4305 18.2133 24.2526C18.2351 23.9018 18.2504 23.5504 18.3236 23.2046C18.396 22.8628 18.4663 22.5211 18.5084 22.1728C18.5708 21.6562 18.7722 21.1766 18.9488 20.6917C18.9627 20.6536 18.9882 20.6177 19.0152 20.5869C19.195 20.3828 19.2487 20.1028 19.4381 19.9008C19.502 19.8328 19.5365 19.7109 19.5358 19.6138C19.5343 19.3847 19.6326 19.2218 19.7949 19.073C19.8842 18.9913 19.9747 18.8873 20.0103 18.776C20.0735 18.5783 20.143 18.3885 20.2361 18.2009C20.3885 17.8942 20.2335 17.4833 19.9354 17.3489C19.607 17.201 19.2391 17.2831 19.064 17.5963C18.9726 17.7597 18.8925 17.9253 18.758 18.0601C18.6667 18.1517 18.6348 18.2761 18.6192 18.401C18.5874 18.6557 18.5128 18.8858 18.299 19.0523C18.252 19.0888 18.2108 19.147 18.1924 19.2035C18.0834 19.5395 17.851 19.8131 17.7412 20.1535C17.6091 20.5628 17.3642 20.9355 17.3496 21.3832C17.3489 21.4032 17.3379 21.423 17.3305 21.4424C17.2575 21.6354 17.267 21.8452 17.1773 22.0414C17.0844 22.2444 17.0906 22.4859 16.9925 22.6977C16.9513 22.7866 16.9339 22.9048 16.953 23.0001C17.01 23.2854 16.8962 23.5803 17.0104 23.8598C16.9828 24.0641 17.0613 24.2765 16.9631 24.4753C16.9575 24.7622 17.0036 25.0473 16.9931 25.3347C16.9917 25.374 17.0086 25.4177 17.0277 25.4536C17.1588 25.7 17.2019 25.9604 17.1692 26.2369C17.162 26.2968 17.1654 26.3691 17.1929 26.42C17.2956 26.6109 17.2605 26.8286 17.3237 27.0245C17.3727 27.1763 17.3553 27.3148 17.2731 27.4409C17.1691 27.6 17.1114 27.7705 17.0624 27.9542C16.9826 28.2532 16.877 28.5418 16.889 28.8608C16.8935 28.9791 16.8483 29.11 16.7919 29.2176C16.6661 29.4575 16.6488 29.7362 16.5037 29.9691C16.4629 30.0345 16.4498 30.1298 16.4557 30.2091C16.476 30.4832 16.4536 30.7465 16.3287 30.9968C16.3019 31.0506 16.2895 31.1162 16.2873 31.1769C16.2813 31.3427 16.3036 31.5115 16.2786 31.6737C16.2507 31.8552 16.1637 32.0278 16.137 32.2093C16.0829 32.5784 16.0189 32.9419 15.8706 33.2879C15.8313 33.3799 15.8311 33.4894 15.8177 33.5914C15.8016 33.7143 15.7901 33.8378 15.7775 33.9611C15.7509 34.218 15.6559 34.439 15.4611 34.6174C15.3245 34.7425 15.244 34.9147 15.0934 35.036C14.9515 35.1502 14.8504 35.3145 14.7294 35.4553C14.6088 35.5955 14.4885 35.7361 14.3611 35.87C14.3422 35.89 14.255 35.8847 14.2511 35.8734C14.1599 35.6045 13.928 35.4485 13.7562 35.2449C13.7295 35.2134 13.6998 35.1808 13.6855 35.1433C13.5525 34.7961 13.4226 34.4476 13.2918 34.0994C13.319 33.7746 13.1036 33.5082 13.074 33.1971C12.8847 32.8125 12.9346 32.3848 12.8538 31.9805C12.9358 31.7311 12.788 31.4906 12.828 31.2407C12.872 30.9645 12.7379 30.7115 12.6935 30.447C12.6524 30.203 12.6863 29.9461 12.5781 29.7134C12.6253 29.442 12.5494 29.1793 12.519 28.9137C12.5002 28.7503 12.4405 28.5866 12.4508 28.4261C12.4658 28.1936 12.4036 27.9715 12.3999 27.7469C12.3957 27.4928 12.2783 27.2645 12.2869 27.0118C12.2939 26.8061 12.2441 26.6032 12.2419 26.3945C12.2396 26.1706 12.1616 25.9479 12.1236 25.7234C12.0823 25.4789 12.0492 25.2341 12.1339 24.9893C12.1826 24.8485 12.1761 24.7035 12.1322 24.5601C12.1082 24.4813 12.0678 24.3982 12.0748 24.3208C12.0965 24.0833 12.0119 23.8777 11.9381 23.6595C11.8187 23.3068 11.7258 22.941 11.8432 22.563C11.8282 22.2507 11.9757 21.956 11.9417 21.6401C11.9357 21.5849 11.9691 21.5171 12.0024 21.4672C12.1508 21.2448 12.2967 21.0199 12.4615 20.8098C12.5652 20.6776 12.6635 20.5514 12.7122 20.3859C12.761 20.2203 12.8709 20.0942 13.0323 20.0231C13.2538 19.9253 13.398 19.7613 13.4899 19.538C13.57 19.3435 13.7012 19.1693 13.867 19.0506C14.0788 18.8987 14.2211 18.7163 14.3297 18.482C14.4065 18.3164 14.5379 18.1778 14.6114 18.0024C14.6667 17.8707 14.7641 17.757 14.9123 17.7023C15.1649 17.6089 15.3177 17.4195 15.3962 17.1682C15.4553 16.9789 15.5678 16.8392 15.7483 16.7558C15.948 16.6636 16.0893 16.5122 16.1502 16.3043C16.1984 16.14 16.2934 16.0051 16.38 15.8653C16.4557 15.7431 16.5698 15.643 16.6368 15.5172C16.714 15.3723 16.7459 15.2034 16.8203 15.0564C16.9135 14.8722 16.9394 14.6568 17.0816 14.4962C17.1312 14.2457 17.3349 14.0662 17.4015 13.829C17.4933 13.5022 17.6494 13.2213 17.8746 12.9706C17.9419 12.8959 17.9957 12.7975 18.0229 12.7009C18.0575 12.5775 18.1299 12.4782 18.1816 12.3668C18.291 12.1305 18.4098 11.9242 18.711 11.9121C18.7684 11.9098 18.8301 11.8711 18.8795 11.8349C19.1172 11.661 19.4108 11.6086 19.6647 11.4676C19.7965 11.3946 19.9527 11.4185 20.0716 11.5274C20.3346 11.7684 20.6716 11.8876 20.9644 12.0791C21.1371 12.0904 21.2765 12.1854 21.422 12.2639C21.5684 12.343 21.7424 12.3318 21.8891 12.4267C21.9885 12.491 22.1246 12.5291 22.2432 12.5266C22.5079 12.5213 22.7175 12.6277 22.9352 12.7612C23.2404 12.9483 23.6312 12.8681 23.8111 12.5601C23.9787 12.2731 24.2681 12.078 24.3806 11.7533C24.4051 11.6824 24.4808 11.6044 24.5511 11.5785C24.8089 11.4834 24.9902 11.2679 25.2375 11.1613C25.394 11.0938 25.5234 10.9952 25.635 10.8683C25.7386 10.7505 25.8719 10.7069 26.0269 10.7215C26.0681 10.7254 26.1102 10.7247 26.1514 10.7207C26.5734 10.6796 26.8701 10.3491 26.8619 9.92097C26.8598 9.81827 26.8321 9.7162 26.8161 9.61381C26.9566 9.59368 27.1072 9.59867 27.2353 9.54748C27.4259 9.47148 27.5937 9.49145 27.7657 9.5801C27.7975 9.7652 27.7966 9.94687 27.7338 10.1276C27.7075 10.2038 27.6847 10.2893 27.6915 10.3676C27.7341 10.8532 28.0883 11.1026 28.4519 11.1065C28.8991 11.1115 29.222 10.7558 29.2317 10.3229C29.1538 10.0759 29.2313 9.83825 29.2746 9.59852C29.3534 9.58104 29.4353 9.57183 29.5104 9.54436C29.6287 9.50097 29.7455 9.48037 29.8656 9.52688C30.0652 9.60398 30.2588 9.58993 30.4587 9.51721C30.6799 9.43667 30.8984 9.47569 31.1069 9.57776C31.1283 9.6647 31.08 9.73383 31.0546 9.81078C31.0163 9.92674 30.9717 10.0493 30.9742 10.168C30.9789 10.3929 30.9954 10.6214 31.0432 10.8405C31.0955 11.08 31.2698 11.227 31.5084 11.2861C31.7291 11.3409 31.9331 11.2754 32.065 11.1062C32.2542 10.8638 32.3814 10.5797 32.4663 10.2824C32.4876 10.2078 32.4811 10.1161 32.4597 10.0399C32.377 9.74569 32.4475 9.47553 32.568 9.2099L32.5677 9.21099ZM29.4956 25.5895C29.5099 25.6822 29.5057 25.7932 29.5455 25.8848C29.6824 26.2007 29.9624 26.4128 30.4 26.3541C30.7523 26.3068 31.0462 25.9486 31.0224 25.612C31.0151 25.5095 30.9879 25.4085 30.9772 25.3061C30.9491 25.04 30.8882 24.7751 30.9283 24.5054C30.9538 24.3347 30.9254 24.1725 30.8495 24.0218C30.7593 23.8428 30.7502 23.6695 30.833 23.4851C30.9037 23.3276 30.8857 23.1659 30.8473 22.9986C30.7456 22.5556 30.6772 22.1071 30.6608 21.6517C30.6571 21.549 30.6658 21.4311 30.6195 21.3476C30.4963 21.1257 30.5503 20.8596 30.401 20.64C30.2469 20.4137 30.2405 20.1312 30.2144 19.8626C30.2105 19.8231 30.1892 19.7832 30.1687 19.7476C30.0862 19.6037 30.0023 19.4628 29.9942 19.2883C29.9916 19.2302 29.9527 19.172 29.9245 19.1171C29.6737 18.6303 29.0036 18.5763 28.6804 19.0161C28.4689 19.304 28.4717 19.6571 28.7001 19.9364C28.8039 20.0635 28.9347 20.1626 29.0149 20.3163C29.1407 20.5574 29.1997 20.8161 29.2747 21.0726C29.3673 21.389 29.3348 21.7314 29.4896 22.0351C29.5249 22.1041 29.5232 22.1982 29.5193 22.2799C29.5076 22.5268 29.5346 22.7776 29.4495 23.0179C29.3916 23.1818 29.3991 23.344 29.4751 23.5016C29.5883 23.7362 29.5995 23.9768 29.5396 24.2294C29.5163 24.3272 29.5117 24.4411 29.538 24.5367C29.6119 24.8048 29.5781 25.0676 29.5365 25.3326C29.5235 25.4144 29.5106 25.4964 29.4957 25.5895H29.4956ZM34.2179 24.7168C34.3048 24.7168 34.4086 24.7197 34.5122 24.7163C34.862 24.7046 35.1387 24.3484 35.1346 24.0527C35.1321 23.8666 35.1328 23.6798 35.1315 23.4946C35.1295 23.1656 35.0734 22.8367 35.0357 22.5082C35.021 22.3802 34.9425 22.2806 34.873 22.1762C34.8136 22.0869 34.8315 22.0223 34.9219 21.9774C35.1799 21.8489 35.4288 21.7024 35.6803 21.5632C35.9972 21.3876 36.0676 20.9604 35.9017 20.6272C35.767 20.3567 35.3255 20.1179 34.9995 20.2826C34.8526 20.3569 34.705 20.4341 34.5498 20.4867C34.3248 20.5632 34.1376 20.6789 34.0145 20.8869C33.9597 20.9793 33.872 21.0317 33.7816 21.0859C33.6198 21.1828 33.4233 21.1814 33.2644 21.2947C33.084 21.4235 33.0359 21.6381 32.8983 21.7914C32.8569 21.8376 32.8102 21.8789 32.7681 21.9245C32.6323 22.072 32.5886 22.2532 32.6056 22.4444C32.6239 22.6502 32.6738 22.8526 32.6604 23.0624C32.6567 23.1212 32.6793 23.1862 32.7044 23.2417C32.7815 23.4126 32.8513 23.5843 32.8836 23.771C32.8937 23.8298 32.9215 23.8955 32.9626 23.937C33.1239 24.1008 33.2394 24.2948 33.3654 24.4842C33.5152 24.7097 33.7535 24.7851 34.0195 24.7642C34.0807 24.7594 34.1404 24.7357 34.218 24.7165L34.2179 24.7168ZM25.1477 23.7037C25.1415 23.8027 25.1341 23.9061 25.1284 24.0098C25.1053 24.4207 25.44 24.7129 25.7623 24.7179C25.9282 24.7205 26.091 24.7377 26.2561 24.7625C26.494 24.7982 26.7172 24.7113 26.8639 24.517C27.0126 24.32 27.1262 24.0972 27.3018 23.9186C27.3299 23.8899 27.3607 23.8484 27.3624 23.8116C27.3744 23.555 27.5762 23.3471 27.5736 23.102C27.5707 22.8487 27.6617 22.6135 27.6558 22.3641C27.6521 22.2121 27.6057 22.0785 27.5135 21.9608C27.412 21.8315 27.2859 21.7269 27.2126 21.569C27.112 21.3528 26.9304 21.2218 26.6882 21.1683C26.4812 21.1224 26.3058 21.0169 26.1915 20.8228C26.1043 20.6747 25.9694 20.5723 25.8026 20.529C25.6191 20.4814 25.4631 20.3786 25.2936 20.3034C25.2011 20.2623 25.0956 20.2311 24.9955 20.23C24.6864 20.2267 24.3811 20.4649 24.2963 20.7572C24.1982 21.0959 24.3226 21.4541 24.6438 21.6052C24.8879 21.7199 25.102 21.883 25.3486 21.9892C25.4004 22.0116 25.4357 22.1055 25.4063 22.1425C25.288 22.2922 25.1803 22.4575 25.1849 22.6473C25.1934 22.9995 25.0606 23.3457 25.1479 23.7039L25.1477 23.7037Z" fill="#FCFCFC"/>
<path d="M26.8172 9.6149C26.8331 9.71728 26.8609 9.81951 26.8629 9.92205C26.8712 10.3502 26.5745 10.6807 26.1524 10.7218C26.1112 10.7258 26.0691 10.7264 26.0279 10.7225C25.8729 10.708 25.7396 10.7516 25.636 10.8694C25.5244 10.9963 25.395 11.0948 25.2385 11.1624C24.9913 11.269 24.8099 11.4845 24.5521 11.5795C24.4818 11.6054 24.4063 11.6835 24.3816 11.7543C24.2691 12.0791 23.9799 12.2742 23.8121 12.5612C23.6323 12.869 23.2414 12.9494 22.9363 12.7623C22.7185 12.6287 22.5091 12.5224 22.2442 12.5277C22.1256 12.53 21.9895 12.4921 21.8901 12.4278C21.7434 12.3329 21.5694 12.3441 21.423 12.265C21.2775 12.1865 21.1381 12.0915 20.9654 12.0802C20.6726 11.8887 20.3356 11.7696 20.0726 11.5285C19.9537 11.4196 19.7975 11.3957 19.6658 11.4687C19.4118 11.6097 19.1183 11.6621 18.8806 11.836C18.8312 11.8722 18.7694 11.9109 18.712 11.9132C18.4109 11.9252 18.2922 12.1316 18.1826 12.3679C18.1309 12.4793 18.0587 12.5787 18.0239 12.702C17.9967 12.7988 17.9429 12.8969 17.8756 12.9717C17.6502 13.2224 17.4942 13.5034 17.4026 13.8301C17.3359 14.0673 17.1322 14.2468 17.0826 14.4973C16.9404 14.6579 16.9145 14.8733 16.8213 15.0575C16.7471 15.2045 16.7152 15.3733 16.6378 15.5183C16.5707 15.6441 16.4568 15.744 16.3811 15.8664C16.2944 16.0062 16.1994 16.1411 16.1512 16.3054C16.0901 16.5135 15.9491 16.6647 15.7493 16.7569C15.569 16.8403 15.4563 16.98 15.3972 17.1693C15.3187 17.4205 15.1657 17.61 14.9134 17.7033C14.7651 17.7581 14.6677 17.8717 14.6125 18.0035C14.5389 18.1789 14.4075 18.3175 14.3307 18.4831C14.2221 18.7172 14.0798 18.8998 13.868 19.0517C13.7022 19.1704 13.571 19.3446 13.4909 19.5391C13.399 19.7624 13.2548 19.9264 13.0333 20.0241C12.8718 20.0953 12.7619 20.2214 12.7132 20.387C12.6645 20.5523 12.5662 20.6787 12.4626 20.8109C12.2977 21.021 12.1518 21.2459 12.0034 21.4683C11.9702 21.5182 11.9368 21.586 11.9427 21.6412C11.9767 21.9571 11.8292 22.2518 11.8442 22.5641C11.7268 22.9421 11.8197 23.3079 11.9391 23.6606C12.0129 23.8788 12.0975 24.0844 12.0758 24.3219C12.0688 24.3993 12.1092 24.4823 12.1332 24.5612C12.1771 24.7046 12.1837 24.8497 12.135 24.9904C12.0502 25.2354 12.0835 25.48 12.1247 25.7245C12.1626 25.949 12.2406 26.1715 12.243 26.3956C12.2452 26.6043 12.2949 26.807 12.2879 27.0129C12.2793 27.2657 12.3965 27.4939 12.4009 27.748C12.4047 27.9724 12.4668 28.1945 12.4518 28.4272C12.4415 28.5875 12.5013 28.7514 12.52 28.9148C12.5506 29.1804 12.6263 29.4431 12.5791 29.7145C12.6873 29.9471 12.6534 30.2039 12.6945 30.448C12.739 30.7126 12.873 30.9656 12.829 31.2418C12.7892 31.4917 12.9369 31.7322 12.8548 31.9816C12.9358 32.3857 12.8857 32.8136 13.075 33.1982C13.1046 33.5094 13.32 33.7757 13.2929 34.1004C13.4237 34.4486 13.5535 34.7972 13.6865 35.1444C13.7008 35.1819 13.7306 35.2147 13.7572 35.246C13.929 35.4495 14.1609 35.6056 14.2521 35.8745C14.2558 35.8858 14.3431 35.8911 14.3621 35.8711C14.4895 35.7372 14.6098 35.5966 14.7304 35.4564C14.8514 35.3158 14.9525 35.1513 15.0944 35.037C15.245 34.9158 15.3256 34.7436 15.4621 34.6185C15.6569 34.4401 15.7519 34.2191 15.7785 33.9622C15.7911 33.8389 15.8027 33.7153 15.8187 33.5924C15.8322 33.4904 15.8323 33.3808 15.8716 33.289C16.0199 32.943 16.0839 32.5795 16.1381 32.2104C16.1648 32.0289 16.2517 31.8563 16.2796 31.6748C16.3046 31.5126 16.2824 31.3436 16.2884 31.178C16.2905 31.1173 16.3029 31.0516 16.3297 30.9979C16.4546 30.7475 16.4771 30.4844 16.4568 30.2102C16.4508 30.1309 16.4639 30.0354 16.5047 29.9702C16.6498 29.7373 16.6673 29.4585 16.7929 29.2187C16.8493 29.1111 16.8944 28.9802 16.89 28.8619C16.8778 28.5429 16.9835 28.2543 17.0634 27.9553C17.1124 27.7717 17.1702 27.6011 17.2741 27.4419C17.3564 27.3158 17.3737 27.1774 17.3247 27.0255C17.2615 26.8297 17.2966 26.6119 17.1939 26.4211C17.1664 26.37 17.1631 26.2979 17.1702 26.238C17.2029 25.9614 17.1599 25.7011 17.0288 25.4547C17.0096 25.4188 16.9927 25.3751 16.9941 25.3358C17.0046 25.0484 16.9585 24.7633 16.9642 24.4764C17.0623 24.2776 16.9837 24.0652 17.0114 23.8609C16.8972 23.5815 17.011 23.2867 16.954 23.0012C16.935 22.9057 16.9521 22.7875 16.9935 22.6987C17.0917 22.4871 17.0854 22.2455 17.1783 22.0425C17.268 21.8463 17.2585 21.6367 17.3315 21.4435C17.3389 21.424 17.35 21.4043 17.3506 21.3843C17.3654 20.9365 17.6101 20.5638 17.7422 20.1546C17.852 19.8142 18.0844 19.5406 18.1934 19.2046C18.2116 19.1481 18.253 19.0899 18.3 19.0534C18.5138 18.8868 18.5884 18.6568 18.6202 18.4021C18.6358 18.2772 18.6677 18.1528 18.759 18.0612C18.8935 17.9262 18.9736 17.7608 19.065 17.5974C19.2403 17.284 19.608 17.2019 19.9364 17.35C20.2345 17.4844 20.3895 17.8953 20.2371 18.202C20.144 18.3896 20.0745 18.5794 20.0113 18.7771C19.9757 18.8884 19.885 18.9923 19.7959 19.0741C19.6336 19.2229 19.5353 19.3858 19.5368 19.6149C19.5375 19.7118 19.503 19.8339 19.4391 19.9019C19.2498 20.1039 19.196 20.3839 19.0162 20.588C18.9892 20.6188 18.9638 20.6547 18.9499 20.6928C18.7732 21.1777 18.5719 21.6573 18.5094 22.1739C18.4673 22.5222 18.3971 22.8637 18.3246 23.2057C18.2514 23.5515 18.2361 23.9028 18.2143 24.2537C18.2828 24.4318 18.2787 24.6161 18.2848 24.804C18.2928 25.0523 18.3151 25.2992 18.299 25.5488C18.2925 25.6502 18.3106 25.7565 18.3354 25.8561C18.3953 26.0958 18.4632 26.3337 18.5327 26.5709C18.5971 26.7908 18.5327 27.0274 18.6323 27.2454C18.663 27.3127 18.6574 27.4193 18.6257 27.4883C18.515 27.7301 18.5349 27.971 18.582 28.2204C18.6181 28.4113 18.58 28.5959 18.4603 28.7517C18.2939 28.9682 18.2454 29.2404 18.0985 29.4709C17.9529 29.6995 18.003 29.9951 17.9922 30.2629C17.9872 30.3852 18.0208 30.5103 18.0479 30.6316C18.0542 30.6595 18.1047 30.6807 18.1386 30.6974C18.1519 30.704 18.1804 30.6956 18.1932 30.6842C18.2388 30.6436 18.2808 30.5991 18.3235 30.5556C18.3818 30.4966 18.43 30.42 18.4994 30.3808C18.7513 30.2386 18.9995 30.0777 19.2701 29.9848C19.4629 29.9187 19.6558 29.8373 19.8577 29.7975C20.1199 29.7459 20.3505 29.8063 20.5327 30.0171C20.748 30.2661 20.7715 30.8019 20.3403 31.041C20.124 31.161 19.8922 31.2531 19.6684 31.3601C19.4404 31.4692 19.2608 31.6269 19.102 31.8301C18.8436 32.1611 18.6451 32.5151 18.5085 32.9116C18.4596 33.0534 18.4596 33.1968 18.4258 33.3365C18.3832 33.5124 18.4036 33.6597 18.5395 33.7919C18.5967 33.8475 18.6379 33.9267 18.6666 34.0026C18.7643 34.2609 18.9357 34.4694 19.1223 34.6618C19.2252 34.768 19.3229 34.8719 19.3834 35.006C19.4785 35.2165 19.626 35.3909 19.7864 35.5488C19.9049 35.6654 20.0269 35.7735 20.1235 35.9118C20.2439 36.0838 20.4268 36.1896 20.5967 36.3065C20.6476 36.3415 20.7119 36.3573 20.7614 36.3936C20.8936 36.4907 21.0086 36.6227 21.1542 36.6864C21.2799 36.7413 21.4401 36.7106 21.5814 36.7373C21.7476 36.7688 21.9012 36.8431 22.0031 36.9839C22.1465 37.1823 22.3379 37.2617 22.5746 37.3154C22.874 37.3833 23.1652 37.5024 23.4458 37.6305C23.5991 37.7004 23.7589 37.7379 23.912 37.7983C24.0455 37.8509 24.1591 37.9548 24.2933 38.0037C24.467 38.067 24.6504 38.1224 24.8333 38.1376C25.0606 38.1563 25.2769 38.2412 25.5113 38.2223C25.6553 38.2108 25.793 38.2766 25.9202 38.3544C26.1025 38.4658 26.2995 38.4853 26.5153 38.4844C26.8017 38.4831 27.09 38.4819 27.3779 38.5084C27.7573 38.5434 28.1205 38.4719 28.4436 38.2517C28.5293 38.1933 28.6143 38.1312 28.7077 38.0876C28.9589 37.9701 29.0847 37.7605 29.1147 37.5024C29.1386 37.2959 29.1606 37.0978 29.2355 36.8979C29.299 36.7284 29.301 36.5317 29.2686 36.3435C29.2324 36.1331 29.2517 35.9307 29.3574 35.7392C29.4312 35.6053 29.4329 35.4519 29.4017 35.3127C29.3404 35.0392 29.3568 34.7789 29.4509 34.5176C29.479 34.4396 29.4348 34.3449 29.3569 34.3108C29.1495 34.2203 28.9767 34.0672 28.744 34.0163C28.5333 33.9703 28.3813 33.8139 28.2952 33.6132C28.1951 33.3797 28.0417 33.1909 27.8603 33.0162C27.6665 32.8294 27.5707 32.5635 27.3701 32.3796C27.2655 32.1108 27.1611 31.8421 27.0567 31.5733C27.0872 31.3781 26.9887 31.2091 26.949 31.0279C26.932 30.9497 26.9281 30.857 26.9536 30.783C27.0758 30.4279 27.139 30.0611 27.2017 29.6928C27.23 29.5268 27.3 29.3591 27.4521 29.2761C27.7072 29.1367 27.9062 28.9221 28.1715 28.7917C28.3949 28.6818 28.5962 28.5672 28.8567 28.533C29.1596 28.4934 29.454 28.3738 29.7462 28.2719C29.8869 28.2228 30.0254 28.188 30.1716 28.2C30.3987 28.2186 30.6255 28.2421 30.8513 28.2719C30.9759 28.2885 31.0882 28.3414 31.1915 28.4176C31.2571 28.4658 31.3326 28.5238 31.4082 28.5312C31.8446 28.5733 32.1696 28.8279 32.501 29.076C32.5832 29.1377 32.6798 29.1801 32.7637 29.2402C32.9027 29.3399 33.0065 29.4682 33.036 29.6426C33.098 30.0101 33.1723 30.3745 33.2815 30.7316C33.3185 30.8526 33.3143 30.977 33.2879 31.1017C33.2494 31.2832 33.1849 31.458 33.1908 31.6507C33.1954 31.7956 33.1303 31.9286 33.0593 32.0603C32.8612 32.4275 32.6313 32.7688 32.3359 33.0649C32.1731 33.2279 32.0423 33.4131 31.9515 33.6265C31.8645 33.8308 31.7063 33.9725 31.4971 34.0221C31.2474 34.0814 31.0559 34.2428 30.8348 34.3505C30.8089 34.3631 30.7989 34.4227 30.7947 34.4619C30.7904 34.5017 30.792 34.5488 30.8095 34.5832C30.9086 34.7776 30.9293 34.9813 30.8741 35.1886C30.8121 35.4216 30.8354 35.6404 30.9476 35.8519C31.0191 35.9867 31.0256 36.1327 31.0032 36.2775C30.9609 36.5492 30.9654 36.8155 31.0853 37.0671C31.1517 37.2066 31.1327 37.3516 31.1425 37.4953C31.1592 37.7429 31.2844 37.9239 31.4861 38.0558C31.5725 38.1123 31.673 38.1488 31.7551 38.2105C32.1072 38.4744 32.5046 38.5363 32.9313 38.5029C33.1975 38.4822 33.4666 38.4645 33.7324 38.48C33.9484 38.4926 34.1437 38.4678 34.3283 38.3564C34.4923 38.2574 34.6709 38.2298 34.8619 38.2134C35.19 38.1855 35.5205 38.1508 35.8347 38.0378C35.9123 38.0101 36.0029 37.9984 36.0643 37.9498C36.2171 37.8289 36.3962 37.7869 36.5748 37.7302C36.7312 37.6806 36.8755 37.5946 37.0288 37.5336C37.163 37.4802 37.3015 37.437 37.4394 37.3936C37.6159 37.338 37.7964 37.2938 37.9705 37.2319C38.1564 37.1659 38.2279 36.9639 38.3832 36.8606C38.5422 36.7548 38.7189 36.698 38.9135 36.7123C39.0677 36.7237 39.1898 36.6758 39.2979 36.5552C39.3788 36.4649 39.4897 36.398 39.5959 36.3352C39.8284 36.1977 40.0418 36.0425 40.2013 35.8183C40.2604 35.7352 40.3433 35.6685 40.4168 35.5958C40.6083 35.4065 40.7947 35.2159 40.8994 34.9579C40.937 34.8652 41.0079 34.7789 41.0822 34.7098C41.3139 34.4944 41.4925 34.2451 41.6106 33.9519C41.6259 33.9138 41.6471 33.8774 41.6709 33.8437C41.73 33.7594 41.8327 33.6822 41.8438 33.5927C41.8611 33.4545 41.8205 33.3081 41.7982 33.166C41.7049 32.5708 41.3785 32.094 41.0043 31.647C40.9141 31.5393 40.7802 31.461 40.6536 31.3928C40.4354 31.2752 40.2111 31.1671 39.9825 31.0712C39.4732 30.8581 39.4539 30.1702 39.8507 29.8981C40.0179 29.7833 40.2072 29.7354 40.3825 29.8C40.6712 29.9063 40.9921 29.926 41.2507 30.1155C41.317 30.164 41.3876 30.2166 41.4645 30.2391C41.696 30.3067 41.8658 30.4487 42.005 30.6385C42.0272 30.6686 42.0712 30.6953 42.1074 30.699C42.1427 30.7026 42.2099 30.6797 42.2138 30.6592C42.2716 30.3511 42.2741 30.0396 42.2369 29.7295C42.2249 29.6285 42.1996 29.5143 42.1403 29.4367C41.9736 29.2185 41.9332 28.9412 41.7742 28.7188C41.6501 28.5451 41.6139 28.3404 41.6807 28.1238C41.7366 27.9422 41.7364 27.7641 41.6599 27.5779C41.6155 27.4694 41.6175 27.3316 41.6323 27.2113C41.6854 26.7808 41.7576 26.3524 41.8889 25.9379C41.9529 25.7356 41.9582 25.5379 41.9496 25.3265C41.9371 25.0189 41.9725 24.7082 42.0019 24.4002C42.0417 23.984 42.0013 23.5802 41.921 23.1687C41.8585 22.8475 41.75 22.5308 41.7512 22.1967C41.7516 22.1152 41.7264 22.0334 41.7114 21.9521C41.6553 21.6467 41.5351 21.3592 41.4558 21.0597C41.3604 20.6999 41.1266 20.3934 40.9311 20.0791C40.8181 19.8974 40.7134 19.7304 40.7098 19.5128C40.7073 19.3576 40.6358 19.2263 40.519 19.1359C40.3261 18.9864 40.2322 18.791 40.1751 18.5613C40.1457 18.4433 40.0669 18.3387 40.0249 18.2228C39.9436 17.9983 39.9427 17.7776 40.078 17.5669C40.3202 17.1894 40.9428 17.1705 41.1802 17.5852C41.2836 17.7658 41.398 17.9331 41.5195 18.0999C41.578 18.1803 41.6223 18.2861 41.6317 18.3843C41.6563 18.6438 41.737 18.867 41.9423 19.0389C41.9886 19.0777 42.0317 19.1325 42.0515 19.1887C42.1283 19.4055 42.2646 19.589 42.3682 19.7899C42.481 20.0087 42.5531 20.2486 42.6423 20.4796C42.6719 20.5565 42.6858 20.6431 42.7303 20.7099C42.8381 20.8722 42.8736 21.0453 42.8863 21.2384C42.8999 21.4425 42.9235 21.6615 43.0096 21.8419C43.1375 22.1093 43.1092 22.4136 43.2519 22.6728C43.2898 22.7418 43.3137 22.8405 43.296 22.914C43.2317 23.1816 43.3141 23.4495 43.2709 23.7195C43.232 23.962 43.2466 24.2131 43.2689 24.4636C43.2946 24.75 43.2719 25.0414 43.2581 25.3301C43.2544 25.4089 43.2085 25.4865 43.1791 25.5635C43.1047 25.7587 43.0571 25.9561 43.0836 26.169C43.0936 26.2491 43.0808 26.3349 43.0636 26.415C43.016 26.6368 42.9616 26.8571 42.9084 27.0777C42.8775 27.2058 42.8923 27.3279 42.9709 27.4327C43.0727 27.5687 43.1411 27.7134 43.1682 27.8836C43.1876 28.0049 43.2263 28.1266 43.2775 28.2384C43.3401 28.3753 43.3667 28.5131 43.3583 28.6613C43.3436 28.917 43.409 29.1528 43.5312 29.3769C43.6202 29.5402 43.6232 29.7336 43.7235 29.8993C43.7827 29.9968 43.7917 30.1414 43.781 30.2609C43.7597 30.4974 43.8041 30.7187 43.8979 30.9283C43.9689 31.0868 43.9817 31.2432 43.9723 31.4129C43.9611 31.6189 43.9634 31.827 44.0713 32.0177C44.1009 32.0701 44.127 32.138 44.121 32.1951C44.0939 32.4526 44.2303 32.6769 44.2581 32.9246C44.2782 33.1053 44.3839 33.2751 44.4163 33.456C44.4454 33.6169 44.4502 33.7825 44.4758 33.9466C44.519 34.2247 44.6186 34.4561 44.821 34.6542C44.9532 34.7834 45.0408 34.9534 45.1997 35.0636C45.3545 35.1708 45.3974 35.3763 45.5546 35.4917C45.6348 35.5505 45.6843 35.6509 45.7476 35.7325C45.9176 35.9516 45.9539 35.9516 46.0896 35.7309C46.122 35.6782 46.1428 35.6161 46.1829 35.5708C46.3062 35.4317 46.4766 35.3186 46.5551 35.1591C46.7092 34.8462 46.8545 34.5178 46.9291 34.1794C47.0405 33.6742 47.2117 33.1867 47.3196 32.6819C47.3411 32.5811 47.3539 32.4775 47.3586 32.3744C47.3683 32.1678 47.3712 31.9609 47.3739 31.7541C47.3764 31.569 47.4775 31.3901 47.4082 31.2008C47.4513 30.9568 47.4828 30.7101 47.5404 30.4697C47.6178 30.1465 47.6448 29.8206 47.6597 29.4898C47.6725 29.2018 47.7519 28.9198 47.7663 28.6293C47.7713 28.5295 47.8131 28.4305 47.7922 28.3248C47.7675 28.1998 47.8054 28.08 47.8217 27.9568C47.8866 27.4668 48.0306 26.9857 48.0032 26.4846C47.9962 26.3571 48.0405 26.2408 48.0648 26.1194C48.1419 25.7337 48.2026 25.346 48.1163 24.9506C48.0946 24.8516 48.0942 24.741 48.1137 24.6415C48.1458 24.4783 48.1766 24.3185 48.1745 24.1499C48.1733 24.0497 48.1967 23.9361 48.2471 23.8512C48.357 23.6661 48.3596 23.453 48.4264 23.2573C48.4712 23.1258 48.4751 22.9684 48.4552 22.8288C48.4023 22.4606 48.3475 22.0938 48.3261 21.7214C48.3194 21.6042 48.2724 21.4609 48.1923 21.3817C47.9827 21.1739 47.9125 20.8721 47.6853 20.6787C47.6272 20.6294 47.5975 20.5381 47.5726 20.4604C47.4978 20.2278 47.3519 20.0677 47.1273 19.9709C46.9665 19.9016 46.8676 19.7651 46.7971 19.6112C46.6736 19.3416 46.4993 19.1197 46.2553 18.9455C46.1579 18.8761 46.0793 18.7698 46.0154 18.666C45.8859 18.4553 45.772 18.2351 45.6521 18.0185C45.57 17.8702 45.467 17.7545 45.3 17.6854C45.0796 17.5939 44.9317 17.4207 44.8671 17.1846C44.8148 16.9931 44.6976 16.8531 44.5206 16.766C44.3036 16.6592 44.1697 16.4928 44.0872 16.2628C44.0251 16.0896 43.943 15.9057 43.8179 15.7768C43.6342 15.587 43.5718 15.3532 43.4665 15.1296C43.3788 14.9432 43.3555 14.73 43.2152 14.5636C43.0816 14.4052 43.091 14.17 42.9383 14.0122C42.8853 13.9575 42.8709 13.8637 42.8431 13.7861C42.7378 13.493 42.6162 13.2116 42.3905 12.9839C42.3207 12.9135 42.2652 12.8125 42.2415 12.7162C42.185 12.4873 42.0083 12.3249 41.9296 12.1094C41.9009 12.0309 41.8277 11.9789 41.7394 11.9653C41.5719 11.9396 41.4286 11.8605 41.2802 11.7832C41.0424 11.6596 40.7944 11.5546 40.5454 11.4544C40.4235 11.4054 40.2773 11.4232 40.195 11.5185C39.9822 11.7653 39.6407 11.8016 39.4173 12.0237C38.9948 12.1867 38.5728 12.351 38.1491 12.5105C38.0926 12.5317 38.0261 12.5366 37.9649 12.5339C37.7472 12.5246 37.5579 12.592 37.3889 12.7265C37.2695 12.8216 37.1304 12.8512 36.9801 12.8504C36.7554 12.8493 36.5522 12.7707 36.4512 12.5773C36.2964 12.2808 35.9886 12.0961 35.8874 11.7668C35.7958 11.6843 35.7176 11.5663 35.6103 11.526C35.3332 11.4219 35.1486 11.1692 34.863 11.0865C34.8439 11.081 34.823 11.0689 34.8113 11.0534C34.6055 10.7803 34.3298 10.6762 33.9952 10.7127C33.6047 10.6219 33.3446 10.2414 33.4023 9.87835C33.4248 9.73695 33.4835 9.60148 33.5258 9.4632C33.594 9.41778 33.6608 9.37002 33.7305 9.32726C34.0383 9.13841 34.3945 9.1395 34.6523 9.37642C34.86 9.56745 35.0782 9.69387 35.3596 9.72524C35.4584 9.73632 35.5639 9.77815 35.6449 9.8359C35.8136 9.95607 35.9811 10.0709 36.1727 10.1557C36.3287 10.2245 36.4298 10.3669 36.493 10.5243C36.5426 10.6481 36.6335 10.733 36.736 10.8001C36.9603 10.9468 37.2052 11.0634 37.3711 11.2877C37.3892 11.3122 37.4572 11.3265 37.4858 11.3123C37.7303 11.1919 38.0002 11.16 38.2566 11.0828C38.3549 11.0531 38.4622 11.0167 38.5368 10.9509C38.7598 10.7544 39.0734 10.7272 39.2926 10.5296C39.5697 10.4502 39.8434 10.3555 40.1245 10.2955C40.4477 10.2267 40.7769 10.1849 41.1045 10.1391C41.2757 10.1153 41.4364 10.1716 41.578 10.2613C41.7188 10.3508 41.8553 10.4351 42.0222 10.4766C42.1875 10.5176 42.3201 10.6309 42.4005 10.7822C42.491 10.9524 42.6241 11.0809 42.7679 11.1986C42.9922 11.3823 43.1916 11.5853 43.382 11.8058C43.5344 11.9822 43.6853 12.1422 43.7351 12.3763C43.7477 12.4361 43.7638 12.5043 43.802 12.5477C44.0018 12.7751 44.0176 13.0811 44.1459 13.3405C44.2716 13.5949 44.3285 13.8857 44.3978 14.1649C44.4839 14.5121 44.6484 14.8219 44.8368 15.1185C44.9 15.218 45.0113 15.2966 45.116 15.3584C45.3212 15.4795 45.4748 15.6321 45.5518 15.8642C45.6198 16.0693 45.7665 16.2182 45.9522 16.3235C46.1653 16.4443 46.2959 16.6269 46.3429 16.8599C46.3782 17.0352 46.4799 17.1594 46.5982 17.276C46.7159 17.3921 46.8334 17.5115 46.9662 17.6086C47.1531 17.745 47.335 17.8792 47.4145 18.1091C47.6107 18.2931 47.7475 18.533 47.9673 18.6949C48.0878 18.7837 48.1898 18.899 48.2204 19.0407C48.2685 19.263 48.3955 19.4203 48.5774 19.5283C48.7636 19.639 48.9065 19.7752 48.9917 19.9753C49.0153 20.0307 49.055 20.0856 49.1013 20.1237C49.3076 20.2932 49.3813 20.5147 49.4252 20.7728C49.4696 21.035 49.5644 21.2918 49.6632 21.5405C49.7268 21.7008 49.7702 21.8591 49.7414 22.0242C49.7123 22.1903 49.7092 22.3532 49.7231 22.5193C49.7265 22.56 49.7284 22.6064 49.7129 22.6424C49.5683 22.9803 49.6014 23.3346 49.6152 23.6862C49.6309 24.0806 49.546 24.4672 49.5305 24.8591C49.5255 24.9843 49.4668 25.0952 49.4099 25.2085C49.2566 25.5135 49.2138 25.8317 49.2933 26.1734C49.3683 26.496 49.3426 26.8294 49.3089 27.1563C49.2962 27.2784 49.265 27.3984 49.2644 27.5244C49.2631 27.7934 49.2937 28.0729 49.2308 28.3284C49.1711 28.5713 49.132 28.8143 49.1066 29.0589C49.0637 29.4713 48.9541 29.8693 48.8733 30.2734C48.8205 30.5375 48.7511 30.7966 48.7771 31.0712C48.7867 31.1718 48.7704 31.2794 48.7433 31.3776C48.6545 31.6983 48.6336 32.0292 48.5772 32.3538C48.5237 32.6624 48.4967 32.9675 48.4854 33.2784C48.4765 33.5259 48.4478 33.773 48.4186 34.0191C48.4091 34.0998 48.3848 34.1863 48.3422 34.2542C48.242 34.414 48.1724 34.5827 48.1116 34.7613C48.0591 34.9159 47.9637 35.0551 47.9261 35.2198C47.9081 35.2985 47.8713 35.3832 47.8173 35.4413C47.6114 35.6629 47.5183 35.9304 47.4527 36.2177C47.4307 36.3142 47.3731 36.417 47.3013 36.4848C47.1357 36.6408 46.963 36.7868 46.8347 36.9792C46.8031 37.0265 46.7367 37.0566 46.6802 37.0799C46.5085 37.1507 46.3355 37.2202 46.1593 37.2784C46.0824 37.3038 45.9925 37.3208 45.9148 37.307C45.5908 37.2492 45.2522 37.2375 44.9677 37.0362C44.9442 37.0195 44.8849 37.0242 44.8624 37.043C44.8349 37.0663 44.8121 37.117 44.8168 37.152C44.8302 37.2531 44.8521 37.3544 44.8824 37.4519C44.9257 37.5918 44.9629 37.7283 44.9437 37.879C44.9218 38.0505 44.9813 38.2055 45.086 38.3406C45.2045 38.4934 45.2635 38.6626 45.2755 38.8572C45.2936 39.1478 45.3866 39.4238 45.4876 39.6939C45.5463 39.8506 45.6037 40.0011 45.6054 40.1729C45.6064 40.2734 45.6504 40.3732 45.6726 40.4738C45.6903 40.5544 45.7245 40.6377 45.7164 40.7162C45.6949 40.9246 45.7234 41.1278 45.7436 41.3335C45.7807 41.7118 45.5249 42.0709 45.042 42.1322C44.9821 42.1399 44.9151 42.1322 44.8579 42.1132C44.7399 42.0739 44.6262 42.0217 44.5109 41.9751C44.4049 41.8224 44.2585 41.6767 44.2684 41.4817C44.2823 41.208 44.1866 40.947 44.1981 40.6792C44.2098 40.4058 44.0792 40.154 44.1039 39.8823C43.9918 39.7044 44.0308 39.4753 43.8963 39.3005C43.7789 39.1481 43.7396 38.9648 43.7588 38.7698C43.7836 38.5168 43.7408 38.2794 43.621 38.0494C43.5657 37.9434 43.5606 37.8106 43.5378 37.6889C43.4807 37.3844 43.4612 37.0716 43.3202 36.7868C43.253 36.651 43.2603 36.5062 43.2818 36.3594C43.3349 36.0002 43.26 35.6532 43.1203 35.3298C43.0469 35.16 42.9695 34.9905 42.8987 34.8187C42.8764 34.7645 42.7954 34.756 42.7442 34.8C42.7128 34.827 42.6727 34.8468 42.6488 34.8789C42.2563 35.4091 41.8759 35.9483 41.5507 36.5228C41.4442 36.7109 41.3277 36.8703 41.1199 36.9477C41.0024 36.9914 40.8966 37.0521 40.8029 37.1395C40.6211 37.3093 40.3639 37.3692 40.1904 37.5579C40.1392 37.6135 40.0452 37.648 39.967 37.6569C39.7466 37.6818 39.5723 37.7917 39.429 37.9436C39.2616 38.121 39.0657 38.217 38.8263 38.2251C38.6749 38.2303 38.526 38.2688 38.4232 38.3678C38.2396 38.5443 38.0356 38.6759 37.7993 38.763C37.5106 39.0152 37.1168 39.0517 36.8003 39.2476C36.7672 39.268 36.7198 39.2755 36.6798 39.2732C36.5064 39.2632 36.3593 39.3373 36.2041 39.3985C36.0526 39.4581 35.8771 39.4216 35.7256 39.5174C35.6426 39.5698 35.5271 39.5945 35.4273 39.5919C35.2588 39.5875 35.1012 39.6103 34.9384 39.6543C34.8229 39.6855 34.6852 39.6847 34.5694 39.6535C34.3589 39.5967 34.1568 39.6235 33.9557 39.6694C33.7338 39.72 33.5176 39.796 33.2966 39.8512C33.1979 39.8759 33.0914 39.8948 32.9917 39.8845C32.8662 39.8717 32.7473 39.8757 32.6234 39.8976C32.3348 39.9483 32.0512 39.8216 31.7607 39.8619C31.7233 39.867 31.6782 39.8467 31.6421 39.8278C31.3695 39.6846 31.0893 39.5552 30.8217 39.4038C30.7377 39.3563 30.6617 39.2613 30.6247 39.1708C30.5207 38.9157 30.309 38.738 30.1736 38.5068C30.164 38.4904 30.0786 38.4908 30.0722 38.504C29.9565 38.7489 29.717 38.9112 29.6308 39.1773C29.6069 39.251 29.5453 39.3304 29.4788 39.369C29.177 39.5441 28.8678 39.707 28.5481 39.8475C28.4937 39.8714 28.4227 39.8825 28.3654 39.8704C28.1957 39.8349 28.0364 39.8914 27.8725 39.9023C27.7094 39.9131 27.542 39.8648 27.3796 39.8793C27.1878 39.8965 27.0135 39.8756 26.8321 39.8093C26.6384 39.7384 26.4329 39.6967 26.23 39.6546C26.109 39.6295 25.9731 39.5915 25.8614 39.6226C25.5882 39.6983 25.3334 39.6646 25.0665 39.5973C24.9312 39.5633 24.777 39.6098 24.6368 39.5581C24.4626 39.4938 24.2883 39.4416 24.1032 39.4057C23.9042 39.367 23.716 39.2757 23.5058 39.2585C23.4076 39.2504 23.3136 39.1856 23.2189 39.1441C23.1249 39.103 23.0361 39.0373 22.9384 39.0206C22.6393 38.9694 22.4546 38.7026 22.166 38.6289C22.0744 38.6055 21.9964 38.5128 21.9219 38.4416C21.7804 38.3064 21.619 38.2309 21.4213 38.2258C21.18 38.2195 20.9877 38.1128 20.8207 37.9381C20.6759 37.7867 20.4989 37.6896 20.2818 37.653C20.1668 37.6335 20.058 37.5509 19.9567 37.4816C19.6684 37.2842 19.3989 37.0588 19.0722 36.9205C18.9129 36.8531 18.8066 36.7253 18.7287 36.5731C18.4265 35.9833 18.0173 35.4637 17.6412 34.9228C17.5967 34.8588 17.5163 34.8157 17.445 34.7767C17.4204 34.7633 17.3454 34.7837 17.3401 34.8021C17.3003 34.9411 17.2711 35.0793 17.2006 35.2118C17.0025 35.5842 16.897 35.9811 16.9738 36.4066C16.9972 36.536 16.9815 36.6571 16.9357 36.7727C16.8057 37.1017 16.7499 37.4465 16.6981 37.7933C16.6829 37.8947 16.6665 38.0023 16.6206 38.0915C16.5128 38.3018 16.4771 38.5229 16.4956 38.7519C16.5114 38.9471 16.4721 39.1261 16.3695 39.2872C16.2433 39.4857 16.1936 39.71 16.1573 39.9326C16.0875 40.3596 16.043 40.7906 15.9881 41.22C16.0432 41.536 15.9011 41.7829 15.7098 42.0124C15.6307 42.0377 15.5508 42.0608 15.4726 42.0887C15.1565 42.2018 14.9035 42.0854 14.685 41.8657C14.5798 41.7598 14.5179 41.6236 14.5199 41.4724C14.5237 41.1829 14.5379 40.8933 14.5478 40.6038C14.6896 40.3009 14.614 39.9426 14.7921 39.649C14.8394 39.3843 14.9674 39.1394 14.9736 38.8636C14.978 38.6726 15.0423 38.4958 15.169 38.3491C15.2698 38.2323 15.3215 38.0925 15.3115 37.9475C15.2967 37.7337 15.3323 37.5387 15.412 37.341C15.4484 37.2509 15.4318 37.1381 15.4317 37.0355C15.4317 36.979 15.3947 36.9544 15.3557 36.9795C15.1642 37.1031 14.9714 37.2057 14.7361 37.2431C14.2649 37.3182 14.2691 37.3257 13.7739 37.1567C13.5702 37.0872 13.3909 37.0028 13.2833 36.8041C13.2535 36.7492 12.7067 35.8912 12.6806 35.8304C12.6561 35.7731 12.6463 35.7011 12.6051 35.661C12.309 35.3713 12.2651 34.9592 12.0867 34.613C12.0398 34.5218 12.0045 34.4243 11.9536 34.3355C11.8581 34.1688 11.832 33.9926 11.8158 33.8014C11.7721 33.287 11.7751 32.7677 11.6736 32.2585C11.6535 32.1573 11.6441 32.054 11.6274 31.9523C11.5644 31.5677 11.4582 31.1935 11.4618 30.7944C11.4651 30.4232 11.3279 30.0654 11.2525 29.7016C11.2358 29.6209 11.1962 29.5424 11.1929 29.4618C11.1776 29.0879 11.123 28.7214 11.0223 28.3607C11.0006 28.2827 10.9856 28.1914 11.0047 28.1154C11.0674 27.8638 10.9387 27.6214 10.9827 27.3731C10.883 27.0692 10.9593 26.7541 10.9267 26.4456C10.916 26.3457 10.9421 26.2392 10.9644 26.1387C11.04 25.8001 10.9941 25.4796 10.8291 25.1762C10.7483 25.0273 10.713 24.8722 10.7019 24.7015C10.671 24.2264 10.6337 23.7522 10.662 23.2754C10.6668 23.193 10.664 23.1078 10.6487 23.0268C10.6181 22.8648 10.5582 22.7064 10.5443 22.5438C10.5304 22.3799 10.5616 22.2135 10.519 22.0486C10.4814 21.9029 10.5018 21.7539 10.561 21.6206C10.7043 21.2972 10.7984 20.9626 10.851 20.613C10.8725 20.4696 10.943 20.3399 11.0468 20.2297C11.1314 20.1399 11.2229 20.0486 11.2784 19.9411C11.368 19.7676 11.4918 19.6411 11.6582 19.5427C11.8422 19.4339 11.9758 19.2795 12.0304 19.0641C12.073 18.8957 12.1946 18.7851 12.3157 18.6669C12.5367 18.4512 12.7697 18.2441 12.9188 17.9632C12.9657 17.8746 13.0456 17.8004 13.1206 17.7303C13.2563 17.6035 13.3913 17.473 13.5418 17.3651C13.7548 17.2123 13.8909 17.0243 13.9423 16.7624C13.9751 16.5959 14.0907 16.4674 14.2302 16.3678C14.2977 16.3198 14.3737 16.2823 14.435 16.2278C14.5432 16.1317 14.6482 16.0335 14.6936 15.8851C14.7635 15.6566 14.906 15.481 15.1214 15.3733C15.3174 15.2755 15.4312 15.1118 15.5373 14.9268C15.6519 14.727 15.7705 14.5206 15.8088 14.3027C15.8596 14.0133 16.0399 13.7674 16.0499 13.471C16.1796 13.2124 16.2581 12.9325 16.3792 12.6714C16.4398 12.5409 16.5256 12.4253 16.5513 12.2767C16.5649 12.198 16.5982 12.1038 16.6553 12.0549C16.893 11.8516 17.0197 11.5514 17.2791 11.3667C17.5149 11.1987 17.7366 11.0144 17.8795 10.7492C17.9259 10.6632 18.0141 10.5749 18.1033 10.5417C18.3563 10.4472 18.5834 10.3036 18.8273 10.1946C18.9188 10.1537 19.0349 10.1207 19.1287 10.1396C19.5933 10.2334 20.0809 10.2075 20.5248 10.4166C20.6525 10.4767 20.8038 10.4866 20.9443 10.5193C21.143 10.7132 21.4372 10.7308 21.6491 10.9047C21.7951 11.0242 21.9711 11.0987 22.1575 11.1285C22.3644 11.1614 22.5603 11.2173 22.749 11.31C22.7888 11.3295 22.8796 11.3014 22.9144 11.2646C23.0427 11.1283 23.1626 10.9907 23.3408 10.9095C23.5531 10.8126 23.7227 10.664 23.8079 10.4337C23.8287 10.3776 23.8741 10.3267 23.9186 10.2843C23.9784 10.2275 24.0414 10.1529 24.1148 10.1354C24.4068 10.0658 24.5686 9.75739 24.873 9.72634C25.1539 9.69762 25.3836 9.59087 25.5828 9.38641C25.8456 9.11641 26.3895 9.12655 26.6503 9.43089C26.7043 9.49379 26.7613 9.55403 26.8168 9.61552L26.8172 9.6149Z" fill="#070607"/>
<path d="M15.7091 42.0118C15.9005 41.7823 16.0425 41.5354 15.9874 41.2194C16.0424 40.79 16.0868 40.359 16.1566 39.9319C16.193 39.7094 16.2426 39.4851 16.3689 39.2866C16.4714 39.1255 16.5107 38.9465 16.495 38.7513C16.4764 38.5223 16.5121 38.3011 16.62 38.0909C16.6659 38.0016 16.6823 37.8941 16.6974 37.7927C16.7492 37.4459 16.8051 37.1011 16.9351 36.7721C16.9808 36.6565 16.9964 36.5352 16.9732 36.406C16.8964 35.9805 17.0019 35.5835 17.1999 35.2112C17.2705 35.0787 17.2997 34.9404 17.3395 34.8015C17.3448 34.7831 17.4197 34.7627 17.4444 34.7761C17.5157 34.8151 17.5961 34.8582 17.6405 34.9222C18.0168 35.4631 18.4259 35.9828 18.728 36.5725C18.8061 36.7247 18.9122 36.8525 19.0716 36.9199C19.3982 37.058 19.6676 37.2836 19.956 37.481C20.0573 37.5503 20.1661 37.6328 20.2811 37.6523C20.4982 37.689 20.6752 37.7861 20.82 37.9375C20.987 38.1121 21.1793 38.2189 21.4206 38.2251C21.6183 38.2303 21.7799 38.3058 21.9213 38.441C21.9957 38.5122 22.0738 38.6049 22.1654 38.6283C22.454 38.7021 22.6386 38.969 22.9378 39.02C23.0355 39.0367 23.1243 39.1026 23.2182 39.1435C23.3131 39.1848 23.4071 39.2498 23.5051 39.2579C23.7153 39.275 23.9036 39.3665 24.1026 39.405C24.2877 39.4409 24.4618 39.4932 24.6362 39.5575C24.7762 39.6092 24.9305 39.5627 25.0658 39.5967C25.3327 39.664 25.5876 39.6977 25.8607 39.622C25.9725 39.5911 26.1082 39.6288 26.2293 39.654C26.4322 39.6961 26.6376 39.7378 26.8315 39.8086C27.0128 39.875 27.1872 39.8959 27.379 39.8787C27.5413 39.8642 27.7088 39.9124 27.8719 39.9017C28.0359 39.8909 28.1952 39.8342 28.3647 39.8698C28.422 39.8818 28.493 39.8708 28.5475 39.8469C28.8673 39.7063 29.1763 39.5433 29.4781 39.3684C29.5446 39.3298 29.6064 39.2504 29.6302 39.1767C29.7163 38.9104 29.9559 38.7483 30.0715 38.5034C30.0778 38.4901 30.1633 38.4898 30.173 38.5062C30.3083 38.7374 30.5201 38.9151 30.624 39.1702C30.661 39.2608 30.737 39.3557 30.821 39.4032C31.0887 39.5546 31.3688 39.6839 31.6415 39.8272C31.6775 39.8461 31.7226 39.8666 31.7601 39.8612C32.0505 39.8208 32.3341 39.9476 32.6227 39.897C32.7466 39.8751 32.8655 39.8711 32.991 39.8839C33.0908 39.894 33.1972 39.8753 33.296 39.8506C33.517 39.7954 33.7331 39.7194 33.9551 39.6688C34.1561 39.6229 34.3582 39.5961 34.5688 39.6529C34.6846 39.6841 34.8222 39.685 34.9377 39.6537C35.1005 39.6097 35.2581 39.5869 35.4267 39.5912C35.5264 39.5939 35.6419 39.5692 35.7249 39.5168C35.8765 39.421 36.0519 39.4575 36.2035 39.3979C36.3586 39.3368 36.5059 39.2627 36.6792 39.2725C36.7191 39.2749 36.7664 39.2674 36.7997 39.2469C37.1163 39.0511 37.5099 39.0145 37.7987 38.7623C38.035 38.6752 38.239 38.5437 38.4225 38.3672C38.5253 38.2682 38.6742 38.2297 38.8256 38.2245C39.065 38.2164 39.2611 38.1204 39.4284 37.943C39.5717 37.7911 39.746 37.6812 39.9664 37.6563C40.0447 37.6474 40.1387 37.6129 40.1897 37.5573C40.3633 37.3686 40.6205 37.3087 40.8023 37.1389C40.8959 37.0515 41.0017 36.9908 41.1193 36.9471C41.327 36.8696 41.4436 36.7103 41.55 36.5222C41.8753 35.9477 42.2556 35.4085 42.6481 34.8783C42.672 34.8462 42.7121 34.8264 42.7435 34.7994C42.7947 34.7553 42.8757 34.7641 42.898 34.8181C42.9689 34.9899 43.0463 35.1596 43.1196 35.3292C43.2593 35.6524 43.3342 35.9995 43.2812 36.3588C43.2595 36.5055 43.2523 36.6504 43.3196 36.7861C43.4605 37.071 43.4802 37.3838 43.5371 37.6883C43.5599 37.8098 43.5652 37.9428 43.6203 38.0488C43.7402 38.2788 43.7831 38.5164 43.7581 38.7692C43.7389 38.9641 43.7783 39.1475 43.8956 39.2998C44.0302 39.4746 43.9911 39.7036 44.1032 39.8817C44.0786 40.1534 44.2092 40.4052 44.1975 40.6786C44.1859 40.9464 44.2816 41.2074 44.2677 41.4811C44.2579 41.6759 44.4043 41.8218 44.5102 41.9745C44.4353 42.1686 44.295 42.2761 44.086 42.2824C43.9618 42.2861 43.837 42.2821 43.7127 42.2746C43.3346 42.2516 42.9715 42.288 42.6186 42.4505C42.4143 42.5446 42.1854 42.5867 41.9653 42.6439C41.8862 42.6645 41.7994 42.6732 41.7184 42.6649C41.4303 42.6356 41.1369 42.6897 40.8518 42.5998C40.7784 42.5767 40.6898 42.6 40.6083 42.6045C40.5263 42.6091 40.4399 42.637 40.3634 42.6197C39.852 42.5035 39.3343 42.5098 38.8161 42.5279C38.6096 42.5351 38.4047 42.5429 38.2023 42.6137C38.0696 42.6602 37.9167 42.6609 37.7728 42.6615C37.4121 42.6632 37.0712 42.7459 36.7545 42.9109C36.5624 43.0109 36.367 43.0515 36.1549 43.0386C35.6997 43.0108 35.243 43.0429 34.7869 42.9906C34.5647 42.9652 34.334 43.0075 34.1076 43.0254C33.8401 43.0465 33.5666 43.0106 33.3074 43.1174C33.254 43.1394 33.1766 43.142 33.1241 43.1203C32.8306 42.9989 32.5006 43.0805 32.2102 42.9502C31.5861 42.8533 30.9668 42.8474 30.3759 43.1055C30.1446 43.2065 29.9212 43.2965 29.6617 43.2911C29.5417 43.2886 29.4152 43.381 29.3008 43.3651C28.9745 43.3201 28.6483 43.4551 28.3193 43.3307C28.106 43.2502 27.8662 43.2596 27.6465 43.3441C27.4094 43.4353 27.175 43.4056 26.9978 43.2547C26.7313 43.0276 26.4288 43.0244 26.1171 43.0281C25.9518 43.0301 25.7756 43.0214 25.6241 43.0741C25.3803 43.159 25.1347 43.1598 24.8867 43.1637C24.4713 43.1704 24.0557 43.1603 23.6407 43.1734C23.1179 43.1899 22.6117 43.0751 22.104 42.9853C21.8987 42.9491 21.6956 42.919 21.4887 42.9114C21.3435 42.9059 21.1977 42.9159 21.0526 42.9109C20.7217 42.8995 20.3919 42.8989 20.0701 42.7867C19.7754 42.684 19.4624 42.6549 19.1504 42.6554C18.8968 42.6557 18.6541 42.6119 18.422 42.5146C18.2263 42.4327 18.0259 42.3999 17.8141 42.4099C17.6693 42.4168 17.5235 42.4007 17.3783 42.4033C16.8745 42.4126 16.3963 42.2836 15.9222 42.1357C15.8455 42.1118 15.7798 42.0536 15.709 42.0111L15.7091 42.0118Z" fill="#FCFCFC"/>
<path d="M13.6028 11.7538C13.767 11.7671 13.9311 11.7833 14.0954 11.7924C14.1831 11.7972 14.305 11.6992 14.3237 11.6096C14.3404 11.53 14.3606 11.4461 14.3514 11.3672C14.3289 11.1729 14.3637 10.991 14.4623 10.8279C14.529 10.7177 14.553 10.5984 14.593 10.4814C14.7487 10.0256 15.015 9.86255 15.4944 9.93122C15.6195 9.94917 15.7398 9.96213 15.8645 9.93716C15.9787 9.91437 16.1042 9.80652 16.1215 9.69493C16.1342 9.61346 16.1317 9.52965 16.1409 9.4474C16.1899 9.01399 16.4062 8.79392 16.8543 8.7201C16.9358 8.70668 17.0219 8.70871 17.0989 8.68249C17.2911 8.61694 17.507 8.56216 17.4375 8.27545C17.5284 8.00061 17.5814 7.70501 17.7188 7.45576C17.9446 7.04623 18.4771 6.96413 18.7937 7.24163C19.0289 7.4478 19.314 7.5814 19.5334 7.8038C19.5729 7.84391 19.6558 7.82815 19.6943 7.77399C19.7658 7.6738 19.8545 7.57765 19.8952 7.46513C19.9798 7.23195 20.0945 7.01252 20.174 6.77529C20.286 6.44051 20.62 6.28865 20.9835 6.35202C21.2838 6.4043 21.5312 6.69179 21.5476 7.0108C21.5563 7.18154 21.5262 7.34074 21.4224 7.4823C21.2254 7.75058 21.0748 8.04369 20.9504 8.35209C20.9125 8.4462 20.8488 8.53079 20.7915 8.61585C20.7107 8.73571 20.6242 8.85183 20.541 8.97013C20.3662 9.2186 20.1179 9.32535 19.8357 9.23998C19.5412 9.15086 19.2282 9.11341 18.9557 8.95C18.8442 8.8832 18.7052 8.96904 18.6794 9.10826C18.6568 9.23015 18.6572 9.35688 18.6274 9.47659C18.6029 9.57522 18.561 9.67449 18.5057 9.7597C18.41 9.90719 18.2641 9.98944 18.0874 9.99365C17.9638 9.99662 17.8397 9.97742 17.7157 9.97009C17.612 9.96384 17.5381 9.99974 17.5301 10.0889C17.4912 10.526 17.1497 10.7637 16.8935 11.0528C16.8 11.1583 16.6449 11.2018 16.4917 11.1923C16.3221 11.1817 16.1623 11.2246 16.0042 11.2772C15.8959 11.3132 15.8264 11.3949 15.8138 11.5021C15.7897 11.7069 15.8 11.9168 15.7634 12.1186C15.7303 12.3001 15.5848 12.4381 15.5399 12.6275C15.4517 12.9993 15.1801 13.1769 14.8087 13.1813C14.5 13.1849 14.1928 13.2941 13.8816 13.1947C13.8206 13.1752 13.7152 13.2638 13.7077 13.3363C13.6801 13.6033 13.6266 13.8672 13.6339 14.1383C13.642 14.4355 13.5059 14.6555 13.2429 14.7954C13.0967 14.8731 12.9516 14.9532 12.8024 15.0248C12.6864 15.0805 12.5565 15.0964 12.4387 15.0481C12.2637 14.9761 12.0846 14.9415 11.8987 14.9135C11.7802 14.8956 11.6571 14.84 11.5592 14.7692C11.3179 14.5945 11.243 14.3435 11.2824 14.0536C11.3197 13.779 11.4882 13.6034 11.7258 13.494C11.9015 13.413 12.0938 13.4536 12.28 13.4627C12.346 13.4659 12.4117 13.4104 12.4008 13.3561C12.334 13.0227 12.4225 12.6946 12.4474 12.367C12.4821 11.9126 12.9194 11.6902 13.232 11.7287C13.3547 11.7438 13.4772 11.761 13.5999 11.7772C13.6008 11.7694 13.6016 11.7616 13.6025 11.7538H13.6028Z" fill="#12C0B5"/>
<path d="M47.8605 13.2013C47.8632 13.2623 47.8573 13.3257 47.8721 13.3836C47.8801 13.4144 47.9233 13.4563 47.952 13.4576C48.0761 13.4629 48.2008 13.4518 48.3253 13.4524C48.6234 13.454 48.9147 13.7287 48.9741 14.0323C49.0415 14.3762 48.8669 14.7218 48.5529 14.8502C48.458 14.8891 48.3548 14.9094 48.2542 14.9325C48.1738 14.9509 48.08 14.9398 48.0116 14.9773C47.7141 15.14 47.454 15.0672 47.1977 14.8842C47.1145 14.8249 47.0096 14.7967 46.9235 14.7405C46.7384 14.6197 46.6199 14.4446 46.6246 14.223C46.6307 13.9305 46.5881 13.6447 46.5511 13.3575C46.5378 13.2544 46.4303 13.171 46.3303 13.1985C45.9755 13.2957 45.6278 13.184 45.2797 13.1596C45.0221 13.1417 44.8256 12.9664 44.7347 12.7063C44.7074 12.6279 44.701 12.5379 44.6586 12.4698C44.4984 12.2135 44.4152 11.944 44.4689 11.6404C44.4724 11.6209 44.4652 11.5994 44.4633 11.5789C44.4497 11.4329 44.3422 11.2916 44.2053 11.2623C44.0641 11.232 43.9205 11.2036 43.7768 11.1964C43.5303 11.1842 43.3382 11.0872 43.1977 10.8843C43.1625 10.8334 43.1248 10.7809 43.0776 10.7421C42.8743 10.5749 42.7606 10.365 42.7336 10.1016C42.7233 10.0012 42.6591 9.96407 42.5556 9.97125C42.4729 9.97702 42.3908 9.99653 42.3081 9.99887C41.9109 10.0103 41.6813 9.81861 41.6247 9.43233C41.6097 9.3301 41.6056 9.22538 41.5804 9.12611C41.5658 9.0693 41.5248 9.0153 41.4839 8.97082C41.4608 8.9457 41.4027 8.92072 41.3795 8.93259C41.102 9.07586 40.7898 9.11316 40.5025 9.22569C40.3858 9.27142 40.2609 9.27438 40.134 9.25082C39.9834 9.22288 39.8369 9.16404 39.768 9.03622C39.602 8.7286 39.2836 8.51338 39.2274 8.14114C39.0656 7.94933 39.0197 7.68916 38.8474 7.5025C38.7436 7.38997 38.7141 7.24482 38.7046 7.09842C38.6822 6.75226 38.922 6.42107 39.2452 6.35693C39.6032 6.28591 39.926 6.41124 40.1069 6.80595C40.1186 7.06596 40.2967 7.26246 40.3752 7.49828C40.4125 7.61034 40.5089 7.70476 40.5879 7.79966C40.6058 7.82119 40.6792 7.82962 40.6981 7.81246C40.9272 7.60254 41.205 7.46036 41.4399 7.2545C41.7575 6.97606 42.2287 7.05316 42.4917 7.38373C42.5174 7.41619 42.5502 7.44865 42.561 7.48658C42.6454 7.78343 42.8236 8.0578 42.8041 8.37869C42.794 8.54397 42.882 8.5822 43.0078 8.62887C43.1459 8.68022 43.284 8.70535 43.4289 8.72626C43.8526 8.78713 44.0761 9.03809 44.1211 9.47556C44.1253 9.51677 44.1204 9.55875 44.1225 9.60026C44.1363 9.89961 44.3403 9.95096 44.5406 9.95642C44.6422 9.95923 44.7442 9.92021 44.8471 9.90898C45.2073 9.87011 45.5076 10.0557 45.6292 10.3908C45.6504 10.4491 45.6499 10.517 45.6782 10.5707C45.8344 10.8691 45.9338 11.175 45.8992 11.5215C45.8831 11.6821 46.0662 11.8101 46.248 11.7959C46.4946 11.7765 46.7415 11.7589 46.987 11.7288C47.3354 11.686 47.7569 11.9115 47.8162 12.3966C47.8488 12.663 47.8582 12.9323 47.8782 13.2002C47.8724 13.2005 47.8668 13.201 47.861 13.2013H47.8605Z" fill="#12C0B5"/>
<path d="M29.2752 9.59964C29.2319 9.83937 29.1544 10.0771 29.2323 10.324C29.2226 10.7569 28.8997 11.1124 28.4525 11.1076C28.0889 11.1036 27.7347 10.8543 27.6921 10.3688C27.6853 10.2903 27.7079 10.2049 27.7344 10.1287C27.7972 9.94783 27.7981 9.76617 27.7663 9.58122C27.9125 9.33026 28.0352 9.0704 28.0586 8.77526C28.0634 8.71393 28.0723 8.64854 28.057 8.59079C27.9887 8.33249 27.9114 8.07809 27.8808 7.80918C27.8651 7.67059 27.7814 7.54026 27.6772 7.43304C27.574 7.32707 27.502 7.20003 27.4822 7.05254C27.4541 6.84325 27.3414 6.74289 27.1379 6.67391C26.9144 6.59821 26.7826 6.40421 26.7268 6.16464C26.6494 5.8319 26.8028 5.49837 27.1195 5.33496C27.4296 5.17499 27.8001 5.24507 28.0179 5.51023C28.0697 5.57329 28.1109 5.64617 28.1494 5.71859C28.268 5.94193 28.4201 6.1275 28.6504 6.25033C28.8215 6.34147 28.927 6.50395 28.9738 6.68905C29.0696 7.06783 29.1637 7.44491 29.3485 7.79435C29.4177 7.92514 29.4323 8.08917 29.3709 8.21777C29.2037 8.56722 29.2318 8.93976 29.1989 9.30607C29.1889 9.41641 29.2282 9.50756 29.2753 9.59979L29.2752 9.59964Z" fill="#070607"/>
<path d="M32.5685 9.21096C32.4479 9.47643 32.3773 9.74659 32.4602 10.0409C32.4816 10.1171 32.488 10.2087 32.4668 10.2835C32.3819 10.5808 32.2547 10.8649 32.0655 11.1072C31.9336 11.2764 31.7296 11.3418 31.5089 11.2872C31.2705 11.228 31.096 11.081 31.0437 10.8416C30.9959 10.6225 30.9794 10.394 30.9747 10.1691C30.9722 10.0503 31.0168 9.9278 31.0551 9.81183C31.0805 9.73489 31.1288 9.66575 31.1074 9.57882C31.1216 9.49703 31.1233 9.41057 31.1523 9.33472C31.2716 9.02226 31.3385 8.70185 31.3471 8.36676C31.3526 8.14935 31.4336 7.95254 31.6144 7.82659C31.8287 7.67754 31.9701 7.48714 32.0488 7.24101C32.1005 7.07932 32.2016 6.95243 32.3332 6.841C32.4585 6.73502 32.5621 6.60361 32.6767 6.48484C32.8961 6.25729 33.401 6.25229 33.6414 6.50638C33.9396 6.82165 33.929 7.27597 33.6008 7.5544C33.4906 7.64789 33.3737 7.73358 33.2598 7.82254C33.0264 8.00452 32.8123 8.19695 32.8696 8.5375C32.82 8.65081 32.7808 8.77052 32.7177 8.87571C32.6536 8.98278 32.5724 9.07861 32.5685 9.21127V9.21096Z" fill="#070607"/>
<path d="M29.496 25.5895C29.5108 25.4962 29.5239 25.4144 29.5367 25.3326C29.5785 25.0676 29.6122 24.8047 29.5383 24.5367C29.5119 24.441 29.5167 24.3271 29.5398 24.2294C29.5998 23.9768 29.5885 23.7362 29.4754 23.5016C29.3994 23.344 29.3919 23.1818 29.4498 23.0179C29.5347 22.7774 29.5078 22.5266 29.5195 22.2799C29.5234 22.1982 29.5252 22.1041 29.4899 22.0351C29.3349 21.7316 29.3674 21.389 29.275 21.0726C29.1999 20.8161 29.1411 20.5576 29.0151 20.3163C28.9349 20.1627 28.8041 20.0635 28.7003 19.9364C28.472 19.6571 28.469 19.304 28.6807 19.0161C29.0039 18.5763 29.6739 18.6303 29.9247 19.1171C29.9531 19.172 29.9918 19.2302 29.9945 19.2883C30.0024 19.4628 30.0864 19.6037 30.169 19.7476C30.1894 19.7832 30.2109 19.823 30.2147 19.8626C30.2408 20.1312 30.2472 20.4137 30.4012 20.64C30.5507 20.8596 30.4966 21.1259 30.6197 21.3477C30.666 21.4311 30.6575 21.549 30.6611 21.6517C30.6773 22.1073 30.7458 22.5558 30.8476 22.9986C30.886 23.1659 30.9039 23.3276 30.8332 23.4851C30.7505 23.6694 30.7595 23.8426 30.8497 24.0218C30.9256 24.1726 30.9538 24.3346 30.9286 24.5055C30.8885 24.7752 30.9493 25.04 30.9774 25.3061C30.9882 25.4085 31.0155 25.5095 31.0227 25.612C31.0466 25.9485 30.7527 26.3067 30.4003 26.3541C29.9626 26.413 29.6826 26.2007 29.5458 25.8848C29.506 25.7931 29.5103 25.6822 29.4958 25.5895H29.496Z" fill="#070607"/>
<path d="M34.2174 24.7167C34.1399 24.7359 34.0803 24.7596 34.0189 24.7645C33.753 24.7854 33.5148 24.71 33.3648 24.4845C33.2389 24.2949 33.1234 24.1009 32.962 23.9373C32.921 23.8958 32.8932 23.8299 32.883 23.7712C32.8507 23.5847 32.7811 23.4129 32.7039 23.242C32.6787 23.1864 32.6561 23.1215 32.6598 23.0627C32.6733 22.8529 32.6235 22.6505 32.6051 22.4446C32.5881 22.2534 32.6316 22.0722 32.7675 21.9247C32.8095 21.8792 32.8562 21.8377 32.8977 21.7916C33.0354 21.6384 33.0834 21.4238 33.2638 21.295C33.4226 21.1817 33.6192 21.1831 33.7811 21.0862C33.8716 21.032 33.9593 20.9796 34.0139 20.8872C34.1371 20.6791 34.3244 20.5635 34.5493 20.487C34.7044 20.4343 34.852 20.357 34.9989 20.2829C35.3248 20.1182 35.7665 20.357 35.9012 20.6275C36.0671 20.9607 35.9967 21.3879 35.6797 21.5634C35.4284 21.7027 35.1795 21.8492 34.9213 21.9777C34.8308 22.0226 34.813 22.0872 34.8725 22.1765C34.9419 22.2807 35.0204 22.3805 35.0351 22.5085C35.073 22.8368 35.1289 23.1658 35.1309 23.4948C35.1322 23.6801 35.1314 23.8669 35.1341 24.0529C35.1381 24.3487 34.8614 24.7049 34.5116 24.7166C34.408 24.72 34.3042 24.717 34.2173 24.717L34.2174 24.7167Z" fill="#070607"/>
<path d="M25.148 23.7037C25.0607 23.3453 25.1935 22.9993 25.185 22.6471C25.1803 22.4573 25.288 22.292 25.4064 22.1423C25.4358 22.1054 25.4005 22.0114 25.3487 21.9891C25.1021 21.883 24.8879 21.7197 24.6438 21.605C24.3227 21.4539 24.1983 21.0957 24.2964 20.7571C24.3812 20.4646 24.6863 20.2264 24.9956 20.2298C25.0957 20.2309 25.2012 20.2621 25.2937 20.3032C25.4632 20.3784 25.6191 20.4813 25.8027 20.5289C25.9694 20.5721 26.1044 20.6745 26.1916 20.8226C26.3059 21.0167 26.4813 21.1223 26.6882 21.1681C26.9306 21.2218 27.1123 21.3526 27.2126 21.5688C27.286 21.7267 27.4123 21.8313 27.5135 21.9607C27.6058 22.0784 27.6521 22.212 27.6559 22.364C27.662 22.6134 27.5708 22.8486 27.5736 23.1019C27.5764 23.3469 27.3745 23.5548 27.3625 23.8114C27.3608 23.8482 27.3302 23.8899 27.3019 23.9185C27.1263 24.097 27.0127 24.3199 26.864 24.5168C26.7171 24.7113 26.4939 24.7981 26.2562 24.7623C26.0911 24.7375 25.9283 24.7202 25.7624 24.7177C25.4401 24.7127 25.1054 24.4204 25.1285 24.0096C25.1342 23.9061 25.1416 23.8026 25.1478 23.7035L25.148 23.7037Z" fill="#070607"/>
</svg>
