<svg width="60" height="48" viewBox="-3 0 60 48" fill="none" xmlns="http://www.w3.org/2000/svg">
<path d="M34.4631 9.11592C34.634 9.22142 34.8317 9.1462 35.0085 9.19583C35.1674 9.24047 35.3163 9.32022 35.4747 9.36735C35.5513 9.39014 35.6395 9.3725 35.7226 9.37516C35.9713 9.38343 36.2201 9.39279 36.4691 9.40153C36.4628 9.50469 36.4385 9.61082 36.4536 9.71102C36.4975 10.0027 36.6471 10.2084 36.9546 10.273C37.0756 10.2985 37.1917 10.3489 37.3131 10.3712C37.6571 10.4343 37.9767 10.6106 38.3443 10.5738C38.4346 10.5647 38.5394 10.6343 38.6272 10.6854C38.7156 10.7367 38.7822 10.84 38.8743 10.8678C39.1206 10.9421 39.2979 11.1303 39.5257 11.2298C39.649 11.2836 39.7339 11.3704 39.7611 11.4995C39.7964 11.6675 39.8824 11.8036 39.9827 11.9396C40.1967 12.2294 40.3258 12.5556 40.2959 12.921C40.2763 13.1612 40.3195 13.3739 40.4594 13.5688C40.585 13.7438 40.6476 13.9451 40.6362 14.1552C40.6178 14.4939 40.8062 14.7968 40.7854 15.133C40.8904 15.2979 40.8795 15.4896 40.9176 15.671C40.9599 15.8718 41.0462 16.0625 41.1047 16.2614C41.1807 16.5197 41.2069 16.7955 41.3159 17.0367C41.4073 17.2395 41.4415 17.4258 41.3969 17.6362C41.3616 17.8018 41.3793 17.9635 41.4192 18.1289C41.5757 18.7768 41.5723 19.8425 41.4125 20.4711C41.3761 20.6141 41.341 20.7577 41.3763 20.9014C41.4231 21.0917 41.3855 21.2694 41.3457 21.4542C41.2995 21.669 41.3619 21.867 41.5096 22.0315C41.5647 22.0929 41.6474 22.1333 41.6911 22.2005C41.8412 22.4317 42.0235 22.6204 42.2735 22.7463C42.3417 22.7807 42.4124 22.8581 42.4332 22.9299C42.5181 23.223 42.7179 23.4229 42.9251 23.6305C43.0537 23.7592 43.1302 23.9398 43.2306 24.0967C43.286 24.1831 43.3269 24.2866 43.401 24.3522C43.7172 24.6311 43.9182 24.9966 44.145 25.3396C44.2702 25.5289 44.3471 25.7448 44.5519 25.8779C44.6132 25.9177 44.6476 26.0117 44.6749 26.0877C44.7097 26.1848 44.7153 26.2923 44.751 26.3889C44.7865 26.4844 44.8278 26.5866 44.8952 26.6594C45.0064 26.7791 45.1453 26.8726 45.264 26.986C45.4093 27.1248 45.3583 27.3461 45.4651 27.5015C45.7455 27.9101 45.9007 28.3918 46.2211 28.7793C46.3085 28.8851 46.3478 29.0399 46.3815 29.179C46.4447 29.439 46.4655 29.7111 46.5456 29.9648C46.6167 30.1902 46.6362 30.4134 46.6123 30.6394C46.5946 30.8071 46.6067 30.9668 46.6244 31.1332C46.6902 31.7565 46.655 31.9668 46.4254 32.5906C46.3968 32.6683 46.3536 32.7424 46.3361 32.8224C46.23 33.3056 45.9453 33.6831 45.6202 34.035C45.5085 34.156 45.3761 34.2574 45.2572 34.3723C45.1237 34.5012 45.0803 34.7069 44.8991 34.7962C44.7175 35.077 44.4074 35.2391 44.2276 35.5235C44.1999 35.567 44.1255 35.595 44.0687 35.6037C43.8224 35.6416 43.5766 35.6555 43.3273 35.6037C43.1869 35.5744 43.1163 35.4854 43.0509 35.378C43.0402 35.3604 43.0302 35.341 43.0255 35.3212C42.9682 35.0773 42.8974 34.8452 42.7201 34.6495C42.642 34.5633 42.6163 34.4244 42.5826 34.305C42.5432 34.1655 42.5167 34.0218 42.4933 33.8785C42.4619 33.6868 42.4714 33.5117 42.65 33.375C42.7274 33.3159 42.7655 33.2064 42.8243 33.1219C43.0008 32.8678 43.1655 32.6039 43.3607 32.3651C43.4975 32.1979 43.6016 32.0284 43.6219 31.8137C43.6403 31.6186 43.716 31.4544 43.8644 31.3242C44.047 31.1641 44.1225 30.9612 44.137 30.7187C44.1519 30.4707 44.2187 30.2294 44.3409 30.0092C44.4685 29.7793 44.5127 29.5473 44.4102 29.2926C44.3724 29.1988 44.3838 29.0863 44.3527 28.9886C44.277 28.75 44.2542 28.5027 44.2102 28.2586C44.1598 27.9791 43.8778 27.8432 43.7637 27.5933C43.6623 27.3712 43.4545 27.2648 43.2134 27.2364C43.0903 27.2219 42.9664 27.2295 42.8487 27.1711C42.6303 27.0628 42.4128 27.078 42.1896 27.1771C41.9609 27.2785 41.7232 27.3516 41.4648 27.2951C41.4067 27.2824 41.3365 27.2852 41.2811 27.3058C40.9714 27.4215 40.6226 27.4054 40.334 27.5955C40.2498 27.6511 40.1438 27.6957 40.0448 27.7027C39.7012 27.7272 39.4226 27.9186 39.1178 28.0417C38.9653 28.1034 38.8247 28.1864 38.6647 28.2394C38.4326 28.3164 38.2355 28.4817 37.9936 28.5502C37.9377 28.566 37.8882 28.6167 37.8442 28.6598C37.7111 28.7899 37.5792 28.9216 37.4522 29.0577C37.2519 29.2723 37.224 29.5667 37.3849 29.8022C37.4539 29.9032 37.5669 29.9818 37.6106 30.0905C37.6549 30.2005 37.6168 30.3417 37.6533 30.4572C37.7161 30.6554 37.7666 30.8524 37.7848 31.0603C37.7916 31.1382 37.8297 31.2253 37.8807 31.2852C38.0061 31.4324 38.0507 31.6169 38.1365 31.7817C38.223 31.9479 38.3916 32.0489 38.4627 32.2341C38.5728 32.5208 38.92 32.5829 39.0781 32.8361C39.1184 32.9005 39.2086 32.9339 39.2769 32.9801C39.294 32.9917 39.3143 32.9989 39.3338 33.0054C39.8663 33.1846 40.3359 33.4883 40.8229 33.7574C40.8406 33.7672 40.8586 33.7814 40.8695 33.7981C40.8801 33.8145 40.8896 33.8385 40.8859 33.8562C40.8278 34.1266 40.8881 34.3901 40.9216 34.6568C40.9435 34.8301 40.8734 34.9791 40.7212 35.086C40.6203 35.157 40.504 35.2285 40.4433 35.3292C40.3426 35.496 40.1698 35.5876 40.0636 35.7353C39.9126 35.9449 39.6625 36.0317 39.5115 36.2339C39.4043 36.3777 39.2671 36.4386 39.0784 36.4145C38.8389 36.3841 38.6293 36.4705 38.4593 36.646C38.4304 36.6758 38.4031 36.7115 38.3675 36.7296C38.2956 36.7663 38.2169 36.8226 38.1439 36.8184C37.8893 36.8039 37.6468 36.8253 37.4222 36.9562C37.1859 36.9569 36.974 37.0291 36.7821 37.1666C36.7498 37.1899 36.705 37.1952 36.6666 37.2105C36.3042 37.3559 35.9251 37.4579 35.5888 37.6714C35.3961 37.7937 35.1654 37.8527 34.9356 37.8493C34.6864 37.8454 34.4398 37.9053 34.1968 37.8914C33.9312 37.8761 33.6644 37.9158 33.3969 37.8522C33.1781 37.8003 32.9442 37.7867 32.7183 37.7951C32.4037 37.8068 32.1062 37.7118 31.7988 37.6828C31.6561 37.6693 31.5174 37.6405 31.3699 37.6395C31.0824 37.638 30.7902 37.6247 30.5098 37.5676C30.3581 37.5367 30.2248 37.4084 30.0869 37.3183C30.0013 37.2623 29.9161 37.2025 29.8422 37.1323C29.7347 37.0301 29.6214 36.9391 29.4753 36.9063C29.2735 36.8612 29.1621 36.7279 29.0761 36.5508C29.0222 36.44 28.9325 36.3477 28.9217 36.2155C28.9113 36.0861 28.8471 35.9767 28.7647 35.8825C28.6676 35.7713 28.5937 35.6516 28.5389 35.5134C28.5017 35.4196 28.4405 35.3265 28.3667 35.2585C28.2617 35.1617 28.2386 35.0587 28.2597 34.9248C28.2756 34.8237 28.275 34.7177 28.2653 34.6155C28.2436 34.3859 28.2486 34.1518 28.3221 33.9401C28.3856 33.7574 28.4095 33.5813 28.4143 33.3933C28.4201 33.1685 28.5031 32.9908 28.7463 32.9286C28.8059 32.9133 28.8609 32.8801 28.918 32.8554C29.155 32.7529 29.3587 32.3658 29.2117 32.059C29.0612 31.7451 28.7664 31.5884 28.4479 31.6865C28.3299 31.7228 28.2216 31.8085 28.1031 31.8221C27.7771 31.8595 27.5773 32.0418 27.4409 32.322C27.4144 32.3766 27.3724 32.4267 27.3284 32.4692C27.202 32.5907 27.1475 32.742 27.118 32.9105C27.1004 33.0117 27.0696 33.1139 27.0257 33.2066C26.9424 33.3828 26.9124 33.5606 26.9575 33.7513C26.9717 33.8112 26.9992 33.8824 26.9802 33.9334C26.8817 34.1981 27.0208 34.4708 26.9435 34.7356C26.9276 34.7906 26.9408 34.8638 26.9641 34.9187C27.0886 35.2117 27.1228 35.5152 27.1119 35.8314C27.1061 35.9986 27.1583 36.164 27.2828 36.2875C27.4187 36.4222 27.5041 36.5845 27.5859 36.7541C27.6806 36.9508 27.9177 36.9996 28.043 37.168C28.0554 37.1847 28.0636 37.2052 28.0783 37.2194C28.2901 37.424 28.453 37.6581 28.5589 37.9367C28.6355 38.1385 28.7834 38.2897 28.9976 38.3492C29.205 38.4068 29.3525 38.5608 29.5349 38.6573C29.7236 38.7568 29.9412 38.6871 30.1408 38.7756C30.3044 38.8481 30.5109 38.8177 30.6853 38.8737C30.882 38.9368 31.1024 38.9221 31.2781 39.0514C31.5046 39.0712 31.731 39.0908 31.9575 39.1114C31.9779 39.1133 31.9976 39.1228 32.018 39.1261C32.4671 39.1987 32.9228 39.207 33.3737 39.2692C33.5519 39.2939 33.7408 39.2357 33.9238 39.3031C33.978 39.3231 34.0515 39.3178 34.1082 39.2994C34.3068 39.2347 34.5075 39.1996 34.7171 39.196C34.7953 39.1948 34.8781 39.1572 34.9495 39.1188C35.0785 39.0495 35.2163 39.0091 35.3517 38.9583C35.7628 38.8044 36.1897 38.7277 36.6195 38.6666C36.7859 38.6431 36.9451 38.6139 37.1001 38.549C37.194 38.5096 37.2972 38.4931 37.3943 38.4608C37.6877 38.3632 37.9979 38.2967 38.2676 38.1538C38.5138 38.0233 38.7586 37.9457 39.0291 37.9073C39.1696 37.8874 39.3317 37.8543 39.4341 37.7678C39.6328 37.5999 39.8724 37.5272 40.1005 37.4447C40.3604 37.3508 40.6043 37.2607 40.7776 37.0321C40.8119 36.9867 40.8823 36.9689 40.9357 36.9377C41.0632 36.8629 41.1748 36.7693 41.2506 36.6416C41.3056 36.5492 41.381 36.4844 41.469 36.4261C41.6717 36.2917 41.7724 36.0908 41.817 35.8583C41.8281 35.8002 41.8528 35.7832 41.9051 35.8093C41.9221 35.8178 41.9489 35.8196 41.9562 35.8328C42.0369 35.9778 42.1215 36.1206 42.1225 36.2961C42.1232 36.447 42.1802 36.5815 42.2809 36.6931C42.3703 36.7924 42.3937 36.9016 42.3918 37.0347C42.3879 37.3236 42.365 37.6164 42.4535 37.8991C42.5815 38.3077 42.5629 38.717 42.4508 39.123C42.417 39.2455 42.3819 39.3668 42.4074 39.4896C42.4632 39.7577 42.4032 40.0257 42.4123 40.294C42.419 40.4939 42.4085 40.7068 42.3332 40.9078C42.291 41.0204 42.2826 41.151 42.2834 41.2734C42.2851 41.5842 42.2876 41.8926 42.1869 42.1932C42.1151 42.4074 42.1774 42.6064 42.3012 42.7826C42.3597 42.8659 42.4479 42.9282 42.5226 43.0001C42.4363 43.1946 42.2804 43.2837 42.0755 43.2612C41.9513 43.2477 41.8351 43.2221 41.7092 43.2653C41.4804 43.3438 41.2597 43.3213 41.0577 43.1752C40.8907 43.0543 40.71 43.0527 40.5246 43.1262C40.3846 43.1818 40.2371 43.2055 40.0979 43.1528C39.816 43.046 39.5265 43.0587 39.2361 43.0713C39.0272 43.0804 38.8234 43.078 38.6213 43.0054C38.4207 42.9335 38.2147 42.9402 38.01 43.0106C37.9329 43.037 37.8372 43.0702 37.7677 43.0471C37.5038 42.9592 37.2299 43.0944 36.9682 42.9962C36.9159 42.9766 36.8427 42.9881 36.787 43.0076C36.6008 43.0726 36.4215 43.0668 36.2403 42.9908C36.0831 42.9249 35.9156 42.9266 35.7489 42.9296C35.4997 42.934 35.2503 42.9346 35.0012 42.944C34.7303 42.9541 34.4646 42.955 34.2009 42.8628C34.0454 42.8085 33.8733 42.8183 33.7075 42.8576C33.5866 42.8864 33.4645 42.9135 33.3414 42.9291C33.1937 42.9478 33.0628 42.9961 32.9371 43.078C32.7433 43.2044 32.5301 43.2776 32.2919 43.26C32.2314 43.2555 32.1671 43.2626 32.1086 43.2789C31.8131 43.3611 31.5345 43.3294 31.2669 43.177C31.0992 43.0814 30.9126 43.0677 30.7231 43.0671C30.5361 43.0665 30.3424 43.0863 30.1639 43.0448C29.785 42.9569 29.4224 43.0267 29.0631 43.1195C28.8735 43.1685 28.7043 43.1587 28.5155 43.1163C28.1075 43.0245 27.692 43.0044 27.2847 43.1328C27.1185 43.1852 26.9632 43.1723 26.7963 43.1317C26.6371 43.093 26.4611 43.0552 26.3053 43.0847C25.8476 43.1718 25.3989 43.0504 24.9459 43.0607C24.8432 43.063 24.7349 43.0543 24.6378 43.0234C24.3301 42.9254 24.0287 42.9184 23.7206 43.0243C23.6485 43.0491 23.5563 43.0303 23.4765 43.0151C23.3546 42.9919 23.2358 42.9525 23.1149 42.9233C22.9345 42.88 22.7544 42.8096 22.5694 42.9063C22.2451 42.8466 21.915 42.9883 21.5866 42.862C21.4601 42.8133 21.292 42.82 21.1578 42.8567C20.9542 42.9124 20.7505 42.9251 20.5444 42.9472C20.3407 42.9692 20.1428 43.0555 19.9338 42.9825C19.6062 43.0279 19.278 43.069 18.9515 43.1212C18.846 43.1381 18.7471 43.1439 18.6461 43.108C18.4819 43.0495 18.3244 43.0652 18.1607 43.128C18.0471 43.1715 17.9192 43.179 17.7975 43.2002C17.6756 43.2216 17.5492 43.2272 17.4318 43.2628C17.2461 43.3193 17.0663 43.3177 16.8795 43.2733C16.4295 43.166 15.9776 43.1521 15.5245 43.2608C15.4647 43.2751 15.3899 43.3001 15.342 43.2776C15.102 43.1651 14.8477 43.3263 14.6082 43.2283C14.5542 43.2063 14.4785 43.2002 14.4253 43.2204C14.1662 43.3181 13.9274 43.2383 13.7079 43.123C13.4191 42.9711 13.1172 42.9407 12.8023 42.9474C12.6362 42.951 12.4698 42.9493 12.3038 42.9449C12.0747 42.9388 11.849 42.9358 11.6303 43.0312C11.475 43.0988 11.3054 43.0922 11.1388 43.0668C11.05 43.0532 10.9907 43.0001 10.9492 42.9237C10.9876 42.8751 11.0246 42.8253 11.0649 42.7782C11.1797 42.6443 11.2189 42.4857 11.2102 42.3148C11.206 42.2327 11.2008 42.1439 11.1674 42.0715C11.1106 41.9481 11.1426 41.8413 11.1655 41.7172C11.2103 41.4745 11.2225 41.225 11.2341 40.9776C11.2397 40.8555 11.2358 40.7246 11.1971 40.6108C11.1346 40.4274 11.0978 40.2626 11.2025 40.0777C11.2737 39.9519 11.2884 39.8035 11.2404 39.6539C11.2156 39.5762 11.2194 39.4898 11.2069 39.4078C11.1627 39.1161 11.1459 38.8339 11.341 38.5752C11.3984 38.499 11.3993 38.3798 11.4243 38.2799C11.4441 38.2001 11.4438 38.1099 11.4825 38.0416C11.5802 37.8694 11.594 37.6884 11.5804 37.4989C11.5607 37.2278 11.5766 36.9648 11.6828 36.7056C11.7271 36.5974 11.6996 36.4606 11.7076 36.3368C11.718 36.1718 11.6979 35.9948 11.7516 35.8449C11.8227 35.6459 11.885 35.4565 11.8713 35.2416C11.8665 35.1662 11.9137 35.0854 11.945 35.0103C11.9844 34.9154 12.0296 34.8226 12.0762 34.7308C12.1973 34.4922 12.3042 34.245 12.5051 34.0553C12.5646 33.9991 12.6364 33.9303 12.6506 33.8571C12.6972 33.6179 12.919 33.4841 12.9889 33.2684C13.061 33.046 13.2043 32.8651 13.3226 32.6753C13.487 32.4116 13.6427 32.1512 13.7591 31.8606C13.8678 31.5897 14.0494 31.3645 14.3263 31.2262C14.4332 31.1728 14.53 31.0815 14.6052 30.9868C14.6979 30.8701 14.805 30.778 14.928 30.6984C14.9798 30.6648 15.0227 30.6177 15.0711 30.5785C15.1234 30.5362 15.1755 30.546 15.2212 30.5955C15.448 30.841 15.5794 31.1491 15.7594 31.4252C15.8724 31.5984 15.8744 31.8205 15.9175 32.0234C15.9381 32.1203 15.991 32.2208 16.0568 32.2951C16.1567 32.408 16.1979 32.5478 16.2724 32.671C16.3576 32.8119 16.4893 32.9338 16.54 33.0846C16.6167 33.3123 16.8386 33.4357 16.907 33.6566C16.9806 33.8947 17.1679 34.021 17.3505 34.1593C17.3966 34.1941 17.4248 34.2588 17.4487 34.3152C17.4808 34.3912 17.5091 34.4708 17.5245 34.5515C17.5572 34.7227 17.6363 34.8647 17.7728 34.9705C17.9618 35.1169 18.0769 35.3164 18.1429 35.5349C18.2067 35.7457 18.3143 35.9074 18.4942 36.03C18.5615 36.0757 18.6278 36.1314 18.6748 36.1966C18.7617 36.3174 18.8702 36.4045 18.9932 36.4874C19.129 36.5789 19.2365 36.7114 19.369 36.8089C19.4503 36.8687 19.5525 36.9221 19.6504 36.9333C19.8943 36.9615 20.0754 37.0823 20.2304 37.2596C20.3281 37.3714 20.4442 37.4502 20.5909 37.492C20.7092 37.5259 20.8188 37.5893 20.9344 37.6344C21.0296 37.6715 21.1273 37.7258 21.225 37.7282C21.4137 37.7329 21.5924 37.7697 21.7742 37.8139C21.9384 37.8538 22.1153 37.844 22.2524 37.7346C22.4674 37.5632 22.7837 37.5783 22.9607 37.3642C23.1305 37.1588 23.2593 36.9193 23.406 36.6947C23.5073 36.5395 23.6268 36.3931 23.7047 36.2271C23.8029 36.0178 23.9031 35.8202 24.0883 35.6707C24.2783 35.5174 24.3642 35.305 24.3493 35.064C24.3382 34.8875 24.3777 34.715 24.4829 34.5969C24.7164 34.335 24.7334 33.9868 24.8869 33.6932C25.009 33.4601 24.891 33.1556 25.0307 32.9069C25.0489 32.8743 25.0414 32.825 25.0393 32.7838C25.0361 32.7217 25.0416 32.6536 25.0182 32.5992C24.9358 32.4083 24.9996 32.2337 25.0631 32.0582C25.0981 31.9615 25.1733 31.8669 25.1722 31.772C25.169 31.4978 25.2941 31.2467 25.2988 30.9798C25.303 30.7399 25.3887 30.5373 25.4992 30.3357C25.5585 30.2273 25.6511 30.1157 25.6548 30.0031C25.6626 29.7663 25.79 29.5681 25.822 29.3457C25.8583 29.0933 25.9451 28.8595 26.064 28.6434C26.1686 28.4533 26.2374 28.2683 26.2045 28.0531C26.188 27.9445 26.2137 27.8474 26.2715 27.7575C26.3161 27.6879 26.3631 27.6195 26.4127 27.5534C26.5318 27.3949 26.5761 27.2142 26.5444 27.0235C26.5101 26.8168 26.5171 26.6122 26.5254 26.4051C26.5441 25.9297 26.5566 25.454 26.5657 24.9783C26.568 24.8552 26.5756 24.7211 26.5333 24.6101C26.4427 24.3717 26.413 24.128 26.4138 23.8785C26.4143 23.7304 26.3804 23.5963 26.3283 23.4568C26.1831 23.0686 26.0398 22.677 26.0952 22.248C26.1052 22.171 25.8494 21.3027 25.8087 21.243C25.7737 21.1919 25.7333 21.1444 25.6959 21.0949C25.6461 21.0291 25.5861 20.9684 25.5493 20.8959C25.3907 20.5835 25.2233 20.2738 25.0912 19.9501C25.0224 19.7814 25.0212 19.5854 24.9875 19.4022C24.98 19.3616 24.9644 19.3224 24.9517 19.2829C24.8571 18.9875 24.5629 18.7554 24.2478 18.7568C23.6366 18.7596 23.3133 19.3887 23.5071 19.7899C23.5517 19.8822 23.6067 19.9706 23.6639 20.056C23.756 20.1933 23.8687 20.3186 23.9469 20.463C24.162 20.86 24.4323 21.2374 24.4382 21.7175C24.4387 21.7582 24.442 21.8071 24.4638 21.8381C24.6341 22.0797 24.6386 22.395 24.8069 22.6313C25.0099 22.9163 25.0602 23.2453 25.0848 23.5698C25.1025 23.802 25.1154 24.0179 25.2343 24.2248C25.283 24.3095 25.3099 24.425 25.2999 24.5218C25.2614 24.8967 25.3088 25.2636 25.3603 25.6329C25.4104 25.9915 25.335 26.3379 25.171 26.6528C25.0591 26.8679 25.0226 27.0773 25.0505 27.3119C25.065 27.4335 25.0491 27.5588 25.0469 27.6824C24.8841 27.8939 24.9038 28.1527 24.8585 28.3954C24.8435 28.4756 24.8226 28.5745 24.7677 28.6239C24.5263 28.8411 24.5136 29.1918 24.287 29.4161C24.1955 29.5064 24.1564 29.6344 24.1639 29.7605C24.179 30.0145 24.1061 30.2536 24.063 30.4978C23.8993 30.7235 23.9469 31.02 23.8035 31.2563C23.692 31.4402 23.6696 31.6442 23.7487 31.8561C23.8011 31.9966 23.7938 32.1442 23.7217 32.2792C23.6335 32.4447 23.5277 32.6051 23.5497 32.803C23.5716 33.0011 23.4 33.154 23.4216 33.3416C23.4556 33.6396 23.2962 33.9081 23.3165 34.203C23.3254 34.3314 23.2608 34.44 23.1592 34.5271C22.9746 34.6854 22.8864 34.8891 22.8942 35.1335C22.8976 35.2394 22.8777 35.3417 22.8173 35.4302C22.6312 35.7028 22.4455 35.9758 22.252 36.243C22.2206 36.2864 22.153 36.3181 22.0978 36.3263C21.9959 36.3415 21.8836 36.3126 21.7883 36.3422C21.5056 36.4304 21.2587 36.3619 21.0167 36.2168C20.9471 36.1751 20.8586 36.1659 20.7854 36.1287C20.6555 36.0627 20.5227 35.9905 20.4492 35.8597C20.3524 35.6874 20.2045 35.5856 20.0359 35.496C19.5834 35.2552 19.301 34.8394 18.9915 34.4541C18.9431 34.394 18.9372 34.3 18.9103 34.2223C18.8621 34.0822 18.794 33.9489 18.67 33.8666C18.4416 33.7152 18.338 33.5045 18.3233 33.2386C18.3211 33.1985 18.3107 33.151 18.2865 33.1211C18.1029 32.8942 18.0051 32.6146 17.8354 32.3822C17.7268 32.2332 17.602 32.0971 17.4955 31.9427C17.3781 31.7726 17.2449 31.6139 17.1539 31.426C16.8481 31.1986 16.7766 30.843 16.6574 30.5142C16.6295 30.4371 16.6034 30.3563 16.5959 30.2754C16.58 30.1022 16.5023 29.9644 16.3996 29.8272C16.2613 29.6424 16.1715 29.4343 16.1898 29.1912C16.1993 29.0632 16.1522 28.9443 16.0767 28.8416C15.9894 28.7228 15.9456 28.5869 15.8889 28.4536C15.8166 28.2838 15.7015 28.1322 15.6067 27.9718C15.4954 27.7833 15.5718 27.5585 15.4939 27.3647C15.4166 27.1722 15.332 26.9849 15.3149 26.7724C15.3086 26.6951 15.2676 26.6077 15.2151 26.5495C14.8994 26.1988 14.7685 25.7634 14.6322 25.3282C14.5955 25.2109 14.5409 25.0986 14.488 24.9871C14.3993 24.8001 14.2949 24.62 14.2175 24.4286C14.164 24.2964 14.1606 24.1488 14.0872 24.0169C13.9453 23.7619 13.8503 23.4897 13.8486 23.1907C13.8478 23.0413 13.7957 22.9024 13.6931 22.7924C13.5904 22.6822 13.5016 22.548 13.496 22.4122C13.4846 22.1384 13.3761 21.8878 13.3505 21.6217C13.3321 21.4286 13.2853 21.2593 13.1545 21.1102C12.9964 20.9303 12.9435 20.7104 12.9508 20.4739C12.9632 20.0814 12.9565 19.6887 12.9654 19.296C12.9711 19.0421 13.0695 18.811 13.0887 18.5631C13.0932 18.5052 13.1277 18.4428 13.1651 18.3957C13.3061 18.2185 13.4328 18.0214 13.6045 17.8797C13.8072 17.7122 13.9308 17.5235 14.007 17.2729C14.0994 16.9695 14.2796 16.7154 14.5813 16.569C14.734 16.495 14.8428 16.3745 14.938 16.2316C15.0405 16.0774 15.1644 15.9296 15.3519 15.872C15.6081 15.7933 15.7751 15.6248 15.8956 15.3924C15.9741 15.2411 16.0971 15.1327 16.2633 15.0743C16.4234 15.0179 16.5517 14.9171 16.6601 14.7835C16.7234 14.7053 16.8174 14.6529 16.8876 14.5794C17.0754 14.383 17.339 14.2818 17.5247 14.0937C17.8464 13.7681 18.222 13.5112 18.5631 13.2116C18.6633 13.1234 18.7767 13.0819 18.8991 13.0683C19.148 13.0408 19.393 13.0983 19.6396 13.1225C19.8527 13.1432 20.0457 13.2111 20.1987 13.363C20.4161 13.5788 20.7109 13.6309 20.98 13.7282C21.2383 13.8217 21.5336 13.696 21.6948 13.4727C21.731 13.4224 21.7589 13.3662 21.7909 13.3129C21.9292 13.0812 22.082 12.8632 22.3167 12.7159C22.482 12.6121 22.6061 12.4616 22.6423 12.2754C22.6855 12.0524 22.7935 11.8999 22.9813 11.7809C23.0653 11.7276 23.121 11.6307 23.1929 11.557C23.4952 11.2477 23.7492 10.8833 24.1651 10.7033C24.2405 10.6707 24.3121 10.6258 24.3905 10.6047C24.5765 10.5546 24.7123 10.4207 24.8732 10.3345C25.1131 10.2059 25.3413 10.0811 25.5222 9.8699C25.7211 9.63751 26.0547 9.65733 26.2938 9.49112C26.3599 9.44507 26.4425 9.41823 26.5213 9.39623C26.5798 9.37984 26.6446 9.38218 26.7067 9.38202C26.7898 9.38171 26.8731 9.39388 26.9557 9.38889C27.1824 9.37531 27.3385 9.25482 27.4517 9.06145C27.5289 8.92941 27.5238 8.78192 27.5558 8.6413C27.8227 8.63647 28.0894 8.63163 28.3563 8.62679C28.5005 8.62414 28.645 8.62523 28.7792 8.68719C28.9532 8.76741 29.1387 8.76663 29.3231 8.76694C29.6721 8.76757 30.0211 8.76273 30.3701 8.76023C30.3688 8.92145 30.3289 9.07971 30.3763 9.24421C30.4715 9.57415 30.7465 9.78765 31.0992 9.78531C31.4495 9.78313 31.7316 9.56369 31.8073 9.22923C31.834 9.11155 31.8496 8.99122 31.8702 8.87213C32.0316 8.87557 32.1963 8.86324 32.348 8.93222C32.5395 9.01931 32.7399 9.01993 32.9428 9.00792C32.8725 9.31163 32.8927 9.62456 32.8474 9.93249C32.7992 10.2604 33.1027 10.5672 33.4478 10.6055C33.7426 10.6381 34.0768 10.3943 34.1412 10.0962C34.1542 10.036 34.1519 9.97244 34.1603 9.91095C34.1998 9.62269 34.2567 9.34082 34.4623 9.11561L34.4631 9.11592ZM32.9673 30.7411C32.9083 30.7368 32.991 30.7477 33.0739 30.748C33.2688 30.7488 33.4491 30.6943 33.5758 30.5421C33.6966 30.3971 33.8269 30.2701 33.9866 30.1679C34.0531 30.1253 34.1133 30.0538 34.1464 29.9818C34.2174 29.8275 34.3189 29.7009 34.4356 29.5809C34.5612 29.4517 34.5797 29.2873 34.5605 29.1164C34.5157 28.717 34.061 28.4853 33.7184 28.6908C33.5422 28.7965 33.3887 28.9352 33.1895 29.009C33.0995 29.0424 33.0331 29.1405 32.9565 29.2097C32.9111 29.2508 32.8685 29.2953 32.821 29.3338C32.757 29.3858 32.5807 29.3622 32.5374 29.2909C32.4628 29.1676 32.409 29.0301 32.3239 28.9152C32.1263 28.6482 31.9328 28.3815 31.8373 28.0572C31.8258 28.0181 31.8009 27.9826 31.7796 27.9471C31.6394 27.715 31.2311 27.5003 30.9077 27.6779C30.708 27.7876 30.5065 27.8897 30.2937 27.9732C30.2021 28.0092 30.1247 28.0892 30.0503 28.1591C29.9908 28.2149 29.9465 28.287 29.8934 28.3501C29.8574 28.393 29.7634 28.3776 29.7436 28.3233C29.7085 28.227 29.674 28.1299 29.649 28.0306C29.624 27.9311 29.6236 27.8241 29.5903 27.728C29.4987 27.4638 29.2463 27.281 28.9709 27.2883C28.7059 27.2954 28.4919 27.4065 28.36 27.6498C28.2982 27.7637 28.2703 27.8883 28.2931 28.0108C28.3533 28.3343 28.3154 28.6749 28.4602 28.9836C28.4565 29.4022 28.6743 29.6803 29.0188 29.886C29.1057 29.938 29.1655 30.0346 29.2515 30.0892C29.4995 30.247 29.7709 30.2796 30.0116 30.1017C30.3076 29.8829 30.6641 29.7482 30.908 29.4568C30.9421 29.4162 30.9897 29.4323 31.0037 29.4777C31.1195 29.8545 31.4861 30.0349 31.6845 30.3472C31.7054 30.3801 31.7448 30.4099 31.7819 30.4226C31.9793 30.4892 32.1621 30.5816 32.3344 30.6993C32.382 30.7318 32.4535 30.7357 32.515 30.7393C32.6181 30.7455 32.7219 30.741 32.9673 30.741V30.7411ZM33.7852 20.644C33.7181 20.4318 33.7598 20.2052 33.7648 19.9787C33.7703 19.733 33.5713 19.5742 33.4887 19.365C33.4659 19.3073 33.448 19.2477 33.4271 19.1891C33.3432 18.9555 33.1681 18.8216 32.9393 18.751C32.802 18.7086 32.6628 18.6713 32.5232 18.637C32.2347 18.5659 31.9834 18.6374 31.8034 18.8742C31.6789 19.0382 31.5604 19.2066 31.4317 19.3681C31.37 19.4454 31.3219 19.5534 31.3154 19.6505C31.3003 19.8776 31.2639 20.1004 31.2361 20.325C31.2115 20.525 31.2733 20.7341 31.2177 20.9378C31.2979 21.2429 31.2765 21.5527 31.2634 21.8626C31.2609 21.9237 31.2717 21.9875 31.2889 22.0465C31.3404 22.2246 31.3897 22.4006 31.4151 22.5868C31.4426 22.7877 31.5356 22.975 31.5756 23.1791C31.6327 23.4721 31.8476 23.6333 32.144 23.6729C32.2873 23.6921 32.4316 23.7032 32.576 23.7121C32.9153 23.7329 33.183 23.5551 33.2769 23.2238C33.3166 23.0838 33.339 22.943 33.4381 22.8283C33.5226 22.7306 33.56 22.6105 33.566 22.4849C33.5728 22.3376 33.6154 22.2018 33.6641 22.0649C33.6916 21.9878 33.7239 21.9004 33.7125 21.8239C33.6844 21.6346 33.7397 21.4559 33.7492 21.2729C33.7598 21.0681 33.7267 20.8611 33.7857 20.6437L33.7852 20.644ZM38.792 22.2196C38.8509 22.2196 38.9548 22.226 39.0578 22.2183C39.3244 22.1987 39.5262 22.0777 39.6528 21.8341C39.7572 21.6331 39.9047 21.4481 39.9732 21.2365C40.0419 21.0242 40.033 20.7876 40.064 20.5626C40.0839 20.4198 40.1182 20.2788 40.1397 20.1362C40.1647 19.9697 40.163 19.8033 40.0768 19.6517C40.0036 19.5233 39.964 19.3864 39.9393 19.2416C39.9256 19.161 39.9086 19.0675 39.8588 19.0095C39.7094 18.8355 39.6 18.6357 39.4677 18.4512C39.4441 18.4184 39.4098 18.3905 39.3747 18.3698C39.2145 18.2752 39.0556 18.1775 38.8899 18.0935C38.7327 18.0139 38.5707 18.0292 38.4082 18.0963C38.2439 18.1641 38.1365 18.285 38.0693 18.4415C38.0121 18.5742 37.9333 18.7114 37.9274 18.8492C37.9148 19.1411 37.7863 19.4123 37.7918 19.7017C37.7966 19.959 37.7406 20.1947 37.6165 20.4166C37.5083 20.6102 37.4941 20.8157 37.5716 21.0167C37.6248 21.155 37.6594 21.2894 37.6582 21.4378C37.6561 21.6652 37.7726 21.8305 37.9583 21.9508C38.0101 21.9844 38.0733 22.0041 38.1178 22.0446C38.2989 22.2098 38.5056 22.2781 38.7925 22.2196H38.792Z" fill="#FCFCFC"/>
<path d="M42.5237 43.0009C42.4489 42.9291 42.3607 42.8667 42.3022 42.7833C42.1784 42.6071 42.1162 42.4081 42.188 42.194C42.2886 41.8933 42.2863 41.5849 42.2844 41.2741C42.2836 41.1518 42.2921 41.0213 42.3342 40.9086C42.4096 40.7076 42.42 40.4947 42.4133 40.2948C42.4043 40.0265 42.4642 39.7587 42.4085 39.4904C42.3829 39.3675 42.418 39.2464 42.4519 39.1238C42.5641 38.7177 42.5827 38.3084 42.4545 37.8998C42.366 37.6172 42.389 37.3246 42.3929 37.0355C42.3948 36.9024 42.3713 36.793 42.2819 36.6939C42.1812 36.5823 42.1243 36.4478 42.1235 36.2968C42.1226 36.1214 42.038 35.9786 41.9573 35.8336C41.9499 35.8203 41.9233 35.8185 41.9061 35.81C41.8538 35.784 41.8293 35.8008 41.8181 35.859C41.7734 36.0916 41.6728 36.2925 41.47 36.4268C41.3822 36.4852 41.3066 36.5501 41.2517 36.6424C41.1758 36.77 41.0642 36.8637 40.9367 36.9384C40.8834 36.9697 40.813 36.9874 40.7786 37.0329C40.6054 37.2615 40.3615 37.3516 40.1016 37.4455C39.8736 37.5279 39.634 37.6007 39.4352 37.7686C39.3329 37.855 39.1706 37.8881 39.0302 37.9081C38.7597 37.9465 38.5148 38.0241 38.2687 38.1546C37.999 38.2975 37.6887 38.364 37.3953 38.4615C37.2981 38.4939 37.1951 38.5104 37.1011 38.5497C36.946 38.6147 36.7868 38.6437 36.6206 38.6674C36.1907 38.7284 35.7639 38.8052 35.3528 38.9591C35.2171 39.0098 35.0795 39.0504 34.9506 39.1195C34.8791 39.1579 34.7964 39.1956 34.7182 39.1968C34.5086 39.2004 34.3079 39.2354 34.1092 39.3001C34.0525 39.3185 33.979 39.3238 33.9249 39.3039C33.7418 39.2364 33.5529 39.2947 33.3747 39.27C32.924 39.2077 32.4681 39.1995 32.0191 39.1269C31.9986 39.1236 31.979 39.1139 31.9585 39.1122C31.7321 39.0916 31.5056 39.0719 31.2791 39.0521C31.1032 38.9231 30.883 38.9376 30.6864 38.8745C30.5119 38.8186 30.3056 38.8489 30.1418 38.7763C29.9421 38.6878 29.7245 38.7575 29.536 38.658C29.3534 38.5617 29.206 38.4077 28.9986 38.35C28.7845 38.2905 28.6367 38.1393 28.5599 37.9375C28.4542 37.6589 28.2911 37.4248 28.0793 37.2201C28.0647 37.2061 28.0566 37.1855 28.0441 37.1688C27.9187 37.0002 27.6817 36.9515 27.5869 36.7549C27.5051 36.5854 27.4198 36.4229 27.2838 36.2882C27.1593 36.1648 27.1072 35.9994 27.1129 35.8322C27.1239 35.516 27.0897 35.2124 26.9651 34.9195C26.9419 34.8647 26.9285 34.7914 26.9445 34.7364C27.0216 34.4716 26.8827 34.1989 26.9812 33.9342C27.0003 33.8832 26.9728 33.812 26.9586 33.7521C26.9136 33.5613 26.9436 33.3836 27.0268 33.2074C27.0706 33.1147 27.1012 33.0126 27.119 32.9113C27.1485 32.7427 27.203 32.5915 27.3294 32.4699C27.3736 32.4275 27.4154 32.3774 27.4419 32.3228C27.5783 32.0426 27.7781 31.8603 28.1042 31.8229C28.2226 31.8093 28.3309 31.7234 28.4489 31.6872C28.7676 31.5891 29.0623 31.7459 29.2127 32.0598C29.3599 32.3668 29.1561 32.7537 28.919 32.8562C28.8619 32.881 28.8068 32.9143 28.7473 32.9294C28.5042 32.9915 28.4211 33.1694 28.4154 33.394C28.4105 33.5819 28.3866 33.7582 28.3231 33.9409C28.2496 34.1525 28.2446 34.3867 28.2663 34.6162C28.276 34.7185 28.2765 34.8244 28.2607 34.9256C28.2396 35.0595 28.2627 35.1625 28.3678 35.2593C28.4416 35.3273 28.5028 35.4205 28.5399 35.5141C28.5947 35.6524 28.6687 35.7721 28.7657 35.8832C28.8482 35.9775 28.9123 36.0869 28.9227 36.2163C28.9335 36.3485 29.0233 36.4407 29.0771 36.5515C29.1631 36.7287 29.2745 36.862 29.4763 36.9071C29.6224 36.9398 29.7357 37.0308 29.8433 37.1331C29.9171 37.2033 30.0023 37.2631 30.088 37.3191C30.2258 37.4092 30.3591 37.5374 30.5108 37.5683C30.7911 37.6255 31.0834 37.6386 31.3709 37.6403C31.5184 37.6411 31.6571 37.6699 31.7998 37.6835C32.1072 37.7126 32.4046 37.8076 32.7194 37.7959C32.9452 37.7875 33.1792 37.8012 33.398 37.853C33.6655 37.9165 33.9322 37.8769 34.1978 37.8922C34.4408 37.9061 34.6874 37.8462 34.9367 37.8501C35.1664 37.8536 35.3971 37.7946 35.5899 37.6721C35.926 37.4586 36.3051 37.3567 36.6677 37.2113C36.7059 37.196 36.7507 37.1907 36.7832 37.1674C36.975 37.0299 37.1869 36.9575 37.4232 36.957C37.6478 36.8261 37.8904 36.8047 38.1449 36.8192C38.2178 36.8234 38.2966 36.7672 38.3686 36.7304C38.4042 36.7121 38.4315 36.6765 38.4603 36.6467C38.6303 36.4713 38.8399 36.3848 39.0795 36.4153C39.2682 36.4393 39.4053 36.3783 39.5126 36.2347C39.6635 36.0324 39.9137 35.9457 40.0646 35.7361C40.1709 35.5884 40.3437 35.4968 40.4443 35.33C40.505 35.2293 40.6215 35.1578 40.7223 35.0868C40.8743 34.9797 40.9444 34.8307 40.9227 34.6576C40.8891 34.3907 40.8289 34.1274 40.8869 33.8569C40.8907 33.8393 40.8812 33.8153 40.8706 33.7989C40.8598 33.7822 40.8418 33.768 40.8239 33.7582C40.3369 33.4891 39.8673 33.1854 39.3348 33.0062C39.3151 32.9996 39.2948 32.9923 39.278 32.9809C39.2096 32.9347 39.1194 32.9012 39.0792 32.8369C38.9211 32.5837 38.5736 32.5216 38.4638 32.2349C38.3928 32.0496 38.224 31.9487 38.1376 31.7824C38.0517 31.6176 38.0073 31.4331 37.8818 31.286C37.8307 31.2262 37.7926 31.1391 37.7858 31.0611C37.7677 30.8532 37.7171 30.6562 37.6544 30.458C37.6178 30.3427 37.6559 30.2013 37.6116 30.0912C37.5679 29.9826 37.4549 29.904 37.3859 29.803C37.225 29.5675 37.253 29.2731 37.4532 29.0585C37.5802 28.9224 37.7121 28.7908 37.8453 28.6605C37.8894 28.6174 37.9387 28.5667 37.9946 28.551C38.2364 28.4824 38.4336 28.3172 38.6657 28.2402C38.8257 28.1872 38.9663 28.1041 39.1188 28.0425C39.4234 27.9193 39.7022 27.728 40.0459 27.7035C40.145 27.6965 40.2508 27.6517 40.3351 27.5963C40.6238 27.406 40.9725 27.4221 41.2821 27.3066C41.3374 27.286 41.4076 27.2832 41.4658 27.2958C41.7244 27.3523 41.9621 27.2793 42.1906 27.1778C42.4138 27.0787 42.6314 27.0637 42.8497 27.1719C42.9674 27.2303 43.0913 27.2228 43.2144 27.2371C43.4556 27.2654 43.6635 27.372 43.7648 27.5941C43.8789 27.8441 44.1609 27.98 44.2113 28.2594C44.2553 28.5035 44.2779 28.7507 44.3538 28.9894C44.3848 29.0871 44.3734 29.1996 44.4112 29.2934C44.5138 29.5481 44.4696 29.78 44.3419 30.0099C44.2197 30.2301 44.1529 30.4714 44.1381 30.7194C44.1236 30.9621 44.0479 31.1649 43.8654 31.325C43.717 31.4553 43.6415 31.6195 43.6229 31.8144C43.6026 32.0292 43.4985 32.1988 43.3618 32.3658C43.1664 32.6046 43.0019 32.8687 42.8254 33.1226C42.7665 33.2072 42.7283 33.3166 42.651 33.3758C42.4725 33.5125 42.463 33.6876 42.4943 33.8793C42.5177 34.0225 42.5444 34.1663 42.5836 34.3058C42.6172 34.4252 42.6431 34.5641 42.7211 34.6503C42.8982 34.846 42.9691 35.0781 43.0265 35.322C43.0312 35.3418 43.0412 35.3612 43.052 35.3788C43.1174 35.4862 43.1879 35.5751 43.3284 35.6045C43.5776 35.6565 43.8234 35.6426 44.0697 35.6045C44.1265 35.5957 44.201 35.5678 44.2286 35.5243C44.4084 35.2397 44.7185 35.0776 44.9002 34.797C45.0812 34.7077 45.1246 34.502 45.2582 34.3731C45.377 34.2584 45.5095 34.1568 45.6212 34.0358C45.9463 33.6839 46.231 33.3063 46.3371 32.8231C46.3546 32.7432 46.3979 32.6692 46.4264 32.5914C46.6558 31.9675 46.6913 31.7573 46.6254 31.134C46.6078 30.9677 46.5956 30.8079 46.6134 30.6401C46.6373 30.4141 46.6179 30.191 46.5466 29.9656C46.4664 29.7118 46.4456 29.4398 46.3826 29.1798C46.3488 29.0407 46.3095 28.8859 46.2221 28.7801C45.9018 28.3924 45.7466 27.9109 45.4661 27.5023C45.3594 27.3469 45.4102 27.1256 45.2651 26.9868C45.1463 26.8733 45.0076 26.7799 44.8963 26.6601C44.8289 26.5874 44.7875 26.4852 44.7521 26.3897C44.7162 26.2932 44.7107 26.1855 44.6759 26.0885C44.6486 26.0123 44.6141 25.9183 44.5529 25.8787C44.3482 25.7457 44.2712 25.5299 44.146 25.3404C43.9193 24.9973 43.7183 24.632 43.402 24.3529C43.3279 24.2874 43.287 24.1841 43.2316 24.0974C43.1313 23.9404 43.0548 23.7599 42.9262 23.6313C42.7189 23.4238 42.5192 23.2237 42.4342 22.9306C42.4135 22.8588 42.3428 22.7814 42.2746 22.7471C42.0246 22.6211 41.8423 22.4323 41.6921 22.2013C41.6484 22.134 41.5657 22.0936 41.5106 22.0323C41.3628 21.8676 41.3005 21.6697 41.3467 21.455C41.3865 21.2702 41.4241 21.0924 41.3773 20.9022C41.342 20.7584 41.3773 20.615 41.4135 20.4719C41.5733 19.8432 41.5768 18.7776 41.4202 18.1297C41.3803 17.9643 41.3628 17.8026 41.3979 17.637C41.4426 17.4266 41.4085 17.2403 41.3169 17.0375C41.208 16.7962 41.1818 16.5204 41.1058 16.2621C41.0472 16.0633 40.9608 15.8726 40.9186 15.6717C40.8805 15.4904 40.8913 15.2987 40.7864 15.1337C40.807 14.7976 40.6188 14.4946 40.6372 14.1559C40.6486 13.9457 40.586 13.7445 40.4604 13.5696C40.3204 13.3746 40.2773 13.1619 40.297 12.9217C40.327 12.5565 40.1979 12.2303 39.9837 11.9403C39.8834 11.8044 39.7974 11.6683 39.7621 11.5002C39.735 11.3712 39.6501 11.2844 39.5268 11.2305C39.2989 11.131 39.1216 10.9427 38.8753 10.8686C38.7832 10.8408 38.7166 10.7375 38.6283 10.6861C38.5404 10.6351 38.4357 10.5655 38.3453 10.5746C37.9778 10.6114 37.658 10.435 37.3141 10.372C37.1927 10.3497 37.0768 10.2992 36.9556 10.2738C36.6482 10.2092 36.4985 10.0033 36.4546 9.71179C36.4395 9.61159 36.4639 9.50546 36.4701 9.4023C36.5573 9.3149 36.634 9.21142 36.7346 9.14337C36.8935 9.03584 37.0753 8.98153 37.2654 9.06534C37.5203 9.17787 37.7786 9.20924 38.0533 9.14884C38.1984 9.117 38.3483 9.14837 38.47 9.23686C38.7122 9.41291 38.9716 9.51873 39.2772 9.5192C39.3743 9.5192 39.4826 9.56477 39.5661 9.61939C39.7395 9.73286 39.913 9.83915 40.1033 9.9253C40.2086 9.97306 40.3132 10.0768 40.3633 10.1816C40.4849 10.4358 40.6625 10.6257 40.9004 10.767C41.0496 10.8556 41.137 10.9953 41.2167 11.1427C41.2589 11.2204 41.3249 11.2688 41.4176 11.2585C41.6987 11.2276 41.9496 11.3131 42.1881 11.4512C42.2598 11.4927 42.3286 11.5539 42.4057 11.5683C42.6927 11.6216 42.9029 11.7662 43.025 12.0337C43.2372 12.2099 43.3552 12.4557 43.4937 12.6839C43.6636 12.964 43.7874 13.2726 44.1134 13.4282C44.2241 13.4809 44.286 13.6106 44.3176 13.7322C44.3926 14.0217 44.5578 14.2551 44.7436 14.4812C45.0333 14.8335 45.2309 15.2453 45.468 15.6315C45.4992 15.6823 45.5156 15.7487 45.5193 15.8091C45.5306 15.9962 45.5619 16.1757 45.6233 16.3552C45.6774 16.5139 45.6621 16.6859 45.5875 16.8416C45.51 17.0035 45.5159 17.1582 45.5882 17.3205C45.6852 17.5385 45.6715 17.7589 45.6083 17.9885C45.4976 18.3911 45.475 18.8046 45.5279 19.2189C45.5465 19.365 45.5722 19.5114 45.5182 19.6494C45.4368 19.8574 45.4563 20.0578 45.5357 20.256C45.6088 20.4383 45.6052 20.6117 45.5471 20.801C45.4249 21.1995 45.4146 21.6148 45.4073 22.0284C45.4054 22.1316 45.4321 22.2371 45.4182 22.3377C45.389 22.5494 45.4073 22.7483 45.4931 22.9459C45.5778 23.1406 45.6014 23.342 45.5357 23.5534C45.5057 23.6497 45.5 23.7588 45.5068 23.8604C45.5218 24.0801 45.4681 24.2749 45.3177 24.4338C45.2073 24.5502 45.2278 24.6476 45.3231 24.7565C45.3773 24.8185 45.4402 24.8847 45.4633 24.96C45.5395 25.2094 45.6834 25.401 45.8966 25.5472C46.0973 25.6848 46.1915 25.8866 46.2346 26.1208C46.253 26.2208 46.2752 26.3269 46.3256 26.4126C46.4196 26.5721 46.5464 26.7123 46.6393 26.8722C46.7322 27.0322 46.7521 27.2284 46.8793 27.3748C46.9466 27.4524 46.9953 27.5482 47.0699 27.6167C47.2147 27.7498 47.3151 27.9114 47.3266 28.1008C47.3412 28.3364 47.5014 28.524 47.5096 28.7564C47.7703 29.5135 47.8378 30.0107 47.8729 30.7533C47.8844 30.9986 47.8479 31.2466 47.8289 31.4931C47.802 31.8424 47.7945 32.1938 47.6812 32.5322C47.6422 32.6488 47.6346 32.7758 47.6133 32.8984C47.5993 32.9797 47.6002 33.0666 47.5707 33.1415C47.495 33.3335 47.4193 33.525 47.3488 33.719C47.2798 33.9086 47.1723 34.0923 47.0696 34.2684C46.946 34.48 46.7771 34.6666 46.6476 34.8784C46.5508 35.0365 46.46 35.2017 46.3406 35.3417C46.2206 35.4823 46.0662 35.5909 45.9783 35.7634C45.9424 35.8338 45.875 35.8982 45.8063 35.9394C45.6613 36.0263 45.5432 36.1368 45.4349 36.2651C45.3545 36.3602 45.2514 36.4368 45.1238 36.4602C44.998 36.4833 44.885 36.5323 44.7855 36.6091C44.6628 36.7035 44.523 36.7298 44.3748 36.7232C44.226 36.7165 44.0839 36.7376 43.9572 36.8184C43.9261 36.8382 43.8892 36.8791 43.8884 36.9111C43.8837 37.1176 43.8941 37.3244 43.8879 37.5307C43.8842 37.6536 43.8834 37.7856 43.8383 37.8959C43.7637 38.0784 43.7732 38.2646 43.7783 38.448C43.7858 38.7153 43.8194 38.9822 43.8495 39.2485C43.8639 39.3749 43.8529 39.4941 43.8197 39.6168C43.7875 39.7356 43.7744 39.8596 43.7551 39.9818C43.6939 40.3695 43.6354 40.7575 43.6792 41.1521C43.5901 41.4531 43.688 41.7736 43.5784 42.0754C43.5447 42.1681 43.562 42.2803 43.5608 42.3835C43.555 42.8604 43.086 43.1554 42.7036 43.0502C42.6435 43.0337 42.5835 43.0174 42.5234 43.0011L42.5237 43.0009ZM41.9273 13.2162C41.8824 13.2499 41.8405 13.2673 41.8227 13.2985C41.8042 13.3308 41.7923 13.3842 41.8064 13.4152C41.8839 13.5855 41.8889 13.7748 41.9723 13.9473C42.0608 14.1304 42.0846 14.3434 42.1542 14.5371C42.2037 14.6749 42.2655 14.8082 42.2457 14.9572C42.2228 15.1289 42.2786 15.2881 42.3214 15.4462C42.413 15.7838 42.5137 16.1175 42.5625 16.4664C42.5794 16.5871 42.6222 16.7043 42.6125 16.8304C42.5947 17.0611 42.6359 17.2832 42.7278 17.4946C42.7873 17.6314 42.8015 17.7721 42.7991 17.9195C42.7923 18.3526 42.7882 18.7858 42.7904 19.2189C42.7912 19.383 42.8367 19.5498 42.8177 19.7101C42.7807 20.0197 42.7998 20.3288 42.7952 20.6376C42.7927 20.8053 42.7932 20.9671 42.7283 21.1255C42.6818 21.2393 42.7326 21.3186 42.8346 21.3802C42.9619 21.4573 43.0645 21.5688 43.1142 21.7061C43.1962 21.9319 43.3572 22.0953 43.5338 22.2328C43.7412 22.3945 43.8882 22.5776 43.9311 22.8389C43.9344 22.8584 43.9424 22.8819 43.9564 22.8938C43.9861 22.9189 44.0199 22.9405 44.0546 22.9584C44.1005 22.9825 44.1225 22.9569 44.1532 22.9152C44.2317 22.8084 44.2537 22.6879 44.2553 22.5629C44.257 22.4183 44.2434 22.2733 44.2442 22.1286C44.247 21.6541 44.2487 21.1803 44.1478 20.7124C44.1122 20.5471 44.1195 20.3787 44.2 20.2261C44.3057 20.0258 44.2851 19.8304 44.2188 19.6242C44.1883 19.5297 44.1665 19.4104 44.1972 19.3221C44.2817 19.0791 44.2519 18.8273 44.2743 18.582C44.2945 18.3619 44.3026 18.1302 44.1988 17.9104C44.1158 17.7345 44.1389 17.5435 44.2305 17.3692C44.3296 17.1806 44.3972 16.9994 44.2796 16.7854C44.2336 16.7016 44.2595 16.5812 44.2366 16.4811C44.1726 16.2003 44.1479 15.9035 44.0017 15.6511C43.7749 15.2602 43.5667 14.8527 43.1681 14.5914C42.987 14.4728 42.8923 14.2905 42.8666 14.0695C42.8548 13.9693 42.8263 13.8617 42.7735 13.7775C42.5756 13.4613 42.2448 13.342 41.9276 13.2162H41.9273Z" fill="#070607"/>
<path d="M27.5576 8.64179C27.5256 8.78225 27.5308 8.9299 27.4535 9.06193C27.3404 9.25531 27.1843 9.37579 26.9575 9.38937C26.875 9.39437 26.7916 9.38235 26.7086 9.38251C26.6466 9.38266 26.5819 9.38032 26.5232 9.39671C26.4444 9.41871 26.3618 9.44556 26.2956 9.4916C26.0565 9.65782 25.723 9.638 25.524 9.87039C25.3433 10.0816 25.1149 10.2064 24.875 10.335C24.7141 10.4213 24.5783 10.5551 24.3923 10.6052C24.314 10.6262 24.2423 10.6712 24.167 10.7038C23.751 10.8838 23.4971 11.2482 23.1948 11.5575C23.1228 11.6312 23.0671 11.7281 22.9831 11.7813C22.7952 11.9004 22.6874 12.0529 22.6441 12.2759C22.6081 12.4623 22.484 12.6126 22.3186 12.7164C22.0838 12.8639 21.9309 13.0817 21.7928 13.3133C21.7609 13.3667 21.733 13.4229 21.6966 13.4732C21.5354 13.6965 21.2401 13.8221 20.9818 13.7286C20.7128 13.6313 20.4179 13.5793 20.2005 13.3634C20.0476 13.2116 19.8543 13.1437 19.6415 13.1229C19.3949 13.0989 19.1498 13.0415 18.9009 13.0688C18.7786 13.0822 18.6652 13.1239 18.5649 13.212C18.224 13.5117 17.8484 13.7686 17.5265 14.0942C17.3407 14.2822 17.0771 14.3835 16.8895 14.5799C16.8192 14.6534 16.7253 14.7058 16.6619 14.784C16.5536 14.9176 16.4251 15.0184 16.2652 15.0748C16.099 15.1331 15.976 15.2416 15.8975 15.3928C15.777 15.6252 15.6098 15.7938 15.3537 15.8725C15.1661 15.93 15.0423 16.0778 14.9398 16.232C14.8447 16.375 14.7358 16.4955 14.5832 16.5695C14.2813 16.7157 14.1011 16.97 14.0088 17.2734C13.9325 17.524 13.8091 17.7127 13.6063 17.8802C13.4346 18.0219 13.3079 18.219 13.167 18.3961C13.1295 18.4433 13.0949 18.5057 13.0905 18.5636C13.0713 18.8115 12.973 19.0426 12.9672 19.2965C12.9581 19.6892 12.965 20.0819 12.9527 20.4744C12.9452 20.7109 12.9983 20.9308 13.1564 21.1107C13.2871 21.2596 13.334 21.4289 13.3524 21.6222C13.3778 21.8883 13.4863 22.1389 13.4978 22.4127C13.5035 22.5485 13.5923 22.6827 13.695 22.7929C13.7975 22.9029 13.8496 23.0418 13.8504 23.1912C13.8521 23.4902 13.9472 23.7624 14.089 24.0174C14.1624 24.1494 14.1658 24.2969 14.2194 24.4291C14.2968 24.6205 14.4012 24.8006 14.4898 24.9875C14.5427 25.0991 14.5974 25.2114 14.6341 25.3287C14.7703 25.7638 14.9012 26.1993 15.217 26.55C15.2694 26.6082 15.3105 26.6958 15.3167 26.7729C15.3339 26.9853 15.4185 27.1727 15.4957 27.3651C15.5736 27.559 15.4973 27.7837 15.6086 27.9723C15.7033 28.1327 15.8185 28.2843 15.8907 28.4541C15.9474 28.5874 15.9914 28.7233 16.0785 28.8421C16.1539 28.9448 16.2012 29.0637 16.1917 29.1917C16.1734 29.4348 16.2633 29.6427 16.4014 29.8277C16.5041 29.9648 16.5817 30.1027 16.5978 30.2759C16.6052 30.3567 16.6313 30.4376 16.6592 30.5147C16.7785 30.8435 16.85 31.1991 17.1557 31.4265C17.2467 31.6144 17.38 31.7733 17.4973 31.9432C17.6039 32.0976 17.7286 32.2337 17.8373 32.3827C18.0068 32.6153 18.1048 32.8946 18.2883 33.1216C18.3125 33.1515 18.323 33.199 18.3252 33.2391C18.3398 33.505 18.4435 33.7157 18.6718 33.8671C18.7959 33.9494 18.8639 34.0827 18.9121 34.2228C18.939 34.3007 18.9449 34.3945 18.9933 34.4546C19.3028 34.8399 19.5853 35.2558 20.0377 35.4965C20.2063 35.5861 20.3542 35.6879 20.451 35.8602C20.5244 35.991 20.6573 36.0632 20.7872 36.1292C20.8604 36.1664 20.9489 36.1756 21.0185 36.2173C21.2606 36.3622 21.5075 36.4308 21.7901 36.3427C21.8855 36.3131 21.9977 36.342 22.0996 36.3268C22.1547 36.3185 22.2224 36.2869 22.2538 36.2435C22.4473 35.9761 22.6331 35.7032 22.8191 35.4307C22.8795 35.3422 22.8993 35.2399 22.896 35.134C22.8882 34.8895 22.9764 34.686 23.1611 34.5276C23.2625 34.4405 23.3271 34.3319 23.3184 34.2035C23.2979 33.9088 23.4574 33.64 23.4234 33.3421C23.4019 33.1545 23.5734 33.0015 23.5515 32.8035C23.5297 32.6054 23.6354 32.445 23.7235 32.2797C23.7955 32.1449 23.803 31.9972 23.7505 31.8566C23.6714 31.6447 23.6939 31.4407 23.8053 31.2568C23.9487 31.0205 23.901 30.724 24.0649 30.4983C24.108 30.254 24.1808 30.0149 24.1657 29.761C24.1582 29.6349 24.1974 29.5071 24.2888 29.4166C24.5156 29.1923 24.5281 28.8416 24.7695 28.6243C24.8245 28.5749 24.8454 28.4759 24.8604 28.3959C24.9056 28.1533 24.886 27.8944 25.0488 27.6829C25.0509 27.5593 25.0667 27.434 25.0523 27.3124C25.0244 27.0778 25.0608 26.8684 25.1728 26.6533C25.3369 26.3382 25.4122 25.9919 25.3621 25.6334C25.3105 25.2643 25.2632 24.8973 25.3018 24.5223C25.3117 24.4255 25.2849 24.31 25.2362 24.2253C25.1173 24.0183 25.1045 23.8025 25.0867 23.5703C25.0619 23.2458 25.0116 22.9168 24.8087 22.6318C24.6405 22.3957 24.6358 22.0802 24.4657 21.8386C24.4438 21.8076 24.4405 21.7587 24.4401 21.718C24.4341 21.2379 24.1638 20.8605 23.9488 20.4635C23.8706 20.3191 23.758 20.1936 23.6658 20.0564C23.6085 19.9711 23.5536 19.8827 23.5089 19.7903C23.3151 19.3894 23.6385 18.7603 24.2497 18.7573C24.5648 18.7559 24.859 18.988 24.9535 19.2834C24.9662 19.3229 24.9818 19.3621 24.9893 19.4027C25.023 19.5859 25.0244 19.7819 25.0931 19.9506C25.2251 20.2743 25.3926 20.584 25.5511 20.8964C25.588 20.9688 25.6479 21.0296 25.6977 21.0954C25.7352 21.1449 25.7756 21.1923 25.8105 21.2435C25.8513 21.3031 26.1069 22.1715 26.0971 22.2485C26.0417 22.6775 26.185 23.0691 26.3301 23.4573C26.3822 23.5968 26.4161 23.7308 26.4156 23.879C26.4148 24.1285 26.4445 24.3722 26.5352 24.6106C26.5773 24.7216 26.5698 24.8555 26.5675 24.9788C26.5584 25.4545 26.546 25.9302 26.5272 26.4056C26.519 26.6127 26.5121 26.8173 26.5463 27.024C26.5778 27.2147 26.5336 27.3954 26.4145 27.5538C26.3649 27.62 26.3181 27.6884 26.2733 27.758C26.2157 27.8477 26.1898 27.9448 26.2063 28.0536C26.2393 28.2688 26.1704 28.4536 26.0659 28.6439C25.947 28.86 25.8602 29.0938 25.8238 29.3462C25.7918 29.5686 25.6643 29.7668 25.6566 30.0036C25.6529 30.1161 25.5604 30.2278 25.501 30.3361C25.3905 30.5376 25.3049 30.7404 25.3007 30.9802C25.296 31.2471 25.171 31.4984 25.1741 31.7725C25.1752 31.8674 25.0999 31.9621 25.065 32.0587C25.0015 32.2343 24.9376 32.4088 25.02 32.5997C25.0436 32.6543 25.038 32.7223 25.0411 32.7843C25.0433 32.8255 25.0508 32.8748 25.0325 32.9074C24.8928 33.1562 25.0108 33.4606 24.8888 33.6937C24.7352 33.9871 24.7182 34.3353 24.4847 34.5974C24.3795 34.7154 24.34 34.888 24.3511 35.0645C24.3663 35.3055 24.2802 35.5179 24.0901 35.6712C23.9049 35.8207 23.8047 36.0183 23.7065 36.2276C23.6287 36.3936 23.5091 36.5402 23.4078 36.6952C23.2611 36.9197 23.1323 37.1592 22.9625 37.3647C22.7855 37.5788 22.4692 37.5637 22.2543 37.7351C22.1171 37.8445 21.9404 37.8543 21.7761 37.8143C21.5942 37.7702 21.4157 37.7333 21.2268 37.7287C21.1291 37.7262 21.0315 37.6719 20.9363 37.6349C20.8208 37.5899 20.7112 37.5264 20.5927 37.4925C20.446 37.4505 20.3299 37.3719 20.2322 37.2601C20.0772 37.0828 19.8962 36.962 19.6522 36.9338C19.5542 36.9225 19.4522 36.8692 19.3708 36.8094C19.2383 36.7118 19.1308 36.5793 18.995 36.4879C18.8722 36.4052 18.7636 36.3179 18.6766 36.1971C18.6297 36.1317 18.5633 36.0762 18.4961 36.0304C18.3161 35.9081 18.2086 35.7462 18.1447 35.5354C18.0786 35.3169 17.9635 35.1173 17.7747 34.971C17.6381 34.8652 17.5588 34.7232 17.5264 34.552C17.5109 34.4711 17.4827 34.3915 17.4505 34.3157C17.4266 34.2593 17.3984 34.1946 17.3524 34.1598C17.1697 34.0215 16.9823 33.8952 16.9088 33.657C16.8404 33.4361 16.6185 33.3128 16.5419 33.085C16.4912 32.9344 16.3594 32.8125 16.2742 32.6715C16.1998 32.5483 16.1586 32.4085 16.0587 32.2956C15.9928 32.2212 15.9399 32.1208 15.9193 32.0239C15.8762 31.8209 15.8742 31.5989 15.7612 31.4257C15.5813 31.1497 15.4497 30.8417 15.2231 30.596C15.1773 30.5465 15.1252 30.5367 15.0729 30.579C15.0245 30.6182 14.9816 30.6653 14.9298 30.6989C14.8068 30.7785 14.6998 30.8705 14.6071 30.9873C14.5318 31.082 14.4351 31.1733 14.3281 31.2267C14.0514 31.3651 13.8696 31.5902 13.761 31.8611C13.6446 32.1517 13.4888 32.4121 13.3244 32.6758C13.2061 32.8656 13.0629 33.0465 12.9908 33.2689C12.9208 33.4846 12.6991 33.6183 12.6524 33.8576C12.6382 33.9308 12.5664 33.9998 12.5069 34.0558C12.3062 34.2454 12.1993 34.4925 12.0781 34.7313C12.0315 34.8231 11.9863 34.9158 11.9468 35.0108C11.9156 35.0859 11.8683 35.1667 11.8731 35.2421C11.8869 35.457 11.8246 35.6465 11.7534 35.8453C11.6997 35.9953 11.72 36.1722 11.7094 36.3373C11.7016 36.4609 11.7289 36.5979 11.6846 36.7061C11.5783 36.9653 11.5626 37.2284 11.5822 37.4994C11.5959 37.689 11.5822 37.8699 11.4844 38.0421C11.4455 38.1104 11.446 38.2006 11.4261 38.2804C11.4013 38.3804 11.4002 38.4995 11.3428 38.5757C11.1477 38.8344 11.1646 39.1166 11.2087 39.4083C11.2212 39.4902 11.2175 39.5769 11.2423 39.6544C11.2902 39.804 11.2755 39.9524 11.2044 40.0782C11.0996 40.2631 11.1365 40.4279 11.1989 40.6113C11.2376 40.7249 11.2415 40.856 11.2359 40.9781C11.2243 41.2255 11.212 41.4752 11.1674 41.7177C11.1444 41.8418 11.1124 41.9485 11.1692 42.072C11.2026 42.1446 11.2078 42.2332 11.212 42.3153C11.2207 42.4862 11.1816 42.6448 11.0667 42.7787C11.0264 42.8257 10.9895 42.8756 10.9511 42.9241C10.8722 42.9491 10.794 42.9771 10.7141 42.9989C10.3318 43.1033 9.93846 42.8764 9.84763 42.4979C9.81282 42.3529 9.82141 42.2093 9.87619 42.0695C9.90647 41.9924 9.93502 41.9147 9.90428 41.8302C9.766 41.448 9.84669 41.0522 9.83296 40.6623C9.83015 40.5807 9.87166 40.4833 9.83982 40.4193C9.6491 40.0357 9.82437 39.6441 9.80533 39.258C9.79971 39.1461 9.89366 39.0309 9.93393 38.9147C9.97435 38.7979 10.0051 38.6777 10.0399 38.559C9.93877 38.2267 10.1256 37.906 10.0781 37.5734C10.0569 37.4246 10.1393 37.2909 10.2206 37.1693C10.3174 37.0248 10.3678 36.8642 10.343 36.6975C10.3074 36.4587 10.3552 36.246 10.4686 36.0384C10.5298 35.9265 10.5436 35.8087 10.4952 35.6802C10.3915 35.4052 10.4444 35.1519 10.6197 34.9172C10.6681 34.8524 10.7157 34.7719 10.7237 34.6946C10.7521 34.416 10.8432 34.1704 11.0435 33.9701C11.1171 33.7552 11.2882 33.5807 11.3032 33.3407C11.3056 33.3004 11.3163 33.2534 11.3401 33.223C11.5199 32.9944 11.6192 32.7142 11.7976 32.4878C12.0033 32.2265 12.2053 31.9683 12.3271 31.6535C12.3629 31.5613 12.4444 31.4841 12.514 31.4082C12.8806 31.0082 13.0362 30.7797 13.2731 30.2865C13.3088 30.2122 13.3426 30.1329 13.3953 30.0714C13.5564 29.8838 13.7711 29.7554 13.9241 29.5497C14.0572 29.3705 14.2701 29.2572 14.4927 29.1832C14.5777 29.155 14.5978 29.079 14.5815 28.9802C14.537 28.7119 14.4435 28.4583 14.3417 28.2087C14.2492 27.9815 14.0884 27.7917 14.0546 27.5276C14.0265 27.3087 13.9178 27.0984 13.8556 26.8793C13.7541 26.5225 13.6174 26.174 13.471 25.8327C13.3972 25.6605 13.3397 25.4853 13.2765 25.3103C13.2275 25.1745 13.1779 25.0284 13.0882 24.9204C12.9207 24.7186 12.8466 24.497 12.8147 24.2412C12.7919 24.0584 12.7141 23.8826 12.5811 23.7404C12.4451 23.5951 12.393 23.415 12.4077 23.2228C12.4258 22.9859 12.3432 22.7847 12.2628 22.567C12.1282 22.2029 11.9362 21.8525 11.9246 21.4461C11.9207 21.3049 11.882 21.1513 11.8146 21.0278C11.6634 20.7511 11.6868 20.4179 11.5104 20.1516C11.4783 20.1031 11.4625 20.0308 11.4683 19.9725C11.4954 19.7045 11.4739 19.4378 11.4683 19.1703C11.4667 19.0918 11.511 19.012 11.536 18.9333C11.5799 18.7955 11.6347 18.6604 11.667 18.5199C11.7008 18.3726 11.7629 18.2449 11.8714 18.1427C12.1976 17.8352 12.3467 17.4198 12.5339 17.0319C12.6173 16.8593 12.7078 16.714 12.8475 16.5815C13.1768 16.2692 13.5085 15.9561 13.7396 15.5563C13.8031 15.4464 13.9029 15.3685 14.0177 15.3134C14.2525 15.201 14.4173 15.0281 14.5181 14.7848C14.5836 14.6265 14.7116 14.5159 14.8719 14.45C15.1467 14.3372 15.3851 14.1794 15.5438 13.92C15.7651 13.7639 15.9271 13.5425 16.1376 13.3772C16.2388 13.2977 16.3082 13.1991 16.3928 13.1095C16.477 13.0204 16.5684 12.9297 16.6739 12.8709C16.9647 12.7087 17.2409 12.5316 17.4696 12.2855C17.525 12.2258 17.5936 12.1656 17.6681 12.1395C17.8281 12.0833 17.9603 11.9863 18.1015 11.8993C18.2045 11.836 18.3281 11.7898 18.4477 11.7732C18.593 11.7532 18.7316 11.7275 18.868 11.6715C19.0294 11.6051 19.1945 11.621 19.3509 11.6975C19.6327 11.8353 19.9274 11.9245 20.2388 11.9692C20.3588 11.9864 20.4708 12.0532 20.5898 12.0855C20.6684 12.1069 20.7527 12.1152 20.8345 12.1153C20.944 12.1156 21.0354 12.064 21.0998 11.9763C21.1357 11.9273 21.1626 11.8703 21.1863 11.814C21.2698 11.6145 21.3973 11.4551 21.6002 11.3707C21.8023 11.2866 21.9492 11.1514 22.0361 10.9499C22.0874 10.831 22.1858 10.7536 22.2857 10.6774C22.4498 10.5521 22.6189 10.4318 22.7738 10.296C22.9293 10.1597 23.0788 10.0238 23.2619 9.91752C23.4368 9.81607 23.597 9.6806 23.7075 9.49207C23.7665 9.3914 23.8759 9.29947 23.9837 9.25265C24.1829 9.16619 24.2838 8.96252 24.4763 8.8773C24.6464 8.80192 24.8171 8.72653 24.9924 8.66504C25.1557 8.60776 25.274 8.49633 25.3971 8.38427C25.4906 8.29921 25.6059 8.2488 25.7356 8.24255C26.0862 8.22554 26.4344 8.1845 26.7824 8.14298C27.0574 8.11005 27.2703 8.20432 27.426 8.43046C27.4732 8.49882 27.5145 8.57109 27.5585 8.64163L27.5576 8.64179Z" fill="#070607"/>
<path d="M34.4647 9.11598C34.2591 9.34119 34.2022 9.62306 34.1627 9.91133C34.1542 9.97282 34.1567 10.0363 34.1436 10.0966C34.0792 10.3947 33.745 10.6385 33.4502 10.6058C33.105 10.5676 32.8016 10.2608 32.8498 9.93286C32.8951 9.62493 32.8749 9.31201 32.9452 9.00829C32.9712 8.97817 33.0173 8.94992 33.0202 8.91777C33.0429 8.66228 33.1181 8.43067 33.2979 8.24073C33.454 7.81122 33.7758 7.4702 33.937 7.04303C33.9587 6.9856 33.9855 6.92005 34.0305 6.88337C34.2707 6.6875 34.4177 6.3997 34.6908 6.23411C34.8121 6.1606 34.9046 6.04089 35.0159 5.94896C35.241 5.76308 35.4946 5.70206 35.7712 5.81302C36.0446 5.92274 36.2049 6.13563 36.2442 6.42296C36.2807 6.6889 36.1804 6.91926 35.97 7.08236C35.742 7.25919 35.4949 7.41105 35.2619 7.58179C35.1285 7.67949 34.9953 7.78219 34.8831 7.90236C34.8007 7.9907 34.7253 8.10369 34.6949 8.21841C34.6156 8.51666 34.4789 8.80118 34.4647 9.11598Z" fill="#070607"/>
<path d="M31.8717 8.87243C31.8511 8.99151 31.8355 9.11184 31.8088 9.22952C31.7331 9.56398 31.451 9.78342 31.1007 9.78561C30.748 9.78779 30.4732 9.57428 30.3778 9.2445C30.3304 9.08 30.3703 8.92175 30.3716 8.76053C30.3847 8.74429 30.4015 8.73009 30.4103 8.71183C30.5013 8.52189 30.7496 8.44276 30.788 8.22941C30.8465 7.90462 30.8891 7.57313 30.8568 7.2421C30.8389 7.05824 30.8042 6.86955 30.7374 6.6985C30.667 6.51808 30.636 6.34109 30.6516 6.15209C30.6644 5.99726 30.603 5.86819 30.512 5.75036C30.4613 5.68465 30.3997 5.62706 30.3522 5.55933C30.1715 5.30118 30.1838 4.80862 30.581 4.58668C30.8777 4.42078 31.3047 4.4946 31.4571 4.79457C31.5969 5.0702 31.8357 5.29275 31.8952 5.60974C31.8989 5.63018 31.8987 5.65609 31.9112 5.66936C32.2885 6.07343 32.1229 6.57099 32.1485 7.03546C32.0754 7.35993 32.0673 7.69299 32.0202 8.0198C31.9793 8.30401 31.9153 8.58682 31.8713 8.87212L31.8717 8.87243Z" fill="#070607"/>
<path d="M18.7646 7.83767C18.9534 7.71859 19.144 7.59513 19.338 7.47699C19.7642 7.21728 20.3817 7.52974 20.3959 8.11454C20.3987 8.23175 20.3537 8.36176 20.2955 8.46633C20.2053 8.62849 20.0976 8.77816 20.0472 8.96217C20.0264 9.03787 19.9742 9.1159 19.9142 9.16741C19.7866 9.27728 19.6921 9.40807 19.6019 9.54823C19.4572 9.77297 19.2437 9.89174 18.9723 9.87504C18.8036 9.86474 18.645 9.90095 18.4821 9.932C18.3128 9.96431 18.1523 9.91125 18.0187 9.80231C17.8907 9.6979 17.7657 9.58849 17.6499 9.47081C17.5788 9.39839 17.5165 9.31177 17.4697 9.22156C17.394 9.07548 17.3375 8.91957 17.2668 8.77067C17.1823 8.59275 17.1653 8.40999 17.2388 8.22926C17.3091 8.05649 17.3752 7.88559 17.4143 7.70127C17.4661 7.45686 17.6335 7.30469 17.8753 7.25381C18.1654 7.19263 18.4017 7.28159 18.5745 7.53505C18.6404 7.63166 18.6315 7.77337 18.7644 7.83752L18.7646 7.83767Z" fill="#FF8CBD"/>
<path d="M50.3822 18.8274C50.3764 18.9308 50.3803 19.036 50.3633 19.1376C50.2978 19.5299 50.2216 19.9191 49.8516 20.1598C49.6633 20.4387 49.3646 20.6024 49.1374 20.8432C48.8928 21.1023 48.2979 21.0809 48.0511 20.6689C47.9344 20.4741 47.8325 20.2699 47.7316 20.0663C47.6956 19.9932 47.6786 19.9099 47.66 19.8295C47.6369 19.7292 47.6424 19.6166 47.5984 19.5277C47.4697 19.2673 47.5117 18.9956 47.5372 18.7309C47.5603 18.49 47.7014 18.3052 47.9445 18.2302C48.2386 18.1396 48.4925 18.2232 48.6598 18.4603C48.7071 18.5272 48.736 18.607 48.7734 18.6808C48.8004 18.7339 48.8897 18.7593 48.9247 18.7236C49.084 18.561 49.2451 18.3997 49.3993 18.2324C49.5792 18.037 50.0134 17.9978 50.243 18.2483C50.3293 18.3425 50.3922 18.4486 50.398 18.5797C50.4016 18.6622 50.3986 18.7451 50.3986 18.8278C50.3931 18.8278 50.3877 18.8275 50.3821 18.8274H50.3822Z" fill="#FF8CBD"/>
<path d="M32.9682 30.7411C32.7229 30.7411 32.6191 30.7456 32.5159 30.7394C32.4546 30.7357 32.3829 30.7318 32.3353 30.6994C32.1629 30.5819 31.9803 30.4894 31.7829 30.4227C31.7457 30.4102 31.7064 30.3803 31.6855 30.3473C31.4871 30.035 31.1205 29.8546 31.0047 29.4779C30.9906 29.4323 30.943 29.4162 30.909 29.457C30.6649 29.7483 30.3084 29.883 30.0125 30.1018C29.7719 30.2798 29.5005 30.2473 29.2525 30.0894C29.1666 30.0347 29.1068 29.938 29.0197 29.8862C28.6753 29.6805 28.4574 29.4022 28.4612 28.9837C28.3163 28.675 28.3543 28.3345 28.294 28.0109C28.2712 27.8886 28.2992 27.764 28.361 27.6499C28.4927 27.4066 28.7067 27.2955 28.9718 27.2885C29.2475 27.2811 29.4997 27.4639 29.5913 27.7281C29.6245 27.8241 29.625 27.9312 29.65 28.0308C29.6749 28.13 29.7096 28.2271 29.7445 28.3234C29.7644 28.3777 29.8583 28.3932 29.8944 28.3502C29.9474 28.287 29.9918 28.2151 30.0512 28.1592C30.1257 28.0893 30.2031 28.0094 30.2947 27.9733C30.5074 27.8897 30.7089 27.7878 30.9087 27.678C31.2319 27.5004 31.6402 27.7152 31.7805 27.9473C31.8019 27.9827 31.8267 28.0183 31.8383 28.0573C31.9338 28.3816 32.1273 28.6483 32.3249 28.9154C32.4099 29.0303 32.4638 29.1677 32.5384 29.291C32.5815 29.3624 32.7578 29.3859 32.822 29.334C32.8694 29.2954 32.912 29.2509 32.9574 29.2099C33.0341 29.1408 33.1004 29.0427 33.1905 29.0092C33.3896 28.9354 33.5433 28.7966 33.7194 28.691C34.062 28.4854 34.5166 28.7172 34.5614 29.1166C34.5806 29.2875 34.5622 29.4518 34.4366 29.581C34.3198 29.7012 34.2184 29.8276 34.1473 29.982C34.1143 30.0541 34.054 30.1254 33.9875 30.168C33.8279 30.2702 33.6975 30.3973 33.5767 30.5423C33.45 30.6945 33.2698 30.7489 33.0748 30.7481C32.9921 30.7478 32.9092 30.7369 32.9682 30.7413V30.7411Z" fill="#FF8CBD"/>
<path d="M33.7848 20.6441C33.7258 20.8613 33.7589 21.0684 33.7483 21.2732C33.7388 21.4563 33.6835 21.635 33.7116 21.8243C33.723 21.9009 33.6907 21.9882 33.6632 22.0653C33.6145 22.2022 33.5719 22.3379 33.5651 22.4853C33.5591 22.6109 33.5217 22.7309 33.4372 22.8286C33.3381 22.9433 33.3158 23.084 33.276 23.2241C33.1821 23.5555 32.9144 23.7332 32.5751 23.7125C32.4307 23.7036 32.2864 23.6925 32.1431 23.6733C31.8467 23.6337 31.632 23.4724 31.5747 23.1795C31.5349 22.9755 31.4417 22.7882 31.4142 22.5872C31.3888 22.401 31.3395 22.2249 31.288 22.0469C31.271 21.9879 31.26 21.9239 31.2625 21.863C31.2756 21.553 31.297 21.2432 31.2168 20.9381C31.2724 20.7343 31.2106 20.5253 31.2352 20.3254C31.263 20.1008 31.2994 19.8779 31.3145 19.6508C31.3211 19.5536 31.3691 19.4456 31.4308 19.3685C31.5595 19.207 31.678 19.0386 31.8025 18.8745C31.9823 18.6376 32.2338 18.5661 32.5223 18.6373C32.662 18.6716 32.8011 18.7091 32.9384 18.7514C33.1674 18.8221 33.3424 18.956 33.4262 19.1895C33.4471 19.248 33.465 19.3076 33.4878 19.3654C33.5704 19.5745 33.7692 19.7334 33.7639 19.9791C33.7589 20.2055 33.7172 20.4321 33.7844 20.6444L33.7848 20.6441Z" fill="#070607"/>
<path d="M38.7933 22.2196C38.5063 22.2782 38.2996 22.2098 38.1186 22.0447C38.0739 22.004 38.0109 21.9844 37.9591 21.9509C37.7733 21.8304 37.6569 21.6653 37.659 21.4379C37.6602 21.2895 37.6257 21.1552 37.5723 21.0168C37.4949 20.8158 37.5091 20.6102 37.6173 20.4167C37.7413 20.1948 37.7974 19.9591 37.7925 19.7017C37.7871 19.4124 37.9155 19.1411 37.9282 18.8493C37.9341 18.7113 38.0131 18.5743 38.07 18.4416C38.1375 18.2851 38.2448 18.1641 38.409 18.0964C38.5713 18.0294 38.7335 18.014 38.8907 18.0936C39.0564 18.1775 39.2153 18.2752 39.3754 18.3698C39.4104 18.3906 39.4449 18.4185 39.4684 18.4513C39.601 18.6358 39.7104 18.8355 39.8596 19.0095C39.9095 19.0678 39.9264 19.1612 39.9401 19.2416C39.9648 19.3865 40.0044 19.5233 40.0776 19.6518C40.1639 19.8033 40.1656 19.9697 40.1405 20.1362C40.1191 20.2789 40.0846 20.4197 40.0648 20.5626C40.0336 20.7877 40.0425 21.0244 39.974 21.2365C39.9056 21.448 39.758 21.6331 39.6536 21.8341C39.5271 22.0778 39.3252 22.1986 39.0586 22.2184C38.9556 22.226 38.8516 22.2196 38.7928 22.2196H38.7933Z" fill="#070607"/>
<path d="M41.9263 13.2161C42.2432 13.3419 42.5743 13.4613 42.7722 13.7773C42.8249 13.8616 42.8535 13.9693 42.8652 14.0693C42.8909 14.2903 42.9857 14.4725 43.1667 14.5912C43.5653 14.8525 43.7735 15.2602 44.0003 15.651C44.1467 15.9033 44.1714 16.2002 44.2352 16.481C44.258 16.5812 44.2321 16.7015 44.2783 16.7853C44.3959 16.9993 44.3284 17.1805 44.2291 17.369C44.1375 17.5434 44.1144 17.7342 44.1974 17.9103C44.3012 18.13 44.2933 18.3618 44.273 18.5819C44.2505 18.8272 44.2803 19.0789 44.1959 19.3219C44.1651 19.4103 44.187 19.5295 44.2174 19.6241C44.2837 19.8303 44.3043 20.0258 44.1987 20.2259C44.1181 20.3786 44.1106 20.547 44.1464 20.7122C44.2474 21.1801 44.2456 21.6538 44.2428 22.1284C44.2421 22.2733 44.2556 22.4181 44.2539 22.5628C44.2525 22.6878 44.2305 22.8083 44.1518 22.915C44.1211 22.9567 44.0993 22.9822 44.0532 22.9583C44.0186 22.9402 43.9847 22.9188 43.955 22.8937C43.941 22.8818 43.933 22.8582 43.9298 22.8387C43.8868 22.5775 43.74 22.3944 43.5324 22.2327C43.356 22.0952 43.195 21.9318 43.1129 21.706C43.0631 21.5688 42.9606 21.4572 42.8332 21.3801C42.7313 21.3184 42.6804 21.2391 42.7269 21.1254C42.7917 20.9671 42.7914 20.8051 42.7939 20.6375C42.7985 20.3286 42.7794 20.0196 42.8163 19.71C42.8355 19.5497 42.79 19.3828 42.789 19.2188C42.787 18.7857 42.7911 18.3524 42.7978 17.9193C42.8001 17.772 42.7859 17.6312 42.7264 17.4945C42.6345 17.283 42.5933 17.0611 42.6111 16.8303C42.6208 16.704 42.578 16.5868 42.5612 16.4663C42.5123 16.1173 42.4116 15.7836 42.32 15.4461C42.2771 15.288 42.2214 15.1289 42.2443 14.9571C42.2642 14.808 42.2024 14.6747 42.1529 14.5369C42.0834 14.3432 42.0594 14.1301 41.9709 13.9471C41.8876 13.7747 41.8824 13.5852 41.805 13.4151C41.7909 13.384 41.8028 13.3308 41.8214 13.2983C41.8392 13.2671 41.8812 13.2497 41.926 13.2161H41.9263Z" fill="#FCFCFC"/>
</svg>
