<svg width="60" height="48" viewBox="0 0 60 48" fill="none" xmlns="http://www.w3.org/2000/svg">
<path d="M26.8409 9.30816C27.0033 9.29802 27.1656 9.28538 27.3283 9.27867C27.5251 9.27055 27.6854 9.34468 27.8035 9.50513C27.8076 9.63498 27.8116 9.7642 27.8157 9.89343C27.7835 9.96148 27.811 10.0028 27.8759 10.0273C27.9585 10.1171 28.0309 10.2198 28.1258 10.2939C28.381 10.4935 28.7883 10.486 29.0407 10.288C29.2692 10.1087 29.3588 9.87095 29.3293 9.58472C29.319 9.48436 29.3112 9.3837 29.3023 9.28335C29.525 9.28522 29.7455 9.29085 29.9629 9.21219C30.0736 9.17208 30.2013 9.17347 30.3219 9.16722C30.4635 9.16004 30.6056 9.16505 30.7477 9.16474C30.7901 9.29288 30.7149 9.40306 30.6946 9.52183C30.6236 9.93698 31.0055 10.4619 31.5795 10.3289C31.9074 10.253 32.1119 10.0171 32.1468 9.68821C32.1615 9.54946 32.1038 9.39962 32.2082 9.2743C32.3847 9.32112 32.5614 9.36794 32.7379 9.41476C32.6861 9.52807 32.6297 9.63951 32.5845 9.75516C32.5623 9.81182 32.5497 9.87689 32.5517 9.93745C32.572 10.5182 33.1657 10.7815 33.5119 10.5906C33.8747 10.3905 34.2652 10.3798 34.663 10.4167C34.7458 10.4244 34.8314 10.4587 34.9095 10.445C35.2085 10.3925 35.4806 10.4018 35.7153 10.6384C35.7805 10.7041 35.9048 10.7219 36.0059 10.739C36.3539 10.7983 36.6104 10.9989 36.834 11.2541C36.8747 11.3006 36.9024 11.3586 36.9439 11.4042C37.1611 11.6428 37.4422 11.7151 37.7338 11.5968C37.8877 11.5344 38.0342 11.4581 38.2023 11.4323C38.2814 11.4203 38.3723 11.3924 38.4286 11.3402C38.6031 11.1788 38.8498 11.1682 39.0345 11.0275C39.1553 10.9354 39.302 10.9319 39.4512 10.9814C39.5288 11.0072 39.6148 11.008 39.6972 11.0187C39.8039 11.0329 39.8991 11.0735 39.9681 11.1567C40.0998 11.3159 40.2796 11.43 40.3776 11.6229C40.4226 11.7114 40.4998 11.7992 40.5851 11.8487C40.7967 11.9717 40.9311 12.1459 40.9879 12.3773C41.0246 12.5265 41.0993 12.6503 41.215 12.7397C41.3186 12.8198 41.3729 12.9287 41.4442 13.0297C41.6119 13.2669 41.7356 13.5282 41.8719 13.7831C41.9981 14.0192 42.1111 14.27 42.2787 14.4745C42.4328 14.6624 42.5158 14.8536 42.5444 15.0885C42.5645 15.2545 42.6347 15.4115 42.7688 15.523C42.9864 15.7038 43.1039 15.9328 43.1524 16.2105C43.1815 16.3764 43.2672 16.5331 43.4125 16.6231C43.6178 16.7505 43.6843 16.9869 43.858 17.1374C44.0361 17.2916 44.1073 17.5129 44.1939 17.7241C44.2326 17.8183 44.2833 17.917 44.3551 17.9863C44.5039 18.13 44.6425 18.2806 44.7809 18.434C44.9318 18.6015 45.1224 18.7324 45.248 18.9277C45.2799 18.9772 45.3382 19.0137 45.391 19.0452C45.6145 19.1788 45.7518 19.3798 45.8551 19.6119C45.8968 19.7055 45.9386 19.8053 46.0051 19.8803C46.1253 20.016 46.1553 20.1699 46.1545 20.3411C46.1539 20.4645 46.1247 20.6092 46.1773 20.7075C46.3248 20.9835 46.3738 21.299 46.5327 21.5642C46.6725 21.7975 46.7419 22.0582 46.8504 22.3023C46.9653 22.5609 47.0585 22.8428 47.024 23.1455C47.0102 23.2652 47.045 23.3906 47.0567 23.5134C47.0723 23.6776 47.0692 23.8463 47.1068 24.0052C47.1493 24.1842 47.235 24.3524 47.2888 24.5294C47.3249 24.6477 47.3478 24.7721 47.3594 24.8954C47.3767 25.0808 47.384 25.2676 47.3868 25.454C47.3917 25.7855 47.4472 26.1134 47.5147 26.4332C47.5669 26.6807 47.6245 26.9175 47.5676 27.1669C47.5387 27.293 47.5453 27.4129 47.5855 27.5343C47.6726 27.7973 47.6681 28.0627 47.6175 28.3334C47.5719 28.5767 47.583 28.8303 47.4861 29.0646C47.5325 29.3233 47.3859 29.5476 47.3539 29.7933C47.3325 29.9578 47.1825 30.0928 47.0251 30.1074C46.8186 30.1266 46.6115 30.1441 46.4097 30.0647C46.1985 29.9815 45.9806 29.9144 45.7724 29.8248C45.7022 29.7947 45.6332 29.7277 45.5962 29.6598C45.3993 29.2974 45.2162 28.9272 44.9696 28.5942C44.8881 28.3327 44.6562 28.1589 44.5683 27.8976C44.5374 27.8055 44.4424 27.7361 44.381 27.6532C44.1243 27.3066 43.8179 26.9936 43.7032 26.5548C43.6464 26.3374 43.4892 26.1568 43.4477 25.9258C43.4306 25.8301 43.3652 25.7306 43.2948 25.6594C42.9745 25.3352 42.801 24.9508 42.7799 24.4966C42.7707 24.2992 42.6959 24.1275 42.5413 24.0077C42.3493 23.8589 42.2469 23.6634 42.1879 23.4366C42.1461 23.2758 42.0929 23.1174 42.0626 22.9547C42.0273 22.7655 41.9621 22.5982 41.8271 22.4563C41.6929 22.3152 41.6286 22.139 41.627 21.9453C41.6248 21.6934 41.4665 21.4718 41.4921 21.2157C41.3361 20.9418 41.3865 20.6026 41.2107 20.3325C41.1681 20.2669 41.172 20.1727 41.1455 20.0946C41.1124 19.9976 41.0868 19.8916 41.0281 19.8112C40.8964 19.6305 40.8927 19.432 40.8797 19.2209C40.856 18.832 40.9264 18.432 40.7663 18.0555C40.751 18.0195 40.7541 17.9731 40.7567 17.9319C40.7773 17.6125 40.5771 17.34 40.5646 17.0264C40.5623 16.969 40.5279 16.9011 40.487 16.8589C40.3252 16.6927 40.2415 16.4783 40.1168 16.2897C39.9606 16.0536 39.6494 15.9879 39.3975 16.1198C39.1361 16.2567 39.0134 16.4905 39.0925 16.7943C39.1412 16.9811 39.1092 17.1688 39.1486 17.3487C39.1923 17.5494 39.2797 17.7403 39.3338 17.9394C39.3772 18.0986 39.3992 18.262 39.4151 18.4287C39.4426 18.7154 39.4744 19.0073 39.5373 19.2852C39.6007 19.5648 39.6496 19.8513 39.7415 20.1252C39.6805 20.4625 39.9503 20.7019 40.0045 21.008C40.0329 21.1683 40.1086 21.3182 40.1165 21.489C40.1212 21.587 40.1593 21.7 40.2206 21.7752C40.3561 21.9414 40.4104 22.1446 40.4942 22.3311C40.5768 22.515 40.6356 22.713 40.5894 22.9347C40.5457 23.1438 40.6209 23.3392 40.7627 23.5114C40.8941 23.6709 41.0061 23.8464 41.1223 24.018C41.2282 24.1744 41.307 24.3437 41.3169 24.5361C41.3265 24.7279 41.3973 24.8981 41.4859 25.0638C41.4932 25.0774 41.4929 25.1102 41.4854 25.1142C41.4509 25.1328 41.4133 25.1525 41.3754 25.1562C41.3353 25.1603 41.2847 25.1598 41.2538 25.1389C40.9851 24.9575 40.6838 24.9146 40.3686 24.9023C40.1412 24.8934 39.9224 24.8163 39.6992 24.7746C39.414 24.7214 39.1038 24.9254 39.009 25.1952C38.9087 25.481 38.9798 25.8361 39.2856 26.009C39.4535 26.1039 39.6308 26.1546 39.822 26.0759C39.9197 26.0358 40.0326 25.9878 40.121 26.0483C40.3118 26.1786 40.5385 26.2331 40.728 26.3514C40.8908 26.4529 41.0614 26.5097 41.2346 26.5769C41.4063 26.6436 41.5438 26.7837 41.7414 26.8057C41.8191 26.8145 41.8918 26.8719 41.9657 26.9098C42.1021 26.9799 42.1887 27.0739 42.1945 27.2451C42.201 27.4375 42.2915 27.6031 42.4386 27.7337C42.5517 27.8344 42.536 27.9437 42.4709 28.0676C42.3365 28.3238 42.3253 28.6293 42.1553 28.8728C42.1444 28.8885 42.1402 28.9132 42.1419 28.9328C42.1658 29.2089 42.0151 29.4538 41.9994 29.721C41.9864 29.939 41.9028 30.1176 41.7687 30.2843C41.6006 30.4933 41.4325 30.7016 41.2591 30.9065C41.0718 31.1278 40.8199 31.2867 40.6686 31.541C40.6395 31.5897 40.5743 31.626 40.5179 31.6479C40.1729 31.7821 39.861 32.0047 39.4762 32.0343C39.3295 32.0455 39.1852 32.0903 39.0735 32.187C38.8789 32.3555 38.6377 32.4228 38.4069 32.5081C38.2693 32.559 38.1202 32.5937 38.022 32.7011C37.8489 32.8904 37.6045 32.9693 37.4123 33.1276C37.3347 33.1914 37.2323 33.2314 37.1351 33.2638C36.7383 33.396 36.3283 33.4563 35.9118 33.431C35.6028 33.4121 35.2955 33.379 34.9846 33.3879C34.5148 33.4012 34.0951 33.2144 33.6843 33.0193C33.5334 32.9476 33.3903 32.8835 33.2236 32.8492C32.8732 32.7771 32.5494 32.6235 32.3192 32.3424C32.1698 32.16 32.0036 32.0326 31.7929 31.9251C31.4796 31.7651 31.1865 31.5571 31.0954 31.1767C30.9209 30.9398 30.8432 30.6546 30.7313 30.3902C30.5878 30.0517 30.4655 29.6951 30.4931 29.3118C30.5109 29.0638 30.524 28.8153 30.537 28.567C30.5599 28.1263 30.0152 27.766 29.6076 27.9769C29.3338 28.1185 29.1879 28.3384 29.2155 28.6255C29.2417 28.8968 29.1189 29.1607 29.2063 29.4279C29.1548 29.6068 29.1578 29.7931 29.1031 29.9757C28.9541 30.4736 28.7076 30.9276 28.503 31.4002C28.4635 31.4913 28.3882 31.578 28.3078 31.6379C28.1427 31.7607 28.0008 31.9216 27.7913 31.9792C27.6437 32.0198 27.5352 32.12 27.4505 32.2394C27.1942 32.6005 26.8263 32.7717 26.4103 32.8576C26.286 32.8832 26.176 32.9263 26.0638 32.9851C25.6399 33.2072 25.1998 33.3842 24.7103 33.3887C24.5655 33.3901 24.4202 33.374 24.276 33.3817C24.1115 33.3903 23.9482 33.4224 23.7837 33.433C23.661 33.441 23.537 33.4366 23.4141 33.4282C22.8857 33.3918 22.3919 33.2559 21.9678 32.9197C21.8878 32.8562 21.7925 32.8103 21.7184 32.7412C21.6089 32.6388 21.481 32.5768 21.344 32.525C21.1511 32.4523 20.9348 32.409 20.7743 32.291C20.5455 32.123 20.3024 32.051 20.0317 32.0025C19.7246 31.9474 19.4607 31.7646 19.1724 31.6507C18.9862 31.577 18.9132 31.388 18.7864 31.2536C18.758 31.2235 18.7264 31.1962 18.695 31.1691C18.381 30.8967 18.1288 30.5694 17.8822 30.2387C17.8094 30.1412 17.7276 30.0213 17.7222 29.9081C17.708 29.615 17.5525 29.3539 17.5566 29.0594C17.5577 28.9784 17.5521 28.8787 17.5074 28.8191C17.3264 28.5772 17.354 28.2585 17.1925 28.0111C17.1269 27.9107 17.1589 27.8113 17.2469 27.7353C17.396 27.6064 17.4953 27.4403 17.4987 27.2502C17.5024 27.043 17.6229 26.9412 17.7779 26.883C18.049 26.7811 18.3036 26.643 18.5728 26.5421C18.7117 26.4902 18.8322 26.4205 18.9575 26.3481C19.0992 26.2662 19.2679 26.2281 19.4028 26.1381C19.5554 26.0361 19.694 25.9976 19.8665 26.0747C20.0542 26.1587 20.234 26.1047 20.4029 26.0098C20.8062 25.7835 20.8425 25.188 20.463 24.9049C20.284 24.7713 20.0828 24.7304 19.8727 24.7929C19.5924 24.8761 19.3074 24.9081 19.0176 24.9282C18.8968 24.9366 18.7766 24.9825 18.6605 25.0234C18.5644 25.0573 18.4752 25.1108 18.3811 25.1517C18.3268 25.1753 18.2076 25.1517 18.208 25.1223C18.2085 25.0866 18.2009 25.0426 18.2183 25.0165C18.3014 24.8929 18.3619 24.7567 18.3685 24.6118C18.3803 24.3502 18.4791 24.1316 18.6351 23.9282C18.7484 23.7804 18.849 23.623 18.9572 23.4709C19.0827 23.2946 19.1582 23.1017 19.1031 22.8861C19.0699 22.756 19.0992 22.6442 19.1318 22.5226C19.1646 22.4009 19.2331 22.2924 19.2646 22.1777C19.3165 21.9886 19.4604 21.8562 19.522 21.683C19.584 21.5094 19.5904 21.3165 19.6466 21.1402C19.709 20.9438 19.7441 20.7364 19.8658 20.5593C19.9103 20.4945 19.9373 20.4032 19.9362 20.3245C19.9336 20.1332 19.9899 19.9582 20.0395 19.7781C20.0996 19.5598 20.1739 19.3355 20.175 19.1134C20.1763 18.879 20.2849 18.6703 20.2793 18.441C20.2721 18.1447 20.3553 17.8665 20.4645 17.5973C20.5126 17.479 20.5555 17.3629 20.5451 17.2373C20.5309 17.067 20.5782 16.9114 20.6167 16.7489C20.6843 16.4639 20.4934 16.1799 20.1925 16.0739C19.9734 15.9968 19.6711 16.1048 19.5443 16.3274C19.4419 16.5072 19.3422 16.6852 19.2117 16.8482C19.1499 16.9253 19.1161 17.0344 19.0973 17.1343C19.0666 17.2975 19.0168 17.455 18.9787 17.6145C18.9122 17.8937 18.8882 18.1838 18.8197 18.4646C18.8729 18.7546 18.7619 19.0399 18.7989 19.3322C18.8136 19.4485 18.7933 19.5999 18.7271 19.6896C18.5842 19.8833 18.5597 20.109 18.4832 20.3211C18.4201 20.4964 18.3313 20.6595 18.3171 20.8519C18.302 21.0582 18.176 21.2341 18.1617 21.4504C18.147 21.6733 18.0532 21.8893 18.0317 22.1183C18.0225 22.2155 17.9741 22.3262 17.9079 22.3976C17.7298 22.5896 17.6367 22.8058 17.6118 23.0661C17.5983 23.2081 17.5379 23.3462 17.4937 23.4845C17.4361 23.6643 17.3606 23.8344 17.2053 23.9552C16.9933 24.12 16.9078 24.3365 16.8994 24.6054C16.8888 24.9469 16.7472 25.2563 16.5298 25.5088C16.362 25.7036 16.2445 25.9013 16.173 26.1498C16.0995 26.4053 15.9679 26.6451 15.8515 26.8867C15.7984 26.9969 15.7181 27.0937 15.6542 27.1992C15.4518 27.534 15.1241 27.7823 14.9892 28.1634C14.6513 28.6332 14.3696 29.1361 14.1032 29.6486C14.0674 29.7174 13.9995 29.7875 13.9296 29.8173C13.7019 29.9144 13.4673 29.9957 13.2337 30.0781C13.0314 30.1494 12.8204 30.1404 12.6196 30.0908C12.4863 30.0578 12.3602 30.0002 12.3241 29.8178C12.2238 29.3112 12.1359 28.8028 12.0628 28.2919C12.0276 28.0446 12.0043 27.7954 12.1005 27.5544C12.1482 27.4347 12.1651 27.3117 12.13 27.1884C12.065 26.9599 12.0733 26.7308 12.159 26.5161C12.2615 26.259 12.1846 25.9789 12.2909 25.7223C12.3275 25.6338 12.2885 25.5164 12.2974 25.4134C12.324 25.1045 12.311 24.7901 12.4065 24.4902C12.4565 24.3334 12.5404 24.1859 12.5776 24.0267C12.6147 23.8672 12.5965 23.6949 12.6327 23.5351C12.6656 23.3901 12.672 23.2496 12.6651 23.1035C12.6541 22.8727 12.7177 22.6572 12.7897 22.4374C12.9501 21.9472 13.2306 21.5071 13.3689 21.0091C13.5296 20.7979 13.5649 20.5605 13.5401 20.3011C13.5307 20.2037 13.5485 20.0796 13.6039 20.0047C13.7291 19.8356 13.8088 19.6469 13.9057 19.4646C13.9721 19.3399 14.0681 19.2166 14.1811 19.1343C14.3516 19.0101 14.5105 18.8837 14.6137 18.6969C14.8862 18.5338 15.0171 18.2271 15.2742 18.0473C15.3981 17.9607 15.4687 17.8286 15.5136 17.6897C15.592 17.4478 15.7249 17.2488 15.8972 17.0606C16.0496 16.8942 16.1668 16.6987 16.3483 16.5529C16.4616 16.4621 16.5212 16.3214 16.5452 16.1725C16.5863 15.9172 16.7027 15.7065 16.9034 15.5393C17.0539 15.414 17.1318 15.2419 17.1521 15.051C17.1678 14.9034 17.1864 14.7571 17.2813 14.6412C17.5981 14.2541 17.8001 13.799 18.0403 13.3674C18.1717 13.1313 18.3053 12.9019 18.5043 12.7163C18.6144 12.6135 18.6711 12.4841 18.7126 12.3406C18.7594 12.1793 18.8353 12.0194 18.9829 11.9335C19.1716 11.8234 19.2873 11.6619 19.405 11.4877C19.4966 11.3521 19.625 11.2405 19.7432 11.1244C19.7859 11.0822 19.8426 11.0418 19.8994 11.0289C20.0605 10.992 20.2242 10.9641 20.3882 10.9449C20.4466 10.938 20.5151 10.9544 20.5688 10.9808C20.7907 11.09 21.0083 11.2077 21.2282 11.321C21.3012 11.3586 21.3733 11.4125 21.4511 11.4239C21.6405 11.4514 21.8057 11.5369 21.9789 11.607C22.2353 11.7106 22.4694 11.6425 22.6751 11.4734C22.7379 11.4217 22.7814 11.3468 22.834 11.2828C23.0642 11.0023 23.3392 10.7965 23.7085 10.7331C23.8515 10.7086 23.9935 10.6615 24.0991 10.5527C24.2287 10.4197 24.3821 10.3907 24.5566 10.4255C24.701 10.4544 24.8441 10.4433 24.9902 10.4244C25.4086 10.3704 25.8125 10.3977 26.2028 10.5962C26.4639 10.729 26.8008 10.6151 26.981 10.3751C27.1586 10.1386 27.1994 9.88344 27.0483 9.61781C26.9871 9.51012 26.9106 9.41102 26.841 9.30801L26.8409 9.30816ZM30.0684 27.5318C30.1558 27.5251 30.3008 27.5174 30.4449 27.5007C30.5051 27.4937 30.5688 27.4772 30.6212 27.4477C30.9449 27.2649 31.2654 27.0764 31.588 26.8916C31.6995 26.8276 31.7813 26.735 31.8463 26.6278C31.8998 26.5393 31.9527 26.4488 31.9916 26.3534C32.1423 25.9829 32.3819 25.6764 32.6519 25.3866C32.7485 25.2829 32.8292 25.155 32.8841 25.0242C32.9801 24.7957 33.0653 24.5636 33.1833 24.3442C33.2659 24.1907 33.2659 24.0255 33.2021 23.8621C33.1869 23.8233 33.1732 23.7842 33.1562 23.7464C33.0588 23.5309 33.0464 23.3219 33.1168 23.0854C33.2322 22.6978 33.0046 22.2871 32.5667 22.1844C32.3654 22.1373 32.1749 22.0497 31.9752 22.0201C31.6981 21.9789 31.4668 21.8873 31.2563 21.6944C31.0433 21.4993 30.7753 21.4762 30.4967 21.5673C30.3011 21.6313 30.1028 21.6972 29.9003 21.727C29.7177 21.754 29.5319 21.746 29.3468 21.7857C29.0864 21.8412 28.8238 21.913 28.5497 21.8381C28.476 21.818 28.3843 21.8423 28.3061 21.8646C28.108 21.9211 27.915 21.987 27.7089 22.0227C27.5098 22.0572 27.3169 22.1362 27.1166 22.1854C26.6406 22.3021 26.4679 22.7727 26.5666 23.0926C26.5727 23.1124 26.5773 23.1329 26.5854 23.1519C26.674 23.3592 26.6461 23.5551 26.5353 23.7469C26.5047 23.7998 26.4931 23.8636 26.4727 23.9225C26.4296 24.0459 26.4371 24.1694 26.487 24.287C26.584 24.5149 26.6647 24.754 26.7939 24.9625C26.9123 25.1537 27.0591 25.3295 27.1841 25.5191C27.2395 25.6032 27.339 25.6569 27.4029 25.737C27.4798 25.8334 27.5755 25.9355 27.6006 26.0489C27.6626 26.3292 27.7881 26.5465 28.042 26.6918C28.1093 26.7304 28.1556 26.8109 28.2021 26.8786C28.3404 27.0801 28.5389 27.1844 28.7709 27.2239C28.9778 27.259 29.1857 27.3036 29.3574 27.4182C29.5656 27.5571 29.7814 27.5658 30.0689 27.5318H30.0684ZM32.9194 19.0483C32.8127 19.3573 33.0076 19.689 33.0123 20.0392C33.0135 20.1321 33.0777 20.236 33.1396 20.3136C33.2983 20.5121 33.4174 20.7223 33.4304 20.9825C33.4324 21.0231 33.4471 21.0632 33.4583 21.103C33.5754 21.5189 34.0547 21.7318 34.4544 21.483C34.5763 21.4072 34.6836 21.3062 34.7902 21.2087C34.8343 21.1684 34.878 21.1105 34.8887 21.0543C34.9393 20.791 35.0002 20.5305 35.0704 20.2719C35.0809 20.2337 35.077 20.1892 35.0704 20.1491C35.0297 19.9056 34.9877 19.6623 34.943 19.4195C34.8986 19.1772 34.8467 18.9364 34.8063 18.6936C34.7968 18.636 34.8174 18.5728 34.828 18.5127C34.8422 18.4317 34.8706 18.3518 34.8745 18.2705C34.8926 17.89 34.5791 17.5375 34.205 17.5079C33.9407 17.487 33.7087 17.5553 33.544 17.7702C33.4421 17.9031 33.3321 18.0173 33.1919 18.112C32.9701 18.262 32.869 18.4826 32.8863 18.7523C32.8916 18.8348 32.9044 18.9168 32.9196 19.0482L32.9194 19.0483ZM26.7674 19.0708C26.7808 18.9174 26.7937 18.8147 26.7981 18.7115C26.8075 18.4916 26.7394 18.289 26.5606 18.1654C26.3697 18.0334 26.2331 17.857 26.075 17.6963C25.7724 17.3886 25.1444 17.4325 24.9106 17.8934C24.8246 18.063 24.7727 18.2411 24.8381 18.4317C24.872 18.5303 24.9142 18.6315 24.8745 18.7326C24.7827 18.9672 24.8166 19.2211 24.7439 19.4616C24.673 19.696 24.6301 19.9476 24.6293 20.1919C24.6287 20.3918 24.7089 20.5917 24.7512 20.792C24.7596 20.8321 24.7579 20.8744 24.7621 20.9154C24.7779 21.0684 24.8544 21.1895 24.9722 21.2812C25.0857 21.3696 25.1996 21.4628 25.327 21.5271C25.6636 21.6972 26.0802 21.505 26.2019 21.1815C26.2236 21.1239 26.2526 21.0643 26.2548 21.0048C26.2646 20.7444 26.3728 20.5274 26.5381 20.335C26.622 20.2373 26.6867 20.1255 26.6845 20.0007C26.6789 19.6701 26.8721 19.3578 26.7672 19.0708H26.7674Z" fill="#FCFCFC"/>
<path d="M26.8403 9.30815C26.9098 9.41116 26.9863 9.51027 27.0476 9.61796C27.1987 9.8836 27.1579 10.1388 26.9803 10.3752C26.8002 10.6151 26.4634 10.729 26.2022 10.5964C25.8118 10.3978 25.4079 10.3705 24.9895 10.4245C24.8434 10.4434 24.7003 10.4545 24.5559 10.4256C24.3814 10.3908 24.2278 10.4199 24.0985 10.5528C23.9926 10.6615 23.8506 10.7088 23.7078 10.7333C23.3385 10.7966 23.0635 11.0023 22.8333 11.2829C22.7807 11.3469 22.7372 11.4218 22.6745 11.4735C22.4688 11.6427 22.2346 11.7107 21.9782 11.6071C21.805 11.5372 21.64 11.4517 21.4504 11.424C21.3727 11.4128 21.3006 11.3589 21.2275 11.3212C21.0076 11.2079 20.7899 11.0902 20.5681 10.9809C20.5144 10.9546 20.4459 10.9382 20.3875 10.945C20.2235 10.9642 20.0598 10.9923 19.8987 11.029C19.8419 11.042 19.7853 11.0824 19.7425 11.1245C19.6243 11.2406 19.4959 11.3522 19.4043 11.4879C19.2866 11.662 19.1709 11.8236 18.9823 11.9336C18.8346 12.0196 18.7586 12.1794 18.7119 12.3408C18.6704 12.4842 18.6138 12.6138 18.5036 12.7165C18.3046 12.902 18.1712 13.1315 18.0396 13.3676C17.7994 13.7993 17.5974 14.2544 17.2806 14.6413C17.1857 14.7573 17.167 14.9035 17.1514 15.0511C17.1311 15.242 17.0532 15.4142 16.9028 15.5395C16.702 15.7066 16.5856 15.9175 16.5446 16.1727C16.5207 16.3214 16.4609 16.462 16.3476 16.553C16.1661 16.6986 16.0487 16.8944 15.8966 17.0607C15.7243 17.249 15.5913 17.4479 15.5129 17.6899C15.468 17.8288 15.3973 17.9608 15.2735 18.0474C15.0165 18.2272 14.8854 18.5339 14.613 18.697C14.5099 18.8838 14.351 19.0102 14.1804 19.1345C14.0674 19.2167 13.9714 19.34 13.9051 19.4647C13.8082 19.647 13.7284 19.8357 13.6032 20.0049C13.5478 20.0798 13.53 20.2037 13.5394 20.3013C13.5642 20.5608 13.5288 20.7982 13.3682 21.0092C13.2297 21.5072 12.9494 21.9474 12.789 22.4376C12.7171 22.6573 12.6534 22.8729 12.6645 23.1037C12.6715 23.2498 12.6649 23.3902 12.632 23.5352C12.5958 23.6951 12.614 23.8674 12.5769 24.0269C12.5398 24.1859 12.4558 24.3334 12.4058 24.4904C12.3103 24.7901 12.3233 25.1047 12.2967 25.4136C12.2879 25.5166 12.3269 25.6339 12.2902 25.7224C12.1839 25.979 12.2609 26.2592 12.1583 26.5162C12.0726 26.731 12.0644 26.9601 12.1293 27.1886C12.1644 27.3119 12.1475 27.4347 12.0998 27.5546C12.0038 27.7955 12.0269 28.0448 12.0622 28.292C12.1352 28.803 12.2231 29.3113 12.3234 29.8179C12.3596 30.0004 12.4856 30.058 12.6189 30.0909C12.8197 30.1405 13.0308 30.1496 13.233 30.0782C13.4667 29.9958 13.7012 29.9145 13.929 29.8174C13.9989 29.7876 14.0668 29.7176 14.1025 29.6487C14.3689 29.1362 14.6506 28.6333 14.9885 28.1636C15.1234 27.7824 15.4511 27.5341 15.6536 27.1993C15.7174 27.0938 15.7978 26.9971 15.8508 26.8869C15.9673 26.6453 16.0988 26.4054 16.1723 26.1499C16.2438 25.9014 16.3615 25.7037 16.5291 25.5089C16.7465 25.2564 16.8881 24.9471 16.8987 24.6056C16.9071 24.3367 16.9925 24.1203 17.2046 23.9554C17.3599 23.8346 17.4354 23.6646 17.493 23.4847C17.5372 23.3464 17.5976 23.2081 17.6112 23.0662C17.636 22.8059 17.7292 22.5898 17.9072 22.3978C17.9736 22.3263 18.0218 22.2156 18.031 22.1184C18.0525 21.8894 18.1463 21.6734 18.161 21.4506C18.1752 21.2343 18.3012 21.0584 18.3165 20.852C18.3307 20.6596 18.4193 20.4965 18.4825 20.3212C18.559 20.109 18.5835 19.8835 18.7265 19.6898C18.7926 19.6 18.8131 19.4486 18.7983 19.3324C18.7613 19.04 18.8721 18.7546 18.819 18.4648C18.8877 18.184 18.9116 17.8938 18.978 17.6146C19.0161 17.4551 19.0659 17.2976 19.0967 17.1344C19.1154 17.0345 19.1493 16.9254 19.2111 16.8483C19.3414 16.6855 19.4411 16.5073 19.5437 16.3275C19.6704 16.1051 19.9727 15.9969 20.1918 16.074C20.4927 16.18 20.6836 16.4639 20.616 16.749C20.5775 16.9115 20.5302 17.0671 20.5444 17.2374C20.5548 17.363 20.5119 17.4792 20.4639 17.5975C20.3546 17.8667 20.2714 18.1448 20.2786 18.4412C20.2841 18.6705 20.1754 18.8791 20.1743 19.1135C20.1732 19.3356 20.099 19.5599 20.0389 19.7783C19.9892 19.9585 19.9329 20.1335 19.9355 20.3247C19.9366 20.4033 19.9096 20.4946 19.8652 20.5594C19.7434 20.7365 19.7083 20.944 19.6459 21.1403C19.5898 21.3167 19.5833 21.5096 19.5213 21.6831C19.4595 21.8564 19.3158 21.9887 19.264 22.1779C19.2324 22.2927 19.1639 22.4011 19.1312 22.5228C19.0985 22.6444 19.0692 22.7561 19.1024 22.8863C19.1575 23.1018 19.082 23.2947 18.9565 23.4711C18.8485 23.6229 18.7478 23.7806 18.6344 23.9284C18.4785 24.1316 18.3797 24.3504 18.3678 24.612C18.3612 24.7567 18.3008 24.8929 18.2177 25.0167C18.2002 25.0426 18.208 25.0868 18.2074 25.1225C18.2069 25.1517 18.3261 25.1754 18.3804 25.1518C18.4744 25.1111 18.5635 25.0574 18.6598 25.0235C18.7761 24.9827 18.8961 24.9368 19.0169 24.9283C19.3067 24.9082 19.5917 24.8762 19.872 24.793C20.0821 24.7306 20.2833 24.7715 20.4623 24.9051C20.8417 25.1882 20.8055 25.7834 20.4022 26.0099C20.2333 26.1046 20.0535 26.1586 19.8658 26.0748C19.6933 25.9977 19.5546 26.0363 19.4021 26.1382C19.2672 26.2283 19.0985 26.2663 18.9568 26.3483C18.8315 26.4207 18.7108 26.4903 18.5721 26.5423C18.3029 26.6431 18.0482 26.7814 17.7772 26.8831C17.6222 26.9414 17.5018 27.0431 17.498 27.2504C17.4946 27.4403 17.3955 27.6064 17.2463 27.7355C17.1582 27.8115 17.1262 27.911 17.1918 28.0112C17.3535 28.2586 17.3257 28.5773 17.5068 28.8192C17.5514 28.8788 17.557 28.9786 17.5559 29.0596C17.5519 29.3541 17.7073 29.6152 17.7215 29.9083C17.727 30.0214 17.8088 30.1413 17.8815 30.2388C18.1279 30.5696 18.3801 30.8968 18.6943 31.1692C18.7257 31.1964 18.7574 31.2237 18.7858 31.2538C18.9125 31.3882 18.9855 31.5772 19.1717 31.6508C19.46 31.7648 19.7239 31.9475 20.0311 32.0026C20.3017 32.0512 20.5449 32.1231 20.7737 32.2912C20.9343 32.4092 21.1506 32.4524 21.3433 32.5251C21.4805 32.5768 21.6082 32.6389 21.7177 32.7413C21.7919 32.8105 21.8871 32.8563 21.9671 32.9199C22.391 33.2559 22.885 33.392 23.4135 33.4283C23.5363 33.4368 23.6604 33.4411 23.783 33.4332C23.9475 33.4226 24.1108 33.3904 24.2753 33.3818C24.4195 33.3742 24.565 33.3903 24.7096 33.3888C25.1991 33.3843 25.6392 33.2073 26.0631 32.9853C26.1753 32.9264 26.2853 32.8833 26.4096 32.8577C26.8257 32.7719 27.1935 32.6007 27.4498 32.2395C27.5346 32.1201 27.643 32.0199 27.7907 31.9794C28.0001 31.9218 28.142 31.7609 28.3071 31.638C28.3875 31.5783 28.463 31.4915 28.5024 31.4003C28.707 30.9277 28.9534 30.4737 29.1025 29.9759C29.1571 29.7933 29.1541 29.6071 29.2056 29.4281C29.1184 29.1609 29.241 28.8969 29.2148 28.6257C29.1872 28.3385 29.3331 28.1188 29.6069 27.977C30.0145 27.766 30.5592 28.1264 30.5363 28.5672C30.5233 28.8155 30.5102 29.0639 30.4924 29.3119C30.4648 29.6952 30.5872 30.0519 30.7306 30.3904C30.8427 30.6548 30.9204 30.9398 31.0947 31.1768C31.1859 31.5572 31.4791 31.7652 31.7922 31.9252C32.0029 32.0329 32.1691 32.1602 32.3185 32.3425C32.5487 32.6236 32.8724 32.7771 33.2229 32.8493C33.3898 32.8837 33.5327 32.9478 33.6836 33.0194C34.0944 33.2145 34.5141 33.4012 34.9839 33.3881C35.2948 33.3793 35.6021 33.4124 35.9111 33.4311C36.3277 33.4566 36.7377 33.3962 37.1344 33.264C37.2316 33.2315 37.334 33.1916 37.4116 33.1277C37.6039 32.9695 37.8484 32.8905 38.0214 32.7012C38.1195 32.5938 38.2686 32.5592 38.4062 32.5083C38.6371 32.4229 38.8782 32.3557 39.0728 32.1871C39.1846 32.0905 39.3286 32.0457 39.4755 32.0345C39.8604 32.005 40.1722 31.7822 40.5173 31.648C40.5736 31.6262 40.6388 31.5898 40.6679 31.5411C40.8193 31.2869 41.0712 31.1281 41.2584 30.9067C41.4318 30.7018 41.5999 30.4934 41.768 30.2844C41.9021 30.1177 41.9857 29.9392 41.9987 29.7212C42.0145 29.454 42.1651 29.2091 42.1412 28.933C42.1395 28.9133 42.1437 28.8885 42.1546 28.8729C42.3246 28.6294 42.3358 28.3238 42.4702 28.0677C42.5353 27.9438 42.5512 27.8344 42.4379 27.7339C42.2909 27.6033 42.2005 27.4377 42.1938 27.2452C42.1879 27.074 42.1014 26.9799 41.965 26.91C41.8913 26.8721 41.8184 26.8146 41.7407 26.8059C41.5431 26.7839 41.4055 26.6437 41.2339 26.5771C41.0607 26.5098 40.89 26.4532 40.7273 26.3516C40.5379 26.2333 40.3109 26.1788 40.1204 26.0485C40.0319 25.9881 39.919 26.0361 39.8213 26.0761C39.6301 26.1546 39.4527 26.104 39.2849 26.0091C38.9792 25.8362 38.908 25.481 39.0084 25.1954C39.1031 24.9255 39.4134 24.7215 39.6985 24.7748C39.9217 24.8164 40.1407 24.8935 40.3679 24.9024C40.6832 24.9148 40.9844 24.9577 41.2531 25.139C41.284 25.1599 41.3348 25.1603 41.3747 25.1564C41.4128 25.1526 41.4503 25.1329 41.4848 25.1144C41.4922 25.1103 41.4926 25.0777 41.4852 25.064C41.3966 24.8982 41.3259 24.7279 41.3162 24.5363C41.3064 24.344 41.2275 24.1747 41.1216 24.0181C41.0055 23.8466 40.8934 23.6709 40.762 23.5115C40.6201 23.3394 40.5449 23.144 40.5887 22.9348C40.6351 22.7132 40.5763 22.5152 40.4935 22.3313C40.4097 22.1448 40.3554 21.9416 40.2199 21.7754C40.1588 21.7001 40.1205 21.5871 40.1158 21.4891C40.1077 21.3184 40.032 21.1684 40.0038 21.0081C39.9496 20.7021 39.6799 20.4626 39.7408 20.1254C39.6489 19.8515 39.5999 19.5649 39.5367 19.2854C39.4738 19.0074 39.4419 18.7156 39.4145 18.4289C39.3985 18.2622 39.3764 18.0988 39.3331 17.9396C39.279 17.7406 39.1916 17.5497 39.1479 17.3488C39.1087 17.1689 39.1406 16.9813 39.0919 16.7945C39.0127 16.4906 39.1354 16.2568 39.3968 16.1199C39.6487 15.988 39.9598 16.0536 40.1162 16.2899C40.2409 16.4784 40.3247 16.6929 40.4864 16.8591C40.5274 16.9012 40.5617 16.9691 40.5639 17.0265C40.5764 17.3399 40.7767 17.6126 40.7561 17.9321C40.7534 17.9731 40.7501 18.0195 40.7656 18.0557C40.9259 18.4323 40.8553 18.8322 40.879 19.2211C40.8918 19.4321 40.8957 19.6308 41.0275 19.8113C41.0861 19.8917 41.1117 19.9978 41.1448 20.0948C41.1714 20.1728 41.1675 20.2671 41.2101 20.3326C41.3858 20.6028 41.3354 20.9419 41.4915 21.2158C41.4659 21.472 41.6241 21.6936 41.6263 21.9455C41.628 22.1392 41.6922 22.3154 41.8264 22.4565C41.9614 22.5983 42.0266 22.7656 42.0619 22.9548C42.0922 23.1176 42.1454 23.276 42.1872 23.4367C42.2462 23.6635 42.3486 23.8591 42.5406 24.0078C42.6953 24.1277 42.77 24.2994 42.7792 24.4968C42.8003 24.951 42.9738 25.3354 43.2941 25.6595C43.3645 25.7307 43.4299 25.8303 43.447 25.9259C43.4886 26.1569 43.6457 26.3375 43.7025 26.5549C43.8171 26.9938 44.1236 27.3067 44.3804 27.6534C44.4419 27.7364 44.5367 27.8058 44.5676 27.8978C44.6555 28.159 44.8874 28.3329 44.9689 28.5943C45.2157 28.9274 45.3986 29.2976 45.5955 29.66C45.6324 29.7279 45.7015 29.7947 45.7717 29.8249C45.9801 29.9145 46.1978 29.9816 46.409 30.0648C46.6109 30.1443 46.8181 30.1268 47.0244 30.1076C47.182 30.0929 47.3318 29.9579 47.3532 29.7934C47.3852 29.5479 47.5318 29.3236 47.4854 29.0647C47.5823 28.8303 47.5713 28.5768 47.6168 28.3335C47.6676 28.063 47.6719 27.7976 47.5848 27.5344C47.5447 27.413 47.538 27.2931 47.5669 27.167C47.624 26.9176 47.5663 26.681 47.514 26.4333C47.4464 26.1135 47.391 25.7856 47.3862 25.4541C47.3833 25.2678 47.3762 25.081 47.3587 24.8956C47.3471 24.7723 47.3242 24.6479 47.2881 24.5296C47.2343 24.3526 47.1486 24.1843 47.1062 24.0053C47.0686 23.8464 47.0717 23.6777 47.0561 23.5135C47.0444 23.3907 47.0096 23.2655 47.0233 23.1457C47.0579 22.8429 46.9646 22.5609 46.8497 22.3024C46.7413 22.0583 46.6718 21.7978 46.532 21.5643C46.3731 21.2992 46.3239 20.9836 46.1766 20.7077C46.124 20.6093 46.1532 20.4647 46.1538 20.3412C46.1547 20.17 46.1246 20.0161 46.0044 19.8805C45.938 19.8054 45.8961 19.7057 45.8545 19.612C45.7511 19.38 45.6138 19.179 45.3903 19.0454C45.3376 19.0138 45.2792 18.9775 45.2473 18.9278C45.1217 18.7326 44.9311 18.6016 44.7802 18.4342C44.6418 18.2806 44.5032 18.1301 44.3545 17.9864C44.2828 17.9171 44.2319 17.8185 44.1932 17.7242C44.1066 17.5129 44.0354 17.2917 43.8574 17.1375C43.6835 16.9871 43.617 16.7505 43.4118 16.6233C43.2665 16.5332 43.1809 16.3765 43.1518 16.2106C43.1031 15.9331 42.9857 15.704 42.7681 15.5231C42.6341 15.4117 42.564 15.2547 42.5437 15.0886C42.5151 14.8539 42.432 14.6625 42.2781 14.4746C42.1106 14.2702 41.9975 14.0195 41.8712 13.7832C41.7349 13.5284 41.6112 13.2671 41.4436 13.0298C41.3722 12.9289 41.3179 12.8199 41.2143 12.7399C41.0986 12.6504 41.0239 12.5267 40.9872 12.3775C40.9302 12.146 40.7959 11.9717 40.5844 11.8489C40.4993 11.7994 40.4219 11.7117 40.377 11.623C40.2789 11.4301 40.0991 11.316 39.9674 11.1568C39.8984 11.0735 39.8032 11.0329 39.6965 11.0189C39.6141 11.0079 39.5281 11.0073 39.4505 10.9816C39.3013 10.9321 39.1546 10.9357 39.0338 11.0276C38.8492 11.1684 38.6026 11.1791 38.4279 11.3404C38.3714 11.3925 38.2808 11.4204 38.2016 11.4325C38.0335 11.4582 37.887 11.5345 37.7331 11.597C37.4415 11.7153 37.1605 11.6428 36.9432 11.4044C36.9017 11.3588 36.8741 11.3006 36.8333 11.2542C36.6097 10.9992 36.3533 10.7985 36.0052 10.7392C35.9042 10.722 35.7798 10.7041 35.7146 10.6385C35.4799 10.4021 35.2078 10.3929 34.9088 10.4451C34.8308 10.4589 34.7449 10.4245 34.6624 10.4169C34.2645 10.3801 33.8741 10.3907 33.5112 10.5908C33.165 10.7816 32.5713 10.5183 32.551 9.93759C32.5488 9.87704 32.5616 9.81196 32.5838 9.7553C32.6291 9.6395 32.6854 9.52805 32.7372 9.4149C32.9565 9.28583 33.1831 9.24011 33.4461 9.2476C33.8155 9.25805 34.194 9.22029 34.5364 9.05173C34.7992 8.92235 35.0508 8.915 35.3107 9.05266C35.5682 9.18907 35.8554 9.23527 36.1348 9.30004C36.2802 9.33375 36.4274 9.37136 36.5256 9.47796C36.7706 9.7439 37.0904 9.88905 37.3874 10.0768C37.6146 10.2204 37.8107 10.202 38.0284 10.1221C38.105 10.094 38.1701 10.0362 38.2434 9.99752C38.2979 9.96865 38.355 9.93557 38.4143 9.92683C38.8025 9.86955 39.1825 9.77294 39.5668 9.69678C39.6247 9.68538 39.693 9.69786 39.7505 9.71722C40.0835 9.82896 40.4141 9.94758 40.7467 10.0606C40.9285 10.1224 41.0919 10.2123 41.196 10.3774C41.265 10.487 41.3619 10.5609 41.4598 10.6377C41.6308 10.772 41.7415 10.9427 41.7573 11.1639C41.7715 11.3641 41.8759 11.5177 42.0163 11.6436C42.1609 11.7733 42.2458 11.9255 42.3094 12.1092C42.3833 12.3219 42.4866 12.5296 42.6085 12.7196C42.8652 13.1197 43.1259 13.517 43.3685 13.9263C43.4722 14.1011 43.6259 14.2499 43.7723 14.3949C43.9107 14.532 44.0105 14.6809 44.032 14.877C44.0562 15.0969 44.1683 15.2673 44.3385 15.4001C44.5097 15.5337 44.6249 15.6973 44.6533 15.9173C44.6863 16.172 44.8806 16.3561 44.9564 16.5945C44.9781 16.6627 45.0636 16.7222 45.1337 16.7611C45.3009 16.8536 45.4324 16.9766 45.5531 17.125C45.6559 17.2515 45.809 17.3365 45.9164 17.4601C46.0255 17.5859 46.1285 17.7108 46.2676 17.8085C46.3492 17.8658 46.4262 17.953 46.4652 18.0438C46.606 18.3717 46.8363 18.6374 47.0442 18.9188C47.1318 19.0374 47.2151 19.1572 47.2315 19.3065C47.2618 19.5829 47.3872 19.8202 47.5302 20.0489C47.5981 20.1575 47.648 20.2696 47.6641 20.394C47.6857 20.5599 47.7192 20.72 47.7918 20.8733C47.8264 20.9465 47.8486 21.032 47.8513 21.1127C47.8656 21.5514 48.0136 21.9656 48.0791 22.3948C48.0916 22.4761 48.1066 22.5682 48.1531 22.6313C48.3689 22.9239 48.3872 23.2924 48.5422 23.6073C48.609 23.7431 48.629 23.8959 48.5703 24.0319C48.4813 24.2382 48.5072 24.447 48.5484 24.6454C48.6368 25.0702 48.7092 25.4966 48.7719 25.9256C48.793 26.0695 48.8098 26.2086 48.8109 26.3553C48.8125 26.5596 48.8525 26.763 48.9391 26.9566C48.9886 27.0673 49.0255 27.1975 49.0196 27.3164C48.9987 27.7306 49.0101 28.1431 49.0405 28.5559C48.945 28.8955 49.0544 29.2601 48.8997 29.5974C48.83 29.7496 48.5876 30.3988 48.5397 30.5563C48.4345 30.9018 48.137 31.0751 47.9093 31.3079C47.7926 31.4273 47.6104 31.4801 47.4462 31.45C47.2391 31.412 47.0373 31.4169 46.8302 31.4161C46.6456 31.4153 46.46 31.3891 46.2724 31.3941C46.1722 31.3967 46.0617 31.3754 45.9723 31.3313C45.857 31.2747 45.7388 31.2522 45.6165 31.228C45.4722 31.1996 45.3446 31.1322 45.232 31.0334C45.1551 30.9658 45.073 30.9006 44.9839 30.8511C44.8163 30.7583 44.6789 30.6465 44.5937 30.4653C44.542 30.3558 44.4408 30.2707 44.3735 30.1669C44.2716 30.0096 44.1473 29.8725 44.0272 29.7302C43.9231 29.6069 43.8638 29.4463 43.7768 29.3071C43.7642 29.2868 43.6852 29.2773 43.6744 29.2913C43.4594 29.5749 43.2943 29.8928 43.2435 30.2406C43.1973 30.5561 42.9927 30.8118 42.9673 31.1267C42.8908 31.2238 42.8282 31.3376 42.7352 31.4145C42.4482 31.6518 42.1885 31.9143 41.9394 32.1897C41.8717 32.2648 41.7861 32.3454 41.6937 32.373C41.1114 32.5475 40.6186 32.898 40.0865 33.171C39.8792 33.367 39.6326 33.4494 39.3483 33.4471C39.1757 33.4455 39.1071 33.5867 39.0492 33.7213C39.0364 33.7509 39.045 33.8063 39.0661 33.8309C39.1501 33.929 39.2645 33.985 39.3896 34.0027C39.5122 34.0198 39.64 34.0025 39.7612 34.0239C40.1761 34.0973 40.4907 34.4361 40.4157 34.9265C40.3858 35.1216 40.2966 35.282 40.1374 35.3956C39.9857 35.5039 39.8312 35.6115 39.6662 35.6972C39.5353 35.7652 39.4174 35.839 39.318 35.9497C39.264 36.0099 39.1927 36.0749 39.1184 36.0933C38.8078 36.1699 38.6026 36.4449 38.2931 36.5181C38.1241 36.6725 37.9105 36.7597 37.7292 36.9003C37.4522 37.1151 37.1898 37.3487 36.8901 37.5382C36.6298 37.7028 36.3999 37.9179 36.1663 38.1219C36.0099 38.2585 35.8763 38.4158 35.8081 38.6221C35.7542 38.7852 35.6417 38.9119 35.4877 38.9892C35.2952 39.0858 35.1891 39.2767 35.0207 39.398C34.7477 39.8175 34.3448 40.1192 34.024 40.4962C33.851 40.6998 33.6192 40.8538 33.4494 41.0595C33.2093 41.3503 32.9211 41.583 32.627 41.8079C32.2927 42.0638 32.038 42.39 31.7858 42.7162C31.5966 42.9609 31.4918 43.2596 31.3883 43.5509C31.3313 43.711 31.2612 43.8554 31.1404 43.976C31.002 44.1145 30.9397 44.2811 30.9446 44.4804C30.9482 44.6267 30.8953 44.7609 30.8224 44.8925C30.5644 45.3588 30.5271 45.8812 30.4742 46.3954C30.4578 46.5556 30.5224 46.7223 30.5279 46.8868C30.538 47.1889 30.3807 47.4073 30.1224 47.5362C29.8887 47.6529 29.6342 47.6613 29.4094 47.5082C29.2395 47.3924 29.1045 47.2204 28.9272 47.1213C28.7382 47.0158 28.5898 46.8864 28.4719 46.7102C28.4246 46.6395 28.3514 46.5921 28.2647 46.5863C27.9831 46.5676 27.7555 46.4468 27.5394 46.2668C27.3825 46.1362 27.1909 46.0365 26.9774 46.014C26.8048 45.9959 26.6601 45.9261 26.5304 45.8145C26.3952 45.6981 26.237 45.6697 26.0645 45.7026C25.8724 45.7395 25.6813 45.7184 25.527 45.6027C25.3676 45.4832 25.1715 45.494 25.0051 45.4109C24.839 45.3281 24.6772 45.238 24.5071 45.1609C24.2737 45.0554 24.0072 45.0791 23.7924 44.9554C23.5792 44.8325 23.3932 44.6629 23.1951 44.5137C23.1786 44.5012 23.1627 44.485 23.1438 44.4787C22.8664 44.3863 22.6354 44.2092 22.3839 44.0697C22.2384 43.989 22.0898 43.9211 21.9701 43.7989C21.8209 43.6465 21.6374 43.5537 21.4214 43.5304C21.2522 43.5123 21.1069 43.4432 20.9667 43.3439C20.7659 43.2019 20.5074 43.1704 20.3151 42.9949C20.1968 42.8871 20.0184 42.8479 19.8862 42.7516C19.7537 42.655 19.6507 42.5227 19.4981 42.4442C19.388 42.3875 19.3105 42.2837 19.2604 42.1639C19.1964 42.0109 19.114 41.8647 19.0619 41.708C18.9873 41.4839 18.9849 41.2566 19.1209 41.0489C19.2821 40.8024 19.3927 40.5409 19.4196 40.2428C19.4285 40.1441 19.4697 40.0385 19.5254 39.9556C19.722 39.6628 19.9001 39.3611 20.0456 39.0394C20.0788 38.9658 20.1425 38.9062 20.1907 38.839C20.4212 38.5186 20.6452 38.1946 20.709 37.7917C20.9035 37.4308 20.9436 36.9933 21.255 36.6903C21.3322 36.4407 21.5053 36.2693 21.7021 36.1076C21.8122 36.0173 21.8869 35.888 21.9186 35.7376C21.9397 35.6379 21.9637 35.5191 22.0302 35.4526C22.2131 35.2695 22.273 35.0212 22.4074 34.8138C22.5747 34.5555 22.5721 34.5494 22.3266 34.4249C22.1602 34.3404 21.9952 34.2407 21.8175 34.1948C21.5949 34.1372 21.3933 34.0297 21.1785 33.9651C20.9074 33.8836 20.6839 33.7653 20.5213 33.5295C20.4756 33.4632 20.3897 33.4325 20.3003 33.4377C20.0607 33.4517 19.8712 33.3462 19.6673 33.2262C19.1346 32.9127 18.615 32.5678 18.0151 32.3827C17.9394 32.3592 17.8532 32.311 17.8112 32.2481C17.6583 32.0196 17.4109 31.8876 17.2469 31.6728C17.2343 31.6563 17.2219 31.6396 17.2088 31.6235C17.078 31.4636 16.8431 31.4071 16.7653 31.1982C16.6573 30.9087 16.5391 30.6195 16.4695 30.32C16.3837 29.9506 16.2352 29.6171 16.0248 29.3065C15.995 29.2625 15.9026 29.276 15.8799 29.3364C15.7903 29.5737 15.6459 29.7664 15.4656 29.9462C15.3213 30.0903 15.2042 30.2691 15.1054 30.4491C15.0112 30.6209 14.8925 30.7503 14.7212 30.8417C14.6313 30.8897 14.5536 30.9599 14.4683 31.0173C14.383 31.0749 14.3012 31.1436 14.2075 31.1818C14.0171 31.2596 13.8055 31.2695 13.6182 31.3682C13.5503 31.4039 13.4557 31.3914 13.373 31.3964C13.0031 31.4184 12.6318 31.3827 12.2618 31.4473C12.0742 31.4801 11.888 31.4139 11.7427 31.2833C11.5888 31.1448 11.4446 30.9956 11.301 30.8463C11.2589 30.8024 11.2189 30.7464 11.2036 30.6891C11.1646 30.543 11.0763 30.4325 10.9846 30.318C10.9213 30.2387 10.8428 30.1371 10.8442 30.0466C10.8493 29.7101 10.7084 29.4031 10.6847 29.0702C10.6435 28.4899 10.6984 27.9113 10.6686 27.3323C10.6625 27.2129 10.7012 27.0864 10.7412 26.9705C10.8295 26.7147 10.8699 26.4574 10.8871 26.1849C10.9169 25.7118 11.0104 25.2441 11.1095 24.7791C11.1615 24.5353 11.2111 24.2911 11.1221 24.0437C11.0705 23.9 11.0917 23.7595 11.1418 23.6173C11.2035 23.4427 11.3143 23.2835 11.3083 23.0862C11.3073 23.0477 11.3268 23.003 11.3497 22.9702C11.7104 22.4526 11.6998 21.8305 11.827 21.2486C11.8574 21.1093 11.8507 20.9597 11.9148 20.8264C11.979 20.6933 12.0132 20.5546 12.0241 20.4074C12.0335 20.2811 12.085 20.1702 12.1494 20.0598C12.2429 19.8995 12.328 19.7324 12.3962 19.5599C12.4564 19.4073 12.4609 19.228 12.5394 19.0883C12.6705 18.8553 12.833 18.6382 12.9983 18.427C13.0763 18.3273 13.1438 18.2297 13.1876 18.1103C13.2154 18.0345 13.2594 17.9499 13.3218 17.9042C13.5581 17.7311 13.7119 17.4745 13.9446 17.3017C14.0469 17.2255 14.129 17.1381 14.206 17.039C14.2562 16.9744 14.3196 16.9178 14.3847 16.8674C14.4985 16.7793 14.6734 16.7455 14.7232 16.6052C14.8065 16.3698 14.9966 16.1844 15.0299 15.9305C15.0586 15.7104 15.1679 15.5428 15.3386 15.4093C15.5276 15.2615 15.6437 15.0758 15.6624 14.8302C15.674 14.6791 15.7483 14.5441 15.8624 14.4526C16.1452 14.226 16.3318 13.9277 16.5023 13.62C16.653 13.3478 16.8327 13.0957 17.0015 12.8362C17.1715 12.5749 17.3388 12.3147 17.4112 12.0059C17.4409 11.8796 17.5199 11.7813 17.6148 11.6989C17.7935 11.5434 17.9174 11.3641 17.9344 11.1173C17.9399 11.0382 17.9804 10.9578 18.019 10.8854C18.1588 10.6235 18.441 10.4926 18.6078 10.2502C18.6895 10.1316 18.8462 10.0943 18.9862 10.0481C19.3 9.94446 19.609 9.82616 19.9231 9.72284C19.9988 9.69802 20.0935 9.68382 20.1664 9.70661C20.347 9.76295 20.538 9.75967 20.7145 9.80836C20.8949 9.85815 21.0725 9.90185 21.2583 9.92448C21.3365 9.934 21.4187 9.97474 21.4827 10.0231C21.6214 10.1279 21.7836 10.1622 21.945 10.1971C22.0009 10.2093 22.0765 10.2028 22.1232 10.1733C22.4709 9.95352 22.8705 9.81446 23.1527 9.4892C23.2277 9.40258 23.3616 9.34561 23.4784 9.32063C23.8423 9.24244 24.1965 9.13945 24.5375 8.98977C24.6759 8.92906 24.8226 8.91688 24.9619 8.97977C25.424 9.1886 25.9052 9.27288 26.4121 9.2426C26.553 9.23417 26.6975 9.28474 26.8405 9.3083L26.8403 9.30815ZM24.651 34.6727C24.3959 34.6396 24.2005 34.7518 24.0665 34.9514C23.9402 35.1392 23.8495 35.3505 23.7359 35.5473C23.6743 35.6541 23.6 35.7538 23.5276 35.8539C23.4553 35.9537 23.378 36.0504 23.3031 36.1484C23.2407 36.2302 23.1911 36.3277 23.1135 36.3911C22.8987 36.5668 22.7829 36.805 22.6454 37.0364C22.4461 37.3717 22.3414 37.7654 22.0383 38.0375C21.7955 38.4447 21.4944 38.8227 21.343 39.2764C21.2569 39.5345 21.1045 39.7558 21.0067 40.0076C20.9107 40.2548 20.8263 40.5173 20.6739 40.7378C20.563 40.8984 20.533 41.081 20.4657 41.2532C20.4314 41.3412 20.461 41.4281 20.5333 41.4684C20.9296 41.6891 21.3029 41.9525 21.7333 42.11C21.8098 42.1379 21.8902 42.1767 21.9476 42.2321C22.1677 42.4449 22.4396 42.5336 22.7303 42.5831C22.9017 42.6123 23.0401 42.6975 23.153 42.8269C23.1803 42.8581 23.2003 42.8969 23.231 42.9239C23.5414 43.1961 23.8364 43.4912 24.2715 43.5655C24.3707 43.5824 24.4768 43.622 24.5558 43.6824C24.7766 43.8515 25.0385 43.9265 25.2957 43.9819C25.601 44.0478 25.8677 44.232 26.1859 44.2473C26.2235 44.2491 26.2651 44.2763 26.2953 44.3027C26.5101 44.4896 26.7562 44.5639 27.0414 44.5466C27.2087 44.5365 27.3711 44.5858 27.5063 44.6958C27.7532 44.8967 28.0415 45.008 28.3469 45.077C28.5406 45.1207 28.6868 45.2249 28.7978 45.385C28.8332 45.4362 28.8646 45.4904 28.9013 45.5408C28.9431 45.5982 29.0948 45.6786 29.106 45.6533C29.1561 45.5402 29.188 45.4156 29.2549 45.3139C29.3862 45.1146 29.3437 44.8664 29.4586 44.6635C29.4978 44.5944 29.5151 44.5081 29.5237 44.4275C29.5423 44.2543 29.6105 44.1043 29.7302 43.984C29.8987 43.8146 29.998 43.6171 30.0173 43.3804C30.028 43.2515 30.0723 43.1359 30.1531 43.0383C30.2349 42.9397 30.2789 42.8265 30.3215 42.7087C30.3641 42.5912 30.4252 42.4797 30.5293 42.4033C30.7354 42.2519 30.8542 42.0309 30.9951 41.8275C31.0537 41.7429 31.098 41.6455 31.1681 41.5727C31.5394 41.1867 31.9695 40.8571 32.279 40.4115C32.4725 40.3102 32.5379 40.0923 32.6979 39.9559C32.8856 39.7959 33.0859 39.6302 33.2129 39.4249C33.3607 39.1862 33.6092 39.0611 33.7637 38.8387C33.8692 38.6867 34.0197 38.573 34.1113 38.403C34.2084 38.2229 34.3871 38.0982 34.484 37.9096C34.5973 37.6893 34.8573 37.6616 35.0318 37.5231C35.3229 37.2918 35.5999 37.042 35.8741 36.7904C36.0261 36.6511 36.1697 36.5022 36.3058 36.345C36.44 36.1899 36.6426 36.1115 36.7906 35.9592C36.9179 35.828 37.0994 35.7505 37.2065 35.5906C37.5304 35.4105 37.7265 35.0488 38.1117 34.9546C38.1618 34.9424 38.1752 34.8428 38.1422 34.794C38.0371 34.6382 37.923 34.4924 37.7538 34.3985C37.6574 34.3451 37.5545 34.3119 37.4601 34.3749C37.2438 34.5193 37.0156 34.5916 36.7545 34.5479C36.7164 34.5415 36.6741 34.5638 36.6332 34.57C36.225 34.6312 35.8047 34.58 35.4022 34.7016C35.3655 34.7127 35.3185 34.7013 35.2793 34.6899C35.1765 34.6596 35.0761 34.6587 34.9731 34.69C34.849 34.7278 34.726 34.7181 34.609 34.6618C34.3446 34.5344 34.0696 34.4654 33.7732 34.4551C33.526 34.4466 33.2922 34.3378 33.0402 34.3264C32.9439 34.322 32.8288 34.27 32.76 34.2017C32.547 33.9905 32.2375 33.9515 32.0166 33.7605C31.678 33.6891 31.4651 33.4027 31.1665 33.2598C31.0814 33.219 31.0097 33.1187 30.9661 33.0291C30.8539 32.7981 30.6875 32.6164 30.4823 32.4744C30.2527 32.3154 30.0949 32.1081 29.9875 31.8551C29.9602 31.791 29.9089 31.7801 29.8607 31.8245C29.7545 31.9227 29.6309 32.0098 29.551 32.1264C29.4542 32.2676 29.3359 32.3739 29.202 32.4749C29.0032 32.6249 28.8259 32.7955 28.7224 33.033C28.6631 33.1691 28.5542 33.2827 28.4185 33.335C28.2567 33.3971 28.1439 33.5181 28.0056 33.6066C27.8676 33.6949 27.6953 33.7324 27.5644 33.828C27.3629 33.9752 27.1069 34.0183 26.9232 34.202C26.8232 34.302 26.6702 34.3478 26.5207 34.3489C26.3724 34.35 26.2357 34.3955 26.0943 34.4278C25.934 34.4643 25.7669 34.4706 25.603 34.492C25.4593 34.5107 25.3211 34.5363 25.1897 34.6129C25.0248 34.7091 24.8412 34.7492 24.6506 34.6724L24.651 34.6727Z" fill="#070607"/>
<path d="M15.0209 39.9907C15.0602 40.2056 14.9697 40.4552 14.8867 40.7138C14.8114 40.9479 14.7095 41.1758 14.6763 41.4255C14.6636 41.5202 14.6029 41.6228 14.5346 41.6928C14.4047 41.8258 14.2738 41.9532 14.1678 42.1097C14.0138 42.3373 13.7754 42.4198 13.514 42.3756C13.2515 42.3312 12.9843 42.2911 12.7432 42.1584C12.6355 42.0991 12.5181 42.0546 12.4012 42.0151C12.2575 41.9664 12.1399 41.8832 12.0627 41.7567C11.9086 41.5043 11.7114 41.3037 11.4521 41.1563C11.2826 41.0598 11.1723 40.8986 11.1637 40.7016C11.1554 40.5099 11.0829 40.3406 11.032 40.1629C10.9717 39.952 11.0037 39.7529 11.1135 39.5656C11.1968 39.4232 11.2826 39.2821 11.3688 39.1415C11.5403 38.8609 11.9335 38.6972 12.2949 38.8679C12.4624 38.9471 12.6146 39.0586 12.8048 39.0855C12.8519 39.0922 12.8868 39.087 12.9081 39.041C12.9514 38.9477 12.9862 38.8497 13.0361 38.7602C13.1783 38.5051 13.3949 38.3655 13.6913 38.3657C13.8775 38.3657 14.0646 38.3627 14.2494 38.3799C14.5174 38.4049 14.7192 38.5414 14.8158 38.7977C14.8885 38.9904 14.9288 39.1941 15.0282 39.3792C15.0647 39.4473 15.0635 39.5409 15.0619 39.6225C15.0599 39.7252 15.0399 39.8276 15.0206 39.991L15.0209 39.9907Z" fill="#FF8CBD"/>
<path d="M50.5525 33.6559C50.4248 33.2872 50.6497 32.967 50.6884 32.6227C50.7093 32.436 50.8604 32.2982 51.0454 32.2208C51.2164 32.1491 51.3834 32.0672 51.5562 32.0001C51.9877 31.8325 52.4024 32.0794 52.4767 32.5442C52.4962 32.6661 52.5048 32.7901 52.5312 32.9105C52.5646 33.0636 52.6501 33.1184 52.7932 33.0967C52.8547 33.0873 52.9229 33.094 52.9769 33.0692C53.3857 32.8811 53.7907 33.003 54.1924 33.0856C54.5069 33.1502 54.731 33.4745 54.6765 33.7856C54.6445 33.9686 54.613 34.1509 54.5865 34.3351C54.5525 34.5709 54.4293 34.7696 54.2052 34.8684C54.0134 34.9528 53.8498 35.0758 53.6742 35.1832C53.518 35.2787 53.3257 35.3082 53.1817 35.4362C53.138 35.4751 53.0718 35.4919 53.0133 35.5097C52.9543 35.5276 52.8833 35.5592 52.8321 35.5418C52.5622 35.4505 52.3014 35.663 52.0372 35.5604C51.8708 35.496 51.7174 35.5325 51.5523 35.5689C51.1896 35.6489 50.8782 35.4557 50.8009 35.1006C50.7306 34.7769 50.6756 34.4503 50.5512 34.1409C50.4858 33.9782 50.5428 33.8146 50.5525 33.6557V33.6559Z" fill="#FF8CBD"/>
<path d="M27.8158 9.89339C27.8118 9.76416 27.8076 9.63493 27.8037 9.50508C27.8305 9.44999 27.8884 9.38897 27.8786 9.34215C27.819 9.05591 27.932 8.76342 27.8305 8.47718C27.7807 8.33656 27.8655 8.19345 27.8954 8.05221C27.926 7.90737 27.9292 7.76487 27.8474 7.63096C27.7578 7.48457 27.7278 7.32163 27.7375 7.15276C27.7589 6.77913 27.6072 6.46541 27.3849 6.18605C27.2655 6.0359 27.1633 5.88935 27.1376 5.69567C27.1204 5.56582 27.0434 5.46812 26.9456 5.38602C26.7558 5.22652 26.5632 5.07029 26.3764 4.90735C26.0491 4.62205 26.0805 4.14836 26.4304 3.88803C26.6203 3.74663 26.9969 3.76787 27.1372 3.88055C27.298 4.00931 27.4422 4.15679 27.6229 4.26386C27.705 4.3124 27.7721 4.41198 27.8107 4.50344C27.9036 4.72319 28.0454 4.88846 28.253 5.00583C28.4679 5.12741 28.5892 5.32874 28.6012 5.56488C28.6232 5.99923 28.8164 6.35757 29.0443 6.70701C29.0782 6.75898 29.1219 6.80628 29.1478 6.86168C29.2281 7.03367 29.2884 7.21269 29.2121 7.40153C29.1208 7.62721 29.1208 7.83963 29.245 8.05751C29.3171 8.18424 29.3402 8.33469 29.311 8.48093C29.2578 8.74875 29.2931 9.0158 29.3024 9.28315C29.3113 9.3835 29.3191 9.48416 29.3296 9.58452C29.3592 9.87076 29.2695 10.1085 29.041 10.2878C28.7885 10.486 28.3811 10.4933 28.1261 10.2937C28.0314 10.2196 27.959 10.1169 27.8764 10.0273C27.8923 9.96659 27.8855 9.91586 27.8162 9.89323L27.8158 9.89339Z" fill="#070607"/>
<path d="M6.69802 11.52C6.86299 11.5158 7.02421 11.5706 7.13362 11.7031C7.41424 12.0427 7.81347 12.239 8.12343 12.5424C8.17961 12.5974 8.26405 12.6439 8.34068 12.6539C8.58649 12.686 8.81545 12.8 9.07188 12.7845C9.26869 12.7726 9.4413 12.8646 9.56491 13.01C9.78045 13.2635 10.0771 13.4222 10.2995 13.6662C10.3687 13.7419 10.4703 13.7923 10.526 13.875C10.6495 14.0585 10.8244 14.1581 11.0229 14.228C11.1406 14.2694 11.2569 14.3084 11.3493 14.3994C11.5366 14.5837 11.5963 14.8556 11.4951 15.0847C11.3783 15.3491 11.1202 15.532 10.8569 15.4832C10.6512 15.4449 10.4463 15.4459 10.2413 15.4246C10.1121 15.4114 9.99411 15.3575 9.91311 15.2631C9.75157 15.075 9.57911 14.8993 9.4015 14.7268C9.33049 14.6578 9.29834 14.5497 9.24325 14.4628C9.1855 14.3716 9.10434 14.307 8.99275 14.3003C8.82123 14.2898 8.67639 14.2218 8.53452 14.1277C8.15589 13.8764 7.75494 13.6666 7.32044 13.5276C7.19823 13.4884 7.07915 13.4322 7.01204 13.3295C6.83677 13.0615 6.60828 12.8819 6.31877 12.7353C5.92437 12.5357 5.89721 11.9745 6.23027 11.6767C6.36137 11.5596 6.4867 11.5166 6.69786 11.52H6.69802Z" fill="#12C0B5"/>
<path d="M53.3652 11.543C53.3708 11.8657 53.251 12.0728 53.0248 12.2169C52.9565 12.2604 52.8717 12.2773 52.7973 12.3124C52.6083 12.4015 52.4335 12.5062 52.3273 12.6996C52.2557 12.8299 52.1428 12.9287 52.0088 12.9877C51.8725 13.0476 51.7577 13.1282 51.6573 13.2357C51.5067 13.3973 51.2626 13.3685 51.1023 13.4942C50.9425 13.6195 50.8194 13.7906 50.6691 13.9298C50.6113 13.9833 50.5186 13.9969 50.4495 14.0406C50.2753 14.1506 50.0958 14.2521 49.9873 14.4431C49.842 14.6992 49.6053 14.8072 49.3179 14.8319C49.1736 14.8444 49.0337 14.8746 48.8872 14.8339C48.5816 14.7487 48.3732 14.5182 48.347 14.2244C48.3183 13.9025 48.4344 13.6535 48.7238 13.5028C48.8514 13.4363 48.9888 13.3806 49.128 13.3453C49.3791 13.2818 49.5873 13.1597 49.7445 12.9548C49.8503 12.8168 49.993 12.7355 50.1534 12.6854C50.3023 12.6389 50.407 12.5446 50.4732 12.4099C50.5586 12.2362 50.6798 12.1037 50.8532 12.0141C50.9255 11.9768 50.9957 11.9258 51.0503 11.866C51.2095 11.692 51.3912 11.5668 51.6317 11.5367C51.7617 11.5205 51.8583 11.4354 51.9446 11.3463C52.0163 11.2723 52.0653 11.1763 52.1379 11.1036C52.4633 10.7776 53.0587 10.8213 53.2925 11.294C53.3373 11.3844 53.3504 11.4905 53.3649 11.5428L53.3652 11.543Z" fill="#12C0B5"/>
<path d="M31.9145 0.791271C31.902 0.848393 31.8869 0.973092 31.8463 1.0889C31.7958 1.2328 31.7825 1.38512 31.8267 1.51747C31.9355 1.84335 31.8919 2.17797 31.9028 2.50573C31.9233 3.12549 31.898 3.74681 31.8874 4.36751C31.8819 4.68918 31.6555 4.98134 31.3599 5.06234C31.0299 5.1527 30.719 5.05329 30.525 4.79686C30.42 4.65812 30.37 4.50032 30.3871 4.32942C30.4034 4.16539 30.4517 4.00402 30.4631 3.83999C30.4902 3.44794 30.5074 3.0551 30.5217 2.66227C30.5353 2.29097 30.5199 1.91811 30.6238 1.55446C30.6589 1.43179 30.6393 1.30756 30.5751 1.19316C30.5447 1.139 30.5185 1.0825 30.4904 1.02709C30.3135 0.677961 30.5111 0.22925 30.8448 0.0764556C31.2153 -0.0931949 31.6269 0.0262031 31.8223 0.368001C31.8838 0.475535 31.9155 0.59103 31.9147 0.791271H31.9145Z" fill="#12C0B5"/>
<path d="M32.2076 9.274C32.1032 9.39948 32.1609 9.5493 32.1463 9.68789C32.1113 10.0167 31.9069 10.2527 31.579 10.3286C31.0049 10.4615 30.623 9.93651 30.694 9.52152C30.7143 9.40275 30.7895 9.29272 30.7471 9.16442C30.7825 9.00351 30.7515 8.83433 30.8265 8.67607C30.8693 8.58571 30.8872 8.47771 30.8918 8.37658C30.9005 8.18071 30.9592 8.00638 31.0948 7.86809C31.2894 7.67004 31.4037 7.42704 31.4905 7.1728C31.5465 7.00892 31.6266 6.87359 31.7577 6.76372C31.8048 6.72423 31.8538 6.68054 31.8844 6.62857C32.0402 6.36356 32.2473 6.18782 32.5689 6.14927C32.6847 6.13538 32.7929 6.04751 32.902 5.98867C33.1949 5.83088 33.6224 6.07904 33.6728 6.39384C33.7083 6.61452 33.6711 6.81086 33.4993 6.96053C33.3889 7.05651 33.2918 7.1564 33.2162 7.28391C33.1648 7.37037 33.089 7.45622 33.0028 7.50475C32.8338 7.59996 32.7411 7.77101 32.5917 7.87995C32.4423 7.98889 32.3793 8.12156 32.3901 8.3051C32.396 8.40639 32.3952 8.5225 32.352 8.60912C32.246 8.82138 32.2438 9.04987 32.2073 9.27352L32.2076 9.274Z" fill="#070607"/>
<path d="M30.0698 27.5318C29.7823 27.5658 29.5664 27.557 29.3582 27.4181C29.1865 27.3036 28.9785 27.2589 28.7717 27.2238C28.5396 27.1843 28.3413 27.0801 28.203 26.8786C28.1565 26.8109 28.1101 26.7303 28.0429 26.6918C27.7889 26.5465 27.6634 26.3292 27.6015 26.0489C27.5764 25.9354 27.4807 25.8335 27.4037 25.7369C27.3399 25.6569 27.2403 25.6032 27.1849 25.5191C27.0599 25.3293 26.9132 25.1535 26.7947 24.9625C26.6655 24.754 26.5848 24.5149 26.4879 24.287C26.4378 24.1693 26.4305 24.0459 26.4735 23.9224C26.494 23.8637 26.5055 23.7998 26.5361 23.7468C26.6469 23.555 26.6749 23.3593 26.5862 23.1519C26.5781 23.1329 26.5736 23.1124 26.5675 23.0926C26.4687 22.7726 26.6415 22.3021 27.1175 22.1853C27.3179 22.1362 27.5106 22.0572 27.7098 22.0227C27.916 21.9871 28.109 21.9211 28.3069 21.8646C28.3851 21.8423 28.4769 21.818 28.5506 21.8381C28.8248 21.913 29.0874 21.8412 29.3476 21.7856C29.5327 21.7462 29.7188 21.754 29.9012 21.727C30.1035 21.6972 30.302 21.6313 30.4976 21.5673C30.7763 21.476 31.0443 21.4993 31.2572 21.6943C31.4677 21.8872 31.699 21.9789 31.976 22.0201C32.1758 22.0499 32.3662 22.1373 32.5675 22.1844C33.0055 22.2871 33.2332 22.6977 33.1177 23.0854C33.0473 23.3219 33.0596 23.5309 33.157 23.7464C33.174 23.7842 33.1879 23.8233 33.2029 23.862C33.2667 24.0254 33.2667 24.1909 33.1842 24.3441C33.0662 24.5636 32.981 24.7956 32.885 25.0241C32.8301 25.1549 32.7494 25.2829 32.6528 25.3865C32.3828 25.6764 32.1432 25.9829 31.9924 26.3534C31.9536 26.4488 31.9006 26.5393 31.8471 26.6278C31.7822 26.735 31.7006 26.8276 31.5888 26.8916C31.2662 27.0763 30.9458 27.2649 30.6221 27.4476C30.5698 27.4771 30.506 27.4937 30.4457 27.5007C30.3017 27.5174 30.1565 27.5249 30.0693 27.5318H30.0698Z" fill="#070607"/>
<path d="M32.9199 19.0483C32.9049 18.9169 32.892 18.8348 32.8867 18.7524C32.8693 18.4827 32.9705 18.2622 33.1923 18.1122C33.3323 18.0175 33.4424 17.9032 33.5444 17.7704C33.709 17.5556 33.9411 17.4871 34.2053 17.508C34.5794 17.5377 34.893 17.8901 34.8749 18.2706C34.871 18.3519 34.8426 18.4318 34.8284 18.5128C34.8179 18.5728 34.7971 18.6361 34.8067 18.6937C34.8471 18.9366 34.8989 19.1775 34.9434 19.4196C34.988 19.6625 35.0299 19.9058 35.0707 20.1492C35.0775 20.1894 35.0812 20.2338 35.0707 20.2721C35.0005 20.5307 34.9395 20.7912 34.8891 21.0545C34.8783 21.1106 34.8346 21.1685 34.7906 21.2088C34.684 21.3064 34.5766 21.4073 34.4547 21.4832C34.0549 21.7318 33.5757 21.5191 33.4587 21.1032C33.4474 21.0635 33.4328 21.0233 33.4307 20.9827C33.4178 20.7225 33.2987 20.5123 33.14 20.3137C33.078 20.2362 33.0139 20.1321 33.0126 20.0394C33.0081 19.6891 32.8132 19.3576 32.9198 19.0485L32.9199 19.0483Z" fill="#070607"/>
<path d="M26.7678 19.0708C26.8728 19.358 26.6796 19.6701 26.685 20.0007C26.6872 20.1255 26.6226 20.2373 26.5386 20.335C26.3734 20.5274 26.2652 20.7444 26.2554 21.0048C26.2532 21.0645 26.2242 21.1239 26.2025 21.1815C26.0807 21.505 25.6642 21.697 25.3275 21.5271C25.2003 21.4628 25.0862 21.3697 24.9728 21.2812C24.8549 21.1895 24.7785 21.0683 24.7627 20.9154C24.7585 20.8742 24.7602 20.8321 24.7518 20.7919C24.7095 20.5915 24.6293 20.3916 24.6299 20.1919C24.6307 19.9476 24.6737 19.6962 24.7444 19.4616C24.817 19.2211 24.7833 18.9672 24.8751 18.7326C24.9147 18.6313 24.8726 18.5303 24.8387 18.4317C24.7733 18.2413 24.825 18.063 24.9111 17.8934C25.1449 17.4325 25.773 17.3886 26.0756 17.6963C26.2337 17.8569 26.3701 18.0334 26.5611 18.1654C26.74 18.289 26.808 18.4916 26.7987 18.7115C26.7943 18.8147 26.7815 18.9174 26.7679 19.0708H26.7678Z" fill="#070607"/>
<path d="M27.8163 9.89343C27.8858 9.91614 27.8927 9.96703 27.8767 10.0279C27.8116 10.0032 27.784 9.96171 27.8163 9.89343Z" fill="#A5B7FF"/>
<path d="M24.6523 34.6727C24.8429 34.7493 25.0264 34.7094 25.1914 34.6132C25.3228 34.5366 25.4609 34.511 25.6047 34.4923C25.7685 34.4709 25.9357 34.4646 26.096 34.4281C26.2375 34.3958 26.3741 34.3502 26.5224 34.3491C26.6719 34.348 26.8248 34.3023 26.9249 34.2023C27.1087 34.0186 27.3645 33.9755 27.566 33.8283C27.6971 33.7327 27.8694 33.6952 28.0072 33.6069C28.1455 33.5184 28.2584 33.3974 28.4202 33.3353C28.556 33.2832 28.6649 33.1696 28.7241 33.0333C28.8274 32.7958 29.0049 32.6252 29.2037 32.4752C29.3376 32.3742 29.4559 32.2679 29.5527 32.1267C29.6326 32.0101 29.7562 31.923 29.8623 31.8248C29.9105 31.7803 29.9619 31.7911 29.9892 31.8554C30.0966 32.1082 30.2544 32.3157 30.4839 32.4747C30.6892 32.6169 30.8556 32.7986 30.9678 33.0294C31.0113 33.119 31.0831 33.2193 31.1682 33.2601C31.4667 33.403 31.6796 33.6894 32.0183 33.7607C32.239 33.9518 32.5486 33.991 32.7617 34.202C32.8305 34.2702 32.9455 34.3223 33.0418 34.3267C33.2939 34.3381 33.5277 34.4468 33.7749 34.4554C34.0713 34.4657 34.3463 34.5347 34.6107 34.6621C34.7277 34.7184 34.8507 34.7281 34.9748 34.6903C35.0778 34.6589 35.1781 34.6599 35.281 34.6902C35.3202 34.7015 35.3671 34.7129 35.4038 34.7019C35.8063 34.5803 36.2266 34.6315 36.6349 34.5703C36.6758 34.5642 36.7181 34.5419 36.7562 34.5481C37.0173 34.5917 37.2455 34.5196 37.4618 34.3752C37.5562 34.3121 37.6592 34.3454 37.7555 34.3988C37.9249 34.4926 38.0388 34.6385 38.1438 34.7943C38.1769 34.8433 38.1633 34.9427 38.1134 34.9548C37.728 35.0491 37.532 35.4107 37.2082 35.5908C37.1011 35.7507 36.9196 35.8282 36.7922 35.9595C36.6443 36.1118 36.4419 36.1902 36.3075 36.3453C36.1714 36.5026 36.0278 36.6514 35.8758 36.7907C35.6016 37.0423 35.3247 37.292 35.0335 37.5233C34.859 37.6619 34.5989 37.6896 34.4856 37.9099C34.3887 38.0983 34.21 38.2232 34.1129 38.4033C34.0213 38.5732 33.8709 38.687 33.7654 38.839C33.611 39.0614 33.3625 39.1864 33.2146 39.4252C33.0875 39.6305 32.8871 39.7962 32.6995 39.9562C32.5396 40.0926 32.474 40.3105 32.2807 40.4118C31.9713 40.8574 31.5412 41.1868 31.1697 41.5729C31.0995 41.6458 31.0553 41.7434 30.9968 41.8278C30.8559 42.0312 30.7369 42.252 30.5309 42.4036C30.4268 42.48 30.3656 42.5915 30.3232 42.709C30.2806 42.8268 30.2366 42.94 30.1548 43.0386C30.0739 43.1362 30.0296 43.2518 30.019 43.3807C29.9997 43.6175 29.9004 43.8151 29.7318 43.9843C29.6121 44.1044 29.5439 44.2546 29.5254 44.4278C29.5168 44.5083 29.4994 44.5947 29.4603 44.6638C29.3454 44.8667 29.3879 45.1148 29.2566 45.3141C29.1896 45.4159 29.1578 45.5405 29.1077 45.6536C29.0965 45.6789 28.9446 45.5985 28.9029 45.5411C28.8663 45.4907 28.8349 45.4367 28.7995 45.3853C28.6886 45.2253 28.5423 45.1211 28.3486 45.0772C28.0431 45.0082 27.7549 44.897 27.508 44.6961C27.3728 44.5861 27.2103 44.5368 27.043 44.5469C26.758 44.5642 26.5119 44.4901 26.297 44.303C26.2667 44.2766 26.2252 44.2494 26.1876 44.2476C25.8694 44.2323 25.6026 44.0479 25.2974 43.9822C25.0401 43.9268 24.7783 43.8518 24.5574 43.6827C24.4784 43.6223 24.3725 43.5827 24.2732 43.5658C23.8381 43.4915 23.5431 43.1964 23.2327 42.9242C23.2019 42.8972 23.182 42.8585 23.1546 42.8271C23.0416 42.6978 22.9034 42.6125 22.732 42.5834C22.4411 42.5337 22.1694 42.4452 21.9493 42.2323C21.8919 42.1768 21.8115 42.1382 21.735 42.1103C21.3044 41.9528 20.9312 41.6894 20.535 41.4687C20.4627 41.4284 20.4331 41.3415 20.4674 41.2535C20.5345 41.0813 20.5646 40.8987 20.6756 40.7381C20.8278 40.5176 20.9122 40.2551 21.0083 40.0079C21.1062 39.7561 21.2585 39.5348 21.3447 39.2766C21.4961 38.8229 21.7971 38.4449 22.04 38.0377C22.3431 37.7659 22.4478 37.3719 22.6471 37.0367C22.7846 36.8054 22.9006 36.5671 23.1152 36.3913C23.1927 36.328 23.2424 36.2304 23.3048 36.1486C23.3797 36.0506 23.4568 35.954 23.5292 35.8541C23.6016 35.7539 23.6761 35.6544 23.7376 35.5476C23.851 35.3508 23.9419 35.1397 24.0681 34.9517C24.2022 34.7521 24.3976 34.6397 24.6526 34.673L24.6523 34.6727ZM26.6208 35.7925C26.5945 35.7889 26.5737 35.7872 26.5536 35.783C26.1757 35.7042 25.914 35.8551 25.7266 36.1814C25.6346 36.3414 25.486 36.4731 25.4155 36.6398C25.345 36.8068 25.3598 37.008 25.3017 37.1825C25.1948 37.503 25.2577 37.8399 25.1819 38.1612C25.2332 38.4723 25.1711 38.7788 25.1452 39.0869C25.1366 39.1897 25.121 39.2966 25.1394 39.396C25.2218 39.8421 25.2931 40.29 25.3759 40.7361C25.3993 40.8624 25.4615 40.9694 25.5544 41.0576C25.6893 41.1856 25.825 41.3123 25.9619 41.4381C26.203 41.6597 26.4852 41.6909 26.7721 41.5675C26.9419 41.4944 27.0948 41.393 27.2823 41.3479C27.4808 41.3001 27.6097 41.093 27.8276 41.0657C28.0077 40.921 28.2462 40.8778 28.4252 40.7437C28.6076 40.6072 28.8252 40.5159 28.9839 40.362C29.1779 40.1741 29.4227 40.06 29.6079 39.856C29.7994 39.6451 30.0568 39.495 30.2801 39.3119C30.3427 39.2606 30.4048 39.1941 30.4357 39.1212C30.5813 38.7788 30.7714 38.4599 30.9414 38.1306C30.9782 38.0593 31.0009 37.9741 31.0048 37.894C31.0129 37.7286 31.0105 37.562 30.9995 37.3968C30.994 37.3161 30.9684 37.2335 30.9362 37.1586C30.82 36.8875 30.6149 36.7208 30.3166 36.7157C30.0691 36.7114 29.8211 36.7502 29.5731 36.7555C29.4227 36.7586 29.287 36.7907 29.1595 36.8682C28.9096 37.02 28.6442 37.1238 28.3495 37.1558C28.2491 37.1667 28.1541 37.2226 28.0559 37.2558C27.9662 37.2861 27.8914 37.2501 27.8647 37.1634C27.8221 37.0253 27.8171 36.8575 27.7327 36.7544C27.5943 36.585 27.5471 36.3963 27.4874 36.1986C27.4073 35.9333 27.1518 35.7731 26.8635 35.7722C26.781 35.7719 26.6983 35.7859 26.6215 35.793L26.6208 35.7925Z" fill="#FCFCFC"/>
<path d="M26.6196 35.7925C26.6964 35.7855 26.7791 35.7715 26.8616 35.7718C27.1501 35.7727 27.4054 35.9328 27.4855 36.1981C27.5452 36.3959 27.5924 36.5846 27.7308 36.7539C27.8152 36.8571 27.8202 37.0249 27.8628 37.163C27.8895 37.2496 27.9643 37.2857 28.054 37.2554C28.1522 37.2223 28.2474 37.1663 28.3476 37.1553C28.6423 37.1233 28.9077 37.0196 29.1576 36.8677C29.2851 36.7903 29.4208 36.7581 29.5712 36.755C29.8192 36.7499 30.0672 36.711 30.3147 36.7152C30.613 36.7204 30.8181 36.8871 30.9343 37.1582C30.9665 37.2331 30.9922 37.3156 30.9975 37.3963C31.0086 37.5616 31.011 37.7283 31.0029 37.8936C30.999 37.9736 30.9763 38.059 30.9395 38.1302C30.7694 38.4595 30.5794 38.7785 30.4338 39.1208C30.4028 39.1937 30.3408 39.2601 30.2782 39.3115C30.055 39.4947 29.7975 39.6448 29.606 39.8555C29.4208 40.0594 29.1762 40.1736 28.982 40.3615C28.8233 40.5153 28.6057 40.6067 28.4233 40.7433C28.2443 40.8772 28.0058 40.9204 27.8257 41.0653C27.6078 41.0926 27.4791 41.2997 27.2804 41.3475C27.0929 41.3926 26.94 41.494 26.7702 41.567C26.4833 41.6905 26.2011 41.6593 25.96 41.4376C25.8231 41.3119 25.6873 41.1851 25.5525 41.0571C25.4598 40.9691 25.3974 40.8619 25.374 40.7356C25.2912 40.2897 25.2199 39.8417 25.1375 39.3956C25.1191 39.2962 25.1347 39.1891 25.1433 39.0864C25.1692 38.7783 25.2313 38.4718 25.18 38.1608C25.2558 37.8394 25.1929 37.5026 25.2998 37.182C25.358 37.0077 25.3431 36.8064 25.4136 36.6394C25.484 36.4727 25.6327 36.341 25.7246 36.181C25.9122 35.8546 26.174 35.7039 26.5517 35.7825C26.5718 35.7867 26.5926 35.7883 26.6189 35.7921L26.6196 35.7925Z" fill="#FF8CBD"/>
</svg>
