<svg width="76" height="70" viewBox="0 0 76 70" fill="none" xmlns="http://www.w3.org/2000/svg">
<path d="M27.5173 25.4233C27.3887 24.2654 25.9128 23.3608 25.6526 22.1898C25.4938 21.4752 24.2589 19.3039 23.6509 18.9564C22.3921 18.2371 21.5317 17.1858 20.1267 16.5613C18.6209 15.8921 16.095 15.5375 14.5837 16.2534C7.28482 19.7107 3.84588 27.455 1.71841 34.9011C1.46383 35.7922 0.725708 39.5263 1.18806 40.3586C1.6557 41.2003 2.02948 43.0672 2.24876 44.0539C2.88526 46.9182 5.27065 47.3263 7.80887 46.124C9.47387 45.3353 10.9304 44.7817 12.2741 43.438C13.3647 42.3474 14.3852 41.0779 15.5246 40.0335C16.6575 38.9951 17.4768 37.7905 18.5185 36.7488C19.2171 36.0502 20.4294 34.3694 20.7426 33.4298" stroke="#33333A" stroke-width="1.5" stroke-linecap="round"/>
<path d="M14.5 41.5C14.5 42.3198 14.6261 44.3854 14.6714 45.1998C14.7047 45.7997 15.1066 46.3942 15.1275 46.9989C15.1483 47.6039 15.2264 48.7074 15.5266 49.2477C15.8088 49.7557 15.6554 50.5176 15.8686 51.0721C16.1427 51.7847 16.1913 52.6931 16.5464 53.3526C16.8662 53.9465 16.8607 54.8007 17.351 55.291C17.664 55.6041 17.7266 56.11 17.9781 56.4693C18.2304 56.8297 18.5577 57.1065 18.7509 57.5145C19.0412 58.1272 19.6039 58.5526 19.8278 59.1995C19.9908 59.6703 20.6386 60.2204 21.0188 60.5298C21.7411 61.1178 22.3057 62.1106 23.1092 62.5569C23.4394 62.7404 23.6757 63.1162 23.9961 63.3298C24.394 63.5951 24.8351 63.7615 25.2694 63.9569C26.2869 64.4148 27.3693 64.9129 28.4747 65.0972C29.1165 65.2041 30.3182 65.3705 30.8883 65.7243C31.6106 66.1727 32.6666 66.4084 33.5108 66.4084C34.547 66.4084 35.583 66.7505 36.6148 66.7505C38.6744 66.7505 40.8831 67.1743 42.9369 66.8075C43.7184 66.668 44.3906 66.6065 45.116 66.2437C45.4658 66.0689 45.8528 65.9771 46.2436 65.8953C47.3374 65.6664 48.2151 65.5515 49.2463 65.1415C50.3585 64.6993 51.4127 64.0197 52.553 63.6718C53.3582 63.4262 54.1936 62.9203 54.7195 62.2529C55.2216 61.6156 55.826 61.1412 56.4045 60.5932C57.0498 59.9818 57.5178 58.9808 57.9375 58.2177C58.7676 56.7084 60.0411 55.43 60.6804 53.796C60.8579 53.3424 61.0139 52.8682 61.2442 52.4404C61.511 51.9449 61.4826 51.4459 61.599 50.9137C61.7182 50.3685 61.9917 49.8217 61.9917 49.254C61.9917 48.8189 61.8364 48.4288 61.903 47.9871C62.08 46.8146 62.5283 45.6259 62.5619 44.4523C62.5837 43.6879 63 41.2918 63 40.5" stroke="#33333A" stroke-width="1.5" stroke-linecap="round"/>
<path d="M32.5 33.5684C31.6631 33.5898 30.8341 33.7096 30.0055 33.8191C29.7294 33.8555 29.516 33.9049 29.2878 34.076C28.8429 34.4097 28.2409 34.6112 27.7178 34.7968C26.9837 35.0573 26.4698 35.3988 26.0004 36.019C25.825 36.2508 25.4965 36.54 25.3987 36.8087C25.3355 36.9828 25 37.4998 25 37.4998" stroke="#33333A" stroke-width="1.5" stroke-linecap="round"/>
<path d="M46 33.5684C46.8369 33.5898 47.6659 33.7096 48.4945 33.8191C48.7706 33.8555 48.984 33.9049 49.2122 34.076C49.6571 34.4097 50.2591 34.6112 50.7822 34.7968C51.5163 35.0573 52.0302 35.3988 52.4996 36.019C52.675 36.2508 53.0035 36.54 53.1013 36.8087C53.1645 36.9828 53.5 37.4998 53.5 37.4998" stroke="#33333A" stroke-width="1.5" stroke-linecap="round"/>
<path d="M32.5395 47C32.369 47 32.2075 46.9823 32.0511 46.8887C31.9879 46.8509 31.9263 46.8095 31.8624 46.7738C31.8402 46.7614 31.8066 46.7528 31.7915 46.7261C31.7472 46.6473 31.6816 46.5869 31.6308 46.5132C31.5447 46.3883 31.4722 46.2689 31.408 46.1244C31.2586 45.788 31.0465 45.4252 31.0163 45.0261C30.9867 44.6345 30.9946 44.2669 31.0627 43.8819C31.1163 43.5781 31.1635 43.266 31.2445 42.9727C31.3034 42.7598 31.3731 42.5965 31.4973 42.4355C31.5864 42.3199 31.6841 42.2567 31.799 42.1908C31.8942 42.1362 31.9782 42.0602 32.0735 42.0097C32.109 41.9909 32.1758 42.0049 32.2125 42.007C32.3647 42.0156 32.5145 42.051 32.6676 42.0538C32.8946 42.0581 33.1369 42.0962 33.3365 42.2456C33.4099 42.3005 33.4558 42.3603 33.5013 42.4497C33.5752 42.5947 33.6657 42.7133 33.7329 42.8667C33.8194 43.0639 33.8661 43.2874 33.906 43.5064C33.9492 43.744 33.9905 43.9923 33.9979 44.2371C34.0092 44.6115 33.9722 44.9687 33.9366 45.338C33.9034 45.6826 33.8044 46.1601 33.5926 46.4027C33.3798 46.6465 33.0798 46.7385 32.8208 46.8657C32.7398 46.9055 32.6605 46.9499 32.579 46.9876C32.5351 47.0079 32.5088 46.9821 32.4659 46.9682" stroke="#33333A" stroke-width="2" stroke-linecap="round"/>
<ellipse cx="32.5" cy="44.5" rx="1.5" ry="2.5" fill="#33333A"/>
<path d="M38.9557 62.2387C38.6791 62.1281 38.3603 62.1198 38.1056 61.9577C37.9686 61.8705 37.7596 61.836 37.6033 61.7891C37.2876 61.6944 36.9852 61.7825 36.7426 61.5256C36.5545 61.3264 36.2738 61.1771 36.0401 61.0303C35.9244 60.9577 35.8434 60.8535 35.7415 60.7651C35.5325 60.584 35.3161 60.4547 35.0741 60.3173C34.7677 60.1432 34.5536 59.8349 34.3329 59.569C34.19 59.3969 34.1043 59.2141 34.087 58.9894C34.0776 58.8676 34.0514 58.6813 34.0168 58.5644C33.9731 58.4171 34.0249 58.2899 34.0572 58.1446C34.0892 58.0005 34.3193 57.8225 34.4541 57.7811C34.8907 57.6467 35.3391 57.5681 35.7907 57.5106C36.3393 57.4408 36.895 57.4174 37.4417 57.3314C37.7739 57.2792 38.1446 57.1804 38.4797 57.1804C39.2026 57.1804 39.9194 56.9544 40.6505 57.0241C41.0382 57.061 41.4236 57.1593 41.8115 57.205C42.3029 57.2628 42.7937 57.3258 43.2851 57.3841C43.4893 57.4083 43.5504 57.4477 43.7049 57.5984C44.015 57.9009 44.3267 58.0657 44.2265 58.5416C44.1017 59.1342 43.5777 59.634 43.185 60.0643C42.8227 60.4614 42.4472 60.8372 42.0679 61.2165C41.9479 61.3365 41.847 61.4707 41.7026 61.5643C41.39 61.7669 41.0384 61.9091 40.712 62.0877C40.4004 62.2582 40.13 62.485 39.8233 62.6602C39.6854 62.739 39.5354 62.7926 39.3983 62.871" stroke="#33333A" stroke-width="2" stroke-linecap="round"/>
<path d="M34.0859 58.5L39.5859 63L44.0859 58.5L39.5859 57L34.0859 58.5Z" fill="#33333A"/>
<path d="M39.3669 60.4053C39.0828 61.7408 39.1022 63.079 39.1755 64.4344C39.2038 64.9585 39.3353 66.526 39.3353 66.0011" stroke="#33333A" stroke-width="1.5" stroke-linecap="round"/>
<path d="M48.9238 24.2741C49.3301 24.0574 49.7374 23.8446 50.1699 23.6873C51.7032 23.1298 52.7628 21.8776 53.6643 20.5753C54.7265 19.041 55.8528 17.5146 56.8093 15.9205C57.4847 14.7948 58.3487 13.8003 58.8861 12.591C59.6303 10.9166 60.3262 9.00187 61.708 7.75817C62.1864 7.32765 63.3609 6.59777 64.0486 6.59777C65.0968 6.59777 66.0143 5.71238 67.1672 6.09669C68.0392 6.38736 68.6587 6.87901 69.4485 7.33621C70.1207 7.72538 71.0414 9.20178 71.288 9.91415C71.6606 10.9906 71.9407 12.2229 71.9407 13.3624C71.9407 14.2533 72.0594 15.0733 72.0594 15.9733C72.0594 16.6224 71.8802 17.1346 71.7297 17.7535C71.6113 18.2403 71.511 18.7901 71.4726 19.2897C71.4048 20.1712 70.8885 21.0657 70.5561 21.8676C70.3494 22.3662 70.1563 22.8293 69.8704 23.2786C69.7017 23.5437 69.7349 23.898 69.5408 24.162C69.3062 24.481 69.0059 24.8025 68.743 25.0983C68.2065 25.7019 67.8564 26.3334 67.4573 27.0499C67.1806 27.5467 66.8162 27.9947 66.5474 28.4938C66.4299 28.712 66.4175 28.9708 66.2705 29.1729C66.0273 29.5074 65.6238 30.1306 65.453 30.5179C64.7866 32.0283 64.4461 33.6429 63.9959 35.2188C63.8576 35.7029 63.024 39.9912 63.0009 40.5" stroke="#33333A" stroke-width="1.5" stroke-linecap="round"/>
<path d="M64.992 16C64.8535 17.3539 64.6031 18.7043 64.1083 19.9767C63.7937 20.7856 63.3397 21.2893 62.8344 22.0026C62.3336 22.7096 61.8414 23.4818 61.2409 24.1038C60.8905 24.4667 60.2165 24.7894 60 25.2225" stroke="#FA4D81" stroke-width="1.5" stroke-linecap="round"/>
<path d="M30.8834 51.4013C31.2756 51.3956 31.6108 51.1591 32.0032 51.1289C32.4916 50.9661 33.4524 50.4891 33.9401 50.3118C34.1543 50.2339 34.4225 50.153 34.5696 50C34.7847 49.7764 34.8182 49.6741 35.0696 49.5C35.3602 49.2989 35.7437 48.8807 36.0435 48.6889C36.1735 48.6056 36.2647 48.4776 36.3915 48.4051C36.4443 48.3749 36.5659 48.1813 36.5996 48.1214C36.8953 47.5956 37.2416 46.9341 37.3146 46.332C37.4058 45.579 37.4508 44.8763 37.4508 44.1151C37.4508 43.2567 37.3915 42.3182 37.1405 41.4935C37.0249 41.1137 36.7461 40.4924 36.452 40.2186C36.0972 39.8882 35.5691 39.7455 35.2036 39.4166C33.8196 38.171 31.8602 38.3271 30.1305 38.3271C29.4096 38.3271 28.435 38.3992 27.7661 38.6827C27.47 38.8081 27.2689 38.8657 27.0284 39.0761C26.5714 39.476 25.8625 39.5648 25.432 39.9954C25.2468 40.1806 25.0121 40.2743 24.804 40.4304C22.8344 41.9076 22.7778 44.878 23.0827 47.0886C23.2115 48.0221 23.6869 48.8291 24.3614 49.4795C24.7247 49.8298 25.2174 50.0807 25.64 50.3496C25.8998 50.515 26.0501 50.7388 26.3513 50.8225C26.7527 50.934 27.1609 51.0833 27.5618 51.2122C27.8804 51.3146 28.2632 51.2651 28.5984 51.2651C29.3666 51.2651 30.1135 51.4126 30.8834 51.4013Z" stroke="#33333A" stroke-width="1.5" stroke-linecap="round"/>
<path d="M47.6381 51.4013C47.2459 51.3956 46.9107 51.1591 46.5183 51.1289C46.0299 50.9661 45.0691 50.4891 44.5814 50.3118C44.3671 50.2339 44.099 50.153 43.9518 50C43.7368 49.7764 43.7033 49.6741 43.4518 49.5C43.1613 49.2989 42.7778 48.8807 42.478 48.6889C42.348 48.6056 42.2568 48.4776 42.13 48.4051C42.0772 48.3749 41.9556 48.1813 41.9219 48.1214C41.6261 47.5956 41.2799 46.9341 41.2069 46.332C41.1156 45.579 41.0707 44.8763 41.0707 44.1151C41.0707 43.2567 41.1299 42.3182 41.3809 41.4935C41.4965 41.1137 41.7754 40.4924 42.0695 40.2186C42.4243 39.8882 42.9524 39.7455 43.3179 39.4166C44.7019 38.171 46.6613 38.3271 48.3909 38.3271C49.1119 38.3271 50.0865 38.3992 50.7554 38.6827C51.0515 38.8081 51.2525 38.8657 51.4931 39.0761C51.9501 39.476 52.659 39.5648 53.0895 39.9954C53.2747 40.1806 53.5094 40.2743 53.7175 40.4304C55.6871 41.9076 55.7437 44.878 55.4388 47.0886C55.31 48.0221 54.8346 48.8291 54.1601 49.4795C53.7968 49.8298 53.3041 50.0807 52.8814 50.3496C52.6216 50.515 52.4714 50.7388 52.1702 50.8225C51.7688 50.934 51.3606 51.0833 50.9596 51.2122C50.6411 51.3146 50.2583 51.2651 49.9231 51.2651C49.1549 51.2651 48.408 51.4126 47.6381 51.4013Z" stroke="#33333A" stroke-width="1.5" stroke-linecap="round"/>
<path d="M37.6523 44.3065C38.5588 44.2217 39.4907 44.19 40.3885 44.0307C40.4394 44.0217 40.4736 43.9935 40.5158 43.9724" stroke="#33333A" stroke-width="1.5" stroke-linecap="round"/>
<path d="M17.8008 38.1311C18.446 38.5047 19.1185 38.7811 19.7839 39.1138C20.2587 39.3512 20.7238 39.6847 21.2246 39.8919C21.4439 39.9827 21.5447 40.2575 21.7626 40.3543C21.9369 40.4318 22.1091 40.5647 22.2828 40.6567C22.6248 40.8377 22.9362 41.1057 23.3233 41.2347" stroke="#33333A" stroke-width="1.5" stroke-linecap="round"/>
<path d="M63.5 36C62.9853 36.4412 62.1185 37.1352 61.5274 37.473C61.1848 37.6687 60.8652 37.9327 60.5225 38.1311C59.8772 38.5046 59.2048 38.781 58.5394 39.1137C58.0646 39.3511 57.5995 39.6847 57.0987 39.8919C56.8794 39.9826 56.7786 40.2574 56.5607 40.3543C56.3864 40.4318 56.2142 40.5647 56.0405 40.6567C55.6985 40.8377 55.3871 41.1057 55 41.2347" stroke="#33333A" stroke-width="1.5" stroke-linecap="round"/>
<path d="M50.7034 43.1783C50.3555 43.1589 50.0413 43.0547 49.6875 43.0547C48.9585 43.0547 48.1033 42.9294 47.395 43.0581C47.0493 43.121 46.6915 43.4412 46.3414 43.5489C45.84 43.7032 45.3233 43.9854 44.9858 44.4C44.7611 44.6761 44.5132 45.0226 44.3543 45.3404C44.2882 45.4726 44.2202 45.6048 44.1552 45.7385C44.1074 45.837 43.8745 46.2375 44.09 46.1263C44.6671 45.8285 45.3534 45.4784 46.0085 45.4056C47.1529 45.2785 48.3549 45.5024 49.4679 45.7111" stroke="#33333A" stroke-width="1.5" stroke-linecap="round"/>
<path d="M35.3477 17C36.4706 18.2633 38.1182 20.2565 38.1182 22.0562C38.1182 22.4539 38.3491 24.5034 38.1182 24.6189" stroke="#33333A" stroke-width="1.5" stroke-linecap="round"/>
<path d="M40.75 24.8951C40.75 23.0616 41.3029 21.5742 41.8582 19.9082" stroke="#33333A" stroke-width="1.5" stroke-linecap="round"/>
</svg>
