<svg width="60" height="48" viewBox="4 0 60 48" fill="none" xmlns="http://www.w3.org/2000/svg">
<path d="M49.5354 43.252C49.3716 43.2751 49.2083 43.3068 49.0437 43.3191C48.8377 43.3344 48.6326 43.3249 48.4289 43.3917C48.2335 43.4559 48.0236 43.3561 47.8154 43.4243C47.6339 43.4836 47.4486 43.412 47.2683 43.3558C47.1488 43.3185 47.0216 43.3337 46.9 43.3724C46.8012 43.4039 46.7009 43.4314 46.6028 43.4648C46.4618 43.513 46.3269 43.5191 46.1777 43.4769C45.9141 43.4025 45.6441 43.4031 45.3808 43.4947C45.2804 43.5297 45.1804 43.5417 45.0755 43.5189C44.8132 43.4619 44.5507 43.405 44.2875 43.3518C44.082 43.3102 43.8714 43.2901 43.6729 43.3672C43.4404 43.4574 43.2262 43.4318 43.0149 43.3163C42.8595 43.2314 42.7099 43.2417 42.5378 43.2896C42.2604 43.3669 41.9594 43.3229 41.683 43.4265C41.2282 43.3652 40.7746 43.4552 40.3202 43.4387C40.2994 43.4379 40.2772 43.4407 40.2582 43.4343C39.9376 43.3269 39.6149 43.2726 39.2843 43.3912C38.9319 43.2828 38.589 43.34 38.248 43.4476C38.2098 43.4596 38.1654 43.4545 38.1239 43.4543C37.3974 43.4515 36.6707 43.4495 35.9442 43.4445C35.6534 43.4424 35.3655 43.4243 35.0892 43.3131C34.955 43.2591 34.81 43.2292 34.6643 43.285C34.4005 43.23 34.1305 43.3312 33.8672 43.2531C33.8285 43.2416 33.7817 43.2306 33.7455 43.2417C33.5204 43.3109 33.3064 43.3023 33.0765 43.232C32.8619 43.1665 32.6311 43.1645 32.4137 43.0807C31.9344 42.8956 31.4411 42.8993 30.9465 43.026C30.9064 43.0363 30.8639 43.0385 30.8246 43.0512C30.3634 43.2002 29.8877 43.209 29.4102 43.1949C29.119 43.1863 28.8312 43.1784 28.5506 43.2887C28.4585 43.3249 28.346 43.3149 28.2427 43.3154C27.9728 43.3165 27.7025 43.302 27.4331 43.3112C26.8703 43.3304 26.3169 43.2881 25.7734 43.1273C25.596 43.0749 25.4073 43.0597 25.2233 43.0312C25.1627 43.0218 25.0953 43.0068 25.0396 43.0232C24.7521 43.1077 24.4617 43.0587 24.1722 43.0562C23.8391 43.0533 23.5071 43.0516 23.205 43.2313C23.1361 43.2722 23.0484 43.2995 22.969 43.3006C22.6795 43.3046 22.3851 43.3376 22.1023 43.2608C21.9185 43.2108 21.7349 43.1873 21.5487 43.1933C20.9452 43.2129 20.3567 43.1097 19.7678 42.9981C19.6063 42.9675 19.4339 42.9374 19.2752 42.962C19.047 42.9976 18.8321 43.0143 18.6022 42.9591C18.4014 42.9109 18.1905 42.9408 17.9893 43.0111C17.8963 43.0435 17.8362 42.9773 17.7852 42.9087C17.8061 42.8732 17.8258 42.8367 17.8484 42.8024C17.9808 42.6015 18.0262 42.3922 17.9563 42.1522C17.881 41.8939 17.8689 41.6217 17.8673 41.3554C17.8664 41.2101 17.8743 41.0717 17.8361 40.9275C17.7885 40.748 17.7669 40.5617 17.737 40.3778C17.7037 40.1748 17.7983 39.9669 17.7131 39.7638C17.6989 39.7299 17.7093 39.6794 17.7223 39.6415C17.786 39.4542 17.7452 39.2789 17.6969 39.0932C17.6021 38.7294 17.5789 38.3517 17.6809 37.9885C17.7729 37.6617 17.7855 37.3358 17.7765 37.0035C17.7748 36.9428 17.7645 36.8598 17.7979 36.8244C18.0114 36.5974 18.0349 36.3046 18.1012 36.0248C18.12 35.9458 18.1674 35.8734 18.2042 35.7991C18.2097 35.788 18.2297 35.7763 18.2416 35.7776C18.2614 35.7796 18.2937 35.7879 18.2974 35.8005C18.3887 36.1097 18.546 36.368 18.8304 36.5398C18.8794 36.5693 18.8986 36.6444 18.9423 36.6873C19.0305 36.7738 19.1184 36.8648 19.2211 36.9311C19.3086 36.9876 19.3967 37.0365 19.4628 37.1204C19.5838 37.2738 19.7528 37.3452 19.9346 37.4052C20.1495 37.4764 20.379 37.539 20.5611 37.6648C20.7754 37.8129 20.9911 37.898 21.2466 37.9268C21.4509 37.9499 21.6561 37.994 21.8304 38.1258C21.8941 38.1741 21.9771 38.2089 22.056 38.2223C22.2442 38.2541 22.4109 38.3317 22.5786 38.4169C22.7441 38.5009 22.9425 38.4636 23.1141 38.5671C23.231 38.6374 23.3916 38.6379 23.534 38.6627C24.1252 38.7657 24.7186 38.8592 25.2573 39.1486C25.2934 39.1679 25.3344 39.1882 25.3737 39.1895C25.6231 39.1976 25.8654 39.2422 26.1067 39.3053C26.1819 39.3249 26.2705 39.2964 26.3525 39.2855C26.413 39.2773 26.4758 39.2436 26.5321 39.2533C26.8867 39.314 27.233 39.2152 27.5812 39.1913C27.9502 39.1661 28.3154 39.0785 28.6901 39.0829C28.7703 39.0838 28.8573 39.062 28.9303 39.0278C29.1591 38.9204 29.409 38.8587 29.6492 38.8522C29.9061 38.8452 30.1204 38.6872 30.3762 38.7099C30.5279 38.7233 30.6557 38.6485 30.779 38.5658C30.8815 38.4971 30.9844 38.4175 31.0993 38.3802C31.3571 38.2969 31.5297 38.1327 31.6262 37.8875C31.7749 37.5087 32.0296 37.2158 32.3511 36.9776C32.4711 36.8887 32.5774 36.7895 32.63 36.6508C32.6756 36.5306 32.7418 36.4307 32.8327 36.3424C32.9918 36.1882 33.0594 35.9955 33.0455 35.7777C33.028 35.5038 33.058 35.2399 33.1697 34.9864C33.2215 34.8691 33.2211 34.7464 33.1953 34.6198C33.1792 34.5404 33.1702 34.4522 33.1874 34.3745C33.2457 34.1093 33.1138 33.8379 33.2207 33.5749C33.2345 33.5409 33.22 33.4927 33.2111 33.4526C33.1575 33.2103 33.0083 32.9954 33.0061 32.7384C32.8479 32.472 32.6661 32.2221 32.4661 31.986C32.4279 31.9408 32.3656 31.9031 32.308 31.8898C32.1058 31.8433 31.9186 31.755 31.7232 31.6911C31.4067 31.5877 31.0886 31.7408 30.9513 32.0478C30.8211 32.3387 30.9429 32.6973 31.2308 32.8514C31.3218 32.9001 31.4217 32.9328 31.5191 32.9687C31.6057 33.0007 31.651 33.0714 31.6788 33.1487C31.7134 33.2447 31.739 33.3453 31.7552 33.4462C31.7749 33.5682 31.7512 33.7054 31.7981 33.8136C31.9105 34.0723 31.9015 34.3386 31.8998 34.6075C31.8991 34.7111 31.8841 34.8179 31.9038 34.9176C31.9363 35.0823 31.8573 35.1837 31.7604 35.3015C31.577 35.5246 31.4899 35.8125 31.2956 36.0321C31.2705 36.0607 31.2608 36.1089 31.2569 36.1492C31.2352 36.3671 31.0777 36.5206 30.9947 36.7093C30.9604 36.7874 30.8881 36.8312 30.8066 36.8612C30.6512 36.9181 30.4775 36.9531 30.3696 37.0886C30.2473 37.2422 30.06 37.2943 29.9192 37.4106C29.73 37.5668 29.527 37.6039 29.2901 37.6186C28.9427 37.6401 28.5866 37.5971 28.2473 37.719C28.1916 37.7389 28.1212 37.7147 28.0624 37.7296C27.7393 37.8107 27.4058 37.7987 27.0785 37.8288C26.7734 37.8569 26.4661 37.9448 26.1547 37.873C25.8243 37.9381 25.4992 37.834 25.1698 37.8421C24.9383 37.8477 24.7126 37.7698 24.5236 37.6462C24.224 37.4504 23.8822 37.3626 23.5583 37.2329C23.4032 37.1708 23.2707 37.0658 23.1104 37.0238C22.9512 36.9821 22.7784 36.977 22.6303 36.9128C22.4714 36.844 22.3163 36.8034 22.1484 36.8223C21.9683 36.8426 21.8233 36.7928 21.7029 36.655C21.5409 36.4698 21.3287 36.402 21.0875 36.4118C21.0668 36.4128 21.0456 36.4125 21.0254 36.4162C20.8878 36.4426 20.7846 36.3781 20.693 36.2882C20.6487 36.2449 20.617 36.1868 20.5686 36.1495C20.2407 35.8963 19.9362 35.6212 19.6855 35.2877C19.6253 35.2074 19.5331 35.1477 19.4472 35.091C19.2704 34.9741 19.1903 34.7956 19.2364 34.6095C19.2979 34.3611 19.3163 34.1204 19.2826 33.8701C19.278 33.836 19.3033 33.7784 19.3319 33.7625C19.7464 33.532 20.1433 33.2631 20.5881 33.0956C20.8481 32.9978 21.0822 32.892 21.2463 32.6564C21.2904 32.5929 21.3797 32.5608 21.4482 32.5141C21.5529 32.4428 21.6347 32.3532 21.6982 32.2416C21.7593 32.1345 21.8334 32.0342 21.9082 31.9357C22.0973 31.6866 22.1877 31.3829 22.3606 31.1249C22.3825 31.0923 22.3926 31.0461 22.3929 31.006C22.3945 30.8162 22.4327 30.6372 22.5136 30.4642C22.5385 30.4109 22.5403 30.341 22.5346 30.2802C22.5201 30.1221 22.5874 30.0154 22.6949 29.9C22.9879 29.5859 22.9012 29.2502 22.6651 29.0153C22.6504 29.0006 22.632 28.9897 22.6177 28.9748C22.5019 28.8569 22.3851 28.7396 22.2717 28.6195C22.1345 28.474 21.9271 28.4874 21.7674 28.389C21.3799 28.1499 20.9283 28.0433 20.538 27.807C20.4868 27.7759 20.4192 27.7558 20.3599 27.7573C20.1628 27.7628 19.9988 27.6593 19.8279 27.5931C19.6153 27.5107 19.4087 27.4293 19.1813 27.3857C18.9573 27.3428 18.7458 27.2721 18.5088 27.3107C18.394 27.3292 18.2564 27.2915 18.1468 27.241C17.8295 27.0948 17.5219 27.0364 17.1923 27.2097C17.1074 27.2543 16.9871 27.2262 16.8856 27.2456C16.6947 27.2818 16.5288 27.3754 16.4261 27.5405C16.3164 27.7169 16.192 27.8789 16.0605 28.0386C15.9976 28.1149 15.9487 28.2215 15.9384 28.319C15.8994 28.6903 15.8053 29.0481 15.7096 29.4067C15.6654 29.572 15.6729 29.7399 15.7608 29.8908C15.9309 30.183 16.0133 30.5 16.0387 30.8329C16.0522 31.0083 16.1141 31.1631 16.2432 31.2739C16.4469 31.4489 16.5357 31.6652 16.5607 31.9262C16.57 32.0243 16.6098 32.142 16.6776 32.2079C16.8892 32.4137 16.9936 32.6928 17.1874 32.9093C17.3518 33.0928 17.4164 33.3511 17.6299 33.5033C17.6688 33.5311 17.673 33.6168 17.6806 33.6773C17.702 33.8482 17.6184 34.0016 17.5931 34.1639C17.5569 34.3957 17.4929 34.6056 17.3373 34.7878C17.2421 34.8992 17.1973 35.0372 17.1715 35.1854C17.1544 35.2836 17.1002 35.3785 17.0476 35.4657C17.0183 35.5144 16.9636 35.5658 16.911 35.5794C16.6687 35.6424 16.4224 35.663 16.1728 35.6126C16.0686 35.5917 15.9785 35.5623 15.9072 35.4729C15.8302 35.3765 15.7424 35.2859 15.647 35.2078C15.4218 35.0234 15.2436 34.7946 15.0561 34.5774C14.948 34.4521 14.8471 34.3258 14.721 34.215C14.3426 33.8824 14.054 33.4783 13.8661 33.0114C13.7741 32.783 13.7453 32.5288 13.6494 32.3026C13.5485 32.0641 13.5235 31.8227 13.5304 31.5731C13.5372 31.3247 13.588 31.0732 13.5634 30.8288C13.5254 30.4494 13.578 30.0856 13.6599 29.721C13.7097 29.4994 13.7568 29.2769 13.8174 29.0582C13.8447 28.9599 13.8806 28.8477 13.95 28.7802C14.1653 28.5711 14.2074 28.2594 14.4086 28.0458C14.4963 27.7244 14.7718 27.4894 14.8144 27.1433C14.8295 27.0211 14.9206 26.9183 15.0346 26.8543C15.2907 26.7104 15.4173 26.4911 15.4549 26.2016C15.4766 26.0346 15.5648 25.8938 15.7116 25.7908C15.8135 25.7192 15.8769 25.6113 15.9368 25.4985C16.1683 25.0634 16.4308 24.7011 16.7255 24.3934C16.8124 24.3025 16.8825 24.2062 16.9388 24.0913C17.0574 23.8497 17.1974 23.6197 17.4183 23.4516C17.5378 23.3606 17.6191 23.2372 17.6568 23.0945C17.7147 22.8751 17.8589 22.7435 18.0508 22.6407C18.1398 22.5931 18.228 22.5245 18.2864 22.4437C18.3964 22.2912 18.5175 22.1531 18.6553 22.0253C18.7477 21.9396 18.8083 21.8239 18.8104 21.6939C18.8125 21.5703 18.8129 21.4428 18.7855 21.3237C18.7566 21.1984 18.7613 21.0827 18.7813 20.9577C18.8006 20.8368 18.7858 20.7104 18.7838 20.5863C18.7834 20.5665 18.7699 20.5471 18.7653 20.527C18.677 20.1413 18.6091 19.5309 18.6274 19.1773C18.6475 18.7857 18.6447 18.3917 18.7735 18.0117C18.8051 17.9184 18.8123 17.7941 18.7774 17.7052C18.6747 17.4438 18.738 17.2171 18.8698 16.9921C18.8902 16.9573 18.9102 16.9139 18.9083 16.8755C18.8949 16.5974 19.089 16.3673 19.0856 16.0925C19.2219 15.8311 19.2379 15.5347 19.3275 15.2617C19.3874 15.0791 19.3912 14.896 19.4297 14.7161C19.473 14.5141 19.5395 14.3222 19.5349 14.108C19.531 13.924 19.5679 13.7377 19.6908 13.58C19.8382 13.3914 19.8736 13.1763 19.8577 12.9351C19.8349 12.5921 19.9515 12.253 20.1701 11.9527C20.2696 11.8163 20.3602 11.6797 20.3994 11.5155C20.4306 11.3847 20.5013 11.2905 20.6243 11.2371C20.8528 11.138 21.0273 10.944 21.2756 10.8758C21.3505 10.8552 21.417 10.7907 21.4779 10.7358C21.6077 10.6183 21.7521 10.5502 21.93 10.5766C22.0588 10.5958 22.1755 10.5522 22.2957 10.5193C22.6153 10.4316 22.937 10.3514 23.2559 10.2609C23.3334 10.2388 23.4108 10.1989 23.4744 10.1493C23.6752 9.99256 23.7386 9.77594 23.6807 9.53683C23.6471 9.39871 23.5688 9.27135 23.5106 9.13916C23.572 9.14072 23.6353 9.15243 23.6949 9.14228C24.1576 9.06362 24.6302 9.04146 25.0842 8.91504C25.2687 8.86369 25.4504 8.88429 25.6341 8.8882C25.6747 8.982 25.7034 9.08375 25.7583 9.16834C25.908 9.3984 25.9543 9.65966 26.006 9.92014C26.0179 9.98023 26.0136 10.0436 26.0258 10.1035C26.0857 10.3983 26.4171 10.6417 26.7105 10.609C27.0345 10.5732 27.3069 10.306 27.3055 10.0038C27.3042 9.7583 27.2802 9.5128 27.2635 9.26761C27.2607 9.2275 27.2499 9.18458 27.2305 9.14977C27.1169 8.94641 27.1088 8.71776 27.0692 8.49661C27.2291 8.51846 27.3827 8.49677 27.5364 8.44604C27.7423 8.37799 27.9522 8.32197 28.1603 8.26063C28.2341 8.53781 28.322 8.81188 28.3201 9.10436C28.3196 9.16413 28.3461 9.22485 28.3644 9.28384C28.5451 9.8663 29.2893 9.92358 29.6227 9.55166C29.8727 9.27276 29.8468 8.79127 29.645 8.57933C29.5599 8.4899 29.4683 8.40453 29.3978 8.30449C29.3676 8.26172 29.3839 8.18634 29.3789 8.12578C29.7472 8.13671 30.1165 8.16449 30.477 8.05477C30.784 8.12407 31.0835 8.00623 31.3885 8.01887C31.4702 8.02231 31.5531 8.02028 31.6343 8.0106C31.8164 7.98875 32.001 7.92648 32.1783 7.94411C32.3561 7.96191 32.5242 8.06429 32.7006 8.1147C32.7975 8.14233 32.9031 8.13952 33.0049 8.15044C32.9195 8.2405 32.8249 8.32337 32.7508 8.42169C32.5865 8.63973 32.6024 8.96717 32.7787 9.17334C32.9078 9.32411 33.0728 9.41166 33.2721 9.39137C33.5304 9.365 33.7681 9.39324 33.9802 9.55806C34.027 9.59442 34.0919 9.61908 34.1513 9.62595C34.3953 9.65404 34.5725 9.79654 34.7287 9.96494C34.8444 10.0896 34.9675 10.1916 35.1283 10.2513C35.2038 10.2794 35.2808 10.3202 35.3393 10.3742C35.4492 10.4758 35.5748 10.5437 35.7132 10.5916C36.0931 10.7228 36.4048 10.9426 36.6779 11.2424C36.8579 11.4398 36.9979 11.6817 37.2315 11.8255C37.3857 11.9202 37.4725 12.0513 37.5032 12.2219C37.5427 12.4415 37.6647 12.6071 37.8459 12.721C38.0829 12.8701 38.2268 13.0943 38.3746 13.318C38.4086 13.3695 38.43 13.4299 38.467 13.4787C38.6322 13.6972 38.8628 13.8096 39.1218 13.7389C39.4171 13.6584 39.7337 13.5938 39.9615 13.3615C40.0701 13.2509 40.2069 13.1878 40.3403 13.1607C40.6228 13.1032 40.9103 13.0539 41.2026 13.0678C41.3523 13.075 41.4926 13.1089 41.5979 13.2212C41.783 13.4187 42.0551 13.5117 42.2139 13.7394C42.4298 13.8363 42.5364 14.0646 42.7313 14.1803C43.0541 14.3715 43.3356 14.6065 43.5888 14.8811C43.6434 14.9404 43.7149 14.9951 43.7895 15.0231C44.035 15.1152 44.2165 15.268 44.3337 15.5055C44.4202 15.6808 44.5705 15.8013 44.756 15.852C44.9307 15.8997 45.0518 16.0157 45.1489 16.1442C45.3012 16.3456 45.4621 16.5184 45.6903 16.642C45.8932 16.7521 46.0216 16.9526 46.1142 17.1656C46.1554 17.2604 46.1816 17.3618 46.213 17.4606C46.252 17.583 46.3143 17.6996 46.4215 17.7631C46.6269 17.8847 46.7247 18.1005 46.8886 18.2575C46.9607 18.3267 47.0283 18.4209 47.0531 18.5155C47.158 18.9152 47.221 19.324 47.2004 19.738C47.1942 19.8621 47.1855 19.9802 47.2015 20.106C47.2499 20.4828 47.2326 20.8488 46.9693 21.163C46.9053 21.2394 46.8574 21.3414 46.8356 21.4391C46.7725 21.7206 46.7185 22.005 46.6768 22.2904C46.6523 22.4587 46.6178 22.6158 46.5028 22.7469C46.3599 22.9099 46.2955 23.1011 46.2862 23.3171C46.2818 23.4188 46.2562 23.5203 46.2336 23.6205C46.1696 23.9039 45.9862 24.1418 45.9386 24.4364C45.9132 24.5942 45.8284 24.7536 45.7342 24.8865C45.5974 25.0794 45.555 25.2987 45.4782 25.5121C45.3533 25.8586 45.2482 26.222 44.9805 26.5033C44.9128 26.5743 44.8548 26.6818 44.8466 26.7774C44.8179 27.1098 44.5792 27.3901 44.622 27.7403C44.631 27.814 44.5883 27.9061 44.5436 27.9722C44.3698 28.2302 44.268 28.5254 44.111 28.7907C44.0344 28.9201 43.9718 29.0487 43.976 29.1974C43.9829 29.4379 43.9036 29.6481 43.7578 29.8304C43.6501 29.9648 43.5927 30.1136 43.5524 30.2777C43.4491 30.6979 43.3626 31.1277 43.008 31.4308C42.9781 31.4564 42.9628 31.5001 42.9425 31.5363C42.7799 31.8255 42.5778 32.0855 42.3625 32.3373C42.2831 32.4303 42.2154 32.5391 42.1667 32.6511C42.1247 32.7474 42.0852 32.8397 42.0109 32.9154C41.8896 33.0388 41.8214 33.1944 41.8055 33.3605C41.786 33.5634 41.6961 33.7129 41.5375 33.8295C41.3808 33.9447 41.2755 34.0915 41.2388 34.2869C41.2277 34.3462 41.2043 34.4099 41.1676 34.4564C40.8485 34.8611 40.5476 35.2861 40.0689 35.5269C39.9361 35.5939 39.8246 35.6817 39.7439 35.8086C39.5106 36.1752 39.098 36.2282 38.7398 36.3744C38.6866 36.3961 38.6165 36.3831 38.5551 36.3764C38.473 36.3674 38.3924 36.3452 38.3103 36.3349C38.1879 36.3196 38.0446 36.3443 37.9477 36.2876C37.8502 36.2305 37.7979 36.0955 37.727 35.9937C37.6092 35.8246 37.4954 35.6522 37.3738 35.4859C37.3097 35.3982 37.2691 35.3045 37.2747 35.1981C37.2889 34.9317 37.2037 34.7063 37.0038 34.5304C36.8853 34.4261 36.8384 34.2896 36.8232 34.1451C36.778 33.7143 36.7591 33.2801 36.6209 32.8642C36.6147 32.8454 36.6245 32.8217 36.6197 32.8022C36.5897 32.6823 36.5838 32.5464 36.5209 32.4468C36.3882 32.2365 36.3648 32.0222 36.4235 31.791C36.4607 31.6445 36.4635 31.4921 36.3982 31.3631C36.2937 31.1566 36.2784 30.9245 36.1881 30.7188C36.0775 30.4664 36.008 30.2086 36.0149 29.9361C36.021 29.694 35.9339 29.5005 35.7984 29.3043C35.6361 29.0691 35.5361 28.7947 35.3661 28.5597C35.3096 28.4817 35.2893 28.3655 35.284 28.2652C35.2751 28.0963 35.2497 27.9395 35.1617 27.7901C35.0744 27.642 35.0624 27.4806 35.1091 27.3094C35.1662 27.0998 35.1175 26.9038 35.0179 26.7093C34.8258 26.334 34.7503 25.9435 34.8144 25.5118C34.8623 25.1898 34.9433 24.8611 34.8631 24.5254C34.8345 24.4057 34.8845 24.2793 34.9533 24.1706C35.046 24.0242 35.0574 23.8633 35.063 23.6935C35.0718 23.4263 35.0946 23.1502 35.2163 22.9113C35.3575 22.6344 35.4737 22.3493 35.5943 22.0643C35.6597 21.9099 35.7182 21.7604 35.7376 21.592C35.7516 21.4706 35.7917 21.3507 35.8323 21.2343C35.928 20.9599 36.0561 20.7001 36.218 20.4588C36.333 20.2871 36.463 20.1254 36.5777 19.9536C36.8007 19.6193 36.6999 19.125 36.3698 18.901C35.9208 18.5964 35.4627 18.8316 35.2814 19.1268C35.2043 19.2525 35.1521 19.3873 35.1545 19.5383C35.1578 19.7527 35.0811 19.9439 34.9845 20.1301C34.9371 20.2214 34.9009 20.3186 34.8526 20.4096C34.718 20.6638 34.6254 20.9421 34.4166 21.1544C34.3279 21.2444 34.2622 21.3579 34.2608 21.4865C34.2583 21.7048 34.1047 21.8731 34.0751 22.0763C34.0453 22.2794 34.0625 22.489 34.0418 22.6939C34.0297 22.8156 33.9843 22.9341 33.954 23.0541C33.8635 23.4124 33.7272 23.7586 33.7263 24.1391C33.7258 24.3002 33.6546 24.4605 33.6215 24.6222C33.6009 24.7228 33.5568 24.8361 33.5841 24.9252C33.6426 25.1166 33.5359 25.3006 33.5836 25.4802C33.6329 25.6657 33.6144 25.8518 33.6292 26.0373C33.6521 26.3263 33.6748 26.6175 33.6323 26.9052C33.5905 27.1886 33.6306 27.4388 33.8254 27.6603C33.9245 27.7729 33.9669 27.9134 33.9402 28.0664C33.91 28.2399 33.9574 28.3979 34.0422 28.5438C34.1576 28.7425 34.263 28.9524 34.2941 29.1743C34.3375 29.4846 34.5185 29.7538 34.5263 30.0738C34.5285 30.1658 34.6107 30.2592 34.6657 30.3459C34.7901 30.5426 34.8537 30.7514 34.8665 30.9869C34.8809 31.2535 34.9761 31.5106 34.9898 31.7804C34.9939 31.8594 35.0343 31.9405 35.0727 32.0128C35.1646 32.1853 35.1918 32.3641 35.154 32.5547C35.117 32.7415 35.1201 32.9247 35.1862 33.1073C35.2138 33.1835 35.2316 33.2693 35.2278 33.3497C35.2178 33.5656 35.2904 33.7511 35.38 33.9439C35.466 34.129 35.4772 34.3456 35.6197 34.5115C35.7618 34.6766 35.8075 34.8731 35.7983 35.0912C35.7902 35.2852 35.8587 35.4685 36.0006 35.5981C36.22 35.7985 36.3903 36.0235 36.4847 36.3068C36.5036 36.3633 36.5535 36.4092 36.5888 36.4602C36.7525 36.6973 36.9298 36.9253 37.0595 37.1849C37.1475 37.3611 37.2891 37.4823 37.4775 37.5346C37.62 37.5741 37.7456 37.6387 37.8675 37.7193C38.0521 37.8413 38.2603 37.8689 38.4646 37.7996C38.6071 37.7513 38.7466 37.7445 38.8915 37.7383C39.0162 37.733 39.1343 37.7021 39.2444 37.6314C39.3304 37.5762 39.4284 37.5307 39.5273 37.5067C39.6971 37.4655 39.8309 37.3789 39.9422 37.2482C40.0964 37.0674 40.291 36.9706 40.5282 36.9305C40.6445 36.9108 40.7703 36.8443 40.8544 36.7613C41.0031 36.6144 41.1854 36.5097 41.3304 36.3671C41.4923 36.2077 41.6494 36.0457 41.8213 35.8957C41.9087 35.8194 41.9647 35.6924 42.0029 35.5776C42.0768 35.3562 42.1771 35.153 42.356 35.0028C42.5239 34.8616 42.62 34.6938 42.6555 34.4762C42.6825 34.3108 42.7642 34.1714 42.9202 34.0739C43.0221 34.0101 43.1362 33.917 43.1752 33.8112C43.2715 33.5506 43.5001 33.3794 43.6011 33.13C43.703 32.8781 43.929 32.7005 44.0021 32.434C44.18 32.2466 44.2861 32.0331 44.2877 31.7654C44.2883 31.6668 44.3304 31.5582 44.383 31.472C44.565 31.1728 44.7186 30.8551 44.9449 30.5847C44.9643 30.5616 45.0378 30.5479 45.0537 30.5632C45.2161 30.7215 45.4453 30.7998 45.5679 31.0083C45.6308 31.1152 45.7359 31.1884 45.8518 31.244C46.1073 31.3665 46.2698 31.5788 46.3879 31.8283C46.432 31.9212 46.4654 32.019 46.507 32.1131C46.5489 32.2074 46.5729 32.3237 46.6431 32.3885C46.849 32.5776 46.8988 32.8637 47.0864 33.0602C47.1313 33.3407 47.3821 33.5092 47.4703 33.7646C47.5198 33.908 47.6151 34.0111 47.7146 34.1192C47.8719 34.2899 48.0623 34.6484 48.1074 34.8148C48.1781 35.0757 48.1522 35.3562 48.2347 35.6085C48.3178 35.8622 48.4447 36.1063 48.494 36.3683C48.5327 36.574 48.5617 36.7718 48.6785 36.9536C48.7899 37.1271 48.7704 37.3578 48.9093 37.525C49.0365 37.6781 49.0616 37.8574 49.0402 38.0512C49.0313 38.1315 49.0359 38.2196 49.0601 38.296C49.1691 38.641 49.1485 38.9955 49.1301 39.3457C49.1052 39.8212 49.0704 40.2932 49.1353 40.7699C49.1657 40.9934 49.1539 41.2278 49.1251 41.4527C49.0833 41.7798 49.0043 42.1004 49.1465 42.4253C49.1762 42.4932 49.1406 42.5889 49.1378 42.6719C49.1318 42.85 49.2058 42.9953 49.3346 43.1114C49.3955 43.1662 49.4691 43.2068 49.537 43.2537L49.5354 43.252ZM32.6695 28.9895C32.6768 28.6924 32.551 28.4676 32.2955 28.3192C32.2064 28.2674 32.0959 28.2472 32.016 28.1856C31.8205 28.035 31.6154 27.8981 31.4653 27.6894C31.3221 27.4906 31.0958 27.4293 30.8544 27.4461C30.7721 27.4519 30.6769 27.4533 30.6123 27.4948C30.4456 27.6022 30.2382 27.553 30.0779 27.6437C29.9183 27.7341 29.7811 27.8642 29.6336 27.9763C29.6172 27.9888 29.5975 27.9967 29.5791 28.0064C29.3455 28.1296 29.1983 28.3101 29.1407 28.5773C29.1112 28.7136 29.0207 28.8373 28.9539 28.9647C28.9249 29.0198 28.8376 29.0481 28.8 29.0195C28.734 28.9694 28.6703 28.9162 28.6049 28.8651C28.3883 28.6963 28.1557 28.6714 27.9027 28.7779C27.7504 28.842 27.5937 28.8965 27.4369 28.9491C27.2458 29.0131 27.1778 29.2146 27.0189 29.3134C26.9836 29.3352 26.9459 29.3536 26.9123 29.378C26.754 29.4927 26.6537 29.6416 26.6236 29.8396C26.5822 30.1118 26.477 30.3566 26.291 30.5644C26.158 30.713 26.1227 30.8934 26.1369 31.0874C26.1708 31.5507 26.6796 31.851 27.101 31.6562C27.2791 31.5739 27.4294 31.4489 27.4748 31.2601C27.5787 30.8282 27.8219 30.4661 28.0229 30.0825C28.0666 29.9992 28.1478 29.9881 28.2317 30.0254C28.3922 30.0967 28.4793 30.24 28.5929 30.36C28.825 30.605 29.0951 30.6408 29.3843 30.4855C29.4026 30.4756 29.4212 30.4661 29.4396 30.4566C29.7798 30.2792 30.0937 30.0803 30.1037 29.6357C30.1926 29.4248 30.2827 29.2157 30.4517 29.0513C30.5608 28.9452 30.7225 28.9257 30.8444 29.0329C31.0457 29.2101 31.2577 29.3739 31.4523 29.5609C31.6642 29.7647 31.9447 29.7839 32.2114 29.6703C32.5027 29.5462 32.6662 29.317 32.6698 28.9895H32.6695ZM26.4051 20.8833C26.3987 21.1322 26.4109 21.3799 26.4464 21.6268C26.3604 21.9098 26.5827 22.1443 26.571 22.4158C26.57 22.4364 26.5705 22.4584 26.5769 22.4776C26.6097 22.5757 26.6231 22.69 26.6833 22.7675C26.8032 22.9219 26.8472 23.0976 26.9008 23.2781C26.9793 23.5424 27.2474 23.7235 27.5177 23.7147C27.6833 23.7094 27.85 23.6999 28.0136 23.6751C28.3056 23.6311 28.5241 23.4797 28.5818 23.1772C28.6438 22.8524 28.793 22.5498 28.8134 22.216C28.9136 22.0232 28.9138 21.8171 28.8983 21.6076C28.8907 21.5041 28.8808 21.3988 28.8922 21.2964C28.9453 20.8207 28.9136 20.35 28.8628 19.8747C28.8348 19.6136 28.7813 19.3917 28.5937 19.2038C28.5219 19.1318 28.4752 19.0349 28.4148 18.9511C28.1959 18.6472 27.9525 18.5553 27.6078 18.6458C27.4882 18.6772 27.3699 18.7139 27.2499 18.7435C26.9875 18.8083 26.8116 18.9687 26.7152 19.2189C26.6709 19.3338 26.6513 19.4568 26.5658 19.5567C26.4227 19.7235 26.3909 19.9228 26.4021 20.1396C26.4149 20.387 26.4051 20.6354 26.4051 20.8834V20.8833ZM21.2915 22.2196C21.3925 22.2297 21.4543 22.2386 21.5163 22.2417C21.6644 22.2494 21.8033 22.2286 21.9261 22.1309C22.0065 22.0669 22.0984 22.0173 22.1863 21.963C22.375 21.8461 22.4908 21.6796 22.5053 21.4575C22.5148 21.3119 22.5173 21.1678 22.5805 21.0326C22.6765 20.828 22.6542 20.625 22.5488 20.4347C22.4358 20.2303 22.3511 20.0091 22.3694 19.7844C22.3939 19.4852 22.2153 19.222 22.2589 18.9274C22.1863 18.7337 22.1262 18.5339 22.0379 18.3477C21.9269 18.1136 21.5796 17.9724 21.3455 18.0702C21.0218 18.2056 20.7136 18.3512 20.5258 18.6933C20.3879 18.9447 20.1734 19.1528 20.1687 19.4657C20.1681 19.5038 20.1421 19.5442 20.1202 19.5788C20.0019 19.7664 20.0049 19.9678 20.0314 20.1791C20.0724 20.5065 20.1584 20.8273 20.1697 21.1595C20.1723 21.2379 20.2087 21.3201 20.2472 21.3908C20.2964 21.4812 20.3861 21.5539 20.4191 21.6479C20.5723 22.0857 20.8747 22.2726 21.2915 22.2196Z" fill="#FCFCFC"/>
<path d="M23.5087 9.13803C23.5669 9.27023 23.6454 9.39742 23.6788 9.5357C23.7369 9.77496 23.6734 9.99144 23.4725 10.1481C23.409 10.1978 23.3314 10.2377 23.254 10.2597C22.9351 10.3502 22.6135 10.4306 22.2939 10.5182C22.1737 10.5511 22.0569 10.5947 21.9282 10.5755C21.7504 10.5491 21.6059 10.6171 21.476 10.7347C21.4153 10.7896 21.3487 10.854 21.2738 10.8746C21.0254 10.9429 20.851 11.1367 20.6225 11.236C20.4995 11.2893 20.4288 11.3836 20.3976 11.5144C20.3584 11.6787 20.2677 11.8151 20.1683 11.9515C19.9495 12.252 19.8331 12.591 19.8559 12.934C19.8718 13.1752 19.8362 13.3902 19.689 13.5789C19.566 13.7365 19.5292 13.9227 19.5331 14.1069C19.5376 14.321 19.4711 14.5132 19.4279 14.715C19.3894 14.8951 19.3855 15.078 19.3257 15.2606C19.2361 15.5336 19.2202 15.8299 19.0838 16.0914C19.0872 16.3662 18.893 16.5963 18.9065 16.8744C18.9083 16.9128 18.8884 16.9562 18.8679 16.991C18.7362 17.216 18.6728 17.4426 18.7755 17.7041C18.8105 17.793 18.8033 17.9173 18.7716 18.0106C18.6429 18.3906 18.6457 18.7847 18.6255 19.1761C18.6074 19.5298 18.6753 20.1402 18.7635 20.5258C18.7682 20.546 18.7816 20.5653 18.7819 20.5852C18.7839 20.7092 18.7988 20.8356 18.7794 20.9566C18.7594 21.0816 18.7548 21.1973 18.7836 21.3226C18.8111 21.4418 18.8108 21.5692 18.8086 21.6928C18.8064 21.8228 18.7459 21.9385 18.6535 22.0241C18.5158 22.152 18.3946 22.2901 18.2845 22.4426C18.2261 22.5234 18.1378 22.5918 18.049 22.6395C17.857 22.7424 17.7128 22.874 17.6549 23.0934C17.6173 23.236 17.536 23.3596 17.4164 23.4505C17.1956 23.6186 17.0556 23.8486 16.937 24.0902C16.8806 24.2051 16.8106 24.3014 16.7236 24.3922C16.429 24.7 16.1663 25.0622 15.935 25.4974C15.8749 25.6102 15.8117 25.7181 15.7098 25.7897C15.5631 25.8927 15.4747 26.0336 15.453 26.2005C15.4154 26.49 15.2889 26.7093 15.0327 26.8532C14.9188 26.9172 14.8275 27.02 14.8125 27.1422C14.7699 27.4882 14.4945 27.7233 14.4067 28.0446C14.2056 28.2583 14.1634 28.57 13.9482 28.7791C13.8787 28.8465 13.8428 28.9587 13.8155 29.0571C13.7548 29.2757 13.7078 29.4983 13.6581 29.7199C13.576 30.0846 13.5235 30.4483 13.5616 30.8277C13.5861 31.0721 13.5355 31.3235 13.5285 31.572C13.5217 31.8214 13.5468 32.0629 13.6476 32.3015C13.7433 32.5278 13.7723 32.7819 13.8642 33.0102C14.0521 33.477 14.3407 33.8813 14.7192 34.2139C14.8455 34.3248 14.9461 34.4509 15.0543 34.5763C15.2417 34.7935 15.4201 35.0223 15.6452 35.2066C15.7405 35.2847 15.8286 35.3753 15.9053 35.4718C15.9767 35.5612 16.0667 35.5906 16.171 35.6115C16.4205 35.6617 16.6668 35.6411 16.9092 35.5782C16.962 35.5645 17.0164 35.5132 17.0458 35.4646C17.0984 35.3774 17.1525 35.2823 17.1697 35.1843C17.1954 35.036 17.2402 34.8981 17.3354 34.7866C17.491 34.6045 17.555 34.3946 17.5912 34.1628C17.6167 34.0005 17.7002 33.8471 17.6788 33.6762C17.6711 33.6156 17.6671 33.5298 17.6281 33.5022C17.4146 33.35 17.3501 33.0917 17.1856 32.9081C16.9916 32.6917 16.8874 32.4126 16.6757 32.2068C16.608 32.1409 16.5682 32.0232 16.5588 31.9251C16.5339 31.6641 16.445 31.4478 16.2414 31.2728C16.1123 31.162 16.0503 31.007 16.0369 30.8318C16.0115 30.4989 15.9291 30.1819 15.759 29.8897C15.6711 29.7388 15.6636 29.5709 15.7078 29.4056C15.8034 29.0469 15.8975 28.6892 15.9366 28.3179C15.9469 28.2204 15.9957 28.1138 16.0586 28.0375C16.1902 27.8778 16.3146 27.7156 16.4243 27.5394C16.527 27.3745 16.6927 27.2808 16.8838 27.2444C16.9852 27.2252 17.1055 27.2532 17.1904 27.2085C17.5201 27.0353 17.8277 27.0938 18.145 27.2399C18.2545 27.2905 18.3922 27.3283 18.5069 27.3095C18.7442 27.271 18.9555 27.3417 19.1794 27.3846C19.4068 27.4281 19.6133 27.5096 19.826 27.592C19.9968 27.6582 20.161 27.7617 20.3581 27.7562C20.4174 27.7545 20.485 27.7748 20.5362 27.8058C20.9265 28.0421 21.378 28.1486 21.7656 28.3878C21.9252 28.4865 22.1328 28.473 22.2698 28.6183C22.3833 28.7387 22.5 28.8557 22.6158 28.9737C22.6303 28.9886 22.6486 28.9995 22.6633 29.0141C22.8994 29.2492 22.9862 29.5849 22.6931 29.8989C22.5856 30.0143 22.5183 30.121 22.5328 30.2791C22.5384 30.3398 22.5367 30.4097 22.5117 30.4631C22.4309 30.6361 22.3926 30.8152 22.3911 31.0049C22.3908 31.045 22.3806 31.0912 22.3588 31.1238C22.1859 31.3818 22.0955 31.6855 21.9063 31.9346C21.8316 32.0331 21.7576 32.1334 21.6964 32.2405C21.6327 32.3521 21.551 32.4416 21.4464 32.513C21.3779 32.5596 21.2887 32.5918 21.2444 32.6553C21.0804 32.8908 20.8463 32.9966 20.5863 33.0945C20.1415 33.262 19.7446 33.5309 19.33 33.7614C19.3015 33.7773 19.2762 33.8349 19.2807 33.8689C19.3144 34.1193 19.296 34.3599 19.2345 34.6084C19.1885 34.7944 19.2686 34.973 19.4454 35.0899C19.5312 35.1465 19.6235 35.2063 19.6837 35.2865C19.9344 35.6201 20.2388 35.8952 20.5668 36.1484C20.6151 36.1857 20.6468 36.2437 20.6911 36.2871C20.7828 36.377 20.8859 36.4416 21.0236 36.4151C21.0439 36.4112 21.0649 36.4115 21.0857 36.4107C21.3267 36.4009 21.5391 36.4685 21.7011 36.6539C21.8214 36.7917 21.9664 36.8415 22.1465 36.8212C22.3144 36.8023 22.4697 36.8429 22.6285 36.9117C22.7766 36.9759 22.9494 36.981 23.1086 37.0227C23.2688 37.0647 23.4014 37.1697 23.5565 37.2318C23.8803 37.3614 24.2221 37.4492 24.5218 37.6451C24.7108 37.7686 24.9365 37.8466 25.1679 37.841C25.4974 37.8329 25.8226 37.937 26.1529 37.8719C26.4643 37.9437 26.7716 37.8558 27.0767 37.8277C27.4041 37.7976 27.7375 37.8096 28.0606 37.7284C28.1196 37.7136 28.1899 37.7378 28.2455 37.7178C28.5848 37.5958 28.9408 37.6389 29.2882 37.6175C29.5252 37.6028 29.7282 37.5658 29.9174 37.4094C30.0581 37.2932 30.2454 37.2412 30.3678 37.0875C30.4756 36.952 30.6493 36.917 30.8048 36.8601C30.8863 36.8302 30.9585 36.7864 30.9929 36.7082C31.0759 36.5195 31.2334 36.3659 31.2551 36.1481C31.2591 36.1076 31.2686 36.0594 31.2938 36.031C31.4881 35.8116 31.5752 35.5236 31.7585 35.3004C31.8555 35.1826 31.9344 35.0811 31.902 34.9165C31.8823 34.8168 31.8973 34.71 31.8979 34.6064C31.8996 34.3375 31.9087 34.0714 31.7963 33.8124C31.7493 33.7043 31.7731 33.5672 31.7534 33.445C31.7372 33.3442 31.7116 33.2436 31.6769 33.1476C31.649 33.0703 31.6039 32.9996 31.5173 32.9676C31.4199 32.9317 31.32 32.8989 31.229 32.8502C30.9412 32.6962 30.8193 32.3376 30.9495 32.0466C31.0868 31.7396 31.4049 31.5865 31.7214 31.69C31.917 31.7538 32.1039 31.8422 32.3062 31.8887C32.3638 31.902 32.4262 31.9397 32.4643 31.9848C32.6642 32.2208 32.8461 32.4708 33.0043 32.7373C33.0065 32.9945 33.1559 33.2092 33.2092 33.4514C33.2181 33.4915 33.2326 33.5398 33.2189 33.5738C33.112 33.8368 33.2439 34.1082 33.1855 34.3734C33.1684 34.4511 33.1774 34.5393 33.1935 34.6187C33.2192 34.7453 33.2197 34.868 33.1679 34.9853C33.0561 35.2388 33.0262 35.5025 33.0436 35.7766C33.0575 35.9943 32.99 36.1872 32.8309 36.3413C32.7398 36.4295 32.6738 36.5295 32.6282 36.6497C32.5756 36.7884 32.4693 36.8875 32.3493 36.9765C32.0278 37.2147 31.7732 37.5076 31.6243 37.8864C31.528 38.1316 31.3553 38.2958 31.0974 38.3791C30.9826 38.4162 30.8799 38.4958 30.7772 38.5647C30.6539 38.6474 30.526 38.7222 30.3743 38.7087C30.1185 38.6863 29.9044 38.844 29.6474 38.8511C29.4073 38.8578 29.1574 38.9193 28.9285 39.0267C28.8554 39.061 28.7685 39.0827 28.6883 39.0817C28.3136 39.0775 27.9484 39.1651 27.5794 39.1902C27.2312 39.2141 26.8849 39.3129 26.5303 39.2522C26.4739 39.2425 26.4112 39.2764 26.3506 39.2843C26.2687 39.2952 26.1799 39.3238 26.1048 39.3041C25.8635 39.2411 25.6215 39.1965 25.3719 39.1883C25.3326 39.1871 25.2915 39.1668 25.2555 39.1474C24.7169 38.8581 24.1233 38.7646 23.5321 38.6616C23.3898 38.6368 23.229 38.6363 23.1123 38.5659C22.9406 38.4625 22.7422 38.4999 22.5768 38.4158C22.4089 38.3306 22.2423 38.253 22.0541 38.2212C21.9753 38.2079 21.8923 38.1729 21.8286 38.1247C21.6543 37.9928 21.4492 37.9488 21.2447 37.9257C20.9893 37.8968 20.7736 37.8118 20.5593 37.6637C20.3771 37.5379 20.1477 37.4753 19.9328 37.4041C19.751 37.3439 19.5819 37.2726 19.461 37.1193C19.3948 37.0353 19.3068 36.9865 19.2192 36.93C19.1165 36.8636 19.0287 36.7727 18.9405 36.6862C18.8968 36.6433 18.8776 36.5684 18.8286 36.5387C18.5441 36.3669 18.3867 36.1086 18.2956 35.7994C18.2919 35.7869 18.2595 35.7785 18.2397 35.7764C18.2277 35.7752 18.2079 35.7867 18.2024 35.798C18.1656 35.8721 18.1181 35.9445 18.0994 36.0237C18.0329 36.3035 18.0094 36.5964 17.796 36.8232C17.7628 36.8586 17.7731 36.9417 17.7746 37.0024C17.7835 37.3348 17.771 37.6606 17.6791 37.9874C17.577 38.3504 17.6003 38.7282 17.695 39.092C17.7434 39.2779 17.7841 39.4532 17.7205 39.6403C17.7075 39.6784 17.6971 39.7288 17.7113 39.7627C17.7965 39.9657 17.7021 40.1736 17.7351 40.3767C17.7651 40.5605 17.7868 40.747 17.8342 40.9264C17.8725 41.0706 17.8645 41.2089 17.8655 41.3543C17.867 41.6206 17.8792 41.8928 17.9544 42.1511C18.0243 42.3911 17.9789 42.6004 17.8466 42.8013C17.8239 42.8358 17.8043 42.8721 17.7834 42.9075C17.7264 42.9317 17.6694 42.9562 17.6123 42.9803C17.0959 43.1961 16.6401 42.9266 16.586 42.3711C16.576 42.2683 16.5788 42.1643 16.5732 42.061C16.5504 41.6504 16.4382 41.2454 16.4958 40.8298C16.4299 40.423 16.4641 40.0044 16.338 39.6035C16.3019 39.4892 16.2994 39.3547 16.3178 39.2352C16.3555 38.9897 16.31 38.7406 16.3821 38.4941C16.4205 38.3624 16.412 38.1926 16.3619 38.0645C16.2506 37.7801 16.2901 37.4914 16.2809 37.2033C16.2782 37.1205 16.2893 37.0373 16.2908 36.9543C16.2923 36.8825 16.2242 36.8148 16.1413 36.7809C16.023 36.7325 15.9021 36.7182 15.7757 36.7232C15.6269 36.729 15.4968 36.6846 15.3653 36.6063C15.1898 36.5017 14.9867 36.4433 14.8105 36.3397C14.6511 36.2459 14.5709 36.0555 14.3975 35.9665C14.3262 35.93 14.2555 35.8709 14.2127 35.8041C14.0999 35.6276 13.9502 35.4865 13.8126 35.3324C13.6905 35.1957 13.6002 35.029 13.5048 34.8701C13.3141 34.5527 13.0514 34.2792 12.9242 33.9229C12.7722 33.7636 12.7914 33.5304 12.682 33.3553C12.5776 33.1881 12.5715 33.006 12.5412 32.8211C12.4947 32.5362 12.3823 32.2615 12.3435 31.9764C12.3046 31.6911 12.3389 31.3964 12.3107 31.1088C12.2576 30.566 12.3316 30.0355 12.4285 29.5059C12.4919 29.1598 12.6194 28.8306 12.7123 28.4921C12.8484 28.3176 12.7983 28.0913 12.8796 27.8987C12.9642 27.6983 13.1696 27.6006 13.258 27.4086C13.2754 27.3712 13.3035 27.3386 13.3209 27.3011C13.3906 27.1521 13.4469 26.9957 13.529 26.8541C13.6116 26.7119 13.727 26.5891 13.8129 26.4486C13.8653 26.3629 13.9125 26.262 13.9217 26.1641C13.9466 25.8972 14.0607 25.6878 14.2763 25.5348C14.4687 25.3983 14.6034 25.2271 14.6822 25C14.7212 24.8874 14.8183 24.7954 14.8864 24.6922C14.9374 24.6151 14.9361 24.5394 14.8679 24.4704C14.8534 24.4557 14.8423 24.4376 14.8284 24.4222C14.713 24.2919 14.6591 24.1394 14.6597 23.9657C14.6601 23.8622 14.686 23.7462 14.6488 23.6576C14.5247 23.3618 14.5968 23.0909 14.7025 22.8132C14.7542 22.6776 14.7712 22.5343 14.7367 22.385C14.6853 22.1615 14.7537 21.9356 14.7329 21.7067C14.7031 21.3778 14.7033 21.0484 14.5881 20.7319C14.5369 20.5915 14.5408 20.4408 14.6042 20.3053C14.7173 20.0629 14.7091 19.8259 14.6207 19.5793C14.5942 19.505 14.5836 19.4093 14.606 19.3358C14.7398 18.8997 14.6469 18.4677 14.5617 18.0463C14.5062 17.7712 14.4743 17.5174 14.5876 17.2582C14.6405 17.137 14.643 17.0187 14.5906 16.8972C14.4955 16.6773 14.4987 16.4559 14.5683 16.2276C14.604 16.1104 14.6073 15.9834 14.631 15.8621C14.6469 15.7811 14.6563 15.692 14.6973 15.6236C14.9307 15.235 15.1325 14.8262 15.4193 14.471C15.5885 14.2616 15.7529 14.0521 15.8203 13.7802C15.8665 13.5936 15.98 13.4405 16.1504 13.3442C16.3595 13.226 16.5128 13.0686 16.5632 12.8263C16.7812 12.4756 17.0188 12.1382 17.2779 11.8173C17.3404 11.7399 17.4333 11.6606 17.5255 11.6389C17.7333 11.5899 17.9053 11.4779 18.0907 11.3864C18.2767 11.2946 18.4748 11.2269 18.6911 11.2552C18.801 11.2695 18.892 11.2452 18.9466 11.1325C19.0296 10.9611 19.1512 10.8286 19.3185 10.7262C19.5144 10.6062 19.6725 10.4423 19.7697 10.2244C19.8493 10.0462 19.9904 9.92854 20.1764 9.86236C20.2537 9.83489 20.3355 9.80306 20.3968 9.7514C20.5961 9.58346 20.8165 9.49903 21.0809 9.49918C21.2477 9.49918 21.406 9.42989 21.5411 9.32626C21.7515 9.16503 21.9812 9.09979 22.2425 9.16847C22.4106 9.21263 22.5871 9.19406 22.7291 9.11977C23.0015 8.97759 23.2503 9.05016 23.5075 9.13694L23.5087 9.13803ZM15.9199 21.845C15.9177 21.845 15.9153 21.845 15.9132 21.845C15.9132 22.0933 15.9096 22.3416 15.9152 22.5897C15.9171 22.6711 15.938 22.7533 15.9606 22.8323C15.9712 22.8693 16.0065 22.8991 16.0304 22.9323C16.0622 22.9766 16.1669 22.9671 16.1822 22.9136C16.2707 22.6049 16.4277 22.352 16.7024 22.1671C16.8181 22.0892 16.9282 21.9662 16.9805 21.839C17.0717 21.6168 17.2185 21.4576 17.3983 21.312C17.4341 21.2829 17.4534 21.1885 17.4342 21.1445C17.3384 20.9251 17.3361 20.7033 17.3823 20.4753C17.2967 20.2549 17.403 20.0202 17.3407 19.8035C17.2741 19.5715 17.4015 19.3566 17.3596 19.1262C17.3236 18.927 17.3741 18.7221 17.3482 18.5131C17.3214 18.2962 17.4072 18.0696 17.3479 17.8409C17.3295 17.7698 17.3662 17.6767 17.3968 17.6017C17.5079 17.3295 17.5798 17.0531 17.5513 16.7547C17.5436 16.6746 17.5538 16.5841 17.5853 16.5112C17.6446 16.3739 17.6574 16.2345 17.6651 16.0882C17.6704 15.988 17.7138 15.8899 17.7392 15.7905C17.8004 15.5512 17.8965 15.3141 17.912 15.0717C17.927 14.8394 17.9784 14.6299 18.0516 14.4122C18.1169 14.2179 18.1522 14.0153 18.2377 13.823C18.3028 13.6765 18.3099 13.5035 18.3384 13.3415C18.3518 13.2649 18.2405 13.1965 18.1631 13.232C18.0506 13.2835 17.9352 13.3306 17.8283 13.3922C17.5536 13.551 17.3111 13.7314 17.2911 14.0946C17.2791 14.3131 17.1595 14.4971 16.9747 14.6056C16.634 14.8056 16.4808 15.1545 16.267 15.4529C16.0458 15.7616 15.9854 16.1351 15.9342 16.5018C15.9139 16.647 15.8932 16.786 15.8359 16.9214C15.7942 17.0198 15.7978 17.1224 15.8562 17.2184C16.0185 17.4849 16.0419 17.7595 15.9188 18.0505C15.888 18.1231 15.8974 18.2132 15.8913 18.2956C15.8666 18.6268 15.9245 18.9531 15.9478 19.2816C15.9565 19.4038 15.965 19.5343 15.9325 19.6493C15.8729 19.8602 15.8757 20.0581 15.9704 20.254C16.0569 20.4327 16.0511 20.6112 15.994 20.7977C15.9643 20.8945 15.9547 20.9991 15.949 21.101C15.9353 21.3487 15.9292 21.5968 15.92 21.8448L15.9199 21.845Z" fill="#070607"/>
<path d="M49.5353 43.252C49.4674 43.205 49.3937 43.1644 49.3329 43.1096C49.2039 42.9937 49.1301 42.8482 49.1361 42.6701C49.1389 42.5871 49.1745 42.4914 49.1448 42.4236C49.0026 42.0986 49.0816 41.778 49.1234 41.4509C49.1521 41.226 49.164 40.9916 49.1336 40.7681C49.0688 40.2915 49.1034 39.8195 49.1284 39.3439C49.1468 38.9937 49.1676 38.6393 49.0583 38.2942C49.0341 38.2179 49.0298 38.1297 49.0385 38.0495C49.0599 37.8556 49.0346 37.6763 48.9076 37.5232C48.7687 37.356 48.7882 37.1254 48.6767 36.9518C48.56 36.77 48.531 36.5723 48.4923 36.3665C48.4429 36.1043 48.316 35.8604 48.233 35.6068C48.1504 35.3544 48.1764 35.074 48.1057 34.813C48.0606 34.6466 47.8702 34.2881 47.7128 34.1174C47.6133 34.0094 47.5181 33.9062 47.4686 33.7628C47.3804 33.5075 47.1296 33.3387 47.0846 33.0584C46.897 32.8619 46.8473 32.5759 46.6414 32.3867C46.571 32.3221 46.547 32.2057 46.5053 32.1114C46.4636 32.0173 46.4302 31.9194 46.3862 31.8266C46.2681 31.577 46.1056 31.3647 45.8501 31.2422C45.7341 31.1867 45.6291 31.1135 45.5662 31.0066C45.4437 30.798 45.2146 30.7197 45.052 30.5614C45.0362 30.5461 44.9627 30.5599 44.9432 30.583C44.7169 30.8534 44.5633 31.1712 44.3813 31.4702C44.3289 31.5566 44.2866 31.665 44.286 31.7637C44.2844 32.0313 44.1784 32.2448 44.0003 32.4323C43.9273 32.6987 43.7013 32.8763 43.5994 33.1282C43.4984 33.3776 43.2698 33.5488 43.1735 33.8095C43.1344 33.9151 43.0204 34.0083 42.9184 34.0721C42.7625 34.1698 42.6807 34.3092 42.6537 34.4745C42.6183 34.692 42.5222 34.8598 42.3542 35.0011C42.1754 35.1514 42.0752 35.3544 42.0012 35.5759C41.963 35.6906 41.9069 35.8176 41.8195 35.894C41.6477 36.0439 41.4905 36.2059 41.3287 36.3653C41.1837 36.5079 41.0014 36.6127 40.8527 36.7595C40.7685 36.8426 40.6428 36.9091 40.5265 36.9287C40.2893 36.9688 40.0946 37.0656 39.9404 37.2465C39.829 37.3771 39.6954 37.4637 39.5256 37.5049C39.4266 37.529 39.3286 37.5744 39.2426 37.6296C39.1326 37.7002 39.0145 37.7311 38.8898 37.7365C38.7448 37.7428 38.6054 37.7495 38.4629 37.7979C38.2586 37.8673 38.0505 37.8396 37.8658 37.7175C37.7439 37.637 37.6182 37.5725 37.4757 37.5329C37.2874 37.4806 37.1458 37.3593 37.0578 37.1831C36.9282 36.9236 36.7508 36.6955 36.5871 36.4585C36.5518 36.4074 36.5019 36.3616 36.483 36.3051C36.3884 36.0218 36.2183 35.7966 35.9988 35.5963C35.857 35.4668 35.7884 35.2834 35.7966 35.0894C35.8058 34.8714 35.76 34.6749 35.618 34.5098C35.4754 34.3438 35.4643 34.1274 35.3783 33.9421C35.2887 33.7494 35.2161 33.564 35.2261 33.348C35.2299 33.2677 35.2119 33.1819 35.1844 33.1056C35.1184 32.923 35.1153 32.7397 35.1523 32.5529C35.1901 32.3622 35.1629 32.1835 35.071 32.011C35.0324 31.9388 34.992 31.8576 34.9881 31.7786C34.9744 31.5088 34.8792 31.2517 34.8648 30.9852C34.8522 30.7497 34.7883 30.5408 34.6639 30.3442C34.609 30.2574 34.5267 30.1641 34.5246 30.072C34.5168 29.7522 34.3357 29.4828 34.2923 29.1726C34.2613 28.9506 34.1558 28.7407 34.0404 28.542C33.9555 28.3961 33.9082 28.238 33.9385 28.0646C33.9652 27.9116 33.9229 27.7713 33.8236 27.6585C33.6289 27.437 33.5888 27.187 33.6306 26.9034C33.673 26.6158 33.6504 26.3245 33.6275 26.0355C33.6128 25.8501 33.6312 25.664 33.5819 25.4785C33.5341 25.2988 33.6409 25.1148 33.5824 24.9235C33.5552 24.8344 33.5992 24.7209 33.6198 24.6204C33.6529 24.4585 33.7241 24.2984 33.7245 24.1374C33.7256 23.757 33.8619 23.4107 33.9522 23.0523C33.9825 22.9323 34.0279 22.8139 34.0401 22.6921C34.0607 22.4872 34.0435 22.2776 34.0734 22.0745C34.1032 21.8713 34.2566 21.7032 34.2591 21.4847C34.2605 21.3561 34.3262 21.2427 34.4149 21.1526C34.6237 20.9404 34.7162 20.6622 34.8509 20.4078C34.899 20.3169 34.9354 20.2198 34.9828 20.1283C35.0794 19.9421 35.1562 19.7509 35.1528 19.5365C35.1504 19.3854 35.2024 19.2506 35.2796 19.1251C35.461 18.8298 35.9191 18.5946 36.3681 18.8992C36.6983 19.1232 36.799 19.6175 36.576 19.9518C36.4613 20.1236 36.3314 20.2855 36.2162 20.457C36.0544 20.6983 35.9261 20.9582 35.8306 21.2325C35.79 21.349 35.7497 21.4688 35.7358 21.5902C35.7165 21.7586 35.658 21.908 35.5926 22.0625C35.4718 22.3475 35.3558 22.6327 35.2146 22.9095C35.0927 23.1485 35.07 23.4246 35.0613 23.6918C35.0557 23.8617 35.0444 24.0226 34.9516 24.1689C34.8826 24.2777 34.8328 24.4041 34.8614 24.5236C34.9414 24.8595 34.8604 25.188 34.8127 25.51C34.7485 25.9417 34.8241 26.3322 35.0162 26.7075C35.1158 26.902 35.1645 27.0982 35.1073 27.3076C35.0607 27.4789 35.0727 27.6402 35.1599 27.7883C35.248 27.9377 35.2734 28.0946 35.2823 28.2634C35.2876 28.3638 35.3081 28.4799 35.3644 28.5579C35.5344 28.793 35.6344 29.0672 35.7967 29.3026C35.932 29.4987 36.0193 29.6923 36.0132 29.9343C36.0062 30.2068 36.0758 30.4647 36.1864 30.717C36.2766 30.9226 36.2919 31.1548 36.3965 31.3613C36.4617 31.4904 36.4589 31.6425 36.4218 31.7893C36.3633 32.0204 36.3865 32.2347 36.5192 32.4451C36.5821 32.5448 36.588 32.6806 36.618 32.8004C36.6228 32.82 36.6131 32.8437 36.6192 32.8624C36.7572 33.2783 36.7761 33.7127 36.8215 34.1433C36.8366 34.2878 36.8836 34.4244 37.0021 34.5286C37.2018 34.7045 37.2872 34.9299 37.273 35.1963C37.2674 35.3028 37.308 35.3966 37.3721 35.4841C37.4938 35.6505 37.6075 35.8228 37.7253 35.992C37.7962 36.0937 37.8484 36.2289 37.946 36.2859C38.0428 36.3425 38.1862 36.3179 38.3085 36.3331C38.3906 36.3434 38.4713 36.3656 38.5534 36.3747C38.6146 36.3814 38.6848 36.3943 38.7381 36.3726C39.0961 36.2265 39.5089 36.1735 39.7422 35.8069C39.8231 35.68 39.9343 35.592 40.0672 35.5252C40.5458 35.2843 40.8466 34.8592 41.1659 34.4547C41.2027 34.408 41.226 34.3443 41.2371 34.2852C41.2738 34.0899 41.3791 33.9431 41.5358 33.8277C41.6944 33.7111 41.7843 33.5616 41.8038 33.3587C41.8199 33.1927 41.8881 33.0371 42.0092 32.9136C42.0836 32.8378 42.1231 32.7455 42.1649 32.6494C42.2138 32.5373 42.2814 32.4285 42.3608 32.3355C42.5759 32.0836 42.778 31.8238 42.9408 31.5345C42.9611 31.4983 42.9763 31.4548 43.0063 31.429C43.3609 31.1259 43.4474 30.6961 43.5507 30.276C43.5911 30.1118 43.6486 29.9632 43.7561 29.8287C43.902 29.6464 43.9813 29.4363 43.9743 29.1957C43.9701 29.0469 44.0328 28.9183 44.1093 28.7889C44.2663 28.5236 44.3679 28.2286 44.5419 27.9705C44.5865 27.9043 44.6293 27.8122 44.6203 27.7386C44.5775 27.3883 44.8161 27.1079 44.8448 26.7756C44.8531 26.6801 44.911 26.5725 44.9788 26.5015C45.2464 26.2203 45.3516 25.8569 45.4765 25.5103C45.5534 25.297 45.5957 25.0777 45.7324 24.8848C45.8267 24.7518 45.9115 24.5925 45.9369 24.4347C45.9843 24.14 46.1679 23.9021 46.2319 23.6187C46.2545 23.5185 46.2801 23.4171 46.2845 23.3153C46.2937 23.0993 46.3581 22.9081 46.5011 22.7452C46.616 22.6142 46.6504 22.4569 46.6751 22.2887C46.7168 22.0031 46.7708 21.7189 46.8338 21.4373C46.8557 21.3396 46.9034 21.2377 46.9676 21.1612C47.2309 20.847 47.2482 20.481 47.1998 20.1043C47.1838 19.9786 47.1925 19.8603 47.1987 19.7363C47.2193 19.322 47.1563 18.9134 47.0514 18.5137C47.0266 18.4192 46.959 18.3249 46.8869 18.2558C46.723 18.0988 46.6252 17.8829 46.4198 17.7613C46.3125 17.6978 46.2501 17.5814 46.2113 17.4589C46.1799 17.3601 46.1537 17.2586 46.1125 17.1639C46.0198 16.9508 45.8915 16.7503 45.6886 16.6403C45.4604 16.5167 45.2993 16.3437 45.1472 16.1424C45.0501 16.0139 44.929 15.898 44.7543 15.8502C44.5688 15.7995 44.4185 15.679 44.332 15.5037C44.2148 15.2662 44.0331 15.1134 43.7878 15.0213C43.7132 14.9934 43.6417 14.9386 43.5871 14.8793C43.3341 14.6048 43.0524 14.3696 42.7296 14.1785C42.5345 14.063 42.4279 13.8347 42.2122 13.7376C42.0533 13.5099 41.7812 13.4171 41.5962 13.2195C41.4909 13.1071 41.3507 13.0732 41.2009 13.066C40.9086 13.0522 40.6211 13.1015 40.3386 13.1589C40.2051 13.1861 40.0684 13.2491 39.9598 13.3598C39.7319 13.592 39.4156 13.6566 39.1201 13.7372C38.8609 13.8079 38.6304 13.6955 38.4652 13.477C38.4282 13.4281 38.4069 13.3677 38.3728 13.3162C38.2249 13.0926 38.081 12.8683 37.8442 12.7193C37.663 12.6053 37.541 12.4397 37.5015 12.2201C37.4707 12.0495 37.3841 11.9184 37.2298 11.8237C36.9961 11.6801 36.856 11.4382 36.6762 11.2406C36.4029 10.9407 36.0912 10.7211 35.7115 10.5898C35.5731 10.542 35.4474 10.474 35.3375 10.3724C35.279 10.3182 35.2021 10.2777 35.1265 10.2496C34.9658 10.1898 34.8427 10.0879 34.727 9.96318C34.5708 9.79477 34.3936 9.65228 34.1495 9.62419C34.0902 9.61732 34.0253 9.59266 33.9785 9.5563C33.7662 9.39149 33.5285 9.36339 33.2704 9.38961C33.0711 9.4099 32.9061 9.3225 32.777 9.17158C32.6007 8.96541 32.5847 8.63797 32.7491 8.41993C32.8232 8.32161 32.9178 8.23873 33.0032 8.14868C33.3142 8.11153 33.6215 8.17396 33.9288 8.19738C34.0709 8.2083 34.2148 8.23608 34.3596 8.23592C34.5358 8.23561 34.6909 8.29695 34.808 8.42181C34.9858 8.61159 35.2164 8.69884 35.4495 8.78265C35.6275 8.84679 35.7927 8.92139 35.9253 9.06545C35.9934 9.13927 36.0944 9.18188 36.1752 9.24524C36.2723 9.32125 36.3931 9.38743 36.4513 9.48794C36.5608 9.67725 36.7186 9.81585 36.8942 9.91573C37.2945 10.1434 37.5803 10.511 37.9663 10.7546C38.047 10.8055 38.103 10.9099 38.147 11.0009C38.2238 11.1599 38.3419 11.2767 38.4977 11.3396C38.7484 11.4407 38.9013 11.6219 38.9962 11.8645C39.0038 11.8838 39.0077 11.905 39.0182 11.9227C39.1033 12.0686 39.2821 12.1714 39.4415 12.1104C39.8861 11.9401 40.3791 11.935 40.8038 11.7015C40.958 11.6168 41.1214 11.6174 41.2875 11.6648C41.4061 11.6987 41.5238 11.7479 41.6447 11.7594C41.8164 11.776 41.9655 11.8342 42.1081 11.9245C42.2124 11.9906 42.3229 12.0467 42.4285 12.1107C42.5166 12.164 42.6144 12.2092 42.6854 12.2805C42.9213 12.5173 43.1861 12.7105 43.4808 12.8663C43.5532 12.9045 43.6393 12.9448 43.6807 13.0089C43.8299 13.2404 44.0731 13.3765 44.2415 13.585C44.3978 13.7787 44.6326 13.8861 44.7701 14.1055C44.8559 14.2425 45.0109 14.3295 45.1685 14.3905C45.4115 14.4846 45.5999 14.635 45.6965 14.8863C45.759 15.0485 45.8765 15.1699 46.028 15.2448C46.2618 15.3603 46.4396 15.5222 46.5374 15.7663C46.7928 16.0372 47.0384 16.3184 47.3074 16.5752C47.4625 16.7233 47.5986 16.8691 47.636 17.0863C47.8547 17.4333 47.9636 17.8465 48.2808 18.1345C48.4063 18.2484 48.4843 18.3937 48.5054 18.5678C48.5152 18.6488 48.5314 18.7343 48.5681 18.8058C48.6861 19.0366 48.7438 19.2685 48.6558 19.5251C48.6373 19.5791 48.6477 19.6512 48.666 19.7082C48.7271 19.8995 48.7081 20.0929 48.6078 20.2504C48.4684 20.4692 48.5108 20.7333 48.3793 20.955C48.2517 21.1701 48.236 21.4281 48.2208 21.6784C48.2173 21.7388 48.2004 21.8056 48.1683 21.8557C47.9988 22.1207 48.0176 22.4577 47.8257 22.7169C47.7386 22.8345 47.744 22.9935 47.7565 23.1399C47.7771 23.3796 47.723 23.5939 47.5547 23.7721C47.4197 23.9151 47.3649 24.098 47.3367 24.2808C47.3008 24.5119 47.2376 24.7167 47.0854 24.9046C46.9843 25.0293 46.9334 25.1968 46.8693 25.3489C46.789 25.5393 46.6917 25.7283 46.6509 25.928C46.6121 26.1181 46.5131 26.2724 46.4426 26.4435C46.3795 26.5963 46.3058 26.7541 46.2902 26.9148C46.2618 27.2103 46.0805 27.4553 46.0494 27.7475C46.0411 27.8256 45.9968 27.907 45.9497 27.9728C45.7377 28.2683 45.6694 28.6141 45.5903 28.9569C45.5572 29.1004 45.5678 29.1287 45.7051 29.1957C45.9679 29.3238 46.2214 29.4594 46.3845 29.7196C46.4265 29.7865 46.4986 29.8377 46.5645 29.8858C46.7194 29.9986 46.8284 30.1375 46.903 30.3192C47.0355 30.6418 47.3682 31.1032 47.629 31.3911C47.7117 31.4824 47.8059 31.5765 47.8502 31.6872C47.9675 31.9803 48.1412 32.2313 48.346 32.4669C48.4127 32.5437 48.4787 32.6317 48.5097 32.7263C48.5708 32.9117 48.7348 33.0266 48.8083 33.1972C48.8731 33.3476 48.8993 33.515 48.9661 33.6642C49.0334 33.8145 49.1189 33.9596 49.2167 34.0921C49.3052 34.212 49.3766 34.3312 49.3975 34.481C49.4374 34.7663 49.5882 35.0337 49.5283 35.3368C49.5178 35.3895 49.5539 35.4552 49.5787 35.5103C49.6722 35.7178 49.7716 35.9224 49.8651 36.1296C49.8991 36.205 49.95 36.2866 49.9458 36.3628C49.9305 36.6419 50.1124 36.8708 50.1184 37.1488C50.1237 37.3937 50.2036 37.6362 50.24 37.8814C50.2794 38.1466 50.3308 38.4133 50.3342 38.6798C50.3416 39.2386 50.404 39.7947 50.4013 40.3533C50.4007 40.4792 50.4068 40.597 50.4474 40.7191C50.4789 40.814 50.4845 40.9239 50.4751 41.0247C50.4517 41.2749 50.4547 41.5208 50.5082 41.7676C50.5537 41.977 50.5312 42.1826 50.4146 42.368C50.3339 42.4964 50.3311 42.6442 50.2949 42.7841C50.2137 43.0972 50.0605 43.2223 49.7213 43.2565C49.6601 43.2626 49.5974 43.2534 49.5354 43.2512L49.5353 43.252Z" fill="#070607"/>
<path d="M27.0678 8.49566C27.1074 8.71681 27.1155 8.9453 27.2291 9.14882C27.2485 9.18362 27.2594 9.2267 27.2621 9.26665C27.2789 9.512 27.303 9.75734 27.304 10.0028C27.3056 10.305 27.0331 10.5722 26.7091 10.6081C26.4157 10.6406 26.0844 10.3972 26.0244 10.1026C26.0123 10.0425 26.0165 9.97928 26.0046 9.91919C25.9529 9.65871 25.9066 9.39744 25.7569 9.16739C25.702 9.0828 25.6733 8.98104 25.6327 8.88724C25.6364 8.86695 25.6455 8.84604 25.6433 8.82637C25.6149 8.57931 25.4897 8.36174 25.4246 8.12529C25.4037 8.0496 25.3499 7.97375 25.2913 7.91928C25.156 7.79333 25.0196 7.66207 24.8632 7.5664C24.6341 7.42594 24.4503 7.22991 24.214 7.09475C23.9434 6.94008 23.8467 6.55692 23.9491 6.26975C24.0649 5.94512 24.3838 5.73786 24.722 5.76392C24.8954 5.77719 25.0452 5.84836 25.1629 5.96806C25.294 6.10166 25.4401 6.21029 25.5899 6.32079C25.7362 6.42879 25.8379 6.59501 25.9743 6.71924C26.0842 6.81944 26.1665 6.93072 26.2325 7.06244C26.3706 7.33807 26.5175 7.60807 26.6832 7.87012C26.8135 8.07613 26.8895 8.3168 27.0675 8.4955L27.0678 8.49566Z" fill="#070607"/>
<path d="M29.3771 8.12482C29.3819 8.18537 29.3658 8.26076 29.3959 8.30352C29.4665 8.40356 29.5581 8.48893 29.6432 8.57836C29.845 8.79031 29.8707 9.27164 29.6208 9.55069C29.2875 9.92261 28.5433 9.86534 28.3626 9.28287C28.3443 9.22388 28.3178 9.16317 28.3183 9.10339C28.3201 8.81107 28.2323 8.53685 28.1584 8.25966C28.1304 7.99434 28.1216 7.7287 28.0678 7.46354C27.9899 7.08038 28.0203 6.68427 28 6.29409C27.9949 6.1942 28.0086 6.07793 28.0565 5.99365C28.1684 5.79716 28.2594 5.59488 28.3473 5.38653C28.4336 5.18192 28.578 4.99978 28.6905 4.80298C28.8711 4.48693 29.3168 4.40905 29.6144 4.61241C29.925 4.82467 30.0188 5.24201 29.818 5.53808C29.7602 5.62314 29.6762 5.69165 29.6255 5.77983C29.5757 5.86661 29.5194 5.97055 29.5246 6.06388C29.5384 6.31875 29.4651 6.54693 29.3942 6.7865C29.2644 7.22537 29.2431 7.67689 29.3771 8.12482Z" fill="#070607"/>
<path d="M39.764 8.1821C39.7621 7.75477 40.0359 7.44044 40.4014 7.39253C40.5501 7.37302 40.6912 7.39737 40.8209 7.4765C40.9981 7.58466 41.1754 7.69281 41.3534 7.79941C41.4048 7.83016 41.4591 7.80644 41.4912 7.74213C41.5281 7.668 41.5551 7.58762 41.6003 7.51926C41.7717 7.26065 42.0222 7.19276 42.3097 7.25956C42.5547 7.31652 42.706 7.48711 42.7553 7.72887C42.7845 7.87245 42.8165 8.01073 42.8829 8.14168C43.0067 8.38546 42.9791 8.62332 42.8506 8.85727C42.811 8.92969 42.7704 9.00366 42.7457 9.08186C42.6807 9.2885 42.56 9.44894 42.3846 9.57583C42.3013 9.63607 42.2363 9.72113 42.1581 9.78918C42.0264 9.90389 41.8632 9.96975 41.6977 9.93323C41.492 9.88781 41.2879 9.88079 41.0806 9.8719C40.8829 9.86331 40.7159 9.76889 40.6038 9.61063C40.4839 9.44114 40.3639 9.27507 40.2121 9.13195C40.1687 9.09106 40.1361 9.03113 40.1164 8.9737C40.0488 8.7758 39.9368 8.60209 39.8372 8.42089C39.7891 8.33318 39.7763 8.22596 39.7637 8.18226L39.764 8.1821Z" fill="#FF8CBD"/>
<path d="M12.6444 19.0557C12.6622 19.1745 12.6394 19.3143 12.5889 19.4548C12.547 19.5707 12.5191 19.6931 12.4977 19.8148C12.4685 19.9817 12.4094 20.1299 12.3098 20.2696C12.2391 20.3687 12.2101 20.4966 12.149 20.6039C11.9191 21.0093 11.5867 21.0509 11.2477 20.9715C11.152 20.949 11.0451 20.8908 10.9847 20.8157C10.7756 20.5557 10.4666 20.4025 10.272 20.1301C9.94733 19.9108 9.87789 19.5609 9.81 19.2138C9.77831 19.0518 9.76145 18.8859 9.7513 18.7209C9.72617 18.3139 10.0667 17.9376 10.5918 18.1201C10.6659 18.1458 10.7322 18.2075 10.7897 18.2647C10.9362 18.411 11.075 18.5647 11.2182 18.7142C11.2594 18.7573 11.3411 18.7447 11.3732 18.6905C11.4256 18.602 11.4651 18.5037 11.528 18.4236C11.7027 18.2018 11.9377 18.1538 12.1998 18.2256C12.4476 18.2936 12.5723 18.4778 12.6199 18.7172C12.6399 18.818 12.6357 18.9235 12.6444 19.0557Z" fill="#FF8CBD"/>
<path d="M32.6706 28.9895C32.6671 29.317 32.5036 29.5462 32.2122 29.6703C31.9455 29.7839 31.6652 29.7646 31.4531 29.5609C31.2586 29.3739 31.0465 29.2101 30.8451 29.0329C30.7233 28.9257 30.5617 28.9452 30.4525 29.0513C30.2833 29.2157 30.1934 29.4248 30.1044 29.6357C30.0946 30.0803 29.7807 30.2792 29.4403 30.4566C29.4219 30.4663 29.4034 30.4757 29.3851 30.4855C29.0957 30.6408 28.8257 30.6052 28.5937 30.36C28.4799 30.24 28.3929 30.0967 28.2325 30.0254C28.1485 29.9881 28.0672 29.9992 28.0237 30.0825C27.8227 30.4661 27.5793 30.8284 27.4756 31.2601C27.4301 31.4489 27.2798 31.5739 27.1018 31.6562C26.6804 31.851 26.1717 31.5507 26.1377 31.0875C26.1235 30.8933 26.1588 30.713 26.2917 30.5645C26.4778 30.3566 26.5828 30.1117 26.6243 29.8397C26.6545 29.6418 26.7548 29.4927 26.9131 29.378C26.9466 29.3536 26.9844 29.3354 27.0197 29.3134C27.1786 29.2147 27.2466 29.0133 27.4376 28.9491C27.5945 28.8965 27.7512 28.842 27.9035 28.7779C28.1565 28.6715 28.3892 28.6963 28.6057 28.8651C28.6711 28.9162 28.7347 28.9694 28.8008 29.0195C28.8384 29.0481 28.9258 29.0198 28.9546 28.9647C29.0214 28.8374 29.1121 28.7136 29.1415 28.5773C29.1992 28.3102 29.3462 28.1296 29.5799 28.0064C29.5983 27.9968 29.6179 27.9888 29.6343 27.9763C29.7818 27.8643 29.919 27.7341 30.0787 27.6437C30.239 27.553 30.4464 27.6022 30.6131 27.4948C30.6777 27.4532 30.7729 27.4518 30.8551 27.4461C31.0966 27.4293 31.3229 27.4906 31.466 27.6895C31.6163 27.8981 31.8214 28.035 32.0168 28.1856C32.0967 28.2473 32.2072 28.2674 32.2963 28.3192C32.5518 28.4676 32.6776 28.6924 32.6703 28.9895H32.6706Z" fill="#12C0B5"/>
<path d="M26.4054 20.8831C26.4054 20.6351 26.4153 20.3866 26.4025 20.1393C26.3912 19.9225 26.423 19.7232 26.5662 19.5563C26.6517 19.4566 26.6712 19.3335 26.7155 19.2186C26.812 18.9684 26.9879 18.808 27.2502 18.7432C27.3703 18.7135 27.4886 18.6769 27.6081 18.6455C27.953 18.555 28.1962 18.6469 28.4152 18.9508C28.4756 19.0346 28.5221 19.1315 28.594 19.2035C28.7816 19.3914 28.8352 19.6133 28.8631 19.8744C28.914 20.3495 28.9457 20.8202 28.8926 21.2961C28.8812 21.3983 28.8912 21.5038 28.8987 21.6073C28.914 21.8167 28.914 22.0229 28.8138 22.2156C28.7933 22.5495 28.644 22.8521 28.5822 23.1769C28.5244 23.4794 28.3059 23.6307 28.0139 23.6748C27.8503 23.6994 27.6836 23.7089 27.5181 23.7144C27.2476 23.7231 26.9796 23.5421 26.9011 23.2777C26.8476 23.0975 26.8036 22.9217 26.6837 22.7672C26.6234 22.6896 26.61 22.5754 26.5773 22.4772C26.5709 22.458 26.5704 22.436 26.5713 22.4154C26.5832 22.144 26.3609 21.9094 26.4468 21.6265C26.4112 21.3796 26.3989 21.1319 26.4054 20.8829V20.8831Z" fill="#070607"/>
<path d="M21.2928 22.2196C20.8759 22.2725 20.5736 22.0857 20.4203 21.6479C20.3874 21.5538 20.2976 21.4812 20.2485 21.3908C20.2099 21.32 20.1736 21.2377 20.1709 21.1595C20.1597 20.8273 20.0737 20.5065 20.0326 20.1791C20.0061 19.9679 20.0031 19.7664 20.1214 19.5788C20.1433 19.5442 20.1694 19.5038 20.17 19.4657C20.1747 19.1528 20.3891 18.9447 20.5271 18.6933C20.715 18.3512 21.0231 18.2057 21.3468 18.0702C21.5807 17.9724 21.928 18.1136 22.0391 18.3477C22.1274 18.5339 22.1875 18.7337 22.2601 18.9274C22.2165 19.2221 22.3951 19.4852 22.3706 19.7844C22.3522 20.0091 22.4369 20.2304 22.5501 20.4347C22.6553 20.6251 22.6777 20.828 22.5818 21.0327C22.5184 21.1678 22.5161 21.3119 22.5065 21.4575C22.492 21.6796 22.3764 21.8461 22.1875 21.963C22.0997 22.0173 22.0077 22.0671 21.9274 22.1309C21.8045 22.2285 21.6658 22.2492 21.5175 22.2417C21.4554 22.2386 21.3937 22.2297 21.2928 22.2196Z" fill="#070607"/>
<path d="M15.9207 21.845C15.9299 21.597 15.936 21.3488 15.9497 21.1011C15.9553 20.9994 15.9652 20.8947 15.9947 20.7979C16.0518 20.6114 16.0576 20.4327 15.9711 20.2541C15.8764 20.0583 15.8735 19.8604 15.9332 19.6495C15.9656 19.5345 15.9572 19.404 15.9485 19.2818C15.9252 18.9533 15.8673 18.6269 15.892 18.2958C15.898 18.2135 15.8888 18.1233 15.9194 18.0507C16.0427 17.7596 16.0193 17.4851 15.8568 17.2185C15.7983 17.1226 15.7949 17.02 15.8366 16.9215C15.8938 16.7861 15.9146 16.647 15.9349 16.502C15.9862 16.1354 16.0465 15.7618 16.2676 15.453C16.4814 15.1546 16.6347 14.8058 16.9754 14.6057C17.16 14.4973 17.2798 14.3133 17.2918 14.0948C17.3118 13.7316 17.5543 13.5513 17.829 13.3924C17.9357 13.3306 18.0512 13.2836 18.1638 13.2321C18.2413 13.1966 18.3524 13.2651 18.339 13.3417C18.3106 13.5037 18.3034 13.6766 18.2383 13.8232C18.1528 14.0155 18.1175 14.2181 18.0523 14.4124C17.9793 14.6301 17.9276 14.8395 17.9126 15.0719C17.897 15.3141 17.801 15.5514 17.7399 15.7906C17.7144 15.8899 17.671 15.9881 17.6657 16.0884C17.6581 16.2347 17.6453 16.3739 17.586 16.5114C17.5544 16.5843 17.5443 16.6749 17.5519 16.7548C17.5805 17.0533 17.5086 17.3297 17.3974 17.6019C17.3667 17.6769 17.33 17.7699 17.3486 17.8411C17.4079 18.0699 17.3221 18.2964 17.3489 18.5133C17.3747 18.7223 17.3241 18.9274 17.3603 19.1264C17.4021 19.3567 17.2748 19.5718 17.3414 19.8037C17.4037 20.0204 17.2974 20.2551 17.3829 20.4755C17.3369 20.7033 17.3391 20.9253 17.4349 21.1447C17.4541 21.1887 17.4349 21.2831 17.399 21.3122C17.2192 21.4578 17.0725 21.617 16.9812 21.8392C16.9289 21.9664 16.8187 22.0894 16.7031 22.1673C16.4284 22.3524 16.2712 22.6052 16.1829 22.9138C16.1676 22.9673 16.0627 22.9768 16.031 22.9325C16.0071 22.8993 15.9719 22.8695 15.9613 22.8325C15.9386 22.7536 15.9177 22.6714 15.9158 22.5899C15.9101 22.3418 15.9138 22.0935 15.9138 21.8451C15.916 21.8451 15.9183 21.8451 15.9205 21.8451L15.9207 21.845Z" fill="#FCFCFC"/>
</svg>
