<svg width="61" height="54" viewBox="0 0 61 54" fill="none" xmlns="http://www.w3.org/2000/svg">
<path d="M23 19.4284C22.9028 18.5291 21.788 17.8265 21.5915 16.917C21.4715 16.3619 20.5388 14.6754 20.0796 14.4055C19.1287 13.8468 18.4788 13.0302 17.4176 12.5452C16.2802 12.0254 14.3723 11.75 13.2307 12.306C7.71765 14.9914 5.12009 21.0065 3.51314 26.7901C3.32084 27.4821 2.76331 30.3825 3.11254 31.029C3.46577 31.6828 3.7481 33.1328 3.91373 33.8992C4.3945 36.1239 6.19627 36.4409 8.11348 35.5071C9.37111 34.8945 10.4713 34.4645 11.4862 33.4208C12.31 32.5737 13.0809 31.5877 13.9415 30.7765C14.7971 29.9699 15.416 29.0343 16.2029 28.2252C16.7305 27.6825 17.6462 26.377 17.8828 25.6473" stroke="#33333A" stroke-linecap="round"/>
<path d="M14 31.7559C14 32.3757 14.0962 33.9371 14.1307 34.5528C14.1562 35.0063 14.4628 35.4557 14.4787 35.9128C14.4946 36.3701 14.5542 37.2044 14.7831 37.6128C14.9985 37.9968 14.8814 38.5727 15.0441 38.9919C15.2532 39.5306 15.2903 40.2173 15.5612 40.7158C15.8052 41.1648 15.8009 41.8106 16.175 42.1812C16.4138 42.4179 16.4615 42.8003 16.6534 43.0719C16.8459 43.3443 17.0956 43.5536 17.243 43.862C17.4644 44.3252 17.8937 44.6468 18.0645 45.1358C18.1888 45.4917 18.683 45.9075 18.9731 46.1414C19.5242 46.5859 19.9549 47.3364 20.5679 47.6738C20.8198 47.8125 21 48.0966 21.2444 48.258C21.548 48.4586 21.8845 48.5844 22.2158 48.7321C22.9921 49.0783 23.8178 49.4548 24.6611 49.5941C25.1507 49.6749 26.0675 49.8007 26.5024 50.0682C27.0534 50.4071 27.8591 50.5854 28.5031 50.5854C29.2936 50.5854 30.0839 50.8439 30.8711 50.8439C32.4423 50.8439 34.1273 51.1643 35.6941 50.887C36.2903 50.7815 36.8031 50.7351 37.3566 50.4608C37.6234 50.3286 37.9186 50.2593 38.2168 50.1975C39.0512 50.0244 39.7208 49.9375 40.5075 49.6276C41.356 49.2933 42.1602 48.7796 43.0301 48.5166C43.6444 48.3309 44.2817 47.9485 44.6829 47.444C45.066 46.9622 45.5271 46.6036 45.9684 46.1893C46.4607 45.7272 46.8177 44.9704 47.1379 44.3936C47.7711 43.2527 48.7427 42.2862 49.2304 41.0511C49.3658 40.7082 49.4848 40.3497 49.6605 40.0263C49.8641 39.6517 49.8424 39.2745 49.9312 38.8722C50.0222 38.4601 50.2308 38.0467 50.2308 37.6176C50.2308 37.2886 50.1123 36.9937 50.1631 36.6598C50.2982 35.7735 50.6402 34.8749 50.6657 33.9877C50.6824 33.4099 51 31.5985 51 31" stroke="#33333A" stroke-linecap="round"/>
<path d="M24 24C24.6695 24.0164 25.3327 24.1078 25.9956 24.1913C26.2165 24.2191 26.3872 24.2568 26.5697 24.3874C26.9257 24.642 27.4073 24.7958 27.8258 24.9374C28.413 25.1362 28.8241 25.3968 29.1997 25.8701C29.34 26.0469 29.6028 26.2676 29.681 26.4727C29.7316 26.6055 30 27 30 27" stroke="#33333A" stroke-linecap="round"/>
<path d="M42 24C41.3305 24.0164 40.6673 24.1078 40.0044 24.1913C39.7835 24.2191 39.6128 24.2568 39.4303 24.3874C39.0743 24.642 38.5927 24.7958 38.1742 24.9374C37.587 25.1362 37.1759 25.3968 36.8003 25.8701C36.66 26.0469 36.3972 26.2676 36.319 26.4727C36.2684 26.6055 36 27 36 27" stroke="#33333A" stroke-linecap="round"/>
<path d="M27.5263 35.3333C27.4127 35.3333 27.305 35.3215 27.2007 35.2591C27.1586 35.2339 27.1175 35.2063 27.0749 35.1825C27.0601 35.1743 27.0377 35.1685 27.0277 35.1507C26.9981 35.0982 26.9544 35.0579 26.9205 35.0088C26.8631 34.9255 26.8148 34.846 26.772 34.7496C26.6724 34.5253 26.531 34.2835 26.5109 34.0174C26.4912 33.7563 26.4964 33.5113 26.5418 33.2546C26.5776 33.0521 26.609 32.844 26.663 32.6485C26.7023 32.5065 26.7488 32.3977 26.8315 32.2904C26.8909 32.2133 26.9561 32.1711 27.0327 32.1272C27.0962 32.0908 27.1521 32.0402 27.2157 32.0064C27.2393 31.9939 27.2839 32.0033 27.3083 32.0047C27.4098 32.0104 27.5097 32.034 27.6117 32.0359C27.7631 32.0387 27.9246 32.0641 28.0577 32.1637C28.1066 32.2003 28.1372 32.2402 28.1676 32.2998C28.2168 32.3965 28.2771 32.4755 28.322 32.5778C28.3796 32.7093 28.4107 32.8583 28.4373 33.0043C28.4661 33.1626 28.4937 33.3282 28.4986 33.4914C28.5062 33.741 28.4815 33.9791 28.4577 34.2253C28.4356 34.455 28.3696 34.7734 28.2284 34.9351C28.0865 35.0976 27.8865 35.159 27.7139 35.2438C27.6598 35.2704 27.607 35.2999 27.5527 35.3251C27.5234 35.3386 27.5059 35.3214 27.4773 35.3121" stroke="#33333A" stroke-width="1.5" stroke-linecap="round"/>
<ellipse cx="27.5" cy="33.6667" rx="1" ry="1.66667" fill="#33333A"/>
<path d="M38.5263 35.3333C38.4127 35.3333 38.305 35.3215 38.2007 35.2591C38.1586 35.2339 38.1175 35.2063 38.0749 35.1825C38.0601 35.1743 38.0377 35.1685 38.0277 35.1507C37.9981 35.0982 37.9544 35.0579 37.9205 35.0088C37.8631 34.9255 37.8148 34.846 37.772 34.7496C37.6724 34.5253 37.531 34.2835 37.5109 34.0174C37.4912 33.7563 37.4964 33.5113 37.5418 33.2546C37.5776 33.0521 37.609 32.844 37.663 32.6485C37.7023 32.5065 37.7488 32.3977 37.8315 32.2904C37.8909 32.2133 37.9561 32.1711 38.0327 32.1272C38.0962 32.0908 38.1521 32.0402 38.2157 32.0064C38.2393 31.9939 38.2839 32.0033 38.3083 32.0047C38.4098 32.0104 38.5097 32.034 38.6117 32.0359C38.7631 32.0387 38.9246 32.0641 39.0577 32.1637C39.1066 32.2003 39.1372 32.2402 39.1676 32.2998C39.2168 32.3965 39.2771 32.4755 39.322 32.5778C39.3796 32.7093 39.4107 32.8583 39.4373 33.0043C39.4661 33.1626 39.4937 33.3282 39.4986 33.4914C39.5062 33.741 39.4815 33.9791 39.4577 34.2253C39.4356 34.455 39.3696 34.7734 39.2284 34.9351C39.0865 35.0976 38.8865 35.159 38.7139 35.2438C38.6598 35.2704 38.607 35.2999 38.5527 35.3251C38.5234 35.3386 38.5059 35.3214 38.4773 35.3121" stroke="#33333A" stroke-width="1.5" stroke-linecap="round"/>
<ellipse cx="38.5" cy="33.6667" rx="1" ry="1.66667" fill="#33333A"/>
<path d="M33.2151 47.7552C32.9991 47.6608 32.6989 47.6383 32.5 47.5C32.393 47.4256 32.1221 47.3717 32 47.3317C31.7535 47.2508 31.3309 47.0713 31.1415 46.8521C30.9946 46.6822 30.7754 46.5547 30.5929 46.4295C30.5026 46.3676 30.4394 46.2786 30.3598 46.2033C30.1966 46.0487 30.0276 45.9384 29.8387 45.8211C29.5994 45.6727 29.4323 45.4096 29.2599 45.1827C29.1484 45.0359 29.0814 44.8799 29.0679 44.6882C29.0606 44.5842 29.0401 44.4254 29.0131 44.3256C28.979 44.1999 29.0194 44.0914 29.0446 43.9674C29.0696 43.8445 29.2493 43.6926 29.3546 43.6572C29.6955 43.5426 30.0456 43.4755 30.3982 43.4265C30.8266 43.3669 31.2605 43.347 31.6873 43.2736C31.9468 43.229 32.2362 43.1447 32.4978 43.1447C33.0623 43.1447 33.622 42.952 34.1929 43.0114C34.4956 43.0429 34.7965 43.1268 35.0994 43.1657C35.4831 43.215 35.8663 43.2688 36.25 43.3186C36.4095 43.3392 36.4572 43.3728 36.5778 43.5014C36.8199 43.7595 37.0633 43.9001 36.9851 44.3061C36.8877 44.8118 36.4785 45.2382 36.1718 45.6053C35.8889 45.9441 35.5958 46.2648 35.2996 46.5884C35.2059 46.6908 35.1271 46.8052 35.0144 46.8851C34.7703 47.0579 34.4957 47.1793 34.2409 47.3317C33.9976 47.4771 33.7865 47.6706 33.547 47.8202C33.4393 47.8874 33.3222 47.9331 33.2151 48" stroke="#33333A" stroke-linecap="round"/>
<path d="M29 44.5C29 45 33 48 33 48C33 48 37 45.5 37 44.5C37 43.5 33.4 43 33.4 43C33.4 43 29 44 29 44.5Z" fill="#33333A"/>
<path d="M33 47C33 47.9369 33 48.8757 33 49.8265C33 50.1943 33 51.2939 33 50.9256" stroke="#33333A" stroke-linecap="round"/>
<path d="M40 18.3015C40.3161 18.1319 40.633 17.9653 40.9695 17.8423C42.1625 17.4059 42.9868 16.426 43.6882 15.4068C44.5147 14.206 45.3909 13.0115 46.1351 11.7639C46.6606 10.8829 47.3328 10.1046 47.7509 9.15816C48.3299 7.84776 48.8713 6.34929 49.9464 5.37596C50.3186 5.03903 51.2324 4.46782 51.7675 4.46782C52.583 4.46782 53.2968 3.77491 54.1938 4.07567C54.8722 4.30315 55.3542 4.68792 55.9687 5.04573C56.4916 5.35029 57.208 6.50574 57.3998 7.06325C57.6897 7.90568 57.9077 8.87008 57.9077 9.76187C57.9077 10.4591 58 11.1008 58 11.8052C58 12.3132 57.8606 12.714 57.7435 13.1984C57.6514 13.5793 57.5734 14.0097 57.5435 14.4006C57.4907 15.0905 57.0891 15.7905 56.8304 16.4181C56.6696 16.8083 56.5194 17.1707 56.297 17.5224C56.1657 17.7299 56.1915 18.0071 56.0405 18.2138C55.858 18.4634 55.6244 18.715 55.4198 18.9465C55.0024 19.4189 54.73 19.9131 54.4195 20.4738C54.2042 20.8627 53.9207 21.2133 53.7116 21.6038C53.6202 21.7746 53.6105 21.9771 53.4962 22.1353C53.3069 22.3971 52.993 22.8848 52.8601 23.1879C52.3416 24.37 52.0767 25.6336 51.7264 26.8669C51.6188 27.2458 50.9703 30.6018 50.9523 31" stroke="#33333A" stroke-linecap="round"/>
<path d="M52 12C51.889 13.0276 51.6884 14.0526 51.2919 15.0183C51.0398 15.6324 50.676 16.0147 50.2712 16.5561C49.8699 17.0927 49.4755 17.6788 48.9944 18.1509C48.7135 18.4264 48.1735 18.6713 48 19" stroke="#FF8CBD" stroke-linecap="round"/>
<path d="M39.9803 29.0005C39.6829 29.0049 39.4287 29.1856 39.1311 29.2087C38.7607 29.3332 38.0321 29.6978 37.6623 29.8334C37.4998 29.8929 37.2964 29.9547 37.1849 30.0717C37.0218 30.2427 36.9964 30.3209 36.8057 30.454C36.5854 30.6077 36.2945 30.9274 36.0672 31.074C35.9686 31.1377 35.8995 31.2355 35.8033 31.2909C35.7632 31.314 35.671 31.462 35.6455 31.5078C35.4212 31.9098 35.1586 32.4155 35.1033 32.8757C35.0341 33.4514 35 33.9886 35 34.5705C35 35.2267 35.0449 35.9442 35.2352 36.5746C35.3229 36.865 35.5344 37.3399 35.7574 37.5492C36.0265 37.8018 36.4269 37.9109 36.7041 38.1623C37.7536 39.1145 39.2395 38.9952 40.5512 38.9952C41.0979 38.9952 41.8369 38.94 42.3442 38.7234C42.5688 38.6274 42.7212 38.5835 42.9036 38.4226C43.2502 38.1169 43.7878 38.049 44.1143 37.7198C44.2547 37.5782 44.4327 37.5066 44.5905 37.3873C46.0841 36.258 46.127 33.9873 45.8958 32.2973C45.7982 31.5837 45.4376 30.9668 44.9262 30.4696C44.6507 30.2018 44.277 30.01 43.9565 29.8044C43.7595 29.6781 43.6456 29.5069 43.4171 29.4429C43.1128 29.3577 42.8032 29.2436 42.4991 29.1451C42.2576 29.0668 41.9672 29.1046 41.7131 29.1046C41.1305 29.1046 40.5641 28.9918 39.9803 29.0005Z" stroke="#33333A" stroke-linecap="round"/>
<path d="M26.0197 29.0005C26.3171 29.0049 26.5714 29.1856 26.8689 29.2087C27.2393 29.3332 27.9679 29.6978 28.3377 29.8334C28.5002 29.8929 28.7036 29.9547 28.8151 30.0717C28.9782 30.2427 29.0036 30.3209 29.1943 30.454C29.4146 30.6077 29.7055 30.9274 29.9328 31.074C30.0314 31.1377 30.1006 31.2355 30.1967 31.2909C30.2368 31.314 30.329 31.462 30.3545 31.5078C30.5788 31.9098 30.8414 32.4155 30.8967 32.8757C30.9659 33.4514 31 33.9886 31 34.5705C31 35.2267 30.9551 35.9442 30.7648 36.5746C30.6771 36.865 30.4656 37.3399 30.2426 37.5492C29.9735 37.8018 29.5731 37.9109 29.2959 38.1623C28.2464 39.1145 26.7605 38.9952 25.4488 38.9952C24.9021 38.9952 24.1631 38.94 23.6558 38.7234C23.4312 38.6274 23.2788 38.5835 23.0964 38.4226C22.7498 38.1169 22.2122 38.049 21.8857 37.7198C21.7453 37.5782 21.5673 37.5066 21.4095 37.3873C19.9159 36.258 19.873 33.9873 20.1042 32.2973C20.2018 31.5837 20.5624 30.9668 21.0739 30.4696C21.3493 30.2018 21.723 30.01 22.0435 29.8044C22.2405 29.6781 22.3544 29.5069 22.5829 29.4429C22.8872 29.3577 23.1968 29.2436 23.5009 29.1451C23.7424 29.0668 24.0328 29.1046 24.2869 29.1046C24.8695 29.1046 25.4359 28.9918 26.0197 29.0005Z" stroke="#33333A" stroke-linecap="round"/>
<path d="M16 29C16.4674 29.2407 16.9544 29.4188 17.4364 29.6332C17.7803 29.7862 18.1172 30.0011 18.4799 30.1347C18.6388 30.1932 18.7117 30.3703 18.8696 30.4327C18.9958 30.4826 19.1206 30.5683 19.2464 30.6275C19.4941 30.7442 19.7196 30.9168 20 31" stroke="#33333A" stroke-linecap="round"/>
<path d="M51.5 27.5C51.0761 27.8371 50.8623 27.8674 50.3755 28.1256C50.0934 28.2751 49.8302 28.4768 49.5479 28.6284C49.0166 28.9139 48.4628 29.1251 47.9148 29.3793C47.5238 29.5607 47.1407 29.8156 46.7284 29.9739C46.5477 30.0433 46.4647 30.2533 46.2853 30.3273C46.1417 30.3865 45.9999 30.488 45.8569 30.5583" stroke="#33333A" stroke-linecap="round"/>
<path d="M30 13C30.7817 13.8291 31.9285 15.1371 31.9285 16.3182C31.9285 16.5792 32.0893 17.9242 31.9285 18" stroke="#33333A" stroke-linecap="round"/>
<path d="M34 18C34 16.897 34.4989 16.0022 35 15" stroke="#33333A" stroke-linecap="round"/>
<path d="M31.1777 34.0354C31.9897 33.9392 32.7831 33.9221 33.5975 33.9221C33.9443 33.9221 34.2809 34.092 34.6327 34.092" stroke="#33333A" stroke-linecap="round"/>
</svg>
