<svg width="79" height="59" viewBox="0 0 79 59" fill="none" xmlns="http://www.w3.org/2000/svg">
<path d="M27.5173 14.4233C27.3887 13.2654 25.9128 12.3608 25.6526 11.1898C25.4938 10.4752 24.2589 8.30386 23.6509 7.95642C22.3921 7.23708 21.5317 6.18577 20.1267 5.5613C18.6209 4.89209 16.095 4.53745 14.5837 5.25335C7.28482 8.7107 3.84588 16.455 1.71841 23.9011C1.46383 24.7922 0.725708 28.5263 1.18806 29.3586C1.6557 30.2003 2.02948 32.0672 2.24876 33.0539C2.88526 35.9182 5.27065 36.3263 7.80887 35.124C9.47387 34.3353 10.9304 33.7817 12.2741 32.438C13.3647 31.3474 14.3852 30.0779 15.5246 29.0335C16.6575 27.9951 17.4768 26.7905 18.5185 25.7488C19.2171 25.0502 20.4294 23.3694 20.7426 22.4298" stroke="#33333A" stroke-width="1.5" stroke-linecap="round"/>
<path d="M51.0002 14.4233C51.1289 13.2654 52.6048 12.3608 52.865 11.1898C53.0238 10.4752 54.2586 8.30386 54.8667 7.95642C56.1255 7.23708 56.9859 6.18577 58.3909 5.5613C59.8966 4.89209 62.4226 4.53745 63.9339 5.25335C71.2328 8.7107 74.6717 16.455 76.7992 23.9011C77.0538 24.7922 77.7919 28.5263 77.3295 29.3586C76.8619 30.2003 76.4881 32.0672 76.2688 33.0539C75.6323 35.9182 73.2469 36.3263 70.7087 35.124C69.0437 34.3353 67.5872 33.7817 66.2435 32.438C65.1528 31.3474 64.1323 30.0779 62.993 29.0335C61.8601 27.9951 61.0408 26.7905 59.9991 25.7488C59.3005 25.0502 58.0882 23.3694 57.775 22.4298" stroke="#33333A" stroke-width="1.5" stroke-linecap="round"/>
<path d="M14.5 30.5C14.5 31.3198 14.6261 33.3854 14.6714 34.1998C14.7047 34.7997 15.1066 35.3942 15.1275 35.9989C15.1483 36.6039 15.2264 37.7074 15.5266 38.2477C15.8088 38.7557 15.6554 39.5176 15.8686 40.0721C16.1427 40.7847 16.1913 41.6931 16.5464 42.3526C16.8662 42.9465 16.8607 43.8007 17.351 44.291C17.664 44.6041 17.7266 45.11 17.9781 45.4693C18.2304 45.8297 18.5577 46.1065 18.7509 46.5145C19.0412 47.1272 19.6039 47.5526 19.8278 48.1995C19.9908 48.6703 20.6386 49.2204 21.0188 49.5298C21.7411 50.1178 22.3057 51.1106 23.1092 51.5569C23.4394 51.7404 23.6757 52.1162 23.9961 52.3298C24.394 52.5951 24.8351 52.7615 25.2694 52.9569C26.2869 53.4148 27.3693 53.9129 28.4747 54.0972C29.1165 54.2041 30.3182 54.3705 30.8883 54.7243C31.6106 55.1727 32.6666 55.4084 33.5108 55.4084C34.547 55.4084 35.583 55.7505 36.6148 55.7505C38.6744 55.7505 40.8831 56.1743 42.9369 55.8075C43.7184 55.668 44.3906 55.6065 45.116 55.2437C45.4658 55.0689 45.8528 54.9771 46.2436 54.8953C47.3374 54.6664 48.2151 54.5515 49.2463 54.1415C50.3585 53.6993 51.4127 53.0197 52.553 52.6718C53.3582 52.4262 54.1936 51.9203 54.7195 51.2529C55.2216 50.6156 55.826 50.1412 56.4045 49.5932C57.0498 48.9818 57.5178 47.9808 57.9375 47.2177C58.7676 45.7084 60.0411 44.43 60.6804 42.796C60.8579 42.3424 61.0139 41.8682 61.2442 41.4404C61.511 40.9449 61.4826 40.4459 61.599 39.9137C61.7182 39.3685 61.9917 38.8217 61.9917 38.254C61.9917 37.8189 61.8364 37.4288 61.903 36.9871C62.08 35.8146 62.5283 34.6259 62.5619 33.4523C62.5837 32.6879 63 30.2918 63 29.5" stroke="#33333A" stroke-width="1.5" stroke-linecap="round"/>
<path d="M28 22.5684C28.8369 22.5898 29.6659 22.7096 30.4945 22.8191C30.7706 22.8555 30.984 22.9049 31.2122 23.076C31.6571 23.4097 32.2591 23.6112 32.7822 23.7968C33.5163 24.0573 34.0302 24.3988 34.4996 25.019C34.675 25.2508 35.0035 25.54 35.1013 25.8087C35.1645 25.9828 35.5 26.4998 35.5 26.4998" stroke="#33333A" stroke-width="1.5" stroke-linecap="round"/>
<path d="M51.5 22.5684C50.6631 22.5898 49.8341 22.7096 49.0055 22.8191C48.7294 22.8555 48.516 22.9049 48.2878 23.076C47.8429 23.4097 47.2409 23.6112 46.7178 23.7968C45.9837 24.0573 45.4698 24.3988 45.0004 25.019C44.825 25.2508 44.4965 25.54 44.3987 25.8087C44.3355 25.9828 44 26.4998 44 26.4998" stroke="#33333A" stroke-width="1.5" stroke-linecap="round"/>
<path d="M33.5395 36C33.369 36 33.2075 35.9823 33.0511 35.8887C32.9879 35.8509 32.9263 35.8095 32.8624 35.7738C32.8402 35.7614 32.8066 35.7528 32.7915 35.7261C32.7472 35.6473 32.6816 35.5869 32.6308 35.5132C32.5447 35.3883 32.4722 35.2689 32.408 35.1244C32.2586 34.788 32.0465 34.4252 32.0163 34.0261C31.9867 33.6345 31.9946 33.2669 32.0627 32.8819C32.1163 32.5781 32.1635 32.266 32.2445 31.9727C32.3034 31.7598 32.3731 31.5965 32.4973 31.4355C32.5864 31.3199 32.6841 31.2567 32.799 31.1908C32.8942 31.1362 32.9782 31.0602 33.0735 31.0097C33.109 30.9909 33.1758 31.0049 33.2125 31.007C33.3647 31.0156 33.5145 31.051 33.6676 31.0538C33.8946 31.0581 34.1369 31.0962 34.3365 31.2456C34.4099 31.3005 34.4558 31.3603 34.5013 31.4497C34.5752 31.5947 34.6657 31.7133 34.7329 31.8667C34.8194 32.0639 34.8661 32.2874 34.906 32.5064C34.9492 32.744 34.9905 32.9923 34.9979 33.2371C35.0092 33.6115 34.9722 33.9687 34.9366 34.338C34.9034 34.6826 34.8044 35.1601 34.5926 35.4027C34.3798 35.6465 34.0798 35.7385 33.8208 35.8657C33.7398 35.9055 33.6605 35.9499 33.579 35.9876C33.5351 36.0079 33.5088 35.9821 33.4659 35.9682" stroke="#33333A" stroke-width="2" stroke-linecap="round"/>
<ellipse cx="33.5" cy="33.5" rx="1.5" ry="2.5" fill="#33333A"/>
<path d="M45.5395 36C45.369 36 45.2075 35.9823 45.0511 35.8887C44.9879 35.8509 44.9263 35.8095 44.8624 35.7738C44.8402 35.7614 44.8066 35.7528 44.7915 35.7261C44.7472 35.6473 44.6816 35.5869 44.6308 35.5132C44.5447 35.3883 44.4722 35.2689 44.408 35.1244C44.2586 34.788 44.0465 34.4252 44.0163 34.0261C43.9867 33.6345 43.9946 33.2669 44.0627 32.8819C44.1163 32.5781 44.1635 32.266 44.2445 31.9727C44.3034 31.7598 44.3731 31.5965 44.4973 31.4355C44.5864 31.3199 44.6841 31.2567 44.799 31.1908C44.8942 31.1362 44.9782 31.0602 45.0735 31.0097C45.109 30.9909 45.1758 31.0049 45.2125 31.007C45.3647 31.0156 45.5145 31.051 45.6676 31.0538C45.8946 31.0581 46.1369 31.0962 46.3365 31.2456C46.4099 31.3005 46.4558 31.3603 46.5013 31.4497C46.5752 31.5947 46.6657 31.7133 46.7329 31.8667C46.8194 32.0639 46.8661 32.2874 46.906 32.5064C46.9492 32.744 46.9905 32.9923 46.9979 33.2371C47.0092 33.6115 46.9722 33.9687 46.9366 34.338C46.9034 34.6826 46.8044 35.1601 46.5926 35.4027C46.3798 35.6465 46.0798 35.7385 45.8208 35.8657C45.7398 35.9055 45.6605 35.9499 45.579 35.9876C45.5351 36.0079 45.5088 35.9821 45.4659 35.9682" stroke="#33333A" stroke-width="2" stroke-linecap="round"/>
<ellipse cx="45.5" cy="33.5" rx="1.5" ry="2.5" fill="#33333A"/>
<path d="M38.9557 51.2387C38.6791 51.1281 38.3603 51.1198 38.1056 50.9577C37.9686 50.8705 37.7596 50.836 37.6033 50.7891C37.2876 50.6944 36.9852 50.7825 36.7426 50.5256C36.5545 50.3264 36.2738 50.1771 36.0401 50.0303C35.9244 49.9577 35.8434 49.8535 35.7415 49.7651C35.5325 49.584 35.3161 49.4547 35.0741 49.3173C34.7677 49.1432 34.5536 48.8349 34.3329 48.569C34.19 48.3969 34.1043 48.2141 34.087 47.9894C34.0776 47.8676 34.0514 47.6813 34.0168 47.5644C33.9731 47.4171 34.0249 47.2899 34.0572 47.1446C34.0892 47.0005 34.3193 46.8225 34.4541 46.7811C34.8907 46.6467 35.3391 46.5681 35.7907 46.5106C36.3393 46.4408 36.895 46.4174 37.4417 46.3314C37.7739 46.2792 38.1446 46.1804 38.4797 46.1804C39.2026 46.1804 39.9194 45.9544 40.6505 46.0241C41.0382 46.061 41.4236 46.1593 41.8115 46.205C42.3029 46.2628 42.7937 46.3258 43.2851 46.3841C43.4893 46.4083 43.5504 46.4477 43.7049 46.5984C44.015 46.9009 44.3267 47.0657 44.2265 47.5416C44.1017 48.1342 43.5777 48.634 43.185 49.0643C42.8227 49.4614 42.4472 49.8372 42.0679 50.2165C41.9479 50.3365 41.847 50.4707 41.7026 50.5643C41.39 50.7669 41.0384 50.9091 40.712 51.0877C40.4004 51.2582 40.13 51.485 39.8233 51.6602C39.6854 51.739 39.5354 51.7926 39.3983 51.871" stroke="#33333A" stroke-width="2" stroke-linecap="round"/>
<path d="M34.0859 47.5L39.5859 52L44.0859 47.5L39.5859 46L34.0859 47.5Z" fill="#33333A"/>
<path d="M39.3669 49.4053C39.0828 50.7408 39.1022 52.079 39.1755 53.4344C39.2038 53.9585 39.3353 55.526 39.3353 55.0011" stroke="#33333A" stroke-width="1.5" stroke-linecap="round"/>
<path d="M31.374 40C31.374 40 31.5705 40.4245 31.5705 40.7368C31.5705 41.0323 31.4669 41.3975 31.3522 41.67C31.0081 42.4872 30.4493 43.2567 29.9496 43.9785C29.4268 44.7337 29.2251 45.7656 28.9618 46.6309C28.5638 47.9384 28.2008 49.2487 27.914 50.5875C27.585 52.1227 26.6452 53.6716 25.1361 54.3423C24.5208 54.6158 24.3581 54.6182 23.7553 54.446C23.4999 54.373 23.2045 54.3497 23.0022 54.1677C22.7691 53.9579 22.2206 53.9216 22.0635 53.6547C21.7244 53.0781 21.3084 52.3959 21.2558 51.7118C21.2222 51.2746 21.1999 50.9656 21.2504 50.5111C21.3199 49.8852 21.6138 49.3423 21.747 48.7429C21.9835 47.6784 22.6025 46.8463 23.0786 45.8941C23.3995 45.2522 23.67 44.4623 24.181 43.9512C24.8967 43.2356 25.4513 42.7187 26.2876 42.1612C26.8978 41.7544 27.511 41.3728 28.0831 40.9278C28.9162 40.2798 29.9772 40 30.9995 40" stroke="#00A399" stroke-width="2" stroke-linecap="round"/>
<path d="M22.6927 45.7471C24.6927 41.7471 29.1927 40.4137 31.1927 40.2471C31.1927 40.9137 30.9927 42.5471 30.1929 43.7471C29.1931 45.2471 28.6929 48.2471 27.6929 51.2471C26.6929 54.2471 24.6927 54.7471 22.6927 54.2471C20.6927 53.7471 20.1927 50.7471 22.6927 45.7471Z" fill="#00A399"/>
<path d="M43 38C43.4896 38.6266 44.1662 38.8711 44.9211 38.9127C45.7309 38.9574 46.5668 39.0184 47.3445 38.7254C47.7482 38.5733 47.9086 38.2191 48.2373 38" stroke="#00A399" stroke-width="1.5" stroke-linecap="round"/>
<path d="M50.0197 36.0946C49.9728 35.9655 50.0166 35.8343 50.0777 35.7179C50.1429 35.5937 50.1696 35.4599 50.249 35.3425C50.4338 35.0689 50.6232 34.8189 50.8852 34.614C51.1003 34.4459 51.3353 34.306 51.5438 34.1293C51.7415 33.9618 51.9342 33.8002 52.1551 33.6616C52.4755 33.4606 52.9118 33.3951 53.2747 33.3073C53.5541 33.2397 53.8341 33.1665 54.1231 33.1558C54.4288 33.1445 54.7366 33.1545 55.0425 33.1545C55.3127 33.1545 55.5665 33.1839 55.8303 33.2401C55.9949 33.2752 56.2376 33.2812 56.3651 33.4087C56.6225 33.6661 56.7619 33.9528 56.8143 34.3045C56.8461 34.5181 56.942 34.7178 56.9078 34.9367C56.8471 35.3249 56.8013 35.7321 56.5561 36.0551C56.4702 36.1682 56.3882 36.3002 56.2584 36.366C56.0271 36.4833 55.7799 36.5041 55.5233 36.5162C55.0679 36.5375 54.6149 36.5044 54.1902 36.3423C54.0627 36.2936 53.9657 36.1869 53.8399 36.1289C53.5533 35.9966 53.2619 35.8971 52.9494 35.8417C52.4614 35.7553 51.9111 35.7299 51.4161 35.768C51.2739 35.7789 51.1424 35.8156 51.0156 35.876C50.8721 35.9443 50.6822 35.9643 50.5282 35.9945C50.4002 36.0196 50.2714 36.0724 50.1383 36.0946" stroke="#00A399" stroke-linecap="round"/>
<path d="M54.0859 33C52.8859 33 50.9193 34.6667 50.0859 35.5V36C50.5859 35.8333 51.6859 35.5 52.0859 35.5C52.5859 35.5 54.0859 36.5 55.0859 36.5C56.0859 36.5 56.5859 36 56.5859 35C56.5859 34 55.5859 33 54.0859 33Z" fill="#00A399"/>
<path d="M35.3477 6.19531C36.4706 7.45862 38.1182 9.45185 38.1182 11.2515C38.1182 11.6492 38.3491 13.6987 38.1182 13.8142" stroke="#33333A" stroke-width="1.5" stroke-linecap="round"/>
<path d="M40.75 14.0904C40.75 12.2569 41.3029 10.7695 41.8582 9.10352" stroke="#33333A" stroke-width="1.5" stroke-linecap="round"/>
</svg>
