<svg width="40" height="42" viewBox="-5 0 60 34" fill="none" xmlns="http://www.w3.org/2000/svg">
<g id="Group 88753">
<path id="Vector" d="M42.2005 14.333C42.2475 14.497 42.3467 14.6261 42.4666 14.7438C42.6581 14.9316 42.846 15.1231 43.0353 15.313C42.6428 15.3292 42.281 15.4809 41.9069 15.5747C41.599 15.652 41.3998 15.9492 41.3955 16.2691C41.3911 16.5897 41.5867 16.8728 41.8805 16.9867C42.1084 17.0751 42.3219 17.0399 42.5356 16.9413C43.1783 16.6449 43.2059 16.6365 43.6874 16.5453C43.8436 16.5762 43.9998 16.607 44.1561 16.6379C44.2886 16.7869 44.4259 16.9321 44.5512 17.0868C44.6001 17.1472 44.6223 17.2292 44.6564 17.3015C44.5963 17.3187 44.5359 17.334 44.4768 17.3533C44.1637 17.4563 43.9649 17.798 44.0512 18.0903C44.1081 18.2831 44.0771 18.4618 44.0148 18.6373C43.944 18.8371 43.8847 19.0324 43.9699 19.2413C43.9586 19.5391 44.0588 19.8745 43.6922 20.0524C43.6571 20.0694 43.6309 20.1083 43.6051 20.1406C43.3086 20.5143 43.4252 20.9586 43.747 21.1791C43.8794 21.2698 44.0621 21.2845 44.2027 21.3666C44.3427 21.4482 44.427 21.6127 44.5982 21.6584C44.6182 21.6637 44.6368 21.6737 44.6568 21.6793C44.9792 21.7699 45.2509 21.9651 45.544 22.1152C45.7282 22.2095 45.8889 22.3408 45.9943 22.532C46.1341 22.7857 46.3912 22.9502 46.5262 23.2113C46.5527 23.2627 46.6114 23.3031 46.6637 23.3345C46.7915 23.411 46.8778 23.5285 46.9819 23.6288C47.1386 23.7798 47.246 23.9435 47.2393 24.1717C47.2369 24.2524 47.2532 24.3405 47.2861 24.414C47.3921 24.6502 47.4071 24.8924 47.3754 25.1448C47.3626 25.2465 47.3546 25.3567 47.3799 25.4538C47.4614 25.7666 47.432 26.0633 47.3351 26.3706C47.2372 26.681 47.1861 26.838 46.9788 27.1208C46.9423 27.1706 46.907 27.2235 46.8834 27.28C46.7606 27.5739 46.5586 27.8049 46.3142 28.0012C46.1972 28.0952 46.1227 28.2163 46.0556 28.3471C45.8933 28.6637 45.6793 28.949 45.4059 29.1699C45.2425 29.3018 45.0981 29.433 44.9709 29.6019C44.8489 29.764 44.6678 29.8759 44.5734 30.0727C44.503 30.2196 44.3688 30.3351 44.2934 30.4803C44.16 30.737 44.032 30.993 43.8263 31.2041C43.7564 31.2759 43.7017 31.3736 43.6702 31.4693C43.6307 31.589 43.5914 31.7026 43.5059 31.7987C43.4208 31.8943 43.3721 32.0102 43.361 32.1373C43.3348 32.4358 43.2381 32.7019 43.0253 32.9203C42.9974 32.949 42.9754 32.9896 42.9649 33.0286C42.9158 33.2128 42.7876 33.3545 42.7076 33.5191C42.6155 33.7086 42.5025 33.8753 42.3687 34.0336C42.2849 34.1325 42.2618 34.2553 42.2432 34.38C42.215 34.5709 42.1271 34.7212 41.9792 34.8556C41.7814 35.0351 41.6105 35.2476 41.4473 35.4571C41.2331 35.7318 40.9659 35.9685 40.816 36.294C40.7829 36.3657 40.7173 36.4324 40.6505 36.4773C40.2742 36.7308 39.9971 37.1121 39.5749 37.3064C39.5206 37.3314 39.4806 37.3864 39.4319 37.425C39.0619 37.7183 38.7212 38.065 38.2058 38.0936C38.1668 38.0958 38.127 38.1202 38.0914 38.1408C37.8308 38.2909 37.5522 38.3335 37.2535 38.3099C37.0023 38.2901 36.3152 38.1751 36.0545 38.1142C35.7616 38.0459 35.5215 37.8946 35.2919 37.7122C35.2052 37.6434 35.1546 37.5606 35.1331 37.4556C35.1039 37.3134 35.071 37.172 35.0466 37.0289C35.0254 36.9039 35.0326 36.7807 35.1061 36.6696C35.1288 36.6351 35.1485 36.5984 35.1676 36.5616C35.2676 36.3687 35.2962 36.173 35.2177 35.9615C35.1363 35.7427 35.1648 35.5108 35.1663 35.2834C35.1671 35.1782 35.1974 35.0785 35.2665 34.9946C35.3754 34.8625 35.4337 34.7106 35.4529 34.5403C35.4621 34.4588 35.4802 34.3761 35.5086 34.2994C35.6164 34.0086 35.73 33.7198 35.8415 33.4305C36.0703 33.1751 36.1037 32.8252 36.2721 32.5404C36.3387 32.4276 36.4196 32.3456 36.5563 32.3246C36.8726 32.2756 37.0754 32.0958 37.1856 31.793C37.2424 31.6369 37.3418 31.496 37.4873 31.4048C37.6514 31.3018 37.744 31.1456 37.8553 30.9942C38.0145 30.7776 38.1674 30.562 38.2971 30.3253C38.385 30.1648 38.5014 30.0173 38.6782 29.925C38.8299 29.8457 38.9344 29.7001 38.9706 29.5359C39.0257 29.2862 39.2034 29.0976 39.274 28.857C39.3156 28.7149 39.409 28.5919 39.541 28.5244C39.7974 28.3931 39.9691 28.2055 40.0326 27.919C40.0607 27.7919 40.1556 27.7028 40.2625 27.6349C40.3836 27.558 40.4942 27.4601 40.6523 27.4546C40.8047 27.4493 40.9274 27.3646 41.0381 27.2688C41.1323 27.1871 41.2222 27.1099 41.3466 27.0677C41.5514 26.9984 41.6937 26.8525 41.7896 26.6551C41.8743 26.4804 42.0104 26.3679 42.2066 26.3092C42.3183 26.2758 42.429 26.1881 42.5045 26.0959C42.6234 25.9506 42.7561 25.8967 42.9389 25.919C43.0178 25.9287 43.104 25.907 43.1831 25.8855C43.523 25.7928 43.7561 25.4936 43.7571 25.1565C43.7582 24.7949 43.5001 24.486 43.1279 24.4108C42.8891 24.3625 42.6762 24.4257 42.4897 24.5795C42.3787 24.6709 42.3038 24.8 42.1599 24.859C41.9879 24.9296 41.8169 25.0084 41.6591 25.1056C41.4838 25.2136 41.3443 25.3743 41.1506 25.4597C41.0755 25.4928 41.0134 25.5616 40.9366 25.5833C40.5831 25.6832 40.3832 26.0133 40.0584 26.1589C39.9755 26.1961 39.9251 26.312 39.8678 26.3972C39.8095 26.4839 39.7566 26.5727 39.6521 26.6114C39.6009 26.6114 39.5801 26.6329 39.5897 26.6758C39.5694 26.7117 39.5423 26.7414 39.5085 26.7639C39.4706 26.71 39.4324 26.6568 39.3941 26.6036C39.391 26.5209 39.3993 26.4356 39.3826 26.3559C39.3144 26.0322 39.1106 25.8502 38.7869 25.8243C38.664 25.8145 38.5389 25.8354 38.4212 25.7784C38.2434 25.6924 38.0589 25.6899 37.879 25.7628C37.7587 25.8115 37.6374 25.8157 37.5136 25.8067C37.4844 25.8045 37.4351 25.7758 37.4342 25.7572C37.4323 25.7207 37.4531 25.6798 37.4734 25.6461C37.4944 25.6111 37.5197 25.5679 37.5539 25.5535C37.8724 25.4188 38.0396 25.1134 38.2904 24.9027C38.3503 24.8523 38.3993 24.7728 38.4224 24.6973C38.513 24.4005 38.5451 24.0916 38.5517 23.7837C38.5559 23.5837 38.4388 23.4225 38.2554 23.3443C38.0285 23.2475 37.7932 23.1659 37.5551 23.101C37.3878 23.0554 37.2399 23.1872 37.0749 23.2007C37.0543 23.2025 37.0336 23.2028 37.0128 23.2023C36.792 23.1976 36.6179 23.2939 36.4569 23.4383C36.1777 23.6886 35.8672 23.8876 35.4912 23.9627C35.4508 23.9708 35.409 23.9767 35.3708 23.9914C35.2128 24.0529 35.0642 24.1395 34.9882 24.2928C34.8952 24.4801 34.7633 24.6352 34.6397 24.7994C34.4668 25.0288 34.4654 25.4081 34.6669 25.6057C34.9004 25.8348 35.0695 26.1308 35.369 26.293C35.4166 26.3187 35.4193 26.4211 35.3812 26.4562C35.3208 26.5121 35.2664 26.5761 35.2002 26.6237C35.0486 26.7326 34.8796 26.8035 34.7032 26.8692C34.4626 26.9591 34.311 27.2335 34.332 27.4631C34.3691 27.869 34.7265 28.1184 35.1301 28.0181C35.19 28.0032 35.2472 27.9769 35.3055 27.9559C35.623 27.9279 35.9086 27.7908 36.2037 27.688C36.2343 27.6774 36.2523 27.6304 36.276 27.6003L36.3128 27.5829C36.4297 27.5853 36.4898 27.5233 36.5068 27.4122C36.5121 27.373 36.5341 27.3494 36.5727 27.341C36.7479 27.3448 36.9232 27.3533 37.0983 27.3507C37.2208 27.349 37.3251 27.2994 37.393 27.1903L37.3978 27.1857C37.4994 27.1862 37.6031 27.1737 37.7023 27.1895C37.9653 27.2314 38.227 27.2379 38.4916 27.2073C38.5865 27.1963 38.6261 27.2842 38.6781 27.3443C38.6113 27.5192 38.5409 27.6898 38.4061 27.8292C38.2626 27.9775 38.1685 28.1651 38.0195 28.3134C37.8743 28.4579 37.8337 28.6814 37.6717 28.8239C37.6124 28.876 37.5587 28.9587 37.5459 29.0347C37.5164 29.2108 37.3881 29.323 37.3114 29.4669C37.2202 29.6373 37.0656 29.7483 36.9636 29.9032C36.862 30.0578 36.8305 30.2513 36.6864 30.3861C36.6287 30.4403 36.6109 30.535 36.5593 30.5984C36.4815 30.6936 36.4054 30.8099 36.3011 30.8597C36.0342 30.9872 35.8318 31.1999 35.5943 31.3641C35.3587 31.5269 35.097 31.655 34.8929 31.8716C34.7696 32.0024 34.5927 32.1006 34.4215 32.1633C34.238 32.2306 34.095 32.326 33.9658 32.4699C33.6877 32.7797 33.3885 33.0667 32.9741 33.1936C32.9354 33.2054 32.8979 33.229 32.8666 33.2551C32.7033 33.3907 32.5101 33.4965 32.3114 33.521C32.08 33.5496 31.886 33.691 31.6553 33.6947C31.4813 33.6975 31.3415 33.7813 31.1896 33.8508C30.8144 34.0223 30.4334 34.1849 30.0222 34.255C29.7567 34.3001 29.4892 34.3341 29.2254 34.3869C29.1021 34.4116 28.9832 34.4345 28.8565 34.4203C28.6414 34.3964 28.4441 34.4432 28.2734 34.5851C28.1733 34.6683 28.0549 34.7006 27.9253 34.6961C27.8423 34.6931 27.7585 34.6841 27.6762 34.6917C27.3477 34.722 27.0211 34.7765 26.6886 34.7204C26.6112 34.7073 26.5226 34.7307 26.4447 34.7552C26.2749 34.8086 26.1088 34.7925 25.9627 34.7067C25.7751 34.5967 25.583 34.5562 25.3678 34.5639C25.2244 34.5689 25.0753 34.5487 24.9364 34.5116C24.8195 34.4804 24.694 34.4297 24.6062 34.3504C24.3269 34.0982 24.1156 33.791 23.9672 33.4445C23.908 33.3067 23.8979 33.1602 23.98 33.0247C24.1156 32.801 24.1546 32.5718 24.098 32.309C24.0571 32.12 24.1264 31.9294 24.3113 31.8312C24.5253 31.7176 24.6625 31.5459 24.7632 31.3349C24.7811 31.2974 24.8086 31.2639 24.8225 31.2254C24.8922 31.0332 25.0076 30.9319 25.2314 30.9219C25.4194 30.9135 25.5779 30.7913 25.6969 30.6366C25.7222 30.6037 25.7494 30.5716 25.7701 30.5357C25.846 30.4046 25.9065 30.4208 26.0272 30.4776C26.1577 30.5389 26.2961 30.5945 26.4075 30.6824C26.6026 30.8366 26.8133 30.877 27.0507 30.8424C27.3772 30.7947 27.7026 30.7293 28.0358 30.768C28.2183 30.6889 28.4084 30.7763 28.5896 30.7456C28.7755 30.7141 28.9607 30.7142 29.1465 30.7005C29.3506 30.6853 29.5466 30.6171 29.7595 30.6329C29.9001 30.6433 30.0524 30.5933 30.1625 30.4899C30.2862 30.3738 30.4358 30.305 30.5781 30.2207C30.665 30.1692 30.7368 30.0901 30.8092 30.0173C30.882 29.9441 30.94 29.8555 31.0168 29.7876C31.2411 29.5892 31.3205 29.2961 31.4978 29.0675C31.5212 29.0372 31.5337 28.9877 31.5301 28.9492C31.5114 28.7524 31.6194 28.591 31.6686 28.4131C31.7319 28.1837 31.7118 27.9608 31.5735 27.7566C31.3858 27.4798 31.2422 27.1845 31.1893 26.8494C31.1621 26.6771 31.0568 26.5511 30.9314 26.4349C30.72 26.2387 30.4974 26.0503 30.3128 25.8306C30.0175 25.4792 29.6426 25.2175 29.3177 24.9005C29.182 24.7683 28.9957 24.724 28.7956 24.7638C28.6545 24.7919 28.5087 24.7972 28.365 24.8119C28.2369 24.825 28.1083 24.8601 28.0358 24.9662C27.9075 25.1538 27.7468 25.2311 27.5189 25.2244C27.356 25.2195 27.1919 25.2682 27.0276 25.287C26.7467 25.319 26.5816 25.5836 26.3089 25.639C26.2368 25.6537 26.1708 25.7304 26.1165 25.7915C26.0623 25.8526 26.0089 25.9247 25.9858 26.0011C25.9259 26.1997 25.8525 26.3908 25.7516 26.5722C25.6445 26.7646 25.7214 26.9835 25.6696 27.1846C25.6542 27.2446 25.6648 27.3123 25.644 27.3693C25.5006 27.7641 25.5126 28.1829 25.4449 28.589C25.4032 28.8387 25.3871 29.0808 25.4209 29.3288C25.4279 29.3804 25.4042 29.4105 25.3506 29.4116C25.2273 29.4141 25.1037 29.409 24.9809 29.4165C24.7831 29.4286 24.6249 29.5234 24.4996 29.673C24.4599 29.7203 24.4289 29.7753 24.3961 29.828C24.3056 29.9746 24.1891 30.0767 24.0129 30.1214C23.8959 30.1513 23.7763 30.2115 23.6835 30.2887C23.3198 30.5912 22.895 30.7206 22.4371 30.7921C22.111 30.843 21.7809 30.8647 21.4586 30.9555C21.2654 31.01 21.0511 31.0743 20.8479 31.0136C20.5876 30.9357 20.3064 31.0075 20.0534 30.8796C19.987 30.8461 19.8806 30.8456 19.8107 30.8743C19.614 30.9553 19.5016 30.8648 19.3871 30.7226C19.2655 30.5719 19.0955 30.476 18.9039 30.4675C18.6731 30.4572 18.5289 30.3406 18.3826 30.1773C18.1626 29.9315 17.9155 29.7119 17.7864 29.3954C17.7224 29.2384 17.5977 29.1288 17.4551 29.0331C17.2297 28.8822 17.0334 28.7018 16.9211 28.4421C16.8533 28.2851 16.7172 28.1865 16.5726 28.0973C16.0965 27.8035 15.7622 27.3972 15.6158 26.85C15.5774 26.7063 15.5209 26.5766 15.411 26.4723C15.177 26.2501 15.0581 25.9584 14.9812 25.6593C14.92 25.4215 14.8674 25.1764 14.8351 24.933C14.8103 24.7458 14.7773 24.5715 14.7079 24.3944C14.6489 24.2439 14.6294 24.0704 14.6289 23.9068C14.6283 23.7222 14.6633 23.5368 14.6932 23.3532C14.7063 23.2728 14.7407 23.1947 14.7744 23.1194C14.7887 23.0873 14.8249 23.0639 14.8549 23.0414C14.8588 23.0386 14.8925 23.0626 14.9 23.0796C14.9988 23.3061 15.0935 23.5343 15.1934 23.7603C15.2537 23.8967 15.3439 24.0184 15.4801 24.0779C15.7259 24.1851 15.9657 24.3204 16.2188 24.3934C16.6346 24.5133 17.068 24.5724 17.5022 24.6019C17.6492 24.6119 17.7908 24.5834 17.9172 24.496C18.0191 24.4254 18.1206 24.353 18.252 24.3405C18.3829 24.3282 18.4942 24.2583 18.5699 24.1604C18.6765 24.0226 18.8296 23.955 18.9635 23.8597C19.0803 23.7765 19.2159 23.7203 19.3354 23.6404C19.4726 23.5488 19.5934 23.4309 19.7353 23.3485C19.9043 23.2504 20.0287 23.1246 20.1089 22.9463C20.1796 22.789 20.3021 22.6735 20.4624 22.6108C20.7097 22.514 20.8838 22.3553 20.9642 22.0961C21.0159 21.9295 21.1287 21.8019 21.2859 21.733C21.4861 21.6455 21.6339 21.5159 21.7294 21.3185C21.8045 21.1634 21.9298 21.0463 22.0912 20.9915C22.3451 20.9054 22.5187 20.7438 22.6218 20.5008C22.6644 20.4006 22.7348 20.3115 22.8297 20.2783C23.0916 20.1868 23.2967 20.0259 23.4987 19.8407C23.6485 19.7035 23.8416 19.6092 24.0249 19.5146C24.1372 19.4567 24.2508 19.4049 24.3308 19.307C24.4253 19.1917 24.5464 19.1185 24.6715 19.0433C24.7578 18.9915 24.8306 18.9101 24.8958 18.831C25.1803 18.4861 25.2835 18.4021 25.6192 18.1666C25.875 17.987 26.1575 17.8627 26.4328 17.7223C26.5243 17.6756 26.629 17.6332 26.6931 17.559C26.8177 17.4151 26.9586 17.3001 27.1192 17.2008C27.1876 17.1585 27.2514 17.0938 27.292 17.0245C27.3875 16.8615 27.5033 16.7209 27.6471 16.5976C27.7427 16.5155 27.7936 16.3985 27.8194 16.2724C27.8423 16.1605 27.9192 16.0963 28.0224 16.0572C28.1001 16.0277 28.1796 16.0008 28.2528 15.9621C28.384 15.8926 28.5103 15.7978 28.5517 15.6567C28.6512 15.3177 28.9606 15.0772 28.9848 14.7039C28.9882 14.6497 29.04 14.5919 29.0825 14.5487C29.14 14.49 29.2111 14.4448 29.2749 14.3919C29.443 14.2523 29.548 14.0774 29.5508 13.8553C29.5546 13.5769 29.6743 13.3359 29.7834 13.0908C29.8252 12.9967 29.9006 12.9057 29.9065 12.8101C29.9232 12.5376 30.098 12.3075 30.0896 12.0269C30.086 11.9102 30.1553 11.7892 30.2004 11.6737C30.2458 11.5577 30.3132 11.4496 30.3509 11.3316C30.3816 11.2351 30.4024 11.1276 30.3935 11.028C30.363 10.6856 30.0846 10.4123 29.7442 10.3721C29.4408 10.3362 29.1355 10.5309 29.0089 10.8375C28.9515 10.9765 28.924 11.1184 28.9755 11.2625C29.0438 11.4532 29.0019 11.6205 28.9194 11.8003C28.799 12.0623 28.7101 12.3386 28.6074 12.6087C28.5117 12.8608 28.411 13.1071 28.2123 13.3042C28.0742 13.4412 28.0336 13.6245 28.0277 13.8194C28.0248 13.9197 28.0138 14.0418 27.9564 14.1144C27.817 14.2909 27.6989 14.4903 27.5085 14.6221C27.332 14.7443 27.2074 14.8982 27.1411 15.1085C27.0978 15.2456 27.0197 15.3784 26.8834 15.4493C26.5834 15.605 26.4189 15.9206 26.1254 16.0824C25.92 16.3446 25.629 16.5126 25.3959 16.7475C25.1352 17.0101 24.8023 17.1924 24.4961 17.4028C24.3269 17.5191 24.1782 17.6705 23.9667 17.7212C23.9093 17.7349 23.8436 17.7705 23.8097 17.8165C23.646 18.0386 23.3935 18.1565 23.204 18.347C22.9847 18.5676 22.7451 18.7619 22.4815 18.9284C22.3957 18.9826 22.3058 19.0509 22.2545 19.1351C22.1145 19.3643 21.9091 19.482 21.6597 19.5502C21.4449 19.6089 21.3073 19.762 21.2116 19.9557C21.1841 20.0112 21.1724 20.0752 21.141 20.1281C21.0878 20.218 21.0218 20.3 20.9139 20.329C20.6283 20.4058 20.4543 20.595 20.3538 20.8662C20.3089 20.9875 20.226 21.0771 20.0969 21.1198C20.0183 21.1459 19.9362 21.1721 19.8681 21.2172C19.7829 21.2739 19.6885 21.3368 19.6376 21.4209C19.5527 21.5612 19.523 21.7385 19.4263 21.8673C19.3144 22.0161 19.0812 21.993 18.9488 22.1334C18.9061 22.1786 18.8638 22.2245 18.8232 22.2718C18.5532 22.5874 18.2231 22.8383 17.9136 23.1111C17.858 23.1602 17.763 23.1831 17.6854 23.185C17.3549 23.1931 17.0239 23.1914 16.6931 23.1865C16.6355 23.1858 16.5656 23.1683 16.5235 23.1325C16.3974 23.0255 16.2797 22.9078 16.164 22.7892C16.1216 22.7456 16.0802 22.6918 16.0624 22.6351C15.9384 22.241 15.7801 21.8527 15.8121 21.4267C15.8266 21.2334 15.7957 21.0505 15.6819 20.8929C15.566 20.7323 15.543 20.5556 15.5345 20.3641C15.5179 19.9947 15.529 19.6254 15.4767 19.2555C15.4246 18.8874 15.415 18.5108 15.4978 18.1406C15.4616 17.9269 15.6034 17.7335 15.5846 17.53C15.5376 17.0229 15.7239 16.5475 15.7558 16.0526C15.8528 15.8134 15.8666 15.5713 15.8013 15.3195C15.7586 15.1546 15.7746 14.9879 15.8678 14.8382C15.9488 14.7082 15.9646 14.5646 15.9565 14.4182C15.9413 14.1439 16.0679 13.8932 16.0835 13.6232C16.0879 13.5463 16.1389 13.4657 16.1859 13.3989C16.2805 13.2639 16.3698 13.1233 16.5176 13.0334C16.6846 12.932 16.7782 12.7814 16.8367 12.5913C16.904 12.3729 17.0192 12.1738 17.2068 12.0264C17.2547 11.9888 17.2999 11.9389 17.3265 11.8847C17.4168 11.6996 17.5007 11.5111 17.5821 11.3219C17.6662 11.1265 17.8776 11.0354 17.9612 10.8336C18.056 10.6049 18.1772 10.3866 18.2976 10.1696C18.4511 9.89276 18.6635 9.66349 18.9392 9.5082C19.0701 9.43438 19.185 9.3529 19.2682 9.23148C19.4244 9.00361 19.6117 8.81867 19.8812 8.72815C19.9382 8.70911 20.0012 8.67338 20.0349 8.62624C20.184 8.41804 20.4159 8.30879 20.5954 8.13977C20.7938 7.95295 20.8365 7.65936 21.0277 7.46131C21.0681 7.41933 21.0721 7.34426 21.1067 7.294C21.2007 7.15791 21.292 7.02165 21.4639 6.96125C21.5595 6.9277 21.6633 6.87433 21.7258 6.79879C21.8857 6.6062 22.106 6.46776 22.2463 6.2697C22.4146 6.03247 22.597 5.87031 22.8929 5.84534C22.9491 5.84065 23.0045 5.7926 23.0549 5.75701C23.1578 5.68444 23.2816 5.6565 23.3886 5.60234C23.7037 5.44299 24.0507 5.37525 24.3686 5.21715C24.6756 5.06451 25.0163 4.91297 25.3853 5.06764C25.4205 5.08247 25.4674 5.07075 25.5087 5.06997C25.8001 5.06357 26.0877 5.08308 26.3621 5.19373C26.6207 5.1711 26.8305 5.36183 27.0841 5.35996C27.355 5.35777 27.6052 5.49058 27.8815 5.47201C28.0282 5.46218 28.1574 5.54085 28.2709 5.64136C28.4006 5.75639 28.5635 5.79041 28.7327 5.80258C29.5106 5.85861 29.5511 5.86282 30.0833 6.30154C30.3212 6.49757 30.5665 6.68828 30.7662 6.93129C30.9282 7.12872 30.9753 7.37844 31.1081 7.58914C31.1755 7.69589 31.0337 7.81638 31.0277 7.94077C31.0257 7.98213 31.0184 8.02332 31.0165 8.06484C31.002 8.37964 31.1702 8.63201 31.4672 8.73595C31.5844 8.777 31.7049 8.80868 31.8225 8.84895C32.0021 8.91044 32.1785 8.95086 32.3695 8.88219C32.5858 8.80462 32.8227 8.8836 33.0448 8.79417C33.3106 8.68711 33.5169 8.8925 33.7487 8.96492C33.8069 8.98318 33.8717 8.98131 33.9336 8.98708C34.0161 8.99489 34.1085 8.97974 34.1792 9.01205C34.3774 9.10273 34.5803 9.10258 34.7894 9.08915C35.0666 9.07152 35.3381 9.14596 35.563 9.28267C35.8298 9.44483 36.1411 9.51117 36.3885 9.70392C36.603 9.74996 36.7189 9.95222 36.9109 10.0338C37.0785 10.341 37.4122 10.4587 37.6553 10.6801C37.7765 10.7905 37.9255 10.8681 38.0257 11.0073C38.0727 11.0725 38.1404 11.147 38.2124 11.1662C38.5086 11.2451 38.6547 11.4465 38.7193 11.7277C38.8886 11.9357 39.0356 12.1613 39.2017 12.3706C39.4403 12.6713 39.9228 12.6929 40.2062 12.4235C40.3084 12.3262 40.371 12.1872 40.4517 12.0673C40.5709 12.1466 40.6877 12.224 40.7709 12.3493C40.8609 12.485 40.9619 12.6168 41.0777 12.7306C41.2183 12.8691 41.2678 13.0425 41.3171 13.2202C41.2013 13.2644 41.0794 13.2967 40.9716 13.3548C40.5978 13.5559 40.4579 14.0327 40.7075 14.4187C40.926 14.7566 41.4098 14.8457 41.7419 14.6072C41.8243 14.5481 41.8841 14.4559 41.969 14.4015C42.0344 14.3597 42.1226 14.3536 42.2006 14.3316L42.2005 14.333ZM32.6525 18.4494H32.6713C32.6713 18.3458 32.6801 18.2412 32.6685 18.1388C32.6595 18.058 32.6386 17.9731 32.6008 17.9016C32.4159 17.5503 31.9316 17.3115 31.4821 17.6208C31.4312 17.656 31.3797 17.6954 31.3418 17.7435C31.2001 17.9232 31.0117 17.9734 30.7919 17.9828C30.501 17.9951 30.277 18.1376 30.1464 18.4018C30.0798 18.5365 29.9827 18.6395 29.8737 18.7375C29.7509 18.8479 29.6309 18.9618 29.514 19.0786C29.2849 19.307 29.2282 19.5806 29.335 19.8809C29.3904 20.0368 29.4678 20.1859 29.5455 20.3324C29.6701 20.5673 29.9518 20.6984 30.2321 20.6607C30.3546 20.6441 30.4773 20.6068 30.5987 20.6109C30.8659 20.6198 31.0871 20.5394 31.2645 20.3371C31.3046 20.2912 31.3511 20.2411 31.4053 20.219C31.68 20.1064 31.854 19.8533 32.1142 19.7197C32.183 19.6844 32.246 19.6103 32.2794 19.539C32.3676 19.3501 32.4823 19.1778 32.5828 18.9968C32.6217 18.9268 32.6407 18.8413 32.6495 18.7608C32.6606 18.6582 32.6521 18.5535 32.6521 18.4499L32.6525 18.4494Z" fill="#FCFCFC"/>
<path id="Vector_2" d="M40.4524 12.0685C40.3717 12.1885 40.3093 12.3274 40.2069 12.4247C39.9234 12.6941 39.441 12.6725 39.2024 12.3718C39.0363 12.1625 38.8893 11.9369 38.72 11.7289C38.6554 11.4477 38.5093 11.2463 38.213 11.1673C38.1411 11.1481 38.0734 11.0739 38.0264 11.0085C37.9263 10.8694 37.7771 10.7917 37.656 10.6813C37.4129 10.4599 37.0792 10.3422 36.9116 10.035C36.7196 9.95342 36.6036 9.75115 36.3892 9.70511C36.1418 9.51252 35.8304 9.44618 35.5637 9.28387C35.3388 9.14715 35.0674 9.07271 34.7901 9.09035C34.5809 9.10377 34.378 9.10392 34.1798 9.01324C34.109 8.98078 34.0167 8.99592 33.9343 8.98828C33.8724 8.9825 33.8078 8.98436 33.7494 8.9661C33.5176 8.89368 33.3113 8.6883 33.0455 8.79537C32.8236 8.88479 32.5865 8.80582 32.3702 8.88338C32.1791 8.95206 32.0028 8.91164 31.8231 8.85014C31.7056 8.80988 31.5851 8.77819 31.4679 8.73714C31.1709 8.6332 31.0027 8.38083 31.0172 8.06603C31.0191 8.02467 31.0264 7.98348 31.0284 7.94197C31.0345 7.81742 31.1762 7.69693 31.1088 7.59033C30.9758 7.37963 30.9289 7.12976 30.7668 6.93248C30.5672 6.68948 30.3219 6.49876 30.084 6.30274C29.5518 5.86402 29.5112 5.85981 28.7334 5.80378C28.5642 5.7916 28.4013 5.75774 28.2716 5.64255C28.1581 5.54189 28.0289 5.46322 27.8822 5.47321C27.6059 5.49193 27.3557 5.35897 27.0848 5.36115C26.8312 5.36318 26.6216 5.1723 26.3628 5.19493C26.0884 5.08427 25.8008 5.06477 25.5094 5.07117C25.468 5.0721 25.4212 5.08365 25.3859 5.06882C25.017 4.914 24.6763 5.06554 24.3693 5.21834C24.0514 5.37644 23.7044 5.44419 23.3893 5.60354C23.2822 5.65769 23.1585 5.68563 23.0556 5.75821C23.0052 5.79379 22.9498 5.84185 22.8936 5.84653C22.5979 5.87135 22.4153 6.03367 22.247 6.2709C22.1067 6.4688 21.8863 6.60724 21.7265 6.79999C21.6639 6.87553 21.5601 6.92889 21.4646 6.96245C21.2928 7.02285 21.2015 7.1591 21.1074 7.2952C21.0727 7.3453 21.069 7.42052 21.0284 7.4625C20.8372 7.66056 20.7945 7.95414 20.5961 8.14096C20.4164 8.30999 20.1847 8.41939 20.0356 8.62744C20.0019 8.67457 19.9389 8.71014 19.8819 8.72934C19.6124 8.81986 19.4251 9.00481 19.2688 9.23267C19.1857 9.35394 19.0708 9.43557 18.9398 9.5094C18.6642 9.66484 18.4518 9.89396 18.2982 10.1708C18.1779 10.3878 18.0566 10.6063 17.9619 10.8348C17.8782 11.0366 17.6671 11.1277 17.5828 11.3231C17.5013 11.5124 17.4174 11.7008 17.3272 11.8859C17.3008 11.9401 17.2554 11.99 17.2074 12.0276C17.0198 12.1749 16.9047 12.3739 16.8374 12.5924C16.7789 12.7825 16.6852 12.933 16.5182 13.0346C16.3704 13.1243 16.2812 13.2651 16.1866 13.4001C16.1398 13.4669 16.0887 13.5475 16.0842 13.6244C16.0687 13.8944 15.9422 14.145 15.9571 14.4194C15.9653 14.5658 15.9495 14.7094 15.8685 14.8394C15.7753 14.9891 15.7592 15.1558 15.802 15.3207C15.8672 15.5725 15.8534 15.8146 15.7564 16.0538C15.7246 16.5487 15.5382 17.0241 15.5852 17.5312C15.6041 17.7347 15.4622 17.9279 15.4985 18.1417C15.4157 18.5118 15.4252 18.8886 15.4774 19.2567C15.5297 19.6266 15.5184 19.996 15.5351 20.3653C15.5437 20.5568 15.5667 20.7335 15.6826 20.8941C15.7964 21.0517 15.8273 21.2346 15.8128 21.4279C15.7808 21.8539 15.939 22.2422 16.0631 22.6363C16.0809 22.693 16.1223 22.7468 16.1647 22.7904C16.2804 22.9091 16.398 23.0267 16.5242 23.1337C16.5663 23.1695 16.6362 23.1869 16.6938 23.1877C17.0245 23.1924 17.3556 23.1943 17.6861 23.1862C17.7637 23.1843 17.8587 23.1613 17.9143 23.1123C18.2236 22.8395 18.5537 22.5884 18.8239 22.273C18.8643 22.2257 18.9066 22.1798 18.9495 22.1345C19.0819 21.9944 19.315 22.0173 19.4269 21.8684C19.5237 21.7397 19.5534 21.5624 19.6383 21.4221C19.6891 21.338 19.7836 21.2752 19.8688 21.2184C19.9367 21.1733 20.0188 21.1469 20.0976 21.121C20.2267 21.0784 20.3095 20.9887 20.3545 20.8674C20.4548 20.5961 20.629 20.4068 20.9146 20.3302C21.0225 20.3012 21.0885 20.2192 21.1417 20.1293C21.1731 20.0764 21.1848 20.0124 21.2123 19.9569C21.3079 19.763 21.4456 19.6101 21.6603 19.5514C21.9097 19.4832 22.1151 19.3655 22.2551 19.1362C22.3065 19.0521 22.3964 18.9838 22.4822 18.9296C22.7458 18.7631 22.9855 18.5688 23.2047 18.3482C23.3941 18.1577 23.6467 18.0398 23.8104 17.8177C23.8444 17.7717 23.91 17.7361 23.9674 17.7224C24.1789 17.6718 24.3275 17.5203 24.4968 17.404C24.803 17.1936 25.1359 17.0115 25.3965 16.7486C25.6297 16.5138 25.9206 16.3458 26.126 16.0836C26.4196 15.9219 26.5841 15.6062 26.8841 15.4504C27.0205 15.3796 27.0985 15.2468 27.1418 15.1097C27.2081 14.8994 27.3326 14.7455 27.5091 14.6233C27.6996 14.4915 27.8175 14.2919 27.9571 14.1156C28.0145 14.0428 28.0254 13.9209 28.0284 13.8206C28.0343 13.6256 28.0749 13.4424 28.213 13.3054C28.4117 13.1083 28.5124 12.862 28.6081 12.6099C28.7106 12.3398 28.7997 12.0635 28.92 11.8015C29.0026 11.6217 29.0446 11.4545 28.9762 11.2637C28.9247 11.1198 28.9522 10.9777 29.0096 10.8387C29.1363 10.5321 29.4416 10.3374 29.7449 10.3733C30.0853 10.4134 30.3637 10.6868 30.3941 11.0292C30.403 11.1288 30.3823 11.2365 30.3515 11.3328C30.3139 11.4508 30.2465 11.5589 30.2011 11.6749C30.1558 11.7904 30.0867 11.9115 30.0903 12.0281C30.0987 12.3087 29.9239 12.5388 29.9072 12.8113C29.9013 12.9069 29.8259 12.9981 29.784 13.092C29.6751 13.3371 29.5553 13.578 29.5515 13.8565C29.5485 14.0786 29.4437 14.2535 29.2756 14.3931C29.2117 14.446 29.1407 14.4912 29.0831 14.5499C29.0407 14.5931 28.9889 14.6509 28.9854 14.705C28.9612 15.0784 28.6519 15.3189 28.5523 15.6579C28.5108 15.799 28.3847 15.8938 28.2535 15.9633C28.1804 16.002 28.1008 16.0289 28.0231 16.0583C27.9199 16.0975 27.8428 16.1615 27.82 16.2736C27.7943 16.3997 27.7434 16.5167 27.6477 16.5988C27.504 16.7223 27.3883 16.8627 27.2927 17.0257C27.2519 17.095 27.1883 17.1597 27.1199 17.202C26.9595 17.3013 26.8184 17.4163 26.6938 17.5602C26.6297 17.6344 26.525 17.6768 26.4335 17.7235C26.158 17.8638 25.8757 17.9882 25.6199 18.1678C25.2843 18.4035 25.1812 18.4874 24.8965 18.8322C24.8311 18.9113 24.7585 18.9926 24.6722 19.0445C24.5469 19.1197 24.4258 19.1929 24.3315 19.3082C24.2513 19.4061 24.1378 19.4579 24.0256 19.5158C23.8422 19.6105 23.649 19.7047 23.4993 19.8419C23.2972 20.027 23.0923 20.188 22.8304 20.2795C22.7355 20.3126 22.665 20.4018 22.6225 20.502C22.5194 20.7449 22.3458 20.9066 22.0919 20.9927C21.9305 21.0475 21.8052 21.1644 21.7301 21.3197C21.6346 21.5171 21.4868 21.6467 21.2865 21.7342C21.1294 21.8031 21.0164 21.9307 20.9649 22.0972C20.8845 22.3565 20.7103 22.5152 20.4631 22.612C20.3028 22.6747 20.1805 22.79 20.1096 22.9475C20.0295 23.1258 19.905 23.2514 19.736 23.3497C19.5941 23.4321 19.4733 23.5498 19.3361 23.6416C19.2166 23.7215 19.0811 23.7778 18.9642 23.8609C18.8303 23.9562 18.6772 24.024 18.5706 24.1616C18.4947 24.2596 18.3834 24.3294 18.2527 24.3417C18.1212 24.3542 18.0198 24.4268 17.9179 24.4972C17.7915 24.5846 17.6499 24.6131 17.5029 24.6031C17.0688 24.5736 16.6354 24.5147 16.2195 24.3946C15.9662 24.3216 15.7266 24.1863 15.4808 24.079C15.3446 24.0196 15.2544 23.8979 15.1941 23.7614C15.0944 23.5354 14.9996 23.3071 14.9007 23.0808C14.8932 23.0638 14.8593 23.0398 14.8556 23.0426C14.8256 23.0651 14.7894 23.0886 14.775 23.1206C14.7413 23.1958 14.707 23.274 14.6939 23.3544C14.6641 23.5378 14.629 23.7234 14.6296 23.908C14.6301 24.0714 14.6497 24.2451 14.7086 24.3956C14.778 24.5727 14.811 24.747 14.8358 24.9342C14.8681 25.1776 14.9207 25.4225 14.9818 25.6605C15.0586 25.9596 15.1777 26.2513 15.4117 26.4735C15.5215 26.5779 15.5779 26.7075 15.6164 26.8512C15.7628 27.3984 16.0971 27.8048 16.5733 28.0985C16.7178 28.1878 16.8541 28.2863 16.9218 28.4433C17.034 28.703 17.2304 28.8833 17.4558 29.0343C17.5984 29.13 17.7231 29.2396 17.7871 29.3966C17.9162 29.7131 18.1631 29.9327 18.3833 30.1785C18.5295 30.3419 18.6736 30.4583 18.9046 30.4686C19.0962 30.4772 19.2662 30.5731 19.3878 30.7238C19.5023 30.866 19.6145 30.9564 19.8114 30.8755C19.8811 30.8468 19.9877 30.8473 20.054 30.8808C20.307 31.0087 20.5883 30.9369 20.8486 31.0147C21.0518 31.0755 21.2661 31.0111 21.4593 30.9567C21.7816 30.8658 22.1117 30.8442 22.4377 30.7933C22.8957 30.7219 23.3206 30.5926 23.6841 30.2899C23.777 30.2127 23.8965 30.1524 24.0136 30.1226C24.1898 30.0778 24.3062 29.9759 24.3968 29.8292C24.4294 29.7763 24.4604 29.7215 24.5002 29.6742C24.6256 29.5246 24.7838 29.4298 24.9816 29.4177C25.1044 29.41 25.228 29.4153 25.3513 29.4128C25.4048 29.4117 25.4285 29.3814 25.4215 29.3299C25.3878 29.0818 25.4039 28.8399 25.4456 28.5902C25.5133 28.1841 25.5013 27.7655 25.6447 27.3705C25.6655 27.3133 25.655 27.2456 25.6703 27.1858C25.722 26.9845 25.6452 26.7657 25.7522 26.5734C25.8532 26.392 25.9266 26.201 25.9865 26.0023C26.0096 25.9259 26.063 25.8539 26.1171 25.7927C26.1715 25.7315 26.2375 25.6549 26.3096 25.6402C26.5822 25.5848 26.7474 25.3201 27.0283 25.2881C27.1925 25.2694 27.3565 25.2207 27.5196 25.2255C27.7475 25.2323 27.9084 25.1552 28.0365 24.9674C28.1089 24.8614 28.2375 24.8262 28.3657 24.8131C28.5094 24.7984 28.6552 24.7931 28.7963 24.765C28.9965 24.7252 29.1827 24.7695 29.3183 24.9017C29.6434 25.2187 30.0183 25.4804 30.3134 25.8317C30.4981 26.0515 30.7206 26.2399 30.9321 26.4361C31.0575 26.5523 31.1628 26.6781 31.19 26.8506C31.2427 27.1855 31.3864 27.4809 31.5742 27.7578C31.7126 27.962 31.7326 28.1848 31.6692 28.4143C31.6201 28.5922 31.5121 28.7536 31.5308 28.9504C31.5346 28.9889 31.5219 29.0384 31.4985 29.0687C31.3212 29.2973 31.2419 29.5906 31.0175 29.7888C30.9407 29.8567 30.8827 29.9455 30.8099 30.0185C30.7375 30.0914 30.6657 30.1706 30.5788 30.2219C30.4363 30.3062 30.2869 30.375 30.1632 30.4911C30.0531 30.5944 29.9008 30.6444 29.7602 30.6341C29.5473 30.6183 29.3513 30.6865 29.1471 30.7017C28.9614 30.7154 28.7761 30.7152 28.5903 30.7468C28.4091 30.7775 28.219 30.6901 28.0365 30.7692C27.7035 30.7305 27.3779 30.7959 27.0514 30.8435C26.8142 30.8782 26.6033 30.8379 26.4082 30.6836C26.2969 30.5955 26.1583 30.5401 26.0279 30.4788C25.9072 30.422 25.8465 30.4058 25.7708 30.5369C25.7501 30.5726 25.723 30.6049 25.6976 30.6378C25.5785 30.7927 25.4201 30.9147 25.2321 30.9231C25.0083 30.9331 24.8929 31.0344 24.8231 31.2265C24.8091 31.2651 24.7816 31.2986 24.7638 31.3361C24.663 31.5471 24.526 31.7188 24.312 31.8324C24.1269 31.9306 24.0578 32.1211 24.0987 32.3101C24.1553 32.5728 24.1164 32.8021 23.9807 33.0259C23.8986 33.1614 23.9089 33.3079 23.9679 33.4457C24.1165 33.792 24.3278 34.0994 24.6068 34.3516C24.6947 34.431 24.8202 34.4816 24.9371 34.5128C25.076 34.5499 25.225 34.5701 25.3685 34.5651C25.5837 34.5576 25.7758 34.5979 25.9634 34.7079C26.1095 34.7936 26.2755 34.8098 26.4454 34.7564C26.5232 34.7319 26.6117 34.7085 26.6893 34.7216C27.0217 34.7776 27.3482 34.7232 27.6769 34.6929C27.7592 34.6853 27.843 34.6945 27.926 34.6973C28.0554 34.7018 28.174 34.6693 28.2741 34.5863C28.4446 34.4446 28.6421 34.3976 28.8571 34.4215C28.9839 34.4355 29.1028 34.4127 29.2261 34.3881C29.49 34.3353 29.7575 34.3013 30.0229 34.2562C30.4341 34.1863 30.8151 34.0237 31.1903 33.852C31.3421 33.7825 31.4821 33.6987 31.656 33.6959C31.8867 33.6923 32.0807 33.5509 32.3121 33.5222C32.5108 33.4977 32.704 33.3919 32.8673 33.2563C32.8986 33.2302 32.9362 33.2066 32.9748 33.1948C33.3892 33.068 33.6884 32.781 33.9665 32.4711C34.0956 32.3272 34.2387 32.232 34.4222 32.1645C34.5934 32.1018 34.7702 32.0036 34.8935 31.8728C35.0978 31.6564 35.3594 31.5282 35.5949 31.3653C35.8325 31.2011 36.0347 30.9882 36.3018 30.8609C36.406 30.8111 36.4822 30.6948 36.5599 30.5996C36.6117 30.5362 36.6294 30.4415 36.6871 30.3873C36.8312 30.2525 36.8627 30.059 36.9643 29.9044C37.0662 29.7495 37.2209 29.6385 37.312 29.4681C37.3888 29.3242 37.5171 29.212 37.5466 29.0359C37.5594 28.9599 37.6131 28.8772 37.6724 28.8251C37.8344 28.6826 37.875 28.4591 38.0201 28.3145C38.1692 28.1661 38.2633 27.9787 38.4067 27.8304C38.5416 27.691 38.6121 27.5204 38.6783 27.3461C38.8735 27.2038 39.0791 27.0769 39.2935 26.9636C39.3816 26.9171 39.4827 26.8809 39.5092 26.7657C39.5432 26.7424 39.5704 26.7129 39.5902 26.6773C39.6455 26.6897 39.6613 26.6627 39.6531 26.6126C39.7575 26.5739 39.8106 26.4851 39.8688 26.3984C39.9261 26.3132 39.9767 26.1973 40.0594 26.1601C40.3842 26.0145 40.5841 25.6844 40.9376 25.5845C41.0144 25.5628 41.0765 25.494 41.1516 25.4609C41.3453 25.3757 41.4848 25.2149 41.6601 25.1068C41.8179 25.0096 41.9889 24.9307 42.1609 24.8602C42.3048 24.8012 42.3797 24.6721 42.4907 24.5807C42.6772 24.4269 42.8901 24.3637 43.1289 24.4119C43.5011 24.4872 43.7592 24.796 43.7581 25.1577C43.757 25.4946 43.524 25.794 43.1841 25.8867C43.1051 25.9082 43.019 25.9299 42.9399 25.9202C42.7571 25.8978 42.6244 25.9518 42.5055 26.0971C42.4298 26.1893 42.3193 26.277 42.2076 26.3104C42.0114 26.3691 41.8754 26.4816 41.7905 26.6563C41.6947 26.8537 41.5522 26.9996 41.3476 27.0689C41.2232 27.1111 41.1333 27.1883 41.0391 27.2699C40.9284 27.3658 40.8057 27.4505 40.6532 27.4558C40.4953 27.4613 40.3846 27.5591 40.2635 27.6361C40.1568 27.704 40.0619 27.7931 40.0336 27.9201C39.9701 28.2067 39.7984 28.3943 39.542 28.5255C39.41 28.5931 39.3166 28.7163 39.275 28.8581C39.2043 29.0986 39.0266 29.2873 38.9716 29.537C38.9353 29.7011 38.8309 29.8469 38.6792 29.9261C38.5024 30.0185 38.386 30.166 38.2981 30.3265C38.1684 30.5632 38.0155 30.7788 37.8563 30.9954C37.745 31.1468 37.6524 31.3028 37.4882 31.406C37.3428 31.4973 37.2434 31.6381 37.1866 31.7942C37.0764 32.0969 36.8736 32.2767 36.5573 32.3258C36.4206 32.347 36.3399 32.4288 36.2731 32.5416C36.1047 32.8264 36.0713 33.1763 35.8425 33.4317C35.731 33.721 35.6174 34.0098 35.5096 34.3005C35.4812 34.3773 35.4629 34.46 35.4538 34.5415C35.4347 34.7118 35.3764 34.8636 35.2675 34.9958C35.1984 35.0797 35.1681 35.1794 35.1673 35.2846C35.1657 35.5118 35.1373 35.7437 35.2186 35.9627C35.2971 36.1742 35.2686 36.3699 35.1685 36.5628C35.1495 36.5996 35.1298 36.6363 35.1071 36.6708C35.0337 36.7821 35.0264 36.9052 35.0476 37.0301C35.0719 37.173 35.1049 37.3146 35.134 37.4568C35.1556 37.5618 35.2062 37.6445 35.2929 37.7134C35.5225 37.8958 35.7626 38.0469 36.0555 38.1154C36.3163 38.1763 37.0033 38.2913 37.2545 38.3111C37.5532 38.3347 37.8318 38.2922 38.0924 38.1419C38.1282 38.1213 38.1679 38.097 38.2068 38.0948C38.7221 38.0664 39.0629 37.7196 39.4329 37.4262C39.4816 37.3876 39.5216 37.3326 39.5759 37.3076C39.9981 37.1131 40.2752 36.732 40.6515 36.4785C40.7183 36.4336 40.7839 36.3669 40.817 36.2951C40.9669 35.9699 41.2341 35.7331 41.4483 35.4583C41.6115 35.2487 41.7824 35.0363 41.9802 34.8568C42.1283 34.7224 42.216 34.5719 42.2442 34.3812C42.2627 34.2565 42.2859 34.1337 42.3697 34.0347C42.5035 33.8766 42.6165 33.7098 42.7086 33.5203C42.7886 33.3557 42.9168 33.214 42.9659 33.0298C42.9764 32.9909 42.9982 32.9502 43.0263 32.9215C43.239 32.703 43.3358 32.437 43.362 32.1385C43.3731 32.0114 43.4218 31.8955 43.5069 31.7999C43.5926 31.7038 43.6319 31.5902 43.6712 31.4705C43.7027 31.3748 43.7572 31.2771 43.8273 31.2053C44.0328 30.9941 44.161 30.7382 44.2944 30.4814C44.3699 30.3363 44.504 30.2206 44.5744 30.0739C44.6688 29.8771 44.8499 29.7652 44.9719 29.6031C45.0991 29.434 45.2435 29.3029 45.4069 29.1711C45.6803 28.9502 45.8943 28.6649 46.0566 28.3482C46.1236 28.2176 46.1982 28.0965 46.3152 28.0024C46.5598 27.8061 46.7616 27.5749 46.8844 27.2812C46.908 27.2247 46.9434 27.1718 46.9798 27.122C47.187 26.839 47.2382 26.682 47.3361 26.3717C47.433 26.0643 47.4622 25.7677 47.3809 25.455C47.3556 25.3579 47.3636 25.2477 47.3764 25.146C47.4082 24.8936 47.3931 24.6514 47.2871 24.4152C47.2542 24.3417 47.2378 24.2535 47.2403 24.1729C47.2471 23.9447 47.1396 23.7811 46.9829 23.63C46.8788 23.5297 46.7925 23.412 46.6647 23.3357C46.6124 23.3045 46.5537 23.2639 46.5272 23.2125C46.3922 22.9514 46.1351 22.7871 45.9953 22.5332C45.8899 22.3418 45.7292 22.2107 45.545 22.1164C45.2519 21.9663 44.9802 21.7711 44.6577 21.6805C44.6379 21.6749 44.6192 21.6649 44.5992 21.6596C44.428 21.6139 44.3437 21.4492 44.2037 21.3678C44.0631 21.2857 43.8803 21.271 43.748 21.1803C43.4262 20.9599 43.3096 20.5155 43.6061 20.1418C43.6319 20.1095 43.6581 20.0706 43.6932 20.0536C44.0598 19.8757 43.9596 19.5405 43.9709 19.2425C43.8857 19.0335 43.945 18.8383 44.0158 18.6385C44.0781 18.4628 44.1091 18.2842 44.0522 18.0915C43.9659 17.7992 44.1647 17.4575 44.4778 17.3545C44.5369 17.3352 44.5973 17.3199 44.6574 17.3027C44.7373 17.3252 44.8219 17.3375 44.8959 17.3722C45.1438 17.4886 45.2965 17.6834 45.2686 17.9624C45.2391 18.2568 45.2382 18.536 45.3574 18.8169C45.4016 18.9212 45.3768 19.0627 45.3577 19.1832C45.3387 19.3042 45.2722 19.4153 45.2866 19.5461C45.3107 19.7649 45.2301 19.95 45.1019 20.1247C45.0557 20.1876 45.0435 20.2773 45.0226 20.3567C45.0036 20.429 45.0528 20.5384 45.1118 20.5738C45.1296 20.5846 45.1456 20.6008 45.1648 20.6061C45.4902 20.6952 45.7457 20.9142 46.0355 21.0695C46.3247 21.2245 46.5944 21.419 46.9139 21.516C46.9721 21.5337 47.0403 21.5619 47.075 21.6073C47.3 21.9018 47.6205 22.1016 47.8248 22.425C48.0383 22.7631 48.1884 23.1158 48.2956 23.495C48.3292 23.6138 48.3897 23.7246 48.4294 23.8418C48.4622 23.9389 48.4971 24.0389 48.5052 24.1399C48.5271 24.412 48.5833 24.6684 48.7217 24.9098C48.8155 25.0732 48.8413 25.2563 48.8036 25.452C48.7448 25.7585 48.7301 26.066 48.8135 26.3763C48.8767 26.6116 48.7954 26.8272 48.6446 27.014C48.6059 27.0621 48.5588 27.1054 48.5088 27.1418C48.3774 27.2375 48.332 27.3628 48.3527 27.5217C48.3607 27.5822 48.3527 27.6467 48.3409 27.7073C48.329 27.768 48.315 27.8338 48.2816 27.8836C48.0977 28.1569 47.9076 28.426 47.7197 28.6964C47.443 28.8825 47.2801 29.1904 46.9973 29.3705C46.9834 29.3794 46.9714 29.4128 46.9773 29.4269C46.9913 29.4603 47.0104 29.5074 47.0383 29.5169C47.3581 29.6262 47.6935 29.6063 48.0223 29.6084C48.4776 29.6112 48.9335 29.589 49.388 29.5584C49.6005 29.5441 49.8002 29.6177 50.0042 29.6148C50.1958 29.6118 50.372 29.6388 50.5534 29.6939C50.7304 29.7476 50.9239 29.7507 51.0968 29.8133C51.2718 29.8765 51.4428 29.9385 51.6262 29.9787C51.7934 30.0156 51.9494 30.032 52.1155 29.9904C52.2357 29.9603 52.3591 29.9329 52.4823 29.9269C52.8751 29.9082 53.1879 30.235 53.1769 30.642C53.1665 31.0349 52.8164 31.3525 52.433 31.3174C52.4124 31.3155 52.3889 31.3188 52.3713 31.3105C52.0229 31.1454 51.6437 31.1827 51.2764 31.1384C51.0108 31.1064 50.7391 31.1783 50.4781 31.0861C49.8765 31.1187 49.2826 31.0332 48.6861 30.9768C48.3362 30.9437 47.9821 30.9562 47.6298 30.9487C47.5883 30.9478 47.5412 30.9369 47.5061 30.9522C47.2111 31.0809 46.8911 31.0038 46.5877 31.0676C46.3809 31.1112 46.1749 31.0904 45.9843 30.9782C45.9328 30.948 45.8656 30.9284 45.8066 30.9309C45.7267 30.9342 45.6256 30.9384 45.5722 30.9857C45.1737 31.3394 44.9087 31.7781 44.813 32.3048C44.7782 32.4967 44.6982 32.651 44.5858 32.8065C44.4411 33.0062 44.3214 33.2213 44.2632 33.4715C44.2267 33.6285 44.1056 33.7647 44.0605 33.9213C44.0139 34.0827 43.9735 34.2398 43.8663 34.3737C43.8282 34.4213 43.7875 34.478 43.778 34.5354C43.7254 34.8504 43.5268 35.0469 43.2715 35.2107C43.1874 35.2647 43.0944 35.3482 43.0661 35.4375C42.9939 35.666 42.8192 35.8186 42.7004 36.0106C42.6243 36.1338 42.5611 36.263 42.4616 36.3716C42.4062 36.4322 41.7634 37.1034 41.7019 37.1498C41.6521 37.1872 41.592 37.2188 41.5577 37.2679C41.3407 37.5784 40.9958 37.7541 40.7561 38.0391C40.7168 38.0859 40.6865 38.1421 40.6598 38.1977C40.5755 38.3725 40.4497 38.499 40.2732 38.5861C40.1635 38.6401 40.0653 38.7205 39.969 38.7978C39.8699 38.8772 39.7661 38.9395 39.6397 38.964C39.3444 39.0214 39.0958 39.1564 38.9027 39.3947C38.8531 39.4559 38.771 39.5151 38.6961 39.5271C38.4072 39.5734 38.1469 39.7339 37.8644 39.7642C37.6011 39.7924 37.3275 39.8197 37.0634 39.798C36.8204 39.7782 36.5785 39.6975 36.3455 39.617C36.1507 39.5497 35.9673 39.457 35.7626 39.408C35.6282 39.3757 35.5197 39.2471 35.3863 39.1978C35.1714 39.1185 34.9981 38.9672 34.777 38.893C34.5659 38.8219 34.4113 38.6309 34.1951 38.541C34.0169 38.467 33.912 38.3016 33.8697 38.1078C33.8521 38.0268 33.8557 37.9372 33.8224 37.864C33.6663 37.5214 33.6545 37.1882 33.8383 36.8497C33.8874 36.7594 33.8756 36.6479 33.8329 36.5472C33.7481 36.3473 33.7567 36.1437 33.801 35.9357C33.8568 35.6743 33.8421 35.3996 33.985 35.1539C34.0314 35.0743 34.0412 34.9414 34.0091 34.8546C33.9264 34.6314 33.8998 34.4138 33.9574 34.183C33.963 34.1602 33.9197 34.1209 33.8923 34.0965C33.8813 34.0867 33.8444 34.0884 33.8329 34.0994C33.6464 34.2737 33.4258 34.3726 33.1774 34.4284C33.0157 34.4646 32.866 34.5409 32.7424 34.6601C32.6519 34.7475 32.5372 34.7934 32.4245 34.8482C32.2399 34.9379 32.0802 35.0814 31.8931 35.1634C31.7062 35.2455 31.4868 35.1953 31.2878 35.2854C31.1417 35.3514 30.9685 35.3523 30.8194 35.4374C30.715 35.497 29.9941 35.6173 29.8449 35.6055C29.5874 35.585 29.357 35.6615 29.1246 35.7557C29.0116 35.8015 28.8832 35.8458 28.7655 35.8375C28.2441 35.8007 27.7306 35.8477 27.2189 35.9407C27.1179 35.9591 27.0138 35.9604 26.9115 35.9725C26.846 35.9803 26.773 36.116 26.8137 36.1704C26.9885 36.4041 27.0386 36.7005 27.2056 36.9371C27.3629 37.1599 27.3798 37.4053 27.2906 37.6506C27.1778 37.9612 27.0625 38.2688 26.9944 38.5942C26.9596 38.7605 26.858 38.91 26.7004 38.9797C26.4541 39.0887 26.2484 39.2629 25.9987 39.371C25.775 39.4678 25.5419 39.5642 25.3446 39.7237C25.2692 39.7848 25.1557 39.7982 25.0604 39.8353C24.9062 39.8954 24.7453 39.9438 24.6009 40.0223C24.4568 40.1006 24.3379 40.226 24.1926 40.3009C24.047 40.376 23.8716 40.3948 23.7288 40.4737C23.5747 40.5587 23.4183 40.5957 23.2515 40.5806C22.9333 40.5515 22.6328 40.6087 22.3402 40.7293C22.2219 40.7781 22.0969 40.7905 21.9744 40.7487C21.6766 40.6471 21.3562 40.702 21.0573 40.6112C20.8436 40.6436 20.6482 40.5874 20.4528 40.5041C20.3607 40.4648 20.2519 40.4582 20.1497 40.4502C19.9977 40.4384 19.8661 40.3808 19.7544 40.2842C19.4728 40.0406 19.1911 39.7993 18.8534 39.6323C18.7822 39.597 18.7193 39.5313 18.6709 39.4662C18.4368 39.1513 18.1926 38.8469 17.8987 38.5835C17.7721 38.47 17.6994 38.3181 17.6836 38.1452C17.6714 38.0116 17.6156 37.8946 17.4993 37.8371C17.2808 37.7291 17.141 37.5643 17.0529 37.3411C17.0237 37.2668 16.9601 37.2061 16.9123 37.1392C16.8761 37.0886 16.8355 37.0405 16.8052 36.9865C16.775 36.9325 16.7344 36.8728 16.7339 36.8152C16.7317 36.5377 16.5231 36.3154 16.5299 36.0401C16.5341 35.8727 16.5252 35.7131 16.4698 35.5515C16.4377 35.4575 16.4516 35.3467 16.451 35.2434C16.4506 35.1814 16.4811 35.1143 16.4658 35.0583C16.3529 34.6434 16.5184 34.2703 16.6812 33.9206C16.8794 33.495 16.9415 33.0532 16.9768 32.6009C16.9974 32.3375 17.0887 32.1249 17.2864 31.9462C17.4238 31.8219 17.5418 31.6752 17.6607 31.5321C17.7445 31.4313 17.7262 31.2796 17.6334 31.2044C17.5528 31.1393 17.4703 31.0766 17.3915 31.0096C17.3222 30.9506 17.2443 30.9314 17.1614 30.962C16.9321 31.0464 16.7096 31.0194 16.4968 30.9166C16.1941 30.7702 15.8905 30.7987 15.5955 30.918C15.3747 31.0073 15.1604 31.0486 14.9308 30.9746C14.6605 31.0227 14.3952 30.9784 14.1297 30.9334C14.0891 30.9266 14.0459 30.9244 14.0053 30.9303C13.6563 30.9812 13.3067 30.9955 12.9551 30.9631C12.9148 30.9593 12.865 30.9604 12.833 30.9806C12.541 31.1653 12.1832 31.1073 11.8784 31.2436C11.7814 31.2868 11.6751 31.2977 11.5731 31.267C11.2848 31.18 11.0079 31.1777 10.725 31.3064C10.6189 31.3547 10.4803 31.3442 10.3573 31.3391C10.1921 31.3323 10.0217 31.3263 9.8644 31.2818C9.5496 31.1927 9.25431 31.2072 8.95995 31.3528C8.88972 31.3876 8.79608 31.3965 8.71648 31.3874C8.40231 31.3514 8.09875 31.4155 7.79488 31.4734C7.67158 31.497 7.55015 31.5017 7.42561 31.5075C7.22022 31.517 7.00391 31.5254 6.81506 31.5956C6.59328 31.6781 6.38102 31.7157 6.14754 31.6955C5.93809 31.6774 5.73503 31.7133 5.55602 31.8424C5.43319 31.9309 5.28867 31.9473 5.13993 31.9456C4.97419 31.9437 4.80843 31.947 4.64268 31.9524C4.39265 31.9605 4.201 31.8575 4.06288 31.6528C4.01652 31.5841 3.97922 31.5092 3.93771 31.4372C3.94613 31.3547 3.94832 31.2707 3.96424 31.1896C4.01684 30.922 4.16885 30.7424 4.43589 30.6645C4.59508 30.6182 4.751 30.5606 4.91066 30.5162C5.0093 30.4889 5.11511 30.4515 5.21266 30.4627C5.53479 30.4999 5.83008 30.4278 6.11679 30.2909C6.25257 30.226 6.39663 30.2024 6.54037 30.2572C6.68567 30.3126 6.82692 30.2979 6.9666 30.2498C7.27969 30.1425 7.58464 30.0387 7.93222 30.1086C8.10733 30.1437 8.30663 30.1016 8.48627 30.0582C8.67434 30.0128 8.84821 30.017 9.03784 30.0498C9.19547 30.0771 9.37823 30.0691 9.52697 30.0145C9.80478 29.9124 10.1061 29.9741 10.3805 29.8553C10.4626 29.8197 10.5903 29.8494 10.6825 29.8859C10.8903 29.9681 11.0947 29.9741 11.2842 29.8678C11.5726 29.7059 11.9049 29.8629 12.1942 29.7228C12.2459 29.6976 12.3175 29.7067 12.3792 29.7111C12.4407 29.7154 12.5069 29.7217 12.5612 29.7477C12.7455 29.8362 12.9225 29.8125 13.1021 29.7364C13.2991 29.6529 13.4971 29.6421 13.7113 29.6855C13.8701 29.7176 14.0414 29.6895 14.207 29.6884C14.4766 29.5455 14.7799 29.6268 15.0621 29.5605C15.2264 29.5219 15.3964 29.5403 15.5487 29.6176C15.687 29.6877 15.8303 29.6761 15.9748 29.6746C15.9951 29.6744 16.033 29.6636 16.0327 29.6607C16.0291 29.6251 16.0321 29.574 16.0102 29.5573C15.8626 29.4454 15.6857 29.3638 15.5957 29.1912C15.346 28.7127 14.9964 28.3011 14.7072 27.8496C14.628 27.726 14.5484 27.611 14.4406 27.51C14.3671 27.4412 14.3007 27.3503 14.2672 27.2564C14.2041 27.08 14.1096 26.9193 14.0404 26.7476C13.948 26.5185 13.8786 26.2797 13.8057 26.0432C13.7328 25.8072 13.5614 25.6044 13.5692 25.3414C13.4483 25.1416 13.4452 24.9048 13.3674 24.694C13.2794 24.4552 13.1956 24.2306 13.2783 23.971C13.3006 23.9008 13.2519 23.8105 13.2474 23.7288C13.2429 23.6472 13.2376 23.5603 13.2599 23.4836C13.3176 23.285 13.3793 23.0888 13.4238 22.8853C13.4715 22.666 13.592 22.467 13.6351 22.2402C13.6623 22.0972 13.7618 21.9808 13.884 21.8922C14.0154 21.7967 14.2216 21.7784 14.2736 21.607C14.3203 21.4528 14.3029 21.2794 14.3159 21.1148C14.3273 20.9699 14.3654 20.8229 14.3501 20.6812C14.2903 20.1232 14.3223 19.5631 14.2923 19.0054C14.267 18.534 14.2658 18.0562 14.1381 17.5946C14.1096 17.4912 14.1189 17.3898 14.1498 17.2879C14.1798 17.1888 14.2057 17.0884 14.231 16.9879C14.2444 16.9345 14.1828 16.8429 14.1362 16.8515C13.8929 16.8963 13.6415 16.8353 13.3985 16.9236C13.3105 16.9556 13.1928 16.9264 13.094 16.9028C12.9849 16.8768 12.8792 16.8723 12.8028 16.9515C12.5874 17.1749 12.3336 17.2773 12.0219 17.2688C11.9016 17.2656 11.7811 17.3289 11.6584 17.3433C11.3861 17.3751 11.1336 17.4572 10.9087 17.6134C10.7826 17.7012 10.6449 17.7321 10.4963 17.728C10.4342 17.7263 10.3723 17.7168 10.3101 17.7105C10.2012 17.6994 10.1063 17.7233 10.0325 17.8118C9.82912 18.0553 9.56786 18.1499 9.25509 18.1094C9.23464 18.1068 9.21342 18.1069 9.19281 18.109C9.10947 18.1176 9.0266 18.1304 8.97104 18.2026C8.79421 18.4324 8.55214 18.5243 8.27292 18.5652C8.13308 18.5858 7.98497 18.6367 7.86948 18.7161C7.69639 18.8352 7.52503 18.9324 7.31886 18.9913C7.14406 19.041 6.98018 19.1476 6.82785 19.2528C6.69004 19.348 6.55504 19.4322 6.39225 19.4837C6.21355 19.5402 6.06466 19.6508 5.94932 19.8109C5.87878 19.9088 5.7817 20.004 5.67479 20.0552C5.53901 20.1203 5.43273 20.21 5.3291 20.3122C5.2392 20.4009 5.13135 20.4577 5.00696 20.4927C4.80126 20.5506 4.63472 20.6693 4.51127 20.8487C4.42684 20.9712 4.30464 21.0438 4.16901 21.1077C3.99749 21.1887 3.86825 21.3199 3.79818 21.5079C3.73918 21.6665 3.61698 21.7775 3.48557 21.8867C3.29547 22.045 3.13081 22.2337 2.95149 22.4053C2.78137 22.5683 2.72846 22.8027 2.59721 22.9834C2.37746 23.2862 2.19781 23.6063 2.03394 23.9409C1.89113 24.2325 1.63346 24.3509 1.3093 24.3108C1.24796 24.3032 1.18818 24.2813 1.12778 24.2662C0.989187 24.1423 0.839363 24.0302 0.78583 23.8351C0.751962 23.7115 0.729951 23.5912 0.776929 23.4693C0.858555 23.2575 0.96703 23.0563 1.01635 22.8314C1.02899 22.7738 1.06878 22.7143 1.11248 22.673C1.23578 22.5564 1.31726 22.4161 1.39389 22.2667C1.43962 22.1776 1.51172 22.0857 1.596 22.0357C1.78391 21.9242 1.88036 21.7369 2.01786 21.5841C2.10558 21.2972 2.36418 21.1226 2.49372 20.8597C2.54492 20.756 2.65245 20.6559 2.75873 20.6079C3.03202 20.4842 3.24569 20.2952 3.43672 20.0738C3.51959 19.9776 3.60902 19.8924 3.72951 19.8495C3.91757 19.7825 4.03993 19.6457 4.13217 19.4782C4.2358 19.29 4.37315 19.1484 4.5801 19.0671C4.69247 19.0229 4.78487 18.9296 4.89022 18.865C4.97778 18.8114 5.06798 18.7358 5.16303 18.7256C5.40432 18.6997 5.59879 18.5819 5.77624 18.4409C6.15066 18.1436 6.57689 17.9328 6.98236 17.6876C7.05135 17.6458 7.13469 17.6098 7.21351 17.6053C7.43888 17.5924 7.60525 17.4853 7.74447 17.3191C7.90194 17.1309 8.1092 17.0424 8.34971 17.0522C8.52935 17.0595 8.68292 17.0084 8.79811 16.8801C9.01208 16.6416 9.27179 16.5634 9.58347 16.5965C9.68257 16.6069 9.80088 16.5948 9.8864 16.5486C10.2206 16.3683 10.5965 16.3374 10.9516 16.2356C11.1946 16.166 11.4275 16.0903 11.6236 15.9307C11.83 15.7627 12.0585 15.6933 12.3205 15.7412C12.5729 15.7872 12.8156 15.7414 13.0523 15.6593C13.1951 15.6096 13.3379 15.5925 13.4796 15.6416C13.7169 15.7239 13.9811 15.6301 14.2107 15.761C14.2591 15.7885 14.3362 15.7437 14.3507 15.6949C14.3566 15.6749 14.3615 15.6547 14.3658 15.6343C14.4005 15.4717 14.4342 15.3098 14.5291 15.1669C14.59 15.0749 14.5965 14.9691 14.5445 14.8706C14.4089 14.6139 14.3938 14.3567 14.5255 14.0945C14.5349 14.0759 14.5498 14.0566 14.55 14.0375C14.553 13.6845 14.7435 13.4124 14.9296 13.1357C15.0789 12.9135 15.1899 12.6603 15.3634 12.4606C15.5403 12.257 15.6347 11.9972 15.8524 11.8205C15.9568 11.7358 16.0235 11.5853 16.0687 11.4516C16.1301 11.2704 16.2195 11.1188 16.3406 10.9699C16.4954 10.7797 16.622 10.5682 16.7316 10.3411C16.8552 10.0845 17.0503 9.86056 17.2256 9.63098C17.4264 9.36815 17.6418 9.11656 17.8464 8.85654C17.9226 8.75962 17.9914 8.65568 18.053 8.54893C18.128 8.41954 18.2222 8.31357 18.3536 8.24146C18.5951 8.10927 18.7958 7.93743 18.9249 7.68693C18.9619 7.6153 19.0207 7.5496 19.0831 7.49731C19.4007 7.23137 19.6773 6.92391 19.972 6.63486C20.1947 6.41652 20.4026 6.18803 20.5293 5.89617C20.5616 5.82172 20.6059 5.73931 20.6687 5.69343C20.9343 5.49881 21.1851 5.27203 21.4866 5.14233C21.7226 5.04104 21.9302 4.93118 22.0878 4.72423C22.1484 4.64479 22.2383 4.56628 22.3307 4.53694C22.5139 4.47857 22.6647 4.37712 22.8162 4.26709C22.8818 4.21949 22.9651 4.17625 23.0435 4.16985C23.256 4.15268 23.4329 4.01986 23.635 3.99364C23.8252 3.96899 23.9927 3.88954 24.1712 3.8382C24.2725 3.80901 24.3722 3.79809 24.4781 3.81479C24.767 3.8602 25.0551 3.86473 25.3416 3.78857C25.3995 3.77328 25.4711 3.76812 25.5253 3.7881C25.7652 3.87659 26.0255 3.77983 26.2629 3.87644C26.5156 3.97929 26.7842 4.00114 27.0501 4.04484C27.3556 4.09494 27.6599 4.16907 27.9535 4.26662C28.155 4.33357 28.3487 4.39115 28.5601 4.35869C28.7725 4.32623 28.9742 4.35198 29.1624 4.46014C29.4844 4.46076 29.7483 4.65788 30.0516 4.72406C30.1294 4.74107 30.2136 4.78024 30.2702 4.83471C30.4525 5.01014 30.7188 5.03325 30.9015 5.22241C31.1296 5.45839 31.403 5.65035 31.6538 5.86479C31.7318 5.93159 31.8171 5.99965 31.8686 6.08548C31.9438 6.21081 32.0187 6.32912 32.129 6.42932C32.3254 6.60786 32.4059 6.8362 32.3831 7.10308C32.3763 7.18439 32.3839 7.26928 32.4005 7.34935C32.4123 7.40694 32.4434 7.4611 32.5216 7.46515C32.7074 7.47467 32.8929 7.49685 33.0789 7.50122C33.3058 7.50668 33.5312 7.54335 33.7606 7.48701C33.966 7.4366 34.1623 7.48655 34.3635 7.57207C34.648 7.69303 34.9629 7.74329 35.209 7.95102C35.4718 8.00861 35.7323 8.09273 35.9981 8.1152C36.2149 8.13346 36.3981 8.18825 36.5766 8.30811C36.7478 8.42298 36.9275 8.53675 37.1196 8.60573C37.3784 8.69859 37.5913 8.85077 37.8177 8.99701C38.0503 9.14715 38.2499 9.30009 38.4027 9.53576C38.5018 9.68856 38.6666 9.79438 38.8542 9.85228C39.0658 9.91768 39.2051 10.0709 39.2818 10.2752C39.366 10.4991 39.503 10.6634 39.7202 10.777C39.8236 10.831 39.9092 10.9406 39.9726 11.0436C40.0389 11.1511 40.1064 11.2513 40.2033 11.3325C40.3745 11.4759 40.4421 11.6668 40.4475 11.8843C40.4491 11.9463 40.45 12.0083 40.4513 12.0702L40.4524 12.0685ZM17.924 34.9774C17.9639 35.4274 17.9532 35.7583 18.0203 36.0851C18.0587 36.272 18.1137 36.4442 18.2158 36.6037C18.2934 36.7251 18.3927 36.8409 18.4362 36.9742C18.4988 37.1665 18.6116 37.3018 18.7799 37.3959C18.9306 37.4802 19.0454 37.5949 19.114 37.7524C19.233 38.0255 19.4287 38.2318 19.6589 38.4149C19.7542 38.4908 19.8387 38.5872 19.9069 38.6885C19.9943 38.8182 20.1071 38.8911 20.2563 38.9225C20.5997 38.9949 20.9252 39.1299 21.2663 39.211C21.4069 39.3258 21.5792 39.3296 21.7413 39.3143C22.0113 39.2889 22.2759 39.2686 22.5429 39.3421C22.6171 39.3626 22.7162 39.3515 22.7858 39.3176C22.9926 39.2171 23.2167 39.1797 23.4316 39.1105C23.6659 39.035 23.89 38.9282 24.1221 38.8454C24.3752 38.7548 24.6287 38.6603 24.889 38.5956C25.2698 38.5012 25.5468 38.2687 25.8034 37.991C25.9141 37.8713 25.947 37.7555 25.908 37.5974C25.8788 37.4793 25.8807 37.3514 25.8832 37.2283C25.8851 37.1342 25.8504 37.0725 25.7746 37.0249C25.5945 36.9118 25.456 36.7693 25.3864 36.5578C25.3335 36.3967 25.2191 36.2649 25.059 36.2006C24.8305 36.1091 24.6891 35.9455 24.5923 35.7274C24.5692 35.6754 24.5151 35.6037 24.4706 35.6003C24.2037 35.5792 24.0512 35.3384 23.8093 35.271C23.7335 35.2499 23.656 35.1961 23.6038 35.136C23.4801 34.9941 23.3459 34.8694 23.1889 34.7645C23.1234 34.7208 23.0695 34.6469 23.0331 34.5751C22.94 34.3912 22.8563 34.2038 22.7379 34.0324C22.694 33.9689 22.6795 33.8765 22.6754 33.7961C22.6703 33.6939 22.6801 33.5885 22.6999 33.4877C22.7491 33.2396 22.7366 33.0006 22.6673 32.7545C22.6296 32.6207 22.659 32.4679 22.6589 32.3237C22.6589 32.2605 22.6107 32.202 22.5556 32.1979C22.4098 32.1873 22.2675 32.1892 22.1284 32.2497C21.8798 32.3582 21.5907 32.2863 21.3449 32.4181C21.3115 32.4361 21.2625 32.4339 21.2224 32.4286C21.0329 32.4036 20.8514 32.4737 20.6676 32.4764C20.4631 32.4793 20.258 32.4333 20.0531 32.4096C20.0328 32.4072 20.0117 32.4114 19.991 32.4125C19.7495 32.4242 19.5479 32.335 19.3664 32.1801C19.289 32.1141 19.1974 32.0628 19.1068 32.0147C19.0761 31.9985 19.0184 31.9975 18.9912 32.0161C18.8379 32.1213 18.6862 32.2295 18.5433 32.3481C18.5028 32.3816 18.4747 32.4528 18.474 32.5071C18.4707 32.747 18.3928 32.9471 18.2277 33.1266C18.1472 33.214 18.1019 33.3396 18.0585 33.4546C17.9563 33.7265 17.8495 34.0134 17.8837 34.2977C17.916 34.566 17.934 34.8307 17.9244 34.9773L17.924 34.9774Z" fill="#070607"/>
<path id="Vector_3" d="M1.12788 24.2642C1.18828 24.2795 1.24806 24.3012 1.3094 24.3088C1.63341 24.3489 1.89123 24.2305 2.03404 23.9389C2.19807 23.6043 2.37756 23.2842 2.59731 22.9814C2.72856 22.8005 2.78147 22.5663 2.95159 22.4033C3.13091 22.2317 3.29542 22.043 3.48567 21.8847C3.61708 21.7753 3.73928 21.6645 3.79828 21.5059C3.86836 21.3177 3.99759 21.1867 4.16911 21.1057C4.30474 21.0418 4.42694 20.9692 4.51137 20.8467C4.63483 20.6673 4.80136 20.5486 5.00706 20.4907C5.13161 20.4557 5.23929 20.3989 5.32919 20.3103C5.43282 20.208 5.53896 20.1183 5.6749 20.0532C5.78181 20.002 5.87888 19.9068 5.94942 19.8089C6.06476 19.6488 6.21365 19.5382 6.39236 19.4817C6.5553 19.4303 6.69014 19.3462 6.82796 19.2508C6.98028 19.1456 7.14416 19.039 7.31896 18.9893C7.52513 18.9304 7.69649 18.8332 7.86958 18.7141C7.98492 18.6347 8.13319 18.5838 8.27303 18.5632C8.55224 18.5221 8.79446 18.4302 8.97114 18.2006C9.0267 18.1284 9.10957 18.1156 9.19292 18.107C9.21352 18.1048 9.23475 18.1048 9.25519 18.1075C9.56796 18.1479 9.82923 18.0534 10.0326 17.8098C10.1066 17.7213 10.2013 17.6974 10.3102 17.7085C10.3722 17.7148 10.4342 17.7244 10.4964 17.726C10.645 17.7301 10.7827 17.699 10.9088 17.6114C11.1337 17.4552 11.3864 17.373 11.6585 17.3413C11.7812 17.3269 11.9017 17.2636 12.022 17.2668C12.3337 17.2753 12.5875 17.1729 12.8029 16.9495C12.8795 16.8701 12.985 16.8748 13.0941 16.9008C13.1929 16.9244 13.3106 16.9536 13.3986 16.9216C13.6418 16.8333 13.8932 16.8944 14.1363 16.8495C14.1829 16.8409 14.2445 16.9327 14.2311 16.9859C14.2058 17.0864 14.1799 17.1868 14.1499 17.2859C14.119 17.3878 14.1097 17.4892 14.1382 17.5926C14.266 18.0544 14.2673 18.532 14.2924 19.0034C14.3222 19.5611 14.2904 20.1212 14.3502 20.6792C14.3653 20.8209 14.3274 20.9679 14.316 21.1128C14.303 21.2776 14.3204 21.4508 14.2737 21.605C14.2217 21.7764 14.0156 21.7946 13.8841 21.8902C13.7619 21.979 13.6624 22.0953 13.6352 22.2382C13.5921 22.465 13.4716 22.664 13.4239 22.8833C13.3796 23.0868 13.3179 23.283 13.26 23.4816C13.2377 23.5583 13.2432 23.6452 13.2475 23.7268C13.2521 23.8086 13.3007 23.899 13.2784 23.969C13.1959 24.2288 13.2797 24.4532 13.3675 24.692C13.4453 24.9028 13.4484 25.1396 13.5693 25.3394C13.5615 25.6023 13.7329 25.8051 13.8058 26.0412C13.8788 26.2778 13.9483 26.5165 14.0405 26.7456C14.1097 26.9171 14.2042 27.078 14.2673 27.2544C14.3009 27.3482 14.3672 27.4392 14.4407 27.508C14.5485 27.609 14.6281 27.724 14.7073 27.8476C14.9965 28.2991 15.3461 28.7107 15.5958 29.1892C15.6858 29.3618 15.8627 29.4434 16.0103 29.5554C16.0322 29.5719 16.0292 29.6229 16.0328 29.6587C16.0331 29.6615 15.9952 29.6722 15.9749 29.6726C15.8304 29.6741 15.6871 29.6858 15.5488 29.6156C15.3965 29.5383 15.2265 29.5199 15.0622 29.5585C14.78 29.6246 14.4767 29.5435 14.2071 29.6864C14.0413 29.6877 13.8702 29.7156 13.7114 29.6835C13.4972 29.6401 13.2992 29.6507 13.1022 29.7344C12.9227 29.8105 12.7456 29.8342 12.5613 29.7457C12.507 29.7197 12.4408 29.7133 12.3793 29.7091C12.3176 29.7047 12.246 29.6957 12.1943 29.7208C11.905 29.8609 11.5729 29.7039 11.2843 29.8658C11.0948 29.9721 10.8904 29.9661 10.6826 29.8839C10.5904 29.8474 10.4626 29.8179 10.3806 29.8533C10.1063 29.9721 9.80488 29.9104 9.52707 30.0125C9.37833 30.0671 9.19557 30.0749 9.03794 30.0478C8.84847 30.015 8.67444 30.0108 8.48638 30.0562C8.30674 30.0996 8.10728 30.1417 7.93232 30.1066C7.58475 30.0368 7.27979 30.1405 6.96671 30.2478C6.82702 30.2957 6.68578 30.3104 6.54047 30.2552C6.39673 30.2004 6.25252 30.224 6.11689 30.2889C5.83034 30.4259 5.53489 30.498 5.21276 30.4607C5.11522 30.4495 5.0094 30.4868 4.91077 30.5143C4.75111 30.5586 4.59518 30.6162 4.43599 30.6625C4.16895 30.7404 4.01678 30.9202 3.96434 31.1875C3.94842 31.2687 3.94624 31.3525 3.93781 31.4352C3.5907 31.4263 3.30697 31.2562 3.03087 31.0719C2.96283 31.0265 2.91585 30.9488 2.84686 30.906C2.59933 30.7524 2.46012 30.5388 2.44748 30.245C2.44576 30.2044 2.43905 30.1595 2.41954 30.125C2.25051 29.8255 2.22132 29.4985 2.22101 29.1642C2.22101 29.0383 2.19589 28.9155 2.11941 28.8117C2.00314 28.6539 1.96599 28.4777 1.97067 28.2846C1.97785 27.9907 1.91574 27.7134 1.78916 27.4434C1.70223 27.258 1.65182 27.0535 1.60156 26.8533C1.57082 26.7312 1.54132 26.6135 1.46375 26.5118C1.38634 26.4103 1.34998 26.2942 1.33874 26.1665C1.30752 25.8135 1.22574 25.4758 1.03705 25.1689C0.969003 25.0583 0.970716 24.9306 0.998497 24.8065C1.03923 24.625 1.08497 24.4446 1.12867 24.2637L1.12788 24.2642Z" fill="#FCFCFC"/>
<path id="Vector_4" d="M13.9685 9.19729C13.9776 9.55891 13.7642 9.85311 13.4087 9.91444C13.0218 9.98124 12.6349 10.0474 12.2492 10.1211C12.169 10.1364 12.0835 10.1365 12.0018 10.1287C11.8163 10.1108 11.6299 10.093 11.4472 10.0579C11.2148 10.0132 11.0142 9.90585 10.9008 9.68517C10.824 9.53596 10.7328 9.40221 10.6084 9.28718C10.5499 9.23303 10.5028 9.15468 10.4778 9.07836C10.4319 8.93758 10.36 8.81834 10.2707 8.70066C10.1977 8.60421 10.1323 8.48451 10.1145 8.36745C10.0703 8.077 9.95886 7.81261 9.84774 7.54635C9.7747 7.37155 9.72007 7.19426 9.77329 7.00229C9.82136 6.82874 9.72662 6.67844 9.69244 6.51847C9.68464 6.48211 9.65233 6.43824 9.61956 6.42201C9.43368 6.33024 9.31022 6.15185 9.10421 6.081C8.90022 6.01092 8.7774 5.84438 8.69655 5.63852C8.59105 5.36976 8.4189 5.13411 8.28249 4.88034C8.24363 4.80807 8.18213 4.72706 8.18853 4.65511C8.21787 4.32611 8.04979 4.0043 8.16232 3.67233C8.1876 3.59788 8.17105 3.5086 8.17059 3.4262C8.16747 2.89305 8.35756 2.41533 8.6079 1.96006C8.68609 1.81804 8.81891 1.70675 8.91989 1.57612C9.05879 1.39632 9.18506 1.20654 9.32771 1.02986C9.51749 0.794818 9.84618 0.692749 10.1117 0.782022C10.4388 0.892053 10.6334 1.12585 10.6642 1.46594C10.6879 1.72829 10.5755 1.95132 10.364 2.11629C10.3314 2.14173 10.2932 2.15968 10.259 2.18324C10.1396 2.26534 9.94497 2.22695 9.87614 2.36757C9.76595 2.59263 9.59849 2.7796 9.48971 3.00169C9.44617 3.09065 9.4329 3.20318 9.43508 3.30431C9.44398 3.71759 9.46177 4.13072 9.48191 4.54353C9.48877 4.68275 9.5899 4.75891 9.70087 4.82399C9.74613 4.85052 9.84977 4.836 9.8646 4.7948C9.92734 4.62 10.009 4.44848 10.0449 4.26806C10.0978 4.00211 10.2279 3.79922 10.47 3.69169C10.7057 3.58712 10.8742 3.4092 11.0506 3.23643C11.1094 3.17868 11.1502 3.10189 11.2113 3.04742C11.3381 2.93442 11.4849 2.86466 11.6616 2.8645C11.8892 2.8645 12.1169 2.85654 12.3446 2.85233C12.5189 2.84905 12.6769 2.90274 12.7984 3.02448C12.9308 3.15683 13.0602 3.28698 13.2264 3.37985C13.2955 3.41855 13.3648 3.48473 13.3976 3.55528C13.4781 3.72914 13.6136 3.85743 13.7257 4.00554C13.7744 4.06984 13.8159 4.14897 13.8312 4.22716C13.8674 4.41195 13.9217 4.58706 14.0058 4.75671C14.1056 4.95773 14.0895 5.16859 13.9648 5.35026C13.8362 5.5377 13.7207 5.73185 13.5999 5.92335C13.5019 6.0788 13.3617 6.20834 13.2359 6.34537C13.0894 6.50472 12.9082 6.59697 12.6887 6.60306C12.6058 6.6054 12.5216 6.5926 12.4401 6.60368C12.3593 6.61461 12.2672 6.62756 12.2047 6.67329C11.9472 6.86245 11.6718 6.9859 11.3454 6.97981C11.3209 6.97934 11.2797 7.03038 11.2728 7.06315C11.243 7.20502 11.2216 7.34862 11.2 7.49205C11.187 7.57773 11.204 7.6606 11.2664 7.72163C11.4442 7.89549 11.5264 8.14114 11.7307 8.3008C11.8381 8.38477 11.882 8.54569 11.9699 8.66009C12.0477 8.76169 12.1664 8.8388 12.2934 8.79322C12.5263 8.70972 12.778 8.70894 13.0016 8.57082C13.3781 8.33827 13.976 8.69645 13.9687 9.19666L13.9685 9.19729ZM11.7114 5.47216C11.8862 5.50743 12.0451 5.44173 12.182 5.2894C12.2804 5.17984 12.4257 5.14003 12.5584 5.08291C12.5842 5.07183 12.6091 5.01377 12.6032 4.98349C12.5916 4.92465 12.5587 4.86988 12.5333 4.81416C12.5077 4.75797 12.464 4.7046 12.4565 4.64638C12.4278 4.42086 12.2747 4.33782 12.0805 4.28897C11.8519 4.23153 11.6554 4.30723 11.5783 4.52355C11.4984 4.74751 11.3768 4.92653 11.1826 5.06325C11.1168 5.1096 11.0628 5.17811 11.0164 5.24554C10.9827 5.29454 10.9672 5.35729 10.9499 5.41581C10.927 5.49276 11.0166 5.60044 11.0834 5.57329C11.2769 5.49478 11.4723 5.43532 11.7112 5.47199L11.7114 5.47216Z" fill="#12C0B5"/>
<path id="Vector_5" d="M42.2008 14.333C42.1228 14.355 42.0346 14.3611 41.9692 14.4029C41.8844 14.4571 41.8247 14.5493 41.7421 14.6086C41.41 14.8471 40.9262 14.7578 40.7077 14.4201C40.4581 14.0341 40.598 13.5573 40.9717 13.3561C41.0798 13.2981 41.2015 13.2658 41.3173 13.2216C41.7194 13.1102 42.0529 12.9282 42.3177 12.6757C42.527 12.4779 42.7463 12.291 42.9554 12.0929C43.0296 12.0227 43.0814 11.9295 43.1527 11.8558C43.3175 11.6852 43.4357 11.5 43.393 11.2479C43.3863 11.2078 43.3913 11.1651 43.3954 11.124C43.4366 10.7093 43.8126 10.4229 44.2305 10.4871C44.6332 10.5489 44.8963 10.9636 44.7907 11.3726C44.7752 11.4324 44.7599 11.4948 44.73 11.5476C44.5655 11.8369 44.4362 12.1361 44.3921 12.4715C44.3796 12.5663 44.3154 12.6674 44.2469 12.7386C44.1306 12.8592 44.0272 12.9813 43.9607 13.1378C43.9295 13.211 43.8722 13.2833 43.8079 13.3302C43.659 13.4392 43.492 13.5235 43.3451 13.6349C43.2111 13.7365 43.0701 13.807 42.9109 13.8639C42.6397 13.9606 42.373 14.0796 42.2008 14.3332V14.333Z" fill="#070607"/>
<path id="Vector_6" d="M43.6885 16.5453C43.207 16.6365 43.1794 16.6449 42.5367 16.9413C42.323 17.0398 42.1093 17.075 41.8816 16.9867C41.5877 16.8728 41.3922 16.5897 41.3966 16.2691C41.4009 15.9493 41.6001 15.652 41.908 15.5747C42.2821 15.4809 42.6439 15.3292 43.0364 15.313C43.3601 15.2309 43.6953 15.2222 44.0209 15.2346C44.6851 15.2601 45.3453 15.2107 46.0071 15.1901C46.0692 15.1883 46.1315 15.1802 46.1934 15.1827C46.4151 15.1916 46.5944 15.2885 46.7258 15.4641C46.9958 15.8244 46.8922 16.3114 46.4975 16.5378C46.3058 16.6477 46.0921 16.6561 45.8942 16.5839C45.6748 16.5038 45.4483 16.4831 45.2239 16.4601C44.729 16.4099 44.2338 16.4404 43.7418 16.5141C43.7228 16.5169 43.7061 16.5346 43.6883 16.5452L43.6885 16.5453Z" fill="#070607"/>
<path id="Vector_7" d="M35.3056 27.9562C35.2472 27.9771 35.1901 28.0034 35.1302 28.0184C34.7264 28.1189 34.3692 27.8695 34.332 27.4634C34.311 27.2336 34.4625 26.9592 34.7033 26.8695C34.8795 26.8036 35.0487 26.7329 35.2003 26.624C35.2664 26.5764 35.3209 26.5124 35.3813 26.4565C35.4194 26.4214 35.4167 26.319 35.3691 26.2933C35.0696 26.1313 34.9003 25.8351 34.667 25.6059C34.4655 25.4082 34.4669 25.0291 34.6398 24.7997C34.7636 24.6355 34.8953 24.4803 34.9883 24.2931C35.0645 24.1398 35.2129 24.0532 35.3709 23.9917C35.4089 23.9769 35.4508 23.9709 35.4913 23.963C35.8673 23.8879 36.1777 23.6889 36.457 23.4386C36.618 23.2942 36.792 23.1981 37.0129 23.2026C37.0336 23.2031 37.0544 23.2026 37.075 23.201C37.24 23.1874 37.3879 23.0556 37.5552 23.1013C37.7932 23.1662 38.0286 23.2478 38.2555 23.3446C38.4389 23.4228 38.556 23.584 38.5518 23.784C38.5452 24.0919 38.5131 24.4008 38.4225 24.6976C38.3994 24.7731 38.3504 24.8526 38.2905 24.903C38.0397 25.1137 37.8727 25.419 37.554 25.5538C37.5198 25.5683 37.4945 25.6114 37.4735 25.6464C37.4532 25.6801 37.4324 25.721 37.4343 25.7575C37.4352 25.7761 37.4847 25.8048 37.5137 25.807C37.6375 25.816 37.7588 25.8116 37.8791 25.7631C38.059 25.6902 38.2437 25.6927 38.4213 25.7787C38.539 25.8357 38.6641 25.8148 38.787 25.8246C39.1107 25.8505 39.3145 26.0325 39.3827 26.3562C39.3995 26.4361 39.3911 26.5211 39.3942 26.6036C39.3682 26.6346 39.3356 26.6624 39.3168 26.6977C39.179 26.9591 38.9732 27.0749 38.6698 27.0618C38.4907 27.0541 38.3088 27.1375 38.1282 27.1378C37.9474 27.1381 37.7672 27.0777 37.5852 27.0612C37.5064 27.054 37.4262 27.0933 37.3976 27.186L37.3928 27.1905C37.1725 27.2269 36.9592 27.3149 36.7265 27.2561C36.685 27.2456 36.6243 27.311 36.5725 27.3413C36.5339 27.3496 36.5119 27.3733 36.5066 27.4123C36.4075 27.4301 36.36 27.5066 36.3126 27.5831C36.3126 27.5831 36.2758 27.6004 36.2759 27.6004C35.9845 27.6438 35.7092 27.7457 35.4325 27.8401C35.3827 27.8571 35.3473 27.9163 35.3053 27.9561L35.3056 27.9562Z" fill="#070607"/>
<path id="Vector_8" d="M32.6524 18.4494C32.6524 18.5532 32.6608 18.6578 32.6497 18.7603C32.641 18.8408 32.6218 18.9264 32.5831 18.9963C32.4827 19.1773 32.368 19.3496 32.2797 19.5385C32.2463 19.6098 32.1832 19.6839 32.1144 19.7192C31.8542 19.8528 31.6802 20.106 31.4055 20.2185C31.3513 20.2407 31.305 20.2907 31.2647 20.3366C31.0873 20.5389 30.8661 20.6193 30.5989 20.6104C30.4773 20.6063 30.3547 20.6438 30.2323 20.6602C29.952 20.6979 29.6703 20.5668 29.5457 20.3319C29.468 20.1852 29.3906 20.0364 29.3352 19.8804C29.2284 19.5802 29.2851 19.3066 29.5142 19.0781C29.6311 18.9613 29.7511 18.8476 29.874 18.7371C29.9829 18.639 30.08 18.5362 30.1466 18.4013C30.2774 18.1373 30.5014 17.9946 30.7921 17.9823C31.0117 17.9729 31.2003 17.9227 31.342 17.743C31.3799 17.695 31.4313 17.6555 31.4823 17.6203C31.9318 17.311 32.4159 17.5498 32.601 17.9011C32.6386 17.9726 32.6597 18.0575 32.6687 18.1384C32.6801 18.2407 32.6716 18.3453 32.6716 18.4489H32.6527L32.6524 18.4494Z" fill="#070607"/>
<path id="Vector_9" d="M37.3975 27.186C37.426 27.0933 37.5064 27.0539 37.5851 27.0611C37.767 27.0777 37.9471 27.1381 38.128 27.1378C38.3088 27.1373 38.4906 27.0539 38.6696 27.0617C38.973 27.0749 39.1789 26.9591 39.3167 26.6976C39.3352 26.6624 39.3679 26.6344 39.3941 26.6035C39.4323 26.657 39.4706 26.7103 39.5085 26.7641C39.4816 26.8801 39.3805 26.9163 39.2925 26.9628C39.078 27.076 38.8725 27.203 38.6773 27.3453C38.6257 27.2846 38.5861 27.1967 38.4912 27.2077C38.2267 27.2383 37.9651 27.2319 37.702 27.1899C37.6028 27.1741 37.4991 27.1866 37.3975 27.1861V27.186Z" fill="#A5B7FF"/>
<path id="Vector_10" d="M35.3057 27.9562C35.3476 27.9164 35.3831 27.8573 35.4329 27.8403C35.7096 27.7458 35.9849 27.6439 36.2763 27.6006C36.2524 27.6307 36.2344 27.6777 36.2039 27.6884C35.9086 27.7913 35.6231 27.9281 35.3057 27.9564V27.9562Z" fill="#A5B7FF"/>
<path id="Vector_11" d="M36.5723 27.3413C36.6241 27.311 36.6848 27.2456 36.7263 27.2561C36.9592 27.3149 37.1725 27.2269 37.3926 27.1906C37.3247 27.2996 37.2204 27.3493 37.0979 27.351C36.9228 27.3535 36.7475 27.3451 36.5723 27.3413Z" fill="#A5B7FF"/>
<path id="Vector_12" d="M39.6531 26.6115C39.6613 26.6619 39.6453 26.6889 39.59 26.6765C39.5807 26.6332 39.6018 26.6115 39.6531 26.6115Z" fill="#A5B7FF"/>
<path id="Vector_13" d="M36.3135 27.5838C36.3611 27.5071 36.4087 27.4303 36.5081 27.4125C36.491 27.524 36.4308 27.5861 36.3135 27.5838Z" fill="#A5B7FF"/>
<path id="Vector_14" d="M17.9242 34.9773C17.9337 34.8309 17.9158 34.5662 17.8835 34.2978C17.8493 34.0134 17.956 33.7265 18.0582 33.4547C18.1015 33.3396 18.1469 33.214 18.2274 33.1266C18.3926 32.9473 18.4704 32.7472 18.4737 32.5071C18.4745 32.4528 18.5026 32.3817 18.543 32.3481C18.686 32.2296 18.8377 32.1213 18.9909 32.0161C19.0181 31.9976 19.076 31.9983 19.1066 32.0147C19.1971 32.0626 19.2887 32.114 19.3661 32.1802C19.5477 32.335 19.7493 32.4243 19.9907 32.4126C20.0115 32.4116 20.0326 32.4073 20.0529 32.4096C20.2578 32.4333 20.4629 32.4792 20.6673 32.4764C20.8512 32.4737 21.0327 32.4037 21.2222 32.4286C21.2623 32.4339 21.3114 32.4361 21.3447 32.4182C21.5905 32.2861 21.8795 32.3581 22.1282 32.2498C22.2674 32.1891 22.4096 32.1872 22.5553 32.198C22.6106 32.202 22.6586 32.2605 22.6586 32.3238C22.6586 32.468 22.6293 32.6208 22.6671 32.7545C22.7365 33.0006 22.7489 33.2394 22.6997 33.4877C22.6797 33.5884 22.67 33.6938 22.6752 33.7961C22.6792 33.8765 22.6938 33.9689 22.7376 34.0324C22.8561 34.2038 22.9397 34.3912 23.0329 34.5751C23.0693 34.6469 23.1233 34.7209 23.1887 34.7646C23.3457 34.8694 23.4799 34.9941 23.6035 35.136C23.6558 35.1961 23.7332 35.25 23.8091 35.271C24.051 35.3384 24.2034 35.5793 24.4703 35.6003C24.5148 35.6038 24.5691 35.6754 24.5921 35.7274C24.6888 35.9454 24.8302 36.1091 25.0587 36.2006C25.219 36.2647 25.3333 36.3966 25.3862 36.5578C25.4558 36.7695 25.5942 36.9118 25.7743 37.025C25.85 37.0726 25.8848 37.1342 25.8829 37.2283C25.8804 37.3515 25.8786 37.4793 25.9078 37.5974C25.9468 37.7557 25.9138 37.8713 25.8032 37.9911C25.5466 38.2689 25.2696 38.5014 24.8888 38.5957C24.6284 38.6603 24.375 38.7549 24.1218 38.8454C23.8897 38.9284 23.6656 39.0352 23.4314 39.1106C23.2163 39.1798 22.9922 39.2172 22.7855 39.3177C22.7159 39.3515 22.6168 39.3625 22.5427 39.3422C22.2756 39.2687 22.0111 39.2889 21.7411 39.3144C21.5789 39.3297 21.4066 39.3258 21.266 39.2111C20.925 39.1299 20.5994 38.9948 20.2561 38.9225C20.1069 38.8911 19.9939 38.8182 19.9066 38.6885C19.8384 38.5872 19.754 38.4908 19.6586 38.4149C19.4284 38.232 19.2327 38.0257 19.1138 37.7524C19.0453 37.5949 18.9304 37.4804 18.7796 37.3959C18.6114 37.3018 18.4985 37.1665 18.4359 36.9742C18.3926 36.841 18.2931 36.7253 18.2156 36.6037C18.1137 36.4442 18.0586 36.2721 18.02 36.0851C17.9529 35.7583 17.9637 35.4274 17.9237 34.9774L17.9242 34.9773ZM19.8356 35.1732C19.8356 35.2067 19.8415 35.2489 19.8347 35.2888C19.7978 35.5011 19.8319 35.6971 19.9366 35.888C19.9851 35.9765 19.9964 36.0849 20.0296 36.1825C20.0561 36.2602 20.0716 36.3531 20.1242 36.4086C20.3603 36.6579 20.4491 37.0485 20.8338 37.1553C20.9361 37.2573 21.0413 37.3566 21.1396 37.4626C21.1955 37.5228 21.2323 37.6013 21.2907 37.6585C21.505 37.8681 21.7615 37.9036 22.0389 37.8164C22.2861 37.7387 22.4815 37.4833 22.4895 37.2035C22.4976 36.9141 22.3883 36.6754 22.1166 36.5397C22.0251 36.4942 21.9185 36.4787 21.8272 36.4327C21.7372 36.3872 21.6459 36.3321 21.5766 36.2605C21.4767 36.1573 21.3865 36.0414 21.3102 35.9197C21.2456 35.8166 21.1791 35.7013 21.1625 35.5846C21.1371 35.4046 21.0675 35.2244 21.1358 35.0339C21.1621 34.9611 21.1569 34.8666 21.1369 34.7895C21.0676 34.5223 21.0806 34.2647 21.1452 33.9953C21.2168 33.6964 21.0235 33.3899 20.7522 33.3054C20.4415 33.2085 20.1632 33.3148 20.0048 33.5856C19.9386 33.6989 19.9233 33.821 19.9371 33.945C19.9602 34.1537 19.9637 34.3655 19.8887 34.5582C19.8097 34.7611 19.7913 34.9576 19.8356 35.1733V35.1732Z" fill="#FF8CBD"/>
<path id="Vector_15" d="M19.8361 35.1732C19.7918 34.9576 19.8102 34.761 19.8891 34.5581C19.9642 34.3653 19.9605 34.1534 19.9375 33.9449C19.9238 33.8206 19.9391 33.6986 20.0053 33.5854C20.1635 33.3147 20.4418 33.2085 20.7527 33.3053C21.0238 33.3899 21.2173 33.6964 21.1457 33.9951C21.0812 34.2644 21.0681 34.5222 21.1374 34.7894C21.1574 34.8665 21.1624 34.9609 21.1363 35.0338C21.068 35.2242 21.1374 35.4045 21.163 35.5844C21.1795 35.7012 21.246 35.8165 21.3106 35.9195C21.387 36.0412 21.4772 36.1572 21.5771 36.2604C21.6464 36.332 21.7377 36.3871 21.8277 36.4325C21.9189 36.4786 22.0256 36.4939 22.1171 36.5396C22.389 36.6751 22.4982 36.914 22.4899 37.2033C22.482 37.4832 22.2866 37.7385 22.0394 37.8163C21.762 37.9035 21.5054 37.8678 21.2911 37.6583C21.2328 37.6012 21.1959 37.5227 21.1401 37.4624C21.0419 37.3566 20.9367 37.2572 20.8343 37.1551C20.4494 37.0484 20.3608 36.6577 20.1247 36.4085C20.0721 36.3529 20.0565 36.26 20.0301 36.1823C19.9968 36.0846 19.9856 35.9763 19.9371 35.8878C19.8323 35.6971 19.7983 35.5009 19.8351 35.2887C19.842 35.2487 19.8361 35.2066 19.8361 35.173V35.1732Z" fill="#070607"/>
</g>
</svg>
