<svg width="79" height="59" viewBox="0 0 79 59" fill="none" xmlns="http://www.w3.org/2000/svg">
<path d="M27.5173 14.4233C27.3887 13.2654 25.9128 12.3608 25.6526 11.1898C25.4938 10.4752 24.2589 8.30386 23.6509 7.95642C22.3921 7.23708 21.5317 6.18577 20.1267 5.5613C18.6209 4.89209 16.095 4.53745 14.5837 5.25335C7.28482 8.7107 3.84588 16.455 1.71841 23.9011C1.46383 24.7922 0.725708 28.5263 1.18806 29.3586C1.6557 30.2003 2.02948 32.0672 2.24876 33.0539C2.88526 35.9182 5.27065 36.3263 7.80887 35.124C9.47387 34.3353 10.9304 33.7817 12.2741 32.438C13.3647 31.3474 14.3852 30.0779 15.5246 29.0335C16.6575 27.9951 17.4768 26.7905 18.5185 25.7488C19.2171 25.0502 20.4294 23.3694 20.7426 22.4298" stroke="#33333A" stroke-width="1.5" stroke-linecap="round"/>
<path d="M51.0002 14.4233C51.1289 13.2654 52.6048 12.3608 52.865 11.1898C53.0238 10.4752 54.2586 8.30386 54.8667 7.95642C56.1255 7.23708 56.9859 6.18577 58.3909 5.5613C59.8966 4.89209 62.4226 4.53745 63.9339 5.25335C71.2328 8.7107 74.6717 16.455 76.7992 23.9011C77.0538 24.7922 77.7919 28.5263 77.3295 29.3586C76.8619 30.2003 76.4881 32.0672 76.2688 33.0539C75.6323 35.9182 73.2469 36.3263 70.7087 35.124C69.0437 34.3353 67.5872 33.7817 66.2435 32.438C65.1528 31.3474 64.1323 30.0779 62.993 29.0335C61.8601 27.9951 61.0408 26.7905 59.9991 25.7488C59.3005 25.0502 58.0882 23.3694 57.775 22.4298" stroke="#33333A" stroke-width="1.5" stroke-linecap="round"/>
<path d="M14.5 30.5C14.5 31.3198 14.6261 33.3854 14.6714 34.1998C14.7047 34.7997 15.1066 35.3942 15.1275 35.9989C15.1483 36.6039 15.2264 37.7074 15.5266 38.2477C15.8088 38.7557 15.6554 39.5176 15.8686 40.0721C16.1427 40.7847 16.1913 41.6931 16.5464 42.3526C16.8662 42.9465 16.8607 43.8007 17.351 44.291C17.664 44.6041 17.7266 45.11 17.9781 45.4693C18.2304 45.8297 18.5577 46.1065 18.7509 46.5145C19.0412 47.1272 19.6039 47.5526 19.8278 48.1995C19.9908 48.6703 20.6386 49.2204 21.0188 49.5298C21.7411 50.1178 22.3057 51.1106 23.1092 51.5569C23.4394 51.7404 23.6757 52.1162 23.9961 52.3298C24.394 52.5951 24.8351 52.7615 25.2694 52.9569C26.2869 53.4148 27.3693 53.9129 28.4747 54.0972C29.1165 54.2041 30.3182 54.3705 30.8883 54.7243C31.6106 55.1727 32.6666 55.4084 33.5108 55.4084C34.547 55.4084 35.583 55.7505 36.6148 55.7505C38.6744 55.7505 40.8831 56.1743 42.9369 55.8075C43.7184 55.668 44.3906 55.6065 45.116 55.2437C45.4658 55.0689 45.8528 54.9771 46.2436 54.8953C47.3374 54.6664 48.2151 54.5515 49.2463 54.1415C50.3585 53.6993 51.4127 53.0197 52.553 52.6718C53.3582 52.4262 54.1936 51.9203 54.7195 51.2529C55.2216 50.6156 55.826 50.1412 56.4045 49.5932C57.0498 48.9818 57.5178 47.9808 57.9375 47.2177C58.7676 45.7084 60.0411 44.43 60.6804 42.796C60.8579 42.3424 61.0139 41.8682 61.2442 41.4404C61.511 40.9449 61.4826 40.4459 61.599 39.9137C61.7182 39.3685 61.9917 38.8217 61.9917 38.254C61.9917 37.8189 61.8364 37.4288 61.903 36.9871C62.08 35.8146 62.5283 34.6259 62.5619 33.4523C62.5837 32.6879 63 30.2918 63 29.5" stroke="#33333A" stroke-width="1.5" stroke-linecap="round"/>
<path d="M33.5658 37C33.2816 37 33.0125 36.9717 32.7518 36.8219C32.6465 36.7614 32.5438 36.6952 32.4373 36.6381C32.4003 36.6182 32.3443 36.6045 32.3192 36.5618C32.2453 36.4357 32.136 36.3391 32.0513 36.2211C31.9079 36.0212 31.7871 35.8303 31.68 35.599C31.4309 35.0608 31.0775 34.4803 31.0272 33.8418C30.9779 33.2151 30.9911 32.627 31.1044 32.0111C31.1939 31.5249 31.2725 31.0257 31.4076 30.5564C31.5057 30.2156 31.6219 29.9544 31.8288 29.6968C31.9773 29.5119 32.1402 29.4107 32.3317 29.3052C32.4904 29.2178 32.6304 29.0964 32.7892 29.0154C32.8483 28.9854 32.9597 29.0079 33.0209 29.0112C33.2746 29.0249 33.5242 29.0815 33.7793 29.0861C34.1576 29.093 34.5615 29.1539 34.8941 29.3929C35.0165 29.4808 35.093 29.5764 35.1689 29.7195C35.292 29.9516 35.4428 30.1412 35.5549 30.3867C35.699 30.7023 35.7769 31.0598 35.8433 31.4102C35.9153 31.7904 35.9842 32.1877 35.9965 32.5794C36.0154 33.1784 35.9537 33.75 35.8944 34.3408C35.839 34.8921 35.6741 35.6561 35.321 36.0443C34.9664 36.4343 34.4663 36.5816 34.0347 36.7851C33.8996 36.8488 33.7675 36.9198 33.6317 36.9802C33.5586 37.0127 33.5147 36.9714 33.4432 36.9491" stroke="#33333A" stroke-width="1.5" stroke-linecap="round"/>
<path d="M45.5658 37C45.2816 37 45.0125 36.9717 44.7518 36.8219C44.6465 36.7614 44.5438 36.6952 44.4373 36.6381C44.4003 36.6182 44.3443 36.6045 44.3192 36.5618C44.2453 36.4357 44.136 36.3391 44.0513 36.2211C43.9079 36.0212 43.7871 35.8303 43.68 35.599C43.4309 35.0608 43.0775 34.4803 43.0272 33.8418C42.9779 33.2151 42.9911 32.627 43.1044 32.0111C43.1939 31.5249 43.2725 31.0257 43.4076 30.5564C43.5057 30.2156 43.6219 29.9544 43.8288 29.6968C43.9773 29.5119 44.1402 29.4107 44.3317 29.3052C44.4904 29.2178 44.6304 29.0964 44.7892 29.0154C44.8483 28.9854 44.9597 29.0079 45.0209 29.0112C45.2746 29.0249 45.5242 29.0815 45.7793 29.0861C46.1576 29.093 46.5615 29.1539 46.8941 29.3929C47.0165 29.4808 47.093 29.5764 47.1689 29.7195C47.292 29.9516 47.4428 30.1412 47.5549 30.3867C47.699 30.7023 47.7769 31.0598 47.8433 31.4102C47.9153 31.7904 47.9842 32.1877 47.9965 32.5794C48.0154 33.1784 47.9537 33.75 47.8944 34.3408C47.839 34.8921 47.6741 35.6561 47.321 36.0443C46.9664 36.4343 46.4663 36.5816 46.0347 36.7851C45.8996 36.8488 45.7675 36.9198 45.6317 36.9802C45.5586 37.0127 45.5147 36.9714 45.4432 36.9491" stroke="#33333A" stroke-width="1.5" stroke-linecap="round"/>
<path d="M38.9557 51.2387C38.6791 51.1281 38.3603 51.1198 38.1056 50.9577C37.9686 50.8705 37.7596 50.836 37.6033 50.7891C37.2876 50.6944 36.9852 50.7825 36.7426 50.5256C36.5545 50.3264 36.2738 50.1771 36.0401 50.0303C35.9244 49.9577 35.8434 49.8535 35.7415 49.7651C35.5325 49.584 35.3161 49.4547 35.0741 49.3173C34.7677 49.1432 34.5536 48.8349 34.3329 48.569C34.19 48.3969 34.1043 48.2141 34.087 47.9894C34.0776 47.8676 34.0514 47.6813 34.0168 47.5644C33.9731 47.4171 34.0249 47.2899 34.0572 47.1446C34.0892 47.0005 34.3193 46.8225 34.4541 46.7811C34.8907 46.6467 35.3391 46.5681 35.7907 46.5106C36.3393 46.4408 36.895 46.4174 37.4417 46.3314C37.7739 46.2792 38.1446 46.1804 38.4797 46.1804C39.2026 46.1804 39.9194 45.9544 40.6505 46.0241C41.0382 46.061 41.4236 46.1593 41.8115 46.205C42.3029 46.2628 42.7937 46.3258 43.2851 46.3841C43.4893 46.4083 43.5504 46.4477 43.7049 46.5984C44.015 46.9009 44.3267 47.0657 44.2265 47.5416C44.1017 48.1342 43.5777 48.634 43.185 49.0643C42.8227 49.4614 42.4472 49.8372 42.0679 50.2165C41.9479 50.3365 41.847 50.4707 41.7026 50.5643C41.39 50.7669 41.0384 50.9091 40.712 51.0877C40.4004 51.2582 40.13 51.485 39.8233 51.6602C39.6854 51.739 39.5354 51.7926 39.3983 51.871" stroke="#33333A" stroke-width="2" stroke-linecap="round"/>
<path d="M34.0859 47.5L39.5859 52L44.0859 47.5L39.5859 46L34.0859 47.5Z" fill="#33333A"/>
<path d="M39.3669 49.4053C39.0828 50.7408 39.1022 52.079 39.1755 53.4344C39.2038 53.9585 39.3353 55.526 39.3353 55.0011" stroke="#33333A" stroke-width="1.5" stroke-linecap="round"/>
<path d="M35.3477 6.19531C36.4706 7.45862 38.1182 9.45185 38.1182 11.2515C38.1182 11.6492 38.3491 13.6987 38.1182 13.8142" stroke="#33333A" stroke-width="1.5" stroke-linecap="round"/>
<path d="M40.75 14.0904C40.75 12.2569 41.3029 10.7695 41.8582 9.10352" stroke="#33333A" stroke-width="1.5" stroke-linecap="round"/>
<path d="M48 48.0017C48.9944 47.8971 50.3131 47.9633 51.22 47.5098C51.6306 47.3045 52.0439 47.1116 52.4673 46.9334C53.8574 46.348 54.7074 45.4646 55.583 44.2451C56.1656 43.4335 56.4974 42.3728 56.9048 41.4623C57.1808 40.8453 57.4517 40.0749 57.2973 39.3802C57.133 38.6407 55.6135 37.6312 54.8674 38.0733C53.7319 38.7462 53.5215 39.7886 53.8139 41.1045C54.0272 42.0641 55.0556 42.4266 55.9109 42.5406C56.6824 42.6435 57.6988 42.747 58.4651 42.5655C59.3011 42.3675 60.2392 42.1884 61.0192 41.83C63.4222 40.7259 65.8684 39.2813 67.3201 37" stroke="#00A399" stroke-width="1.5" stroke-linecap="round"/>
<path d="M32.1797 29.8939C32.1797 30.1502 32.2253 30.4093 32.3175 30.6495C32.3996 30.8637 32.5958 31.0302 32.7746 31.1651C33.022 31.3517 33.3229 31.4021 33.6234 31.4155C34.1511 31.4391 34.6954 31.2916 34.9406 30.7803C35.0283 30.5973 35.0801 30.4064 35.0846 30.2035C35.0881 30.0453 35.0488 29.8366 34.9044 29.7436C34.815 29.686 34.7017 29.6592 34.5996 29.6364C34.3493 29.5805 34.0897 29.5641 33.8343 29.5515C33.6663 29.5433 33.4979 29.541 33.3298 29.5446C33.1874 29.5476 33.015 29.5373 32.8936 29.6267C32.5559 29.8754 32.741 30.4341 33.0939 30.5674C33.3057 30.6474 33.5816 30.5924 33.7821 30.5041C33.8829 30.4597 33.9765 30.4006 34.0743 30.3503C34.097 30.3386 34.1345 30.3302 34.146 30.3072" stroke="#33333A" stroke-width="1.5" stroke-linecap="round"/>
<path d="M44 29.8939C44 30.1502 44.0456 30.4093 44.1378 30.6495C44.2199 30.8637 44.4161 31.0302 44.5949 31.1651C44.8423 31.3517 45.1432 31.4021 45.4438 31.4155C45.9714 31.4391 46.5157 31.2916 46.7609 30.7803C46.8486 30.5973 46.9004 30.4064 46.9049 30.2035C46.9084 30.0453 46.8691 29.8366 46.7247 29.7436C46.6353 29.686 46.522 29.6592 46.4199 29.6364C46.1697 29.5805 45.91 29.5641 45.6546 29.5515C45.4867 29.5433 45.3182 29.541 45.1501 29.5446C45.0078 29.5476 44.8353 29.5373 44.7139 29.6267C44.3762 29.8754 44.5614 30.4341 44.9143 30.5674C45.126 30.6474 45.4019 30.5924 45.6024 30.5041C45.7032 30.4597 45.7968 30.4006 45.8946 30.3503C45.9173 30.3386 45.9548 30.3302 45.9663 30.3072" stroke="#33333A" stroke-width="1.5" stroke-linecap="round"/>
<path d="M28 22.5684C28.8369 22.5898 29.6659 22.7096 30.4945 22.8191C30.7706 22.8555 30.984 22.9049 31.2122 23.076C31.6571 23.4097 32.2591 23.6112 32.7822 23.7968C33.5163 24.0573 34.0302 24.3988 34.4996 25.019C34.675 25.2508 35.0035 25.54 35.1013 25.8087C35.1645 25.9828 35.5 26.4998 35.5 26.4998" stroke="#33333A" stroke-width="1.5" stroke-linecap="round"/>
<path d="M51.5 22.5684C50.6631 22.5898 49.8341 22.7096 49.0055 22.8191C48.7294 22.8555 48.516 22.9049 48.2878 23.076C47.8429 23.4097 47.2409 23.6112 46.7178 23.7968C45.9837 24.0573 45.4698 24.3988 45.0004 25.019C44.825 25.2508 44.4965 25.54 44.3987 25.8087C44.3355 25.9828 44 26.4998 44 26.4998" stroke="#33333A" stroke-width="1.5" stroke-linecap="round"/>
</svg>
