<svg width="79" height="59" viewBox="0 0 79 59" fill="none" xmlns="http://www.w3.org/2000/svg">
<path d="M27.5173 14.4233C27.3887 13.2654 25.9128 12.3608 25.6526 11.1898C25.4938 10.4752 24.2589 8.30386 23.6509 7.95642C22.3921 7.23708 21.5317 6.18577 20.1267 5.5613C18.6209 4.89209 16.095 4.53745 14.5837 5.25335C7.28482 8.7107 3.84588 16.455 1.71841 23.9011C1.46383 24.7922 0.725708 28.5263 1.18806 29.3586C1.6557 30.2003 2.02948 32.0672 2.24876 33.0539C2.88526 35.9182 5.27065 36.3263 7.80887 35.124C9.47387 34.3353 10.9304 33.7817 12.2741 32.438C13.3647 31.3474 14.3852 30.0779 15.5246 29.0335C16.6575 27.9951 17.4768 26.7905 18.5185 25.7488C19.2171 25.0502 20.4294 23.3694 20.7426 22.4298" stroke="#33333A" stroke-width="1.5" stroke-linecap="round"/>
<path d="M51.0002 14.4233C51.1289 13.2654 52.6048 12.3608 52.865 11.1898C53.0238 10.4752 54.2586 8.30386 54.8667 7.95642C56.1255 7.23708 56.9859 6.18577 58.3909 5.5613C59.8966 4.89209 62.4226 4.53745 63.9339 5.25335C71.2328 8.7107 74.6717 16.455 76.7992 23.9011C77.0538 24.7922 77.7919 28.5263 77.3295 29.3586C76.8619 30.2003 76.4881 32.0672 76.2688 33.0539C75.6323 35.9182 73.2469 36.3263 70.7087 35.124C69.0437 34.3353 67.5872 33.7817 66.2435 32.438C65.1528 31.3474 64.1323 30.0779 62.993 29.0335C61.8601 27.9951 61.0408 26.7905 59.9991 25.7488C59.3005 25.0502 58.0882 23.3694 57.775 22.4298" stroke="#33333A" stroke-width="1.5" stroke-linecap="round"/>
<path d="M15 30C15 30.8198 15.1261 32.8854 15.1714 33.6998C15.2047 34.2997 15.6066 34.8942 15.6275 35.4989C15.6483 36.1039 15.7264 37.2074 16.0266 37.7477C16.3088 38.2557 16.1554 39.0176 16.3686 39.5721C16.6427 40.2847 16.6913 41.1931 17.0464 41.8526C17.3662 42.4465 17.3607 43.3007 17.851 43.791C18.164 44.1041 18.2266 44.61 18.4781 44.9693C18.7304 45.3297 19.0577 45.6065 19.2509 46.0145C19.5412 46.6272 20.1039 47.0526 20.3278 47.6995C20.4908 48.1703 21.1386 48.7204 21.5188 49.0298C22.2411 49.6178 22.8057 50.6106 23.6092 51.0569C23.9394 51.2404 24.1757 51.6162 24.4961 51.8298C24.894 52.0951 25.3351 52.2615 25.7694 52.4569C26.7869 52.9148 27.8693 53.4129 28.9747 53.5972C29.6165 53.7041 30.8182 53.8705 31.3883 54.2243C32.1106 54.6727 33.1666 54.9084 34.0108 54.9084C35.047 54.9084 36.083 55.2505 37.1148 55.2505C39.1744 55.2505 41.3831 55.6743 43.4369 55.3075C44.2184 55.168 44.8906 55.1065 45.616 54.7437C45.9658 54.5689 46.3528 54.4771 46.7436 54.3953C47.8374 54.1664 48.7151 54.0515 49.7463 53.6415C50.8585 53.1993 51.9127 52.5197 53.053 52.1718C53.8582 51.9262 54.6936 51.4203 55.2195 50.7529C55.7216 50.1156 56.326 49.6412 56.9045 49.0932C57.5498 48.4818 58.0178 47.4808 58.4375 46.7177C59.2676 45.2084 60.5411 43.93 61.1804 42.296C61.3579 41.8424 61.5139 41.3682 61.7442 40.9404C62.011 40.4449 61.9826 39.9459 62.099 39.4137C62.2182 38.8685 62.4917 38.3217 62.4917 37.754C62.4917 37.3189 62.3364 36.9288 62.403 36.4871C62.58 35.3146 63.0283 34.1259 63.0619 32.9523C63.0837 32.1879 63.5 29.7918 63.5 29" stroke="#33333A" stroke-width="1.5" stroke-linecap="round"/>
<path d="M51.5 26.5C50.6631 26.4785 49.8341 26.3587 49.0055 26.2493C48.7294 26.2128 48.516 26.1635 48.2878 25.9923C47.8429 25.6586 47.2409 25.4572 46.7178 25.2715C45.9837 25.0111 45.4698 24.6696 45.0004 24.0493C44.825 23.8175 44.4965 23.5284 44.3987 23.2596C44.3355 23.0856 44 22.5686 44 22.5686" stroke="#33333A" stroke-width="1.5" stroke-linecap="round"/>
<path d="M28 26.5C28.8369 26.4785 29.6659 26.3587 30.4945 26.2493C30.7706 26.2128 30.984 26.1635 31.2122 25.9923C31.6571 25.6586 32.2591 25.4572 32.7822 25.2715C33.5163 25.0111 34.0302 24.6696 34.4996 24.0493C34.675 23.8175 35.0035 23.5284 35.1013 23.2596C35.1645 23.0856 35.5 22.5686 35.5 22.5686" stroke="#33333A" stroke-width="1.5" stroke-linecap="round"/>
<path d="M38.9557 51.2387C38.6791 51.1281 38.3603 51.1198 38.1056 50.9577C37.9686 50.8705 37.7596 50.836 37.6033 50.7891C37.2876 50.6944 36.9852 50.7825 36.7426 50.5256C36.5545 50.3264 36.2738 50.1771 36.0401 50.0303C35.9244 49.9577 35.8434 49.8535 35.7415 49.7651C35.5325 49.584 35.3161 49.4547 35.0741 49.3173C34.7677 49.1432 34.5536 48.8349 34.3329 48.569C34.19 48.3969 34.1043 48.2141 34.087 47.9894C34.0776 47.8676 34.0514 47.6813 34.0168 47.5644C33.9731 47.4171 34.0249 47.2899 34.0572 47.1446C34.0892 47.0005 34.3193 46.8225 34.4541 46.7811C34.8907 46.6467 35.3391 46.5681 35.7907 46.5106C36.3393 46.4408 36.895 46.4174 37.4417 46.3314C37.7739 46.2792 38.1446 46.1804 38.4797 46.1804C39.2026 46.1804 39.9194 45.9544 40.6505 46.0241C41.0382 46.061 41.4236 46.1593 41.8115 46.205C42.3029 46.2628 42.7937 46.3258 43.2851 46.3841C43.4893 46.4083 43.5504 46.4477 43.7049 46.5984C44.015 46.9009 44.3267 47.0657 44.2265 47.5416C44.1017 48.1342 43.5777 48.634 43.185 49.0643C42.8227 49.4614 42.4472 49.8372 42.0679 50.2165C41.9479 50.3365 41.847 50.4707 41.7026 50.5643C41.39 50.7669 41.0384 50.9091 40.712 51.0877C40.4004 51.2582 40.13 51.485 39.8233 51.6602C39.6854 51.739 39.5354 51.7926 39.3983 51.871" stroke="#33333A" stroke-width="2" stroke-linecap="round"/>
<path d="M34.0859 47.5L39.5859 52L44.0859 47.5L39.5859 46L34.0859 47.5Z" fill="#33333A"/>
<path d="M39.3669 49.4053C39.0828 50.7408 39.1022 52.079 39.1755 53.4344C39.2038 53.9585 39.3353 55.526 39.3353 55.0011" stroke="#33333A" stroke-width="1.5" stroke-linecap="round"/>
<path d="M50.0418 43.0031C50.617 42.6734 51.1547 42.3789 51.6611 41.9475C52.76 41.0114 54.2354 40.5901 55.362 39.6942C56.0735 39.1284 56.7987 38.639 57.5638 38.1551C57.6124 38.1244 57.9896 37.8939 57.9784 37.9249C57.7982 38.4232 57.5182 38.8911 57.3389 39.3947C57.1235 40.0002 57.0658 40.6619 56.8492 41.2667C56.7743 41.4758 56.5991 41.7235 56.5857 41.9485C56.5732 42.1568 56.8155 41.9817 56.9018 41.9389C57.4046 41.6899 57.8746 41.3812 58.3557 41.0936C60.1584 40.0158 61.9578 38.9628 63.7933 37.9455C64.3879 37.616 65.0057 37.2032 65.636 36.9484" stroke="#FA4D81" stroke-width="1.5" stroke-linecap="round"/>
<path d="M35.3477 6.19531C36.4706 7.45862 38.1182 9.45185 38.1182 11.2515C38.1182 11.6492 38.3491 13.6987 38.1182 13.8142" stroke="#33333A" stroke-width="1.5" stroke-linecap="round"/>
<path d="M40.75 14.0904C40.75 12.2569 41.3029 10.7695 41.8582 9.10352" stroke="#33333A" stroke-width="1.5" stroke-linecap="round"/>
<path d="M33.079 39C32.738 39 32.4149 38.9681 32.1021 38.7996C31.9758 38.7316 31.8526 38.6571 31.7248 38.5929C31.6804 38.5705 31.6131 38.555 31.5831 38.507C31.4943 38.3652 31.3632 38.2565 31.2615 38.1237C31.0894 37.8989 30.9445 37.6841 30.816 37.4239C30.5171 36.8184 30.093 36.1654 30.0327 35.447C29.9735 34.742 29.9893 34.0804 30.1253 33.3874C30.2327 32.8406 30.3269 32.2789 30.4891 31.7509C30.6068 31.3676 30.7463 31.0737 30.9945 30.7839C31.1728 30.5759 31.3683 30.4621 31.5981 30.3434C31.7885 30.2451 31.9564 30.1084 32.1471 30.0174C32.2179 29.9836 32.3516 30.0089 32.425 30.0126C32.7295 30.0281 33.029 30.0917 33.3351 30.0969C33.7892 30.1046 34.2738 30.1732 34.673 30.442C34.8198 30.5409 34.9116 30.6485 35.0027 30.8094C35.1504 31.0705 35.3313 31.2839 35.4659 31.5601C35.6388 31.9151 35.7322 32.3173 35.8119 32.7115C35.8984 33.1392 35.981 33.5862 35.9958 34.0268C36.0185 34.7007 35.9444 35.3437 35.8732 36.0084C35.8068 36.6286 35.6089 37.4881 35.1852 37.9249C34.7596 38.3636 34.1596 38.5292 33.6416 38.7583C33.4795 38.83 33.321 38.9098 33.158 38.9777C33.0703 39.0143 33.0176 38.9678 32.9318 38.9427" stroke="#33333A" stroke-width="1.5" stroke-linecap="round"/>
<path d="M31 32C31.0124 32.161 31.1875 32.3324 31.2898 32.3692C31.5196 32.4521 31.7741 32.9028 31.928 33.1564C32.2072 33.6167 32.4306 34.2183 32.5608 34.7949C32.7241 35.5174 32.94 36.1753 32.991 36.9487C33.0147 37.3077 32.9839 37.6642 32.9839 38" stroke="#33333A" stroke-width="1.5" stroke-linecap="round"/>
<path d="M32.5 34.5C32.5 34.2759 33.4113 33.5627 33.5774 33.4531C33.7888 33.3137 34.1051 33.2106 34.3534 33.158C34.4509 33.1373 34.5455 33.1014 34.643 33.0781C34.7415 33.0547 34.9335 33.0634 35 33" stroke="#33333A" stroke-width="1.5" stroke-linecap="round"/>
<path d="M44.8865 39C44.5668 39 44.264 38.9681 43.9708 38.7996C43.8523 38.7316 43.7368 38.6571 43.617 38.5929C43.5753 38.5705 43.5123 38.555 43.4841 38.507C43.4009 38.3652 43.278 38.2565 43.1827 38.1237C43.0213 37.8989 42.8855 37.6841 42.765 37.4239C42.4848 36.8184 42.0872 36.1654 42.0306 35.447C41.9751 34.742 41.9899 34.0804 42.1175 33.3874C42.2181 32.8406 42.3065 32.2789 42.4585 31.7509C42.5689 31.3676 42.6996 31.0737 42.9324 30.7839C43.0995 30.5759 43.2827 30.4621 43.4982 30.3434C43.6767 30.2451 43.8342 30.1084 44.0129 30.0174C44.0793 29.9836 44.2047 30.0089 44.2735 30.0126C44.5589 30.0281 44.8397 30.0917 45.1267 30.0969C45.5524 30.1046 46.0067 30.1732 46.3809 30.442C46.5186 30.5409 46.6047 30.6485 46.69 30.8094C46.8285 31.0705 46.9981 31.2839 47.1243 31.5601C47.2864 31.9151 47.374 32.3173 47.4487 32.7115C47.5297 33.1392 47.6072 33.5862 47.6211 34.0268C47.6423 34.7007 47.5729 35.3437 47.5062 36.0084C47.4439 36.6286 47.2583 37.4881 46.8612 37.9249C46.4622 38.3636 45.8996 38.5292 45.414 38.7583C45.262 38.83 45.1134 38.9098 44.9606 38.9777C44.8784 39.0143 44.829 38.9678 44.7486 38.9427" stroke="#33333A" stroke-width="1.5" stroke-linecap="round"/>
<path d="M43.4434 30.665C43.4545 30.8544 43.6803 31.0816 43.7622 31.2453C43.9716 31.6641 44.0566 32.0967 44.2092 32.534C44.5211 33.4283 44.7104 34.3023 44.8248 35.2429C44.9162 35.9944 44.9727 36.846 44.7641 37.5875C44.7147 37.7632 44.6811 37.9429 44.6275 38.1172C44.6165 38.1528 44.603 38.3887 44.5667 38.3162" stroke="#33333A" stroke-linecap="round"/>
<path d="M45.721 30.7871C45.7756 30.929 45.5048 31.2855 45.4494 31.4078C45.3724 31.578 45.3055 31.7325 45.2504 31.9088C45.1511 32.2265 45.0749 32.5664 45.0547 32.8989C45.0373 33.1874 45.0297 33.4755 44.994 33.7609C44.967 33.9771 44.9996 34.2174 44.9468 34.4288C44.9064 34.5905 44.9316 34.7808 44.9316 34.9467C44.9316 35.2304 44.9357 35.5079 44.9687 35.7901C44.9827 35.9095 44.9883 36.0176 44.9923 36.1375C45.0022 36.4336 45.2161 36.8005 45.3702 37.0416C45.4611 37.184 45.5499 37.3202 45.6232 37.4667C45.66 37.5403 45.707 37.6404 45.7581 37.7029C45.8337 37.7952 45.9419 37.9086 45.9943 38.0132" stroke="#33333A" stroke-linecap="round"/>
<path d="M44.6634 32.4887C44.6168 32.279 44.5101 32.0762 44.4419 31.8717C44.3804 31.6872 44.2945 31.5151 44.2213 31.3365C44.2111 31.3116 44.0721 30.8259 44.1554 30.8153C44.2423 30.8042 44.337 30.8471 44.419 30.868C44.5833 30.9099 44.7512 30.9324 44.9165 30.9691C44.9511 30.9768 44.9802 31.0046 45.014 31.0165C45.0577 31.0319 45.103 31.0221 45.145 31.0341C45.1636 31.0394 45.1234 31.0671 45.1081 31.0789C45.0335 31.1362 44.9608 31.1945 44.9024 31.2688C44.8244 31.3679 44.7516 31.5095 44.7266 31.6344" stroke="#33333A" stroke-linecap="round"/>
<path d="M45.3119 38.0581C45.2618 38.0526 45.2501 37.9229 45.2012 37.9474" stroke="#33333A" stroke-linecap="round"/>
</svg>
