<svg  width="6" height="48" viewBox="-5 -5 58 50" fill="none" xmlns="http://www.w3.org/2000/svg" preserveAspectRatio="xMidYMid meet">
  <path d="M34.9715 31.7028C34.942 31.7551 34.896 31.8045 34.8863 31.8603C34.8658 31.9776 34.787 32.0324 34.6948 32.0809C34.6924 31.798 34.6205 31.5525 34.3748 31.3733C34.2776 31.3025 34.2175 31.1824 34.1321 31.0929C34.0758 31.0337 34.0099 30.9789 33.9388 30.9394C33.7766 30.8494 33.5957 30.8027 33.4432 30.6836C33.2814 30.5572 33.0693 30.5126 32.8934 30.3991C32.8126 30.347 32.6958 30.3265 32.5972 30.3311C32.3698 30.3415 32.1435 30.3535 31.9153 30.3549C31.6049 30.3568 31.32 30.6365 31.2723 30.9385C31.2156 31.2959 31.3971 31.6055 31.7328 31.7274C31.8733 31.7785 32.0102 31.7886 32.1591 31.748C32.4347 31.6728 32.7014 31.7359 32.9351 31.882C33.1086 31.9906 33.2605 32.1373 33.4089 32.2807C33.4634 32.3333 33.4944 32.4221 33.5097 32.4997C33.5253 32.5785 33.521 32.6664 33.5038 32.7455C33.4244 33.1098 33.2981 33.4595 33.1681 33.8083C33.0783 34.0489 32.9432 34.2493 32.7227 34.3882C32.5959 34.4681 32.504 34.5814 32.4497 34.7201C32.3536 34.9658 32.1695 35.1192 31.9487 35.2512C31.8232 35.3263 31.7037 35.3994 31.5618 35.4424C31.4661 35.4715 31.3731 35.53 31.2957 35.5952C31.1064 35.7547 30.9369 35.9389 30.7405 36.0886C30.5453 36.2375 30.365 36.4098 30.1212 36.4942C30.0098 36.5327 29.8949 36.617 29.8263 36.7127C29.6733 36.9259 29.4937 37.0679 29.229 37.1199C29.1154 37.1422 28.9916 37.2213 28.9167 37.3114C28.7238 37.5435 28.477 37.6819 28.2103 37.8038C27.9854 37.9066 27.7756 38.0431 27.5492 38.1415C27.361 38.2233 27.162 38.3001 26.9608 38.3265C26.7473 38.3546 26.5641 38.422 26.3821 38.5311C26.2037 38.6382 26.0108 38.6922 25.7881 38.6672C25.5639 38.6419 25.3328 38.6641 25.106 38.6809C24.9843 38.69 24.8594 38.7171 24.7458 38.761C24.5847 38.8233 24.4232 38.8334 24.2567 38.8152C23.925 38.7789 23.5981 38.7209 23.312 38.5359C23.2043 38.4663 23.0899 38.4293 22.9691 38.3956C22.7896 38.3454 22.6168 38.2687 22.4356 38.2271C22.2591 38.1865 22.1296 38.101 22.0582 37.9368C21.9893 37.7781 21.877 37.6635 21.7358 37.5674C21.6515 37.5101 21.5775 37.4356 21.5064 37.3616C21.4299 37.282 21.3895 37.1723 21.431 37.0745C21.5491 36.7956 21.4695 36.4972 21.534 36.2142C21.5473 36.1558 21.5296 36.0906 21.5264 36.0285C21.5189 35.8819 21.3704 35.7775 21.4024 35.6202C21.441 35.4312 21.6595 35.4232 21.7469 35.2826C21.7576 35.2651 21.7725 35.2501 21.7837 35.233C21.9882 34.9216 22.2028 34.6195 22.4828 34.368C22.5422 34.3147 22.6007 34.2357 22.6142 34.1605C22.6558 33.9254 22.8221 33.7573 22.9182 33.5525C22.9876 33.4049 23.1046 33.2804 23.1898 33.1391C23.2865 32.9785 23.2864 32.7842 23.3724 32.6127C23.4634 32.4315 23.484 32.2167 23.5792 32.0294C23.6151 31.9589 23.6319 31.8674 23.6247 31.7886C23.6091 31.619 23.646 31.4592 23.6737 31.2951C23.6908 31.1949 23.6847 31.0869 23.6681 30.9858C23.6282 30.7411 23.4837 30.5528 23.2567 30.4775C22.9831 30.3865 22.6955 30.3192 22.4019 30.3367C22.1758 30.3501 21.9495 30.378 21.726 30.4158C21.6205 30.4336 21.5218 30.43 21.4183 30.4166C21.252 30.3949 21.0909 30.3609 20.9422 30.2792C20.8282 30.2167 20.7037 30.212 20.5782 30.221C20.4758 30.2285 20.3713 30.2593 20.2723 30.2455C20.1011 30.2218 19.9467 30.251 19.7857 30.3075C19.6305 30.362 19.4604 30.4199 19.3017 30.4083C19.0312 30.3885 18.7684 30.4706 18.4962 30.4278C18.3072 30.398 18.1215 30.4667 17.9894 30.6179C17.8203 30.8118 17.6211 30.9383 17.3673 31.0028C17.1799 31.0504 17.0447 31.1955 16.9786 31.3811C16.9447 31.4763 16.9308 31.5839 16.933 31.6853C16.937 31.8762 16.9264 32.0563 16.8083 32.2202C16.7613 32.2851 16.7359 32.3712 16.7203 32.4516C16.7048 32.5312 16.6848 32.63 16.7173 32.6956C16.8748 33.0138 16.8523 33.3888 17.043 33.6943C17.0655 33.9571 17.2801 34.1316 17.3561 34.3647C17.4508 34.6557 17.6943 34.7674 17.9166 34.9163C18.0015 34.9733 18.065 35.0615 18.1424 35.1306C18.204 35.1859 18.2655 35.2478 18.3386 35.2825C18.4895 35.3539 18.6337 35.429 18.7575 35.5457C18.9003 35.6804 19.1057 35.6711 19.2748 35.7479C19.2933 35.7563 19.3067 35.7749 19.3246 35.785C19.3743 35.8129 19.4074 35.8877 19.385 35.9319C19.3479 36.0059 19.2833 36.0759 19.2745 36.1527C19.2389 36.4644 19.069 36.7375 19.0345 37.0512C19.0194 37.1889 18.9532 37.3361 18.8692 37.448C18.7083 37.6622 18.5744 37.9123 18.3417 38.0551C18.0598 38.228 17.8263 38.4721 17.5175 38.6026C17.4792 38.6188 17.4427 38.6541 17.4053 38.6544C17.1065 38.657 16.8539 38.8233 16.5706 38.8854C16.3577 38.9321 16.1745 38.9779 15.9861 38.8205C15.8743 38.727 15.7261 38.6992 15.5752 38.6975C15.4942 38.6965 15.405 38.6873 15.3345 38.6521C15.1584 38.564 14.9768 38.5515 14.7879 38.5745C14.652 38.591 14.549 38.5387 14.4616 38.4359C14.3658 38.3232 14.2478 38.2165 14.1015 38.2062C13.8663 38.1896 13.6711 38.059 13.4459 38.0171C13.1999 37.9714 12.9692 37.8856 12.7662 37.7239C12.6733 37.6499 12.54 37.6278 12.4267 37.578C12.143 37.4533 11.8449 37.351 11.5992 37.1575C11.4057 37.0049 11.2268 36.8316 11.0544 36.6548C10.9514 36.5493 10.8462 36.4589 10.7137 36.3903C10.493 36.276 10.2778 36.1493 10.1117 35.9559C9.86978 35.674 9.60914 35.4065 9.38595 35.1106C9.03963 34.6516 9.01887 34.4988 9.13359 33.953C9.14217 33.9125 9.14966 33.8705 9.16668 33.8333C9.20101 33.7589 9.22411 33.6651 9.28294 33.6184C9.49115 33.4531 9.59104 33.2339 9.6505 32.9854C9.68577 32.8382 9.77785 32.726 9.89615 32.6347C10.0444 32.5203 10.2108 32.4388 10.3748 32.3499C10.6064 32.2242 10.8201 32.1354 11.0732 32.282C11.1224 32.3104 11.1953 32.3085 11.256 32.3041C11.6098 32.2787 11.8964 32.0106 11.927 31.6789C11.9624 31.2948 11.7255 30.9721 11.3545 30.9129C11.2741 30.9001 11.185 30.891 11.109 30.9126C10.937 30.9613 10.7801 30.8683 10.6167 30.8786C10.4525 30.8889 10.2902 30.9257 10.1265 30.9474C10.0861 30.9527 10.044 30.9447 10.0026 30.9421C9.95344 30.9388 9.89444 30.8548 9.90864 30.8029C9.92488 30.7437 9.93033 30.6705 9.96873 30.6307C10.1184 30.4756 10.2089 30.2984 10.2425 30.0848C10.2548 30.0058 10.2971 29.9268 10.3422 29.8586C10.4522 29.6921 10.4633 29.5103 10.4516 29.3202C10.4427 29.1755 10.4384 29.0302 10.4413 28.8854C10.4471 28.6121 10.5083 28.3536 10.6678 28.1251C10.7659 27.9845 10.8193 27.8295 10.8104 27.6566C10.7981 27.4178 10.8655 27.2092 11.0166 27.0203C11.0795 26.9416 11.1443 26.8372 11.1471 26.7428C11.1541 26.5043 11.2924 26.313 11.3487 26.0928C11.4091 25.856 11.5073 25.6166 11.6429 25.4146C11.7874 25.1996 11.8873 24.9906 11.897 24.729C11.9056 24.5001 11.9666 24.2825 12.1124 24.0904C12.1712 24.0128 12.2163 23.8942 12.2065 23.8005C12.1756 23.5049 12.3747 23.2257 12.2862 22.9415C12.1796 22.5992 12.4851 22.4145 12.5377 22.139C12.5492 22.078 12.5402 22.0119 12.5578 21.9534C12.5875 21.8549 12.6056 21.7341 12.6733 21.6692C12.8849 21.4662 12.9808 21.1779 13.2074 20.987C13.4164 20.8108 13.458 20.5689 13.4324 20.3064C13.4061 20.0364 13.12 19.7456 12.8774 19.6988C12.4375 19.6139 12.0915 19.7906 11.9455 20.2212C11.8989 20.359 11.8642 20.4957 11.7782 20.6171C11.7316 20.6832 11.6844 20.7645 11.6798 20.8414C11.6626 21.13 11.5218 21.3494 11.3328 21.5526C11.2481 21.6438 11.1766 21.7555 11.1786 21.8855C11.1836 22.2075 11.0711 22.4917 10.9295 22.7722C10.8841 22.8622 10.8446 22.9749 10.8565 23.0704C10.8803 23.2638 10.7989 23.44 10.7984 23.6237C10.7978 23.8861 10.7255 24.1135 10.5534 24.3087C10.4393 24.4379 10.3815 24.5912 10.3481 24.7563C10.3318 24.8375 10.3414 24.9367 10.2973 24.997C10.156 25.1897 10.1757 25.4327 10.0694 25.6386C9.96701 25.837 9.92097 26.0647 9.85058 26.2796C9.83123 26.3384 9.80173 26.3968 9.79689 26.457C9.77442 26.74 9.6416 26.9686 9.45994 27.1761C9.33008 27.3242 9.2739 27.501 9.28763 27.6947C9.29949 27.8626 9.28326 28.0212 9.23816 28.1857C9.19508 28.3425 9.20943 28.5141 9.1815 28.6762C9.16058 28.797 9.12141 28.9169 9.07443 29.0307C9.00233 29.2053 8.96175 29.3776 8.95941 29.5719C8.95488 29.9471 8.90915 30.3161 8.57734 30.5784C8.44062 30.6864 8.40348 30.8581 8.39349 31.0284C8.3899 31.09 8.39193 31.154 8.40395 31.2144C8.46388 31.5158 8.32575 31.7509 8.11927 31.9317C7.97896 32.0546 7.83179 32.1599 7.72316 32.3186C7.6072 32.488 7.44926 32.6286 7.33283 32.7976C7.13415 33.0859 6.90878 33.3556 6.72024 33.6485C6.56245 33.8937 6.38406 34.0485 6.08237 34.061C5.90726 34.0684 5.78958 34.2059 5.66831 34.3203C5.60729 34.3779 5.53878 34.4272 5.4495 34.4223C5.096 34.4028 4.74936 34.4763 4.39882 34.4973C4.3108 34.5026 4.24337 34.4703 4.1772 34.4117C3.95448 34.2148 3.8816 33.968 3.91984 33.6815C3.92811 33.62 3.93841 33.5577 3.95698 33.4987C4.09511 33.0629 4.31111 32.662 4.51556 32.2559C4.82896 32.0077 4.88296 31.6176 5.03747 31.2844C5.11472 31.1178 5.12018 30.9181 5.1965 30.7509C5.28734 30.5519 5.31949 30.3585 5.27891 30.1463C5.25504 30.0214 5.258 29.8856 5.32855 29.7828C5.48712 29.5516 5.55048 29.3069 5.56312 29.026C5.57311 28.804 5.64943 28.5792 5.72996 28.3683C5.79067 28.2094 5.84249 28.0565 5.83032 27.887C5.81487 27.6739 5.86434 27.4676 5.94596 27.2798C6.02228 27.1044 6.06286 26.9304 6.08986 26.7436C6.11624 26.5618 6.20271 26.3943 6.23423 26.2067C6.299 25.8201 6.37828 25.4351 6.45772 25.0511C6.50767 24.8095 6.59663 24.5795 6.60599 24.3253C6.61099 24.189 6.682 24.044 6.75739 23.9243C6.85977 23.7614 6.89723 23.5873 6.94826 23.4072C7.01475 23.1723 7.05189 22.9203 7.19376 22.7087C7.29068 22.5641 7.31098 22.402 7.29709 22.2311C7.2782 22.0001 7.30505 21.7805 7.42257 21.5701C7.50404 21.4245 7.52963 21.259 7.48671 21.0866C7.44426 20.9158 7.50575 20.7587 7.58472 20.6104C7.63326 20.5191 7.69741 20.4361 7.74454 20.3442C7.88673 20.067 8.04592 19.8049 8.29048 19.6016C8.36836 19.5368 8.44921 19.4541 8.48355 19.3625C8.64711 18.9265 9.00295 18.6177 9.22177 18.2186C9.30136 18.0735 9.43121 17.9627 9.58572 17.8874C9.70075 17.8314 9.79003 17.7423 9.85339 17.6329C10.0508 17.2922 10.289 16.9839 10.5641 16.7027C10.6069 16.659 10.6503 16.6053 10.6668 16.5486C10.7383 16.3027 10.9431 16.136 11.0402 15.9044C11.079 15.8118 11.1541 15.73 11.2264 15.657C11.4606 15.4204 11.7203 15.3149 12.0673 15.4277C12.3688 15.5257 12.6415 15.665 12.8749 15.8669C13.038 16.008 13.1982 16.1174 13.4161 16.1453C13.5595 16.1638 13.7171 16.1959 13.8106 16.3116C13.9765 16.5168 14.1839 16.6339 14.4349 16.6928C14.5421 16.7181 14.6133 16.793 14.6531 16.8965C14.6679 16.9352 14.6807 16.9757 14.7013 17.0114C14.8621 17.2914 15.1079 17.4264 15.4263 17.3955C15.5937 17.3792 15.7518 17.3786 15.9188 17.4098C16.1564 17.454 16.3841 17.3867 16.54 17.1981C16.6956 17.0098 16.8905 16.9149 17.117 16.8605C17.238 16.8313 17.3572 16.7932 17.4792 16.7709C17.6272 16.7437 17.76 16.6864 17.8643 16.5809C17.9782 16.4655 18.1171 16.4364 18.2643 16.4544C18.4825 16.4811 18.6665 16.4057 18.8599 16.318C19.2141 16.1572 19.5656 15.9549 19.9847 16.1038C20.0586 16.13 20.1514 16.1208 20.2319 16.1074C20.397 16.08 20.5601 16.0732 20.7276 16.0854C21.2016 16.1198 21.612 15.654 21.5053 15.185C21.4914 15.1242 21.4767 15.0636 21.4624 15.0029C21.6471 14.8272 21.8433 14.884 22.0411 14.975C22.0829 15.0678 22.1608 15.161 22.1602 15.2536C22.1581 15.5459 22.308 15.8073 22.2977 16.1046C22.29 16.3262 22.4614 16.4835 22.6622 16.5644C22.8887 16.6557 23.1102 16.6209 23.297 16.4512C23.4243 16.3356 23.5103 16.1889 23.5033 16.0171C23.4957 15.8282 23.5089 15.6473 23.574 15.4703C23.6389 15.4224 23.6997 15.3672 23.7697 15.3288C23.8392 15.2908 23.9174 15.2476 23.9928 15.2456C24.2351 15.239 24.4791 15.2397 24.7204 15.2601C24.8146 15.2681 24.9037 15.3359 24.9949 15.3768C24.9048 15.5136 24.7708 15.6224 24.7335 15.7914C24.7158 15.8713 24.6876 15.9521 24.6888 16.0322C24.694 16.3378 24.939 16.6505 25.2178 16.7211C25.5666 16.8094 25.9051 16.6819 26.0704 16.3871C26.1191 16.3002 26.1483 16.197 26.1639 16.0977C26.1914 15.9228 26.27 15.7879 26.4241 15.7016C26.5719 15.6188 26.6664 15.4813 26.7805 15.3637C26.9614 15.3575 27.1437 15.3328 27.3204 15.3932C27.6675 15.5118 28.0397 15.4646 28.3926 15.556C28.4769 15.5779 28.5843 15.5112 28.6809 15.4852C28.6653 15.6294 28.6409 15.7733 28.6362 15.9178C28.6297 16.1177 28.7228 16.2804 28.8695 16.4079C29.0717 16.5836 29.3131 16.6576 29.5642 16.5582C29.7617 16.4801 29.9636 16.3927 30.1645 16.4341C30.4757 16.4981 30.7847 16.4523 31.0937 16.4697C31.3467 16.4839 31.5893 16.4693 31.7942 16.658C31.8493 16.7088 31.9448 16.7292 32.0242 16.7367C32.1769 16.7512 32.3067 16.8202 32.4193 16.907C32.5491 17.007 32.6638 17.1303 32.7701 17.2563C32.9696 17.4926 33.1509 17.7445 33.3537 17.9778C33.5692 18.2259 33.93 18.2898 34.2052 18.129C34.3652 18.0355 34.5047 17.908 34.6597 17.805C34.8168 17.7004 35.0322 17.7568 35.1828 17.6229C35.2936 17.5244 35.4293 17.4791 35.5722 17.4411C35.6691 17.4153 35.7608 17.3551 35.8444 17.2956C36.2245 17.0254 36.6477 16.8878 37.1095 16.838C37.3749 16.8094 37.6472 16.8353 37.9063 16.7369C37.9781 16.7096 38.0806 16.7127 38.1515 16.7428C38.3882 16.8435 38.6297 16.8653 38.8825 16.8474C38.9275 16.8442 38.9807 16.9102 39.0241 16.9507C39.0539 16.9785 39.0842 17.0139 39.0956 17.0515C39.1816 17.3357 39.3098 17.589 39.555 17.7741C39.5948 17.8042 39.6122 17.8865 39.6114 17.9441C39.6079 18.1744 39.6148 18.3965 39.7394 18.6057C39.8166 18.7352 39.7976 18.8882 39.7578 19.031C39.7005 19.236 39.6971 19.4367 39.7575 19.6442C39.8221 19.8659 39.7921 20.0933 39.7773 20.3218C39.7571 20.6304 39.7707 20.9413 39.7699 21.2511C39.8856 21.4805 39.8511 21.7388 39.9092 21.9776C39.9788 22.2639 39.9803 22.5493 39.9521 22.8363C39.9396 22.9637 39.9499 23.0824 39.9796 23.205C40.0084 23.3247 40.0368 23.4473 40.041 23.5696C40.0462 23.7192 40.0793 23.86 40.1461 23.9888C40.2051 24.1027 40.2151 24.2249 40.2486 24.3427C40.3398 24.6628 40.3857 24.9914 40.4195 25.3182C40.4439 25.5526 40.5768 25.7488 40.5945 25.9765C40.6121 26.2034 40.5873 26.4355 40.6235 26.6585C40.6864 27.0459 40.7643 27.4303 40.8006 27.822C40.81 27.9226 40.8454 28.0303 40.8994 28.1152C41.1417 28.4966 41.2436 28.9061 41.2063 29.3576C41.1964 29.4769 41.2066 29.6256 41.27 29.718C41.4483 29.9774 41.4307 30.3243 41.6678 30.5556C41.7207 30.6073 41.7338 30.706 41.7511 30.786C41.7684 30.8664 41.7664 30.9508 41.7759 31.0332C41.8032 31.2712 41.8936 31.4832 42.1059 31.6045C42.293 31.7114 42.4176 31.8773 42.5547 32.0279C42.7508 32.2429 42.9381 32.4479 43.2187 32.5696C43.4016 32.6489 43.5617 32.7959 43.698 32.959C43.7751 33.0512 43.8803 33.1387 43.9909 33.1809C44.4154 33.3431 44.7302 33.6254 44.9682 34.0045C45.0012 34.057 45.0325 34.1196 45.0816 34.1509C45.3161 34.3014 45.4137 34.5726 45.6205 34.7474C45.7199 34.8316 45.7578 34.9564 45.7636 35.0832C45.784 35.5287 45.6771 35.9078 45.218 36.099C45.1234 36.1385 45.0407 36.2123 44.9437 36.2396C44.6419 36.3247 44.4168 36.5707 44.1045 36.6295C43.7645 36.8691 43.3804 37.0245 43.0113 37.2096C42.8024 37.3144 42.5963 37.3915 42.3617 37.3882C42.1933 37.3858 42.0355 37.4208 41.8835 37.5024C41.7954 37.5497 41.6854 37.5542 41.5894 37.5895C41.3964 37.6605 41.2086 37.7462 41.0143 37.8135C40.7928 37.8901 40.5491 37.7823 40.3379 37.8544C40.0713 37.9452 39.803 37.8945 39.5379 37.9319C39.3635 37.9566 39.2073 37.8762 39.1421 37.6955C39.0917 37.5558 39.0352 37.4169 38.9176 37.3287C38.6937 37.1608 38.5557 36.9295 38.4313 36.6923C38.3623 36.5605 38.2901 36.44 38.1763 36.3459C38.0563 36.2465 37.9996 36.1179 37.9987 35.964C37.9976 35.7883 37.9264 35.6408 37.8123 35.5139C37.6294 35.3104 37.5127 35.0688 37.403 34.823C37.1673 34.295 36.9154 33.7732 36.7958 33.2014C36.7793 33.1219 36.7457 33.0414 36.7016 32.9734C36.6046 32.824 36.5864 32.664 36.6156 32.4961C36.6605 32.2373 36.6159 32.0048 36.4559 31.7897C36.3281 31.618 36.2816 31.4192 36.3089 31.2021C36.3454 30.9123 36.2337 30.6295 36.2588 30.3381C36.2638 30.281 36.239 30.2107 36.2051 30.1625C36.067 29.9662 36.1036 29.7703 36.1882 29.5705C36.2385 29.4521 36.2699 29.3185 36.2152 29.2069C36.1007 28.9729 36.1495 28.7145 36.0771 28.4785C36.0256 28.3105 36.035 28.1489 36.0845 27.9895C36.1408 27.8081 36.1725 27.6298 36.1477 27.4383C36.1232 27.2485 36.158 27.0612 36.2663 26.9011C36.4263 26.6646 36.3222 26.364 36.4681 26.1244C36.4977 26.0757 36.4926 26.004 36.4977 25.9423C36.5165 25.7157 36.5416 25.4891 36.5477 25.2621C36.5538 25.0341 36.6547 24.8216 36.6306 24.5862C36.6185 24.4696 36.6666 24.3393 36.7134 24.2258C36.7997 24.0162 36.8921 23.8068 37.0072 23.612C37.0819 23.4854 37.1518 23.3648 37.1813 23.2184C37.2689 22.7853 37.4267 22.3893 37.7618 22.077C37.9309 21.9194 37.932 21.7043 37.8709 21.495C37.768 21.1429 37.2965 20.9777 37.007 21.2033C36.8294 21.3418 36.6738 21.5111 36.5221 21.679C36.4554 21.7529 36.4228 21.8576 36.3751 21.9484C36.2603 22.1668 36.1617 22.3959 36.0256 22.6C35.9321 22.7402 35.8563 22.8802 35.7995 23.0383C35.6323 23.5028 35.4844 23.9746 35.2886 24.4287C35.2215 24.5843 35.2114 24.7456 35.2279 24.9165C35.2459 25.1008 35.2295 25.2884 35.2282 25.4744C35.0875 25.6938 35.1466 25.9629 35.0497 26.1934C34.9923 26.3298 34.9798 26.4725 34.9818 26.6204C34.9838 26.7648 34.9763 26.9109 34.9547 27.0534C34.8985 27.4225 34.891 27.793 34.8877 28.1654C34.8852 28.4537 34.8832 28.7468 34.7632 29.0191C34.6644 29.2432 34.6743 29.4652 34.773 29.6834C34.8602 29.8766 34.908 30.0815 34.8999 30.288C34.8924 30.4786 34.9571 30.6593 34.9522 30.8408C34.947 31.0306 34.967 31.2099 34.9988 31.3944C35.0158 31.4925 34.9823 31.5995 34.9715 31.7025V31.7028ZM27.1574 28.4693C27.4093 28.5668 27.6926 28.4713 27.9746 28.4229C28.1563 28.3917 28.3356 28.3444 28.5181 28.3104C28.7384 28.2694 28.9615 28.2202 29.177 28.1587C29.5513 28.0519 29.7759 27.5908 29.5201 27.2035C29.3957 27.0152 29.2187 26.907 28.9994 26.9217C28.7887 26.9359 28.593 26.9159 28.3962 26.8425C28.3214 26.8148 28.2323 26.8266 28.1499 26.818C28.0837 26.8113 28.0609 26.7617 28.0923 26.6877C28.1246 26.6116 28.1678 26.5396 28.195 26.4619C28.3022 26.155 28.2084 25.8288 27.9612 25.6238C27.7524 25.4505 27.5128 25.4202 27.2589 25.4794C27.1395 25.5072 27.0276 25.5724 26.9077 25.5921C26.4626 25.6651 26.0304 25.7984 25.5795 25.8496C25.1542 25.8978 24.8796 26.3622 24.9869 26.7795C25.0419 26.9932 25.1594 27.1541 25.3506 27.2588C25.4221 27.298 25.5042 27.3172 25.5789 27.351C25.7194 27.4145 25.771 27.5015 25.7518 27.641C25.7434 27.7023 25.7175 27.7618 25.7131 27.823C25.6805 28.2804 26.0573 28.6327 26.503 28.5266C26.7112 28.4769 26.9147 28.5117 27.1576 28.4693H27.1574ZM17.4335 27.5574C17.4315 27.44 17.4209 27.2955 17.3278 27.172C17.1507 26.9366 16.9271 26.7551 16.6725 26.6101C16.4744 26.6031 16.3305 26.4726 16.1632 26.393C15.6931 26.1697 15.1446 26.5354 15.17 27.0529C15.175 27.1536 15.2145 27.253 15.2419 27.3518C15.2864 27.5119 15.2613 27.5706 15.1015 27.6298C15.0053 27.6653 14.9044 27.6878 14.8056 27.7162C14.5652 27.7854 14.4207 27.9507 14.3431 28.1809C14.294 28.3268 14.3203 28.4669 14.3814 28.6041C14.4179 28.6862 14.4024 28.7658 14.3575 28.8401C14.2936 28.9459 14.2368 29.0539 14.1174 29.1168C13.9895 29.1842 13.8654 29.2621 13.7499 29.3494C13.5595 29.4931 13.491 29.8084 13.5904 30.03C13.7046 30.2846 13.9962 30.4344 14.2559 30.3667C14.3353 30.3459 14.4187 30.3222 14.4862 30.2782C14.7152 30.1294 14.9591 30.0267 15.2273 29.9694C15.3226 29.9492 15.4186 29.8853 15.492 29.8173C15.6281 29.6912 15.7397 29.5432 15.902 29.4404C16.0755 29.3303 16.1782 29.1356 16.3647 29.0296C16.4721 28.9686 16.54 28.8545 16.5736 28.729C16.5949 28.6488 16.616 28.5684 16.6377 28.4883C16.6611 28.4022 16.7112 28.3524 16.8034 28.3287C16.9024 28.3031 17.0034 28.2659 17.0886 28.2108C17.3122 28.0665 17.4343 27.8581 17.4337 27.5569L17.4335 27.5574Z" fill="#FCFCFC"/>
  <path d="M21.462 15.0024C21.4764 15.0631 21.491 15.1236 21.5049 15.1845C21.6115 15.6537 21.2011 16.1192 20.7272 16.0849C20.5598 16.0727 20.3967 16.0794 20.2315 16.1069C20.151 16.1203 20.0581 16.1295 19.9843 16.1033C19.5653 15.9544 19.2136 16.1567 18.8595 16.3174C18.6661 16.4051 18.4821 16.4805 18.2639 16.4538C18.1169 16.4359 17.9779 16.4649 17.8639 16.5804C17.7598 16.6861 17.627 16.7434 17.4789 16.7704C17.3568 16.7927 17.2376 16.8309 17.1166 16.8599C16.8902 16.9144 16.6953 17.0091 16.5396 17.1975C16.3837 17.3862 16.156 17.4535 15.9185 17.4093C15.7515 17.3783 15.5934 17.3787 15.4259 17.395C15.1075 17.4259 14.8617 17.2907 14.701 17.0109C14.6805 16.9751 14.6677 16.9348 14.6527 16.896C14.6129 16.7925 14.5418 16.7176 14.4345 16.6923C14.1836 16.6333 13.9762 16.5163 13.8103 16.311C13.7168 16.1952 13.5591 16.1632 13.4157 16.1448C13.1978 16.1169 13.0377 16.0075 12.8746 15.8664C12.6411 15.6644 12.3685 15.5252 12.0669 15.4272C11.72 15.3145 11.4603 15.4199 11.226 15.6565C11.1536 15.7295 11.0785 15.8113 11.0398 15.9038C10.9427 16.1353 10.7381 16.302 10.6665 16.5481C10.65 16.6049 10.6066 16.6586 10.5638 16.7021C10.2886 16.9832 10.0503 17.2916 9.85304 17.6323C9.78968 17.7418 9.70025 17.8309 9.58538 17.8869C9.43087 17.9621 9.30102 18.0729 9.22142 18.2181C9.00277 18.6172 8.64692 18.926 8.4832 19.3619C8.44886 19.4534 8.36786 19.5363 8.29013 19.601C8.04557 19.8044 7.88638 20.0664 7.74419 20.3436C7.69706 20.4356 7.63292 20.5186 7.58438 20.6099C7.50541 20.7582 7.44391 20.9153 7.48636 21.0861C7.52928 21.2584 7.50353 21.4238 7.42222 21.5696C7.3047 21.7798 7.27785 21.9996 7.29674 22.2305C7.31063 22.4013 7.29034 22.5636 7.19342 22.7081C7.05155 22.9198 7.0144 23.1718 6.94791 23.4067C6.89688 23.587 6.85942 23.761 6.75704 23.9238C6.68181 24.0435 6.6108 24.1885 6.60565 24.3247C6.59629 24.5791 6.50733 24.8092 6.45738 25.0506C6.3781 25.4347 6.29881 25.8197 6.23388 26.2062C6.20251 26.3938 6.11589 26.5611 6.08952 26.7431C6.06251 26.9299 6.02194 27.1039 5.94562 27.2793C5.864 27.4671 5.81452 27.6734 5.82997 27.8864C5.8423 28.0559 5.79033 28.2089 5.72962 28.3678C5.64909 28.5785 5.57292 28.8035 5.56277 29.0255C5.55013 29.3064 5.48661 29.5511 5.3282 29.7823C5.25765 29.8851 5.25484 30.0209 5.27856 30.1457C5.31914 30.358 5.287 30.5514 5.19616 30.7504C5.11984 30.9175 5.11438 31.1173 5.03713 31.2838C4.88261 31.617 4.82861 32.0071 4.51522 32.2554C4.31076 32.6615 4.09492 33.0624 3.95664 33.4982C3.93791 33.5572 3.92761 33.6194 3.91949 33.6809C3.88125 33.9676 3.95398 34.2142 4.17685 34.4112C4.24303 34.4697 4.31045 34.5019 4.39847 34.4967C4.74901 34.4758 5.09565 34.4023 5.44915 34.4218C5.53827 34.4267 5.60679 34.3773 5.66797 34.3197C5.78939 34.2053 5.90707 34.0678 6.08202 34.0605C6.38371 34.048 6.5621 33.8932 6.71989 33.648C6.90843 33.3551 7.1338 33.0852 7.33248 32.7971C7.44891 32.6281 7.60686 32.4875 7.72282 32.3181C7.83144 32.1594 7.97877 32.054 8.11893 31.9312C8.32541 31.7503 8.46369 31.5153 8.4036 31.2139C8.39158 31.1535 8.38955 31.0895 8.39314 31.0279C8.40329 30.8576 8.44028 30.6859 8.577 30.5779C8.90897 30.3156 8.95469 29.9466 8.95907 29.5714C8.96141 29.3771 9.00199 29.2048 9.07409 29.0301C9.12107 28.9164 9.1604 28.7967 9.18116 28.6757C9.20909 28.5135 9.19473 28.342 9.23781 28.1852C9.28291 28.0208 9.29914 27.8621 9.28728 27.6942C9.27355 27.5005 9.32989 27.3237 9.45959 27.1755C9.64125 26.9681 9.77391 26.7395 9.79654 26.4565C9.80138 26.3963 9.83104 26.338 9.85024 26.2791C9.92063 26.0641 9.96667 25.8364 10.0691 25.6381C10.1753 25.4322 10.1557 25.1892 10.2969 24.9965C10.3411 24.9362 10.3314 24.837 10.3478 24.7558C10.3812 24.5907 10.4389 24.4376 10.553 24.3082C10.7252 24.1129 10.7973 23.8855 10.7981 23.6232C10.7985 23.4395 10.88 23.2633 10.8561 23.0699C10.8443 22.9742 10.8837 22.8617 10.9292 22.7717C11.0707 22.4912 11.1832 22.207 11.1783 21.885C11.1762 21.755 11.2477 21.6432 11.3325 21.5521C11.5215 21.3489 11.6621 21.1295 11.6794 20.8409C11.6839 20.7639 11.7312 20.6826 11.7779 20.6166C11.8637 20.4952 11.8985 20.3585 11.9452 20.2206C12.0911 19.79 12.4371 19.6134 12.8771 19.6983C13.1196 19.7451 13.4057 20.0357 13.4321 20.3059C13.4577 20.5684 13.416 20.8103 13.207 20.9865C12.9804 21.1775 12.8846 21.4658 12.673 21.6687C12.6054 21.7336 12.5873 21.8543 12.5575 21.9529C12.5398 22.0114 12.5489 22.0774 12.5373 22.1385C12.4849 22.4139 12.1793 22.5987 12.2859 22.941C12.3744 23.2252 12.1752 23.5042 12.2061 23.8C12.216 23.8935 12.1709 24.0121 12.112 24.0898C11.9664 24.282 11.9052 24.4995 11.8967 24.7285C11.887 24.9901 11.7871 25.199 11.6426 25.4141C11.5069 25.6161 11.4089 25.8555 11.3484 26.0922C11.292 26.3126 11.1538 26.5038 11.1467 26.7423C11.1439 26.8367 11.0792 26.9411 11.0163 27.0198C10.8652 27.2086 10.7978 27.4173 10.8101 27.6561C10.819 27.829 10.7656 27.984 10.6674 28.1246C10.5079 28.3531 10.4467 28.6116 10.441 28.8848C10.438 29.0297 10.4424 29.175 10.4513 29.3197C10.463 29.5098 10.4519 29.6914 10.3419 29.8581C10.2969 29.9263 10.2546 30.0053 10.2421 30.0843C10.2086 30.2979 10.1181 30.4751 9.96838 30.6302C9.92999 30.67 9.92453 30.7433 9.90829 30.8023C9.89409 30.8543 9.95309 30.9383 10.0022 30.9416C10.0436 30.9442 10.0857 30.9523 10.1262 30.9469C10.2897 30.9252 10.4522 30.8883 10.6164 30.878C10.7798 30.8677 10.9367 30.9608 11.1086 30.9121C11.1847 30.8905 11.2738 30.8996 11.3541 30.9124C11.7251 30.9715 11.9619 31.2943 11.9266 31.6784C11.896 32.01 11.6095 32.2782 11.2557 32.3036C11.195 32.308 11.1219 32.3098 11.0729 32.2814C10.8199 32.135 10.6061 32.2237 10.3745 32.3493C10.2105 32.4383 10.0439 32.5198 9.89581 32.6342C9.77751 32.7256 9.68542 32.8378 9.65015 32.9849C9.59053 33.2333 9.49065 33.4526 9.2826 33.6179C9.22376 33.6646 9.20066 33.7584 9.16633 33.8328C9.14916 33.8699 9.14166 33.9119 9.13324 33.9525C9.01868 34.4983 9.03929 34.6511 9.38561 35.1101C9.6088 35.406 9.86944 35.6735 10.1113 35.9554C10.2774 36.1488 10.4926 36.2753 10.7133 36.3897C10.8458 36.4584 10.9512 36.5486 11.054 36.6543C11.2265 36.8311 11.4053 37.0043 11.5989 37.157C11.8445 37.3507 12.1425 37.4527 12.4264 37.5774C12.5395 37.6272 12.6728 37.6494 12.7658 37.7234C12.9689 37.8851 13.1995 37.9711 13.4455 38.0166C13.6707 38.0585 13.866 38.1889 14.1012 38.2056C14.2474 38.2159 14.3654 38.3227 14.4612 38.4354C14.5486 38.5382 14.6516 38.5907 14.7876 38.574C14.9764 38.5509 15.1579 38.5635 15.3341 38.6515C15.4047 38.6868 15.494 38.6962 15.5748 38.6969C15.7257 38.6985 15.8738 38.7264 15.9857 38.8199C16.1741 38.9774 16.3574 38.9315 16.5702 38.8849C16.8535 38.8227 17.1063 38.6565 17.4049 38.6539C17.4425 38.6536 17.4789 38.6181 17.5171 38.6021C17.826 38.4716 18.0595 38.2275 18.3413 38.0546C18.5742 37.9117 18.7081 37.6617 18.8689 37.4474C18.9528 37.3354 19.019 37.1883 19.0342 37.0507C19.0686 36.737 19.2386 36.464 19.2742 36.1522C19.2829 36.0754 19.3475 36.0053 19.3847 35.9313C19.407 35.887 19.3739 35.8124 19.3243 35.7845C19.3063 35.7745 19.2929 35.7558 19.2745 35.7473C19.1055 35.6705 18.8999 35.6799 18.7571 35.5452C18.6334 35.4285 18.4891 35.3534 18.3382 35.2819C18.2652 35.2473 18.2037 35.1853 18.142 35.1301C18.0646 35.0608 18.0013 34.9726 17.9162 34.9158C17.694 34.7669 17.4505 34.6551 17.3558 34.3642C17.2797 34.1311 17.0651 33.9566 17.0427 33.6937C16.8519 33.3883 16.8744 33.0133 16.7169 32.695C16.6845 32.6295 16.7045 32.5307 16.7199 32.4511C16.7355 32.3709 16.7611 32.2847 16.8079 32.2196C16.9262 32.0558 16.9368 31.8758 16.9326 31.6848C16.9305 31.5833 16.9443 31.4756 16.9782 31.3806C17.0444 31.195 17.1795 31.0499 17.367 31.0023C17.6208 30.9378 17.8201 30.8112 17.9891 30.6174C18.1211 30.4662 18.3067 30.3976 18.4959 30.4273C18.7679 30.4701 19.0307 30.388 19.3013 30.4078C19.4599 30.4193 19.63 30.3614 19.7853 30.307C19.9466 30.2505 20.1008 30.2213 20.272 30.245C20.3709 30.2587 20.4755 30.2278 20.5779 30.2205C20.7033 30.2115 20.828 30.2161 20.9418 30.2787C21.0906 30.3604 21.2516 30.3944 21.418 30.4161C21.5215 30.4296 21.6201 30.4331 21.7256 30.4153C21.9491 30.3775 22.1754 30.3496 22.4016 30.3362C22.6951 30.3187 22.9828 30.386 23.2564 30.4769C23.4833 30.5523 23.6278 30.7405 23.6678 30.9853C23.6843 31.0864 23.6904 31.1944 23.6734 31.2946C23.6456 31.4586 23.6088 31.6185 23.6244 31.7881C23.6316 31.8669 23.6147 31.9584 23.5788 32.0289C23.4836 32.2162 23.463 32.431 23.372 32.6122C23.286 32.7837 23.2862 32.978 23.1894 33.1386C23.1044 33.2798 22.9873 33.4044 22.9179 33.552C22.8216 33.7568 22.6553 33.9249 22.6138 34.1599C22.6006 34.2352 22.5419 34.3141 22.4824 34.3675C22.2024 34.6189 21.9878 34.9211 21.7834 35.2325C21.7721 35.2496 21.7573 35.2646 21.7465 35.2821C21.6591 35.4229 21.4406 35.4307 21.4021 35.6197C21.3701 35.7772 21.5185 35.8816 21.526 36.028C21.5291 36.0901 21.5469 36.1553 21.5336 36.2137C21.4692 36.4966 21.5488 36.795 21.4306 37.0739C21.3891 37.1718 21.4295 37.2815 21.506 37.3611C21.577 37.4351 21.6512 37.5096 21.7355 37.5668C21.8767 37.663 21.9889 37.7775 22.0579 37.9362C22.1292 38.1006 22.2588 38.186 22.4353 38.2265C22.6163 38.2682 22.7892 38.3449 22.9687 38.3951C23.0895 38.429 23.2039 38.4658 23.3116 38.5354C23.5977 38.7204 23.9247 38.7784 24.2563 38.8146C24.4229 38.8329 24.5844 38.8227 24.7455 38.7605C24.8592 38.7166 24.9839 38.6893 25.1057 38.6804C25.3326 38.6637 25.5636 38.6415 25.7877 38.6667C26.0104 38.6916 26.2033 38.6376 26.3817 38.5306C26.5637 38.4215 26.7469 38.3539 26.9604 38.326C27.1616 38.2996 27.3606 38.2228 27.5488 38.141C27.7753 38.0425 27.9852 37.9061 28.21 37.8033C28.4767 37.6812 28.7234 37.5429 28.9163 37.3109C28.9912 37.2208 29.115 37.1417 29.2286 37.1194C29.4935 37.0674 29.673 36.9254 29.8259 36.7122C29.8946 36.6165 30.0095 36.5322 30.1209 36.4937C30.3647 36.4092 30.545 36.2368 30.7402 36.088C30.9365 35.9384 31.106 35.7542 31.2953 35.5947C31.3728 35.5295 31.4656 35.4711 31.5614 35.4419C31.7035 35.3988 31.8229 35.3256 31.9483 35.2507C32.1692 35.1188 32.353 34.9653 32.4493 34.7196C32.5037 34.5807 32.5956 34.4674 32.7223 34.3876C32.9428 34.2487 33.0782 34.0483 33.1677 33.8078C33.2978 33.459 33.4242 33.1092 33.5035 32.745C33.5208 32.6658 33.525 32.578 33.5094 32.4992C33.4939 32.4216 33.463 32.3328 33.4086 32.2802C33.2601 32.1368 33.1083 31.99 32.9347 31.8814C32.7011 31.7353 32.4344 31.6723 32.1587 31.7475C32.0098 31.7881 31.873 31.778 31.7325 31.7269C31.3968 31.605 31.2153 31.2954 31.2719 30.938C31.3198 30.636 31.6045 30.3561 31.915 30.3544C32.1433 30.353 32.3696 30.341 32.5968 30.3305C32.6955 30.326 32.8122 30.3465 32.8931 30.3986C33.069 30.5119 33.2811 30.5567 33.4429 30.6831C33.5954 30.8022 33.7763 30.8489 33.9384 30.9389C34.0096 30.9784 34.0755 31.0332 34.1318 31.0923C34.2172 31.1819 34.2773 31.3019 34.3745 31.3728C34.6202 31.552 34.6921 31.7975 34.6944 32.0804C34.6857 32.0995 34.6684 32.119 34.6698 32.1372C34.6855 32.362 34.7033 32.5867 34.7222 32.8111C34.7291 32.8934 34.7614 32.9797 34.7456 33.0566C34.7001 33.2787 34.6422 33.4988 34.5765 33.7159C34.547 33.8133 34.4931 33.9052 34.4404 33.9935C34.2606 34.2951 34.0767 34.5941 33.8932 34.8935C33.8716 34.9286 33.8326 34.9554 33.8189 34.9926C33.7391 35.2081 33.6577 35.4185 33.4549 35.5571C33.2843 35.6738 33.2144 35.9008 33.0053 35.9785C32.8181 36.1978 32.5548 36.3423 32.4086 36.6043C32.3365 36.7336 32.2057 36.8061 32.0662 36.8619C31.8742 36.9385 31.6821 37.0173 31.499 37.1127C31.2972 37.2179 31.1026 37.338 30.9659 37.5303C30.8537 37.6878 30.709 37.7947 30.5134 37.8368C30.3224 37.8779 30.1816 37.9923 30.0819 38.1652C29.9361 38.418 29.7121 38.5537 29.4176 38.559C29.2447 38.5623 29.0939 38.6117 28.9594 38.7241C28.8008 38.8566 28.612 38.9467 28.4629 39.097C28.3181 39.2432 28.0927 39.2763 27.9484 39.4402C27.8856 39.5113 27.7734 39.5607 27.6767 39.576C27.4674 39.609 27.2827 39.7038 27.0859 39.7671C26.9107 39.8236 26.7223 39.8397 26.54 39.8751C26.4996 39.8831 26.4599 39.8959 26.4204 39.9085C26.2246 39.971 26.0326 40.059 25.8319 40.0897C25.6304 40.1206 25.42 40.0958 25.2137 40.0932C25.1105 40.0918 25.0066 40.0921 24.9043 40.0797C24.6169 40.0454 24.3311 39.988 24.0392 40.0295C23.6857 39.9099 23.2884 40.0351 22.9497 39.8338C22.6823 39.8536 22.4773 39.7202 22.2661 39.5789C22.0604 39.4413 21.8366 39.3292 21.6145 39.2182C21.4114 39.1169 21.2563 38.9432 21.0317 38.8702C20.8714 38.8181 20.7403 38.6838 20.6957 38.5209C20.6241 38.259 20.4374 38.0449 20.4043 37.7702C20.3978 37.7154 20.3667 37.6961 20.3249 37.711C20.306 37.7179 20.2805 37.7207 20.2698 37.7345C20.1805 37.8485 20.0673 37.9534 20.0121 38.0828C19.8849 38.3804 19.6627 38.5886 19.4264 38.7911C19.348 38.8582 19.2728 38.93 19.2029 39.0058C19.0771 39.1422 18.9691 39.2981 18.8295 39.4182C18.7059 39.5246 18.5422 39.5831 18.4103 39.6818C18.3086 39.7578 18.2046 39.8161 18.0852 39.8583C17.969 39.8993 17.8574 39.9563 17.7492 40.0162C17.6016 40.098 17.45 40.1553 17.2787 40.1622C17.1756 40.1662 17.0703 40.1771 16.9715 40.2048C16.8053 40.2513 16.6451 40.2461 16.4803 40.2002C16.3606 40.1668 16.2361 40.1509 16.1151 40.1217C16.0127 40.0971 15.9124 40.0821 15.8091 40.1167C15.6663 40.1646 15.5277 40.1537 15.3819 40.1099C15.2653 40.0749 15.137 40.0635 15.0145 40.0662C14.7937 40.071 14.6017 40.0053 14.4469 39.8542C14.2894 39.7005 14.1154 39.622 13.8909 39.6246C13.7005 39.627 13.5356 39.5416 13.3798 39.4232C13.1995 39.286 13.0001 39.1733 12.8039 39.0586C12.7154 39.0068 12.6165 38.9465 12.5192 38.9407C12.1056 38.9161 11.784 38.6767 11.4406 38.4937C11.1689 38.3492 10.932 38.1429 10.6339 38.0408C10.559 38.0151 10.4892 37.9558 10.4333 37.8966C10.3336 37.7906 10.2354 37.6873 10.1128 37.6044C10.0291 37.5478 9.947 37.4726 9.89596 37.3867C9.68761 37.036 9.3469 36.8275 9.04443 36.5798C8.94892 36.5016 8.82765 36.4482 8.76615 36.3381C8.63537 36.1036 8.40032 35.9566 8.29654 35.6887C8.14998 35.3102 7.93616 34.9576 7.74669 34.5855C7.66476 34.6282 7.57579 34.6508 7.52148 34.7068C7.30516 34.9303 7.02315 35.0731 6.8137 35.3058C6.66839 35.4672 6.46737 35.5497 6.25246 35.5296C5.79829 35.4873 5.39718 35.6432 5.00731 35.8379C4.83111 35.9259 4.65724 35.9615 4.46668 35.9304C4.34432 35.9104 4.22305 35.8816 4.10007 35.8683C3.95336 35.8525 3.81991 35.8143 3.68803 35.7419C3.56271 35.6729 3.4185 35.6373 3.28178 35.5899C3.0714 35.5168 2.91048 35.3735 2.85227 35.1685C2.7889 34.9451 2.64641 34.7582 2.59038 34.5415C2.53856 34.3408 2.48284 34.1431 2.40902 33.9505C2.33645 33.7609 2.35237 33.563 2.45272 33.4086C2.59069 33.1967 2.63392 32.9419 2.78266 32.7428C2.9328 32.5415 2.97744 32.2913 3.13101 32.0865C3.26274 31.9111 3.35248 31.6929 3.37059 31.455C3.38323 31.2891 3.45861 31.1393 3.56536 31.0037C3.70739 30.823 3.7937 30.6135 3.826 30.3839C3.83802 30.2985 3.76045 30.2052 3.68773 30.2288C3.46283 30.3015 3.24307 30.3065 3.01927 30.2179C2.91922 30.1782 2.81419 30.2007 2.72554 30.2689C2.53513 30.4156 2.3224 30.4593 2.08221 30.4499C1.68532 30.4343 1.30497 30.5411 0.928211 30.6549C0.869059 30.6728 0.81053 30.6964 0.749974 30.7059C0.445477 30.7538 0.167044 30.5904 0.0481171 30.3099C-0.0765846 30.0161 0.0552988 29.6742 0.280667 29.5397C0.366819 29.4884 0.47123 29.4395 0.567838 29.4387C1.03371 29.4344 1.4651 29.3078 1.88041 29.1085C2.01276 29.045 2.15806 28.9841 2.3004 29.0212C2.52077 29.0788 2.72538 29.0187 2.90331 28.929C3.23418 28.7623 3.53758 28.7689 3.84723 28.9574C3.86471 28.968 3.88594 28.9726 3.90545 28.9797C3.98676 29.0099 4.12348 28.9267 4.14236 28.8324C4.15438 28.7718 4.16171 28.7102 4.16842 28.6489C4.17982 28.5458 4.16015 28.4277 4.20432 28.3423C4.35774 28.0463 4.35056 27.6964 4.54206 27.4111C4.61885 27.2966 4.6677 27.1346 4.66005 26.9981C4.6382 26.6116 4.81128 26.2734 4.89166 25.9135C4.95425 25.6331 5.01012 25.3459 5.15043 25.0876C5.15979 25.0703 5.15714 25.0467 5.16307 25.0269C5.22862 24.807 5.21817 24.5727 5.27451 24.3547C5.33085 24.1367 5.44588 23.9342 5.53 23.7227C5.55263 23.6661 5.56808 23.6013 5.5659 23.5409C5.55856 23.3449 5.64596 23.1823 5.72009 23.0093C5.80078 22.8211 5.87445 22.6209 5.89802 22.4197C5.92284 22.2075 5.97309 22.0164 6.08312 21.8347C6.16085 21.7065 6.18348 21.5644 6.13541 21.4155C6.09608 21.2935 6.10575 21.1732 6.13993 21.0485C6.23342 20.7088 6.31302 20.3667 6.29319 20.0089C6.28492 19.8587 6.33361 19.7145 6.43834 19.6081C6.58629 19.4576 6.67058 19.267 6.79169 19.1011C6.91296 18.9352 7.06903 18.7965 7.15549 18.6022C7.18764 18.5298 7.25272 18.467 7.31468 18.4135C7.50197 18.2515 7.69597 18.0971 7.8856 17.9378C8.17589 17.6938 8.42093 17.4166 8.52019 17.0383C8.55296 16.9138 8.6143 16.8077 8.70591 16.7196C8.96218 16.4735 9.16788 16.1941 9.30851 15.8648C9.34752 15.7732 9.42447 15.6936 9.49673 15.6212C9.672 15.4456 9.86693 15.2884 10.0307 15.103C10.1799 14.9342 10.3428 14.7733 10.4236 14.5485C10.5142 14.2968 10.7029 14.1351 10.9722 14.0979C11.1222 14.0772 11.2491 14.0121 11.3779 13.9462C11.5539 13.8563 11.7334 13.844 11.9219 13.8971C12.0207 13.925 12.1231 13.9678 12.2218 13.9628C12.4843 13.9494 12.7153 14.0099 12.9128 14.1863C13.2651 14.2709 13.5142 14.5409 13.8262 14.699C13.9334 14.7533 14.0322 14.8419 14.1082 14.9365C14.2557 15.12 14.4241 15.2663 14.6526 15.3312C14.7781 15.367 14.8797 15.4373 14.9597 15.5341C15.081 15.681 15.2266 15.7961 15.3919 15.8846C15.523 15.9549 15.6641 15.9839 15.8124 15.9271C15.9285 15.8826 16.0438 15.8261 16.1646 15.8057C16.4563 15.7562 16.7243 15.658 16.9692 15.4909C17.1099 15.3949 17.268 15.347 17.4414 15.3659C17.6222 15.3855 17.7595 15.3161 17.8792 15.18C18.0247 15.0145 18.2193 14.9417 18.4384 14.9591C18.7518 14.9841 19.0459 14.8438 19.3588 14.8613C19.437 14.8657 19.5298 14.8382 19.5955 14.7945C19.8538 14.623 20.1354 14.5966 20.4318 14.6287C20.4717 14.6331 20.5142 14.62 20.5548 14.6113C20.9493 14.5274 21.2429 14.6774 21.4615 15.0018L21.462 15.0024Z" fill="#070607"/>
  <path d="M34.9723 31.7027C34.9831 31.5997 35.0167 31.4928 34.9996 31.3947C34.9678 31.2102 34.9478 31.0308 34.953 30.8411C34.958 30.6595 34.8934 30.4788 34.9007 30.2883C34.9088 30.0816 34.8611 29.8769 34.7738 29.6836C34.6752 29.4655 34.6652 29.2435 34.764 29.0194C34.884 28.747 34.886 28.4541 34.8885 28.1657C34.8918 27.7933 34.8993 27.4228 34.9555 27.0537C34.9772 26.9112 34.9848 26.7649 34.9826 26.6207C34.9804 26.4729 34.9931 26.3301 35.0505 26.1937C35.1476 25.9632 35.0883 25.6941 35.2291 25.4747C35.2305 25.2885 35.2467 25.1009 35.2288 24.9167C35.2122 24.7458 35.2224 24.5846 35.2895 24.429C35.4852 23.9748 35.633 23.5032 35.8003 23.0385C35.8571 22.8806 35.933 22.7406 36.0264 22.6003C36.1625 22.3962 36.2612 22.167 36.3759 21.9487C36.4236 21.8579 36.4563 21.7531 36.5229 21.6793C36.6746 21.5114 36.8302 21.342 37.0078 21.2036C37.2975 20.9779 37.7688 21.1432 37.8717 21.4953C37.9329 21.7046 37.9318 21.9198 37.7626 22.0773C37.4275 22.3894 37.2697 22.7856 37.1822 23.2187C37.1525 23.365 37.0827 23.4855 37.008 23.6123C36.8931 23.807 36.8006 24.0165 36.7143 24.2261C36.6676 24.3396 36.6194 24.4699 36.6314 24.5865C36.6556 24.8218 36.5546 25.0344 36.5485 25.2624C36.5424 25.4895 36.5174 25.716 36.4986 25.9426C36.4934 26.0042 36.4986 26.0759 36.4689 26.1247C36.323 26.3643 36.4271 26.6649 36.2671 26.9013C36.1588 27.0615 36.124 27.2487 36.1485 27.4385C36.1732 27.6299 36.1415 27.8084 36.0853 27.9898C36.0358 28.149 36.0266 28.3108 36.0779 28.4788C36.1504 28.7147 36.1015 28.9732 36.2161 29.2071C36.2707 29.3187 36.2393 29.4523 36.1891 29.5708C36.1043 29.7706 36.0676 29.9666 36.2059 30.1628C36.2398 30.2108 36.2644 30.2811 36.2596 30.3384C36.2345 30.6296 36.3464 30.9124 36.3097 31.2024C36.2822 31.4196 36.3289 31.6183 36.4567 31.79C36.6167 32.0051 36.6613 32.2376 36.6164 32.4964C36.5872 32.6643 36.6056 32.8243 36.7024 32.9736C36.7466 33.0417 36.78 33.1222 36.7967 33.2017C36.9162 33.7735 37.1681 34.2954 37.4038 34.8232C37.5135 35.0691 37.6304 35.3107 37.8132 35.5142C37.9272 35.6411 37.9984 35.7887 37.9995 35.9643C38.0004 36.1182 38.0571 36.2468 38.1771 36.3462C38.2909 36.4405 38.363 36.5608 38.4321 36.6925C38.5565 36.9298 38.6945 37.1611 38.9185 37.329C39.036 37.4172 39.0925 37.5561 39.1429 37.6958C39.2081 37.8765 39.3644 37.9569 39.5387 37.9322C39.8039 37.8946 40.0721 37.9455 40.3387 37.8546C40.5499 37.7827 40.7938 37.8905 41.0151 37.8138C41.2094 37.7465 41.3972 37.661 41.5903 37.5898C41.6862 37.5545 41.7963 37.55 41.8843 37.5027C42.0363 37.4211 42.1941 37.386 42.3625 37.3885C42.5969 37.3917 42.8033 37.3145 43.0121 37.2099C43.3812 37.0248 43.7653 36.8694 44.1054 36.6298C44.4177 36.5711 44.6429 36.325 44.9446 36.2399C45.0415 36.2126 45.124 36.1386 45.2188 36.0993C45.6778 35.9081 45.7849 35.529 45.7644 35.0834C45.7586 34.9567 45.7207 34.8318 45.6213 34.7477C45.4145 34.5729 45.3171 34.3017 45.0824 34.1512C45.0334 34.1197 45.0018 34.0571 44.9691 34.0048C44.7312 33.6255 44.4163 33.3434 43.9917 33.1812C43.8811 33.1389 43.7759 33.0515 43.6988 32.9593C43.5625 32.7962 43.4023 32.6493 43.2195 32.5699C42.9389 32.4481 42.7516 32.2432 42.5556 32.0282C42.4182 31.8774 42.2938 31.7116 42.1067 31.6047C41.8944 31.4833 41.8041 31.2715 41.7768 31.0335C41.7672 30.9511 41.7693 30.8667 41.752 30.7863C41.7346 30.7062 41.7215 30.6076 41.6686 30.5559C41.4315 30.3246 41.449 29.9777 41.2708 29.7183C41.2074 29.626 41.1971 29.4773 41.2071 29.3579C41.2446 28.9066 41.1425 28.497 40.9003 28.1154C40.8463 28.0304 40.8108 27.9227 40.8015 27.8223C40.7651 27.4306 40.6874 27.046 40.6243 26.6588C40.5881 26.4358 40.6129 26.2037 40.5953 25.9768C40.5777 25.749 40.4447 25.5527 40.4203 25.3184C40.3863 24.9916 40.3406 24.6631 40.2494 24.343C40.2159 24.225 40.2059 24.103 40.1469 23.989C40.0801 23.8603 40.047 23.7195 40.0419 23.5698C40.0377 23.4476 40.0094 23.3249 39.9804 23.2052C39.9507 23.0827 39.9404 22.964 39.9529 22.8366C39.9812 22.5496 39.9796 22.2641 39.91 21.9779C39.8519 21.7389 39.8863 21.4808 39.7708 21.2514C39.7717 20.9416 39.7581 20.6307 39.7781 20.3221C39.7929 20.0938 39.8229 19.8664 39.7583 19.6444C39.6979 19.437 39.7012 19.2365 39.7586 19.0312C39.7986 18.8884 39.8174 18.7355 39.7402 18.6059C39.6156 18.397 39.6089 18.1747 39.6122 17.9444C39.613 17.8866 39.5957 17.8043 39.5559 17.7744C39.3107 17.5893 39.1822 17.336 39.0964 17.0518C39.085 17.0142 39.0547 16.9786 39.0249 16.951C38.9815 16.9105 38.9283 16.8444 38.8833 16.8476C38.6305 16.8656 38.3891 16.8437 38.1523 16.7431C38.0813 16.7129 37.9789 16.7098 37.9071 16.7371C37.648 16.8356 37.3757 16.8097 37.1104 16.8383C36.6485 16.8881 36.2253 17.0257 35.8452 17.2959C35.7616 17.3553 35.67 17.4154 35.5731 17.4413C35.4301 17.4794 35.2945 17.5245 35.1836 17.6232C35.033 17.7571 34.8177 17.7007 34.6605 17.8053C34.5057 17.9083 34.366 18.0358 34.206 18.1293C33.9309 18.2901 33.57 18.2262 33.3545 17.9781C33.1517 17.7447 32.9705 17.4928 32.7709 17.2565C32.6646 17.1306 32.5498 17.0073 32.4201 16.9073C32.3076 16.8205 32.1777 16.7515 32.0251 16.737C31.9456 16.7295 31.8501 16.709 31.795 16.6583C31.5899 16.4696 31.3475 16.4841 31.0946 16.4699C30.7855 16.4525 30.4764 16.4983 30.1653 16.4344C29.9644 16.393 29.7623 16.4804 29.565 16.5584C29.3139 16.6577 29.0725 16.5839 28.8704 16.4081C28.7237 16.2806 28.6305 16.1178 28.637 15.9181C28.6417 15.7735 28.6661 15.6296 28.6817 15.4854C28.744 15.432 28.8009 15.3703 28.8696 15.327C28.9737 15.2615 29.0809 15.1739 29.1955 15.1575C29.4812 15.1168 29.772 15.0952 30.0607 15.0951C30.411 15.0949 30.7557 15.1864 31.1084 15.182C31.1895 15.1811 31.2787 15.1953 31.3508 15.2303C31.5817 15.3425 31.8256 15.3767 32.0763 15.3706C32.2514 15.3664 32.4053 15.4208 32.5418 15.5199C32.66 15.6056 32.7764 15.6852 32.915 15.7397C33.0068 15.7757 33.0998 15.8466 33.1563 15.9273C33.3075 16.143 33.512 16.2686 33.7542 16.3526C33.8506 16.386 33.9363 16.4493 34.0309 16.4891C34.0638 16.503 34.116 16.4993 34.1478 16.4821C34.2752 16.4134 34.3978 16.3365 34.5222 16.2625C34.8607 16.262 35.1376 16.0208 35.4799 16.0214C35.6 16.0215 35.7316 15.9871 35.8384 15.9312C36.1181 15.7846 36.4101 15.7155 36.7233 15.6769C37.0902 15.6317 37.4472 15.5185 37.82 15.489C38.0032 15.4747 38.1843 15.4339 38.3641 15.3698C38.6294 15.2752 38.8927 15.3144 39.1251 15.5054C39.2353 15.5961 39.3725 15.6532 39.4939 15.7312C39.5629 15.7756 39.6355 15.8219 39.6874 15.8833C39.8755 16.1058 40.0846 16.3039 40.3186 16.4771C40.4751 16.5929 40.5889 16.7487 40.6107 16.9395C40.6402 17.1983 40.7868 17.4003 40.8939 17.6219C40.9298 17.696 40.9861 17.76 41.0236 17.8335C41.1014 17.9862 41.1416 18.1508 41.0794 18.3153C40.9936 18.5426 41.0178 18.7658 41.0893 18.9841C41.1632 19.2101 41.1818 19.432 41.0972 19.6547C41.0431 19.7976 41.0496 19.9397 41.0744 20.0835C41.1942 20.7747 41.2568 21.4098 41.2624 21.9888C41.2641 22.1986 41.3 22.4018 41.3732 22.598C41.4314 22.7542 41.4489 22.9154 41.4729 23.0801C41.53 23.4706 41.4971 23.8643 41.5526 24.2537C41.5935 24.5403 41.6396 24.8242 41.7098 25.1054C41.7596 25.3047 41.7766 25.5121 41.8247 25.7119C41.8826 25.9521 41.9934 26.1848 42.0154 26.4267C42.0365 26.6585 42.1346 26.865 42.1599 27.0928C42.1894 27.3591 42.3599 27.5932 42.3622 27.8712C42.3624 27.8978 42.4078 27.9391 42.4395 27.9478C42.5186 27.97 42.6052 27.9995 42.6828 27.987C42.954 27.9436 43.2189 27.9839 43.485 28.0222C44.0195 28.099 44.5597 28.0697 45.0961 28.1082C45.4095 28.0447 45.7074 28.2036 46.0215 28.1722C46.1162 28.1627 46.232 28.2048 46.3144 28.2593C46.5982 28.4469 46.914 28.5296 47.2421 28.5854C47.3023 28.5957 47.3652 28.6128 47.4177 28.6431C47.5791 28.7363 47.7339 28.8384 47.9252 28.8675C47.9825 28.8763 48.0364 28.9222 48.0868 28.9581C48.3682 29.1578 48.4604 29.5511 48.2972 29.8458C48.1275 30.1519 47.7504 30.3223 47.4481 30.1706C47.2062 30.0493 46.9332 30.0076 46.7091 29.8569C46.5107 29.7234 46.2985 29.6624 46.0627 29.6828C45.9147 29.6958 45.7788 29.6527 45.6363 29.6228C45.3338 29.5591 45.0388 29.4523 44.7234 29.4497C44.6226 29.4489 44.5216 29.4115 44.4216 29.3877C44.0738 29.3052 43.5463 29.2654 43.1936 29.2883C43.0705 29.2963 42.9462 29.2866 42.8224 29.2839C42.6793 29.2808 42.5968 29.383 42.6325 29.5268C42.6771 29.7069 42.7115 29.8917 42.7791 30.0632C42.8312 30.1954 42.9141 30.3217 43.0076 30.4298C43.1332 30.5751 43.2335 30.7256 43.2613 30.9188C43.2774 31.0305 43.3469 31.1111 43.4413 31.1587C43.8472 31.3641 44.1953 31.6675 44.6153 31.849C44.671 31.873 44.7328 31.9094 44.7645 31.9579C44.9155 32.1883 45.1698 32.3116 45.3374 32.5226C45.4821 32.7046 45.6695 32.8293 45.8688 32.9415C45.9583 32.9917 46.0673 33.0348 46.1226 33.113C46.2673 33.3176 46.4447 33.4888 46.6152 33.6686C46.6698 33.7264 46.714 33.8089 46.7291 33.8868C46.797 34.2355 46.9837 34.5381 47.0982 34.8683C47.1533 35.0274 47.2145 35.1825 47.1691 35.3519C47.1352 35.4783 47.1694 35.5974 47.1822 35.7207C47.2123 36.0102 47.1182 36.2607 46.8777 36.428C46.6017 36.6198 46.3739 36.8552 46.168 37.1164C46.09 37.2154 45.9954 37.2909 45.8796 37.3472C45.7691 37.4009 45.6694 37.4768 45.566 37.5445C45.5141 37.5787 45.4693 37.6343 45.4129 37.6497C45.1521 37.721 44.9202 37.8706 44.6653 37.9433C44.3254 38.0402 44.0038 38.1727 43.6837 38.3157C43.5895 38.3577 43.4912 38.3959 43.3909 38.4168C43.1842 38.4599 42.9951 38.542 42.8296 38.6681C42.6932 38.772 42.547 38.8345 42.3806 38.8697C42.2603 38.8952 42.1453 38.9467 42.0284 38.988C41.97 39.0086 41.9122 39.0522 41.8548 39.0511C41.6009 39.0461 41.3702 39.1511 41.1267 39.1884C40.9636 39.2134 40.7984 39.2065 40.6398 39.2735C40.5675 39.3041 40.4711 39.3125 40.3954 39.2932C40.1915 39.2412 39.9835 39.269 39.7831 39.2427C39.5749 39.2154 39.3701 39.2253 39.1641 39.2145C39.0352 39.2078 38.9236 39.1627 38.822 39.0825C38.5465 38.8649 38.2687 38.65 37.9911 38.4351C37.8547 38.3294 37.7526 38.198 37.7284 38.0259C37.6895 37.749 37.5541 37.5289 37.3935 37.3039C37.1918 37.0215 36.9551 36.7559 36.8611 36.4018C36.826 36.2693 36.7146 36.1555 36.632 36.0373C36.5847 35.9698 36.5112 35.9178 36.4744 35.846C36.3515 35.6063 36.0631 35.4661 36.0355 35.1796C36.0091 34.905 35.8257 34.6847 35.8154 34.4059C35.8103 34.2651 35.7425 34.1267 35.7021 33.9873C35.6278 33.7303 35.4775 33.498 35.466 33.2191C35.4629 33.1416 35.4126 33.0624 35.3727 32.9905C35.2107 32.6991 35.0719 32.4062 35.086 32.0558C35.0906 31.9401 35.0126 31.821 34.9723 31.7035V31.7027Z" fill="#070607"/>
  <path d="M28.4312 5.48499C28.2036 5.53821 27.9689 5.51293 27.7253 5.41335C27.5578 5.34499 27.3597 5.34734 27.1743 5.32861C26.9408 5.30504 26.7311 5.24088 26.5541 5.07358C26.4817 5.00506 26.3735 4.97572 26.2845 4.92328C26.0071 4.76003 25.8605 4.51656 25.9145 4.19614C25.9491 3.99122 25.9378 3.78395 25.9779 3.58293C26.0142 3.40064 26.084 3.22522 26.1316 3.0448C26.1951 2.80305 26.3559 2.65165 26.5758 2.55691C26.9895 2.37852 27.4989 2.69083 27.5473 3.14095C27.5764 3.41064 27.4729 3.62445 27.3093 3.82392C27.2881 3.84982 27.2804 3.92457 27.2971 3.93752C27.4268 4.03866 27.5618 4.13355 27.7004 4.2222C27.7299 4.24109 27.7825 4.23484 27.8214 4.22626C27.9828 4.19099 28.1431 4.15073 28.3033 4.11125C28.3552 4.09845 28.4558 3.97998 28.4543 3.92769C28.4496 3.78317 28.4461 3.63834 28.4315 3.49459C28.423 3.41281 28.3862 3.33416 28.3751 3.25238C28.3342 2.94882 28.1889 2.47717 28.0319 2.24696C27.6731 1.72068 27.7443 1.73379 27.0777 1.87629C26.8068 1.93419 26.5951 2.10603 26.3847 2.27427C26.3041 2.33889 26.2348 2.42332 26.1455 2.47061C25.9468 2.57596 25.8234 2.72641 25.7912 2.95022C25.7728 3.07866 25.6946 3.17668 25.6251 3.28047C25.3973 3.62148 25.3598 4.01588 25.3505 4.40669C25.3466 4.57197 25.3586 4.73303 25.3166 4.89706C25.2852 5.01942 25.3214 5.14459 25.3771 5.25883C25.3949 5.2952 25.4166 5.33938 25.4491 5.35732C25.6472 5.46689 25.8358 5.59893 26.0746 5.61344C26.2401 5.62359 26.4053 5.64185 26.5697 5.66479C26.7159 5.68524 26.8498 5.73969 26.9588 5.84473C27.2655 6.13986 27.1966 6.65741 26.821 6.85156C26.6924 6.91805 26.5517 6.96174 26.4242 7.0301C26.1449 7.17978 25.8692 7.18617 25.5983 7.02058C25.4716 6.94316 25.3411 6.88854 25.1933 6.87278C25.153 6.86857 25.1082 6.85733 25.0762 6.83454C24.841 6.66707 24.6019 6.50602 24.3606 6.34761C24.2664 6.2858 24.1912 6.15517 24.1629 6.04202C24.1172 5.85925 24.066 5.68382 23.9773 5.51683C23.9397 5.44597 23.9144 5.35873 23.9151 5.27929C23.9163 5.09138 23.9088 4.90643 23.8651 4.72273C23.8511 4.66358 23.8459 4.59616 23.8595 4.53795C23.9112 4.31492 23.9143 4.08518 23.9516 3.86309C23.9887 3.64131 24.0356 3.41532 24.0967 3.19885C24.169 2.94305 24.2837 2.69769 24.3717 2.44438C24.4206 2.30361 24.5208 2.19062 24.6553 2.12538C24.8287 2.04141 24.9793 1.92514 25.0805 1.76954C25.2766 1.46738 25.5763 1.27838 25.826 1.03537C25.9515 0.913325 26.1346 0.904886 26.2596 0.801722C26.4643 0.632852 26.6896 0.558725 26.9493 0.570586C27.3187 0.418104 27.6861 0.556228 28.0536 0.582292C28.1331 0.58791 28.2127 0.628485 28.287 0.663757C28.4177 0.72603 28.5423 0.801424 28.6735 0.862292C28.7908 0.916605 28.891 0.993702 28.9542 1.10108C29.0402 1.24701 29.1524 1.36359 29.2763 1.47581C29.4036 1.59114 29.4809 1.74831 29.4867 1.91593C29.4992 2.27459 29.6026 2.60749 29.718 2.94148C29.7501 3.03466 29.7657 3.15639 29.7336 3.24473C29.6382 3.50708 29.62 3.7771 29.657 4.04226C29.7052 4.38874 29.5825 4.70213 29.4979 5.01662C29.4233 5.29365 29.178 5.44535 28.8892 5.48233C28.7466 5.5006 28.5997 5.48546 28.4316 5.48546L28.4312 5.48499Z" fill="#070607"/>
  <path d="M2.56207 11.2277C2.62965 11.0249 2.60499 10.8607 2.5858 10.6953C2.56301 10.4986 2.63621 10.3274 2.7489 10.1728C2.79743 10.1061 2.88093 10.0588 2.91246 9.98688C3.06244 9.64493 3.339 9.44141 3.64818 9.26114C3.75462 9.19918 3.85467 9.12896 3.96782 9.07433C4.15229 8.98521 4.28168 8.7795 4.4994 8.7678C4.74521 8.75469 4.99805 8.76031 5.23919 8.80479C5.42288 8.83865 5.61844 8.83242 5.78778 8.89422C5.9721 8.96149 6.15205 8.96257 6.33715 8.97084C6.49041 8.97771 6.62667 9.03765 6.72452 9.14722C6.83736 9.27348 6.96612 9.37102 7.1083 9.45889C7.27468 9.56174 7.37956 9.71578 7.42139 9.90619C7.48319 10.1871 7.62646 10.4446 7.63208 10.7443C7.63474 10.8824 7.68608 11.0379 7.76412 11.1523C7.91645 11.3756 7.93049 11.6079 7.91894 11.8647C7.9088 12.0912 7.93253 12.3136 7.86245 12.5401C7.80845 12.7144 7.80377 12.9078 7.87025 13.0921C7.89085 13.1492 7.91254 13.2226 7.89397 13.2742C7.80048 13.5346 7.82967 13.8067 7.79846 14.0728C7.79378 14.1133 7.78504 14.162 7.75944 14.1896C7.52065 14.4473 7.44698 14.825 7.14358 15.0349C7.12657 15.0466 7.1094 15.0602 7.09738 15.0766C6.9513 15.2787 6.81473 15.4891 6.55596 15.5697C6.32045 15.6433 6.13301 15.8346 5.868 15.8433C5.78934 15.846 5.71317 15.8998 5.63405 15.924C5.32487 16.0185 5.04659 15.9053 4.8966 15.6269C4.75317 15.3605 4.84213 15.0186 5.097 14.8598C5.13211 14.8379 5.16754 14.8076 5.20625 14.8014C5.48999 14.7552 5.69429 14.5985 5.85551 14.3667C5.90093 14.3015 5.99082 14.269 6.04545 14.2082C6.12754 14.1167 6.23726 14.0231 6.26301 13.9135C6.32138 13.6644 6.45795 13.4606 6.5672 13.2388C6.64758 13.0759 6.70985 12.8906 6.66521 12.6961C6.66053 12.6758 6.65522 12.6559 6.65023 12.6357C6.61995 12.6473 6.57547 12.6503 6.56205 12.6721C6.53006 12.7245 6.51242 12.7857 6.48932 12.8435C6.47402 12.882 6.46498 12.9246 6.44328 12.959C6.39927 13.0284 6.36306 13.1213 6.29782 13.1555C6.03484 13.2937 5.9078 13.5951 5.63139 13.7055C5.52043 13.7498 5.38683 13.7595 5.26571 13.7517C5.0803 13.7395 4.89785 13.6967 4.70869 13.7075C4.63003 13.712 4.54591 13.6803 4.46928 13.6518C4.29604 13.5872 4.1473 13.4595 3.94862 13.4589C3.91054 13.4589 3.87214 13.4294 3.83438 13.412C3.8016 13.3969 3.10021 12.801 3.08585 12.7673C3.01094 12.5916 2.88858 12.4556 2.75529 12.3208C2.62138 12.1855 2.55568 12.0091 2.56083 11.8104C2.56613 11.6032 2.56207 11.3956 2.56207 11.2275V11.2277ZM6.39817 10.9297C6.39817 10.9085 6.40504 10.8846 6.39724 10.8677C6.18233 10.4058 5.80963 10.1191 5.32705 10.014C4.96512 9.93522 4.63565 10.0412 4.41699 10.3872C4.26342 10.6302 4.0844 10.8567 3.96751 11.1223C3.93255 11.2017 3.91928 11.2763 3.96111 11.3572C3.99888 11.4301 4.0471 11.5028 4.06255 11.5811C4.11546 11.8491 4.29057 12.0008 4.51345 12.1354C4.67857 12.2351 4.86196 12.258 5.03364 12.3244C5.11761 12.3568 5.1958 12.3219 5.25838 12.2618C5.31785 12.2047 5.37137 12.1418 5.42959 12.0832C5.46283 12.0498 5.47127 12.0119 5.43849 11.9734C5.35905 11.8802 5.26337 11.7983 5.19767 11.6966C5.1187 11.5746 5.07484 11.4363 5.11838 11.2842C5.21577 10.9436 5.48578 10.7729 5.82648 10.8506C5.92559 10.8732 6.0158 10.935 6.1149 10.9581C6.192 10.9761 6.27675 10.9636 6.35791 10.9606C6.37195 10.9601 6.38522 10.9402 6.39817 10.9297Z" fill="#070607"/>
  <path d="M15.2892 11.8908C15.1467 11.8594 15.0081 11.8838 14.8647 11.9245C14.5708 12.0078 14.3168 11.8991 14.1505 11.667C13.9226 11.3489 13.6657 11.0519 13.4566 10.7209C13.4018 10.6343 13.3359 10.538 13.328 10.4417C13.3106 10.2297 13.2168 10.0452 13.1588 9.84843C13.1062 9.66973 13.0534 9.49118 12.9977 9.31341C12.9589 9.1898 12.9632 9.06964 13.0024 8.94681C13.0647 8.75109 13.1778 8.57441 13.1866 8.35684C13.1903 8.26414 13.261 8.16317 13.3255 8.08591C13.4444 7.94342 13.5764 7.8109 13.7114 7.68308C13.8525 7.54964 14.0205 7.47207 14.2213 7.5022C14.406 7.52998 14.5915 7.55542 14.7737 7.59521C15.0621 7.65827 15.2759 7.90393 15.3131 8.20827C15.3255 8.3105 15.3202 8.4149 15.3246 8.51822C15.3269 8.57363 15.4014 8.61545 15.4604 8.5897C15.6296 8.51572 15.814 8.47717 15.955 8.33999C16.0773 8.22075 16.2392 8.15847 16.4073 8.15535C16.5771 8.15223 16.7336 8.1048 16.8955 8.06968C17.2022 8.00319 17.4701 8.14537 17.6079 8.43816C17.6694 8.56863 17.7223 8.70301 17.7826 8.83411C17.8733 9.03108 17.9017 9.22632 17.8116 9.43499C17.7714 9.52832 17.754 9.63414 17.7414 9.73606C17.7144 9.95346 17.6215 10.1245 17.448 10.264C17.3011 10.382 17.2079 10.5472 17.1336 10.721C17.0199 10.9868 16.8271 11.1713 16.5395 11.2191C16.3372 11.2526 16.1981 11.3552 16.0851 11.5129C16.0489 11.5635 16.013 11.6149 15.9717 11.661C15.8242 11.8257 15.6357 11.8989 15.4172 11.8995C15.3758 11.8995 15.3344 11.8941 15.2893 11.8908H15.2892Z" fill="#FF8CBD"/>
  <path d="M34.9579 6.23674C35.0937 6.15262 35.2587 6.09018 35.3676 5.97485C35.5872 5.74245 35.8379 5.58623 36.1402 5.48354C36.3148 5.42423 36.4345 5.26348 36.5647 5.1277C36.7342 4.95087 36.9519 4.90342 37.1938 4.96382C37.3204 4.9955 37.4257 5.05668 37.506 5.15531C37.6235 5.29968 37.744 5.44342 37.8443 5.59965C37.9358 5.74199 37.972 5.90587 37.9232 6.07661C37.8322 6.39406 37.7685 6.71807 37.6497 7.02943C37.5634 7.25589 37.4459 7.4321 37.2268 7.53792C37.1142 7.59223 37.0037 7.65185 36.9479 7.7739C36.8044 8.08698 36.5062 8.2599 36.2817 8.49916C36.2176 8.56768 36.101 8.5939 36.0035 8.62199C35.9251 8.64462 35.8349 8.62776 35.7578 8.65273C35.6829 8.67708 35.6108 8.7239 35.5509 8.77634C35.4895 8.83019 35.4511 8.90995 35.3907 8.9652C35.2809 9.06602 35.1499 9.13781 34.996 9.11425C34.7717 9.07991 34.5486 9.06664 34.3213 9.05962C34.0613 9.0515 33.8459 8.91135 33.737 8.65836C33.6629 8.48621 33.5583 8.33358 33.4685 8.17173C33.336 7.93247 33.1818 7.71865 32.9753 7.54042C32.846 7.42882 32.7564 7.29101 32.7337 7.11762C32.7119 6.95046 32.654 6.79735 32.5732 6.64986C32.5003 6.51673 32.4878 6.3641 32.5299 6.22551C32.6084 5.96689 32.7175 5.71843 32.9487 5.55237C33.0662 5.46793 33.1818 5.37413 33.3123 5.31561C33.597 5.18763 33.8759 5.1906 34.1205 5.4183C34.1809 5.47449 34.2308 5.56033 34.3017 5.58343C34.6069 5.68332 34.7525 5.93163 34.9002 6.18306C34.9102 6.20023 34.9302 6.21146 34.9576 6.23659L34.9579 6.23674Z" fill="#FF8CBD"/>
  <path d="M23.5736 15.4698C23.5085 15.6468 23.4951 15.8277 23.5029 16.0166C23.5099 16.1884 23.4239 16.3351 23.2966 16.4508C23.1097 16.6204 22.8883 16.6551 22.6618 16.5639C22.4609 16.4831 22.2896 16.3257 22.2972 16.1041C22.3075 15.8068 22.1577 15.5454 22.1597 15.2531C22.1603 15.1605 22.0826 15.0673 22.0406 14.9745C22.043 14.9539 22.0514 14.9317 22.0467 14.9128C21.9412 14.4852 21.7513 14.1015 21.4451 13.7808C21.3887 13.7218 21.3219 13.6725 21.2579 13.6213C21.1936 13.5698 21.1128 13.5325 21.0638 13.4698C20.8774 13.2313 20.6254 13.1139 20.3516 12.9987C19.9546 12.8317 19.5724 12.6282 19.1761 12.4555C18.912 12.3404 18.7667 11.9847 18.8457 11.7208C18.9395 11.4076 19.183 11.1967 19.4782 11.2279C19.7629 11.2581 20.0424 11.3372 20.3243 11.3948C20.6073 11.6333 21.0259 11.6643 21.247 11.9974C21.4332 12.1258 21.6194 12.2543 21.8056 12.3826C21.8736 12.4295 21.9596 12.4628 22.0068 12.5254C22.1674 12.7395 22.3829 12.9204 22.5011 13.1545C22.7166 13.5817 23.0011 13.9591 23.2721 14.3469C23.3576 14.4693 23.4128 14.594 23.4355 14.7422C23.4726 14.9862 23.5265 15.2274 23.5733 15.4698H23.5736Z" fill="#070607"/>
  <path d="M26.7802 15.3634C26.6661 15.4809 26.5715 15.6184 26.4237 15.7013C26.2695 15.7877 26.191 15.9224 26.1636 16.0974C26.148 16.1966 26.1188 16.2997 26.0701 16.3867C25.9048 16.6817 25.5663 16.8091 25.2175 16.7207C24.9389 16.6502 24.6938 16.3374 24.6885 16.0318C24.6871 15.9518 24.7154 15.8709 24.7332 15.791C24.7705 15.622 24.9045 15.5134 24.9946 15.3765C25.0491 15.3486 25.1109 15.3298 25.1552 15.2911C25.2006 15.2515 25.2431 15.197 25.2627 15.1407C25.3724 14.8262 25.4882 14.517 25.7581 14.2973C25.8584 14.0525 26.0334 13.896 26.2827 13.7989C26.3914 13.7566 26.4793 13.6499 26.5639 13.5604C26.6196 13.5014 26.6496 13.4189 26.6967 13.3508C26.8351 13.1511 27.0312 13.029 27.269 13.0162C27.6416 12.9961 28.0088 12.9379 28.3785 12.8987C28.7136 12.8633 29.015 13.1081 29.1016 13.4609C29.165 13.7187 28.9985 14.0656 28.7367 14.1888C28.646 14.2314 28.5371 14.2539 28.4369 14.2529C28.3142 14.2517 28.1925 14.2086 28.0691 14.1986C28.0133 14.1941 27.9464 14.213 27.8989 14.2434C27.6466 14.4056 26.985 15.0141 26.8077 15.2449C26.7852 15.2741 26.7886 15.3234 26.7801 15.3634H26.7802Z" fill="#070607"/>
  <path d="M27.1578 28.4693C26.915 28.5117 26.7115 28.4769 26.5033 28.5265C26.0575 28.6327 25.6808 28.2804 25.7134 27.823C25.7178 27.7618 25.7437 27.7023 25.7521 27.641C25.7713 27.5013 25.7196 27.4145 25.5792 27.351C25.5044 27.3171 25.4223 27.2979 25.3508 27.2588C25.1597 27.154 25.0421 26.9933 24.9872 26.7795C24.8798 26.362 25.1545 25.8978 25.5798 25.8496C26.0307 25.7984 26.4629 25.6651 26.908 25.5921C27.028 25.5724 27.1397 25.5072 27.2591 25.4794C27.5131 25.4202 27.7526 25.4505 27.9615 25.6237C28.2087 25.8288 28.3025 26.155 28.1953 26.4618C28.1681 26.5396 28.1249 26.6115 28.0926 26.6877C28.0612 26.7617 28.084 26.8113 28.1502 26.818C28.2326 26.8264 28.3217 26.8146 28.3964 26.8425C28.5934 26.9159 28.7891 26.9358 28.9997 26.9216C29.2189 26.9068 29.3959 27.0151 29.5203 27.2035C29.7761 27.5907 29.5515 28.0519 29.1773 28.1587C28.9616 28.2202 28.7385 28.2693 28.5183 28.3104C28.3359 28.3444 28.1565 28.3917 27.9749 28.4229C27.6929 28.4713 27.4096 28.5668 27.1577 28.4693H27.1578Z" fill="#070607"/>
  <path d="M17.4326 27.5573C17.4333 27.8585 17.3114 28.0667 17.0876 28.2112C17.0023 28.2663 16.9014 28.3035 16.8024 28.3291C16.7102 28.3528 16.6601 28.4026 16.6367 28.4887C16.615 28.5688 16.5941 28.6492 16.5725 28.7294C16.539 28.8549 16.4711 28.969 16.3637 29.03C16.1772 29.136 16.0745 29.3307 15.901 29.4408C15.7386 29.5438 15.6269 29.6916 15.4909 29.8177C15.4176 29.8857 15.3218 29.9494 15.2263 29.9699C14.9581 30.0271 14.7142 30.1298 14.4852 30.2786C14.4176 30.3224 14.3341 30.3463 14.2549 30.3671C13.9951 30.4348 13.7036 30.285 13.5894 30.0304C13.4899 29.8088 13.5585 29.4935 13.7489 29.3498C13.8644 29.2627 13.9884 29.1847 14.1164 29.1172C14.2358 29.0543 14.2926 28.9463 14.3565 28.8405C14.4014 28.7661 14.4169 28.6866 14.3803 28.6045C14.3193 28.4673 14.2928 28.327 14.3421 28.1813C14.4197 27.9511 14.5642 27.7858 14.8045 27.7166C14.9033 27.6882 15.0043 27.6658 15.1005 27.6302C15.2604 27.5709 15.2854 27.5122 15.2409 27.3522C15.2135 27.2533 15.174 27.1538 15.169 27.0533C15.1437 26.5358 15.6921 26.1701 16.1622 26.3935C16.3295 26.4729 16.4736 26.6035 16.6715 26.6106C16.9262 26.7557 17.1497 26.9371 17.3268 27.1724C17.4198 27.2959 17.4303 27.4402 17.4325 27.5578L17.4326 27.5573Z" fill="#070607"/>
</svg>