<svg width="79" height="59" viewBox="0 0 79 59" fill="none" xmlns="http://www.w3.org/2000/svg">
<path d="M27.5178 14.4233C27.3892 13.2654 25.9133 12.3608 25.653 11.1898C25.4942 10.4752 24.2594 8.30386 23.6514 7.95642C22.3926 7.23708 21.5322 6.18577 20.1271 5.5613C18.6214 4.89209 16.0955 4.53745 14.5841 5.25335C7.28531 8.7107 3.84637 16.455 1.7189 23.9011C1.46431 24.7922 0.726196 28.5263 1.18855 29.3586C1.65619 30.2003 2.02997 32.0672 2.24925 33.0539C2.88575 35.9182 5.27114 36.3263 7.80936 35.124C9.47435 34.3353 10.9308 33.7817 12.2746 32.438C13.3652 31.3474 14.3857 30.0779 15.5251 29.0335C16.6579 27.9951 17.4773 26.7905 18.519 25.7488C19.2176 25.0502 20.4299 23.3694 20.743 22.4298" stroke="#33333A" stroke-width="1.5" stroke-linecap="round"/>
<path d="M51.0002 14.4233C51.1289 13.2654 52.6048 12.3608 52.865 11.1898C53.0238 10.4752 54.2586 8.30386 54.8667 7.95642C56.1255 7.23708 56.9859 6.18577 58.3909 5.5613C59.8966 4.89209 62.4226 4.53745 63.9339 5.25335C71.2328 8.7107 74.6717 16.455 76.7992 23.9011C77.0538 24.7922 77.7919 28.5263 77.3295 29.3586C76.8619 30.2003 76.4881 32.0672 76.2688 33.0539C75.6323 35.9182 73.2469 36.3263 70.7087 35.124C69.0437 34.3353 67.5872 33.7817 66.2435 32.438C65.1528 31.3474 64.1323 30.0779 62.993 29.0335C61.8601 27.9951 61.0408 26.7905 59.9991 25.7488C59.3005 25.0502 58.0882 23.3694 57.775 22.4298" stroke="#33333A" stroke-width="1.5" stroke-linecap="round"/>
<path d="M14.5 30.5C14.5 31.3198 14.6261 33.3854 14.6714 34.1998C14.7047 34.7997 15.1066 35.3942 15.1275 35.9989C15.1483 36.6039 15.2264 37.7074 15.5266 38.2477C15.8088 38.7557 15.6554 39.5176 15.8686 40.0721C16.1427 40.7847 16.1913 41.6931 16.5464 42.3526C16.8662 42.9465 16.8607 43.8007 17.351 44.291C17.664 44.6041 17.7266 45.11 17.9781 45.4693C18.2304 45.8297 18.5577 46.1065 18.7509 46.5145C19.0412 47.1272 19.6039 47.5526 19.8278 48.1995C19.9908 48.6703 20.6386 49.2204 21.0188 49.5298C21.7411 50.1178 22.3057 51.1106 23.1092 51.5569C23.4394 51.7404 23.6757 52.1162 23.9961 52.3298C24.394 52.5951 24.8351 52.7615 25.2694 52.9569C26.2869 53.4148 27.3693 53.9129 28.4747 54.0972C29.1165 54.2041 30.3182 54.3705 30.8883 54.7243C31.6106 55.1727 32.6666 55.4084 33.5108 55.4084C34.547 55.4084 35.583 55.7505 36.6148 55.7505C38.6744 55.7505 40.8831 56.1743 42.9369 55.8075C43.7184 55.668 44.3906 55.6065 45.116 55.2437C45.4658 55.0689 45.8528 54.9771 46.2436 54.8953C47.3374 54.6664 48.2151 54.5515 49.2463 54.1415C50.3585 53.6993 51.4127 53.0197 52.553 52.6718C53.3582 52.4262 54.1936 51.9203 54.7195 51.2529C55.2216 50.6156 55.826 50.1412 56.4045 49.5932C57.0498 48.9818 57.5178 47.9808 57.9375 47.2177C58.7676 45.7084 60.0411 44.43 60.6804 42.796C60.8579 42.3424 61.0139 41.8682 61.2442 41.4404C61.511 40.9449 61.4826 40.4459 61.599 39.9137C61.7182 39.3685 61.9917 38.8217 61.9917 38.254C61.9917 37.8189 61.8364 37.4288 61.903 36.9871C62.08 35.8146 62.5283 34.6259 62.5619 33.4523C62.5837 32.6879 63 30.2918 63 29.5" stroke="#33333A" stroke-width="1.5" stroke-linecap="round"/>
<path d="M28 22.5684C28.8369 22.5898 29.6659 22.7096 30.4945 22.8191C30.7706 22.8555 30.984 22.9049 31.2122 23.076C31.6571 23.4097 32.2591 23.6112 32.7822 23.7968C33.5163 24.0573 34.0302 24.3988 34.4996 25.019C34.675 25.2508 35.0035 25.54 35.1013 25.8087C35.1645 25.9828 35.5 26.4998 35.5 26.4998" stroke="#33333A" stroke-width="1.5" stroke-linecap="round"/>
<path d="M51.5 22.5684C50.6631 22.5898 49.8341 22.7096 49.0055 22.8191C48.7294 22.8555 48.516 22.9049 48.2878 23.076C47.8429 23.4097 47.2409 23.6112 46.7178 23.7968C45.9837 24.0573 45.4698 24.3988 45.0004 25.019C44.825 25.2508 44.4965 25.54 44.3987 25.8087C44.3355 25.9828 44 26.4998 44 26.4998" stroke="#33333A" stroke-width="1.5" stroke-linecap="round"/>
<path d="M33.5395 36C33.369 36 33.2075 35.9823 33.0511 35.8887C32.9879 35.8509 32.9263 35.8095 32.8624 35.7738C32.8402 35.7614 32.8066 35.7528 32.7915 35.7261C32.7472 35.6473 32.6816 35.5869 32.6308 35.5132C32.5447 35.3883 32.4722 35.2689 32.408 35.1244C32.2586 34.788 32.0465 34.4252 32.0163 34.0261C31.9867 33.6345 31.9946 33.2669 32.0627 32.8819C32.1163 32.5781 32.1635 32.266 32.2445 31.9727C32.3034 31.7598 32.3731 31.5965 32.4973 31.4355C32.5864 31.3199 32.6841 31.2567 32.799 31.1908C32.8942 31.1362 32.9782 31.0602 33.0735 31.0097C33.109 30.9909 33.1758 31.0049 33.2125 31.007C33.3647 31.0156 33.5145 31.051 33.6676 31.0538C33.8946 31.0581 34.1369 31.0962 34.3365 31.2456C34.4099 31.3005 34.4558 31.3603 34.5013 31.4497C34.5752 31.5947 34.6657 31.7133 34.7329 31.8667C34.8194 32.0639 34.8661 32.2874 34.906 32.5064C34.9492 32.744 34.9905 32.9923 34.9979 33.2371C35.0092 33.6115 34.9722 33.9687 34.9366 34.338C34.9034 34.6826 34.8044 35.1601 34.5926 35.4027C34.3798 35.6465 34.0798 35.7385 33.8208 35.8657C33.7398 35.9055 33.6605 35.9499 33.579 35.9876C33.5351 36.0079 33.5088 35.9821 33.4659 35.9682" stroke="#33333A" stroke-width="2" stroke-linecap="round"/>
<ellipse cx="33.5" cy="33.5" rx="1.5" ry="2.5" fill="#33333A"/>
<path d="M45.5395 36C45.369 36 45.2075 35.9823 45.0511 35.8887C44.9879 35.8509 44.9263 35.8095 44.8624 35.7738C44.8402 35.7614 44.8066 35.7528 44.7915 35.7261C44.7472 35.6473 44.6816 35.5869 44.6308 35.5132C44.5447 35.3883 44.4722 35.2689 44.408 35.1244C44.2586 34.788 44.0465 34.4252 44.0163 34.0261C43.9867 33.6345 43.9946 33.2669 44.0627 32.8819C44.1163 32.5781 44.1635 32.266 44.2445 31.9727C44.3034 31.7598 44.3731 31.5965 44.4973 31.4355C44.5864 31.3199 44.6841 31.2567 44.799 31.1908C44.8942 31.1362 44.9782 31.0602 45.0735 31.0097C45.109 30.9909 45.1758 31.0049 45.2125 31.007C45.3647 31.0156 45.5145 31.051 45.6676 31.0538C45.8946 31.0581 46.1369 31.0962 46.3365 31.2456C46.4099 31.3005 46.4558 31.3603 46.5013 31.4497C46.5752 31.5947 46.6657 31.7133 46.7329 31.8667C46.8194 32.0639 46.8661 32.2874 46.906 32.5064C46.9492 32.744 46.9905 32.9923 46.9979 33.2371C47.0092 33.6115 46.9722 33.9687 46.9366 34.338C46.9034 34.6826 46.8044 35.1601 46.5926 35.4027C46.3798 35.6465 46.0798 35.7385 45.8208 35.8657C45.7398 35.9055 45.6605 35.9499 45.579 35.9876C45.5351 36.0079 45.5088 35.9821 45.4659 35.9682" stroke="#33333A" stroke-width="2" stroke-linecap="round"/>
<ellipse cx="45.5" cy="33.5" rx="1.5" ry="2.5" fill="#33333A"/>
<path d="M38.9557 51.2387C38.6791 51.1281 38.3603 51.1198 38.1056 50.9577C37.9686 50.8705 37.7596 50.836 37.6033 50.7891C37.2876 50.6944 36.9852 50.7825 36.7426 50.5256C36.5545 50.3264 36.2738 50.1771 36.0401 50.0303C35.9244 49.9577 35.8434 49.8535 35.7415 49.7651C35.5325 49.584 35.3161 49.4547 35.0741 49.3173C34.7677 49.1432 34.5536 48.8349 34.3329 48.569C34.19 48.3969 34.1043 48.2141 34.087 47.9894C34.0776 47.8676 34.0514 47.6813 34.0168 47.5644C33.9731 47.4171 34.0249 47.2899 34.0572 47.1446C34.0892 47.0005 34.3193 46.8225 34.4541 46.7811C34.8907 46.6467 35.3391 46.5681 35.7907 46.5106C36.3393 46.4408 36.895 46.4174 37.4417 46.3314C37.7739 46.2792 38.1446 46.1804 38.4797 46.1804C39.2026 46.1804 39.9194 45.9544 40.6505 46.0241C41.0382 46.061 41.4236 46.1593 41.8115 46.205C42.3029 46.2628 42.7937 46.3258 43.2851 46.3841C43.4893 46.4083 43.5504 46.4477 43.7049 46.5984C44.015 46.9009 44.3267 47.0657 44.2265 47.5416C44.1017 48.1342 43.5777 48.634 43.185 49.0643C42.8227 49.4614 42.4472 49.8372 42.0679 50.2165C41.9479 50.3365 41.847 50.4707 41.7026 50.5643C41.39 50.7669 41.0384 50.9091 40.712 51.0877C40.4004 51.2582 40.13 51.485 39.8233 51.6602C39.6854 51.739 39.5354 51.7926 39.3983 51.871" stroke="#33333A" stroke-width="2" stroke-linecap="round"/>
<path d="M34.0864 47.5L39.5864 52L44.0864 47.5L39.5864 46L34.0864 47.5Z" fill="#33333A"/>
<path d="M39.3664 49.4053C39.0823 50.7408 39.1017 52.079 39.175 53.4344C39.2033 53.9585 39.3348 55.526 39.3348 55.0011" stroke="#33333A" stroke-width="1.5" stroke-linecap="round"/>
<path d="M37.7395 6C37.7395 6.49952 37.666 7.01277 37.5682 7.5021C37.4915 7.88548 37.4276 8.22852 37.2684 8.58546C37.1174 8.92382 37.0218 9.29142 36.8132 9.59744C36.6445 9.84487 36.4154 9.92485 36.1597 10.0669C35.6761 10.3356 35.1624 10.5415 34.6242 10.676C34.2303 10.7745 33.8357 10.8631 33.4314 10.9044C33.2861 10.9193 33.1284 10.9037 33 10.9679" stroke="#FF8CBD" stroke-width="1.5" stroke-linecap="round"/>
<path d="M40.9998 18.9678C40.9998 18.4683 41.0732 17.955 41.1711 17.4657C41.2478 17.0823 41.3116 16.7393 41.4709 16.3823C41.6218 16.0439 41.7175 15.6764 41.9261 15.3703C42.0948 15.1229 42.3238 15.0429 42.5796 14.9008C43.0632 14.6322 43.5768 14.4263 44.115 14.2917C44.509 14.1933 44.9035 14.1047 45.3078 14.0633C45.4532 14.0485 45.6108 14.0641 45.7393 13.9999" stroke="#FF8CBD" stroke-width="1.5" stroke-linecap="round"/>
<path d="M40.9998 6C40.9998 6.49952 41.0732 7.01277 41.1711 7.5021C41.2478 7.88548 41.3116 8.22852 41.4709 8.58546C41.6218 8.92382 41.7175 9.29142 41.9261 9.59744C42.0948 9.84487 42.3238 9.92485 42.5796 10.0669C43.0632 10.3356 43.5768 10.5415 44.115 10.676C44.509 10.7745 44.9035 10.8631 45.3078 10.9044C45.4532 10.9193 45.6108 10.9037 45.7393 10.9679" stroke="#FF8CBD" stroke-width="1.5" stroke-linecap="round"/>
<path d="M37.7395 18.9678C37.7395 18.4683 37.666 17.955 37.5682 17.4657C37.4915 17.0823 37.4276 16.7393 37.2684 16.3823C37.1174 16.0439 37.0218 15.6764 36.8132 15.3703C36.6445 15.1229 36.4154 15.0429 36.1597 14.9008C35.6761 14.6322 35.1624 14.4263 34.6242 14.2917C34.2303 14.1933 33.8357 14.1047 33.4314 14.0633C33.2861 14.0485 33.1284 14.0641 33 13.9999" stroke="#FF8CBD" stroke-width="1.5" stroke-linecap="round"/>
<path d="M50.0423 43.0031C50.6175 42.6734 51.1551 42.3789 51.6615 41.9475C52.7604 41.0114 54.2359 40.5901 55.3625 39.6942C56.074 39.1284 56.7992 38.639 57.5643 38.1551C57.6128 38.1244 57.9901 37.8939 57.9789 37.9249C57.7986 38.4232 57.5187 38.8911 57.3394 39.3947C57.1239 40.0002 57.0663 40.6619 56.8497 41.2667C56.7748 41.4758 56.5996 41.7235 56.5861 41.9485C56.5737 42.1568 56.816 41.9817 56.9023 41.9389C57.4051 41.6899 57.8751 41.3812 58.3562 41.0936C60.1589 40.0158 61.9583 38.9628 63.7937 37.9455C64.3884 37.616 65.0062 37.2032 65.6364 36.9484" stroke="#FF8CBD" stroke-width="1.5" stroke-linecap="round"/>
</svg>
