<svg width="79" height="59" viewBox="0 0 79 59" fill="none" xmlns="http://www.w3.org/2000/svg">
<path d="M24.4995 9.5C24.4995 9.5 21.5317 6.18577 20.1267 5.5613C18.6209 4.89209 16.095 4.53745 14.5837 5.25335C7.28482 8.7107 3.84588 16.455 1.71841 23.9011C1.46383 24.7922 0.725708 28.5263 1.18806 29.3586C1.6557 30.2003 2.02948 32.0672 2.24876 33.0539C2.88526 35.9182 5.27065 36.3263 7.80887 35.124C9.47387 34.3353 10.9304 33.7817 12.2741 32.438C13.3647 31.3474 14.3852 30.0779 15.5246 29.0335C16.6575 27.9951 17.4768 26.7905 18.5185 25.7488C19.2171 25.0502 20.4294 23.3694 20.7426 22.4298" stroke="#33333A" stroke-width="1.5" stroke-linecap="round"/>
<path d="M55 8.5C55 8.5 56.9859 6.18577 58.3909 5.5613C59.8966 4.89209 62.4226 4.53745 63.9339 5.25335C71.2328 8.7107 74.6717 16.455 76.7992 23.9011C77.0538 24.7922 77.7919 28.5263 77.3295 29.3586C76.8619 30.2003 76.4881 32.0672 76.2688 33.0539C75.6323 35.9182 73.2469 36.3263 70.7087 35.124C69.0437 34.3353 67.5872 33.7817 66.2435 32.438C65.1528 31.3474 64.1323 30.0779 62.993 29.0335C61.8601 27.9951 61.0408 26.7905 59.9991 25.7488C59.3005 25.0502 58.0882 23.3694 57.775 22.4298" stroke="#33333A" stroke-width="1.5" stroke-linecap="round"/>
<path d="M14.5 30.5C14.5 31.3198 14.6261 33.3854 14.6714 34.1998C14.7047 34.7997 15.1066 35.3942 15.1275 35.9989C15.1483 36.6039 15.2264 37.7074 15.5266 38.2477C15.8088 38.7557 15.6554 39.5176 15.8686 40.0721C16.1427 40.7847 16.1913 41.6931 16.5464 42.3526C16.8662 42.9465 16.8607 43.8007 17.351 44.291C17.664 44.6041 17.7266 45.11 17.9781 45.4693C18.2304 45.8297 18.5577 46.1065 18.7509 46.5145C19.0412 47.1272 19.6039 47.5526 19.8278 48.1995C19.9908 48.6703 20.6386 49.2204 21.0188 49.5298C21.7411 50.1178 22.3057 51.1106 23.1092 51.5569C23.4394 51.7404 23.6757 52.1162 23.9961 52.3298C24.394 52.5951 24.8351 52.7615 25.2694 52.9569C26.2869 53.4148 27.3693 53.9129 28.4747 54.0972C29.1165 54.2041 30.3182 54.3705 30.8883 54.7243C31.6106 55.1727 32.6666 55.4084 33.5108 55.4084C34.547 55.4084 35.583 55.7505 36.6148 55.7505C38.6744 55.7505 40.8831 56.1743 42.9369 55.8075C43.7184 55.668 44.3906 55.6065 45.116 55.2437C45.4658 55.0689 45.8528 54.9771 46.2436 54.8953C47.3374 54.6664 48.2151 54.5515 49.2463 54.1415C50.3585 53.6993 51.4127 53.0197 52.553 52.6718C53.3582 52.4262 54.1936 51.9203 54.7195 51.2529C55.2216 50.6156 55.826 50.1412 56.4045 49.5932C57.0498 48.9818 57.5178 47.9808 57.9375 47.2177C58.7676 45.7084 60.0411 44.43 60.6804 42.796C60.8579 42.3424 61.0139 41.8682 61.2442 41.4404C61.511 40.9449 61.4826 40.4459 61.599 39.9137C61.7182 39.3685 61.9917 38.8217 61.9917 38.254C61.9917 37.8189 61.8364 37.4288 61.903 36.9871C62.08 35.8146 62.5283 34.6259 62.5619 33.4523C62.5837 32.6879 63 30.2918 63 29.5" stroke="#33333A" stroke-width="1.5" stroke-linecap="round"/>
<path d="M50.5 22.5684C49.6631 22.5898 48.8341 22.7096 48.0055 22.8191C47.7294 22.8555 47.516 22.9049 47.2878 23.076C46.8429 23.4097 46.2409 23.6112 45.7178 23.7968C44.9837 24.0573 44.4698 24.3988 44.0004 25.019C43.825 25.2508 43.4965 25.54 43.3987 25.8087C43.3355 25.9828 43 26.4998 43 26.4998" stroke="#33333A" stroke-width="1.5" stroke-linecap="round"/>
<path d="M37.5 22.5684C36.6631 22.5898 35.8341 22.7096 35.0055 22.8191C34.7294 22.8555 34.516 22.9049 34.2878 23.076C33.8429 23.4097 33.2409 23.6112 32.7178 23.7968C31.9837 24.0573 31.4698 24.3988 31.0004 25.019C30.825 25.2508 30.4965 25.54 30.3987 25.8087C30.3355 25.9828 30 26.4998 30 26.4998" stroke="#33333A" stroke-width="1.5" stroke-linecap="round"/>
<path d="M38.9557 51.2387C38.6791 51.1281 38.3603 51.1198 38.1056 50.9577C37.9686 50.8705 37.7596 50.836 37.6033 50.7891C37.2876 50.6944 36.9852 50.7825 36.7426 50.5256C36.5545 50.3264 36.2738 50.1771 36.0401 50.0303C35.9244 49.9577 35.8434 49.8535 35.7415 49.7651C35.5325 49.584 35.3161 49.4547 35.0741 49.3173C34.7677 49.1432 34.5536 48.8349 34.3329 48.569C34.19 48.3969 34.1043 48.2141 34.087 47.9894C34.0776 47.8676 34.0514 47.6813 34.0168 47.5644C33.9731 47.4171 34.0249 47.2899 34.0572 47.1446C34.0892 47.0005 34.3193 46.8225 34.4541 46.7811C34.8907 46.6467 35.3391 46.5681 35.7907 46.5106C36.3393 46.4408 36.895 46.4174 37.4417 46.3314C37.7739 46.2792 38.1446 46.1804 38.4797 46.1804C39.2026 46.1804 39.9194 45.9544 40.6505 46.0241C41.0382 46.061 41.4236 46.1593 41.8115 46.205C42.3029 46.2628 42.7937 46.3258 43.2851 46.3841C43.4893 46.4083 43.5504 46.4477 43.7049 46.5984C44.015 46.9009 44.3267 47.0657 44.2265 47.5416C44.1017 48.1342 43.5777 48.634 43.185 49.0643C42.8227 49.4614 42.4472 49.8372 42.0679 50.2165C41.9479 50.3365 41.847 50.4707 41.7026 50.5643C41.39 50.7669 41.0384 50.9091 40.712 51.0877C40.4004 51.2582 40.13 51.485 39.8233 51.6602C39.6854 51.739 39.5354 51.7926 39.3983 51.871" stroke="#33333A" stroke-width="2" stroke-linecap="round"/>
<path d="M34.0859 47.5L39.5859 52L44.0859 47.5L39.5859 46L34.0859 47.5Z" fill="#33333A"/>
<path d="M39.3669 49.4053C39.0828 50.7408 39.1022 52.079 39.1755 53.4344C39.2038 53.9585 39.3353 55.526 39.3353 55.0011" stroke="#33333A" stroke-width="1.5" stroke-linecap="round"/>
<path d="M50.4246 43.0031C50.9998 42.6734 51.5375 42.3789 52.0439 41.9475C53.1428 41.0114 54.6183 40.5901 55.7448 39.6942C56.4563 39.1284 57.1815 38.639 57.9466 38.1551C57.9952 38.1244 58.3724 37.8939 58.3612 37.9249C58.181 38.4232 57.901 38.8911 57.7218 39.3947C57.5063 40.0002 57.4486 40.6619 57.232 41.2667C57.1571 41.4758 56.982 41.7235 56.9685 41.9485C56.956 42.1568 57.1983 41.9817 57.2846 41.9389C57.7874 41.6899 58.2574 41.3812 58.7385 41.0936C60.5412 40.0158 62.3406 38.9628 64.1761 37.9455C64.7707 37.616 65.3885 37.2032 66.0188 36.9484" stroke="#00A399" stroke-width="1.5" stroke-linecap="round"/>
<path d="M35.3477 2.19531C36.4706 3.45862 38.1182 5.45185 38.1182 7.25149C38.1182 7.64919 38.3491 9.69873 38.1182 9.81421" stroke="#33333A" stroke-width="1.5" stroke-linecap="round"/>
<path d="M40.75 10.0904C40.75 8.25689 41.3029 6.76955 41.8582 5.10352" stroke="#33333A" stroke-width="1.5" stroke-linecap="round"/>
<path d="M44.4605 37C44.631 37 44.7925 36.9788 44.9489 36.8664C45.0121 36.821 45.0737 36.7714 45.1376 36.7286C45.1598 36.7137 45.1934 36.7033 45.2085 36.6713C45.2528 36.5768 45.3184 36.5043 45.3692 36.4158C45.4553 36.2659 45.5278 36.1227 45.592 35.9493C45.7414 35.5456 45.9535 35.1102 45.9837 34.6314C46.0133 34.1614 46.0054 33.7203 45.9373 33.2583C45.8837 32.8937 45.8365 32.5192 45.7555 32.1673C45.6966 31.9117 45.6269 31.7158 45.5027 31.5226C45.4136 31.3839 45.3159 31.308 45.201 31.2289C45.1058 31.1634 45.0218 31.0723 44.9265 31.0116C44.891 30.989 44.8242 31.0059 44.7875 31.0084C44.6353 31.0187 44.4855 31.0611 44.3324 31.0646C44.1054 31.0697 43.8631 31.1155 43.6635 31.2947C43.5901 31.3606 43.5442 31.4323 43.4987 31.5396C43.4248 31.7137 43.3343 31.8559 43.2671 32.04C43.1806 32.2767 43.1339 32.5449 43.094 32.8077C43.0508 33.0928 43.0095 33.3908 43.0021 33.6845C42.9908 34.1338 43.0278 34.5625 43.0634 35.0056C43.0966 35.4191 43.1956 35.9921 43.4074 36.2833C43.6202 36.5758 43.9202 36.6862 44.1792 36.8388C44.2602 36.8866 44.3395 36.9398 44.421 36.9852C44.4649 37.0095 44.4912 36.9785 44.5341 36.9618" stroke="#33333A" stroke-width="2" stroke-linecap="round"/>
<ellipse cx="1.5" cy="3" rx="1.5" ry="3" transform="matrix(-1 0 0 1 46 31)" fill="#33333A"/>
<path d="M48.5004 32.8943C48.263 32.5482 48.0388 32.2916 47.7802 32.0286C47.3287 31.5695 46.8754 31.1512 46.4217 30.9736C45.9994 30.8083 45.1932 30.6868 44.8167 30.7895" stroke="#33333A" stroke-width="1.5" stroke-linecap="round"/>
<path d="M32.4605 37C32.631 37 32.7925 36.9788 32.9489 36.8664C33.0121 36.821 33.0737 36.7714 33.1376 36.7286C33.1598 36.7137 33.1934 36.7033 33.2085 36.6713C33.2528 36.5768 33.3184 36.5043 33.3692 36.4158C33.4553 36.2659 33.5278 36.1227 33.592 35.9493C33.7414 35.5456 33.9535 35.1102 33.9837 34.6314C34.0133 34.1614 34.0054 33.7203 33.9373 33.2583C33.8837 32.8937 33.8365 32.5192 33.7555 32.1673C33.6966 31.9117 33.6269 31.7158 33.5027 31.5226C33.4136 31.3839 33.3159 31.308 33.201 31.2289C33.1058 31.1634 33.0218 31.0723 32.9265 31.0116C32.891 30.989 32.8242 31.0059 32.7875 31.0084C32.6353 31.0187 32.4855 31.0611 32.3324 31.0646C32.1054 31.0697 31.8631 31.1155 31.6635 31.2947C31.5901 31.3606 31.5442 31.4323 31.4987 31.5396C31.4248 31.7137 31.3343 31.8559 31.2671 32.04C31.1806 32.2767 31.1339 32.5449 31.094 32.8077C31.0508 33.0928 31.0095 33.3908 31.0021 33.6845C30.9908 34.1338 31.0278 34.5625 31.0634 35.0056C31.0966 35.4191 31.1956 35.9921 31.4074 36.2833C31.6202 36.5758 31.9202 36.6862 32.1792 36.8388C32.2602 36.8866 32.3395 36.9398 32.421 36.9852C32.4649 37.0095 32.4912 36.9785 32.5341 36.9618" stroke="#33333A" stroke-width="2" stroke-linecap="round"/>
<ellipse cx="1.5" cy="3" rx="1.5" ry="3" transform="matrix(-1 0 0 1 34 31)" fill="#33333A"/>
<path d="M36.5004 32.8943C36.263 32.5482 36.0388 32.2916 35.7802 32.0286C35.3287 31.5695 34.8754 31.1512 34.4217 30.9736C33.9994 30.8083 33.1932 30.6868 32.8167 30.7895" stroke="#33333A" stroke-width="1.5" stroke-linecap="round"/>
</svg>
