<svg width="76" height="70" viewBox="0 0 76 70" fill="none" xmlns="http://www.w3.org/2000/svg">
<path d="M27.5173 25.4233C27.3887 24.2654 25.9128 23.3608 25.6526 22.1898C25.4938 21.4752 24.2589 19.3039 23.6509 18.9564C22.3921 18.2371 21.5317 17.1858 20.1267 16.5613C18.6209 15.8921 16.095 15.5375 14.5837 16.2534C7.28482 19.7107 3.84588 27.455 1.71841 34.9011C1.46383 35.7922 0.725708 39.5263 1.18806 40.3586C1.6557 41.2003 2.02948 43.0672 2.24876 44.0539C2.88526 46.9182 5.27065 47.3263 7.80887 46.124C9.47387 45.3353 10.9304 44.7817 12.2741 43.438C13.3647 42.3474 14.3852 41.0779 15.5246 40.0335C16.6575 38.9951 17.4768 37.7905 18.5185 36.7488C19.2171 36.0502 20.4294 34.3694 20.7426 33.4298" stroke="#33333A" stroke-width="1.5" stroke-linecap="round"/>
<path d="M14.5 41.5C14.5 42.3198 14.6261 44.3854 14.6714 45.1998C14.7047 45.7997 15.1066 46.3942 15.1275 46.9989C15.1483 47.6039 15.2264 48.7074 15.5266 49.2477C15.8088 49.7557 15.6554 50.5176 15.8686 51.0721C16.1427 51.7847 16.1913 52.6931 16.5464 53.3526C16.8662 53.9465 16.8607 54.8007 17.351 55.291C17.664 55.6041 17.7266 56.11 17.9781 56.4693C18.2304 56.8297 18.5577 57.1065 18.7509 57.5145C19.0412 58.1272 19.6039 58.5526 19.8278 59.1995C19.9908 59.6703 20.6386 60.2204 21.0188 60.5298C21.7411 61.1178 22.3057 62.1106 23.1092 62.5569C23.4394 62.7404 23.6757 63.1162 23.9961 63.3298C24.394 63.5951 24.8351 63.7615 25.2694 63.9569C26.2869 64.4148 27.3693 64.9129 28.4747 65.0972C29.1165 65.2041 30.3182 65.3705 30.8883 65.7243C31.6106 66.1727 32.6666 66.4084 33.5108 66.4084C34.547 66.4084 35.583 66.7505 36.6148 66.7505C38.6744 66.7505 40.8831 67.1743 42.9369 66.8075C43.7184 66.668 44.3906 66.6065 45.116 66.2437C45.4658 66.0689 45.8528 65.9771 46.2436 65.8953C47.3374 65.6664 48.2151 65.5515 49.2463 65.1415C50.3585 64.6993 51.4127 64.0197 52.553 63.6718C53.3582 63.4262 54.1936 62.9203 54.7195 62.2529C55.2216 61.6156 55.826 61.1412 56.4045 60.5932C57.0498 59.9818 57.5178 58.9808 57.9375 58.2177C58.7676 56.7084 60.0411 55.43 60.6804 53.796C60.8579 53.3424 61.0139 52.8682 61.2442 52.4404C61.511 51.9449 61.4826 51.4459 61.599 50.9137C61.7182 50.3685 61.9917 49.8217 61.9917 49.254C61.9917 48.8189 61.8364 48.4288 61.903 47.9871C62.08 46.8146 62.5283 45.6259 62.5619 44.4523C62.5837 43.6879 63 41.2918 63 40.5" stroke="#33333A" stroke-width="1.5" stroke-linecap="round"/>
<path d="M38.9557 62.2387C38.6791 62.1281 38.3603 62.1198 38.1056 61.9577C37.9686 61.8705 37.7596 61.836 37.6033 61.7891C37.2876 61.6944 36.9852 61.7825 36.7426 61.5256C36.5545 61.3264 36.2738 61.1771 36.0401 61.0303C35.9244 60.9577 35.8434 60.8535 35.7415 60.7651C35.5325 60.584 35.3161 60.4547 35.0741 60.3173C34.7677 60.1432 34.5536 59.8349 34.3329 59.569C34.19 59.3969 34.1043 59.2141 34.087 58.9894C34.0776 58.8676 34.0514 58.6813 34.0168 58.5644C33.9731 58.4171 34.0249 58.2899 34.0572 58.1446C34.0892 58.0005 34.3193 57.8225 34.4541 57.7811C34.8907 57.6467 35.3391 57.5681 35.7907 57.5106C36.3393 57.4408 36.895 57.4174 37.4417 57.3314C37.7739 57.2792 38.1446 57.1804 38.4797 57.1804C39.2026 57.1804 39.9194 56.9544 40.6505 57.0241C41.0382 57.061 41.4236 57.1593 41.8115 57.205C42.3029 57.2628 42.7937 57.3258 43.2851 57.3841C43.4893 57.4083 43.5504 57.4477 43.7049 57.5984C44.015 57.9009 44.3267 58.0657 44.2265 58.5416C44.1017 59.1342 43.5777 59.634 43.185 60.0643C42.8227 60.4614 42.4472 60.8372 42.0679 61.2165C41.9479 61.3365 41.847 61.4707 41.7026 61.5643C41.39 61.7669 41.0384 61.9091 40.712 62.0877C40.4004 62.2582 40.13 62.485 39.8233 62.6602C39.6854 62.739 39.5354 62.7926 39.3983 62.871" stroke="#33333A" stroke-width="2" stroke-linecap="round"/>
<path d="M34.0859 58.5L39.5859 63L44.0859 58.5L39.5859 57L34.0859 58.5Z" fill="#33333A"/>
<path d="M39.3669 60.4053C39.0828 61.7408 39.1022 63.079 39.1755 64.4344C39.2038 64.9585 39.3353 66.526 39.3353 66.0011" stroke="#33333A" stroke-width="1.5" stroke-linecap="round"/>
<path d="M48.9238 24.2741C49.3301 24.0574 49.7374 23.8446 50.1699 23.6873C51.7032 23.1298 52.7628 21.8776 53.6643 20.5753C54.7265 19.041 55.8528 17.5146 56.8093 15.9205C57.4847 14.7948 58.3487 13.8003 58.8861 12.591C59.6303 10.9166 60.3262 9.00187 61.708 7.75817C62.1864 7.32765 63.3609 6.59777 64.0486 6.59777C65.0968 6.59777 66.0143 5.71238 67.1672 6.09669C68.0392 6.38736 68.6587 6.87901 69.4485 7.33621C70.1207 7.72538 71.0414 9.20178 71.288 9.91415C71.6606 10.9906 71.9407 12.2229 71.9407 13.3624C71.9407 14.2533 72.0594 15.0733 72.0594 15.9733C72.0594 16.6224 71.8802 17.1346 71.7297 17.7535C71.6113 18.2403 71.511 18.7901 71.4726 19.2897C71.4048 20.1712 70.8885 21.0657 70.5561 21.8676C70.3494 22.3662 70.1563 22.8293 69.8704 23.2786C69.7017 23.5437 69.7349 23.898 69.5408 24.162C69.3062 24.481 69.0059 24.8025 68.743 25.0983C68.2065 25.7019 67.8564 26.3334 67.4573 27.0499C67.1806 27.5467 66.8162 27.9947 66.5474 28.4938C66.4299 28.712 66.4175 28.9708 66.2705 29.1729C66.0273 29.5074 65.6238 30.1306 65.453 30.5179C64.7866 32.0283 64.4461 33.6429 63.9959 35.2188C63.8576 35.7029 63.024 39.9912 63.0009 40.5" stroke="#33333A" stroke-width="1.5" stroke-linecap="round"/>
<path d="M64.992 16C64.8535 17.3539 64.6031 18.7043 64.1083 19.9767C63.7937 20.7856 63.3397 21.2893 62.8344 22.0026C62.3336 22.7096 61.8414 23.4818 61.2409 24.1038C60.8905 24.4667 60.2165 24.7894 60 25.2225" stroke="#FA4D81" stroke-width="1.5" stroke-linecap="round"/>
<path d="M31.0826 51.4013C31.4748 51.3956 31.81 51.1591 32.2024 51.1289C32.6909 50.9661 33.6516 50.4891 34.1393 50.3118C34.3536 50.2339 34.6217 50.153 34.7689 50C34.9839 49.7764 35.0174 49.6741 35.2689 49.5C35.5594 49.2989 35.9429 48.8807 36.2427 48.6889C36.3727 48.6056 36.4639 48.4776 36.5907 48.4051C36.6435 48.3749 36.7651 48.1813 36.7988 48.1214C37.0946 47.5956 37.4408 46.9341 37.5138 46.332C37.6051 45.579 37.65 44.8763 37.65 44.1151C37.65 43.2567 37.5908 42.3182 37.3398 41.4935C37.2242 41.1137 36.9453 40.4924 36.6512 40.2186C36.2964 39.8882 35.7683 39.7455 35.4028 39.4166C34.0188 38.171 32.0594 38.3271 30.3298 38.3271C29.6088 38.3271 28.6342 38.3992 27.9653 38.6827C27.6692 38.8081 27.4682 38.8657 27.2276 39.0761C26.7706 39.476 26.0618 39.5648 25.6312 39.9954C25.446 40.1806 25.2113 40.2743 25.0032 40.4304C23.0336 41.9076 22.977 44.878 23.2819 47.0886C23.4107 48.0221 23.8861 48.8291 24.5606 49.4795C24.9239 49.8298 25.4166 50.0807 25.8393 50.3496C26.0991 50.515 26.2493 50.7388 26.5505 50.8225C26.9519 50.934 27.3601 51.0833 27.7611 51.2122C28.0796 51.3146 28.4624 51.2651 28.7976 51.2651C29.5658 51.2651 30.3127 51.4126 31.0826 51.4013Z" stroke="#33333A" stroke-width="1.5" stroke-linecap="round"/>
<path d="M47.8373 51.4013C47.4451 51.3956 47.1099 51.1591 46.7176 51.1289C46.2291 50.9661 45.2683 50.4891 44.7806 50.3118C44.5664 50.2339 44.2982 50.153 44.1511 50C43.936 49.7764 43.9025 49.6741 43.6511 49.5C43.3606 49.2989 42.977 48.8807 42.6772 48.6889C42.5472 48.6056 42.456 48.4776 42.3292 48.4051C42.2764 48.3749 42.1548 48.1813 42.1211 48.1214C41.8254 47.5956 41.4791 46.9341 41.4061 46.332C41.3149 45.579 41.2699 44.8763 41.2699 44.1151C41.2699 43.2567 41.3292 42.3182 41.5802 41.4935C41.6958 41.1137 41.9746 40.4924 42.2687 40.2186C42.6235 39.8882 43.1516 39.7455 43.5171 39.4166C44.9011 38.171 46.8605 38.3271 48.5902 38.3271C49.3111 38.3271 50.2857 38.3992 50.9546 38.6827C51.2507 38.8081 51.4518 38.8657 51.6923 39.0761C52.1493 39.476 52.8582 39.5648 53.2887 39.9954C53.474 40.1806 53.7086 40.2743 53.9167 40.4304C55.8863 41.9076 55.9429 44.878 55.638 47.0886C55.5092 48.0221 55.0338 48.8291 54.3593 49.4795C53.996 49.8298 53.5033 50.0807 53.0807 50.3496C52.8209 50.515 52.6706 50.7388 52.3694 50.8225C51.968 50.934 51.5598 51.0833 51.1589 51.2122C50.8403 51.3146 50.4575 51.2651 50.1223 51.2651C49.3541 51.2651 48.6072 51.4126 47.8373 51.4013Z" stroke="#33333A" stroke-width="1.5" stroke-linecap="round"/>
<path d="M37.8516 44.3065C38.758 44.2217 39.6899 44.19 40.5877 44.0307C40.6386 44.0217 40.6728 43.9935 40.715 43.9724" stroke="#33333A" stroke-width="1.5" stroke-linecap="round"/>
<path d="M18 38.1311C18.6453 38.5047 19.3177 38.7811 19.9831 39.1138C20.4579 39.3512 20.923 39.6847 21.4238 39.8919C21.6431 39.9827 21.7439 40.2575 21.9618 40.3543C22.1361 40.4318 22.3083 40.5647 22.482 40.6567C22.824 40.8377 23.1354 41.1057 23.5225 41.2347" stroke="#33333A" stroke-width="1.5" stroke-linecap="round"/>
<path d="M63.6992 36C63.1845 36.4412 62.3177 37.1352 61.7266 37.473C61.3841 37.6687 61.0644 37.9327 60.7217 38.1311C60.0765 38.5046 59.404 38.781 58.7386 39.1137C58.2638 39.3511 57.7987 39.6847 57.298 39.8919C57.0786 39.9826 56.9778 40.2574 56.7599 40.3543C56.5856 40.4318 56.4134 40.5647 56.2397 40.6567C55.8977 40.8377 55.5863 41.1057 55.1992 41.2347" stroke="#33333A" stroke-width="1.5" stroke-linecap="round"/>
<path d="M35.3477 17C36.4706 18.2633 38.1182 20.2565 38.1182 22.0562C38.1182 22.4539 38.3491 24.5034 38.1182 24.6189" stroke="#33333A" stroke-width="1.5" stroke-linecap="round"/>
<path d="M40.75 24.8951C40.75 23.0616 41.3029 21.5742 41.8582 19.9082" stroke="#33333A" stroke-width="1.5" stroke-linecap="round"/>
<path d="M51.5 35.9314C50.6631 35.9099 49.8341 35.7901 49.0055 35.6807C48.7294 35.6442 48.516 35.5949 48.2878 35.4237C47.8429 35.09 47.2409 34.8886 46.7178 34.7029C45.9837 34.4425 45.4698 34.101 45.0004 33.4807C44.825 33.2489 44.4965 32.9598 44.3987 32.691C44.3355 32.517 44 32 44 32" stroke="#33333A" stroke-width="1.5" stroke-linecap="round"/>
<path d="M28 35.9314C28.8369 35.9099 29.6659 35.7901 30.4945 35.6807C30.7706 35.6442 30.984 35.5949 31.2122 35.4237C31.6571 35.09 32.2591 34.8886 32.7822 34.7029C33.5163 34.4425 34.0302 34.101 34.4996 33.4807C34.675 33.2489 35.0035 32.9598 35.1013 32.691C35.1645 32.517 35.5 32 35.5 32" stroke="#33333A" stroke-width="1.5" stroke-linecap="round"/>
<path d="M32.079 49C31.738 49 31.4149 48.9717 31.1021 48.8219C30.9758 48.7614 30.8526 48.6952 30.7248 48.6381C30.6804 48.6182 30.6131 48.6045 30.5831 48.5618C30.4943 48.4357 30.3632 48.3391 30.2615 48.2211C30.0894 48.0212 29.9445 47.8303 29.816 47.599C29.5171 47.0608 29.093 46.4803 29.0327 45.8418C28.9735 45.2151 28.9893 44.627 29.1253 44.0111C29.2327 43.5249 29.3269 43.0257 29.4891 42.5564C29.6068 42.2156 29.7463 41.9544 29.9945 41.6968C30.1728 41.5119 30.3683 41.4107 30.5981 41.3052C30.7885 41.2178 30.9564 41.0964 31.1471 41.0154C31.2179 40.9854 31.3516 41.0079 31.425 41.0112C31.7295 41.0249 32.029 41.0815 32.3351 41.0861C32.7892 41.093 33.2738 41.1539 33.673 41.3929C33.8198 41.4808 33.9116 41.5764 34.0027 41.7195C34.1504 41.9516 34.3313 42.1412 34.4659 42.3867C34.6388 42.7023 34.7322 43.0598 34.8119 43.4102C34.8984 43.7904 34.981 44.1877 34.9958 44.5794C35.0185 45.1784 34.9444 45.75 34.8732 46.3408C34.8068 46.8921 34.6089 47.6561 34.1852 48.0443C33.7596 48.4343 33.1596 48.5816 32.6416 48.7851C32.4795 48.8488 32.321 48.9198 32.158 48.9802C32.0703 49.0127 32.0176 48.9714 31.9318 48.9491" stroke="#33333A" stroke-width="1.5" stroke-linecap="round"/>
<path d="M31 42C31.0124 42.161 31.1875 42.3324 31.2898 42.3692C31.5196 42.4521 31.7741 42.9028 31.928 43.1564C32.2072 43.6167 32.4306 44.2183 32.5608 44.7949C32.7241 45.5174 32.94 46.1753 32.991 46.9487C33.0147 47.3077 32.9839 47.6642 32.9839 48" stroke="#33333A" stroke-width="1.5" stroke-linecap="round"/>
<path d="M32.5 44.5C32.5 44.2759 33.4113 43.5627 33.5774 43.4531C33.7888 43.3136 34.1051 43.2106 34.3534 43.158C34.4509 43.1373 34.5455 43.1014 34.643 43.0781C34.7415 43.0546 34.5765 43.0634 34.643 43" stroke="#33333A" stroke-width="1.5" stroke-linecap="round"/>
<path d="M46.8865 49C46.5668 49 46.264 48.9717 45.9708 48.8219C45.8523 48.7614 45.7368 48.6952 45.617 48.6381C45.5753 48.6182 45.5123 48.6045 45.4841 48.5618C45.4009 48.4357 45.278 48.3391 45.1827 48.2211C45.0213 48.0212 44.8855 47.8303 44.765 47.599C44.4848 47.0608 44.0872 46.4803 44.0306 45.8418C43.9751 45.2151 43.9899 44.627 44.1175 44.0111C44.2181 43.5249 44.3065 43.0257 44.4585 42.5564C44.5689 42.2156 44.6996 41.9544 44.9324 41.6968C45.0995 41.5119 45.2827 41.4107 45.4982 41.3052C45.6767 41.2178 45.8342 41.0964 46.0129 41.0154C46.0793 40.9854 46.2047 41.0079 46.2735 41.0112C46.5589 41.0249 46.8397 41.0815 47.1267 41.0861C47.5524 41.093 48.0067 41.1539 48.3809 41.3929C48.5186 41.4808 48.6047 41.5764 48.69 41.7195C48.8285 41.9516 48.9981 42.1412 49.1243 42.3867C49.2864 42.7023 49.374 43.0598 49.4487 43.4102C49.5297 43.7904 49.6072 44.1877 49.6211 44.5794C49.6423 45.1784 49.5729 45.75 49.5062 46.3408C49.4439 46.8921 49.2583 47.6561 48.8612 48.0443C48.4622 48.4343 47.8996 48.5816 47.414 48.7851C47.262 48.8488 47.1134 48.9198 46.9606 48.9802C46.8784 49.0127 46.829 48.9714 46.7486 48.9491" stroke="#33333A" stroke-width="1.5" stroke-linecap="round"/>
<path d="M45.4434 41.5911C45.4545 41.7594 45.6803 41.9613 45.7622 42.1068C45.9716 42.4791 46.0566 42.8637 46.2092 43.2523C46.5211 44.0473 46.7104 44.8242 46.8248 45.6603C46.9162 46.3283 46.9727 47.0853 46.7641 47.7444C46.7147 47.9005 46.6811 48.0602 46.6275 48.2152C46.6165 48.2468 46.603 48.4566 46.5667 48.3921" stroke="#33333A" stroke-linecap="round"/>
<path d="M47.721 41.6997C47.7756 41.8258 47.5048 42.1427 47.4494 42.2515C47.3724 42.4028 47.3055 42.5401 47.2504 42.6968C47.1511 42.9792 47.0749 43.2813 47.0547 43.5769C47.0373 43.8333 47.0297 44.0894 46.994 44.3431C46.967 44.5353 46.9996 44.7489 46.9468 44.9368C46.9064 45.0805 46.9316 45.2497 46.9316 45.3971C46.9316 45.6493 46.9357 45.8959 46.9687 46.1468C46.9827 46.253 46.9883 46.349 46.9923 46.4556C47.0022 46.7188 47.2161 47.045 47.3702 47.2593C47.4611 47.3858 47.5499 47.5069 47.6232 47.6371C47.66 47.7025 47.707 47.7915 47.7581 47.847C47.8337 47.9292 47.9419 48.0299 47.9943 48.1229" stroke="#33333A" stroke-linecap="round"/>
<path d="M46.6634 43.2122C46.6168 43.0259 46.5101 42.8456 46.4419 42.6638C46.3804 42.4998 46.2945 42.3468 46.2213 42.188C46.2111 42.1659 46.0721 41.7342 46.1554 41.7247C46.2423 41.7149 46.337 41.753 46.419 41.7716C46.5833 41.8089 46.7512 41.8288 46.9165 41.8615C46.9511 41.8683 46.9802 41.893 47.014 41.9036C47.0577 41.9173 47.103 41.9086 47.145 41.9193C47.1636 41.924 47.1234 41.9486 47.1081 41.9591C47.0335 42.0101 46.9608 42.0618 46.9024 42.1279C46.8244 42.216 46.7516 42.3418 46.7266 42.4529" stroke="#33333A" stroke-linecap="round"/>
<path d="M47.3119 48.1627C47.2618 48.1577 47.2501 48.0425 47.2012 48.0643" stroke="#33333A" stroke-linecap="round"/>
</svg>
