<svg width="61" height="54" viewBox="0 0 61 54" fill="none" xmlns="http://www.w3.org/2000/svg">
<path d="M23 19.4284C22.9028 18.5291 21.788 17.8265 21.5915 16.917C21.4715 16.3619 20.5388 14.6754 20.0796 14.4055C19.1287 13.8468 18.4788 13.0302 17.4176 12.5452C16.2802 12.0254 14.3723 11.75 13.2307 12.306C7.71765 14.9914 5.12009 21.0065 3.51314 26.7901C3.32084 27.4821 2.76331 30.3825 3.11254 31.029C3.46577 31.6828 3.7481 33.1328 3.91373 33.8992C4.3945 36.1239 6.19627 36.4409 8.11348 35.5071C9.37111 34.8945 10.4713 34.4645 11.4862 33.4208C12.31 32.5737 13.0809 31.5877 13.9415 30.7765C14.7971 29.9699 15.416 29.0343 16.2029 28.2252C16.7305 27.6825 17.6462 26.377 17.8828 25.6473" stroke="#33333A" stroke-linecap="round"/>
<path d="M14 31.7559C14 32.3757 14.0962 33.9371 14.1307 34.5528C14.1562 35.0063 14.4628 35.4557 14.4787 35.9128C14.4946 36.3701 14.5542 37.2044 14.7831 37.6128C14.9985 37.9968 14.8814 38.5727 15.0441 38.9919C15.2532 39.5306 15.2903 40.2173 15.5612 40.7158C15.8052 41.1648 15.8009 41.8106 16.175 42.1812C16.4138 42.4179 16.4615 42.8003 16.6534 43.0719C16.8459 43.3443 17.0956 43.5536 17.243 43.862C17.4644 44.3252 17.8937 44.6468 18.0645 45.1358C18.1888 45.4917 18.683 45.9075 18.9731 46.1414C19.5242 46.5859 19.9549 47.3364 20.5679 47.6738C20.8198 47.8125 21 48.0966 21.2444 48.258C21.548 48.4586 21.8845 48.5844 22.2158 48.7321C22.9921 49.0783 23.8178 49.4548 24.6611 49.5941C25.1507 49.6749 26.0675 49.8007 26.5024 50.0682C27.0534 50.4071 27.8591 50.5854 28.5031 50.5854C29.2936 50.5854 30.0839 50.8439 30.8711 50.8439C32.4423 50.8439 34.1273 51.1643 35.6941 50.887C36.2903 50.7815 36.8031 50.7351 37.3566 50.4608C37.6234 50.3286 37.9186 50.2593 38.2168 50.1975C39.0512 50.0244 39.7208 49.9375 40.5075 49.6276C41.356 49.2933 42.1602 48.7796 43.0301 48.5166C43.6444 48.3309 44.2817 47.9485 44.6829 47.444C45.066 46.9622 45.5271 46.6036 45.9684 46.1893C46.4607 45.7272 46.8177 44.9704 47.1379 44.3936C47.7711 43.2527 48.7427 42.2862 49.2304 41.0511C49.3658 40.7082 49.4848 40.3497 49.6605 40.0263C49.8641 39.6517 49.8424 39.2745 49.9312 38.8722C50.0222 38.4601 50.2308 38.0467 50.2308 37.6176C50.2308 37.2886 50.1123 36.9937 50.1631 36.6598C50.2982 35.7735 50.6402 34.8749 50.6657 33.9877C50.6824 33.4099 51 31.5985 51 31" stroke="#33333A" stroke-linecap="round"/>
<path d="M23 27C23.6695 26.9836 24.3327 26.8922 24.9956 26.8087C25.2165 26.7809 25.3872 26.7432 25.5697 26.6126C25.9257 26.358 26.4073 26.2042 26.8258 26.0626C27.413 25.8638 27.8241 25.6032 28.1997 25.1299C28.34 24.9531 28.6028 24.7324 28.681 24.5273C28.7316 24.3945 29 24 29 24" stroke="#33333A" stroke-linecap="round"/>
<path d="M42 27C41.4421 26.9836 40.8894 26.8922 40.337 26.8087C40.1529 26.7809 40.0107 26.7432 39.8585 26.6126C39.5619 26.358 39.1606 26.2042 38.8119 26.0626C38.3225 25.8638 37.9799 25.6032 37.667 25.1299C37.55 24.9531 37.331 24.7324 37.2658 24.5273C37.2236 24.3945 37 24 37 24" stroke="#33333A" stroke-linecap="round"/>
<path d="M33.2151 47.7552C32.9991 47.6608 32.6989 47.6383 32.5 47.5C32.393 47.4256 32.1221 47.3717 32 47.3317C31.7535 47.2508 31.3309 47.0713 31.1415 46.8521C30.9946 46.6822 30.7754 46.5547 30.5929 46.4295C30.5026 46.3676 30.4394 46.2786 30.3598 46.2033C30.1966 46.0487 30.0276 45.9384 29.8387 45.8211C29.5994 45.6727 29.4323 45.4096 29.2599 45.1827C29.1484 45.0359 29.0814 44.8799 29.0679 44.6882C29.0606 44.5842 29.0401 44.4254 29.0131 44.3256C28.979 44.1999 29.0194 44.0914 29.0446 43.9674C29.0696 43.8445 29.2493 43.6926 29.3546 43.6572C29.6955 43.5426 30.0456 43.4755 30.3982 43.4265C30.8266 43.3669 31.2605 43.347 31.6873 43.2736C31.9468 43.229 32.2362 43.1447 32.4978 43.1447C33.0623 43.1447 33.622 42.952 34.1929 43.0114C34.4956 43.0429 34.7965 43.1268 35.0994 43.1657C35.4831 43.215 35.8663 43.2688 36.25 43.3186C36.4095 43.3392 36.4572 43.3728 36.5778 43.5014C36.8199 43.7595 37.0633 43.9001 36.9851 44.3061C36.8877 44.8118 36.4785 45.2382 36.1718 45.6053C35.8889 45.9441 35.5958 46.2648 35.2996 46.5884C35.2059 46.6908 35.1271 46.8052 35.0144 46.8851C34.7703 47.0579 34.4957 47.1793 34.2409 47.3317C33.9976 47.4771 33.7865 47.6706 33.547 47.8202C33.4393 47.8874 33.3222 47.9331 33.2151 48" stroke="#33333A" stroke-linecap="round"/>
<path d="M29 44.5C29 45 33 48 33 48C33 48 37 45.5 37 44.5C37 43.5 33.4 43 33.4 43C33.4 43 29 44 29 44.5Z" fill="#33333A"/>
<path d="M33 47C33 47.9369 33 48.8757 33 49.8265C33 50.1943 33 51.2939 33 50.9256" stroke="#33333A" stroke-linecap="round"/>
<path d="M40 18.3015C40.3161 18.1319 40.633 17.9653 40.9695 17.8423C42.1625 17.4059 42.9868 16.426 43.6882 15.4068C44.5147 14.206 45.3909 13.0115 46.1351 11.7639C46.6606 10.8829 47.3328 10.1046 47.7509 9.15816C48.3299 7.84776 48.8713 6.34929 49.9464 5.37596C50.3186 5.03903 51.2324 4.46782 51.7675 4.46782C52.583 4.46782 53.2968 3.77491 54.1938 4.07567C54.8722 4.30315 55.3542 4.68792 55.9687 5.04573C56.4916 5.35029 57.208 6.50574 57.3998 7.06325C57.6897 7.90568 57.9077 8.87008 57.9077 9.76187C57.9077 10.4591 58 11.1008 58 11.8052C58 12.3132 57.8606 12.714 57.7435 13.1984C57.6514 13.5793 57.5734 14.0097 57.5435 14.4006C57.4907 15.0905 57.0891 15.7905 56.8304 16.4181C56.6696 16.8083 56.5194 17.1707 56.297 17.5224C56.1657 17.7299 56.1915 18.0071 56.0405 18.2138C55.858 18.4634 55.6244 18.715 55.4198 18.9465C55.0024 19.4189 54.73 19.9131 54.4195 20.4738C54.2042 20.8627 53.9207 21.2133 53.7116 21.6038C53.6202 21.7746 53.6105 21.9771 53.4962 22.1353C53.3069 22.3971 52.993 22.8848 52.8601 23.1879C52.3416 24.37 52.0767 25.6336 51.7264 26.8669C51.6188 27.2458 50.9703 30.6018 50.9523 31" stroke="#33333A" stroke-linecap="round"/>
<path d="M52 12C51.889 13.0276 51.6884 14.0526 51.2919 15.0183C51.0398 15.6324 50.676 16.0147 50.2712 16.5561C49.8699 17.0927 49.4755 17.6788 48.9944 18.1509C48.7135 18.4264 48.1735 18.6713 48 19" stroke="#FF8CBD" stroke-linecap="round"/>
<path d="M26.0197 38.9995C26.3171 38.9951 26.5713 38.8144 26.8689 38.7913C27.2393 38.6668 27.9679 38.3022 28.3377 38.1666C28.5002 38.1071 28.7036 38.0453 28.8151 37.9283C28.9782 37.7573 29.0036 37.6791 29.1943 37.546C29.4146 37.3923 29.7055 37.0726 29.9328 36.926C30.0314 36.8623 30.1006 36.7645 30.1967 36.7091C30.2368 36.686 30.329 36.538 30.3545 36.4922C30.5788 36.0902 30.8414 35.5845 30.8967 35.1243C30.9659 34.5486 31 34.0114 31 33.4295C31 32.7733 30.9551 32.0558 30.7648 31.4254C30.6771 31.135 30.4656 30.6601 30.2426 30.4508C29.9735 30.1982 29.5731 30.0891 29.2959 29.8377C28.2464 28.8855 26.7605 29.0048 25.4488 29.0048C24.9021 29.0048 24.1631 29.06 23.6558 29.2766C23.4312 29.3726 23.2788 29.4165 23.0964 29.5774C22.7498 29.8831 22.2122 29.951 21.8857 30.2802C21.7453 30.4218 21.5673 30.4934 21.4095 30.6127C19.9159 31.742 19.873 34.0127 20.1042 35.7027C20.2018 36.4163 20.5624 37.0332 21.0738 37.5304C21.3493 37.7982 21.723 37.99 22.0435 38.1956C22.2405 38.3219 22.3544 38.4931 22.5829 38.5571C22.8872 38.6423 23.1968 38.7564 23.5009 38.8549C23.7424 38.9332 24.0328 38.8954 24.2869 38.8954C24.8695 38.8954 25.4359 39.0082 26.0197 38.9995Z" stroke="#33333A" stroke-linecap="round"/>
<path d="M39.9803 38.9995C39.6829 38.9951 39.4287 38.8144 39.1311 38.7913C38.7607 38.6668 38.0321 38.3022 37.6623 38.1666C37.4998 38.1071 37.2964 38.0453 37.1849 37.9283C37.0218 37.7573 36.9964 37.6791 36.8057 37.546C36.5854 37.3923 36.2945 37.0726 36.0672 36.926C35.9686 36.8623 35.8994 36.7645 35.8033 36.7091C35.7632 36.686 35.671 36.538 35.6455 36.4922C35.4212 36.0902 35.1586 35.5845 35.1033 35.1243C35.0341 34.5486 35 34.0114 35 33.4295C35 32.7733 35.0449 32.0558 35.2352 31.4254C35.3229 31.135 35.5344 30.6601 35.7574 30.4508C36.0265 30.1982 36.4269 30.0891 36.7041 29.8377C37.7536 28.8855 39.2395 29.0048 40.5512 29.0048C41.0979 29.0048 41.8369 29.06 42.3442 29.2766C42.5688 29.3726 42.7212 29.4165 42.9036 29.5774C43.2502 29.8831 43.7878 29.951 44.1143 30.2802C44.2547 30.4218 44.4327 30.4934 44.5905 30.6127C46.0841 31.742 46.127 34.0127 45.8958 35.7027C45.7982 36.4163 45.4376 37.0332 44.9262 37.5304C44.6507 37.7982 44.277 37.99 43.9565 38.1956C43.7595 38.3219 43.6456 38.4931 43.4171 38.5571C43.1128 38.6423 42.8032 38.7564 42.4991 38.8549C42.2576 38.9332 41.9672 38.8954 41.7131 38.8954C41.1305 38.8954 40.5641 39.0082 39.9803 38.9995Z" stroke="#33333A" stroke-linecap="round"/>
<path d="M16 29C16.4674 29.2407 16.9544 29.4188 17.4364 29.6332C17.7803 29.7862 18.1172 30.0011 18.4799 30.1347C18.6388 30.1932 18.7117 30.3703 18.8696 30.4327C18.9958 30.4826 19.1206 30.5683 19.2464 30.6275C19.4941 30.7442 19.7196 30.9168 20 31" stroke="#33333A" stroke-linecap="round"/>
<path d="M51.5 27.5C51.0761 27.8371 50.8623 27.8674 50.3755 28.1256C50.0934 28.2751 49.8302 28.4768 49.5479 28.6284C49.0166 28.9139 48.4628 29.1251 47.9148 29.3793C47.5238 29.5607 47.1407 29.8156 46.7284 29.9739C46.5477 30.0433 46.4647 30.2533 46.2853 30.3273C46.1417 30.3865 45.9999 30.488 45.8569 30.5583C45.5752 30.6967 45.3188 30.9014 45 31" stroke="#33333A" stroke-linecap="round"/>
<path d="M30 13C30.7817 13.8291 31.9285 15.1371 31.9285 16.3182C31.9285 16.5792 32.0893 17.9242 31.9285 18" stroke="#33333A" stroke-linecap="round"/>
<path d="M34 18C34 16.897 34.4989 16.0022 35 15" stroke="#33333A" stroke-linecap="round"/>
<path d="M31.1777 34.0354C31.9897 33.9392 32.7831 33.9221 33.5975 33.9221C33.9443 33.9221 34.2809 34.092 34.6327 34.092" stroke="#33333A" stroke-linecap="round"/>
<path d="M27.0526 37C26.8253 37 26.61 36.9788 26.4014 36.8664C26.3172 36.821 26.2351 36.7714 26.1498 36.7286C26.1202 36.7137 26.0754 36.7033 26.0554 36.6713C25.9962 36.5768 25.9088 36.5043 25.841 36.4158C25.7263 36.2659 25.6297 36.1227 25.544 35.9493C25.3448 35.5456 25.062 35.1102 25.0218 34.6314C24.9823 34.1614 24.9929 33.7203 25.0835 33.2583C25.1551 32.8937 25.218 32.5192 25.326 32.1673C25.4045 31.9117 25.4975 31.7158 25.663 31.5226C25.7818 31.3839 25.9122 31.308 26.0654 31.2289C26.1923 31.1634 26.3043 31.0723 26.4314 31.0116C26.4786 30.989 26.5678 31.0059 26.6167 31.0084C26.8197 31.0187 27.0193 31.0611 27.2234 31.0646C27.5261 31.0697 27.8492 31.1155 28.1153 31.2947C28.2132 31.3606 28.2744 31.4323 28.3351 31.5396C28.4336 31.7137 28.5542 31.8559 28.6439 32.04C28.7592 32.2767 28.8215 32.5449 28.8746 32.8077C28.9322 33.0928 28.9874 33.3908 28.9972 33.6845C29.0123 34.1338 28.9629 34.5625 28.9155 35.0056C28.8712 35.4191 28.7393 35.9921 28.4568 36.2833C28.1731 36.5758 27.773 36.6862 27.4278 36.8388C27.3197 36.8866 27.214 36.9398 27.1053 36.9852C27.0469 37.0095 27.0117 36.9785 26.9546 36.9618" stroke="#33333A" stroke-linecap="round"/>
<path d="M26 32C26.0124 32.1227 26.1873 32.2532 26.2895 32.2813C26.5192 32.3445 26.7735 32.6879 26.9272 32.8811C27.2062 33.2317 27.4295 33.6901 27.5596 34.1294C27.7227 34.6799 27.9384 35.1812 27.9895 35.7705C28.0132 36.044 27.9895 35.7441 27.9895 36" stroke="#33333A" stroke-linecap="round"/>
<path d="M27.5 33.5C27.5 33.3506 27.8473 32.5731 28 32.5C28.1943 32.407 28.5 32 28.5 32" stroke="#33333A" stroke-linecap="round"/>
<path d="M39.0526 37C38.8253 37 38.61 36.9788 38.4014 36.8664C38.3172 36.821 38.2351 36.7714 38.1498 36.7286C38.1202 36.7137 38.0754 36.7033 38.0554 36.6713C37.9962 36.5768 37.9088 36.5043 37.841 36.4158C37.7263 36.2659 37.6297 36.1227 37.544 35.9493C37.3448 35.5456 37.062 35.1102 37.0218 34.6314C36.9823 34.1614 36.9929 33.7203 37.0835 33.2583C37.1551 32.8937 37.218 32.5192 37.326 32.1673C37.4045 31.9117 37.4975 31.7158 37.663 31.5226C37.7818 31.3839 37.9122 31.308 38.0654 31.2289C38.1923 31.1634 38.3043 31.0723 38.4314 31.0116C38.4786 30.989 38.5678 31.0059 38.6167 31.0084C38.8197 31.0187 39.0193 31.0611 39.2234 31.0646C39.5261 31.0697 39.8492 31.1155 40.1153 31.2947C40.2132 31.3606 40.2744 31.4323 40.3351 31.5396C40.4336 31.7137 40.5542 31.8559 40.6439 32.04C40.7592 32.2767 40.8215 32.5449 40.8746 32.8077C40.9322 33.0928 40.9874 33.3908 40.9972 33.6845C41.0123 34.1338 40.9629 34.5625 40.9155 35.0056C40.8712 35.4191 40.7393 35.9921 40.4568 36.2833C40.1731 36.5758 39.773 36.6862 39.4278 36.8388C39.3197 36.8866 39.214 36.9398 39.1053 36.9852C39.0469 37.0095 39.0117 36.9785 38.9546 36.9618" stroke="#33333A" stroke-linecap="round"/>
<path d="M38.0273 31.4434C38.0353 31.5696 38.1958 31.721 38.254 31.8302C38.403 32.1094 38.4634 32.3978 38.5719 32.6893C38.7937 33.2855 38.9284 33.8682 39.0097 34.4953C39.0747 34.9963 39.1148 35.564 38.9665 36.0584C38.9314 36.1755 38.9075 36.2952 38.8694 36.4115C38.8616 36.4352 38.852 36.5925 38.8262 36.5441" stroke="#33333A" stroke-linecap="round"/>
<path d="M39.645 31.5247C39.6838 31.6193 39.4913 31.8569 39.4519 31.9385C39.3971 32.0519 39.3495 32.1549 39.3104 32.2725C39.2398 32.4843 39.1856 32.7108 39.1712 32.9325C39.1588 33.1249 39.1534 33.3169 39.128 33.5072C39.1088 33.6513 39.132 33.8115 39.0945 33.9525C39.0657 34.0602 39.0837 34.1871 39.0837 34.2977C39.0837 34.4869 39.0866 34.6718 39.11 34.86C39.12 34.9396 39.124 35.0116 39.1268 35.0916C39.1339 35.289 39.286 35.5336 39.3955 35.6943C39.4602 35.7892 39.5233 35.8801 39.5754 35.9777C39.6016 36.0268 39.6351 36.0935 39.6714 36.1352C39.7251 36.1967 39.8021 36.2723 39.8393 36.3421" stroke="#33333A" stroke-linecap="round"/>
<path d="M38.8939 32.6597C38.8608 32.5198 38.7849 32.3846 38.7364 32.2481C38.6926 32.1251 38.6315 32.0102 38.5794 31.8911C38.5721 31.8745 38.4733 31.5505 38.5325 31.5434C38.5943 31.5361 38.6617 31.5646 38.7201 31.5786C38.837 31.6066 38.9564 31.6215 39.074 31.646C39.0987 31.6512 39.1194 31.6697 39.1435 31.6777C39.1745 31.688 39.2068 31.6814 39.2366 31.6894C39.2499 31.693 39.2213 31.7114 39.2104 31.7193C39.1573 31.7575 39.1056 31.7964 39.064 31.8459C39.0085 31.9121 38.9567 32.0065 38.939 32.0898" stroke="#33333A" stroke-linecap="round"/>
<path d="M39.3545 36.3724C39.3187 36.3687 39.3104 36.2818 39.2754 36.2982" stroke="#33333A" stroke-linecap="round"/>
</svg>
