<svg width="79" height="59" viewBox="0 0 79 59" fill="none" xmlns="http://www.w3.org/2000/svg">
<path d="M24.4995 9.5C24.4995 9.5 21.5317 6.18577 20.1267 5.5613C18.6209 4.89209 16.095 4.53745 14.5837 5.25335C7.28482 8.7107 3.84588 16.455 1.71841 23.9011C1.46383 24.7922 0.725708 28.5263 1.18806 29.3586C1.6557 30.2003 2.02948 32.0672 2.24876 33.0539C2.88526 35.9182 5.27065 36.3263 7.80887 35.124C9.47387 34.3353 10.9304 33.7817 12.2741 32.438C13.3647 31.3474 14.3852 30.0779 15.5246 29.0335C16.6575 27.9951 17.4768 26.7905 18.5185 25.7488C19.2171 25.0502 20.4294 23.3694 20.7426 22.4298" stroke="#33333A" stroke-width="1.5" stroke-linecap="round"/>
<path d="M55 8.5C55 8.5 56.9859 6.18577 58.3909 5.5613C59.8966 4.89209 62.4226 4.53745 63.9339 5.25335C71.2328 8.7107 74.6717 16.455 76.7992 23.9011C77.0538 24.7922 77.7919 28.5263 77.3295 29.3586C76.8619 30.2003 76.4881 32.0672 76.2688 33.0539C75.6323 35.9182 73.2469 36.3263 70.7087 35.124C69.0437 34.3353 67.5872 33.7817 66.2435 32.438C65.1528 31.3474 64.1323 30.0779 62.993 29.0335C61.8601 27.9951 61.0408 26.7905 59.9991 25.7488C59.3005 25.0502 58.0882 23.3694 57.775 22.4298" stroke="#33333A" stroke-width="1.5" stroke-linecap="round"/>
<path d="M14.5 30.5C14.5 31.3198 14.6261 33.3854 14.6714 34.1998C14.7047 34.7997 15.1066 35.3942 15.1275 35.9989C15.1483 36.6039 15.2264 37.7074 15.5266 38.2477C15.8088 38.7557 15.6554 39.5176 15.8686 40.0721C16.1427 40.7847 16.1913 41.6931 16.5464 42.3526C16.8662 42.9465 16.8607 43.8007 17.351 44.291C17.664 44.6041 17.7266 45.11 17.9781 45.4693C18.2304 45.8297 18.5577 46.1065 18.7509 46.5145C19.0412 47.1272 19.6039 47.5526 19.8278 48.1995C19.9908 48.6703 20.6386 49.2204 21.0188 49.5298C21.7411 50.1178 22.3057 51.1106 23.1092 51.5569C23.4394 51.7404 23.6757 52.1162 23.9961 52.3298C24.394 52.5951 24.8351 52.7615 25.2694 52.9569C26.2869 53.4148 27.3693 53.9129 28.4747 54.0972C29.1165 54.2041 30.3182 54.3705 30.8883 54.7243C31.6106 55.1727 32.6666 55.4084 33.5108 55.4084C34.547 55.4084 35.583 55.7505 36.6148 55.7505C38.6744 55.7505 40.8831 56.1743 42.9369 55.8075C43.7184 55.668 44.3906 55.6065 45.116 55.2437C45.4658 55.0689 45.8528 54.9771 46.2436 54.8953C47.3374 54.6664 48.2151 54.5515 49.2463 54.1415C50.3585 53.6993 51.4127 53.0197 52.553 52.6718C53.3582 52.4262 54.1936 51.9203 54.7195 51.2529C55.2216 50.6156 55.826 50.1412 56.4045 49.5932C57.0498 48.9818 57.5178 47.9808 57.9375 47.2177C58.7676 45.7084 60.0411 44.43 60.6804 42.796C60.8579 42.3424 61.0139 41.8682 61.2442 41.4404C61.511 40.9449 61.4826 40.4459 61.599 39.9137C61.7182 39.3685 61.9917 38.8217 61.9917 38.254C61.9917 37.8189 61.8364 37.4288 61.903 36.9871C62.08 35.8146 62.5283 34.6259 62.5619 33.4523C62.5837 32.6879 63 30.2918 63 29.5" stroke="#33333A" stroke-width="1.5" stroke-linecap="round"/>
<path d="M38.9557 51.2387C38.6791 51.1281 38.3603 51.1198 38.1056 50.9577C37.9686 50.8705 37.7596 50.836 37.6033 50.7891C37.2876 50.6944 36.9852 50.7825 36.7426 50.5256C36.5545 50.3264 36.2738 50.1771 36.0401 50.0303C35.9244 49.9577 35.8434 49.8535 35.7415 49.7651C35.5325 49.584 35.3161 49.4547 35.0741 49.3173C34.7677 49.1432 34.5536 48.8349 34.3329 48.569C34.19 48.3969 34.1043 48.2141 34.087 47.9894C34.0776 47.8676 34.0514 47.6813 34.0168 47.5644C33.9731 47.4171 34.0249 47.2899 34.0572 47.1446C34.0892 47.0005 34.3193 46.8225 34.4541 46.7811C34.8907 46.6467 35.3391 46.5681 35.7907 46.5106C36.3393 46.4408 36.895 46.4174 37.4417 46.3314C37.7739 46.2792 38.1446 46.1804 38.4797 46.1804C39.2026 46.1804 39.9194 45.9544 40.6505 46.0241C41.0382 46.061 41.4236 46.1593 41.8115 46.205C42.3029 46.2628 42.7937 46.3258 43.2851 46.3841C43.4893 46.4083 43.5504 46.4477 43.7049 46.5984C44.015 46.9009 44.3267 47.0657 44.2265 47.5416C44.1017 48.1342 43.5777 48.634 43.185 49.0643C42.8227 49.4614 42.4472 49.8372 42.0679 50.2165C41.9479 50.3365 41.847 50.4707 41.7026 50.5643C41.39 50.7669 41.0384 50.9091 40.712 51.0877C40.4004 51.2582 40.13 51.485 39.8233 51.6602C39.6854 51.739 39.5354 51.7926 39.3983 51.871" stroke="#33333A" stroke-width="2" stroke-linecap="round"/>
<path d="M34.0859 47.5L39.5859 52L44.0859 47.5L39.5859 46L34.0859 47.5Z" fill="#33333A"/>
<path d="M39.3669 49.4053C39.0828 50.7408 39.1022 52.079 39.1755 53.4344C39.2038 53.9585 39.3353 55.526 39.3353 55.0011" stroke="#33333A" stroke-width="2" stroke-linecap="round"/>
<path d="M50.4246 43.0031C50.9998 42.6734 51.5375 42.3789 52.0439 41.9475C53.1428 41.0114 54.6183 40.5901 55.7448 39.6942C56.4563 39.1284 57.1815 38.639 57.9466 38.1551C57.9952 38.1244 58.3724 37.8939 58.3612 37.9249C58.181 38.4232 57.901 38.8911 57.7218 39.3947C57.5063 40.0002 57.4486 40.6619 57.232 41.2667C57.1571 41.4758 56.982 41.7235 56.9685 41.9485C56.956 42.1568 57.1983 41.9817 57.2846 41.9389C57.7874 41.6899 58.2574 41.3812 58.7385 41.0936C60.5412 40.0158 62.3406 38.9628 64.1761 37.9455C64.7707 37.616 65.3885 37.2032 66.0188 36.9484" stroke="#FA4D81" stroke-width="1.5" stroke-linecap="round"/>
<path d="M36.6491 7.10425C35.9798 6.42839 35.3637 5.75153 34.6593 5.09496C34.1225 4.59469 33.427 4.2583 32.8941 3.75003C32.3658 3.2462 31.3069 2.71162 30.6154 2.46992C30.021 2.26213 29.0383 2 28.417 2C26.9621 2 25.0952 2.68959 25.0952 4.47921C25.0952 6.53099 24.8609 8.66402 25.1273 10.7826C25.3976 12.9317 25.1573 15.2195 25.7853 17.2804C25.9601 17.8541 26.075 18.4834 26.5716 18.8845C26.9453 19.1865 28.4818 18.8932 28.7379 18.4794C28.9149 18.1936 29.5173 18.041 29.781 17.8232C30.1713 17.5007 30.5911 17.0383 31.0487 16.8428C31.3794 16.7016 31.8314 16.1983 32.0998 15.9273C32.3706 15.6539 32.7632 15.5336 33.0385 15.2711C34.0716 14.2858 34.7297 14.2238 35.9137 13.4268" stroke="#FA4D81" stroke-width="1.5" stroke-linecap="round"/>
<path d="M42.3509 7.10425C43.0202 6.42839 43.6363 5.75153 44.3407 5.09496C44.8775 4.59469 45.573 4.2583 46.1059 3.75003C46.6342 3.2462 47.6931 2.71162 48.3846 2.46992C48.979 2.26213 49.9617 2 50.583 2C52.0379 2 53.9048 2.68959 53.9048 4.47921C53.9048 6.53099 54.1391 8.66402 53.8727 10.7826C53.6024 12.9317 53.8427 15.2195 53.2147 17.2804C53.0399 17.8541 52.925 18.4834 52.4284 18.8845C52.0547 19.1865 50.5182 18.8932 50.2621 18.4794C50.0851 18.1936 49.4827 18.041 49.219 17.8232C48.8287 17.5007 48.4089 17.0383 47.9513 16.8428C47.6206 16.7016 47.1686 16.1983 46.9002 15.9273C46.6294 15.6539 46.2368 15.5336 45.9615 15.2711C44.9284 14.2858 44.5251 14.2238 43.3411 13.4268" stroke="#FA4D81" stroke-width="1.5" stroke-linecap="round"/>
<path d="M36.0719 13.5218C35.2711 13.2523 35.3498 10.5245 35.3498 9.81922C35.3498 9.58489 35.4298 8.92857 35.5263 8.70925C35.9656 7.71107 36.8372 7.96589 37.805 7.57497C39.2193 7.00369 43.175 6.71051 43.293 8.85509C43.3363 9.64092 43.5819 10.461 43.5819 11.2614C43.5819 12.252 43.6333 12.9236 42.6833 13.1978C41.7968 13.4535 40.5569 13.6677 39.6825 13.6677C38.7944 13.6677 36.9861 14.04 36.2163 13.5218" stroke="#FA4D81" stroke-width="1.5" stroke-linecap="round"/>
<path d="M32.6055 8.70898C33.8128 8.8309 34.1502 9.99932 35.0607 10.459" stroke="#FA4D81" stroke-width="1.5" stroke-linecap="round"/>
<path d="M46.3945 8.70898C45.1872 8.8309 44.8498 9.99932 43.9393 10.459" stroke="#FA4D81" stroke-width="1.5" stroke-linecap="round"/>
<path d="M32.75 11.1885H34.9163" stroke="#FA4D81" stroke-width="1.5" stroke-linecap="round"/>
<path d="M46.25 11.1885H44.0837" stroke="#FA4D81" stroke-width="1.5" stroke-linecap="round"/>
<path d="M28 22.5684C28.8369 22.5898 29.6659 22.7096 30.4945 22.8191C30.7706 22.8555 30.984 22.9049 31.2122 23.076C31.6571 23.4097 32.2591 23.6112 32.7822 23.7968C33.5163 24.0573 34.0302 24.3988 34.4996 25.019C34.675 25.2508 35.0035 25.54 35.1013 25.8087C35.1645 25.9828 35.5 26.4998 35.5 26.4998" stroke="#33333A" stroke-width="1.5" stroke-linecap="round"/>
<path d="M41 22.5684C41.8369 22.5898 42.6659 22.7096 43.4945 22.8191C43.7706 22.8555 43.984 22.9049 44.2122 23.076C44.6571 23.4097 45.2591 23.6112 45.7822 23.7968C46.5163 24.0573 47.0302 24.3988 47.4996 25.019C47.675 25.2508 48.0035 25.54 48.1013 25.8087C48.1645 25.9828 48.5 26.4998 48.5 26.4998" stroke="#33333A" stroke-width="1.5" stroke-linecap="round"/>
<path d="M34.0395 37C33.869 37 33.7075 36.9788 33.5511 36.8664C33.4879 36.821 33.4263 36.7714 33.3624 36.7286C33.3402 36.7137 33.3066 36.7033 33.2915 36.6713C33.2472 36.5768 33.1816 36.5043 33.1308 36.4158C33.0447 36.2659 32.9722 36.1227 32.908 35.9493C32.7586 35.5456 32.5465 35.1102 32.5163 34.6314C32.4867 34.1614 32.4946 33.7203 32.5627 33.2583C32.6163 32.8937 32.6635 32.5192 32.7445 32.1673C32.8034 31.9117 32.8731 31.7158 32.9973 31.5226C33.0864 31.3839 33.1841 31.308 33.299 31.2289C33.3942 31.1634 33.4782 31.0723 33.5735 31.0116C33.609 30.989 33.6758 31.0059 33.7125 31.0084C33.8647 31.0187 34.0145 31.0611 34.1676 31.0646C34.3946 31.0697 34.6369 31.1155 34.8365 31.2947C34.9099 31.3606 34.9558 31.4323 35.0013 31.5396C35.0752 31.7137 35.1657 31.8559 35.2329 32.04C35.3194 32.2767 35.3661 32.5449 35.406 32.8077C35.4492 33.0928 35.4905 33.3908 35.4979 33.6845C35.5092 34.1338 35.4722 34.5625 35.4366 35.0056C35.4034 35.4191 35.3044 35.9921 35.0926 36.2833C34.8798 36.5758 34.5798 36.6862 34.3208 36.8388C34.2398 36.8866 34.1605 36.9398 34.079 36.9852C34.0351 37.0095 34.0088 36.9785 33.9659 36.9618" stroke="#33333A" stroke-width="2" stroke-linecap="round"/>
<ellipse cx="34" cy="34" rx="1.5" ry="3" fill="#33333A"/>
<path d="M29.9996 32.8943C30.237 32.5482 30.4612 32.2916 30.7198 32.0286C31.1713 31.5695 31.6246 31.1512 32.0783 30.9736C32.5006 30.8083 33.3068 30.6868 33.6833 30.7895" stroke="#33333A" stroke-width="1.5" stroke-linecap="round"/>
<path d="M46.0395 37C45.869 37 45.7075 36.9788 45.5511 36.8664C45.4879 36.821 45.4263 36.7714 45.3624 36.7286C45.3402 36.7137 45.3066 36.7033 45.2915 36.6713C45.2472 36.5768 45.1816 36.5043 45.1308 36.4158C45.0447 36.2659 44.9722 36.1227 44.908 35.9493C44.7586 35.5456 44.5465 35.1102 44.5163 34.6314C44.4867 34.1614 44.4946 33.7203 44.5627 33.2583C44.6163 32.8937 44.6635 32.5192 44.7445 32.1673C44.8034 31.9117 44.8731 31.7158 44.9973 31.5226C45.0864 31.3839 45.1841 31.308 45.299 31.2289C45.3942 31.1634 45.4782 31.0723 45.5735 31.0116C45.609 30.989 45.6758 31.0059 45.7125 31.0084C45.8647 31.0187 46.0145 31.0611 46.1676 31.0646C46.3946 31.0697 46.6369 31.1155 46.8365 31.2947C46.9099 31.3606 46.9558 31.4323 47.0013 31.5396C47.0752 31.7137 47.1657 31.8559 47.2329 32.04C47.3194 32.2767 47.3661 32.5449 47.406 32.8077C47.4492 33.0928 47.4905 33.3908 47.4979 33.6845C47.5092 34.1338 47.4722 34.5625 47.4366 35.0056C47.4034 35.4191 47.3044 35.9921 47.0926 36.2833C46.8798 36.5758 46.5798 36.6862 46.3208 36.8388C46.2398 36.8866 46.1605 36.9398 46.079 36.9852C46.0351 37.0095 46.0088 36.9785 45.9659 36.9618" stroke="#33333A" stroke-width="2" stroke-linecap="round"/>
<ellipse cx="46" cy="34" rx="1.5" ry="3" fill="#33333A"/>
<path d="M41.9996 32.8943C42.237 32.5482 42.4612 32.2916 42.7198 32.0286C43.1713 31.5695 43.6246 31.1512 44.0783 30.9736C44.5006 30.8083 45.3068 30.6868 45.6833 30.7895" stroke="#33333A" stroke-width="1.5" stroke-linecap="round"/>
</svg>
