<svg width="60" height="48" viewBox="0 0 60 48" fill="none" xmlns="http://www.w3.org/2000/svg">
<path d="M40.6086 36.6273C40.6225 36.7304 40.6364 36.8336 40.6501 36.9367C40.532 36.8987 40.4165 36.8468 40.2955 36.8253C40.0189 36.7758 39.7368 36.9353 39.6461 37.1904C39.5415 37.4849 39.4449 37.7819 39.6085 38.0912C39.6358 38.1429 39.6352 38.212 39.6383 38.2735C39.6458 38.4246 39.7041 38.5546 39.7955 38.671C39.9403 38.8558 40.0158 39.0624 40.026 39.2987C40.0303 39.3993 40.0486 39.5094 40.0959 39.5959C40.3071 39.9827 40.3384 40.3792 40.198 40.7936C40.1571 40.9144 40.1427 41.0447 40.1931 41.159C40.3166 41.4393 40.3239 41.7193 40.2321 42.0061C40.1852 42.1528 40.2097 42.2945 40.2669 42.4302C40.3067 42.5241 40.3637 42.6109 40.413 42.701C40.3671 42.769 40.3339 42.8525 40.273 42.9023C40.0971 43.0463 39.9247 43.2077 39.723 43.3036C39.5417 43.3897 39.3232 43.397 39.1214 43.4406C38.7167 43.528 38.3114 43.596 37.8959 43.6301C37.4653 43.6653 37.0361 43.7599 36.6163 43.8674C36.3313 43.9405 36.0497 43.9868 35.758 43.9851C35.5088 43.9837 35.2592 43.9747 35.0103 43.9831C34.7968 43.9904 34.5973 43.9561 34.4097 43.8536C34.293 43.7897 34.1745 43.788 34.0503 43.8378C33.9735 43.8685 33.8897 43.881 33.8112 43.9079C33.7083 43.943 33.6092 43.9395 33.5073 43.9035C33.3898 43.862 33.2699 43.8272 33.1511 43.7893C33.0498 43.7569 32.9484 43.7535 32.8446 43.7802C32.4354 43.8851 32.026 43.8921 31.6176 43.776C31.4738 43.7351 31.3282 43.7264 31.1893 43.7832C30.9903 43.8645 30.7851 43.8646 30.5761 43.8582C30.3061 43.85 30.0359 43.8492 29.7658 43.8487C29.5994 43.8484 29.433 43.8526 29.2751 43.9174C29.1131 43.984 28.955 43.9594 28.7883 43.9163C28.38 43.8105 27.9655 43.8092 27.5572 43.9158C27.4089 43.9545 27.2758 43.95 27.1314 43.9066C26.7522 43.7927 26.3665 43.7304 25.966 43.7382C25.7201 43.7431 25.471 43.7309 25.2269 43.6508C25.0736 43.6006 24.8993 43.6107 24.734 43.6027C24.4027 43.5867 24.071 43.5757 23.7394 43.5651C23.6577 43.5625 23.5719 43.5537 23.4948 43.5737C23.2777 43.6301 23.0823 43.5781 22.8956 43.4749C22.7027 43.3683 22.5062 43.3379 22.2972 43.4203C22.1754 43.4684 22.0463 43.4754 21.9355 43.4083C21.6563 43.2394 21.3394 43.248 21.0356 43.1874C20.7431 43.1291 20.464 43.1993 20.1789 43.211C20.0553 43.216 19.9207 43.2461 19.8096 43.2094C19.4237 43.0818 19.0289 43.1155 18.6356 43.1102C18.3865 43.1067 18.1354 43.1256 17.8887 43.1005C17.4784 43.0588 17.0659 43.022 16.6651 42.9113C16.5461 42.8786 16.4214 42.8563 16.2985 42.8508C16.05 42.8397 15.8025 42.852 15.5596 42.7664C15.4692 42.7345 15.3441 42.7392 15.2553 42.7763C14.8687 42.9379 14.473 42.8659 14.085 42.8233C13.8814 42.8008 13.6786 42.7526 13.4709 42.7409C13.3896 42.7364 13.3055 42.7155 13.2302 42.6838C13.052 42.6086 12.8686 42.6058 12.6798 42.609C12.3476 42.6148 12.0152 42.6089 11.6829 42.6051C11.5938 42.6042 11.5287 42.5536 11.4775 42.4837C11.5272 42.4469 11.5749 42.4068 11.6271 42.3732C11.9033 42.1958 11.9952 41.9381 11.9562 41.623C11.9511 41.5819 11.9475 41.5381 11.9301 41.5015C11.8415 41.3157 11.884 41.1357 11.9532 40.9589C12.0594 40.6878 12.1249 40.4039 12.1666 40.1198C12.2061 39.8506 12.2598 39.5903 12.355 39.336C12.3907 39.2405 12.4346 39.1333 12.423 39.0376C12.3976 38.8266 12.4764 38.6233 12.4544 38.4193C12.4283 38.1767 12.4727 37.9706 12.6326 37.7825C12.6826 37.7237 12.6935 37.6311 12.7199 37.5531C12.7595 37.4359 12.7837 37.3112 12.8388 37.2019C12.9162 37.0485 12.9619 36.8934 12.9429 36.7228C12.9207 36.5252 12.98 36.3532 13.0993 36.1996C13.2026 36.0665 13.2972 35.926 13.3028 35.7536C13.3098 35.5332 13.3918 35.3495 13.5414 35.1956C13.6758 35.0575 13.7713 34.9003 13.8038 34.7104C13.8221 34.6038 13.8821 34.5218 13.9308 34.4305C13.9884 34.3225 14.0271 34.2025 14.0601 34.0837C14.1656 33.7032 14.3393 33.349 14.5748 33.0349C14.7479 32.804 14.9372 32.5806 15.0766 32.3301C15.201 32.1065 15.3417 31.9103 15.5463 31.7601C15.6681 31.6709 15.7539 31.5535 15.8017 31.4143C15.919 31.0723 16.1056 30.7951 16.4214 30.5957C16.6947 30.4232 16.7706 30.1425 16.7138 29.8295C16.6991 29.749 16.6733 29.6675 16.6365 29.5946C16.5752 29.4737 16.5686 29.3619 16.636 29.241C16.7629 29.0134 16.7988 28.7792 16.7106 28.5221C16.656 28.3626 16.6804 28.1875 16.7533 28.0355C16.818 27.9005 16.8706 27.7616 16.8558 27.6178C16.8341 27.4073 16.8925 27.2074 16.9006 27.0048C16.9098 26.7753 16.9321 26.5475 16.9786 26.328C17.0384 26.0456 17.1431 25.7743 17.0851 25.4767C17.0741 25.4205 17.1088 25.3562 17.1194 25.295C17.1617 25.049 17.3111 24.8332 17.32 24.578C17.4734 24.3676 17.4114 24.0928 17.5353 23.8701C17.6173 23.7227 17.6358 23.5537 17.5968 23.3853C17.5528 23.1954 17.5989 23.0134 17.6433 22.8322C17.678 22.6914 17.7378 22.5556 17.7607 22.4136C17.8075 22.125 17.8934 21.8514 17.9981 21.5785C18.2183 21.0043 18.2601 20.6932 18.3577 20.0201C18.3954 19.7602 18.41 19.4832 18.5443 19.2427C18.6149 19.1166 18.7068 19.0012 18.7674 18.8709C18.8365 18.7222 18.8633 18.5522 18.9414 18.4096C19.0505 18.2103 19.0909 17.9766 19.2484 17.8028C19.3216 17.527 19.4739 17.321 19.7434 17.2025C19.8591 17.1518 19.9371 17.0452 19.9936 16.932C20.1845 16.5504 20.4675 16.2503 20.8398 16.053C21.1105 15.9096 21.2002 15.5976 21.461 15.4532C21.5119 15.4251 21.5503 15.3657 21.5817 15.3129C21.6236 15.2424 21.6653 15.1675 21.6855 15.0888C21.7494 14.8397 21.9742 14.6855 22.0553 14.4472C22.0674 14.4121 22.1067 14.3753 22.1423 14.3607C22.4586 14.2321 22.6706 13.9748 22.9133 13.7533C23.018 13.6576 23.128 13.5602 23.2752 13.5167C23.4158 13.475 23.5399 13.3926 23.6314 13.2753C23.7233 13.1574 23.8377 13.0763 23.9696 13.0084C24.0407 12.9717 24.1178 12.9118 24.1511 12.8425C24.2542 12.6274 24.4596 12.5089 24.5992 12.3321C24.7232 12.1749 24.8667 12.0738 25.065 12.0574C25.2183 12.0448 25.351 11.98 25.4501 11.8723C25.6662 11.6373 25.9308 11.4854 26.2226 11.3696C26.2993 11.3392 26.3781 11.3023 26.44 11.2498C26.711 11.02 27.0409 10.8925 27.3448 10.7207C27.4543 10.6587 27.5616 10.5999 27.6469 10.5069C27.766 10.3773 27.9141 10.3119 28.0894 10.3146C28.2823 10.3174 28.4487 10.2582 28.6168 10.159C28.81 10.0449 29.0254 9.96637 29.2359 9.8849C29.3509 9.84042 29.4747 9.81561 29.5966 9.79219C29.8997 9.73398 30.216 9.7293 30.4921 9.56495C30.7511 9.60147 30.9619 9.4081 31.2166 9.41575C31.4662 9.42324 31.6873 9.25421 31.9478 9.29557C32.0216 9.30728 32.1133 9.26935 32.1833 9.23018C32.3833 9.11812 32.5849 9.13232 32.7841 9.21145C32.9475 9.27638 33.1018 9.26764 33.2702 9.2308C33.5746 9.16416 33.8817 9.16915 34.1911 9.22909C34.4191 9.27325 34.6334 9.32694 34.8169 9.48208C34.9628 9.60537 35.1384 9.66547 35.3349 9.66437C35.4158 9.6639 35.5056 9.67327 35.5756 9.70901C35.731 9.7886 35.8905 9.80608 36.0594 9.79016C36.252 9.77206 36.428 9.81748 36.5936 9.9208C36.6801 9.97464 36.7837 10.0478 36.8739 10.0408C37.2092 10.0148 37.482 10.1242 37.7189 10.3516C37.7473 10.3789 37.791 10.4026 37.8293 10.4054C38.029 10.4196 38.1604 10.5747 38.331 10.6403C38.5077 10.7082 38.666 10.7939 38.8228 10.8981C39.0282 11.0347 39.2817 11.0867 39.476 11.2516C39.5189 11.288 39.5918 11.2958 39.6525 11.3033C39.8501 11.3278 40.0082 11.4294 40.1266 11.5764C40.2565 11.7376 40.4268 11.8606 40.5332 12.0462C40.5917 12.1481 40.6993 12.2296 40.8001 12.2976C40.9048 12.3685 40.9936 12.4487 41.079 12.5414C41.1617 12.6313 41.2614 12.7168 41.3707 12.7679C41.4871 12.8222 41.5811 12.8915 41.6716 12.9798C41.7442 13.0507 41.8342 13.1089 41.9258 13.154C42.1919 13.2852 42.4026 13.4763 42.5806 13.711C42.7043 13.8744 42.9587 14.3103 43.0394 14.5103C43.0856 14.6248 43.1245 14.7498 43.1999 14.8436C43.375 15.0615 43.4544 15.3175 43.5093 15.5784C43.5446 15.7457 43.5846 15.9034 43.6962 16.0315C43.8791 16.2416 43.9482 16.5011 44.0317 16.7558C44.0701 16.8732 44.1054 16.9934 44.1603 17.1031C44.3581 17.4975 44.5049 17.8981 44.4116 18.352C44.3819 18.496 44.398 18.6452 44.4634 18.7793C44.5706 18.9992 44.5725 19.2204 44.4898 19.4443C44.4192 19.6352 44.4611 19.8128 44.5427 19.9867C44.5689 20.0426 44.6056 20.0933 44.6376 20.1465C44.62 20.2684 44.6026 20.3904 44.5848 20.5123C44.573 20.5933 44.5602 20.6742 44.5475 20.755C44.4644 20.756 44.3813 20.7556 44.2984 20.758C43.9911 20.7667 43.7893 20.9304 43.6924 21.2097C43.6384 21.3653 43.5958 21.5224 43.5246 21.6737C43.4739 21.7813 43.4479 21.9162 43.4588 22.0343C43.4816 22.2805 43.4293 22.5235 43.4774 22.7741C43.5189 22.9906 43.4667 23.2225 43.4319 23.4493C43.3453 24.014 43.9815 24.4198 44.4138 24.1831C44.4865 24.1433 44.558 24.1012 44.6318 24.0633C44.6981 24.0293 44.7547 24.0575 44.7536 24.1226C44.7526 24.1847 44.7472 24.2467 44.7442 24.3088C44.7333 24.5328 44.8188 24.7111 44.9933 24.8515C45.0894 24.9289 45.1854 25.0081 45.2708 25.097C45.3588 25.1884 45.451 25.268 45.5725 25.3094C45.7641 25.3746 45.8742 25.5148 45.9489 25.6975C46.0132 25.8545 46.1161 26.0036 46.2782 26.0552C46.5897 26.1545 46.7402 26.3791 46.8366 26.6659C46.8558 26.7229 46.8992 26.7719 46.9311 26.824C46.9162 26.8412 46.9056 26.864 46.8885 26.8713C46.5479 27.0162 46.3583 27.3204 46.1378 27.5894C46.0881 27.6501 46.065 27.7382 46.0471 27.8176C46.029 27.8977 46.0529 27.9908 46.0232 28.064C45.9246 28.3074 45.9455 28.5385 46.0054 28.791C46.0524 28.9892 46.0497 29.1949 46.1495 29.3869C46.2444 29.5694 46.1988 29.8039 46.3274 29.9773C46.4505 30.1432 46.5854 30.2974 46.6706 30.4914C46.7294 30.625 46.846 30.7213 46.9857 30.7797C47.0431 30.8037 47.1012 30.8264 47.1577 30.8524C47.5065 31.0129 47.5231 31.0544 47.4144 31.4123C47.3423 31.6495 47.2974 31.8951 47.1596 32.1093C47.0261 32.3167 46.8824 32.5201 46.8223 32.7659C46.5045 33.2719 46.2222 33.8 45.8067 34.242C45.6611 34.397 45.5214 34.5443 45.322 34.6131C45.1359 34.6774 44.9917 34.7858 44.8892 34.949C44.7793 35.124 44.6097 35.1928 44.4191 35.2159C44.2969 35.2307 44.1714 35.2279 44.048 35.222C43.8577 35.2129 43.6798 35.2309 43.512 35.3392C43.3107 35.4692 43.0914 35.4903 42.8552 35.4258C42.7624 35.4005 42.6472 35.4174 42.5526 35.4477C42.3809 35.5024 42.2222 35.4851 42.0719 35.4011C41.8659 35.286 41.653 35.2237 41.4158 35.264C41.3757 35.2708 41.3331 35.2657 41.292 35.2621C40.9747 35.2349 40.683 35.1597 40.46 34.902C40.3039 34.7216 40.0909 34.6394 39.849 34.6423C39.7155 34.6439 39.6058 34.5894 39.5217 34.4897C39.3714 34.3113 39.2047 34.1633 38.9645 34.1175C38.9066 34.1064 38.8506 34.0678 38.8016 34.0313C38.569 33.8584 38.2764 33.7878 38.057 33.5932C37.8099 33.5361 37.6551 33.3934 37.6289 33.1315C37.5488 33.0379 37.4798 32.931 37.3863 32.8533C37.1911 32.6908 37.0523 32.4862 36.9265 32.273C36.8115 32.0779 36.7121 31.8745 36.6216 31.6649C36.5058 31.3968 36.1619 31.2677 35.8865 31.3275C35.4552 31.4212 35.1752 31.9201 35.4496 32.3515C35.6254 32.6279 35.7128 32.9642 35.9865 33.1768C36.0716 33.3906 36.2943 33.5138 36.3562 33.7471C36.3759 33.8212 36.4418 33.8905 36.5019 33.9453C36.7293 34.1523 36.885 34.4329 37.182 34.571C37.3091 34.6302 37.4125 34.7436 37.5198 34.8401C37.6423 34.9504 37.744 35.0887 37.8787 35.1794C38.0307 35.2818 38.2174 35.3315 38.3743 35.4282C38.5372 35.5285 38.7008 35.6061 38.894 35.615C39.0237 35.6209 39.1401 35.6641 39.2156 35.7759C39.3767 36.014 39.5961 36.1338 39.8821 36.1846C40.1714 36.236 40.4249 36.3846 40.6092 36.6277L40.6086 36.6273ZM27.2095 35.2513C27.4743 35.3195 27.7392 35.173 28.0204 35.1144C28.3053 35.0551 28.5584 34.8924 28.8531 34.8708C29.0792 34.7255 29.335 34.6295 29.5562 34.483C29.7444 34.3581 29.9387 34.2364 30.1163 34.0994C30.3108 33.9494 30.4807 33.7655 30.6927 33.6341C30.8397 33.3966 31.1347 33.3276 31.2948 33.105C31.5517 32.9653 31.7424 32.7434 31.969 32.5669C32.1197 32.4495 32.2584 32.3378 32.3386 32.1591C32.3716 32.0857 32.4274 32.0173 32.4874 31.9626C32.6144 31.8461 32.7074 31.7072 32.7444 31.5435C32.7972 31.3099 32.9212 31.1234 33.0917 30.9682C33.2348 30.8379 33.3472 30.6917 33.3859 30.503C33.4216 30.3293 33.5151 30.1865 33.6446 30.0886C33.9001 29.8959 34.0031 29.5812 34.2461 29.3804C34.3044 29.3323 34.336 29.2388 34.3565 29.1601C34.4355 28.8544 34.6004 28.5972 34.7677 28.3337C34.9444 28.0556 35.1387 27.7889 35.3026 27.5005C35.4287 27.2785 35.5509 27.0764 35.5397 26.8106C35.5365 26.7379 35.5795 26.6396 35.6349 26.5923C35.8871 26.3772 36.0388 26.1223 36.0229 25.7818C36.021 25.7417 36.0237 25.6914 36.0457 25.6616C36.2064 25.4441 36.1018 25.1684 36.2097 24.9399C36.3269 24.6916 36.2333 24.4002 36.3672 24.1521C36.3935 24.1031 36.3864 24.0275 36.3748 23.9681C36.321 23.6934 36.3959 23.4363 36.4681 23.1774C36.4958 23.0785 36.534 22.977 36.5337 22.8768C36.5321 22.5417 36.6217 22.2208 36.696 21.9018C36.7623 21.617 36.7636 21.3281 36.8151 21.0431C36.8622 20.7816 36.7372 20.5577 36.5039 20.4099C36.2496 20.2487 35.9932 20.2478 35.7423 20.4117C35.559 20.5312 35.434 20.7051 35.4265 20.9233C35.415 21.2565 35.2349 21.5597 35.2703 21.8979C35.171 22.0902 35.2249 22.3117 35.1631 22.5051C35.0903 22.7326 35.1203 22.9533 35.1173 23.1799C35.115 23.3628 35.066 23.5486 35.0146 23.7265C34.9741 23.8669 34.96 24.0093 34.9325 24.1499C34.8383 24.6344 34.8094 25.1383 34.5552 25.5819C34.5252 25.6341 34.504 25.7022 34.508 25.761C34.5286 26.0624 34.4935 26.3384 34.2165 26.5244C34.1712 26.6399 34.1241 26.7546 34.0813 26.8709C34.0315 27.0063 34.0109 27.1602 33.9329 27.276C33.7367 27.5674 33.5903 27.8877 33.3912 28.1763C33.3561 28.227 33.3192 28.281 33.271 28.3175C33.0995 28.4478 33.0066 28.625 32.9125 28.8151C32.8131 29.0159 32.6414 29.1764 32.6102 29.4186C32.5913 29.5653 32.4994 29.6817 32.36 29.7565C32.189 29.8483 32.0794 29.99 32.0121 30.1768C31.9272 30.4126 31.8033 30.6282 31.5848 30.7728C31.4593 30.8559 31.3711 30.9751 31.3199 31.1118C31.2436 31.3161 31.0818 31.4567 30.938 31.5956C30.6872 31.838 30.3976 32.0409 30.1196 32.2543C30.0224 32.3289 29.9094 32.3826 29.8076 32.4519C29.7394 32.4982 29.6712 32.5485 29.6155 32.6087C29.2578 32.9944 28.7952 33.2267 28.348 33.4811C28.0248 33.665 27.6523 33.7463 27.3434 33.9617C27.3111 33.9843 27.2642 33.9854 27.2252 33.9995C27.1205 34.0371 27.0209 34.0294 26.9315 33.9617C26.6667 33.7608 26.4688 33.4902 26.2204 33.2715C26.1755 33.2319 26.1273 33.1712 26.1215 33.1161C26.0943 32.8572 25.8727 32.683 25.8337 32.4323C25.8069 32.26 25.7224 32.1211 25.5957 32.0061C25.4513 31.8752 25.3691 31.7138 25.3377 31.5218C25.3244 31.441 25.2934 31.3628 25.2682 31.2843C25.1237 30.834 24.9664 30.3878 24.9083 29.9136C24.8938 29.7953 24.8384 29.6731 24.7719 29.5725C24.6794 29.4325 24.5576 29.2926 24.557 29.1305C24.5559 28.8341 24.3791 28.5764 24.4031 28.2782C24.4094 28.2 24.3764 28.1154 24.3491 28.0381C24.1761 27.5467 24.182 27.0212 24.0557 26.521C24.0944 26.2617 24.0165 26.03 23.8945 25.8058C23.8544 25.7323 23.8455 25.6457 23.8795 25.5652C23.9811 25.3245 23.9685 25.0842 23.9154 24.8324C23.8469 24.5076 23.8271 24.1682 23.8833 23.846C23.9305 23.5746 23.9639 23.3182 23.9012 23.0488C23.8831 22.9712 23.8784 22.8724 23.9112 22.8042C24.0212 22.5756 24.0276 22.3228 24.1008 22.0899C24.165 21.8856 24.2034 21.6913 24.1845 21.4815C24.1748 21.3734 24.2001 21.2743 24.2841 21.1998C24.4445 21.0573 24.5442 20.8891 24.5839 20.6711C24.6088 20.5331 24.6719 20.385 24.7621 20.2793C24.9363 20.0758 25.0575 19.8278 25.2721 19.6594C25.4246 19.5397 25.517 19.3902 25.5779 19.204C25.6352 19.0289 25.7263 18.8615 25.8235 18.7038C25.9314 18.5286 26.06 18.3659 26.185 18.202C26.3476 17.989 26.5028 17.7697 26.6927 17.5788C26.8107 17.2663 27.1033 17.0567 27.1945 16.7285C27.3941 16.5517 27.4583 16.3168 27.4968 16.0638C27.5219 15.8988 27.5922 15.7513 27.7362 15.6413C27.9472 15.4801 28.0432 15.2567 28.0431 14.9899C28.0431 14.8383 28.1052 14.7046 28.2012 14.592C28.3078 14.467 28.3917 14.3214 28.5451 14.2376C28.6742 14.1671 28.7636 14.0536 28.8435 13.927C28.9202 13.8056 29.0288 13.7049 29.1173 13.5904C29.2481 13.4212 29.4163 13.3177 29.615 13.2376C29.8502 13.1428 30.0998 13.1309 30.3387 13.066C30.6869 12.9712 30.9157 12.5967 30.8464 12.2441C30.7379 11.6932 30.1624 11.4358 29.6977 11.7504C29.5415 11.8562 29.3731 11.9298 29.2158 12.0262C28.9174 12.2093 28.5935 12.3522 28.3188 12.5723C28.0936 12.7527 27.8746 12.9414 27.661 13.1353C27.6026 13.1883 27.5698 13.2718 27.5321 13.3449C27.4848 13.4366 27.4572 13.5407 27.3989 13.6241C27.1982 13.9116 27.0233 14.2193 26.7615 14.4609C26.619 14.5925 26.5195 14.7519 26.5187 14.9498C26.5176 15.214 26.4191 15.4306 26.2417 15.6204C26.1856 15.6803 26.1237 15.7492 26.1028 15.8245C26.0503 16.0134 25.9008 16.1362 25.812 16.2976C25.7127 16.478 25.652 16.6778 25.5156 16.8406C25.4654 16.9005 25.453 16.9915 25.4198 17.0667C25.2094 17.5438 24.9492 17.9925 24.5297 18.3123C24.3232 18.4698 24.1531 18.632 24.073 18.8811C24.0545 18.9388 24.0234 18.9939 23.9906 19.0454C23.8691 19.236 23.7543 19.4323 23.6178 19.6118C23.479 19.7941 23.4221 20.0235 23.2566 20.19C23.1663 20.281 23.135 20.4143 23.1407 20.5378C23.1527 20.8003 23.0754 21.0266 22.9155 21.2295C22.8221 21.3478 22.7794 21.4834 22.7698 21.6329C22.7633 21.7356 22.7667 21.8444 22.7332 21.939C22.6685 22.1213 22.6572 22.302 22.6795 22.491C22.689 22.5722 22.6874 22.658 22.6724 22.7382C22.6342 22.9411 22.5841 23.1417 22.5413 23.3438C22.4923 23.5752 22.6263 23.7833 22.6231 24.016C22.6192 24.3078 22.5872 24.5967 22.5332 24.8769C22.4875 25.1141 22.4753 25.3306 22.5838 25.541C22.6678 25.7038 22.6695 25.8522 22.5943 26.0161C22.5231 26.1709 22.5072 26.343 22.5509 26.5047C22.6053 26.7068 22.5963 26.9171 22.6411 27.1154C22.7369 27.5389 22.8213 27.9624 22.8674 28.3943C22.8782 28.4948 22.9045 28.6131 22.9676 28.6846C23.1246 28.8627 23.1571 29.0972 23.2758 29.2875C23.4214 29.5211 23.5213 29.7616 23.5391 30.039C23.5455 30.1387 23.5717 30.2505 23.6267 30.3311C23.7353 30.4905 23.772 30.6725 23.8372 30.8462C23.9383 31.1159 24.0272 31.3899 24.1334 31.6585C24.2613 31.9816 24.4214 32.3022 24.4 32.6708C24.3913 32.82 24.4687 32.9524 24.5731 33.0602C24.6744 33.1651 24.7702 33.2686 24.8199 33.4131C24.8454 33.4875 24.9041 33.5606 24.9669 33.6104C25.1837 33.7824 25.3165 34.0208 25.4624 34.2436C25.6235 34.4894 25.8612 34.6634 26.0253 34.9033C26.0575 34.9503 26.1235 34.9785 26.1792 35.0038C26.2735 35.0467 26.3848 35.0628 26.4664 35.1215C26.684 35.2779 26.9139 35.3314 27.209 35.2512L27.2095 35.2513ZM41.0782 33.169C41.0782 33.3621 41.0607 33.4885 41.0815 33.6085C41.1445 33.9745 41.4216 34.1388 41.6716 34.1519C42.0223 34.1704 42.2589 33.9442 42.3255 33.6897C42.3411 33.6299 42.3535 33.5685 42.3602 33.5072C42.3847 33.2814 42.4064 33.0554 42.4289 32.8292C42.4374 32.7431 42.4741 32.6702 42.5358 32.6115C42.6549 32.4981 42.8165 32.4136 42.8635 32.2471C42.9166 32.0596 43.0486 31.9273 43.1409 31.7678C43.2944 31.5022 43.5303 31.2785 43.5699 30.9529C43.7047 30.7958 43.7577 30.5846 43.9164 30.4418C44.0595 30.3129 44.1372 30.1496 44.1692 29.9556C44.1853 29.8587 44.248 29.766 44.3027 29.6794C44.435 29.4695 44.4558 29.2404 44.364 29.024C44.2686 28.7993 44.2491 28.5842 44.3297 28.3614C44.4079 28.1452 44.3512 27.9529 44.2487 27.7663C44.209 27.6941 44.1485 27.6336 44.1083 27.5618C44.0793 27.5098 44.0642 27.453 44.097 27.3875C44.2085 27.1647 44.1695 26.8997 44.312 26.6784C44.4328 26.4905 44.4016 26.2719 44.2866 26.0858C44.1453 25.8575 44.1071 25.6274 44.1982 25.3746C44.2118 25.3367 44.214 25.2933 44.2143 25.2524C44.2167 24.9596 43.9757 24.6773 43.6948 24.6412C43.369 24.5995 43.0912 24.7559 43.0024 25.038C42.9465 25.2153 42.9108 25.3996 42.847 25.5737C42.7861 25.7393 42.7789 25.8959 42.8493 26.0565C42.9403 26.2642 42.9172 26.4601 42.7902 26.646C42.7786 26.6628 42.7714 26.683 42.7625 26.7015C42.6683 26.898 42.6558 27.0914 42.7366 27.3022C42.8103 27.4944 42.8891 27.7001 42.891 27.9006C42.8936 28.1772 42.9319 28.4328 43.0513 28.6807C43.0761 28.732 43.0848 28.8049 43.0697 28.8591C43.0254 29.0167 43.0027 29.1812 42.8949 29.3196C42.807 29.4323 42.7465 29.5662 42.6717 29.6894C42.5969 29.8124 42.5136 29.9304 42.4449 30.0565C42.3666 30.2004 42.3502 30.3705 42.2338 30.5019C42.0911 30.663 42.036 30.8627 42.0471 31.0795C42.0518 31.1697 42.0103 31.2332 41.9297 31.278C41.7426 31.3823 41.604 31.529 41.5279 31.7345C41.4998 31.8102 41.4517 31.8805 41.4027 31.9457C41.3264 32.047 41.271 32.1534 41.25 32.2808C41.2335 32.3818 41.2129 32.4862 41.1697 32.5777C41.0684 32.7916 41.0067 33.0051 41.0788 33.169H41.0782Z" fill="#FCFCFC"/>
<path d="M44.6372 20.1463C44.6052 20.0932 44.5685 20.0423 44.5423 19.9865C44.4607 19.8126 44.4188 19.6352 44.4894 19.4441C44.5721 19.22 44.5702 18.9988 44.463 18.7791C44.3976 18.6452 44.3817 18.4958 44.4112 18.3518C44.5045 17.8979 44.3577 17.4971 44.1599 17.1029C44.1048 16.9932 44.0697 16.873 44.0313 16.7556C43.948 16.5009 43.8787 16.2415 43.6958 16.0313C43.5842 15.9031 43.5442 15.7455 43.5089 15.5782C43.454 15.3173 43.3746 15.0613 43.1994 14.8434C43.1241 14.7498 43.0854 14.6246 43.039 14.51C42.9583 14.3101 42.7039 13.8742 42.5801 13.7108C42.4022 13.4761 42.1915 13.285 41.9254 13.1538C41.834 13.1087 41.7438 13.0505 41.6712 12.9796C41.5808 12.8913 41.4867 12.8221 41.3703 12.7677C41.261 12.7166 41.1613 12.6311 41.0786 12.5412C40.9934 12.4485 40.9044 12.3683 40.7997 12.2974C40.699 12.2292 40.5913 12.1479 40.5328 12.046C40.4264 11.8604 40.2561 11.7374 40.1262 11.5762C40.0078 11.4292 39.8498 11.3274 39.6521 11.3031C39.5914 11.2956 39.5185 11.2878 39.4756 11.2514C39.2814 11.0864 39.0278 11.0345 38.8224 10.8979C38.6655 10.7937 38.5073 10.708 38.3306 10.6401C38.16 10.5745 38.0286 10.4194 37.8288 10.4052C37.7906 10.4025 37.7469 10.3787 37.7185 10.3513C37.4816 10.1239 37.2088 10.0145 36.8735 10.0406C36.7833 10.0476 36.6797 9.97459 36.5932 9.92059C36.4275 9.81742 36.2516 9.77185 36.059 9.78995C35.8901 9.80587 35.7308 9.78839 35.5752 9.7088C35.5052 9.67306 35.4152 9.66369 35.3345 9.66416C35.138 9.66526 34.9624 9.60516 34.8165 9.48187C34.6329 9.32673 34.4187 9.27304 34.1906 9.22887C33.8813 9.16894 33.5742 9.16395 33.2698 9.23059C33.1014 9.26743 32.9471 9.27617 32.7836 9.21124C32.5845 9.13227 32.3827 9.11791 32.1829 9.22997C32.113 9.26914 32.0212 9.30707 31.9474 9.29536C31.6868 9.254 31.4656 9.42318 31.2162 9.41554C30.9613 9.40789 30.7507 9.60126 30.4917 9.56474C30.2156 9.72924 29.8993 9.73393 29.5962 9.79198C29.4743 9.8154 29.3505 9.84021 29.2355 9.88469C29.025 9.96616 28.8096 10.0447 28.6164 10.1588C28.4481 10.258 28.2819 10.3172 28.089 10.3144C27.9137 10.3117 27.7656 10.3771 27.6465 10.5066C27.561 10.5997 27.4538 10.6585 27.3444 10.7205C27.0405 10.8923 26.7106 11.0198 26.4396 11.2495C26.3777 11.3021 26.2987 11.3391 26.2222 11.3694C25.9304 11.4852 25.6657 11.6371 25.4497 11.8721C25.3507 11.9798 25.218 12.0446 25.0646 12.0572C24.8663 12.0736 24.7228 12.1747 24.5987 12.3319C24.4592 12.5087 24.2538 12.6272 24.1507 12.8423C24.1174 12.9116 24.0403 12.9716 23.9692 13.0082C23.8373 13.0761 23.7229 13.1572 23.6309 13.2751C23.5395 13.3924 23.4154 13.4748 23.2748 13.5165C23.1276 13.56 23.0176 13.6574 22.9129 13.7531C22.6702 13.9746 22.4582 14.2319 22.1419 14.3605C22.1063 14.3749 22.0669 14.4117 22.0549 14.447C21.9738 14.6855 21.749 14.8395 21.685 15.0886C21.6649 15.1673 21.6231 15.2422 21.5812 15.3127C21.5499 15.3653 21.5115 15.4249 21.4606 15.453C21.1998 15.5974 21.1101 15.9094 20.8394 16.0528C20.4671 16.2501 20.1841 16.5501 19.9932 16.9318C19.9366 17.045 19.8587 17.1516 19.743 17.2023C19.4735 17.3208 19.3212 17.5268 19.248 17.8025C19.0905 17.9764 19.0499 18.2101 18.941 18.4094C18.8629 18.5522 18.8361 18.722 18.767 18.8707C18.7064 19.001 18.6145 19.1164 18.5439 19.2425C18.4095 19.483 18.3949 19.76 18.3573 20.0199C18.2596 20.693 18.2179 21.0041 17.9977 21.5782C17.893 21.8512 17.8071 22.1248 17.7603 22.4134C17.7373 22.5556 17.6774 22.6912 17.6429 22.832C17.5984 23.0132 17.5524 23.1953 17.5964 23.3851C17.6354 23.5537 17.6169 23.7227 17.5349 23.8699C17.411 24.0924 17.473 24.3674 17.3195 24.5778C17.3106 24.833 17.1613 25.0488 17.119 25.2948C17.1085 25.356 17.0737 25.4203 17.0847 25.4765C17.1427 25.7743 17.0378 26.0453 16.9782 26.3278C16.9319 26.5471 16.9095 26.7751 16.9002 27.0046C16.8921 27.2072 16.8337 27.4071 16.8554 27.6176C16.8702 27.7614 16.8176 27.9003 16.7528 28.0353C16.6798 28.1873 16.6556 28.3624 16.7102 28.5219C16.7983 28.779 16.7624 29.0132 16.6356 29.2408C16.5682 29.3617 16.5746 29.4735 16.6361 29.5944C16.6731 29.6672 16.6987 29.7488 16.7134 29.8293C16.7703 30.1422 16.6945 30.4229 16.421 30.5955C16.1051 30.7948 15.9186 31.072 15.8013 31.4141C15.7535 31.5533 15.6675 31.6707 15.5459 31.7599C15.3413 31.9101 15.2005 32.1063 15.0762 32.3299C14.9368 32.5804 14.7475 32.8037 14.5744 33.0347C14.339 33.3489 14.1652 33.703 14.0597 34.0835C14.0267 34.2023 13.988 34.3223 13.9304 34.4303C13.8819 34.5216 13.8216 34.6034 13.8034 34.7102C13.7709 34.9001 13.6754 35.0573 13.541 35.1954C13.3912 35.3493 13.3094 35.533 13.3024 35.7534C13.2969 35.9258 13.2022 36.0663 13.0989 36.1994C12.9796 36.3531 12.9202 36.525 12.9425 36.7226C12.9617 36.8931 12.9158 37.0483 12.8384 37.2017C12.7833 37.311 12.7593 37.4357 12.7195 37.5529C12.6931 37.6309 12.6822 37.7235 12.6322 37.7823C12.4722 37.9704 12.4278 38.1765 12.454 38.4191C12.476 38.6232 12.397 38.8264 12.4226 39.0374C12.4342 39.1331 12.3903 39.2403 12.3546 39.3358C12.2595 39.5901 12.2057 39.8503 12.1662 40.1196C12.1245 40.4035 12.059 40.6876 11.9528 40.9587C11.8837 41.1355 11.8412 41.3155 11.9297 41.5013C11.9471 41.5377 11.9508 41.5817 11.9558 41.6228C11.9948 41.9377 11.9029 42.1954 11.6266 42.373C11.5745 42.4066 11.5268 42.4465 11.4771 42.4835C11.3944 42.4835 11.3109 42.489 11.2285 42.4826C10.8524 42.4532 10.6122 42.2467 10.5195 41.8925C10.4739 41.7184 10.5129 41.5567 10.5888 41.4097C10.7334 41.1296 10.808 40.8307 10.8608 40.5248C10.9029 40.281 10.9351 40.0352 10.9655 39.7895C10.9961 39.5436 11.0517 39.3015 11.0406 39.0491C11.0354 38.9299 11.0848 38.8071 11.1172 38.688C11.1765 38.4698 11.244 38.2538 11.303 38.0356C11.319 37.9763 11.3223 37.9123 11.3228 37.8503C11.3242 37.6637 11.3154 37.4769 11.322 37.2904C11.3286 37.1037 11.4593 36.9456 11.4395 36.7461C11.4225 36.5746 11.4971 36.4145 11.6226 36.2974C11.8002 36.1318 11.8923 35.9314 11.9101 35.6956C11.9229 35.5255 11.9878 35.381 12.0637 35.2293C12.1643 35.0278 12.2366 34.8076 12.2882 34.5875C12.3266 34.4238 12.3686 34.2725 12.4577 34.126C12.5531 33.9691 12.5937 33.7792 12.6889 33.6223C12.7842 33.4652 12.9269 33.3375 13.0321 33.1855C13.2431 32.8805 13.4877 32.5938 13.5924 32.2264C13.755 32.0128 13.8994 31.7813 14.0859 31.5911C14.2515 31.422 14.386 31.2507 14.4341 31.0177C14.4693 30.8464 14.5607 30.7061 14.7049 30.6142C14.8875 30.4978 14.9742 30.3013 15.1188 30.154C15.1587 30.1132 15.1798 30.0486 15.1963 29.9912C15.2133 29.932 15.204 29.8646 15.2241 29.807C15.2783 29.6517 15.3771 29.503 15.3913 29.3457C15.4034 29.2108 15.3151 29.0692 15.2858 28.9277C15.2511 28.7601 15.2762 28.5907 15.3587 28.4434C15.459 28.2639 15.4607 28.0854 15.3924 27.9037C15.3149 27.6983 15.3104 27.5001 15.4042 27.2994C15.52 27.0517 15.5194 26.7753 15.5901 26.5153C15.66 26.2579 15.6697 25.9848 15.7207 25.7215C15.744 25.6015 15.786 25.4779 15.85 25.375C15.9307 25.2453 15.9879 25.1028 15.9748 24.9642C15.947 24.6686 16.039 24.3893 16.0594 24.1008C16.0811 23.7959 16.1634 23.4875 16.2859 23.2069C16.379 22.9937 16.448 22.7791 16.4769 22.5553C16.5009 22.3678 16.5297 22.1885 16.6072 22.0143C16.6484 21.9218 16.6704 21.8152 16.6767 21.7136C16.7093 21.1759 16.847 20.6531 16.8983 20.1182C16.9061 20.0363 16.9099 19.9389 16.9553 19.8783C17.1079 19.6746 17.1485 19.4207 17.2735 19.2094C17.3835 19.0233 17.4538 18.8357 17.446 18.6221C17.4397 18.4493 17.4825 18.294 17.5769 18.1501C17.7481 17.8895 17.8614 17.6014 17.9668 17.31C18.0169 17.1711 18.0742 17.0328 18.1976 16.9479C18.4127 16.7999 18.5508 16.5988 18.6398 16.3604C18.7245 16.133 18.8809 15.9937 19.0995 15.8838C19.4157 15.7249 19.7043 15.5209 19.812 15.1462C19.8396 15.0497 19.8918 14.9463 19.9639 14.8798C20.1037 14.751 20.2114 14.6032 20.3158 14.4473C20.372 14.3633 20.4546 14.2933 20.536 14.2308C20.9579 13.9075 21.1266 13.7394 21.4029 13.2772C21.5023 13.1109 21.6061 12.964 21.7865 12.8871C21.9444 12.8196 22.0576 12.6963 22.1773 12.5822C22.3117 12.4541 22.4312 12.3099 22.5698 12.1869C22.7081 12.0642 22.8882 11.9962 22.9992 11.8329C23.0691 11.7301 23.1833 11.6634 23.3088 11.6352C23.5596 11.5789 23.7496 11.4061 23.9671 11.2884C24.0892 11.2224 24.1937 11.1038 24.2749 10.9869C24.3983 10.809 24.5435 10.676 24.7511 10.6065C25.0136 10.5187 25.2224 10.3504 25.405 10.146C25.5185 10.0188 25.6536 9.92433 25.828 9.90373C26.1058 9.87096 26.3293 9.70849 26.557 9.57348C26.7 9.48874 26.8293 9.38183 26.9957 9.35389C27.2308 9.3144 27.4226 9.20562 27.5935 9.04331C27.6671 8.97323 27.7562 8.89613 27.8502 8.87506C28.135 8.81107 28.3816 8.64329 28.666 8.58742C28.9922 8.52327 29.3026 8.41808 29.6024 8.27605C29.6767 8.24078 29.7621 8.19068 29.8359 8.19958C30.1175 8.23376 30.3541 8.04476 30.6263 8.05537C30.8797 8.06536 31.0932 7.87729 31.3561 7.92068C31.4291 7.93269 31.5151 7.88197 31.5922 7.85216C31.7544 7.78926 31.9198 7.78365 32.0801 7.84124C32.2037 7.88572 32.3215 7.88291 32.4461 7.86059C32.6913 7.81673 32.9152 7.68595 33.1707 7.68548C33.3733 7.57373 33.5568 7.45636 33.5851 7.18807C33.6344 6.72095 33.6416 6.72204 33.5531 6.02018C33.5428 5.93887 33.5443 5.85334 33.5567 5.77234C33.5937 5.52793 33.8158 5.31474 34.056 5.28181C34.3957 5.2353 34.6512 5.36016 34.7597 5.66075C34.8294 5.85413 34.8725 6.05686 34.9708 6.24134C35.0314 6.35512 35.0436 6.48544 35.0108 6.60624C34.9665 6.76918 34.9554 6.92993 34.9591 7.09771C34.9615 7.19791 34.9271 7.30185 34.8942 7.39908C34.8213 7.614 34.7388 7.82547 34.6607 8.03867C34.6415 8.09111 34.6887 8.15432 34.7509 8.15994C34.7923 8.16368 34.834 8.16477 34.8755 8.16633C34.9852 8.17039 35.0753 8.14246 35.1344 8.0368C35.3064 7.72996 35.4765 7.42109 35.6053 7.09412C35.6852 6.89107 35.7947 6.72797 35.9881 6.62341C36.1433 6.53944 36.2399 6.40927 36.2736 6.23588C36.3159 6.01925 36.4392 5.85896 36.6141 5.73301C36.631 5.72084 36.6502 5.71116 36.6645 5.69649C36.8645 5.49188 37.0113 5.22469 37.3169 5.14525C37.5075 4.918 37.785 4.8061 38.0121 4.62568C38.317 4.3833 38.7926 4.50988 38.9811 4.84808C39.1561 5.16226 39.0315 5.5913 38.7107 5.76407C38.6384 5.80293 38.5493 5.81199 38.4804 5.85491C38.3757 5.9203 38.2507 5.98413 38.1903 6.08277C38.0692 6.28082 37.8824 6.42394 37.7639 6.61326C37.6261 6.83348 37.4697 7.00859 37.2344 7.11925C37.1404 7.16342 37.0635 7.2427 37.0385 7.35039C36.9843 7.58356 36.8631 7.76929 36.6677 7.90757C36.5445 7.99466 36.4732 8.12092 36.4181 8.25623C36.3291 8.47473 36.4095 8.62378 36.6424 8.66311C36.8055 8.69074 36.9818 8.67513 37.1332 8.73085C37.5051 8.86757 37.8852 8.96199 38.2746 9.0252C38.5989 9.20203 39.0044 9.20796 39.2736 9.50044C39.4629 9.58566 39.6355 9.70224 39.8163 9.79948C40.0739 9.93791 40.3383 10.0476 40.496 10.315C40.5251 10.3645 40.5901 10.3946 40.6419 10.4286C40.7458 10.4967 40.8506 10.5639 40.9579 10.6265C41.1719 10.7512 41.3971 10.8589 41.6003 10.9989C41.8035 11.1387 41.9396 11.3622 42.1692 11.4766C42.2213 11.5025 42.2616 11.5607 42.2961 11.6118C42.4509 11.8398 42.6727 12.0062 42.8935 12.1465C43.1395 12.3027 43.3365 12.5165 43.5906 12.6625C43.8264 12.7979 43.8832 13.1099 44.1087 13.2763C44.1838 13.3317 44.2312 13.4478 44.2542 13.5451C44.2884 13.69 44.3475 13.816 44.4252 13.9409C44.4786 14.0265 44.5262 14.1283 44.5354 14.2266C44.5637 14.5258 44.6798 14.7888 44.8451 15.0298C44.9545 15.1891 45.0002 15.358 45.0405 15.5448C45.092 15.7845 45.1883 16.0185 45.3334 16.225C45.4307 16.3632 45.4861 16.5145 45.5081 16.6851C45.5421 16.9509 45.6779 17.1931 45.7055 17.462C45.8522 17.7245 45.7991 18.0321 45.8979 18.3079C45.9466 18.4437 45.9329 18.6021 45.8694 18.7359C45.7579 18.9707 45.749 19.2145 45.7689 19.4652C45.7754 19.5479 45.7812 19.6312 45.7779 19.7138C45.7661 20.0091 45.522 20.2588 45.2264 20.2975C45.0071 20.3262 44.8187 20.2555 44.6373 20.1469L44.6372 20.1463Z" fill="#070607"/>
<path d="M40.6094 36.6272C40.4252 36.3841 40.1716 36.2355 39.8822 36.1842C39.5961 36.1334 39.3769 36.0136 39.2158 35.7754C39.1403 35.6637 39.0238 35.6204 38.8941 35.6145C38.7009 35.6056 38.5373 35.5279 38.3744 35.4277C38.2176 35.3311 38.0309 35.2813 37.8789 35.1789C37.7442 35.0882 37.6424 34.9499 37.5199 34.8396C37.4127 34.7431 37.3092 34.6297 37.1822 34.5705C36.8852 34.4324 36.7294 34.1518 36.502 33.9448C36.4419 33.8902 36.3762 33.8208 36.3564 33.7466C36.2944 33.5133 36.0717 33.3903 35.9867 33.1763C35.7129 32.9639 35.6255 32.6276 35.4498 32.351C35.1754 31.9196 35.4555 31.4207 35.8866 31.327C36.1621 31.2673 36.5059 31.3963 36.6217 31.6645C36.7122 31.8741 36.8117 32.0774 36.9267 32.2725C37.0525 32.4859 37.1914 32.6903 37.3865 32.8528C37.4798 32.9305 37.5489 33.0374 37.629 33.1311C37.6552 33.393 37.81 33.5356 38.0571 33.5927C38.2765 33.7874 38.569 33.8579 38.8017 34.0308C38.8507 34.0674 38.9068 34.1059 38.9647 34.117C39.205 34.1627 39.3717 34.3108 39.5218 34.4892C39.606 34.5891 39.7157 34.6434 39.8491 34.6419C40.091 34.639 40.3041 34.7211 40.4602 34.9016C40.6832 35.1594 40.9749 35.2346 41.2922 35.2616C41.3332 35.2652 41.3758 35.2702 41.4159 35.2635C41.6533 35.2232 41.8661 35.2855 42.0721 35.4007C42.2224 35.4846 42.3811 35.5021 42.5528 35.4472C42.6474 35.4169 42.7627 35.4001 42.8554 35.4253C43.0917 35.4898 43.311 35.4687 43.5121 35.3387C43.6799 35.2304 43.8579 35.2123 44.0481 35.2215C44.1716 35.2274 44.297 35.2302 44.4192 35.2154C44.6098 35.1922 44.7795 35.1235 44.8893 34.9485C44.9919 34.7853 45.1361 34.677 45.3221 34.6127C45.5214 34.5438 45.6611 34.3965 45.8069 34.2415C46.2223 33.7994 46.5047 33.2714 46.8224 32.7654C46.8824 32.5197 47.0261 32.3164 47.1597 32.1088C47.2975 31.8945 47.3425 31.649 47.4146 31.4118C47.5234 31.0539 47.5068 31.0124 47.1578 30.8519C47.1013 30.8259 47.0433 30.8033 46.9859 30.7792C46.8462 30.7208 46.7296 30.6246 46.6707 30.491C46.5855 30.297 46.4507 30.1429 46.3275 29.9769C46.1989 29.8035 46.2444 29.5689 46.1496 29.3864C46.0499 29.1946 46.0527 28.9888 46.0056 28.7905C45.9456 28.538 45.9246 28.307 46.0234 28.0636C46.053 27.9904 46.0291 27.8972 46.0472 27.8171C46.0652 27.7377 46.0883 27.6497 46.1379 27.5889C46.3584 27.3197 46.5479 27.0157 46.8886 26.8709C46.9058 26.8635 46.9164 26.8406 46.9312 26.8236C46.8992 26.7714 46.856 26.7226 46.8368 26.6655C46.7402 26.3786 46.5899 26.1542 46.2784 26.0548C46.1162 26.0031 46.0134 25.854 45.9491 25.697C45.8741 25.5143 45.7641 25.3741 45.5726 25.3089C45.451 25.2675 45.3588 25.1879 45.2709 25.0965C45.1856 25.0077 45.0896 24.9284 44.9934 24.851C44.8189 24.7107 44.7336 24.5323 44.7443 24.3083C44.7473 24.2462 44.7528 24.1842 44.7537 24.1221C44.7548 24.057 44.6983 24.0288 44.632 24.0628C44.5581 24.1006 44.4867 24.1429 44.4139 24.1827C43.9815 24.4193 43.3453 24.0135 43.4321 23.4488C43.4669 23.222 43.519 22.9901 43.4775 22.7736C43.4294 22.523 43.4817 22.2798 43.4589 22.0339C43.448 21.9156 43.4741 21.7809 43.5248 21.6732C43.596 21.522 43.6387 21.3648 43.6926 21.2092C43.7893 20.93 43.9911 20.7663 44.2986 20.7575C44.3815 20.7552 44.4645 20.7555 44.5477 20.7545C44.6154 20.8031 44.6866 20.8473 44.7498 20.9009C44.8995 21.0278 44.9827 21.1914 44.9955 21.3877C45.0186 21.7381 45.0479 22.0876 45.0905 22.4367C45.1177 22.6594 45.0735 22.8881 45.0854 23.1159C45.0904 23.2117 45.0298 23.3132 44.9909 23.4087C44.9524 23.5036 44.9024 23.5938 44.8605 23.6875C44.8534 23.7032 44.8539 23.7329 44.8642 23.7436C44.8882 23.7692 44.9312 23.812 44.9474 23.8048C45.3074 23.6458 45.6336 23.6796 45.9214 23.9617C46.1696 24.0436 46.3463 24.2031 46.4792 24.4296C46.5267 24.5103 46.633 24.5871 46.7247 24.6058C47.0885 24.6801 47.298 24.8967 47.4307 25.2352C47.4975 25.4057 47.6554 25.5305 47.8182 25.6279C48.0052 25.7398 48.1196 25.8985 48.1904 26.1069C48.2427 26.2611 48.3515 26.395 48.4173 26.5458C48.4893 26.7104 48.6039 26.8173 48.771 26.8709C48.9151 26.9171 49.0224 27.0112 49.1197 27.1221C49.2153 27.2311 49.3182 27.3341 49.4118 27.4446C49.5526 27.6105 49.6221 27.8014 49.5857 28.0213C49.5756 28.0824 49.5454 28.1411 49.5406 28.2023C49.5273 28.3668 49.6002 28.5287 49.5479 28.6967C49.4254 29.0901 49.3478 29.4969 49.2038 29.8832C49.1618 29.9959 49.0778 30.0959 49.0004 30.1916C48.9339 30.2735 48.8781 30.3567 48.8481 30.4585C48.8186 30.5588 48.7866 30.6598 48.8281 30.7617C48.9458 31.0505 48.924 31.3258 48.7755 31.5997C48.7379 31.669 48.7476 31.7625 48.7271 31.8427C48.6909 31.9852 48.6352 32.1204 48.523 32.221C48.3306 32.3938 48.2212 32.6115 48.1572 32.8581C48.1367 32.9371 48.1085 33.0178 48.0657 33.0866C47.946 33.2793 47.8247 33.4719 47.6899 33.6542C47.4313 34.004 47.2229 34.3834 47.0217 34.7666C46.9631 34.8783 46.9127 34.9952 46.8132 35.0711C46.5476 35.2735 46.3133 35.5034 46.1178 35.7748C46.0179 35.9134 45.8796 36.0122 45.7075 36.036C45.3903 36.0799 45.1258 36.2319 44.8553 36.3916C44.6263 36.5267 44.3676 36.6134 44.1172 36.709C44.0434 36.7373 43.9421 36.7515 43.873 36.7235C43.6255 36.624 43.3784 36.6828 43.1368 36.7165C42.8875 36.7512 42.6486 36.7704 42.3962 36.7248C42.1961 36.6886 41.9839 36.7081 41.778 36.7198C41.6313 36.7281 41.4935 36.7111 41.3488 36.6861C41.1061 36.6441 40.8563 36.6444 40.6094 36.6269V36.6272Z" fill="#070607"/>
<path d="M12.9415 22.2417C12.9129 21.881 13.0972 21.5562 13.1217 21.2038C13.1381 20.9675 13.3006 20.788 13.5158 20.6754C13.7533 20.551 13.9934 20.4314 14.2323 20.3098C14.3505 20.2498 14.4302 20.1566 14.4491 20.025C14.4574 19.9671 14.4462 19.9031 14.4291 19.8463C14.4182 19.8098 14.3845 19.7767 14.3542 19.7499C14.1574 19.5746 14.0564 19.362 14.0508 19.0933C14.0483 18.9734 13.9804 18.8563 13.9576 18.7351C13.9261 18.5675 13.9463 18.4042 14.045 18.2577C14.1143 18.1548 14.1952 18.0571 14.2487 17.9464C14.3436 17.7503 14.4892 17.626 14.68 17.5194C14.9122 17.3897 15.1174 17.217 15.2724 16.9863C15.3721 16.8377 15.4132 16.7228 15.347 16.5354C15.2588 16.2857 15.2429 16.0102 15.2012 15.7461C15.163 15.5041 15.2118 15.2519 15.2151 15.0035C15.2187 14.7404 15.3592 14.5186 15.6061 14.4114C16.0228 14.2304 16.4561 14.0936 16.9071 14.0212C17.029 14.0017 17.151 13.9819 17.2726 13.9602C17.6564 13.8918 17.9659 14.0799 18.1104 14.437C18.2695 14.8301 17.9305 15.427 17.34 15.3549C17.2995 15.3499 17.2561 15.3396 17.2211 15.3194C16.9948 15.1888 16.827 15.3279 16.6541 15.4398C16.5971 15.4766 16.5552 15.6005 16.5773 15.664C16.6042 15.7413 16.6374 15.8165 16.6691 15.8922C16.7339 16.0467 16.788 16.2028 16.7585 16.3749C16.7515 16.4157 16.7356 16.4642 16.7501 16.4981C16.9339 16.9285 16.69 17.3061 16.6015 17.7012C16.569 17.8466 16.4781 17.9783 16.3451 18.0407C16.0807 18.1646 15.8678 18.3644 15.6148 18.5024C15.5791 18.5219 15.5349 18.5253 15.4973 18.542C15.4297 18.5723 15.4097 18.6185 15.4435 18.6847C15.5366 18.8676 15.5934 19.0649 15.732 19.2303C15.9385 19.4769 15.9502 19.7655 15.7904 20.0433C15.708 20.1867 15.6211 20.3222 15.5638 20.4817C15.5092 20.6337 15.389 20.7607 15.318 20.9085C15.2427 21.0649 15.1343 21.1795 14.9907 21.2722C14.7984 21.3961 14.6352 21.5526 14.4899 21.7309C14.3517 21.9004 14.2476 22.068 14.3804 22.287C14.4972 22.7508 14.2192 23.1714 13.7426 23.2399C13.4462 23.2826 12.9889 23.052 12.9436 22.6135C12.931 22.4908 12.9418 22.3658 12.9418 22.2419L12.9415 22.2417Z" fill="#12C0B5"/>
<path d="M40.4138 42.7008C40.3644 42.6107 40.3075 42.5241 40.2677 42.43C40.2104 42.2945 40.1859 42.1528 40.2329 42.006C40.3248 41.7191 40.3175 41.4391 40.1939 41.1588C40.1434 41.0444 40.1578 40.9142 40.1987 40.7934C40.339 40.3791 40.3078 39.9825 40.0966 39.5957C40.0493 39.5093 40.0311 39.3991 40.0267 39.2986C40.0166 39.0624 39.941 38.8556 39.7962 38.6709C39.7049 38.5544 39.6465 38.4244 39.639 38.2733C39.6359 38.2118 39.6365 38.1429 39.6092 38.091C39.4455 37.7816 39.5421 37.4847 39.6468 37.1902C39.7374 36.9352 40.0195 36.7757 40.2962 36.8251C40.4172 36.8468 40.5327 36.8985 40.6508 36.9366C40.7721 37.1321 40.8675 37.3328 40.825 37.5754C40.8153 37.6306 40.8267 37.7024 40.8559 37.7496C40.9669 37.9294 40.9978 38.1302 41.0507 38.3292C41.1022 38.5232 41.1874 38.7163 41.3263 38.8764C41.4256 38.991 41.4462 39.1384 41.4496 39.2834C41.4679 40.0527 41.4644 40.0532 41.6191 40.743C41.6514 40.8869 41.6831 41.0357 41.6271 41.1694C41.5094 41.4507 41.5164 41.72 41.5979 42.0113C41.6872 42.33 41.5267 42.6274 41.2319 42.7855C41.0368 42.8901 40.8377 42.8909 40.6366 42.8065C40.5609 42.7746 40.4881 42.7361 40.4139 42.7006L40.4138 42.7008Z" fill="#070607"/>
<path d="M27.2093 35.2513C26.9143 35.3315 26.6842 35.278 26.4667 35.1216C26.3851 35.0629 26.2738 35.0468 26.1795 35.0039C26.1238 34.9786 26.0579 34.9504 26.0256 34.9034C25.8613 34.6635 25.6237 34.4895 25.4627 34.2437C25.3167 34.021 25.1841 33.7825 24.9671 33.6105C24.9044 33.5607 24.8457 33.4877 24.8201 33.4132C24.7705 33.2687 24.6747 33.1652 24.5734 33.0604C24.4691 32.9525 24.3917 32.8202 24.4003 32.671C24.4217 32.3023 24.2615 31.9817 24.1337 31.6587C24.0274 31.3901 23.9388 31.1162 23.8375 30.8463C23.7724 30.6726 23.7356 30.4906 23.6269 30.3313C23.572 30.2507 23.5456 30.139 23.5394 30.0391C23.5216 29.7616 23.4219 29.5211 23.2761 29.2876C23.1573 29.0972 23.1249 28.8628 22.9679 28.6847C22.9048 28.6132 22.8783 28.4949 22.8677 28.3944C22.8216 27.9624 22.7372 27.539 22.6414 27.1156C22.5964 26.9172 22.6056 26.7071 22.5511 26.5049C22.5076 26.3432 22.5234 26.171 22.5945 26.0162C22.6699 25.8523 22.6682 25.7037 22.5841 25.5411C22.4754 25.3307 22.4878 25.1141 22.5335 24.877C22.5875 24.5969 22.6193 24.308 22.6234 24.0161C22.6265 23.7834 22.4926 23.5754 22.5416 23.3439C22.5844 23.1418 22.6345 22.9413 22.6727 22.7384C22.6879 22.6581 22.6894 22.5723 22.6797 22.4911C22.6574 22.3021 22.6688 22.1213 22.7334 21.9391C22.767 21.8445 22.7636 21.7359 22.7701 21.6331C22.7796 21.4837 22.8224 21.3481 22.9157 21.2296C23.0759 21.0267 23.153 20.8004 23.1409 20.5379C23.1353 20.4144 23.1665 20.2812 23.2569 20.1902C23.4222 20.0236 23.4793 19.7942 23.6181 19.6119C23.7546 19.4324 23.8693 19.2363 23.9909 19.0455C24.0238 18.994 24.0547 18.9389 24.0733 18.8812C24.1534 18.6321 24.3235 18.4699 24.53 18.3125C24.9495 17.9925 25.2097 17.5438 25.4201 17.0668C25.4533 16.9916 25.4656 16.9006 25.5159 16.8407C25.6523 16.6779 25.713 16.4781 25.8123 16.2977C25.9011 16.1363 26.0506 16.0135 26.103 15.8247C26.124 15.7493 26.1859 15.6805 26.2419 15.6205C26.4196 15.4307 26.5179 15.2143 26.519 14.9499C26.5198 14.752 26.6193 14.5926 26.7618 14.4611C27.0234 14.2195 27.1984 13.9117 27.3992 13.6242C27.4574 13.5409 27.4851 13.4366 27.5323 13.345C27.57 13.272 27.6027 13.1885 27.6613 13.1354C27.8749 12.9414 28.0939 12.7527 28.3191 12.5724C28.5938 12.3524 28.9176 12.2094 29.2161 12.0263C29.3734 11.9299 29.5419 11.8562 29.698 11.7506C30.1626 11.4359 30.7382 11.6933 30.8467 12.2442C30.9162 12.5968 30.6872 12.9714 30.339 13.0661C30.1 13.1312 29.8505 13.143 29.6153 13.2378C29.4166 13.3178 29.2482 13.4213 29.1176 13.5905C29.0291 13.7051 28.9205 13.8057 28.8438 13.9271C28.7639 14.0536 28.6746 14.1672 28.5454 14.2377C28.392 14.3215 28.308 14.4672 28.2014 14.5922C28.1053 14.7047 28.0432 14.8385 28.0433 14.99C28.0433 15.2569 27.9475 15.4801 27.7365 15.6414C27.5926 15.7515 27.5224 15.899 27.4971 16.0639C27.4585 16.3169 27.3944 16.5518 27.1948 16.7286C27.1036 17.057 26.811 17.2665 26.693 17.5789C26.503 17.7696 26.3479 17.9891 26.1853 18.2021C26.0601 18.366 25.9317 18.5288 25.8238 18.7039C25.7266 18.8617 25.6354 19.029 25.5782 19.2041C25.5173 19.3903 25.4249 19.5397 25.2724 19.6595C25.058 19.8279 24.9365 20.0758 24.7624 20.2794C24.672 20.3851 24.6091 20.5332 24.5841 20.6712C24.5447 20.8891 24.4449 21.0575 24.2843 21.2C24.2004 21.2746 24.1749 21.3735 24.1848 21.4817C24.2036 21.6914 24.1652 21.8856 24.1011 22.09C24.0279 22.3229 24.0215 22.5757 23.9115 22.8044C23.8787 22.8724 23.8834 22.9712 23.9015 23.0489C23.9644 23.3183 23.931 23.5748 23.8835 23.8462C23.8274 24.1683 23.8472 24.5078 23.9157 24.8325C23.9687 25.0843 23.9814 25.3248 23.8798 25.5653C23.8458 25.6458 23.8547 25.7324 23.8948 25.806C24.0168 26.0299 24.0947 26.2618 24.056 26.5211C24.1823 27.0211 24.1763 27.5468 24.3494 28.0383C24.3766 28.1155 24.4096 28.2001 24.4034 28.2783C24.3795 28.5766 24.5564 28.8342 24.5573 29.1306C24.5579 29.2928 24.6797 29.4326 24.7722 29.5726C24.8387 29.6733 24.8941 29.7955 24.9086 29.9138C24.9667 30.3881 25.124 30.8341 25.2685 31.2844C25.2938 31.3631 25.3249 31.4411 25.338 31.522C25.3693 31.7141 25.4514 31.8753 25.596 32.0062C25.7227 32.1211 25.8071 32.26 25.834 32.4325C25.873 32.6831 26.0946 32.8571 26.1218 33.1162C26.1275 33.1715 26.1758 33.2322 26.2207 33.2717C26.469 33.4903 26.6668 33.7608 26.9318 33.9618C27.0212 34.0296 27.1208 34.0372 27.2255 33.9996C27.2645 33.9856 27.3112 33.9845 27.3437 33.9618C27.6525 33.7465 28.0252 33.6651 28.3483 33.4813C28.7954 33.2269 29.258 32.9945 29.6158 32.6088C29.6715 32.5488 29.7397 32.4985 29.8079 32.452C29.9096 32.3827 30.0226 32.3292 30.1199 32.2544C30.3978 32.041 30.6875 31.8382 30.9383 31.5958C31.0821 31.4569 31.2439 31.3162 31.3202 31.1119C31.3713 30.9752 31.4596 30.856 31.5851 30.773C31.8034 30.6283 31.9273 30.4127 32.0124 30.1769C32.0797 29.9903 32.1892 29.8484 32.3603 29.7566C32.4997 29.6819 32.5916 29.5654 32.6105 29.4187C32.6417 29.1763 32.8132 29.0161 32.9128 28.8152C33.0069 28.6251 33.0998 28.448 33.2713 28.3176C33.3195 28.2811 33.3563 28.2273 33.3915 28.1764C33.5908 27.888 33.737 27.5677 33.9332 27.2762C34.0112 27.1604 34.0318 27.0065 34.0816 26.871C34.1244 26.7546 34.1715 26.6399 34.2168 26.5245C34.4938 26.3385 34.5289 26.0625 34.5083 25.7612C34.5043 25.7023 34.5255 25.6341 34.5554 25.582C34.8097 25.1384 34.8386 24.6345 34.9328 24.15C34.9601 24.0093 34.9743 23.8671 35.0149 23.7266C35.0663 23.5487 35.1153 23.363 35.1176 23.18C35.1204 22.9534 35.0906 22.7327 35.1633 22.5052C35.2252 22.3118 35.1713 22.0904 35.2706 21.8981C35.2351 21.5597 35.4152 21.2565 35.4268 20.9234C35.4343 20.7052 35.5595 20.5313 35.7425 20.4118C35.9935 20.2479 36.2499 20.2488 36.5042 20.4101C36.7373 20.5579 36.8625 20.7817 36.8154 21.0433C36.764 21.3281 36.7626 21.6171 36.6963 21.902C36.622 22.2208 36.5326 22.5419 36.534 22.877C36.5344 22.9771 36.496 23.0786 36.4684 23.1775C36.3962 23.4365 36.3211 23.6935 36.3751 23.9682C36.3868 24.0277 36.3938 24.1032 36.3674 24.1522C36.2335 24.4005 36.3272 24.6918 36.21 24.9401C36.102 25.1687 36.2067 25.4443 36.0459 25.6617C36.0239 25.6916 36.0213 25.7418 36.0231 25.7819C36.0391 26.1225 35.8874 26.3775 35.6352 26.5924C35.5797 26.6395 35.5368 26.738 35.5399 26.8108C35.5512 27.0764 35.429 27.2785 35.3029 27.5006C35.139 27.789 34.9447 28.0557 34.768 28.3339C34.6007 28.5973 34.4356 28.8545 34.3568 29.1603C34.3365 29.2389 34.3048 29.3324 34.2464 29.3805C34.0034 29.5812 33.9006 29.8958 33.6449 30.0887C33.5154 30.1864 33.4219 30.3294 33.3862 30.5031C33.3474 30.6916 33.2351 30.8379 33.092 30.9684C32.9215 31.1235 32.7974 31.31 32.7447 31.5436C32.7077 31.7072 32.6147 31.8463 32.4876 31.9627C32.4277 32.0175 32.3718 32.0858 32.3389 32.1592C32.2588 32.3377 32.1201 32.4495 31.9693 32.567C31.7427 32.7435 31.552 32.9655 31.2951 33.1051C31.135 33.3277 30.84 33.3967 30.693 33.6342C30.481 33.7655 30.3111 33.9495 30.1166 34.0995C29.939 34.2365 29.7447 34.3583 29.5565 34.4831C29.3355 34.6298 29.0795 34.7258 28.8533 34.871C28.5585 34.8923 28.3054 35.0551 28.0207 35.1146C27.7396 35.1733 27.4746 35.3197 27.2097 35.2515L27.2093 35.2513Z" fill="#070607"/>
<path d="M41.0792 33.169C41.0071 33.0051 41.0687 32.7916 41.17 32.5776C41.2132 32.4863 41.2338 32.3817 41.2504 32.2808C41.2713 32.1534 41.3269 32.047 41.403 31.9457C41.452 31.8804 41.5001 31.8102 41.5282 31.7345C41.6044 31.529 41.743 31.3822 41.9301 31.278C42.0106 31.2332 42.0521 31.1697 42.0474 31.0795C42.0364 30.8627 42.0915 30.6629 42.2341 30.5018C42.3505 30.3703 42.3669 30.2002 42.4453 30.0564C42.5139 29.9303 42.5973 29.8123 42.672 29.6893C42.7468 29.5662 42.8074 29.4323 42.8952 29.3196C43.0031 29.1812 43.0256 29.0167 43.07 28.859C43.0853 28.8049 43.0764 28.732 43.0516 28.6806C42.9322 28.4328 42.8941 28.1771 42.8913 27.9006C42.8895 27.7002 42.8106 27.4945 42.737 27.3022C42.6561 27.0913 42.6686 26.898 42.7629 26.7015C42.7718 26.6828 42.779 26.6628 42.7905 26.6459C42.9177 26.46 42.9406 26.264 42.8497 26.0564C42.7794 25.8958 42.7864 25.7393 42.8473 25.5737C42.9113 25.3995 42.9469 25.2154 43.0028 25.0379C43.0916 24.7557 43.3694 24.5993 43.6951 24.6412C43.976 24.6771 44.217 24.9596 44.2147 25.2523C44.2144 25.2932 44.2122 25.3368 44.1986 25.3746C44.1074 25.6274 44.1457 25.8574 44.2869 26.0858C44.4019 26.2718 44.4333 26.4905 44.3124 26.6784C44.17 26.8998 44.2089 27.1647 44.0973 27.3874C44.0644 27.4531 44.0797 27.5099 44.1087 27.5617C44.1488 27.6335 44.2094 27.6941 44.249 27.7662C44.3515 27.9529 44.4082 28.1451 44.33 28.3613C44.2495 28.5842 44.269 28.7992 44.3643 29.024C44.4561 29.2405 44.4354 29.4694 44.303 29.6793C44.2485 29.7658 44.1856 29.8585 44.1696 29.9556C44.1376 30.1496 44.0598 30.313 43.9167 30.4418C43.7582 30.5846 43.7051 30.7959 43.5702 30.9529C43.5306 31.2785 43.2948 31.5021 43.1412 31.7677C43.049 31.9272 42.9168 32.0596 42.8639 32.247C42.8167 32.4137 42.6552 32.498 42.5361 32.6115C42.4745 32.6702 42.4378 32.7432 42.4292 32.8292C42.4067 33.0552 42.385 33.2813 42.3605 33.5072C42.3538 33.5685 42.3415 33.6298 42.3259 33.6896C42.2594 33.9443 42.0226 34.1703 41.6719 34.1519C41.4218 34.1388 41.1449 33.9744 41.0818 33.6085C41.0612 33.4884 41.0786 33.3619 41.0786 33.169H41.0792Z" fill="#12C0B5"/>
</svg>
