<svg width="60" height="48" viewBox="0 0 60 48" fill="none" xmlns="http://www.w3.org/2000/svg">
<path d="M40.6734 46.1706C40.6219 46.2401 40.5579 46.2905 40.4672 46.2888C40.4054 46.2875 40.3389 46.2917 40.2831 46.2707C40.0193 46.1717 39.7601 46.1616 39.4935 46.2646C39.3348 46.3259 39.1618 46.3314 39.005 46.266C38.793 46.1777 38.602 46.2064 38.4099 46.3127C38.3557 46.3426 38.2963 46.3645 38.2371 46.3835C38.1149 46.423 37.9915 46.4221 37.8711 46.3754C37.7744 46.3379 37.6795 46.2952 37.5837 46.2552C37.5048 46.2223 37.4201 46.2053 37.3414 46.2381C37.1423 46.3209 36.9364 46.3158 36.7279 46.3069C36.5412 46.2991 36.3541 46.2933 36.1673 46.2958C35.8959 46.2992 35.6341 46.2654 35.3704 46.1895C35.1784 46.1343 34.9835 46.0542 34.762 46.1182C34.5896 46.168 34.4005 46.0536 34.2137 46.1444C34.1015 46.199 33.966 46.1742 33.8493 46.1238C33.6512 46.0383 33.4426 46.0386 33.2359 46.0458C32.6337 46.0664 32.0318 46.0642 31.4296 46.0461C31.1605 46.038 30.8902 46.0272 30.6303 46.1316C30.5321 46.1709 30.4252 46.1497 30.3269 46.1073C30.2506 46.0743 30.1741 46.0419 30.0997 46.0049C29.9831 45.9471 29.8624 45.9225 29.7398 45.9741C29.5189 46.0672 29.3014 46.0697 29.0719 45.9974C28.9358 45.9545 28.7876 45.9465 28.6438 45.9312C28.4175 45.907 28.1912 45.902 27.9676 45.8362C27.812 45.7903 27.6386 45.7951 27.473 45.7951C26.9954 45.7951 26.5178 45.8031 26.0402 45.8104C25.9577 45.8117 25.8696 45.8096 25.7939 45.8366C25.5517 45.9229 25.3101 45.9498 25.0612 45.8747C24.8141 45.9259 24.5688 45.9264 24.3264 45.848C24.0355 45.9876 23.758 45.8012 23.4707 45.8118C23.1805 45.8226 22.8891 45.8082 22.5988 45.7956C22.4752 45.7903 22.3527 45.7608 22.2294 45.7441C22.1681 45.7357 22.0997 45.7107 22.0457 45.7279C21.6246 45.8624 21.172 45.7278 20.7527 45.885C20.6823 45.9114 20.5854 45.8966 20.5093 45.873C20.2219 45.7837 19.9392 45.7767 19.6539 45.8791C19.5336 45.9223 19.4095 45.9169 19.2865 45.8806C18.9478 45.7811 18.5875 45.8051 18.249 45.6963C18.1542 45.6659 18.0428 45.6848 17.9391 45.6862C17.7113 45.6893 17.4876 45.7199 17.2615 45.7545C17.0453 45.7878 16.8134 45.7155 16.588 45.6949C16.4408 45.6815 16.3018 45.7224 16.1612 45.7652C15.9547 45.8279 15.7487 45.8196 15.5639 45.6927C15.4204 45.5943 15.2619 45.5652 15.0924 45.5587C14.9268 45.5521 14.7618 45.5329 14.5964 45.5195C14.5883 45.4859 14.5989 45.4594 14.6281 45.4404C14.6822 45.4404 14.7125 45.3737 14.6931 45.2969C14.7066 45.0697 14.695 44.8426 14.7319 44.6147C14.7681 44.3914 14.7821 44.1617 14.7781 43.9352C14.7692 43.4496 14.8305 42.9834 14.9619 42.5365C15.0484 42.2421 15.2082 41.961 15.1542 41.6359C15.2726 41.3864 15.1849 41.0986 15.3029 40.8461C15.3357 40.7758 15.3329 40.6822 15.3259 40.6012C15.2937 40.229 15.3922 39.9062 15.6547 39.6331C15.7559 39.5277 15.8481 39.3972 15.8395 39.2482C15.8244 38.9854 15.9934 38.7787 16.0288 38.5309C16.0485 38.3942 16.1367 38.2624 16.2128 38.1401C16.311 37.9826 16.4198 37.83 16.5386 37.6876C16.7645 37.417 17.0372 37.1923 17.2955 36.9541C17.3554 36.8988 17.4307 36.8523 17.507 36.8244C17.7444 36.7376 17.9566 36.6154 18.1331 36.4328C18.1628 36.4021 18.2736 36.4327 18.2948 36.4764C18.3487 36.5872 18.4022 36.6981 18.4504 36.8114C18.5099 36.951 18.6035 37.0657 18.7343 37.1325C19.0316 37.284 19.3013 37.4705 19.5478 37.6953C19.6597 37.7974 19.8022 37.8332 19.9542 37.8169C20.1793 37.7925 20.35 37.6776 20.4357 37.4716C20.5192 37.2708 20.521 37.0557 20.3684 36.8835C20.1482 36.6354 19.9323 36.389 19.7785 36.0896C19.7248 35.9852 19.6102 35.9101 19.5175 35.8283C19.2185 35.5651 18.9644 35.2668 18.8515 34.8785C18.7904 34.6678 18.6881 34.4942 18.5137 34.3719C18.3844 34.2814 18.3026 34.1691 18.2873 34.0181C18.2657 33.8058 18.1778 33.6279 18.0765 33.4417C17.8865 33.0926 17.7857 32.7042 17.8149 32.306C17.8377 31.9946 17.872 31.6879 17.803 31.3797C17.8452 31.1674 17.8032 30.9683 17.7175 30.773C17.683 30.6943 17.6916 30.6076 17.7403 30.5352C17.8705 30.341 17.9565 30.1364 17.9459 29.8951C17.9423 29.8152 17.9665 29.7297 17.9956 29.6533C18.0999 29.3804 18.0559 29.0754 18.1826 28.8073C18.199 28.7726 18.2024 28.7202 18.1889 28.6848C18.1011 28.4567 18.2193 28.2351 18.2034 28.0104C18.1856 27.7585 18.2168 27.5161 18.3115 27.279C18.3488 27.1855 18.3623 27.0767 18.3618 26.9751C18.361 26.8275 18.3924 26.6909 18.4283 26.5488C18.5197 26.1876 18.6352 25.8375 18.7894 25.4981C18.8394 25.388 18.877 25.2587 18.8717 25.1402C18.8631 24.949 18.882 24.7814 18.9734 24.6039C19.1236 24.3127 19.0455 24.0352 18.8172 23.8091C18.7143 23.7072 18.6117 23.6105 18.5279 23.4891C18.4592 23.3895 18.3604 23.3051 18.2608 23.2336C18.0415 23.0762 17.8744 22.863 17.6649 22.696C17.5928 22.4597 17.5177 22.2242 17.45 21.9866C17.4274 21.9075 17.4336 21.8198 17.4093 21.7414C17.3787 21.6432 17.3486 21.5356 17.286 21.4583C17.0831 21.2081 17.0105 20.9122 16.9303 20.6108C16.8741 20.4001 16.8644 20.2094 16.9434 20.0054C17.0372 19.7634 17.0346 19.5196 16.9147 19.2806C16.8786 19.2085 16.8505 19.126 16.8452 19.0464C16.8352 18.8973 16.7944 18.7632 16.7227 18.6328C16.5111 18.2471 16.4744 17.8071 16.3545 17.3932C16.3105 17.2414 16.3549 17.0639 16.3589 16.8982C16.3625 16.7504 16.3549 16.5987 16.2572 16.4829C16.0888 16.2834 16.1193 16.0076 15.9715 15.8001C15.7986 15.5571 15.9252 15.2722 15.8854 15.0094C15.8791 14.9684 15.8654 14.9268 15.8682 14.8864C15.8846 14.6581 15.8746 14.4347 15.8329 14.2063C15.7861 13.9501 16.0127 13.751 16.038 13.4989C16.0479 13.4011 16.1158 13.3084 16.1601 13.2147C16.2152 13.0983 16.2386 12.9731 16.2163 12.8501C16.1449 12.457 16.2272 12.067 16.2242 11.6757C16.2227 11.4597 16.2753 11.2626 16.3883 11.0851C16.48 10.9409 16.544 10.7912 16.5545 10.6219C16.5677 10.4087 16.6416 10.2127 16.7485 10.0357C16.8262 9.90693 16.8538 9.76771 16.9052 9.63333C17.0751 9.18915 17.2179 8.71844 17.5555 8.37336C17.8235 8.09946 17.9323 7.73066 18.1907 7.46003C18.3039 7.16287 18.5077 6.93032 18.7292 6.71166C18.8352 6.60709 18.9227 6.49035 18.9563 6.34645C18.9975 6.16993 19.1069 6.0379 19.2526 5.96361C19.4565 5.85966 19.6063 5.67768 19.8321 5.60417C19.9426 5.56812 20.0335 5.46449 20.1268 5.38395C20.4561 5.09912 20.7951 4.83536 21.2324 4.72986C21.3509 4.70129 21.4845 4.65853 21.5681 4.57784C21.7965 4.35778 22.1311 4.3094 22.3438 4.07248C22.501 4.01567 22.6346 3.92156 22.7743 3.83104C22.9631 3.70883 23.183 3.63454 23.3897 3.53965C23.7483 3.53122 24.069 3.37374 24.4062 3.28088C24.5056 3.25357 24.6041 3.22267 24.7021 3.19083C24.9181 3.12106 25.1617 3.17475 25.3632 3.04162C25.6107 3.02274 25.8528 2.98403 26.0933 2.9138C26.2489 2.86838 26.4298 2.8456 26.5845 2.87962C26.7126 2.90787 26.8173 3.03725 26.9362 3.11591C26.9876 3.14994 27.0506 3.16539 27.1046 3.19613C27.3434 3.33207 27.4416 3.54979 27.4658 3.81387C27.4914 4.09339 27.3837 4.34342 27.2972 4.59719C27.279 4.65073 27.2243 4.70644 27.1722 4.7311C26.9394 4.84145 26.758 5.00236 26.6344 5.22897C26.6252 5.24599 26.6044 5.25754 26.5874 5.26924C26.2587 5.49648 26.2029 5.89728 25.9945 6.20099C25.8954 6.6227 25.7651 7.03614 25.658 7.45566C25.6479 7.4953 25.6441 7.53822 25.6466 7.57911C25.6783 8.09431 25.4553 8.59358 25.5527 9.11424C25.5667 9.18978 25.531 9.27796 25.5069 9.35677C25.4467 9.55483 25.4044 9.76365 25.3098 9.94454C25.1768 10.1983 25.1363 10.4488 25.1976 10.7254C25.2151 10.8039 25.1967 10.8902 25.196 10.9729C25.1943 11.2005 25.1834 11.4286 25.1948 11.6556C25.2063 11.882 25.2365 12.1079 25.2661 12.3329C25.2959 12.5583 25.369 12.7771 25.3583 13.0093C25.3557 13.0679 25.3808 13.1337 25.4105 13.1865C25.5566 13.4465 25.6039 13.7285 25.6235 14.0211C25.6318 14.1432 25.6412 14.2858 25.7066 14.3793C25.8544 14.5907 25.8735 14.8493 25.9978 15.0639C26.1064 15.2516 26.1226 15.4544 26.1322 15.6613C26.1359 15.7439 26.1297 15.8282 26.1446 15.9085C26.2235 16.3279 26.6005 16.5661 27.0324 16.4762C27.3423 16.4117 27.6965 16.0109 27.5317 15.5496C27.4969 15.4523 27.4477 15.3601 27.4155 15.2621C27.4045 15.2284 27.4112 15.1706 27.4338 15.1472C27.5917 14.9851 27.7544 14.8279 27.9562 14.7179C28.2153 14.5765 28.4895 14.4916 28.786 14.4878C28.9112 14.4862 29.0329 14.4792 29.1515 14.428C29.66 14.2089 29.7168 14.1919 30.1496 14.1418C30.298 14.1246 30.4319 14.0806 30.5517 13.9904C30.7123 13.8696 30.8977 13.8545 31.0865 13.8855C31.2292 13.9089 31.3701 13.9461 31.5099 13.9834C31.6935 14.0322 31.8716 14.0396 32.0629 14.0038C32.2642 13.9661 32.4754 13.9742 32.6822 13.975C32.7363 13.9751 32.7952 14.0165 32.8433 14.0508C32.9104 14.0989 32.9641 14.1668 33.033 14.2114C33.5038 14.5157 33.9867 14.2436 34.1384 13.8968C34.1794 13.8028 34.197 13.6985 34.2254 13.5991C34.3751 13.5219 34.5298 13.4704 34.7027 13.4796C34.8894 13.4896 35.0767 13.4941 35.2636 13.4933C35.4141 13.4927 35.556 13.5269 35.6797 13.6055C36.0771 13.8581 36.5259 13.9341 36.9784 14.0023C36.9575 14.1034 36.9353 14.2047 36.8556 14.2796C36.7807 14.35 36.6942 14.4107 36.6311 14.4903C36.5272 14.6219 36.4665 14.7767 36.4676 14.9474C36.4694 15.2295 36.6897 15.5369 36.9481 15.605C37.3547 15.7122 37.6286 15.5798 37.8068 15.2953C37.8501 15.2262 37.8768 15.1461 37.9063 15.0693C37.9596 14.9306 38.0523 14.823 38.1656 14.7308C38.3088 14.7353 38.4428 14.7533 38.572 14.8355C38.76 14.9556 38.9597 15.0589 39.1617 15.1544C39.2505 15.1964 39.3569 15.2014 39.4553 15.2232C39.4433 15.2624 39.4429 15.313 39.4175 15.339C39.26 15.501 39.1222 15.6835 38.9068 15.7837C38.7728 15.8459 38.6634 15.9569 38.6139 16.0953C38.5566 16.2556 38.4464 16.3806 38.3731 16.5272C38.2638 16.7455 38.2716 16.9648 38.4202 17.1729C38.6173 17.4487 39.0719 17.5414 39.343 17.2351C39.5207 17.0344 39.756 16.8913 39.8918 16.6471C39.9723 16.5022 40.1236 16.414 40.2787 16.3457C40.3925 16.2956 40.5039 16.24 40.6164 16.187C40.7901 16.4688 41.065 16.6571 41.2813 16.8997C41.3898 17.0215 41.5025 17.1343 41.5836 17.2796C41.7055 17.4978 41.8919 17.6531 42.1222 17.7533C42.0155 17.8496 41.8945 17.9345 41.8049 18.0448C41.6116 18.2832 41.664 18.649 41.9054 18.8235C41.9722 18.8719 42.0451 18.9203 42.1229 18.9435C42.2931 18.9944 42.408 19.1029 42.5052 19.2446C42.5633 19.3292 42.6362 19.4044 42.7069 19.4796C42.8231 19.6035 42.9141 19.739 42.9312 19.9135C42.948 20.0852 43.0153 20.238 43.1329 20.3599C43.3015 20.5345 43.3619 20.7519 43.3945 20.9787C43.4153 21.1227 43.4512 21.2593 43.4891 21.3995C43.6196 21.8827 43.6945 22.3701 43.4373 22.8463C43.3479 23.0118 43.2998 23.197 43.3725 23.3875C43.4368 23.5556 43.4133 23.7221 43.3355 23.871C43.2171 24.0983 43.1428 24.3269 43.1735 24.5872C43.1829 24.6664 43.1621 24.7533 43.1383 24.8313C43.0715 25.0491 43.0914 25.2878 42.9767 25.4934C42.9365 25.8865 42.8427 26.265 42.6824 26.6277C42.6497 26.7014 42.6376 26.7902 42.6391 26.8715C42.6438 27.1314 42.5522 27.3622 42.4217 27.5751C42.332 27.7215 42.2788 27.8683 42.2633 28.0389C42.2271 28.4365 42.1389 28.814 41.8276 29.104C41.7369 29.1884 41.6824 29.3098 41.6773 29.4392C41.6646 29.7589 41.5315 30.0398 41.3949 30.3179C41.3387 30.4325 41.2983 30.5451 41.2936 30.6728C41.2891 30.7969 41.2876 30.9228 41.2645 31.0441C41.2094 31.3333 41.2807 31.578 41.4917 31.7825C41.7021 31.9863 41.8405 32.2426 41.9908 32.4878C42.1216 32.7013 42.204 32.9384 42.1698 33.1988C42.148 33.366 42.1456 33.5342 42.2154 33.6897C42.3293 33.9433 42.3326 34.2111 42.3418 34.48C42.351 34.7471 42.3827 35.0136 42.3487 35.2808C42.4306 35.4791 42.4169 35.6869 42.415 35.8948C42.413 36.1227 42.5457 36.3329 42.5085 36.5666C42.6139 36.882 42.5567 37.2297 42.7031 37.5383C42.7275 37.5895 42.7326 37.6666 42.713 37.719C42.617 37.9729 42.5505 38.2287 42.5531 38.5044C42.5541 38.6025 42.5124 38.7137 42.4578 38.7976C42.295 39.0475 42.189 39.3098 42.1887 39.6128C42.1887 39.6708 42.1399 39.7272 42.1252 39.7871C42.0618 40.0471 41.948 40.2983 41.9118 40.5592C41.8232 41.1966 41.4147 41.6358 41.0294 42.0937C40.977 42.1561 40.9086 42.2195 40.8345 42.2468C40.5276 42.36 40.2959 42.5507 40.1493 42.8454C40.1323 42.8795 40.0891 42.9012 40.0571 42.9274C39.7204 43.204 39.3604 43.4494 38.9699 43.6388C38.7111 43.7645 38.433 43.8643 38.1318 43.727C38.042 43.6861 37.925 43.7102 37.8259 43.6841C37.5438 43.6101 37.2676 43.5193 37.0747 43.2789C36.9534 43.1277 36.8699 42.9622 36.9238 42.7614C36.9784 42.5577 36.9991 42.3556 36.9559 42.1455C36.9398 42.0672 36.9664 41.9809 36.9657 41.8981C36.9623 41.397 37.1273 40.9246 37.2136 40.4387C37.2194 40.4063 37.2639 40.3666 37.2982 40.3563C37.3559 40.3391 37.4212 40.3329 37.4813 40.3398C37.7439 40.37 37.9618 40.2953 38.172 40.1275C38.462 39.8962 38.7609 39.6657 39.0869 39.4934C39.3493 39.3548 39.5717 39.1795 39.7844 38.9851C39.982 38.8043 40.1796 38.6199 40.3499 38.4143C40.466 38.274 40.5123 38.0842 40.6486 37.9464C40.7337 37.8604 40.804 37.7359 40.7869 37.6082C40.7486 37.323 40.8463 37.0267 40.7131 36.7507C40.704 36.732 40.6978 36.7108 40.685 36.6952C40.5526 36.5354 40.4512 36.3552 40.3391 36.1817C40.259 36.0576 40.1403 35.9535 39.9873 35.9466C39.6758 35.9324 39.388 35.7773 39.0688 35.8077C38.9927 35.8149 38.8892 35.7903 38.8361 35.7402C38.617 35.5334 38.3306 35.4684 38.0734 35.3416C37.9217 35.2666 37.7701 35.2236 37.6067 35.1858C37.3861 35.1349 37.1605 35.0956 36.9458 35.0325C36.7086 34.9628 36.4593 34.966 36.2255 34.8565C36.0165 34.7586 35.7743 34.7973 35.5737 34.9436C35.4389 35.0419 35.2967 35.1251 35.142 35.1883C34.8691 35.2997 34.8174 35.6092 34.6139 35.7864C34.5407 35.85 34.4803 35.9569 34.4647 36.0525C34.4311 36.2571 34.3941 36.4587 34.3308 36.6566C34.3127 36.7131 34.3139 36.7843 34.3306 36.8417C34.4051 37.0992 34.4737 37.36 34.5719 37.6088C34.6852 37.896 34.8277 38.1707 34.8836 38.4794C34.9017 38.579 34.9485 38.6762 34.9964 38.767C35.1018 38.9674 35.1911 39.1842 35.3337 39.3553C35.497 39.5511 35.5467 39.8051 35.7158 39.9939C35.7982 40.086 35.7724 40.1814 35.6769 40.2572C35.5798 40.3342 35.4458 40.3892 35.3902 40.4887C35.2652 40.712 35.0498 40.8525 34.9148 41.0605C34.6952 41.3987 34.3832 41.6483 34.0636 41.8687C33.5796 42.2025 33.0329 42.2843 32.4637 42.0764C32.248 41.9108 32.0034 41.906 31.7497 41.9454C31.6886 41.955 31.6256 41.9534 31.5633 41.954C31.2688 41.9567 30.9862 41.9309 30.7364 41.7393C30.6052 41.6384 30.4391 41.5829 30.267 41.6013C30.1388 41.615 30.0188 41.5918 29.8982 41.5601C29.7549 41.5225 29.6105 41.5116 29.4662 41.5465C29.1183 41.6308 28.8194 41.4716 28.5109 41.3586C28.3095 41.1771 28.0678 41.1498 27.8106 41.1677C27.6824 41.1766 27.5679 41.1243 27.4599 41.0563C27.3548 40.9901 27.2489 40.9246 27.1385 40.8682C26.8794 40.7359 26.6246 40.6018 26.4401 40.3641C26.3628 40.2645 26.2492 40.2108 26.1315 40.1612C25.8364 40.0368 25.6185 39.8116 25.4242 39.5671C25.3356 39.4555 25.2908 39.3097 25.2042 39.1959C25.1046 39.065 24.9703 38.9624 24.9001 38.8056C24.8667 38.7311 24.7837 38.6748 24.7639 38.5994C24.7089 38.39 24.586 38.2283 24.4483 38.0709C24.377 37.9895 24.3564 37.8929 24.3737 37.7813C24.3895 37.6805 24.3898 37.5754 24.3829 37.473C24.3662 37.2252 24.3378 36.9783 24.3216 36.7304C24.3149 36.626 24.3403 36.5269 24.4133 36.4417C24.5093 36.3297 24.5552 36.1929 24.603 36.0539C24.6563 35.8987 24.8216 35.8006 24.8483 35.6262C24.8812 35.411 25.0443 35.2629 25.1322 35.0756C25.1636 35.0088 25.2469 34.9595 25.3167 34.9197C25.3878 34.8791 25.4737 34.8652 25.5491 34.8312C25.9291 34.6598 26.051 34.2364 25.815 33.8949C25.6725 33.6886 25.4631 33.5968 25.2202 33.6333C25.057 33.658 24.8978 33.7025 24.73 33.7101C24.5326 33.7192 24.3707 33.8191 24.2568 33.9765C24.1592 34.1114 24.0612 34.2409 23.9407 34.358C23.8547 34.4415 23.8007 34.561 23.7436 34.6703C23.6963 34.7608 23.6789 34.8685 23.6244 34.9531C23.5325 35.0957 23.4671 35.2414 23.4455 35.4119C23.4357 35.49 23.3765 35.5605 23.35 35.6379C23.3101 35.7547 23.2693 35.8727 23.2464 35.9935C23.2077 36.1967 23.1905 36.4039 23.1498 36.6067C23.0967 36.8701 23.026 37.1298 22.9693 37.3925C22.9292 37.5784 22.9091 37.7789 23.0235 37.9364C23.2342 38.2266 23.3995 38.5303 23.4657 38.8856C23.4764 38.9435 23.5136 39.0024 23.5534 39.0481C23.6508 39.1603 23.6934 39.3003 23.7641 39.4252C23.8662 39.6054 23.9682 39.7845 24.0497 39.9749C24.1369 40.1785 24.3696 40.2366 24.4864 40.4109C24.5095 40.4454 24.5346 40.479 24.5615 40.5105C24.7895 40.7769 25.0198 41.0413 25.2455 41.3094C25.3403 41.422 25.435 41.5322 25.5795 41.5801C25.9544 41.7045 26.2979 41.8936 26.6414 42.084C26.7127 42.1237 26.795 42.166 26.8729 42.1672C27.1167 42.1711 27.3153 42.2696 27.4894 42.4268C27.6368 42.5602 27.8134 42.6318 28.003 42.6112C28.2788 42.5813 28.5279 42.7283 28.8018 42.703C28.875 42.6963 28.9582 42.7523 29.0306 42.791C29.1219 42.8399 29.2026 42.9098 29.2959 42.9532C29.3884 42.9963 29.4932 43.0493 29.589 43.0431C29.9598 43.0189 30.3268 43.1954 30.6977 43.0607C30.8808 43.0887 31.0701 43.0548 31.2484 43.141C31.377 43.2032 31.5237 43.2157 31.6556 43.2867C31.8009 43.3649 31.9677 43.3712 32.1405 43.3548C32.5934 43.3122 33.0479 43.2808 33.497 43.4074C33.5929 43.4344 33.7155 43.445 33.8026 43.4083C34.0491 43.3045 34.3166 43.2288 34.5338 43.0816C34.7717 42.9206 35.0461 42.8113 35.248 42.5922C35.3499 42.4817 35.5041 42.5284 35.5442 42.6624C35.6274 42.9406 35.7136 43.219 35.7086 43.5141C35.7056 43.6891 35.7567 43.8531 35.8768 43.9705C36.0156 44.1059 36.0872 44.277 36.1891 44.432C36.2339 44.5002 36.2881 44.5762 36.3569 44.6119C36.6321 44.7544 36.9144 44.8826 37.1946 45.0152C37.2128 45.0238 37.235 45.0302 37.2547 45.029C37.5852 45.008 37.9117 45.1175 38.2466 45.0411C38.4875 44.9862 38.7369 44.9542 38.9838 44.9448C39.1823 44.9373 39.3416 44.8745 39.4986 44.7604C39.7331 44.5899 39.9773 44.4324 40.262 44.3529C40.3472 44.3291 40.4187 44.3719 40.4487 44.4582C40.5231 44.6726 40.5025 44.9132 40.637 45.1134C40.6628 45.1516 40.6467 45.24 40.6196 45.2882C40.4469 45.5955 40.4908 45.8852 40.6728 46.1686L40.6734 46.1706ZM21.6646 21.4792C21.6646 21.4763 21.6646 21.4734 21.6646 21.4705C21.7888 21.4633 21.9143 21.4645 22.0373 21.4474C22.3508 21.4035 22.6066 21.151 22.6633 20.8354C22.6742 20.7749 22.6817 20.7096 22.6711 20.65C22.6482 20.5217 22.6855 20.4042 22.7106 20.2825C22.7418 20.1311 22.8061 20.0132 22.9561 19.9489C23.1749 19.855 23.3349 19.6989 23.4284 19.477C23.4621 19.3971 23.5148 19.3395 23.6103 19.3323C23.6721 19.3276 23.7343 19.3176 23.7943 19.3025C24.1282 19.2177 24.3379 19.0092 24.4013 18.6685C24.4317 18.5049 24.462 18.3444 24.5296 18.1898C24.5611 18.1179 24.5761 18.0219 24.5569 17.9478C24.4893 17.6879 24.4172 17.4274 24.3183 17.1785C24.2727 17.0639 24.2354 16.9463 24.188 16.8345C24.0953 16.6159 24.1405 16.3821 24.0787 16.1628C24.0152 15.9374 23.8182 15.7966 23.7311 15.5789C23.562 15.1558 23.4535 14.7163 23.3221 14.283C23.3207 13.9946 23.205 13.7622 22.9823 13.5799C22.899 13.5117 22.8576 13.4159 22.8347 13.3126C22.8258 13.2722 22.82 13.231 22.8153 13.1898C22.7633 12.7389 22.5191 12.4685 22.0646 12.4122C21.9307 12.3957 21.8322 12.3426 21.7453 12.2461C21.7044 12.2007 21.6535 12.1595 21.5994 12.1316C21.4102 12.0339 21.2184 11.9789 21.0032 12.0676C20.8507 12.1305 20.688 12.1703 20.5279 12.2134C20.31 12.272 20.1715 12.4119 20.0861 12.6154C20.0382 12.7293 19.992 12.8461 19.9272 12.9505C19.7713 13.2013 19.753 13.463 19.8782 13.7212C19.944 13.8571 19.9941 13.9895 19.9817 14.1362C19.9568 14.4274 19.9381 14.7143 20.0822 14.9866C20.1089 15.037 20.087 15.1107 20.1007 15.1706C20.1235 15.2705 20.1391 15.3785 20.1894 15.4645C20.3296 15.7041 20.3731 15.9624 20.3943 16.2332C20.4168 16.5205 20.4906 16.8031 20.3871 17.093C20.3469 17.2058 20.3241 17.3463 20.3536 17.4585C20.4244 17.7285 20.4112 17.9893 20.3528 18.2555C20.3027 18.4843 20.3253 18.6979 20.4313 18.9185C20.519 19.1011 20.5413 19.3151 20.5928 19.5152C20.5323 19.7726 20.6866 19.9979 20.7026 20.247C20.7183 20.4914 20.7868 20.7335 20.8424 20.9742C20.907 21.2543 21.1898 21.4736 21.4789 21.4794C21.5411 21.4806 21.6032 21.4795 21.6655 21.4795L21.6646 21.4792ZM38.8431 29.8459C39.1043 29.8473 39.2145 29.8164 39.3473 29.7214C39.4651 29.637 39.5825 29.5511 39.6939 29.4586C39.9552 29.2415 40.2208 28.7882 40.254 28.4469C40.2785 28.1952 40.3391 27.9589 40.4395 27.7305C40.5078 27.5748 40.5392 27.4165 40.5176 27.2459C40.5039 27.1375 40.5418 27.0404 40.6322 26.9737C40.7649 26.8759 40.8593 26.7306 41.0203 26.6671C41.0775 26.6446 41.1315 26.6093 41.1806 26.5719C41.4497 26.3671 41.561 26.0328 41.4199 25.6785C41.2724 25.3081 40.8226 25.1962 40.5943 25.3058C40.3344 25.4305 40.0677 25.5449 39.8214 25.6929C39.4141 25.9374 39.044 26.2377 38.6609 26.5183C38.5227 26.6195 38.4317 26.7538 38.3882 26.9227C38.3214 27.1824 38.2513 27.4413 38.1736 27.6979C38.1502 27.775 38.0982 27.844 38.0558 27.9144C38.0477 27.9278 38.0222 27.9306 38.005 27.9386C37.9496 27.9642 37.9245 27.949 37.9237 27.8935C37.9225 27.8109 37.9332 27.7243 37.9123 27.6466C37.8334 27.353 37.8638 27.0733 37.9876 26.7989C38.0408 26.681 38.0311 26.5591 38.0063 26.4334C37.9211 26.003 37.9685 25.5703 37.9965 25.1383C38.1135 24.8649 38.0567 24.6117 37.908 24.3686C37.817 24.2198 37.7856 24.0586 37.8357 23.891C37.9053 23.6583 37.8757 23.4412 37.7594 23.2318C37.6144 22.9708 37.5618 22.6931 37.5882 22.3946C37.5991 22.2716 37.571 22.1432 37.4936 22.0395C37.3455 21.841 37.2025 21.6367 37.0355 21.4549C36.8904 21.2968 36.6951 21.2139 36.4729 21.254C36.0935 21.3227 35.8322 21.6607 35.9227 22.0234C35.9919 22.3005 36.0365 22.5948 36.1912 22.8427C36.3184 23.0465 36.3735 23.2577 36.3419 23.4915C36.3129 23.7073 36.3507 23.908 36.4797 24.0819C36.6037 24.2487 36.6044 24.4241 36.5611 24.6141C36.5136 24.8218 36.5442 25.0185 36.6213 25.2214C36.6937 25.4118 36.7368 25.6193 36.7549 25.8229C36.7897 26.2145 36.6602 26.5996 36.6895 26.995C36.6983 27.1131 36.6572 27.2422 36.6119 27.3555C36.5562 27.4952 36.5347 27.6338 36.5464 27.7806C36.5701 28.078 36.8052 28.3214 37.1015 28.3622C37.3431 28.3952 37.5529 28.3398 37.7268 28.1624C37.7678 28.1204 37.8145 28.0801 37.866 28.0534C37.9114 28.0297 37.9457 28.0547 37.9604 28.0975C38.0107 28.2428 37.9921 28.3857 37.9336 28.5215C37.802 28.8263 37.875 29.0863 38.0893 29.3229C38.1305 29.3685 38.1597 29.425 38.1931 29.4775C38.3673 29.751 38.6339 29.8375 38.8427 29.8463L38.8431 29.8459ZM35.0486 25.1728C35.0259 24.7207 35.006 24.7343 34.71 24.2998C34.4961 23.9857 34.1886 23.7716 33.9526 23.4846C33.842 23.3501 33.6679 23.3129 33.4977 23.3157C33.3105 23.3187 33.1259 23.3399 32.9495 23.245C32.8998 23.2183 32.8269 23.2291 32.7649 23.2316C32.4656 23.2439 32.2243 23.4509 32.1481 23.7568C32.0826 24.0196 32.2052 24.301 32.455 24.4455C32.5263 24.4867 32.6088 24.5078 32.6827 24.5453C32.8326 24.6214 32.876 24.7663 32.7602 24.907C32.5937 25.1096 32.5414 25.3365 32.4943 25.5886C32.4148 26.0125 32.3661 26.4553 32.0872 26.8181C32.0512 26.865 32.0387 26.933 32.025 26.9934C31.9658 27.2553 31.9305 27.5197 31.8238 27.7738C31.7426 27.9668 31.7807 28.1802 31.9103 28.3665C32.0732 28.6013 32.4465 28.7653 32.7977 28.5741C32.9244 28.5051 33.033 28.3935 33.166 28.347C33.4817 28.2365 33.793 28.1349 34.0001 27.8426C34.0439 27.7805 34.1404 27.7571 34.2095 27.7112C34.433 27.5628 34.5568 27.3517 34.5566 27.0852C34.5566 26.8955 34.5775 26.7144 34.6306 26.5324C34.7012 26.2903 34.8012 26.0659 34.952 25.8627C35.0415 25.7419 35.0754 25.6008 35.0681 25.4505C35.0651 25.3882 35.0596 25.3261 35.0489 25.1728H35.0486Z" fill="#FCFCFC"/>
<path d="M40.6725 46.1706C40.4905 45.8872 40.4467 45.5975 40.6193 45.2902C40.6465 45.242 40.6625 45.1537 40.6368 45.1154C40.5022 44.9153 40.5228 44.6748 40.4484 44.4602C40.4184 44.3739 40.347 44.331 40.2617 44.3549C39.9771 44.4343 39.7326 44.592 39.4984 44.7624C39.3414 44.8766 39.182 44.9394 38.9835 44.9469C38.7366 44.9562 38.4872 44.9884 38.2464 45.0432C37.9114 45.1195 37.5849 45.0101 37.2544 45.031C37.2346 45.0322 37.2126 45.0258 37.1943 45.0173C36.9141 44.8846 36.6316 44.7565 36.3567 44.614C36.2877 44.5782 36.2337 44.5022 36.1889 44.434C36.087 44.2789 36.0153 44.1078 35.8766 43.9725C35.7564 43.8551 35.7054 43.6911 35.7083 43.5161C35.7133 43.221 35.6272 42.9427 35.544 42.6645C35.5039 42.5304 35.3497 42.4837 35.2478 42.5942C35.0458 42.8132 34.7713 42.9226 34.5336 43.0837C34.3163 43.2308 34.0488 43.3064 33.8024 43.4103C33.7153 43.447 33.5926 43.4364 33.4968 43.4094C33.0476 43.283 32.5931 43.3142 32.1402 43.3568C31.9674 43.373 31.8006 43.3669 31.6553 43.2887C31.5234 43.2177 31.3767 43.2051 31.2481 43.143C31.0699 43.0568 30.8806 43.0905 30.6975 43.0628C30.3265 43.1974 29.9596 43.0209 29.5887 43.0451C29.4929 43.0514 29.3882 42.9983 29.2956 42.9552C29.2023 42.9118 29.1216 42.8419 29.0303 42.7931C28.9579 42.7544 28.8747 42.6982 28.8015 42.705C28.5276 42.7303 28.2787 42.5835 28.0027 42.6133C27.8133 42.6339 27.6367 42.5622 27.4891 42.4288C27.3151 42.2715 27.1164 42.173 26.8726 42.1692C26.7947 42.168 26.7125 42.1255 26.6412 42.0861C26.2976 41.8956 25.9541 41.7065 25.5792 41.5821C25.4347 41.5342 25.34 41.424 25.2453 41.3115C25.0194 41.0432 24.7891 40.7789 24.5612 40.5125C24.5342 40.481 24.5092 40.4475 24.4861 40.413C24.3694 40.2386 24.1367 40.1806 24.0494 39.9769C23.9678 39.7865 23.8659 39.6073 23.7638 39.4272C23.6931 39.3024 23.6505 39.1624 23.5531 39.0501C23.5135 39.0044 23.4763 38.9457 23.4654 38.8877C23.3992 38.5323 23.2339 38.2286 23.0232 37.9384C22.9088 37.7808 22.929 37.5804 22.9691 37.3945C23.0257 37.1319 23.0964 36.872 23.1495 36.6087C23.1902 36.4061 23.2074 36.1987 23.2461 35.9955C23.2691 35.8747 23.3098 35.7567 23.3498 35.64C23.3763 35.5625 23.4354 35.492 23.4453 35.414C23.4668 35.2434 23.5322 35.0976 23.6241 34.9551C23.6788 34.8705 23.6961 34.7628 23.7434 34.6723C23.8005 34.5631 23.8545 34.4435 23.9405 34.36C24.0611 34.243 24.1591 34.1133 24.2565 33.9786C24.3703 33.8211 24.5323 33.7212 24.7297 33.7122C24.8975 33.7045 25.0569 33.66 25.22 33.6354C25.4628 33.5987 25.6723 33.6906 25.8147 33.8969C26.0507 34.2384 25.9287 34.6617 25.5488 34.8332C25.4733 34.8672 25.3876 34.8811 25.3164 34.9217C25.2466 34.9614 25.1631 35.0108 25.1319 35.0776C25.0441 35.2649 24.881 35.413 24.848 35.6283C24.8214 35.8026 24.6561 35.9008 24.6027 36.0559C24.5549 36.195 24.5091 36.3317 24.4131 36.4437C24.34 36.5289 24.3146 36.6281 24.3213 36.7325C24.3374 36.9803 24.3659 37.2272 24.3826 37.4751C24.3895 37.5773 24.3892 37.6823 24.3734 37.7833C24.3561 37.8949 24.3767 37.9917 24.448 38.073C24.5858 38.2303 24.7087 38.392 24.7636 38.6014C24.7834 38.6767 24.8666 38.7332 24.8999 38.8076C24.9701 38.9646 25.1043 39.067 25.2039 39.1979C25.2904 39.3117 25.3353 39.4575 25.4239 39.5691C25.6183 39.8136 25.836 40.0389 26.1313 40.1632C26.2489 40.2129 26.3626 40.2666 26.4398 40.3661C26.6243 40.6038 26.8792 40.7379 27.1383 40.8703C27.2486 40.9266 27.3546 40.9923 27.4596 41.0583C27.5676 41.1264 27.682 41.1787 27.8103 41.1698C28.0675 41.152 28.3093 41.1791 28.5106 41.3606C28.819 41.4736 29.118 41.6327 29.4659 41.5485C29.6104 41.5136 29.7546 41.5245 29.8979 41.5621C30.0186 41.5938 30.1384 41.6169 30.2667 41.6033C30.4389 41.5851 30.6049 41.6405 30.7362 41.7413C30.9859 41.9329 31.2685 41.9587 31.5631 41.956C31.6252 41.9554 31.6882 41.957 31.7494 41.9475C32.0032 41.908 32.2477 41.9128 32.4634 42.0784C33.0328 42.2861 33.5794 42.2044 34.0633 41.8707C34.383 41.6503 34.6948 41.4007 34.9146 41.0625C35.0496 40.8546 35.2649 40.714 35.3899 40.4907C35.4457 40.3913 35.5797 40.3363 35.6766 40.2592C35.7722 40.1834 35.7979 40.088 35.7155 39.9959C35.5465 39.8069 35.4967 39.5532 35.3334 39.3573C35.1908 39.1862 35.1017 38.9694 34.9962 38.7691C34.9484 38.6782 34.9014 38.581 34.8833 38.4814C34.8275 38.1727 34.685 37.898 34.5717 37.6108C34.4735 37.3621 34.4048 37.1013 34.3304 36.8437C34.3138 36.7863 34.3126 36.7151 34.3305 36.6586C34.3937 36.4607 34.4309 36.2591 34.4644 36.0545C34.48 35.959 34.5404 35.8522 34.6136 35.7884C34.8172 35.6111 34.8688 35.3017 35.1418 35.1903C35.2965 35.1273 35.4385 35.0441 35.5735 34.9456C35.774 34.7994 36.0163 34.7605 36.2252 34.8585C36.459 34.9681 36.7084 34.9648 36.9455 35.0346C37.1603 35.0978 37.3858 35.1369 37.6065 35.1878C37.7699 35.2256 37.9214 35.2687 38.0731 35.3436C38.3303 35.4705 38.6169 35.5354 38.8359 35.7422C38.8889 35.7923 38.9924 35.8171 39.0686 35.8098C39.3877 35.7795 39.6755 35.9345 39.9871 35.9487C40.1398 35.9557 40.2588 36.0598 40.3388 36.1837C40.4507 36.3573 40.5524 36.5372 40.6847 36.6972C40.6977 36.7128 40.7037 36.734 40.7128 36.7528C40.8461 37.0287 40.7484 37.3252 40.7866 37.6102C40.8038 37.7379 40.7334 37.8624 40.6483 37.9484C40.5121 38.0861 40.4657 38.276 40.3496 38.4163C40.1793 38.6219 39.9817 38.8064 39.7842 38.9871C39.5714 39.1815 39.349 39.3568 39.0867 39.4954C38.7606 39.6677 38.4618 39.8982 38.1718 40.1295C37.9615 40.2972 37.7435 40.3721 37.481 40.3418C37.4209 40.3349 37.3557 40.3412 37.2979 40.3583C37.2636 40.3685 37.2191 40.4081 37.2133 40.4407C37.127 40.9264 36.9621 41.399 36.9655 41.9002C36.9661 41.9829 36.9394 42.0692 36.9557 42.1475C36.9989 42.3576 36.9781 42.5597 36.9235 42.7634C36.8697 42.9643 36.9532 43.1299 37.0744 43.2809C37.2673 43.5213 37.5436 43.6121 37.8256 43.6861C37.9249 43.7122 38.0419 43.6881 38.1315 43.729C38.4327 43.8664 38.7108 43.7663 38.9696 43.6409C39.3601 43.4514 39.7202 43.206 40.0568 42.9295C40.0888 42.9033 40.132 42.8816 40.1491 42.8474C40.2956 42.5529 40.5272 42.362 40.8342 42.2488C40.9083 42.2215 40.9767 42.1582 41.0291 42.0957C41.4145 41.6378 41.8229 41.1986 41.9116 40.5612C41.9478 40.3004 42.0616 40.0492 42.1249 39.7891C42.1396 39.7292 42.1883 39.6729 42.1884 39.6148C42.1888 39.3119 42.2947 39.0495 42.4575 38.7996C42.5123 38.7157 42.554 38.6046 42.5529 38.5064C42.5502 38.2306 42.6167 37.975 42.7127 37.721C42.7325 37.6686 42.7272 37.5915 42.7029 37.5403C42.5565 37.2316 42.6138 36.884 42.5082 36.5686C42.5452 36.3349 42.4126 36.1246 42.4148 35.8969C42.4166 35.689 42.4304 35.4812 42.3484 35.2829C42.3824 35.0155 42.3508 34.7489 42.3416 34.4821C42.3323 34.213 42.3291 33.9453 42.2151 33.6917C42.1452 33.5363 42.1476 33.368 42.1696 33.2009C42.2037 32.9404 42.1213 32.7033 41.9906 32.4898C41.8404 32.2446 41.702 31.9883 41.4914 31.7845C41.2804 31.5802 41.2091 31.3353 41.2642 31.0461C41.2873 30.9249 41.2889 30.7989 41.2934 30.6748C41.2979 30.5472 41.3383 30.4345 41.3947 30.3199C41.5312 30.0418 41.6644 29.7609 41.677 29.4412C41.6821 29.3119 41.7365 29.1904 41.8273 29.106C42.1387 28.816 42.2268 28.4385 42.2631 28.041C42.2787 27.8704 42.3317 27.7235 42.4215 27.5771C42.5519 27.3644 42.6436 27.1334 42.6389 26.8735C42.6375 26.7922 42.6496 26.7034 42.6821 26.6298C42.8425 26.267 42.9362 25.8886 42.9765 25.4954C43.0913 25.2899 43.0712 25.0511 43.138 24.8334C43.162 24.7553 43.1826 24.6684 43.1733 24.5893C43.1425 24.3289 43.2168 24.1003 43.3353 23.873C43.4128 23.7242 43.4364 23.5576 43.3723 23.3895C43.2994 23.199 43.3474 23.0139 43.437 22.8483C43.6942 22.3719 43.6193 21.8847 43.4888 21.4015C43.4509 21.2613 43.415 21.1248 43.3943 20.9807C43.3616 20.7541 43.3012 20.5367 43.1327 20.3619C43.015 20.2398 42.9477 20.087 42.9309 19.9155C42.9137 19.741 42.8227 19.6056 42.7066 19.4816C42.6359 19.4064 42.563 19.3313 42.505 19.2466C42.4077 19.1049 42.2927 18.9964 42.1226 18.9455C42.045 18.9223 41.9721 18.8739 41.9052 18.8255C41.6637 18.651 41.6115 18.2852 41.8047 18.0469C41.8943 17.9365 42.0152 17.8516 42.122 17.7553C42.4828 17.7914 42.7851 17.9732 43.0874 18.151C43.2115 18.2239 43.3287 18.3111 43.4392 18.4036C43.5174 18.4692 43.6048 18.5438 43.643 18.6335C43.7446 18.872 43.9066 19.0549 44.1095 19.2037C44.3254 19.3618 44.4474 19.5625 44.4521 19.8339C44.4562 20.0683 44.6015 20.2623 44.6506 20.4855C44.6613 20.5339 44.726 20.5832 44.7775 20.6072C44.9746 20.6993 45.1064 20.8398 45.2036 21.0385C45.2937 21.2225 45.4284 21.3845 45.6052 21.5053C45.7469 21.6019 45.8335 21.7453 45.8864 21.9068C45.9186 22.0047 45.929 22.1118 45.9727 22.2035C46.0701 22.408 46.1756 22.6096 46.2908 22.8046C46.3777 22.9518 46.4355 23.1014 46.4339 23.2739C46.4333 23.3349 46.4341 23.4045 46.4611 23.456C46.5947 23.711 46.585 23.9718 46.533 24.2451C46.5151 24.3391 46.5589 24.448 46.5878 24.5462C46.6048 24.6039 46.6518 24.652 46.6782 24.7079C46.7604 24.8819 46.7932 25.0583 46.7295 25.2505C46.6484 25.4954 46.6847 25.7451 46.7518 25.9852C46.8238 26.243 46.8001 26.478 46.6471 26.697C46.5116 26.8909 46.4509 27.1075 46.4481 27.3402C46.4461 27.5092 46.399 27.6605 46.3401 27.8195C46.2476 28.0697 46.1961 28.3361 46.1393 28.5981C46.1037 28.7625 46.0656 28.9218 45.9573 29.0554C45.6991 29.3737 45.6007 29.7563 45.559 30.1479C45.5334 30.3892 45.4696 30.5923 45.2916 30.7554C45.178 30.8596 45.132 30.9951 45.1079 31.1409C45.0978 31.2022 45.0964 31.2649 45.0894 31.3269C45.0722 31.4756 45.0198 31.6102 44.9119 31.7161C44.766 31.8596 44.727 32.021 44.7599 32.2265C44.7941 32.44 44.709 32.6388 44.5586 32.7952C44.4087 32.951 44.3321 33.1391 44.2715 33.3396C44.2177 33.5178 44.1386 33.6901 44.1027 33.8713C44.0573 34.1009 43.9887 34.3076 43.8179 34.4783C43.7428 34.5532 43.7281 34.6714 43.7621 34.7725C43.8291 34.9721 43.8817 35.1706 43.84 35.3828C43.9213 35.8928 43.9043 36.4117 43.9756 36.9219C43.9964 37.0705 44.0081 37.2083 43.9572 37.3488C43.8904 37.533 43.8924 37.712 43.9791 37.8921C44.1066 38.1568 44.0891 38.4187 43.9248 38.6611C43.8138 38.8246 43.8022 39.0149 43.7696 39.195C43.7258 39.4389 43.7228 39.6882 43.5933 39.9134C43.555 39.9799 43.5734 40.0768 43.5521 40.1559C43.5254 40.2549 43.5004 40.3597 43.4472 40.445C43.259 40.7462 43.1149 41.063 43.0542 41.4148C42.8686 41.689 42.8533 42.0475 42.6141 42.2968C42.5583 42.3548 42.5187 42.4328 42.4867 42.5082C42.4099 42.6896 42.2849 42.8286 42.1089 42.9051C41.9278 42.9838 41.8078 43.1252 41.6912 43.2675C41.5549 43.4336 41.4647 43.614 41.6327 43.8266C41.6942 43.9046 41.6981 44.0276 41.7586 44.1069C41.9192 44.3168 41.9829 44.5428 41.9551 44.8058C41.9447 44.9043 41.9732 45.011 42.0018 45.1087C42.052 45.2809 42.0157 45.4371 41.9412 45.5907C41.8871 45.7024 41.8329 45.8142 41.7755 45.9242C41.5606 46.3357 41.2366 46.4325 40.7857 46.2215C40.7484 46.204 40.7104 46.1883 40.6727 46.1717L40.6725 46.1706ZM43.2327 32.0506C43.3548 31.9112 43.4837 31.7767 43.5959 31.6295C43.6427 31.5682 43.681 31.4777 43.676 31.4035C43.6568 31.1167 43.7315 30.8769 43.9433 30.673C44.0807 30.5406 44.1514 30.3674 44.1511 30.1693C44.1507 29.9954 44.2338 29.8567 44.3341 29.7183C44.4178 29.6031 44.5128 29.4684 44.5253 29.3351C44.5483 29.0884 44.6764 28.8628 44.6424 28.605C44.6205 28.4396 44.6812 28.2838 44.7746 28.1368C44.9197 27.9078 45.0088 27.6539 45.0229 27.38C45.0318 27.2072 45.0891 27.0563 45.2013 26.9263C45.2874 26.8266 45.3364 26.7115 45.3041 26.5831C45.2356 26.3107 45.2596 26.0531 45.3687 25.7935C45.4059 25.705 45.4185 25.5775 45.3829 25.4928C45.2731 25.2318 45.2745 24.973 45.3133 24.7009C45.3302 24.5826 45.3161 24.4469 45.2728 24.3363C45.2195 24.2008 45.1863 24.0613 45.1384 23.9264C45.0911 23.7936 44.9977 23.6762 44.9167 23.5575C44.9047 23.5398 44.8265 23.5381 44.8175 23.5526C44.7643 23.6389 44.6978 23.7285 44.6828 23.8244C44.6608 23.9653 44.6803 24.1125 44.6783 24.257C44.6766 24.3806 44.6984 24.5142 44.6594 24.6258C44.5222 25.0174 44.446 25.4182 44.4136 25.8299C44.4089 25.8893 44.3758 25.9471 44.3526 26.0042C44.2338 26.294 44.1645 26.5937 44.1707 26.9083C44.1742 27.0828 44.1175 27.2419 44.0042 27.3653C43.8011 27.5868 43.6889 27.8417 43.6324 28.1335C43.6096 28.2513 43.555 28.374 43.4818 28.4691C43.2433 28.779 43.1341 29.1185 43.1772 29.5094C43.2038 29.752 43.1129 29.9557 42.9406 30.1251C42.8962 30.1687 42.8452 30.2077 42.8102 30.2578C42.6618 30.4716 42.5782 30.6975 42.7041 30.9545C42.7584 31.0653 42.7977 31.1861 42.8677 31.2857C42.9779 31.4427 43.0532 31.6055 43.0665 31.799C43.074 31.908 43.1542 31.9802 43.2327 32.0503V32.0506Z" fill="#070607"/>
<path d="M34.2239 13.5996C34.1955 13.699 34.178 13.8033 34.1368 13.8972C33.9851 14.244 33.5022 14.5162 33.0315 14.2119C32.9625 14.1673 32.9089 14.0994 32.8417 14.0513C32.7936 14.0168 32.7348 13.9756 32.6806 13.9754C32.4738 13.9745 32.2628 13.9665 32.0613 14.0043C31.87 14.0402 31.6919 14.0329 31.5084 13.9839C31.3684 13.9466 31.2276 13.9094 31.0849 13.886C30.8959 13.855 30.7107 13.8701 30.5501 13.9909C30.4302 14.0811 30.2965 14.1251 30.148 14.1423C29.7152 14.1925 29.6584 14.2095 29.1499 14.4285C29.0313 14.4797 28.9096 14.4866 28.7844 14.4883C28.4879 14.492 28.2137 14.5769 27.9546 14.7183C27.7529 14.8284 27.5902 14.9857 27.4322 15.1477C27.4096 15.171 27.4029 15.2289 27.414 15.2626C27.4461 15.3606 27.4953 15.4528 27.5301 15.5501C27.6949 16.0114 27.3408 16.4122 27.0308 16.4767C26.599 16.5666 26.2219 16.3284 26.1431 15.909C26.1279 15.8286 26.1343 15.7442 26.1306 15.6618C26.1211 15.4548 26.1048 15.2521 25.9962 15.0644C25.872 14.8498 25.8528 14.591 25.705 14.3798C25.6394 14.2862 25.6302 14.1437 25.6219 14.0216C25.6023 13.729 25.555 13.447 25.4089 13.187C25.3792 13.1342 25.354 13.0682 25.3568 13.0098C25.3674 12.7777 25.2942 12.5588 25.2645 12.3334C25.2349 12.1083 25.2048 11.8825 25.1932 11.656C25.1817 11.4291 25.1927 11.2009 25.1945 10.9734C25.1951 10.8907 25.2135 10.8044 25.196 10.7259C25.1347 10.4493 25.1753 10.1988 25.3082 9.94503C25.403 9.76414 25.4451 9.55532 25.5054 9.35726C25.5294 9.27845 25.5653 9.19026 25.5511 9.11473C25.4538 8.59391 25.6767 8.09464 25.645 7.5796C25.6425 7.53871 25.6463 7.49579 25.6564 7.45615C25.7635 7.03662 25.8937 6.62319 25.9929 6.20148C26.2011 5.89776 26.2571 5.49697 26.5858 5.26973C26.6028 5.25802 26.6236 5.24647 26.6328 5.22946C26.7563 5.00285 26.9378 4.84194 27.1707 4.73159C27.2228 4.70693 27.2774 4.65106 27.2957 4.59768C27.3821 4.34391 27.4898 4.09388 27.4642 3.81436C27.44 3.55028 27.3419 3.33272 27.1031 3.19662C27.0492 3.16588 26.986 3.15042 26.9347 3.1164C26.8157 3.03758 26.711 2.90836 26.5829 2.88011C26.4282 2.84593 26.2475 2.86871 26.0917 2.91429C25.8512 2.98452 25.6091 3.02323 25.3616 3.04211C25.1601 3.17524 24.9163 3.12155 24.7005 3.19132C24.6023 3.223 24.504 3.2539 24.4046 3.28137C24.0675 3.37423 23.7467 3.53171 23.3881 3.54014C23.1814 3.63503 22.9615 3.70932 22.7727 3.83152C22.633 3.92205 22.4994 4.01616 22.3422 4.07297C22.1295 4.30989 21.7947 4.35842 21.5666 4.57833C21.4829 4.65902 21.3493 4.70178 21.2309 4.73034C20.7937 4.83585 20.4545 5.09961 20.1252 5.38444C20.0321 5.46513 19.9412 5.56876 19.8306 5.60466C19.6047 5.67817 19.4549 5.86031 19.2511 5.9641C19.1053 6.03839 18.9959 6.17042 18.9547 6.34694C18.9211 6.49084 18.8336 6.60758 18.7276 6.71215C18.5061 6.93081 18.3023 7.16351 18.1891 7.46052C17.9307 7.73115 17.8219 8.09994 17.5539 8.37385C17.2164 8.71893 17.0735 9.18964 16.9036 9.63382C16.8522 9.7682 16.8246 9.90757 16.7469 10.0362C16.64 10.2132 16.5662 10.4092 16.5529 10.6224C16.5424 10.7917 16.4784 10.9414 16.3867 11.0856C16.2737 11.2631 16.2211 11.4603 16.2226 11.6762C16.2256 12.0675 16.1434 12.4575 16.2147 12.8506C16.237 12.9735 16.2134 13.0988 16.1585 13.2152C16.1142 13.3089 16.0463 13.4016 16.0364 13.4994C16.0112 13.7515 15.7845 13.9506 15.8314 14.2067C15.8732 14.4352 15.883 14.6584 15.8666 14.8869C15.8638 14.9273 15.8776 14.9688 15.8838 15.0099C15.9236 15.2727 15.7969 15.5575 15.97 15.8005C16.1178 16.0081 16.0872 16.2839 16.2556 16.4834C16.3533 16.599 16.3611 16.7507 16.3573 16.8987C16.3533 17.0644 16.3089 17.2419 16.353 17.3937C16.4728 17.8076 16.5095 18.2476 16.7211 18.6333C16.7926 18.7636 16.8337 18.8978 16.8437 19.0469C16.849 19.1264 16.8769 19.2092 16.9131 19.2811C17.0328 19.5201 17.0355 19.7638 16.9418 20.0059C16.8628 20.2099 16.8727 20.4006 16.9287 20.6113C17.0089 20.9127 17.0817 21.2086 17.2844 21.4588C17.3471 21.536 17.3773 21.6437 17.4077 21.7419C17.432 21.8203 17.426 21.9078 17.4484 21.9871C17.516 22.2246 17.5911 22.4602 17.6633 22.6964C17.8728 22.8634 18.0399 23.0766 18.2592 23.2341C18.3588 23.3056 18.4576 23.39 18.5263 23.4896C18.6101 23.611 18.7128 23.7076 18.8156 23.8096C19.044 24.0357 19.122 24.3132 18.9719 24.6044C18.8804 24.7819 18.8615 24.9495 18.8701 25.1407C18.8754 25.2592 18.8378 25.3885 18.7878 25.4986C18.6336 25.838 18.5182 26.1882 18.4267 26.5492C18.3906 26.6914 18.3594 26.828 18.3602 26.9756C18.3607 27.0772 18.3473 27.186 18.31 27.2795C18.2152 27.5166 18.184 27.759 18.2018 28.0109C18.2177 28.2356 18.0996 28.4574 18.1873 28.6852C18.2009 28.7207 18.1974 28.7731 18.181 28.8078C18.0542 29.0757 18.0983 29.3809 17.9941 29.6538C17.9649 29.73 17.9408 29.8155 17.9443 29.8956C17.9549 30.1369 17.8689 30.3415 17.7387 30.5356C17.69 30.6082 17.6814 30.695 17.7159 30.7735C17.8018 30.9687 17.8438 31.1679 17.8015 31.3801C17.8705 31.6884 17.8361 31.9951 17.8133 32.3064C17.7841 32.7047 17.8851 33.093 18.0749 33.4422C18.1762 33.6284 18.2641 33.8065 18.2858 34.0186C18.3012 34.1696 18.383 34.2818 18.5121 34.3724C18.6866 34.4947 18.7888 34.6683 18.85 34.879C18.9626 35.2673 19.2169 35.5655 19.5159 35.8288C19.6086 35.9105 19.7232 35.9857 19.7769 36.0901C19.9306 36.3894 20.1465 36.6359 20.3668 36.884C20.5195 37.056 20.5176 37.2713 20.4341 37.4721C20.3486 37.6781 20.1777 37.793 19.9526 37.8174C19.8006 37.8337 19.6581 37.7978 19.5462 37.6958C19.2999 37.471 19.0301 37.2847 18.7327 37.133C18.602 37.0663 18.5082 36.9515 18.4489 36.8119C18.4006 36.6986 18.3471 36.5875 18.2932 36.4768C18.272 36.4331 18.1612 36.4026 18.1316 36.4333C17.955 36.6159 17.7428 36.7381 17.5054 36.8249C17.4291 36.8528 17.3539 36.8993 17.2939 36.9546C17.0356 37.1927 16.763 37.4175 16.537 37.6881C16.418 37.8306 16.3093 37.9831 16.2113 38.1406C16.1351 38.2628 16.0468 38.3947 16.0272 38.5314C15.9917 38.7794 15.8228 38.9859 15.8379 39.2487C15.8465 39.3979 15.7544 39.5282 15.6531 39.6336C15.3908 39.9068 15.2921 40.2295 15.3243 40.6017C15.3313 40.6828 15.3341 40.7763 15.3013 40.8466C15.1834 41.0989 15.2711 41.3867 15.1526 41.6364C15.2065 41.9615 15.0466 42.2426 14.9603 42.537C14.8289 42.9849 14.7676 43.4511 14.7765 43.9357C14.7805 44.1622 14.7665 44.3919 14.7303 44.6152C14.6934 44.8429 14.705 45.0702 14.6916 45.2971C14.6384 45.2968 14.6112 45.3519 14.6263 45.4409C14.5971 45.4599 14.5865 45.4864 14.5947 45.52C14.5035 45.5684 14.417 45.6316 14.3203 45.6634C13.9434 45.7872 13.5961 45.5741 13.5307 45.1855C13.5204 45.1247 13.5167 45.0618 13.5184 45.0001C13.5207 44.9174 13.5401 44.8344 13.5366 44.7523C13.5274 44.5257 13.4953 44.299 13.5006 44.073C13.5053 43.8681 13.5465 43.6641 13.5727 43.4598C13.6017 43.2337 13.6309 43.0075 13.6626 42.7819C13.6769 42.6795 13.7103 42.5783 13.7125 42.4761C13.7238 41.9572 13.8124 41.4499 13.9232 40.9449C13.9451 40.845 13.9379 40.7387 13.9441 40.6354C13.9516 40.5091 13.9758 40.3876 14.052 40.2828C14.1261 40.1809 14.1665 40.0654 14.2129 39.949C14.3134 39.6963 14.4114 39.4506 14.3543 39.1688C14.3385 39.0912 14.3404 38.9887 14.3791 38.925C14.5616 38.6252 14.6192 38.2629 14.8534 37.9901C14.9066 37.9282 14.9589 37.8623 14.9964 37.7904C15.3065 37.1938 15.7613 36.715 16.2539 36.2727C16.4416 36.1041 16.6147 35.9308 16.7396 35.7144C16.8477 35.5271 16.9879 35.387 17.1917 35.3065C17.3525 35.2429 17.366 35.1265 17.3308 35.0027C17.2744 34.8055 17.2112 34.6015 17.1043 34.4292C16.9485 34.1777 16.9339 33.874 16.7691 33.6284C16.7272 33.5661 16.7358 33.4686 16.7263 33.3868C16.7094 33.2429 16.6943 33.0988 16.682 32.9546C16.6606 32.7025 16.6025 32.4633 16.4522 32.2535C16.3505 32.1115 16.3191 31.9493 16.3325 31.7797C16.3473 31.5932 16.3558 31.4089 16.3394 31.221C16.3289 31.1009 16.34 30.9623 16.3918 30.857C16.4906 30.656 16.5029 30.4567 16.4455 30.2519C16.3926 30.0635 16.4017 29.8853 16.4646 29.7022C16.5788 29.3704 16.6295 29.0236 16.6893 28.6796C16.7107 28.5566 16.716 28.4313 16.79 28.3244C16.8752 28.201 16.8894 28.0535 16.9334 27.9157C17.0047 27.6919 17.0242 27.4685 16.9624 27.241C16.9178 27.0768 16.917 26.9149 16.9543 26.7481C16.9766 26.6482 16.9813 26.5421 16.9779 26.4392C16.973 26.2903 16.9989 26.1524 17.059 26.0155C17.0915 25.9415 17.1074 25.8561 17.1121 25.775C17.123 25.5818 17.1744 25.4012 17.3009 25.2573C17.4584 25.0783 17.4706 24.8357 17.593 24.6427C17.6081 24.6189 17.5914 24.5523 17.5672 24.5303C17.4456 24.4196 17.347 24.2809 17.1881 24.2139C17.131 24.1899 17.0767 24.1577 17.0242 24.1245C16.8396 24.007 16.714 23.845 16.6902 23.6237C16.6626 23.3662 16.5604 23.1445 16.3935 22.9516C16.2009 22.7288 16.1327 22.4375 15.9718 22.1955C15.9086 22.1004 15.8833 21.9517 15.9014 21.837C15.9453 21.5574 15.8588 21.3038 15.7858 21.048C15.7515 20.9274 15.7179 20.8114 15.7117 20.6853C15.7056 20.562 15.6875 20.4384 15.6642 20.317C15.6138 20.0549 15.431 19.8277 15.4768 19.538C15.516 19.2905 15.3633 19.0501 15.4317 18.7978C15.351 18.5409 15.3347 18.2707 15.2734 18.0085C15.211 17.7413 15.1638 17.4836 14.9795 17.2693C14.9402 17.2235 14.9015 17.1601 14.8982 17.103C14.8798 16.7721 14.7187 16.4607 14.7442 16.1299C14.7621 15.8961 14.759 15.6732 14.6646 15.4612C14.6026 15.3222 14.5965 15.1828 14.594 15.0363C14.589 14.7268 14.5294 14.4165 14.6474 14.1122C14.676 14.0386 14.6668 13.9472 14.6624 13.8646C14.6493 13.618 14.6157 13.3792 14.7111 13.1302C14.7907 12.9224 14.774 12.6847 14.8757 12.4709C14.935 12.346 14.9246 12.1879 14.9457 12.0448C14.7854 11.7125 15.0112 11.3951 14.9859 11.0664C14.9802 10.991 15.0287 10.908 15.0629 10.8334C15.2172 10.4964 15.3745 10.1606 15.5323 9.82548C15.7444 9.37521 15.9286 8.91573 16.0901 8.44596C16.1101 8.38774 16.139 8.33202 16.1691 8.27802C16.3022 8.04017 16.3949 7.78796 16.4415 7.5192C16.4633 7.39294 16.5026 7.26558 16.6011 7.18833C16.8511 6.99246 16.9588 6.68218 17.1992 6.47664C17.3048 6.38627 17.3913 6.24705 17.4327 6.1133C17.5297 5.79975 17.6969 5.56689 17.9856 5.39552C18.1584 5.29298 18.2903 5.11787 18.4322 4.96742C18.6023 4.787 18.7657 4.60034 18.9274 4.41227C19.0252 4.29849 19.1459 4.22139 19.2821 4.16583C20.016 3.86633 20.0322 3.85634 20.6103 3.40014C20.6749 3.3491 20.7456 3.27778 20.8188 3.2706C21.098 3.24344 21.3048 3.03072 21.5725 2.98983C21.842 2.94862 22.0593 2.77569 22.3351 2.73262C22.5955 2.69188 22.846 2.54986 23.0358 2.35227C23.2309 2.14922 23.4365 1.99034 23.7325 1.99596C23.9913 1.85659 24.2886 1.83255 24.5555 1.72096C24.6932 1.66337 24.8286 1.63184 24.9767 1.62841C25.0997 1.6256 25.2324 1.62763 25.343 1.58315C25.5665 1.49325 25.7971 1.59438 26.0212 1.52509C26.2267 1.46172 26.4284 1.53102 26.6299 1.59345C26.7658 1.63543 26.9256 1.60531 27.0575 1.65416C27.3823 1.77434 27.7442 1.82927 27.9747 2.13767C28.0209 2.19948 28.1153 2.22336 28.1831 2.27111C28.2335 2.3067 28.278 2.35102 28.3225 2.3941C28.3577 2.42843 28.7769 3.23096 28.7707 3.27294C28.7215 3.60022 28.8868 3.92876 28.7593 4.25573C28.6766 4.46783 28.7746 4.7177 28.6249 4.91794C28.5016 5.08291 28.3354 5.21729 28.2652 5.42018C28.035 5.59998 27.922 5.88575 27.6766 6.05602C27.4853 6.18884 27.3518 6.37519 27.3088 6.61351C27.0711 7.04505 27.0719 7.53059 27.0043 7.99865C26.9631 8.2838 26.969 8.57565 26.9451 8.86376C26.9384 8.94429 26.9073 9.02483 26.8766 9.10084C26.8535 9.1578 26.8079 9.20525 26.7809 9.26097C26.633 9.56531 26.5297 9.87464 26.6569 10.2169C26.7088 10.3564 26.6956 10.5011 26.6645 10.6469C26.5226 11.3132 26.5409 11.9963 26.7286 12.6089C26.7784 12.7713 26.8214 12.9268 26.787 13.096C26.7608 13.2252 26.8073 13.3429 26.8551 13.4574C26.9145 13.6004 27.0929 13.6761 27.2159 13.5842C27.4572 13.4039 27.7587 13.3872 28.0187 13.2575C28.1634 13.1852 28.3298 13.1517 28.477 13.0707C28.5651 13.0222 28.6702 12.9864 28.7699 12.98C29.1081 12.9586 29.4143 12.8356 29.714 12.6963C29.8933 12.6128 30.078 12.578 30.2587 12.6343C30.5896 12.7376 30.9125 12.7024 31.2385 12.6307C31.3598 12.604 31.4789 12.5683 31.6003 12.5422C31.6807 12.5249 31.7729 12.4882 31.8433 12.511C32.1439 12.6084 32.4632 12.5528 32.7622 12.6348C33.0411 12.7113 33.3296 12.735 33.6071 12.8316C33.9604 12.9547 34.1694 13.1654 34.2069 13.5398C34.2089 13.5601 34.2182 13.5798 34.2243 13.5996H34.2239Z" fill="#070607"/>
<path d="M38.1629 14.7316C38.0496 14.8238 37.9571 14.9314 37.9035 15.0701C37.8739 15.1469 37.8473 15.2271 37.8041 15.2961C37.6259 15.5806 37.3521 15.713 36.9454 15.6058C36.6869 15.5375 36.4667 15.2302 36.4649 14.9482C36.4638 14.7775 36.5245 14.6227 36.6284 14.4911C36.6913 14.4115 36.7779 14.3506 36.8528 14.2804C36.9326 14.2055 36.9546 14.1043 36.9757 14.003C36.9936 13.9929 37.0191 13.987 37.0284 13.9715C37.1661 13.7429 37.2547 13.4882 37.4052 13.2662C37.4345 13.0473 37.5591 12.8854 37.7201 12.7468C37.7874 12.6889 37.8192 12.6182 37.8183 12.5305C37.8136 12.076 37.853 11.6208 37.7749 11.1675C37.7465 11.0027 37.7802 10.8371 37.8732 10.6896C38.0697 10.3786 38.4292 10.2554 38.7992 10.3741C39.0758 10.4627 39.3143 10.787 39.2896 11.0974C39.2717 11.3241 39.2732 11.5482 39.2695 11.774C39.266 11.9775 39.1508 12.1679 39.159 12.3821C39.1619 12.4592 39.1178 12.5416 39.083 12.6159C38.9512 12.8971 38.824 13.1776 38.8061 13.4961C38.8017 13.5742 38.7519 13.6505 38.7192 13.7259C38.6862 13.8017 38.6227 13.8738 38.6174 13.9508C38.5951 14.2702 38.3909 14.4713 38.1809 14.6729C38.1679 14.6854 38.1684 14.7118 38.1626 14.7317L38.1629 14.7316Z" fill="#070607"/>
<path d="M40.6146 16.1879C40.5021 16.241 40.3906 16.2965 40.2769 16.3466C40.1219 16.4148 39.9705 16.5032 39.89 16.648C39.7542 16.8922 39.5188 17.0354 39.3412 17.2361C39.0701 17.5423 38.6156 17.4496 38.4184 17.1738C38.2696 16.9658 38.2618 16.7465 38.3712 16.5281C38.4446 16.3814 38.5549 16.2564 38.612 16.0963C38.6615 15.9578 38.7709 15.8469 38.905 15.7846C39.1202 15.6846 39.2582 15.502 39.4157 15.3399C39.4411 15.3139 39.4414 15.2633 39.4534 15.2241C39.6701 15.037 39.9382 14.9211 40.1414 14.7107C40.2213 14.6278 40.3522 14.57 40.4682 14.5507C40.8158 14.4928 41.1409 14.3764 41.46 14.234C41.6383 14.1546 41.8215 14.1515 42.0019 14.2282C42.2518 14.3347 42.3924 14.5292 42.4191 14.7957C42.4461 15.0664 42.3325 15.2799 42.1063 15.4266C42.0394 15.47 41.9565 15.4952 41.8772 15.5121C41.757 15.5378 41.6328 15.5442 41.5122 15.5684C41.4527 15.5805 41.3729 15.5975 41.3444 15.6404C41.1743 15.8946 40.8879 15.9805 40.6525 16.1392C40.6363 16.1501 40.6272 16.1715 40.6147 16.1879H40.6146Z" fill="#070607"/>
<path d="M21.6627 21.4794C21.6004 21.4794 21.5383 21.4804 21.476 21.4792C21.187 21.4733 20.9041 21.2541 20.8395 20.974C20.784 20.7333 20.7155 20.4913 20.6997 20.2468C20.6838 19.9978 20.5294 19.7724 20.59 19.515C20.5386 19.3149 20.5162 19.101 20.4284 18.9184C20.3225 18.6977 20.2998 18.4842 20.3499 18.2554C20.4083 17.9891 20.4216 17.7283 20.3507 17.4583C20.3212 17.3462 20.344 17.2058 20.3843 17.0928C20.4876 16.8031 20.4139 16.5203 20.3915 16.233C20.3702 15.9622 20.3268 15.7039 20.1865 15.4643C20.1363 15.3783 20.1207 15.2703 20.0979 15.1704C20.0842 15.1105 20.106 15.0368 20.0793 14.9864C19.9353 14.7141 19.954 14.4272 19.9788 14.136C19.9913 13.9893 19.9412 13.8569 19.8753 13.721C19.7502 13.4629 19.7686 13.2011 19.9243 12.9503C19.9893 12.8459 20.0353 12.7292 20.0832 12.6152C20.1687 12.4117 20.3073 12.2719 20.5251 12.2132C20.685 12.1701 20.8476 12.1303 21.0003 12.0674C21.2157 11.9786 21.4073 12.0337 21.5965 12.1314C21.6506 12.1593 21.7015 12.2005 21.7424 12.246C21.8294 12.3424 21.9278 12.3953 22.0617 12.412C22.5162 12.4684 22.7605 12.7387 22.8124 13.1896C22.8171 13.2308 22.8229 13.272 22.8318 13.3124C22.8547 13.4157 22.8961 13.5115 22.9794 13.5798C23.2022 13.7622 23.3178 13.9944 23.3192 14.2829C23.4506 14.7163 23.5591 15.1558 23.7283 15.5787C23.8154 15.7964 24.0123 15.9372 24.0759 16.1626C24.1377 16.3819 24.0924 16.6158 24.1851 16.8343C24.2326 16.9461 24.2698 17.0638 24.3154 17.1783C24.4144 17.4272 24.4863 17.6877 24.5541 17.9476C24.5734 18.0217 24.5583 18.1177 24.5267 18.1897C24.4592 18.3442 24.4289 18.5048 24.3985 18.6683C24.3351 19.009 24.1253 19.2176 23.7915 19.3023C23.7314 19.3176 23.6693 19.3276 23.6075 19.3321C23.512 19.3393 23.4592 19.3967 23.4255 19.4768C23.332 19.6986 23.1722 19.8548 22.9532 19.9487C22.8032 20.013 22.7391 20.131 22.7077 20.2823C22.6826 20.404 22.6453 20.5217 22.6682 20.6498C22.6788 20.7094 22.6712 20.7745 22.6604 20.8352C22.6038 21.1508 22.348 21.4033 22.0344 21.4472C21.9116 21.4644 21.7861 21.4631 21.6617 21.4703C21.6617 21.4733 21.6617 21.4761 21.6617 21.479L21.6627 21.4794Z" fill="#FF8CBD"/>
<path d="M38.8403 29.846C38.6315 29.8374 38.3649 29.7509 38.1907 29.4772C38.1573 29.4247 38.1281 29.3682 38.0869 29.3226C37.8727 29.086 37.7996 28.826 37.9312 28.5212C37.9897 28.3856 38.0083 28.2426 37.958 28.0972C37.9433 28.0544 37.909 28.0294 37.8636 28.0531C37.8121 28.08 37.7654 28.1203 37.7244 28.1621C37.5505 28.3395 37.3408 28.3951 37.0992 28.3619C36.8028 28.3211 36.5677 28.0778 36.544 27.7803C36.5323 27.6335 36.5537 27.4947 36.6096 27.3552C36.6548 27.2419 36.6959 27.1128 36.6871 26.9947C36.6576 26.5993 36.7872 26.2142 36.7525 25.8226C36.7344 25.6192 36.6913 25.4115 36.6189 25.2211C36.5418 25.0182 36.5112 24.8215 36.5587 24.6138C36.6021 24.4237 36.6013 24.2484 36.4774 24.0816C36.3483 23.9077 36.3104 23.7072 36.3396 23.4912C36.3711 23.2574 36.316 23.046 36.1888 22.8424C36.0341 22.5945 35.9893 22.3002 35.9203 22.0231C35.8298 21.6603 36.0912 21.3224 36.4705 21.2537C36.6927 21.2134 36.888 21.2965 37.0331 21.4546C37.2 21.6364 37.3431 21.8407 37.4912 22.0392C37.5685 22.1427 37.5966 22.2713 37.5858 22.3943C37.5594 22.6928 37.612 22.9705 37.757 23.2315C37.8733 23.4409 37.9031 23.658 37.8333 23.8907C37.7832 24.0583 37.8146 24.2195 37.9056 24.3683C38.0543 24.6114 38.1111 24.8646 37.9941 25.138C37.9663 25.57 37.9187 26.0027 38.0039 26.4331C38.0287 26.5588 38.0384 26.6806 37.9852 26.7986C37.8614 27.073 37.831 27.3527 37.9099 27.6463C37.9309 27.724 37.9199 27.8106 37.9213 27.8932C37.9221 27.9489 37.9472 27.9639 38.0027 27.9383C38.02 27.9303 38.0454 27.9275 38.0534 27.9141C38.096 27.8435 38.148 27.7747 38.1712 27.6976C38.2489 27.441 38.319 27.1821 38.3858 26.9224C38.4292 26.7535 38.5204 26.6192 38.6585 26.518C39.0416 26.2374 39.4117 25.9373 39.819 25.6926C40.0653 25.5446 40.3322 25.4304 40.5919 25.3055C40.8202 25.1959 41.2702 25.3078 41.4175 25.6782C41.5584 26.0325 41.4472 26.3668 41.1783 26.5716C41.1291 26.609 41.0751 26.6443 41.018 26.6668C40.8569 26.7303 40.7625 26.8756 40.6298 26.9734C40.5395 27.0401 40.5015 27.1372 40.5153 27.2456C40.5368 27.4162 40.5054 27.5746 40.4371 27.7302C40.3367 27.9586 40.2763 28.1949 40.2516 28.4466C40.2184 28.7881 39.9528 29.2412 39.6915 29.4583C39.5801 29.5508 39.4627 29.6367 39.3449 29.7211C39.2121 29.8163 39.1019 29.847 38.8408 29.8456L38.8403 29.846Z" fill="#070607"/>
<path d="M35.0469 25.1728C35.0576 25.3261 35.0631 25.3883 35.0661 25.4504C35.0732 25.6006 35.0395 25.7418 34.9499 25.8626C34.7992 26.0657 34.6991 26.2903 34.6286 26.5323C34.5755 26.7143 34.5544 26.8955 34.5546 27.0851C34.5548 27.3519 34.431 27.5629 34.2075 27.7111C34.1384 27.757 34.0421 27.7806 33.998 27.8426C33.7911 28.1349 33.4797 28.2365 33.164 28.347C33.0312 28.3935 32.9224 28.5051 32.7957 28.5741C32.4447 28.7653 32.0712 28.6011 31.9082 28.3665C31.7789 28.1801 31.7408 27.9668 31.8218 27.7737C31.9285 27.5196 31.9636 27.2553 32.023 26.9934C32.0367 26.933 32.0492 26.8649 32.0852 26.8181C32.3641 26.4554 32.4128 26.0125 32.4923 25.5886C32.5394 25.3367 32.5917 25.1097 32.7582 24.907C32.8739 24.7662 32.8305 24.6214 32.6806 24.5452C32.6068 24.5078 32.5241 24.4867 32.4529 24.4455C32.2032 24.301 32.0807 24.0196 32.1461 23.7567C32.2224 23.4508 32.4637 23.2439 32.7629 23.2316C32.8249 23.2291 32.8977 23.2181 32.9475 23.245C33.1239 23.3399 33.3085 23.3187 33.4957 23.3157C33.6659 23.3129 33.8399 23.35 33.9506 23.4846C34.1866 23.7716 34.4942 23.9857 34.708 24.2997C35.0041 24.7341 35.0239 24.7205 35.0466 25.1728H35.0469Z" fill="#070607"/>
<path d="M14.6272 45.441C14.612 45.3517 14.6393 45.2965 14.6927 45.2968C14.7119 45.3741 14.6816 45.441 14.6272 45.441Z" fill="#A5B7FF"/>
<path d="M43.2307 32.0506C43.1522 31.9806 43.072 31.9083 43.0645 31.7994C43.0512 31.6058 42.9758 31.4431 42.8657 31.286C42.7957 31.1865 42.7563 31.0655 42.7021 30.9549C42.5761 30.698 42.6598 30.472 42.8082 30.2582C42.843 30.2079 42.8942 30.169 42.9385 30.1255C43.1108 29.956 43.2018 29.7523 43.1751 29.5098C43.1321 29.1188 43.2413 28.7794 43.4798 28.4694C43.553 28.3744 43.6076 28.2517 43.6304 28.1339C43.6869 27.842 43.7991 27.5871 44.0022 27.3657C44.1153 27.2422 44.172 27.083 44.1687 26.9087C44.1626 26.594 44.2319 26.2944 44.3505 26.0046C44.3739 25.9474 44.4069 25.8895 44.4115 25.8302C44.444 25.4184 44.5202 25.0176 44.6574 24.6261C44.6964 24.5145 44.6745 24.3809 44.6762 24.2573C44.6783 24.1128 44.6588 23.9656 44.6808 23.8247C44.6958 23.7289 44.7623 23.6393 44.8155 23.553C44.8245 23.5383 44.9027 23.5402 44.9147 23.5578C44.9957 23.6766 45.0891 23.794 45.1364 23.9268C45.1843 24.0615 45.2175 24.2011 45.2707 24.3366C45.3141 24.4473 45.3283 24.5829 45.3113 24.7012C45.2724 24.9734 45.271 25.2323 45.3809 25.4931C45.4167 25.5777 45.4039 25.7054 45.3667 25.7939C45.2576 26.0536 45.2336 26.3111 45.3021 26.5834C45.3344 26.7119 45.2852 26.8269 45.1993 26.9266C45.087 27.0566 45.0297 27.2076 45.0209 27.3803C45.0068 27.6542 44.9177 27.9082 44.7726 28.1371C44.6794 28.2842 44.6187 28.4399 44.6403 28.6053C44.6744 28.8632 44.5462 29.0889 44.5233 29.3355C44.511 29.4687 44.4158 29.6033 44.3321 29.7186C44.2318 29.857 44.1487 29.9958 44.149 30.1697C44.1494 30.3677 44.0786 30.541 43.9413 30.6733C43.7295 30.8773 43.6546 31.117 43.674 31.4039C43.6789 31.478 43.6406 31.5685 43.5939 31.6299C43.4817 31.7772 43.3528 31.9116 43.2307 32.051V32.0506Z" fill="#FCFCFC"/>
</svg>
