<svg width="60" height="48" viewBox="0 0 60 48" fill="none" xmlns="http://www.w3.org/2000/svg">
<path d="M40.5665 16.2119C40.9885 16.513 41.3456 16.8769 41.6412 17.3036C41.7703 17.49 41.9234 17.6562 42.1458 17.7381C42.0478 17.8121 41.9469 17.883 41.8524 17.9613C41.7698 18.0298 41.7256 18.1238 41.7041 18.2285C41.642 18.5311 41.7462 18.7518 42.0233 18.8998C42.0596 18.9193 42.098 18.9361 42.1372 18.9493C42.2806 18.997 42.3921 19.083 42.4731 19.2118C42.5171 19.2817 42.5578 19.3622 42.6213 19.4095C42.8011 19.5431 42.8873 19.726 42.928 19.935C42.9606 20.1022 43.0193 20.2515 43.1365 20.3793C43.2825 20.5382 43.3446 20.7344 43.3688 20.9459C43.3805 21.0481 43.38 21.16 43.4237 21.2487C43.576 21.5583 43.5901 21.8845 43.591 22.2194C43.5916 22.4127 43.5718 22.5943 43.4662 22.7562C43.345 22.9417 43.3168 23.1435 43.3525 23.3536C43.3919 23.5863 43.3792 23.8025 43.259 24.0149C43.1662 24.1791 43.1297 24.3617 43.1565 24.5565C43.1673 24.6342 43.1372 24.7175 43.1259 24.7984C43.0919 25.0443 43.0143 25.2825 42.9722 25.524C42.9076 25.8932 42.8361 26.2538 42.6791 26.5963C42.6371 26.6878 42.6117 26.7964 42.6138 26.8965C42.6193 27.158 42.5241 27.385 42.3918 27.5972C42.2891 27.7617 42.2538 27.9325 42.2332 28.1238C42.1978 28.4527 42.1338 28.7818 41.8698 29.0261C41.743 29.1436 41.6718 29.3014 41.6557 29.467C41.625 29.7836 41.4961 30.0624 41.3698 30.3458C41.3202 30.4572 41.2939 30.5816 41.2726 30.7027C41.251 30.8245 41.2523 30.95 41.2368 31.073C41.2036 31.3364 41.2518 31.581 41.4622 31.752C41.6632 31.9153 41.7542 32.1528 41.9037 32.349C42.0779 32.5775 42.186 32.8692 42.1562 33.1635C42.1342 33.3806 42.1592 33.5725 42.2341 33.77C42.2702 33.8651 42.277 33.9709 42.3019 34.0706C42.3732 34.3567 42.3621 34.6531 42.3468 34.9378C42.331 35.2318 42.3991 35.5134 42.3966 35.8041C42.3941 36.0888 42.506 36.3702 42.5024 36.6619C42.6546 36.9033 42.5207 37.2049 42.6633 37.4457C42.833 37.7321 42.5383 37.9528 42.5652 38.2193C42.5936 38.5 42.492 38.7461 42.3443 38.9799C42.2901 39.0657 42.2248 39.1689 42.2279 39.2619C42.2382 39.5625 42.0574 39.8174 42.0495 40.11C41.8708 40.3753 41.882 40.7021 41.7654 40.9913C41.6624 41.2468 41.5394 41.4752 41.3581 41.6773C41.2891 41.7542 41.2126 41.8276 41.1596 41.9148C41.0464 42.1002 40.8883 42.2279 40.6912 42.3058C40.4899 42.3854 40.3261 42.5048 40.232 42.7025C40.1755 42.821 40.0778 42.895 39.9801 42.9727C39.7212 43.1787 39.444 43.3555 39.1606 43.5264C38.9967 43.6252 38.82 43.6775 38.6474 43.7451C38.5728 43.7743 38.4798 43.7957 38.4049 43.7783C38.084 43.704 37.7461 43.6989 37.4424 43.5569C37.2322 43.4585 37.0574 43.3207 36.9486 43.103C36.8886 42.9831 36.8563 42.8633 36.9044 42.7458C36.9698 42.5859 36.9868 42.4281 36.9704 42.2591C36.9097 41.6309 37.0609 41.0285 37.2052 40.4261C37.2125 40.3951 37.2599 40.3577 37.2933 40.3522C37.3736 40.3391 37.4566 40.339 37.5384 40.341C37.7528 40.3463 37.9379 40.2926 38.1157 40.1565C38.4433 39.9057 38.7905 39.6803 39.1295 39.4445C39.4677 39.3496 39.6591 39.0543 39.9189 38.8541C40.0955 38.718 40.242 38.5334 40.3709 38.3487C40.4646 38.2147 40.5261 38.0578 40.6426 37.9361C40.7341 37.8406 40.7546 37.7146 40.7631 37.5901C40.7688 37.5081 40.7524 37.4248 40.7496 37.3419C40.7438 37.1765 40.751 37.0098 40.7338 36.8456C40.713 36.6469 40.519 36.5462 40.4438 36.3747C40.3158 36.0826 40.102 35.9199 39.7701 35.909C39.6286 35.9043 39.4883 35.8172 39.3487 35.82C39.0437 35.8261 38.7746 35.7679 38.5536 35.543C38.5124 35.501 38.4466 35.464 38.3896 35.46C38.2139 35.4477 38.0792 35.3492 37.9332 35.2715C37.8791 35.2426 37.8179 35.2081 37.76 35.2082C37.5068 35.2089 37.2907 35.035 37.0341 35.0604C36.7888 34.9439 36.5019 34.9958 36.2576 34.8596C36.1295 34.7881 35.973 34.7971 35.8291 34.8268C35.5374 34.8869 35.3359 35.1249 35.0615 35.227C34.9752 35.259 34.9142 35.3667 34.8491 35.4458C34.7576 35.5574 34.6734 35.6747 34.5858 35.7896C34.4355 35.9867 34.2562 36.699 34.3498 36.9182C34.4641 37.1851 34.4447 37.4905 34.6264 37.7386C34.7211 37.8682 34.7653 38.0388 34.8144 38.1964C34.8572 38.3336 34.8564 38.4859 34.9084 38.6184C34.968 38.7707 35.0718 38.9053 35.1425 39.0542C35.2052 39.1865 35.2824 39.3048 35.3693 39.423C35.4902 39.5875 35.579 39.7757 35.6841 39.9522C35.7693 40.0953 35.7601 40.1807 35.6424 40.2739C35.5455 40.3505 35.4167 40.4079 35.3577 40.507C35.2382 40.7073 35.0456 40.841 34.9206 41.0277C34.7083 41.3447 34.426 41.5849 34.1262 41.805C33.5865 42.2011 32.9995 42.3145 32.3741 42.0236C32.2171 41.9506 32.0643 41.9101 31.895 41.9229C31.7915 41.9307 31.6885 41.9481 31.585 41.9498C31.2702 41.9549 30.9671 41.9282 30.6998 41.7227C30.569 41.622 30.4006 41.5877 30.2275 41.5928C30.1257 41.596 30.0213 41.5835 29.9216 41.5618C29.7569 41.5259 29.5945 41.5065 29.4278 41.5442C29.0797 41.6227 28.7695 41.4891 28.4809 41.3331C28.2916 41.2309 28.1146 41.142 27.8978 41.1624C27.7008 41.181 27.5326 41.1209 27.3756 41.0027C27.2943 40.9414 27.1945 40.9047 27.104 40.8554C26.8683 40.727 26.6249 40.6115 26.4538 40.3897C26.3776 40.2909 26.2754 40.2189 26.1552 40.1721C25.8556 40.0554 25.6073 39.8544 25.4448 39.589C25.2713 39.3056 25.0453 39.0631 24.8756 38.7798C24.8229 38.6918 24.766 38.6048 24.7256 38.5112C24.659 38.357 24.5827 38.2125 24.458 38.096C24.3757 38.0193 24.3615 37.9158 24.3702 37.8093C24.3974 37.4768 24.3486 37.149 24.303 36.8219C24.2846 36.6902 24.3108 36.5812 24.3765 36.4682C24.5321 36.2009 24.7024 35.9379 24.8199 35.6538C24.9 35.4601 25.005 35.2855 25.101 35.1031C25.1528 35.0047 25.2257 34.9396 25.3256 34.9014C25.4031 34.8717 25.4858 34.8538 25.5605 34.8184C25.8497 34.6809 25.9781 34.3489 25.8724 34.0254C25.7858 33.7605 25.4642 33.5703 25.1736 33.6341C25.0311 33.6655 24.8917 33.6965 24.7451 33.7018C24.5221 33.7099 24.3445 33.8167 24.2246 33.9998C24.1324 34.1407 24.0267 34.2643 23.9011 34.3748C23.8555 34.4149 23.8035 34.4691 23.7928 34.5243C23.7321 34.8352 23.4836 35.0647 23.4321 35.3802C23.416 35.4792 23.3533 35.5699 23.3179 35.6666C23.2896 35.7439 23.2556 35.8233 23.2496 35.9037C23.2128 36.4008 23.067 36.8768 22.9603 37.3591C22.9005 37.6291 22.9263 37.8593 23.0925 38.0598C23.2434 38.242 23.3163 38.4525 23.3939 38.6656C23.4362 38.7815 23.4504 38.9185 23.5225 39.0106C23.6534 39.1778 23.7225 39.3732 23.8213 39.5541C23.9896 39.8617 24.1319 40.1821 24.4486 40.3816C24.5493 40.4449 24.631 40.5537 24.6939 40.6581C24.8458 40.9097 25.0904 41.0809 25.2496 41.3252C25.3309 41.45 25.4462 41.5373 25.5892 41.5861C25.9422 41.7071 26.2717 41.8772 26.5946 42.0626C26.6826 42.1132 26.7856 42.1624 26.8835 42.1661C27.1288 42.1755 27.3219 42.2833 27.4939 42.4405C27.608 42.5447 27.7522 42.6187 27.8887 42.5994C28.1474 42.5628 28.3757 42.6983 28.6238 42.6847C28.7991 42.6752 28.9539 42.7294 29.0896 42.831C29.2973 42.9866 29.5186 43.0768 29.7847 43.0438C29.8645 43.034 29.9515 43.0504 30.0305 43.0721C30.1945 43.1172 30.3525 43.12 30.5214 43.0844C30.7678 43.0328 31.0138 43.0573 31.2551 43.1445C31.3908 43.1937 31.5297 43.2291 31.6621 43.2929C31.7923 43.3558 31.9377 43.3764 32.0876 43.3566C32.5625 43.294 33.0354 43.2873 33.5045 43.4109C33.6476 43.4487 33.7947 43.4339 33.927 43.356C34.2281 43.1787 34.5839 43.1035 34.8491 42.8597C35.045 42.8193 35.1391 42.6284 35.3087 42.5482C35.3604 42.5237 35.4518 42.5305 35.4728 42.5725C35.5099 42.6468 35.5719 42.7181 35.5803 42.7954C35.6093 43.0624 35.7253 43.3132 35.7148 43.5882C35.7101 43.7123 35.7423 43.8392 35.8323 43.9349C35.9755 44.0867 36.0933 44.2537 36.1832 44.4427C36.2088 44.4966 36.2558 44.552 36.3074 44.5796C36.5618 44.7155 36.8214 44.8416 37.0784 44.9726C37.1938 45.0313 37.3182 45.0238 37.4419 45.0369C37.8582 45.0807 38.2683 45.0603 38.6761 44.967C38.7562 44.9487 38.8406 44.9314 38.9215 44.937C39.1409 44.9521 39.3215 44.8843 39.4966 44.7499C39.7093 44.5865 39.9408 44.4471 40.2002 44.3622C40.3285 44.3202 40.443 44.3865 40.4654 44.5306C40.4906 44.6937 40.4824 44.8627 40.5766 45.0111C40.6508 45.128 40.633 45.2492 40.5704 45.3661C40.4527 45.5856 40.4552 45.8023 40.5813 46.0181C40.6021 46.0535 40.6136 46.0944 40.6294 46.1328C40.5718 46.2285 40.4931 46.29 40.3759 46.2725C40.3149 46.2635 40.2557 46.2415 40.196 46.2244C39.99 46.1658 39.7857 46.1664 39.5842 46.2438C39.3821 46.3215 39.17 46.331 38.9725 46.2611C38.7752 46.1912 38.6075 46.2209 38.4359 46.3148C38.3996 46.3346 38.3601 46.3487 38.3214 46.3641C38.1797 46.4203 38.0375 46.4203 37.8962 46.3635C37.8191 46.3326 37.7425 46.3 37.6667 46.2656C37.5691 46.2215 37.4688 46.1971 37.3659 46.2385C37.1869 46.3104 37.0012 46.3104 36.8133 46.3037C36.6263 46.297 36.4392 46.2916 36.252 46.2933C35.9597 46.2958 35.6763 46.2594 35.3924 46.1798C35.1993 46.1258 35.0061 46.0592 34.7831 46.1143C34.6131 46.1562 34.423 46.0606 34.2346 46.1428C34.1504 46.1797 34.0218 46.1644 33.9312 46.128C33.7107 46.0398 33.4839 46.0328 33.2559 46.0404C32.6532 46.0607 32.0507 46.0573 31.448 46.0404C31.1998 46.0334 30.949 46.017 30.7093 46.1166C30.5879 46.167 30.4642 46.1441 30.3463 46.0915C30.2702 46.0576 30.1946 46.0234 30.1192 45.9883C30.0002 45.9331 29.8798 45.9235 29.7577 45.9758C29.5578 46.0612 29.3536 46.0754 29.1503 45.9978C28.9908 45.937 28.8255 45.9354 28.6599 45.9221C28.4536 45.9054 28.2491 45.8884 28.0439 45.8411C27.8244 45.7904 27.5906 45.7895 27.3631 45.7879C26.9267 45.7849 26.4903 45.7971 26.054 45.8029C26.0124 45.8035 25.9697 45.7985 25.9294 45.8063C25.7671 45.8383 25.606 45.8763 25.4437 45.9081C25.2783 45.9406 25.12 45.8308 24.9511 45.8828C24.8082 45.9268 24.664 45.9179 24.5219 45.8686C24.4832 45.8552 24.4342 45.8321 24.4021 45.8446C24.1305 45.9496 23.8716 45.8244 23.6071 45.8113C23.3374 45.7979 23.0667 45.8021 22.7966 45.7987C22.7758 45.7984 22.7547 45.7998 22.7343 45.7977C22.5081 45.774 22.2768 45.7091 22.0573 45.737C21.83 45.7659 21.6036 45.7789 21.3763 45.7949C21.3142 45.7993 21.2504 45.7918 21.1895 45.8021C21.0264 45.8296 20.8644 45.8881 20.7019 45.8884C20.5395 45.8887 20.3779 45.824 20.214 45.8052C20.0483 45.7862 19.8827 45.8027 19.7235 45.865C19.5826 45.9201 19.441 45.9081 19.2965 45.8642C18.9783 45.7678 18.6427 45.7771 18.3171 45.7022C18.0194 45.6337 17.6963 45.6492 17.3915 45.7384C17.2669 45.775 17.1496 45.7717 17.0252 45.7369C16.7592 45.6623 16.4936 45.6626 16.2283 45.7531C16.0232 45.823 15.8167 45.8149 15.624 45.7099C15.3978 45.5867 15.1576 45.5418 14.9029 45.5482C14.793 45.551 14.7038 45.4995 14.6387 45.4094C14.6863 45.1238 14.6448 44.8278 14.74 44.5478C14.7048 44.2789 14.7748 44.0143 14.7582 43.7416C14.7333 43.329 14.7735 42.9112 14.9446 42.5204C14.9944 42.4068 15.0365 42.2891 15.0735 42.1706C15.1041 42.0728 15.1412 41.9707 15.1408 41.8707C15.1401 41.7026 15.1687 41.5423 15.1977 41.3781C15.2444 41.114 15.2857 40.8457 15.2912 40.5784C15.2982 40.2319 15.3834 39.9221 15.6144 39.6627C15.7296 39.5335 15.8186 39.3904 15.8256 39.2216C15.8372 38.9445 16.0049 38.7158 16.0391 38.4449C16.0536 38.3292 16.136 38.2168 16.2045 38.1145C16.308 37.9598 16.4166 37.8065 16.5403 37.6679C16.8018 37.3751 17.0726 37.0825 17.4047 36.8748C17.6471 36.7231 17.9238 36.6262 18.1375 36.4242C18.17 36.3936 18.2713 36.4312 18.295 36.4827C18.3379 36.5759 18.3758 36.6713 18.4153 36.7658C18.4816 36.9243 18.5836 37.0604 18.7348 37.1368C19.0329 37.2876 19.299 37.4794 19.5506 37.6967C19.6105 37.7485 19.6943 37.7816 19.7727 37.8011C19.9934 37.8562 20.2381 37.7518 20.3707 37.5581C20.511 37.3533 20.5184 37.1069 20.3862 36.9143C20.3512 36.8634 20.3094 36.8163 20.2654 36.773C20.0862 36.5971 19.9337 36.4017 19.8206 36.1771C19.7638 36.0643 19.6957 35.961 19.5926 35.8853C19.2138 35.6073 18.9505 35.2455 18.8108 34.7971C18.7591 34.6314 18.6722 34.4897 18.5283 34.3987C18.3557 34.2894 18.2517 34.1544 18.2649 33.9425C18.2744 33.7892 18.206 33.66 18.1242 33.5376C17.9955 33.3454 17.9309 33.1275 17.877 32.9068C17.7984 32.5842 17.7223 32.2616 17.8444 31.9285C17.8708 31.8566 17.8622 31.7597 17.8383 31.6843C17.787 31.522 17.7743 31.3612 17.7884 31.193C17.8007 31.0464 17.7735 30.9044 17.7021 30.7714C17.6599 30.6929 17.671 30.6083 17.7211 30.5367C17.8431 30.3624 17.9015 30.1754 17.921 29.9589C17.9468 29.6736 18.0178 29.3906 18.0801 29.111C18.1258 28.9056 18.1565 28.7105 18.1511 28.4999C18.1441 28.2323 18.1592 27.9618 18.1932 27.6962C18.2166 27.5131 18.3009 27.3385 18.3354 27.1559C18.3736 26.9537 18.3847 26.7466 18.4105 26.542C18.4183 26.4804 18.4225 26.4134 18.4496 26.3597C18.5903 26.0821 18.616 25.7618 18.7777 25.4923C18.8542 25.3648 18.8969 25.2235 18.8749 25.0746C18.8493 24.9019 18.9013 24.7556 18.9678 24.5974C19.0908 24.3046 19.0408 24.0252 18.8005 23.8006C18.6942 23.7012 18.5903 23.6041 18.5105 23.4788C18.4562 23.3936 18.3821 23.3032 18.2947 23.2606C18.0621 23.1474 17.9526 22.901 17.7316 22.7741C17.654 22.7296 17.6053 22.6098 17.5739 22.5144C17.5096 22.3187 17.4444 22.1189 17.4197 21.9159C17.3938 21.7019 17.3078 21.5299 17.2026 21.3453C16.9428 20.8892 16.745 20.4124 16.9738 19.8685C17.0183 19.7627 17.0214 19.6115 16.9819 19.5038C16.8889 19.25 16.8139 18.9937 16.7625 18.7294C16.5184 18.3531 16.5056 17.9008 16.3577 17.4929C16.3074 17.3544 16.288 17.2081 16.3292 17.0642C16.3907 16.8488 16.3569 16.6416 16.2372 16.4666C16.0926 16.2553 16.0851 15.9967 15.9509 15.7807C15.8003 15.5381 15.9169 15.2502 15.8823 14.9842C15.869 14.8826 15.8759 14.7778 15.8816 14.6748C15.8887 14.5488 15.8852 14.4263 15.8308 14.3091C15.7736 14.1859 15.7871 14.062 15.8584 13.9521C16.0196 13.704 16.0207 13.3984 16.1591 13.1404C16.2044 13.0558 16.2145 12.9333 16.1958 12.8368C16.1189 12.442 16.1919 12.0538 16.2142 11.6621C16.2276 11.4274 16.2762 11.2171 16.4062 11.0202C16.4616 10.9362 16.5122 10.833 16.5184 10.7358C16.5373 10.4368 16.6487 10.176 16.7928 9.92064C16.8424 9.83261 16.8602 9.72664 16.8941 9.62941C17.0508 9.17836 17.2312 8.73808 17.5374 8.36428C17.6552 8.22054 17.8216 8.10614 17.8689 7.92041C17.9235 7.70535 18.1295 7.60125 18.2029 7.40069C18.2969 7.1438 18.4809 6.94091 18.6703 6.75065C18.7908 6.6297 18.8896 6.50515 18.9399 6.3405C18.997 6.15305 19.1176 6.00494 19.2899 5.92066C19.4768 5.82936 19.6122 5.6633 19.8196 5.59837C19.9303 5.56372 20.0205 5.45744 20.1142 5.37675C20.4436 5.09207 20.7823 4.82753 21.2201 4.72296C21.3385 4.69471 21.4712 4.65117 21.556 4.57095C21.786 4.35291 22.0995 4.27628 22.3393 4.07198C22.459 3.96991 22.6238 3.91404 22.7633 3.82305C22.9517 3.70022 23.1665 3.60923 23.3809 3.53791C23.5552 3.48 23.7519 3.49015 23.9275 3.4349C24.104 3.37934 24.2644 3.2821 24.4567 3.26041C24.5983 3.24449 24.7334 3.15787 24.8739 3.15116C25.1867 3.13602 25.4681 2.95872 25.7864 2.98947C26.0137 2.85696 26.2762 2.92329 26.5172 2.86367C26.5674 2.85119 26.6453 2.88115 26.6871 2.91799C26.7964 3.01444 26.9005 3.11058 27.0406 3.16599C27.3011 3.26899 27.401 3.49701 27.4497 3.74892C27.4689 3.84833 27.4647 3.95743 27.4466 4.05763C27.4208 4.20012 27.3743 4.33902 27.3334 4.4784C27.2971 4.60247 27.2265 4.69955 27.106 4.75777C26.9347 4.84048 26.7945 4.95489 26.6881 5.11954C26.6224 5.2213 26.5131 5.29403 26.4299 5.38565C26.3745 5.44667 26.3069 5.51144 26.2859 5.5862C26.1961 5.90474 25.9277 6.15071 25.9196 6.50047C25.8027 6.70289 25.7604 6.92577 25.7401 7.15472C25.594 7.38056 25.6694 7.64167 25.621 7.88093C25.5718 8.12487 25.629 8.37989 25.5221 8.61696C25.4902 8.68735 25.4905 8.78474 25.5077 8.86278C25.589 9.23205 25.4579 9.56854 25.3165 9.88505C25.1837 10.1821 25.0822 10.4608 25.1948 10.7809C25.0952 11.0643 25.2552 11.3548 25.1711 11.6401C25.1544 11.6969 25.1609 11.7659 25.1742 11.8253C25.2641 12.2285 25.3089 12.6383 25.3635 13.0468C25.3743 13.1271 25.4059 13.207 25.4403 13.2815C25.5545 13.5296 25.6121 13.7895 25.6188 14.0619C25.6219 14.1877 25.6269 14.3191 25.7097 14.4182C25.8891 14.6331 25.8943 14.9193 26.0271 15.1561C26.1036 15.2925 26.0998 15.4759 26.1232 15.6393C26.135 15.7207 26.1209 15.8057 26.129 15.8881C26.1542 16.1435 26.3825 16.4034 26.6317 16.4668C27.1803 16.6065 27.6485 16.1652 27.527 15.616C27.5006 15.4966 27.4277 15.388 27.3959 15.2692C27.3823 15.2184 27.3998 15.1239 27.4358 15.1011C27.6117 14.9902 27.7313 14.8126 27.9231 14.7189C28.2067 14.5805 28.4937 14.4726 28.8153 14.4822C28.941 14.4859 29.0638 14.4686 29.1749 14.4008C29.4641 14.225 29.7805 14.1469 30.1168 14.1344C30.2642 14.129 30.4017 14.0893 30.5226 13.9954C30.6998 13.858 30.9041 13.8465 31.116 13.8849C31.1773 13.896 31.2426 13.8955 31.3 13.9167C31.5794 14.02 31.8569 14.0523 32.1542 13.9787C32.3109 13.9398 32.4844 13.9626 32.6499 13.9684C32.7086 13.9704 32.7719 13.9954 32.8225 14.0271C32.8738 14.0592 32.9069 14.1198 32.9567 14.1555C33.432 14.4965 33.9676 14.333 34.1577 13.7887C34.1919 13.691 34.2117 13.5885 34.2382 13.4881C34.5672 13.4884 34.8964 13.4944 35.2252 13.4869C35.439 13.4819 35.6404 13.5211 35.8071 13.6514C35.9944 13.7978 36.2018 13.8577 36.4326 13.881C36.6199 13.8999 36.7883 13.9793 36.9272 14.112C36.8929 14.2688 36.7525 14.3369 36.655 14.441C36.4677 14.641 36.4267 14.8826 36.4961 15.1356C36.5671 15.3939 36.7418 15.5662 37.0119 15.6171C37.3899 15.6883 37.6852 15.5602 37.828 15.2141C37.9098 15.0158 38.0247 14.8545 38.157 14.6964C38.3445 14.7163 38.5031 14.8088 38.6697 14.8876C38.9262 15.0089 39.1615 15.1823 39.4524 15.2237C39.3672 15.4738 39.1523 15.6048 38.9521 15.7376C38.7738 15.8558 38.6345 15.9876 38.5542 16.1907C38.5021 16.3227 38.4069 16.437 38.3443 16.5657C38.3092 16.6378 38.2799 16.7246 38.2849 16.8022C38.3005 17.0405 38.3941 17.241 38.6243 17.3495C38.8658 17.4633 39.145 17.4393 39.309 17.251C39.4972 17.0349 39.7393 16.8724 39.8952 16.6211C39.9656 16.5077 40.1075 16.432 40.2287 16.3585C40.3328 16.2952 40.4536 16.2595 40.5671 16.2118L40.5665 16.2119ZM21.6135 21.4662C21.7379 21.46 21.8633 21.4612 21.9866 21.4461C22.3585 21.4004 22.6495 21.107 22.6489 20.7411C22.6488 20.6375 22.6302 20.529 22.6545 20.4315C22.7089 20.2131 22.7524 19.9884 23.0174 19.8969C23.1994 19.834 23.3221 19.6831 23.3915 19.5007C23.433 19.3917 23.5069 19.3394 23.6191 19.3206C23.7205 19.3035 23.8226 19.2808 23.9194 19.2467C24.1519 19.1648 24.3086 18.9942 24.3609 18.761C24.406 18.5597 24.4631 18.3629 24.5115 18.1634C24.5394 18.0484 24.5391 17.9061 24.4959 17.7984C24.3958 17.5496 24.3849 17.2765 24.2409 17.0366C24.1369 16.8635 24.1043 16.6474 24.1116 16.4345C24.1183 16.2402 24.0539 16.0627 23.9275 15.9185C23.8287 15.806 23.7809 15.6741 23.718 15.5438C23.5182 15.1299 23.4263 14.6829 23.2904 14.2495C23.296 13.9829 23.1981 13.765 22.9885 13.5974C22.8863 13.5156 22.844 13.3957 22.8081 13.277C22.7844 13.1985 22.7855 13.1128 22.7682 13.0319C22.7012 12.7189 22.5138 12.5138 22.2018 12.4389C22.0004 12.3906 21.8186 12.3388 21.6547 12.1848C21.4665 12.0078 21.2202 11.9616 20.959 12.0721C20.8071 12.1364 20.6425 12.1704 20.4831 12.2166C20.3139 12.2658 20.1903 12.3714 20.111 12.5258C20.0358 12.6722 19.9776 12.8281 19.8952 12.9701C19.7474 13.2248 19.7226 13.4774 19.8729 13.7369C19.9703 13.9052 20.0207 14.0859 19.9681 14.2741C19.9142 14.4662 19.9453 14.6406 20.0099 14.8213C20.0513 14.937 20.0659 15.062 20.0957 15.182C20.1206 15.2819 20.1323 15.3905 20.1805 15.4784C20.4213 15.9172 20.4333 16.3942 20.3981 16.8694C20.3768 17.1568 20.3174 17.4336 20.381 17.728C20.4187 17.9022 20.4055 18.1002 20.3317 18.2797C20.2645 18.4431 20.2769 18.6081 20.3547 18.7626C20.4965 19.044 20.5593 19.3423 20.5853 19.6542C20.6214 20.0872 20.7295 20.5089 20.8149 20.9336C20.8577 21.1461 20.9919 21.3058 21.1882 21.4076C21.3231 21.4775 21.4675 21.4795 21.6134 21.4667L21.6135 21.4662ZM35.0592 25.4122C34.9819 25.2142 34.9969 24.9605 34.9482 24.7183C34.8775 24.3659 34.511 24.0918 34.1619 24.1477C33.9347 24.1841 33.7132 24.2022 33.4842 24.1973C33.2099 24.1917 32.9967 24.333 32.8879 24.5754C32.7941 24.7845 32.6915 24.9844 32.5661 25.1751C32.5331 25.2251 32.5047 25.2914 32.5071 25.349C32.5164 25.583 32.4117 25.7933 32.3819 26.0162C32.3479 26.2698 32.2592 26.4943 32.1352 26.7118C32.0843 26.8009 32.0179 26.8949 32.0087 26.9915C31.9827 27.2646 31.9093 27.5189 31.7969 27.768C31.725 27.9275 31.7628 28.0898 31.8313 28.2494C31.9627 28.556 32.3824 28.7776 32.7788 28.5713C32.888 28.5145 32.9764 28.4147 33.0878 28.3646C33.2572 28.2883 33.4541 28.2643 33.6103 28.17C33.7841 28.0651 33.9237 27.9045 34.0815 27.7722C34.1287 27.7327 34.1895 27.7099 34.239 27.6728C34.4149 27.541 34.5231 27.3645 34.5276 27.1446C34.5373 26.6772 34.6524 26.2477 34.9326 25.8667C35.0211 25.7464 35.0446 25.6009 35.059 25.4122H35.0592ZM38.8416 29.8405C39.096 29.84 39.201 29.8063 39.3423 29.7097C39.6714 29.4844 39.9656 29.2286 40.1098 28.8396C40.1454 28.7436 40.2205 28.6515 40.2234 28.556C40.2331 28.2385 40.3427 27.9531 40.4504 27.662C40.551 27.3898 40.5134 27.1273 40.3002 26.9153C40.1947 26.8105 40.1108 26.705 40.082 26.5526C40.0675 26.4757 40.0131 26.4023 39.9645 26.3362C39.7615 26.0593 39.3572 25.9951 39.078 26.194C38.9271 26.3015 38.7788 26.4129 38.6309 26.5247C38.4938 26.6283 38.3749 26.765 38.3716 26.9325C38.3666 27.1925 38.2341 27.4081 38.167 27.6442C38.0945 27.8995 37.9501 28.1346 37.9612 28.4132C37.7425 28.8046 37.907 29.1121 38.146 29.4325C38.3524 29.7097 38.6036 29.8384 38.8417 29.8403L38.8416 29.8405Z" fill="#FCFCFC"/>
<path d="M40.6281 46.1319C40.6123 46.0935 40.6008 46.0526 40.58 46.0172C40.4539 45.8013 40.4514 45.5847 40.5691 45.3651C40.6317 45.2482 40.6495 45.1271 40.5753 45.0102C40.4812 44.8618 40.4894 44.6927 40.4641 44.5297C40.4418 44.3856 40.327 44.3193 40.1989 44.3612C39.9395 44.4462 39.7081 44.5855 39.4953 44.7489C39.3202 44.8835 39.1396 44.9514 38.9202 44.9361C38.8394 44.9304 38.7551 44.9478 38.6749 44.966C38.267 45.0594 37.8569 45.0798 37.4406 45.0359C37.3169 45.0228 37.1925 45.0305 37.0771 44.9717C36.8201 44.8407 36.5605 44.7146 36.3061 44.5787C36.2545 44.551 36.2075 44.4956 36.1819 44.4418C36.092 44.2528 35.9743 44.0858 35.8311 43.9339C35.741 43.8383 35.7087 43.7114 35.7135 43.5873C35.724 43.3124 35.6082 43.0616 35.579 42.7944C35.5706 42.7172 35.5086 42.6459 35.4715 42.5716C35.4506 42.5296 35.3589 42.5227 35.3074 42.5472C35.1379 42.6276 35.0438 42.8183 34.8478 42.8587C34.5826 43.1025 34.2268 43.1779 33.9257 43.3551C33.7934 43.4329 33.6465 43.4478 33.5032 43.41C33.0341 43.2864 32.5612 43.2932 32.0863 43.3557C31.9364 43.3753 31.791 43.3547 31.6608 43.292C31.5286 43.2282 31.3896 43.1927 31.2538 43.1436C31.0125 43.0562 30.7667 43.0317 30.5201 43.0835C30.3512 43.1189 30.1931 43.1161 30.0292 43.0712C29.9503 43.0495 29.8633 43.0331 29.7834 43.0429C29.5173 43.0758 29.296 42.9856 29.0883 42.83C28.9525 42.7284 28.7977 42.6743 28.6226 42.6838C28.3744 42.6974 28.1461 42.5619 27.8875 42.5984C27.7509 42.6178 27.6067 42.5438 27.4926 42.4395C27.3204 42.2824 27.1274 42.1744 26.8822 42.1652C26.7843 42.1614 26.6813 42.1123 26.5933 42.0617C26.2704 41.8763 25.9409 41.7062 25.5879 41.5852C25.4449 41.5362 25.3296 41.4489 25.2483 41.3242C25.0891 41.0801 24.8445 40.9089 24.6927 40.6572C24.6296 40.5528 24.5478 40.4438 24.4473 40.3806C24.1306 40.1812 23.9881 39.8609 23.8201 39.5531C23.7211 39.3722 23.652 39.1768 23.5212 39.0097C23.4491 38.9176 23.4349 38.7806 23.3926 38.6646C23.315 38.4517 23.2421 38.241 23.0912 38.0589C22.925 37.8583 22.8992 37.6281 22.959 37.3581C23.0658 36.8759 23.2115 36.3998 23.2484 35.9028C23.2543 35.8224 23.2883 35.7429 23.3166 35.6657C23.352 35.5691 23.4147 35.4782 23.4308 35.3793C23.4823 35.0637 23.7308 34.8343 23.7915 34.5234C23.8023 34.4681 23.8541 34.414 23.8998 34.3739C24.0254 34.2632 24.1313 34.1396 24.2233 33.9988C24.3432 33.8158 24.5208 33.709 24.7438 33.7009C24.8904 33.6956 25.0298 33.6645 25.1723 33.6332C25.4629 33.5693 25.7845 33.7596 25.8712 34.0244C25.977 34.348 25.8485 34.6799 25.5592 34.8174C25.4846 34.8529 25.4018 34.8708 25.3243 34.9005C25.2242 34.9387 25.1515 35.0038 25.0997 35.1021C25.0037 35.2846 24.8987 35.4592 24.8186 35.6529C24.7012 35.9371 24.531 36.1999 24.3752 36.4673C24.3095 36.5803 24.2834 36.6892 24.3017 36.8209C24.3473 37.1481 24.3961 37.4758 24.369 37.8084C24.3602 37.9147 24.3746 38.0182 24.4567 38.0951C24.5814 38.2117 24.6577 38.3562 24.7243 38.5103C24.7648 38.6039 24.8217 38.6908 24.8743 38.7789C25.044 39.0623 25.27 39.3047 25.4435 39.5881C25.606 39.8534 25.8545 40.0544 26.154 40.1712C26.2741 40.218 26.3762 40.2899 26.4525 40.3887C26.6234 40.6105 26.8671 40.726 27.1027 40.8545C27.1932 40.9038 27.293 40.9406 27.3743 41.0018C27.5313 41.1201 27.6995 41.18 27.8965 41.1615C28.1133 41.141 28.2904 41.23 28.4796 41.3322C28.7682 41.4881 29.0786 41.6217 29.4265 41.5432C29.593 41.5056 29.7556 41.525 29.9203 41.5608C30.02 41.5825 30.1244 41.595 30.2262 41.5919C30.3993 41.5866 30.5677 41.6211 30.6985 41.7218C30.9657 41.9273 31.2688 41.954 31.5837 41.9488C31.6872 41.9471 31.7902 41.9296 31.8937 41.922C32.0629 41.9092 32.2158 41.9496 32.3728 42.0227C32.9982 42.3136 33.5853 42.2 34.1249 41.804C34.4247 41.5839 34.707 41.3438 34.9193 41.0268C35.0443 40.8401 35.2369 40.7064 35.3564 40.5061C35.4156 40.407 35.5444 40.3496 35.6411 40.2729C35.7588 40.1798 35.768 40.0944 35.6828 39.9513C35.5778 39.7748 35.489 39.5867 35.368 39.422C35.2811 39.3039 35.204 39.1856 35.1412 39.0532C35.0705 38.9043 34.9667 38.7698 34.9071 38.6175C34.8553 38.485 34.8559 38.3326 34.8132 38.1955C34.764 38.0378 34.72 37.8672 34.6251 37.7377C34.4434 37.4894 34.4628 37.1841 34.3485 36.9172C34.2547 36.6983 34.4341 35.9858 34.5845 35.7887C34.6721 35.674 34.7563 35.5564 34.8478 35.4448C34.9127 35.3656 34.9739 35.258 35.0602 35.226C35.3346 35.1241 35.5361 34.8859 35.8278 34.8259C35.9717 34.7962 36.1282 34.7872 36.2564 34.8586C36.5006 34.9949 36.7875 34.9429 37.0328 35.0595C37.2894 35.0339 37.5056 35.2079 37.7587 35.2073C37.8166 35.2071 37.8778 35.2418 37.932 35.2705C38.078 35.3482 38.2126 35.4467 38.3883 35.459C38.4453 35.4631 38.5111 35.4999 38.5523 35.5421C38.7733 35.767 39.0424 35.8252 39.3474 35.8191C39.4871 35.8163 39.6274 35.9034 39.7688 35.9081C40.1007 35.9191 40.3146 36.0816 40.4425 36.3738C40.5178 36.5453 40.7118 36.646 40.7325 36.8447C40.7497 37.0088 40.7425 37.1755 40.7483 37.341C40.7511 37.4238 40.7675 37.5072 40.7619 37.5891C40.7533 37.7137 40.7328 37.8396 40.6414 37.9351C40.5248 38.0569 40.4633 38.2137 40.3696 38.3478C40.2407 38.5324 40.0942 38.7172 39.9177 38.8531C39.6578 39.0534 39.4665 39.3488 39.1282 39.4436C38.7893 39.6796 38.4422 39.9048 38.1144 40.1556C37.9366 40.2917 37.7515 40.3454 37.5371 40.34C37.4553 40.338 37.3723 40.338 37.2921 40.3513C37.2585 40.3567 37.2112 40.3942 37.2039 40.4251C37.0597 41.0275 36.9084 41.63 36.9691 42.2582C36.9855 42.4272 36.9685 42.585 36.9031 42.7448C36.8551 42.8623 36.8874 42.9822 36.9473 43.1021C37.0562 43.3198 37.2309 43.4576 37.4411 43.5559C37.7448 43.6979 38.0827 43.7031 38.4036 43.7774C38.4785 43.7947 38.5715 43.7733 38.6461 43.7441C38.8189 43.6766 38.9954 43.6241 39.1593 43.5255C39.4427 43.3546 39.7199 43.1778 39.9788 42.9717C40.0765 42.894 40.1742 42.8202 40.2307 42.7016C40.325 42.5038 40.4886 42.3843 40.6899 42.3048C40.887 42.227 41.0453 42.0993 41.1583 41.9139C41.2115 41.8268 41.2878 41.7533 41.3568 41.6763C41.5382 41.4742 41.661 41.2459 41.7642 40.9904C41.8809 40.7012 41.8695 40.3744 42.0482 40.1091C42.0562 39.8164 42.2369 39.5616 42.2266 39.261C42.2235 39.1679 42.2889 39.0648 42.343 38.9789C42.4907 38.7451 42.5923 38.499 42.5639 38.2184C42.5369 37.9518 42.8315 37.7311 42.662 37.4448C42.5195 37.2039 42.6535 36.9024 42.5011 36.661C42.5047 36.3693 42.3928 36.0879 42.3953 35.8032C42.3978 35.5124 42.3296 35.2309 42.3455 34.9368C42.3608 34.6523 42.3719 34.3558 42.3006 34.0697C42.2758 33.97 42.2689 33.8641 42.2328 33.7691C42.1578 33.5714 42.1329 33.3795 42.155 33.1626C42.1848 32.8682 42.0766 32.5765 41.9024 32.3481C41.7529 32.1519 41.6619 31.9145 41.4609 31.7511C41.2505 31.5802 41.2023 31.3355 41.2355 31.072C41.251 30.949 41.2497 30.8234 41.2713 30.7018C41.2928 30.5807 41.3189 30.4563 41.3685 30.3449C41.4949 30.0613 41.6237 29.7827 41.6544 29.466C41.6705 29.3004 41.7417 29.1425 41.8686 29.0251C42.1325 28.7809 42.1965 28.4519 42.2319 28.1229C42.2525 27.9315 42.2878 27.7608 42.3905 27.5963C42.5228 27.3842 42.618 27.1573 42.6126 26.8955C42.6105 26.7955 42.636 26.6867 42.6778 26.5954C42.8348 26.2528 42.9063 25.8923 42.9709 25.523C43.0132 25.2816 43.0908 25.0434 43.1246 24.7974C43.1359 24.7166 43.166 24.6333 43.1552 24.5555C43.1284 24.3607 43.1649 24.1781 43.2578 24.014C43.3779 23.8015 43.3906 23.5852 43.3513 23.3527C43.3157 23.1426 43.3438 22.9408 43.4649 22.7552C43.5705 22.5935 43.5904 22.4117 43.5897 22.2185C43.5888 21.8836 43.5747 21.5574 43.4224 21.2477C43.3789 21.1591 43.3792 21.0472 43.3675 20.945C43.3433 20.7335 43.2812 20.5373 43.1352 20.3784C43.0179 20.2507 42.9592 20.1012 42.9267 19.9341C42.886 19.7252 42.7998 19.5422 42.6201 19.4086C42.5565 19.3614 42.5158 19.2808 42.4718 19.2108C42.3908 19.0821 42.2793 18.9961 42.1359 18.9483C42.0967 18.9352 42.0583 18.9184 42.022 18.8988C41.7451 18.7509 41.6407 18.5302 41.7028 18.2276C41.7244 18.1229 41.7685 18.0289 41.8511 17.9604C41.9455 17.882 42.0465 17.8112 42.1445 17.7372C42.6667 17.843 43.0802 18.155 43.4981 18.4567C43.5465 18.4917 43.5889 18.5457 43.6136 18.6003C43.7369 18.8728 43.9279 19.0822 44.17 19.2553C44.3284 19.3686 44.4299 19.5447 44.4341 19.7321C44.44 19.9906 44.5872 20.2038 44.6161 20.4511C44.6229 20.5095 44.6605 20.5619 44.727 20.5875C44.9285 20.6651 45.0755 20.7973 45.1718 20.9975C45.2714 21.2045 45.4167 21.3785 45.6087 21.5149C45.7276 21.5994 45.8212 21.7167 45.8537 21.8653C45.9253 22.1937 46.102 22.4757 46.2559 22.7657C46.3352 22.9149 46.4039 23.0613 46.4256 23.228C46.4335 23.2896 46.4167 23.3595 46.4401 23.4131C46.5603 23.6879 46.6214 23.9615 46.5017 24.2554C46.4822 24.3033 46.5108 24.3776 46.5323 24.4339C46.5618 24.511 46.6027 24.5842 46.6441 24.656C46.7312 24.807 46.7585 24.973 46.7269 25.1375C46.6672 25.4495 46.6887 25.7557 46.7486 26.0626C46.7945 26.2979 46.7692 26.5219 46.6149 26.7101C46.5017 26.8481 46.4554 27.0079 46.4566 27.1719C46.4585 27.4283 46.4104 27.6653 46.2818 27.8861C46.264 28.1566 46.1051 28.3941 46.102 28.669C46.1006 28.7973 46.0497 28.9165 45.967 29.0108C45.7093 29.3043 45.628 29.6666 45.5531 30.0323C45.5406 30.093 45.5402 30.156 45.5341 30.218C45.515 30.4096 45.4557 30.5833 45.3065 30.7148C45.1564 30.847 45.0885 31.0122 45.0922 31.2111C45.0958 31.4077 45.0286 31.5841 44.887 31.7157C44.75 31.843 44.7106 31.9866 44.7325 32.1636C44.765 32.4264 44.6946 32.6577 44.4967 32.8409C44.3517 32.9752 44.2905 33.1606 44.2555 33.3358C44.2184 33.522 44.1274 33.6872 44.0934 33.8673C44.0492 34.1 43.9685 34.2994 43.7978 34.4692C43.7483 34.5184 43.7157 34.6337 43.7375 34.6974C43.8886 35.1385 43.849 35.5945 43.8655 36.0462C43.9684 36.3448 43.9159 36.661 43.9693 36.9653C43.9947 37.1103 43.9924 37.2575 43.9297 37.3929C43.8632 37.5367 43.8739 37.6729 43.9357 37.8126C43.9609 37.8694 43.9776 37.9298 44.0013 37.9874C44.0779 38.1731 44.064 38.3634 43.9718 38.5295C43.8792 38.6961 43.8254 38.8705 43.7831 39.0515C43.7597 39.1517 43.7341 39.2536 43.7304 39.3555C43.725 39.5029 43.7009 39.6398 43.6387 39.7763C43.5885 39.8871 43.5776 40.0153 43.5401 40.1328C43.5026 40.2503 43.4744 40.3784 43.4059 40.4768C43.2368 40.7195 43.1457 40.9898 43.073 41.2702C43.0574 41.3303 43.0525 41.3968 43.0224 41.4488C42.9078 41.6468 42.8509 41.8703 42.7469 42.0701C42.6433 42.2693 42.486 42.4384 42.3866 42.6452C42.3221 42.7793 42.1855 42.8477 42.0573 42.9198C41.8355 43.0443 41.6721 43.2272 41.5581 43.4551C41.5201 43.5311 41.4959 43.599 41.5472 43.6841C41.6004 43.7722 41.6313 43.8734 41.6778 43.9659C41.7615 44.1321 41.8795 44.2879 41.9274 44.4632C41.9753 44.6381 41.9263 44.8387 41.9699 45.0157C42.0777 45.4542 41.843 45.7801 41.631 46.1058C41.467 46.3579 41.1071 46.3897 40.7885 46.2223C40.7341 46.1935 40.6813 46.1617 40.6276 46.1313L40.6281 46.1319ZM43.1395 29.284C43.1549 29.4412 43.1691 29.5035 43.1655 29.5648C43.1544 29.7557 43.1006 29.9322 42.9661 30.0756C42.9377 30.1059 42.9054 30.1326 42.878 30.1638C42.5937 30.49 42.5654 30.6542 42.7301 31.0606C42.7607 31.136 42.7973 31.2128 42.8479 31.2754C42.9422 31.3923 42.9943 31.5224 43.0265 31.6674C43.0486 31.7672 43.0931 31.8619 43.1295 31.9582C43.1491 32.0103 43.2473 32.0212 43.2859 31.9764C43.38 31.867 43.4753 31.7586 43.5666 31.647C43.6336 31.5652 43.6846 31.4726 43.6734 31.3629C43.6439 31.0725 43.7456 30.8402 43.9532 30.637C44.0561 30.5364 44.1213 30.4004 44.1165 30.244C44.1112 30.0708 44.1647 29.9096 44.2727 29.7807C44.544 29.4567 44.5911 29.0665 44.6069 28.6721C44.6147 28.4779 44.6576 28.3078 44.7515 28.1407C44.8731 27.924 44.9772 27.6966 44.9895 27.4435C44.9991 27.2487 45.0606 27.0777 45.1809 26.9278C45.292 26.7895 45.3409 26.6511 45.2684 26.4705C45.2057 26.314 45.2099 26.1439 45.284 25.9851C45.3961 25.7451 45.4 25.5049 45.295 25.2618C45.2438 25.1435 45.2272 25.0169 45.2697 24.8965C45.359 24.6431 45.3167 24.4127 45.1988 24.1777C45.1072 23.9948 45.1052 23.7719 44.9596 23.6102C44.9337 23.5815 44.8907 23.5308 44.8751 23.5372C44.8221 23.5592 44.7629 23.5926 44.7326 23.6389C44.6382 23.7834 44.5983 23.9562 44.642 24.1163C44.7127 24.3751 44.6641 24.6048 44.5636 24.8405C44.5243 24.9326 44.5207 25.0403 44.5024 25.1411C44.4547 25.4055 44.4395 25.681 44.3529 25.9318C44.2371 26.267 44.1586 26.6024 44.1413 26.9555C44.133 27.1245 44.081 27.2852 43.9535 27.4051C43.7625 27.5844 43.6729 27.8176 43.625 28.0611C43.5918 28.2298 43.5343 28.3729 43.4349 28.512C43.2509 28.769 43.139 29.0559 43.139 29.2837L43.1395 29.284Z" fill="#070607"/>
<path d="M34.2377 13.4881C34.2112 13.5885 34.1913 13.691 34.1572 13.7887C33.9671 14.333 33.4314 14.4965 32.9562 14.1555C32.9062 14.1198 32.8733 14.0592 32.822 14.0271C32.7714 13.9954 32.708 13.9704 32.6494 13.9684C32.4838 13.9626 32.3104 13.9398 32.1537 13.9787C31.8564 14.0523 31.5789 14.0199 31.2995 13.9167C31.2421 13.8955 31.1768 13.8961 31.1155 13.8849C30.9035 13.8465 30.6992 13.858 30.5221 13.9954C30.4011 14.0892 30.2636 14.129 30.1163 14.1344C29.78 14.1469 29.4636 14.225 29.1744 14.4008C29.0631 14.4684 28.9403 14.4859 28.8148 14.4822C28.4931 14.4726 28.2063 14.5806 27.9226 14.7189C27.7307 14.8124 27.6113 14.9902 27.4353 15.1011C27.3992 15.1239 27.3818 15.2184 27.3953 15.2692C27.4272 15.388 27.4999 15.4966 27.5264 15.616C27.648 16.1652 27.1798 16.6066 26.6312 16.4668C26.382 16.4033 26.1536 16.1436 26.1285 15.8881C26.1204 15.8058 26.1344 15.7208 26.1227 15.6393C26.0992 15.4759 26.1031 15.2925 26.0266 15.1561C25.8938 14.9193 25.8885 14.6331 25.7091 14.4182C25.6264 14.3191 25.6214 14.1877 25.6183 14.0619C25.6116 13.7897 25.5542 13.5297 25.4398 13.2815C25.4054 13.2071 25.3737 13.1271 25.363 13.0468C25.3083 12.6383 25.2635 12.2285 25.1737 11.8253C25.1604 11.7659 25.1537 11.6969 25.1705 11.6401C25.2548 11.3548 25.0947 11.0642 25.1943 10.7809C25.0819 10.4606 25.1832 10.1821 25.316 9.88505C25.4575 9.56854 25.5886 9.23205 25.5072 8.86278C25.49 8.78475 25.4899 8.68751 25.5215 8.61697C25.6284 8.38005 25.5712 8.12503 25.6205 7.88093C25.6687 7.64167 25.5933 7.38056 25.7396 7.15473C25.7599 6.92577 25.8022 6.7029 25.9191 6.50047C25.9272 6.15071 26.1958 5.90474 26.2854 5.5862C26.3064 5.51144 26.374 5.44667 26.4294 5.38565C26.5126 5.29388 26.6218 5.22115 26.6876 5.11954C26.794 4.95489 26.9341 4.84064 27.1055 4.75777C27.226 4.69955 27.2965 4.60248 27.3329 4.4784C27.3738 4.33887 27.4205 4.19997 27.4461 4.05763C27.4642 3.95743 27.4684 3.84834 27.4492 3.74892C27.4005 3.49686 27.3006 3.269 27.0401 3.16599C26.9 3.11058 26.7959 3.01444 26.6866 2.91799C26.6448 2.88116 26.5669 2.85119 26.5167 2.86368C26.2757 2.92345 26.0132 2.85696 25.7859 2.98947C25.4675 2.95872 25.1861 3.13602 24.8734 3.15116C24.7331 3.15787 24.5977 3.24449 24.4562 3.26041C24.2639 3.28211 24.1035 3.37934 23.9269 3.4349C23.7512 3.49015 23.5546 3.48001 23.3804 3.53791C23.1659 3.60923 22.9512 3.70022 22.7628 3.82305C22.6233 3.91404 22.4585 3.96992 22.3388 4.07199C22.099 4.27629 21.7855 4.35292 21.5554 4.57095C21.4707 4.65117 21.338 4.69472 21.2196 4.72297C20.7818 4.82753 20.4429 5.09208 20.1136 5.37675C20.0201 5.4576 19.9298 5.56388 19.8191 5.59837C19.6117 5.6633 19.4762 5.82936 19.2894 5.92066C19.1171 6.00479 18.9966 6.15305 18.9393 6.3405C18.8892 6.50515 18.7903 6.6297 18.6698 6.75066C18.4805 6.94091 18.2963 7.1438 18.2024 7.4007C18.129 7.60125 17.9232 7.70535 17.8684 7.92042C17.8211 8.1063 17.6546 8.22054 17.5369 8.36429C17.2307 8.73808 17.0502 9.17836 16.8935 9.62941C16.8597 9.72664 16.842 9.83261 16.7923 9.92064C16.6482 10.1758 16.5368 10.4368 16.5179 10.7358C16.5118 10.8332 16.4611 10.9364 16.4057 11.0202C16.2757 11.2171 16.227 11.4272 16.2137 11.6621C16.1914 12.0538 16.1183 12.442 16.1953 12.8368C16.214 12.9333 16.204 13.0558 16.1586 13.1404C16.0202 13.3984 16.0191 13.704 15.8579 13.9521C15.7865 14.062 15.7731 14.1858 15.8302 14.3091C15.8845 14.4264 15.8881 14.5488 15.8811 14.6748C15.8753 14.7778 15.8685 14.8826 15.8817 14.9842C15.9164 15.25 15.7996 15.538 15.9504 15.7807C16.0846 15.9967 16.0921 16.2553 16.2366 16.4666C16.3563 16.6416 16.3902 16.8488 16.3287 17.0642C16.2875 17.2083 16.3069 17.3545 16.3571 17.493C16.5052 17.9009 16.518 18.3531 16.762 18.7294C16.8133 18.9937 16.8884 19.25 16.9814 19.5038C17.0209 19.6115 17.0178 19.7627 16.9733 19.8685C16.7445 20.4124 16.9422 20.8892 17.2021 21.3453C17.3073 21.5299 17.3931 21.7018 17.4192 21.9159C17.4439 22.1189 17.5091 22.3187 17.5734 22.5144C17.6048 22.6098 17.6533 22.7296 17.731 22.7741C17.9522 22.901 18.0617 23.1475 18.2941 23.2606C18.3815 23.3032 18.4557 23.3936 18.51 23.4788C18.5897 23.6041 18.6937 23.7012 18.8 23.8006C19.0403 24.0252 19.0903 24.3047 18.9673 24.5974C18.9008 24.7556 18.8488 24.9017 18.8744 25.0746C18.8966 25.2235 18.8538 25.3648 18.7772 25.4923C18.6153 25.7618 18.5897 26.0821 18.4491 26.3597C18.422 26.4134 18.4176 26.4804 18.4099 26.542C18.3844 26.7466 18.3731 26.9537 18.3349 27.1559C18.3004 27.3385 18.2163 27.5131 18.1927 27.6962C18.1587 27.9618 18.1435 28.2323 18.1506 28.5C18.1562 28.7105 18.1253 28.9056 18.0795 29.111C18.0173 29.3907 17.9463 29.6736 17.9205 29.9589C17.901 30.1755 17.8428 30.3624 17.7206 30.5367C17.6705 30.6083 17.6592 30.6929 17.7015 30.7714C17.773 30.9044 17.8003 31.0464 17.7878 31.193C17.7736 31.3612 17.7863 31.522 17.8378 31.6843C17.8617 31.7597 17.8701 31.8566 17.8439 31.9285C17.7218 32.2616 17.7978 32.584 17.8765 32.9068C17.9302 33.1273 17.9949 33.3452 18.1237 33.5376C18.2056 33.66 18.274 33.7892 18.2643 33.9425C18.2511 34.1544 18.3552 34.2895 18.5278 34.3987C18.6717 34.4898 18.7586 34.6316 18.8103 34.7972C18.9501 35.2456 19.2134 35.6073 19.592 35.8853C19.6952 35.961 19.7632 36.0645 19.8201 36.1771C19.9332 36.4017 20.0857 36.5973 20.2649 36.773C20.309 36.8163 20.3509 36.8634 20.3857 36.9143C20.5179 37.1069 20.5104 37.3533 20.3702 37.5581C20.2376 37.7518 19.9927 37.8562 19.7721 37.8011C19.6938 37.7816 19.61 37.7483 19.5501 37.6967C19.2985 37.4793 19.0322 37.2876 18.7343 37.1368C18.583 37.0604 18.4811 36.9243 18.4148 36.7659C18.3751 36.6713 18.3372 36.5758 18.2945 36.4827C18.2707 36.4311 18.1694 36.3935 18.137 36.4242C17.9233 36.6262 17.6466 36.7231 17.4042 36.8748C17.0721 37.0825 16.8013 37.3752 16.5397 37.6679C16.416 37.8064 16.3073 37.9598 16.204 38.1145C16.1355 38.217 16.0531 38.3292 16.0386 38.4449C16.0046 38.7158 15.8366 38.9445 15.8251 39.2216C15.8181 39.3902 15.7291 39.5335 15.6139 39.6627C15.3829 39.9219 15.2979 40.2317 15.2907 40.5784C15.2852 40.8457 15.244 41.114 15.1972 41.3781C15.1682 41.5423 15.1396 41.7026 15.1402 41.8707C15.1405 41.9707 15.1034 42.0726 15.073 42.1706C15.036 42.2891 14.9937 42.4066 14.9441 42.5204C14.7732 42.9112 14.7329 43.329 14.7577 43.7417C14.7742 44.0143 14.7043 44.279 14.7394 44.5478C14.6442 44.8278 14.6858 45.1238 14.6381 45.4094C14.576 45.4636 14.5144 45.5185 14.4515 45.5719C14.2722 45.7239 14.0644 45.7272 13.8647 45.6451C13.6593 45.5607 13.5227 45.389 13.5236 45.1627C13.5261 44.5832 13.4526 43.9993 13.553 43.4254C13.6209 43.0373 13.6853 42.6492 13.7086 42.2576C13.7415 41.6988 13.923 41.161 13.9244 40.5985C13.9246 40.5195 13.9525 40.429 13.9972 40.3639C14.1167 40.1896 14.1554 39.9814 14.252 39.8002C14.3547 39.6078 14.395 39.42 14.3505 39.2021C14.312 39.0131 14.3703 38.8315 14.4824 38.6721C14.5545 38.5696 14.6115 38.4636 14.6416 38.338C14.665 38.2406 14.7101 38.1355 14.7777 38.0644C14.9086 37.9262 14.9834 37.7546 15.092 37.6057C15.2734 37.3569 15.3853 37.0535 15.652 36.8698C15.792 36.6035 16.06 36.461 16.2621 36.2553C16.4375 36.0766 16.6173 35.9064 16.7415 35.6894C16.8385 35.5201 16.9632 35.3879 17.1439 35.317C17.3366 35.2415 17.3557 35.1052 17.2989 34.9059C17.2652 34.7873 17.2049 34.676 17.1565 34.5616C17.044 34.2957 16.9268 34.0315 16.821 33.7629C16.776 33.6489 16.7239 33.5242 16.7294 33.407C16.7404 33.1732 16.6445 32.96 16.636 32.7303C16.6292 32.5422 16.5165 32.3818 16.4222 32.2187C16.3159 32.0348 16.2697 31.8352 16.3295 31.6187C16.3507 31.5416 16.3638 31.4485 16.3407 31.3753C16.2725 31.1596 16.3229 30.9636 16.41 30.7711C16.482 30.6121 16.4948 30.4557 16.4408 30.2881C16.3681 30.0624 16.3712 29.8381 16.4842 29.6221C16.5032 29.5857 16.5276 29.5416 16.5226 29.5049C16.4837 29.2249 16.6741 28.9885 16.6665 28.713C16.6638 28.6134 16.6857 28.4979 16.7372 28.415C16.8614 28.2153 16.8822 27.9854 16.9591 27.773C17.0187 27.6085 17.0234 27.4447 16.9657 27.2852C16.8915 27.0806 16.8758 26.8816 16.9618 26.6786C16.9697 26.6599 16.9763 26.6379 16.9744 26.6182C16.9479 26.3223 17.0562 26.0493 17.108 25.766C17.1462 25.5567 17.1991 25.373 17.3226 25.1942C17.4381 25.0269 17.5043 24.8244 17.5843 24.6344C17.5965 24.6053 17.5796 24.5449 17.555 24.5228C17.4019 24.3851 17.2638 24.2339 17.0662 24.1452C16.8224 24.0358 16.6783 23.8225 16.6604 23.5575C16.6454 23.3349 16.5532 23.1481 16.4202 22.9954C16.2106 22.7546 16.1449 22.4381 15.9518 22.1912C15.9056 22.1322 15.8897 22.0322 15.8948 21.9533C15.9195 21.5732 15.858 21.2098 15.7177 20.8568C15.6955 20.8011 15.7018 20.7343 15.6951 20.6725C15.6838 20.5704 15.6849 20.4649 15.6592 20.3667C15.6119 20.1872 15.5328 20.0149 15.4967 19.8337C15.4608 19.6533 15.4642 19.4652 15.4452 19.2812C15.4366 19.1993 15.3971 19.1174 15.4024 19.0374C15.4262 18.6793 15.33 18.3406 15.2662 17.9943C15.2198 17.7431 15.1605 17.5111 15.0007 17.308C14.9506 17.2445 14.8944 17.1633 14.8919 17.0887C14.8799 16.7171 14.6779 16.372 14.7527 15.9873C14.7892 15.7996 14.7179 15.6193 14.6516 15.4425C14.6155 15.3462 14.5676 15.2374 14.5818 15.1427C14.6135 14.9304 14.5326 14.7317 14.5409 14.5254C14.5426 14.4843 14.5454 14.4402 14.5612 14.4032C14.6622 14.1656 14.6608 13.9162 14.6417 13.6676C14.6271 13.4777 14.6502 13.3007 14.7076 13.1172C14.7811 12.8824 14.7692 12.6269 14.8844 12.3969C14.9275 12.3109 14.9334 12.1863 14.9103 12.0905C14.829 11.7523 14.9554 11.4322 14.977 11.1038C14.9835 11.0033 15.0179 10.8994 15.0616 10.8076C15.3013 10.3035 15.5468 9.80234 15.7541 9.28355C15.8 9.16853 15.8383 9.04976 15.8938 8.93941C16.0234 8.68065 16.0743 8.39191 16.2281 8.13939C16.322 7.98519 16.364 7.79259 16.3993 7.61139C16.4409 7.39742 16.5352 7.22605 16.6894 7.07482C16.8954 6.87255 17.0215 6.60145 17.2453 6.41276C17.3326 6.22563 17.4649 6.06409 17.5245 5.85839C17.5569 5.74695 17.6429 5.62928 17.7382 5.5617C18.1825 5.24721 18.5322 4.83893 18.888 4.43673C19.0018 4.30828 19.1319 4.2137 19.2893 4.15174C19.9246 3.9014 20.0815 3.81197 20.5664 3.41758C20.6636 3.33845 20.7591 3.25448 20.8879 3.23716C21.0792 3.21141 21.2344 3.1059 21.4034 3.0274C21.5707 2.94983 21.7666 2.95232 21.9319 2.84979C22.0166 2.79719 22.1243 2.7783 22.224 2.75443C22.5537 2.67561 22.8488 2.53155 23.0849 2.28668C23.2508 2.11469 23.4363 2.01355 23.6802 1.98671C23.8399 1.96907 23.9908 1.87948 24.1478 1.82907C24.3641 1.75962 24.5787 1.66879 24.8011 1.63866C25.0257 1.60823 25.2512 1.58263 25.4758 1.55329C25.7176 1.52177 25.9679 1.51693 26.2145 1.50117C26.295 1.49601 26.3849 1.50772 26.4575 1.54065C26.5761 1.5945 26.6972 1.59325 26.821 1.60573C27.0899 1.63258 27.3334 1.75619 27.5884 1.83594C27.6635 1.85935 27.7351 1.91757 27.7902 1.97656C27.891 2.08441 28.0021 2.17368 28.1332 2.24079C28.2681 2.30978 28.3588 2.42137 28.421 2.55762C28.4384 2.59539 28.4599 2.63238 28.4694 2.67218C28.5231 2.89614 28.7486 3.03738 28.7574 3.28382C28.7649 3.49062 28.7694 3.69804 28.7791 3.90452C28.7914 4.17016 28.7374 4.43985 28.6993 4.70595C28.6881 4.78477 28.6498 4.87076 28.5979 4.93085C28.2617 5.3201 28.0193 5.78863 27.5942 6.10374C27.46 6.20331 27.3894 6.35845 27.3193 6.51233C27.1008 6.99257 27.0308 7.50199 26.9956 8.02062C26.9761 8.30841 26.9513 8.59605 26.9231 8.88323C26.9107 9.00855 26.8648 9.12389 26.7877 9.22705C26.63 9.43822 26.5602 9.69309 26.6133 9.93562C26.7096 10.3768 26.6016 10.8026 26.5783 11.2337C26.556 11.6466 26.5619 12.1498 26.6863 12.5186C26.7551 12.7226 26.7823 12.9185 26.7634 13.1287C26.752 13.2559 26.7907 13.3734 26.8625 13.4817C26.9387 13.5968 27.0818 13.6629 27.1803 13.5893C27.4378 13.397 27.7662 13.3887 28.0387 13.2372C28.1638 13.1676 28.3051 13.1262 28.4402 13.075C28.5362 13.0387 28.6322 12.987 28.7315 12.9776C29.0662 12.9464 29.3818 12.85 29.6787 12.702C29.8566 12.6134 30.042 12.5676 30.2206 12.6229C30.6599 12.759 31.0833 12.677 31.5022 12.5601C31.69 12.5077 31.8621 12.4794 32.0483 12.5459C32.1245 12.5731 32.2089 12.5818 32.2904 12.5882C32.414 12.5981 32.5481 12.5703 32.6604 12.609C32.9557 12.7107 33.2693 12.7126 33.5675 12.8155C33.8716 12.9203 34.0727 13.0834 34.1751 13.3811C34.1884 13.4195 34.2163 13.4529 34.2375 13.4885L34.2377 13.4881Z" fill="#070607"/>
<path d="M38.1555 14.6966C38.0232 14.8547 37.9083 15.0159 37.8265 15.2143C37.6839 15.5605 37.3886 15.6886 37.0104 15.6173C36.7403 15.5664 36.5656 15.3941 36.4946 15.1358C36.4251 14.8828 36.4662 14.6412 36.6535 14.4411C36.7509 14.337 36.8913 14.269 36.9257 14.1121C36.9531 14.0809 36.9892 14.0541 37.006 14.0185C37.0764 13.8698 37.1351 13.7154 37.2096 13.5688C37.2748 13.4404 37.3723 13.3318 37.4081 13.184C37.4318 13.086 37.4727 12.9636 37.5473 12.9116C37.8303 12.7143 37.8292 12.4308 37.8245 12.1391C37.82 11.8508 37.8438 11.5616 37.7678 11.2769C37.7179 11.0896 37.7471 10.9095 37.8342 10.733C38.0814 10.2316 38.7875 10.2038 39.0963 10.5843C39.206 10.7193 39.2697 10.8702 39.2686 11.0414C39.266 11.5177 39.2235 11.9908 39.1235 12.4571C39.1065 12.5366 39.0623 12.6101 39.0328 12.6872C38.9445 12.9186 38.8268 13.139 38.8154 13.397C38.811 13.4966 38.7597 13.5955 38.7222 13.6918C38.6999 13.7493 38.654 13.798 38.6342 13.856C38.5807 14.0119 38.5872 14.1895 38.4791 14.3252C38.3767 14.4536 38.2635 14.5733 38.1551 14.6968L38.1555 14.6966Z" fill="#070607"/>
<path d="M40.5641 16.2119C40.4506 16.2599 40.3298 16.2954 40.2257 16.3586C40.1046 16.4322 39.9626 16.5079 39.8922 16.6213C39.7363 16.8726 39.4942 17.0351 39.306 17.2512C39.1419 17.4396 38.8626 17.4635 38.6213 17.3497C38.3911 17.2412 38.2974 17.0407 38.2818 16.8024C38.2767 16.7246 38.3062 16.638 38.3413 16.5659C38.4039 16.4372 38.4991 16.3229 38.5512 16.1909C38.6313 15.9878 38.7707 15.8559 38.949 15.7378C39.1493 15.605 39.3644 15.4742 39.4494 15.2238C39.654 15.0163 39.939 14.915 40.1372 14.6948C40.2014 14.6234 40.3131 14.5738 40.4103 14.5574C40.8008 14.4914 41.1643 14.3478 41.5283 14.2019C41.6709 14.1448 41.8134 14.1629 41.9548 14.2109C42.239 14.3075 42.4174 14.5766 42.4021 14.8866C42.387 15.1942 42.1776 15.4463 41.8815 15.5032C41.78 15.5227 41.6728 15.5146 41.5728 15.538C41.4529 15.566 41.3276 15.6006 41.2506 15.7088C41.1234 15.8876 40.9418 15.9791 40.7433 16.0504C40.6638 16.079 40.5992 16.1308 40.5641 16.2121V16.2119Z" fill="#070607"/>
<path d="M21.6133 21.4662C21.4672 21.479 21.323 21.477 21.1882 21.407C20.9918 21.3053 20.8576 21.1455 20.8149 20.933C20.7295 20.5084 20.6213 20.0867 20.5853 19.6537C20.5594 19.3419 20.4965 19.0436 20.3546 18.7621C20.2767 18.6077 20.2644 18.4426 20.3317 18.2792C20.4055 18.0997 20.4186 17.9017 20.381 17.7275C20.3173 17.433 20.3766 17.1563 20.398 16.8689C20.4333 16.3937 20.4212 15.9166 20.1804 15.4779C20.1322 15.39 20.1205 15.2815 20.0957 15.1815C20.0659 15.0615 20.0512 14.9364 20.0098 14.8208C19.9452 14.6401 19.9142 14.4657 19.968 14.2736C20.0206 14.0855 19.9702 13.9046 19.8728 13.7364C19.7225 13.4769 19.7473 13.2243 19.8951 12.9696C19.9775 12.8276 20.0356 12.6717 20.111 12.5253C20.1904 12.3709 20.3139 12.2653 20.4831 12.2161C20.6424 12.1697 20.8071 12.1359 20.9589 12.0716C21.2202 11.9611 21.4665 12.0073 21.6547 12.1843C21.8184 12.3383 22.0004 12.39 22.2017 12.4383C22.5136 12.5131 22.7011 12.7183 22.7681 13.0314C22.7854 13.1123 22.7843 13.198 22.8081 13.2765C22.8438 13.3952 22.8863 13.5152 22.9885 13.5969C23.1981 13.7645 23.2959 13.9824 23.2903 14.2489C23.4263 14.6824 23.518 15.1295 23.718 15.5432C23.7809 15.6736 23.8286 15.8054 23.9274 15.918C24.054 16.0622 24.1183 16.2396 24.1116 16.434C24.1042 16.6468 24.1369 16.863 24.2408 17.0361C24.3849 17.276 24.3956 17.5491 24.4958 17.7979C24.5392 17.9056 24.5394 18.0479 24.5114 18.1629C24.463 18.3624 24.4059 18.5593 24.3608 18.7605C24.3085 18.9937 24.1518 19.1644 23.9193 19.2462C23.8224 19.2802 23.7205 19.303 23.619 19.32C23.5069 19.3389 23.433 19.3912 23.3915 19.5001C23.322 19.6826 23.1993 19.8335 23.0174 19.8964C22.7523 19.9879 22.7086 20.2126 22.6545 20.431C22.6301 20.5287 22.6487 20.6371 22.6489 20.7406C22.6495 21.1064 22.3583 21.4 21.9865 21.4456C21.8632 21.4607 21.7379 21.4595 21.6135 21.4657L21.6133 21.4662Z" fill="#FF8CBD"/>
<path d="M35.0586 25.4122C35.0443 25.6009 35.0207 25.7464 34.9322 25.8667C34.6521 26.2477 34.5367 26.6772 34.5272 27.1446C34.5227 27.3647 34.4145 27.541 34.2386 27.6728C34.1892 27.7099 34.1283 27.7325 34.0812 27.7722C33.9234 27.9047 33.7837 28.0651 33.61 28.17C33.4537 28.2643 33.2569 28.2885 33.0874 28.3646C32.976 28.4147 32.8878 28.5143 32.7784 28.5713C32.382 28.7774 31.9622 28.5558 31.8309 28.2494C31.7624 28.0896 31.7248 27.9275 31.7966 27.768C31.9088 27.5189 31.9823 27.2646 32.0084 26.9915C32.0176 26.8949 32.0839 26.8009 32.1348 26.7118C32.2589 26.4941 32.3477 26.2698 32.3815 26.0162C32.4113 25.7933 32.5161 25.5829 32.5067 25.349C32.5044 25.2914 32.5328 25.2252 32.5657 25.1751C32.6912 24.9844 32.7937 24.7845 32.8875 24.5753C32.9963 24.333 33.2095 24.1916 33.4839 24.1973C33.7128 24.202 33.9343 24.1839 34.1615 24.1477C34.5105 24.092 34.8771 24.3661 34.9478 24.7183C34.9964 24.9605 34.9814 25.2141 35.0588 25.4122H35.0586Z" fill="#070607"/>
<path d="M38.8403 29.8404C38.6022 29.8385 38.3512 29.7096 38.1446 29.4326C37.9058 29.112 37.7411 28.8046 37.9598 28.4133C37.9489 28.1347 38.0932 27.8997 38.1656 27.6443C38.2327 27.4082 38.3652 27.1927 38.3702 26.9326C38.3735 26.765 38.4923 26.6285 38.6295 26.5248C38.7773 26.4131 38.9255 26.3016 39.0766 26.1941C39.3558 25.9953 39.7601 26.0594 39.9631 26.3363C40.0117 26.4025 40.0661 26.4757 40.0806 26.5528C40.1094 26.7052 40.1933 26.8106 40.2988 26.9155C40.512 27.1276 40.5496 27.3899 40.449 27.6621C40.3413 27.9532 40.2317 28.2386 40.222 28.5561C40.2191 28.6516 40.144 28.7437 40.1084 28.8397C39.9642 29.2288 39.6702 29.4846 39.3409 29.7098C39.1996 29.8064 39.0946 29.8401 38.8402 29.8406L38.8403 29.8404Z" fill="#070607"/>
<path d="M43.1389 29.2842C43.1389 29.0563 43.2508 28.7695 43.4348 28.5124C43.5342 28.3734 43.5916 28.2302 43.6249 28.0615C43.673 27.8182 43.7624 27.5849 43.9534 27.4056C44.0809 27.2857 44.1329 27.1251 44.1412 26.9559C44.1585 26.6027 44.237 26.2675 44.3528 25.9322C44.4394 25.6814 44.4546 25.406 44.5023 25.1416C44.5206 25.0407 44.5242 24.9331 44.5635 24.841C44.6639 24.6053 44.7126 24.3756 44.6419 24.1168C44.5982 23.9567 44.6381 23.7839 44.7325 23.6394C44.7628 23.593 44.8218 23.5596 44.875 23.5376C44.8906 23.5312 44.9336 23.5819 44.9595 23.6107C45.1051 23.7723 45.1071 23.9952 45.1987 24.1781C45.3164 24.413 45.3587 24.6435 45.2696 24.897C45.2271 25.0173 45.2438 25.1439 45.2949 25.2622C45.4001 25.5054 45.396 25.7456 45.2839 25.9856C45.2098 26.1445 45.2056 26.3145 45.2683 26.471C45.3407 26.6516 45.2919 26.79 45.1808 26.9283C45.0604 27.0781 44.9989 27.2492 44.9894 27.4439C44.9769 27.6971 44.873 27.9245 44.7514 28.1411C44.6575 28.3084 44.6145 28.4784 44.6067 28.6725C44.591 29.0669 44.5438 29.4571 44.2726 29.7811C44.1646 29.91 44.1111 30.0713 44.1164 30.2445C44.1212 30.4009 44.056 30.5367 43.9531 30.6375C43.7455 30.8407 43.6438 31.0729 43.6733 31.3634C43.6843 31.4731 43.6335 31.5657 43.5665 31.6474C43.4751 31.759 43.3798 31.8675 43.2857 31.9769C43.2472 32.0217 43.149 32.0106 43.1294 31.9586C43.093 31.8624 43.0485 31.7675 43.0263 31.6679C42.9942 31.5229 42.9421 31.3927 42.8478 31.2758C42.7972 31.2132 42.7604 31.1365 42.73 31.0611C42.5652 30.6545 42.5934 30.4905 42.8779 30.1643C42.9051 30.1331 42.9375 30.1064 42.9659 30.0761C43.1006 29.9325 43.1545 29.7562 43.1654 29.5653C43.169 29.5041 43.1548 29.4418 43.1393 29.2845L43.1389 29.2842Z" fill="#FCFCFC"/>
</svg>
