<svg width="60" height="48" viewBox="0 0 60 48" fill="none" xmlns="http://www.w3.org/2000/svg">
<g clip-path="url(#clip0_4799_67132)">
<path d="M40.6598 46.156C40.5966 46.25 40.5076 46.2942 40.3957 46.2853C40.3342 46.2803 40.2696 46.2761 40.2128 46.2544C39.9688 46.1617 39.7289 46.1634 39.4836 46.2525C39.2826 46.3254 39.072 46.3269 38.8726 46.255C38.7 46.1927 38.549 46.2189 38.3956 46.3006C38.3408 46.3297 38.2823 46.3524 38.2238 46.3734C38.1027 46.417 37.9791 46.4182 37.8583 46.3747C37.7609 46.3394 37.666 46.2968 37.5708 46.2555C37.4712 46.2122 37.3746 46.2178 37.2689 46.243C37.1292 46.2762 36.9843 46.3024 36.8413 46.3037C36.4887 46.3068 36.136 46.2884 35.7833 46.2901C35.6114 46.2909 35.4591 46.2308 35.3012 46.1816C35.1829 46.1448 35.051 46.0728 34.943 46.097C34.7159 46.1478 34.4901 46.0446 34.27 46.1209C34.1057 46.1779 33.9438 46.1729 33.7842 46.1058C33.6061 46.0309 33.4171 46.0346 33.2317 46.041C32.5885 46.0629 31.9456 46.0576 31.3026 46.0394C31.0752 46.033 30.8469 46.0281 30.6279 46.1198C30.5076 46.1702 30.383 46.1409 30.266 46.088C30.1903 46.0538 30.1146 46.0201 30.0389 45.9861C29.9412 45.9421 29.8354 45.918 29.7372 45.9597C29.4531 46.0803 29.1741 46.0669 28.8877 45.9686C28.7917 45.9357 28.6839 45.9358 28.581 45.9244C28.3755 45.9016 28.1713 45.887 27.9666 45.8397C27.7474 45.789 27.514 45.7894 27.2867 45.788C26.8511 45.7854 26.4155 45.7974 25.9799 45.8033C25.9384 45.8039 25.8958 45.7991 25.8557 45.8069C25.6937 45.8389 25.5329 45.877 25.3709 45.9088C25.2058 45.9413 25.048 45.8316 24.8791 45.8838C24.7365 45.928 24.5924 45.9177 24.4509 45.8684C24.4123 45.855 24.3627 45.8323 24.3312 45.8454C24.039 45.9661 23.761 45.8052 23.4753 45.808C23.185 45.8108 22.8919 45.8228 22.6045 45.7904C22.1693 45.7412 21.7379 45.7746 21.3048 45.795C21.284 45.796 21.2629 45.7994 21.2427 45.7972C21.0301 45.7746 20.8361 45.8888 20.6318 45.889C20.4489 45.889 20.2664 45.8284 20.0826 45.8035C20.0013 45.7924 19.916 45.7957 19.8341 45.8056C19.5923 45.8348 19.3651 45.9424 19.1043 45.8364C18.898 45.7526 18.6575 45.8011 18.4324 45.7367C18.0694 45.6327 17.6931 45.6505 17.3252 45.7382C17.2002 45.768 17.0835 45.7766 16.9594 45.7398C16.6941 45.6613 16.4288 45.6621 16.1641 45.7516C15.9591 45.8209 15.7544 45.8164 15.5601 45.715C15.3537 45.6071 15.1371 45.5499 14.9039 45.5438C14.7925 45.541 14.7157 45.4678 14.6562 45.3777C14.6645 45.337 14.6804 45.2961 14.68 45.2555C14.6725 44.7189 14.7964 44.1914 14.7588 43.6494C14.7277 43.2025 14.8487 42.7658 15.0444 42.2648C15.1135 42.0879 15.1711 41.9166 15.1569 41.7228C15.151 41.643 15.1967 41.5603 15.1949 41.4795C15.1866 41.1052 15.3572 40.7552 15.3239 40.3736C15.3039 40.1443 15.4121 39.9284 15.5546 39.7418C15.605 39.6759 15.6709 39.6199 15.7115 39.549C15.7622 39.4605 15.828 39.3611 15.8277 39.2667C15.8268 38.9856 15.9944 38.756 16.0373 38.4893C16.0531 38.3914 16.1119 38.2947 16.17 38.2104C16.393 37.8876 16.6089 37.5585 16.9077 37.2964C17.1715 37.0651 17.4158 36.8115 17.768 36.7004C17.8782 36.6656 17.965 36.5548 18.0607 36.4766C18.1729 36.3847 18.2848 36.4134 18.3483 36.5556C18.3822 36.6314 18.4114 36.7094 18.4402 36.7873C18.493 36.9295 18.5833 37.0489 18.7148 37.1151C19.032 37.2747 19.3006 37.4993 19.5808 37.7116C19.9226 37.9705 20.4309 37.7316 20.4734 37.3064C20.493 37.1098 20.4479 36.9359 20.2997 36.7959C20.1022 36.6094 19.9388 36.3978 19.8201 36.152C19.7553 36.0179 19.6471 35.9233 19.531 35.8319C19.2161 35.5834 18.9726 35.272 18.8524 34.8901C18.7794 34.6579 18.6701 34.4718 18.4672 34.3476C18.3464 34.2736 18.2987 34.1681 18.2891 34.0398C18.2751 33.8497 18.217 33.6809 18.1212 33.5129C17.8681 33.0692 17.7546 32.5891 17.8269 32.0774C17.8504 31.9107 17.8679 31.7467 17.8242 31.5828C17.7601 31.3417 17.8798 31.0818 17.7441 30.848C17.5798 30.5644 17.8876 30.3982 17.9186 30.1627C17.9213 30.1421 17.931 30.1218 17.9305 30.1017C17.9263 29.8914 17.9837 29.6952 18.0391 29.4939C18.0931 29.2976 18.0642 29.0819 18.1585 28.8884C18.1843 28.8354 18.1974 28.7608 18.1818 28.7061C18.1108 28.456 18.2119 28.2122 18.1957 27.9647C18.1807 27.7347 18.2181 27.5121 18.2996 27.2931C18.3419 27.1795 18.3424 27.0501 18.3608 26.9278C18.3761 26.8265 18.3856 26.7243 18.4057 26.6239C18.4833 26.2379 18.6142 25.8691 18.7822 25.5141C18.846 25.3791 18.8985 25.2372 18.8721 25.0942C18.8395 24.9172 18.8794 24.7729 18.9645 24.621C19.1304 24.3248 19.042 24.0542 18.8299 23.8232C18.7185 23.7018 18.5866 23.6022 18.5042 23.4524C18.4658 23.3826 18.4006 23.3114 18.3299 23.2786C18.0958 23.17 17.9854 22.9228 17.7636 22.7981C17.6586 22.7389 17.5862 22.616 17.5809 22.4846C17.5709 22.2322 17.4158 22.0168 17.4117 21.7607C17.4101 21.6644 17.3588 21.5533 17.2962 21.4763C17.0652 21.1923 16.9831 20.855 16.9034 20.5105C16.874 20.3837 16.8576 20.2627 16.8998 20.1457C17.0168 19.8202 17.0641 19.5031 16.8681 19.1877C16.8377 19.1388 16.8363 19.0678 16.8335 19.0066C16.828 18.8794 16.806 18.7572 16.7308 18.6527C16.6303 18.5131 16.6 18.3521 16.5613 18.1894C16.4995 17.9294 16.3974 17.6778 16.3503 17.4158C16.318 17.2357 16.3568 17.0439 16.3506 16.8578C16.3471 16.7558 16.3485 16.6293 16.2922 16.5577C16.118 16.3367 16.1174 16.0508 15.9808 15.8173C15.8852 15.6537 15.8642 15.4707 15.8853 15.2756C15.9028 15.1142 15.8444 14.9428 15.8713 14.7846C15.904 14.5904 15.86 14.4151 15.8291 14.2318C15.816 14.1537 15.8145 14.051 15.8546 13.9909C16.0092 13.7598 16.0007 13.4708 16.1416 13.2366C16.2199 13.1066 16.2277 12.9577 16.2062 12.8128C16.1446 12.3979 16.2173 11.9857 16.2223 11.5723C16.2232 11.4919 16.2451 11.4061 16.2792 11.333C16.4278 11.0145 16.572 10.6956 16.6224 10.3431C16.6281 10.3034 16.6513 10.2653 16.67 10.2284C16.8391 9.89514 16.9535 9.54007 17.0843 9.19172C17.1943 8.8983 17.3256 8.60426 17.5416 8.38545C17.8102 8.11326 17.9211 7.74399 18.1783 7.47227C18.3094 7.16184 18.5172 6.90885 18.7541 6.67271C18.8388 6.58828 18.9095 6.47185 18.9421 6.35745C18.9916 6.18358 19.0992 6.06309 19.2334 5.96571C19.4001 5.84475 19.5732 5.72692 19.7581 5.63827C19.9123 5.56429 20.0295 5.45707 20.1569 5.35031C20.4721 5.08608 20.7919 4.8217 21.2121 4.7293C21.3119 4.70729 21.4324 4.68404 21.4977 4.61693C21.7063 4.40217 21.996 4.32742 22.2318 4.15855C22.5146 3.95596 22.8246 3.78694 23.1411 3.63617C23.2344 3.59169 23.3315 3.53675 23.4309 3.52676C23.7226 3.49742 24.0042 3.44295 24.2639 3.30093C24.515 3.29328 24.7318 3.12738 24.9882 3.14392C25.2823 3.04216 25.5983 3.04122 25.8938 2.95398C26.1358 2.8825 26.384 2.90638 26.6264 2.86377C26.7406 2.95242 26.8522 3.04466 26.97 3.12816C27.0371 3.1756 27.1196 3.20167 27.1864 3.24942C27.3082 3.33651 27.3888 3.45513 27.4236 3.6034C27.4823 3.8528 27.4598 4.09299 27.3825 4.3385C27.3175 4.54545 27.2402 4.7229 27.0244 4.81296C26.9501 4.84386 26.8678 4.89427 26.8268 4.95935C26.6307 5.2715 26.2566 5.45753 26.1889 5.85926C26.0875 6.01565 25.9866 6.16844 25.9506 6.36057C25.9128 6.56159 25.843 6.75652 25.7889 6.95474C25.7672 7.03402 25.7592 7.1183 25.729 7.19384C25.6661 7.35163 25.6417 7.51082 25.6503 7.6811C25.6553 7.78161 25.6138 7.88352 25.6114 7.98528C25.6043 8.29587 25.4955 8.59989 25.5328 8.90985C25.5587 9.12461 25.5325 9.32282 25.4599 9.5201C25.3954 9.69521 25.3395 9.87485 25.2582 10.042C25.1822 10.1981 25.1505 10.3562 25.1671 10.5241C25.2038 10.8957 25.1938 11.2675 25.1869 11.6397C25.185 11.7424 25.1893 11.8492 25.215 11.9476C25.2938 12.25 25.2851 12.5635 25.3452 12.8677C25.3651 12.9688 25.3625 13.0807 25.4064 13.1697C25.5467 13.4539 25.611 13.7526 25.6266 14.066C25.6339 14.2127 25.6556 14.3644 25.7528 14.4768C25.9109 14.6594 25.9047 14.9029 26.0132 15.1064C26.1285 15.3229 26.1616 15.5766 26.1344 15.8299C26.1302 15.8694 26.1475 15.9116 26.156 15.9521C26.2554 16.4279 26.8035 16.6209 27.1892 16.4076C27.5022 16.2343 27.6344 15.9006 27.5319 15.5553C27.5027 15.4568 27.4425 15.3669 27.4187 15.2676C27.4064 15.2161 27.4236 15.1261 27.4604 15.0997C27.6285 14.9795 27.7535 14.8092 27.9447 14.7145C28.2085 14.5839 28.4786 14.4873 28.7749 14.4838C28.9222 14.4821 29.0676 14.4793 29.1952 14.3956C29.4636 14.2197 29.7709 14.1754 30.0782 14.1408C30.2468 14.1217 30.4046 14.0944 30.5441 13.9889C30.7028 13.8689 30.8887 13.8484 31.0785 13.8803C31.2211 13.9043 31.3624 13.9401 31.5021 13.9781C31.6856 14.0281 31.8642 14.0396 32.055 13.9992C32.2147 13.9653 32.3851 13.9864 32.5496 13.971C32.6821 13.9585 32.7943 13.9775 32.8855 14.0838C32.9254 14.1305 32.9751 14.1717 33.0272 14.2044C33.4631 14.478 33.9499 14.3207 34.1573 13.8374C34.1896 13.762 34.1995 13.6771 34.2197 13.5965C34.3487 13.5291 34.4773 13.464 34.6305 13.4762C34.7337 13.4845 34.8381 13.4928 34.9411 13.4873C35.2815 13.4692 35.5994 13.513 35.8752 13.7433C35.9495 13.8052 36.0631 13.8449 36.1607 13.8491C36.4405 13.8612 36.6798 13.9838 36.9257 14.0922C36.9053 14.1492 36.8979 14.2171 36.8614 14.2606C36.7959 14.3388 36.7027 14.3942 36.6389 14.4735C36.4168 14.7501 36.4101 15.093 36.634 15.3854C36.9023 15.7357 37.5471 15.7388 37.7982 15.3004C37.8389 15.2292 37.8701 15.1518 37.8985 15.0747C37.9503 14.9342 38.0432 14.8269 38.1568 14.7345C38.2347 14.7527 38.3271 14.7504 38.3883 14.793C38.6575 14.9804 38.969 15.0731 39.2639 15.2028C39.3174 15.2264 39.3826 15.2236 39.4424 15.233C39.4296 15.2717 39.428 15.3216 39.4023 15.3471C39.2578 15.4899 39.1357 15.655 38.9498 15.7569C38.845 15.8145 38.7354 15.8952 38.6742 15.994C38.535 16.219 38.4228 16.4608 38.3043 16.6982C38.2875 16.732 38.2939 16.7793 38.2954 16.8202C38.3043 17.0696 38.4237 17.2513 38.6474 17.3563C38.8858 17.4682 39.1669 17.4375 39.3283 17.243C39.5118 17.0219 39.7558 16.8631 39.9155 16.6151C40.0117 16.4655 40.1661 16.3406 40.3712 16.3325C40.4608 16.3425 40.5227 16.3014 40.5667 16.2271L40.6026 16.2001C40.6384 16.2971 40.6872 16.3829 40.767 16.4539C40.9499 16.6169 41.1303 16.7831 41.3057 16.9541C41.378 17.0247 41.4623 17.1016 41.4937 17.1921C41.5979 17.4935 41.8481 17.6231 42.1026 17.7537C41.9981 17.8525 41.8793 17.9404 41.7917 18.0527C41.6407 18.2466 41.6424 18.4872 41.7908 18.6903C41.8497 18.771 41.9319 18.8537 42.0216 18.8888C42.2639 18.9837 42.4569 19.122 42.5785 19.3573C42.6057 19.4098 42.6676 19.4432 42.709 19.4895C42.8214 19.6155 42.9036 19.755 42.9283 19.9276C42.9522 20.0954 43.0241 20.2454 43.1399 20.371C43.3022 20.5471 43.3651 20.7635 43.3912 20.993C43.4052 21.1167 43.4177 21.2355 43.4705 21.3538C43.5994 21.6435 43.5938 21.9553 43.598 22.2661C43.6009 22.4839 43.5178 22.6659 43.4268 22.8543C43.3547 23.0038 43.3136 23.1694 43.3642 23.3387C43.4339 23.5727 43.3977 23.7931 43.2771 23.9988C43.1778 24.1678 43.1504 24.3463 43.1635 24.5382C43.1691 24.6196 43.155 24.7028 43.1463 24.7849C43.1068 25.1564 42.9414 25.5017 42.923 25.8787C42.9191 25.9586 42.8629 26.0346 42.8485 26.1156C42.7912 26.4394 42.5777 26.7272 42.6269 27.0753C42.5551 27.2466 42.5 27.428 42.4065 27.5866C42.3188 27.7351 42.2781 27.8839 42.2578 28.0531C42.2133 28.4236 42.1459 28.788 41.8512 29.0646C41.7452 29.1641 41.6752 29.3007 41.6678 29.4518C41.6524 29.7708 41.5194 30.0495 41.3869 30.3301C41.3518 30.4046 41.307 30.4811 41.2979 30.5602C41.2722 30.7867 41.2547 31.0147 41.2489 31.2424C41.2446 31.4124 41.2859 31.5825 41.4183 31.6972C41.5954 31.8506 41.6892 32.061 41.8287 32.2392C42.0675 32.5443 42.2046 32.8797 42.1618 33.2745C42.1435 33.4432 42.1879 33.5978 42.2366 33.7603C42.301 33.9752 42.3219 34.2048 42.3469 34.4297C42.3673 34.6134 42.3986 34.8052 42.3664 34.9828C42.3272 35.1994 42.4065 35.3944 42.4103 35.5993C42.414 35.8064 42.4004 36.0085 42.4785 36.2124C42.552 36.4043 42.4922 36.6217 42.5603 36.8257C42.6316 37.0395 42.5813 37.2808 42.6892 37.4932C42.8136 37.7383 42.5896 37.9234 42.5673 38.1439C42.561 38.2056 42.5652 38.2683 42.5649 38.3306C42.564 38.5439 42.5126 38.7445 42.3894 38.9185C42.2773 39.0768 42.2255 39.2503 42.203 39.4395C42.1518 39.8715 41.9492 40.2659 41.884 40.6952C41.8749 40.755 41.8408 40.8107 41.8222 40.8696C41.7145 41.2109 41.5581 41.5216 41.2812 41.7612C41.2355 41.8008 41.2009 41.8572 41.1717 41.9113C41.0676 42.1042 40.9 42.2258 40.7064 42.3059C40.5062 42.3888 40.3397 42.5025 40.2452 42.7004C40.1694 42.8595 40.0311 42.9614 39.8959 43.0483C39.6533 43.2044 39.4293 43.3872 39.1754 43.5298C39.0088 43.6235 38.8286 43.6661 38.6608 43.7463C38.5898 43.7803 38.4933 43.7973 38.4182 43.7798C38.0975 43.7046 37.7606 43.6985 37.455 43.5593C37.2624 43.4716 37.1012 43.3484 36.9907 43.1616C36.9242 43.0493 36.8805 42.9314 36.9118 42.8061C36.9729 42.5618 37.0149 42.3213 36.9429 42.0708C36.9273 42.0165 36.9663 41.9488 36.9652 41.8875C36.9566 41.386 37.1282 40.9148 37.2087 40.4285C37.2137 40.3981 37.2593 40.3606 37.2927 40.3514C37.351 40.3353 37.4158 40.3289 37.476 40.3356C37.7378 40.3651 37.9471 40.2799 38.1668 40.127C38.5551 39.8568 38.9124 39.5358 39.3539 39.3449C39.4096 39.3208 39.4599 39.2792 39.5058 39.238C39.7664 39.0031 40.0189 38.7595 40.266 38.5105C40.3233 38.4528 40.3648 38.3788 40.4088 38.3092C40.4636 38.2226 40.5004 38.1207 40.568 38.0465C40.7492 37.8474 40.8157 37.6232 40.7759 37.3581C40.7607 37.2571 40.772 37.1516 40.7767 37.0484C40.7837 36.896 40.7339 36.7638 40.6491 36.6401C40.5441 36.487 40.448 36.3277 40.3378 36.1785C40.2502 36.06 40.1383 35.9505 39.9849 35.9434C39.6734 35.9289 39.3854 35.773 39.0666 35.8056C38.9618 35.8164 38.8565 35.7789 38.7785 35.7062C38.6063 35.5458 38.4087 35.4421 38.177 35.4034C37.9046 35.1891 37.5602 35.1737 37.2463 35.0847C36.9118 34.99 36.5585 34.973 36.2254 34.8497C36.006 34.7684 35.772 34.7915 35.5718 34.9397C35.4374 35.0393 35.2938 35.1199 35.1404 35.1856C35.0844 35.2096 35.024 35.2431 34.9876 35.2895C34.822 35.5004 34.6633 35.7165 34.5046 35.9328C34.4807 35.9655 34.4556 36.0087 34.4568 36.0461C34.4651 36.3004 34.2878 36.5297 34.3253 36.7734C34.3688 37.0567 34.4603 37.3378 34.5681 37.6048C34.6919 37.9109 34.84 38.2057 34.8971 38.5358C34.9108 38.6148 34.9533 38.6909 34.9922 38.7632C35.0994 38.9627 35.1851 39.1821 35.329 39.3513C35.4945 39.5459 35.5426 39.8001 35.7124 39.9881C35.7989 40.0837 35.7742 40.173 35.6753 40.2515C35.5782 40.3286 35.4437 40.384 35.3892 40.4837C35.2659 40.709 35.0471 40.846 34.9126 41.0542C34.6934 41.393 34.3832 41.6427 34.0624 41.8633C33.5769 42.1973 33.0322 42.279 32.4627 42.0743C32.2472 41.9098 32.0035 41.9001 31.7491 41.9421C31.6881 41.9521 31.6249 41.95 31.5628 41.9505C31.2686 41.9527 30.985 41.9294 30.7354 41.7378C30.6036 41.6365 30.4387 41.5959 30.2663 41.5931C30.1433 41.5911 30.0191 41.5791 29.8984 41.5553C29.7537 41.5269 29.6106 41.5066 29.4661 41.5422C29.1182 41.6281 28.8042 41.4981 28.5153 41.3474C28.3059 41.2382 28.1122 41.1411 27.8729 41.1636C27.6984 41.18 27.5488 41.121 27.4086 41.0184C27.3257 40.9579 27.231 40.9125 27.1383 40.8669C26.877 40.7383 26.6245 40.6008 26.4391 40.3645C26.3614 40.2654 26.2499 40.2092 26.1321 40.1596C25.8373 40.0352 25.6153 39.8151 25.4245 39.5663C25.3375 39.453 25.2887 39.3107 25.2038 39.1954C25.1064 39.0629 24.9687 38.9634 24.8985 38.8057C24.857 38.7122 24.7625 38.6371 24.7387 38.542C24.6901 38.3493 24.5632 38.2162 24.447 38.0704C24.381 37.9875 24.3554 37.8925 24.3763 37.7798C24.3948 37.6797 24.4131 37.5655 24.3831 37.4733C24.3039 37.2289 24.359 36.9768 24.3163 36.7311C24.3034 36.6564 24.3215 36.5465 24.3702 36.4963C24.5227 36.3394 24.5266 36.1073 24.6594 35.9523C24.8017 35.7863 24.8297 35.5746 24.9325 35.3975C25.0759 35.1504 25.191 34.862 25.5401 34.8302C25.5601 34.8283 25.5801 34.818 25.5983 34.8086C25.9047 34.6509 26.0189 34.2533 25.8454 33.9498C25.7027 33.7001 25.4519 33.5872 25.1596 33.6379C25.0171 33.6626 24.8743 33.687 24.7307 33.7029C24.5333 33.7249 24.3633 33.8084 24.258 33.9704C24.1543 34.1296 24.0314 34.265 23.8946 34.3927C23.8648 34.4205 23.8375 34.4556 23.8219 34.4929C23.7184 34.7409 23.5597 34.9702 23.4871 35.2232C23.3913 35.5572 23.2067 35.8662 23.2124 36.2341C23.2153 36.4149 23.1464 36.5996 23.0945 36.778C23.0364 36.9771 23.0564 37.1873 22.9704 37.386C22.8956 37.5588 22.9017 37.7664 23.0145 37.9267C23.2196 38.2176 23.4014 38.513 23.4556 38.8732C23.4643 38.931 23.5038 38.9893 23.5427 39.036C23.637 39.1496 23.6878 39.2851 23.7564 39.4123C23.8544 39.5946 23.9622 39.7713 24.0409 39.9636C24.125 40.1694 24.3504 40.2347 24.4772 40.3998C24.5528 40.4981 24.6644 40.5732 24.7227 40.6791C24.8656 40.9384 25.1165 41.103 25.2762 41.346C25.3449 41.4506 25.4429 41.5329 25.5657 41.5736C25.9404 41.6981 26.2836 41.8881 26.6286 42.0758C26.7174 42.1242 26.8215 42.164 26.9207 42.1695C27.1185 42.1804 27.2901 42.2508 27.4286 42.3785C27.6269 42.5612 27.8504 42.611 28.1136 42.6124C28.3583 42.6137 28.6069 42.6556 28.8457 42.7137C28.9812 42.7466 29.1014 42.8456 29.2264 42.9183C29.3729 43.0035 29.5256 43.0532 29.6991 43.0499C30.0478 43.0436 30.3954 43.1638 30.7451 43.0582C30.9294 43.078 31.1128 43.0816 31.2936 43.1509C31.4276 43.2022 31.5617 43.2576 31.6979 43.3027C31.8134 43.3408 31.9434 43.3672 32.063 43.3558C32.5596 43.3088 33.0522 43.2824 33.5426 43.4145C33.6364 43.4398 33.7618 43.4344 33.8463 43.3915C34.0677 43.2788 34.3217 43.223 34.5196 43.0853C34.7559 42.9208 35.0407 42.8237 35.2328 42.5943C35.2564 42.5661 35.3069 42.5608 35.3443 42.5434C35.3912 42.5216 35.4886 42.5495 35.5072 42.592C35.6341 42.8804 35.6973 43.1833 35.7032 43.4973C35.7065 43.67 35.7464 43.8359 35.8633 43.9579C35.9957 44.0962 36.0867 44.2549 36.1767 44.4188C36.2379 44.5302 36.3277 44.6236 36.4452 44.6701C36.6768 44.7617 36.9017 44.8655 37.1196 44.9856C37.1552 45.0053 37.1987 45.0245 37.2373 45.0223C37.5681 45.0033 37.8928 45.0994 38.2296 45.0448C38.5139 44.9986 38.7952 44.9089 39.0906 44.9323C39.196 44.9407 39.2924 44.8959 39.3818 44.8374C39.5376 44.7353 39.7035 44.647 39.8512 44.5346C39.9716 44.443 40.1096 44.4049 40.2448 44.3545C40.3411 44.3186 40.4444 44.3841 40.4683 44.499C40.4893 44.6005 40.4965 44.7049 40.5176 44.8065C40.5564 44.993 40.5646 45.3335 40.5277 45.5041C40.4765 45.7406 40.5277 45.9564 40.6579 46.1565L40.6598 46.156ZM21.6469 21.4662C21.7284 21.4624 21.8323 21.461 21.9356 21.4521C22.3818 21.4139 22.6554 21.1347 22.6681 20.6816C22.6721 20.5355 22.6732 20.3929 22.7115 20.2513C22.745 20.1271 22.7939 20.0139 22.9207 19.9609C23.1633 19.8596 23.3382 19.6921 23.4347 19.4469C23.4604 19.3814 23.5096 19.3503 23.5713 19.3355C23.6718 19.3114 23.7754 19.2985 23.8742 19.2692C24.1339 19.1921 24.3092 19.0168 24.3727 18.7583C24.4267 18.5378 24.4726 18.3163 24.5489 18.1016C24.5684 18.0466 24.5647 17.9748 24.5486 17.9171C24.4819 17.6788 24.4309 17.4317 24.3281 17.209C24.2043 16.941 24.1174 16.6724 24.108 16.3776C24.1019 16.1845 24.0357 16.0161 23.9052 15.8679C23.8388 15.7923 23.794 15.6953 23.7498 15.6029C23.5444 15.1719 23.4166 14.7126 23.3225 14.2494C23.2705 13.9934 23.2054 13.7718 23.0036 13.5997C22.8887 13.5017 22.8276 13.3709 22.8126 13.2193C22.8065 13.1574 22.8042 13.0938 22.7881 13.0344C22.7066 12.7324 22.534 12.5115 22.2165 12.439C22.0149 12.3929 21.8334 12.3386 21.6694 12.1863C21.4802 12.0109 21.2353 11.9601 20.9733 12.0717C20.8216 12.1362 20.6569 12.1705 20.4974 12.2161C20.3037 12.2715 20.1673 12.3993 20.0955 12.5788C20.0417 12.7138 19.9922 12.8472 19.9126 12.9705C19.7668 13.1965 19.7464 13.4477 19.8616 13.6827C19.968 13.8998 19.9981 14.1128 19.9622 14.3454C19.9365 14.5122 19.9549 14.6727 20.0259 14.8317C20.0666 14.923 20.0646 15.0327 20.0901 15.132C20.1207 15.2515 20.1409 15.379 20.1985 15.4853C20.425 15.9038 20.4259 16.3597 20.4267 16.8127C20.427 16.9743 20.3416 17.1353 20.3384 17.2976C20.3351 17.4597 20.3944 17.6218 20.4095 17.7855C20.4191 17.8874 20.4033 17.9929 20.3883 18.0953C20.3763 18.177 20.342 18.2551 20.3285 18.3366C20.3011 18.5031 20.2962 18.6731 20.3885 18.8211C20.5141 19.0226 20.5611 19.2495 20.5758 19.4738C20.6081 19.9704 20.7587 20.4441 20.8278 20.9327C20.849 21.0833 20.9375 21.2009 21.0468 21.3001C21.2108 21.4493 21.4076 21.4974 21.647 21.4657L21.6469 21.4662ZM35.0204 25.1214C35.0343 25.0029 35.0611 24.8595 35.0657 24.7154C35.075 24.4191 34.8525 24.1347 34.5566 24.1022C34.3494 24.0795 34.153 24.0091 33.9499 23.9916C33.7456 23.9739 33.538 23.9891 33.3328 23.9577C33.2726 23.9485 33.2053 23.9488 33.1474 23.9657C32.8271 24.0584 32.4981 24.0852 32.1688 24.1219C31.8681 24.1555 31.6608 24.4328 31.6652 24.7376C31.6678 24.9157 31.7291 25.0802 31.8713 25.1706C32.0669 25.2949 32.2128 25.4715 32.3956 25.6069C32.4237 25.6277 32.4471 25.6804 32.443 25.7148C32.4045 26.0444 32.3617 26.3761 32.1746 26.6612C32.0808 26.8042 32.0249 26.9537 31.997 27.1197C31.9626 27.3236 31.9372 27.5308 31.8254 27.713C31.815 27.7301 31.8119 27.7521 31.8069 27.7721C31.7012 28.1937 31.9441 28.5665 32.3759 28.6469C32.5499 28.6792 32.7182 28.6344 32.8472 28.5349C33.0501 28.3785 33.2758 28.2915 33.5135 28.2147C33.6084 28.1842 33.7086 28.1305 33.7745 28.0582C33.9159 27.9032 34.0802 27.786 34.2527 27.6694C34.429 27.5502 34.547 27.3668 34.5455 27.1453C34.5419 26.6735 34.6708 26.2473 34.9447 25.8651C35.0341 25.7404 35.0644 25.6015 35.0585 25.454C35.0544 25.351 35.0355 25.2484 35.0204 25.1212V25.1214ZM41.0858 27.963C41.5782 27.9775 41.8461 27.4882 41.7131 27.1878C41.572 26.8689 41.4492 26.5446 41.2714 26.2395C41.1439 26.0207 41.0431 25.8031 40.8044 25.6843C40.7518 25.6581 40.7052 25.6091 40.6702 25.5603C40.4965 25.3184 40.268 25.2166 39.9709 25.2597C39.8905 25.2714 39.8053 25.2461 39.7233 25.2517C39.4827 25.2683 39.282 25.3619 39.1658 25.5851C39.1087 25.695 39.0717 25.8172 38.9614 25.8894C38.7583 26.0222 38.6781 26.2251 38.5934 26.4438C38.4894 26.7122 38.3589 26.9693 38.3137 27.2576C38.3106 27.2775 38.2973 27.2956 38.2909 27.3151C38.1713 27.6852 37.988 28.0367 37.9653 28.435C37.781 28.8016 37.8796 29.1139 38.1459 29.3973C38.2299 29.4867 38.2882 29.6075 38.3853 29.6757C38.6819 29.8841 39.1268 29.9244 39.4238 29.6617C39.5165 29.5798 39.6236 29.514 39.7176 29.4332C39.9621 29.2228 40.2253 28.7455 40.2554 28.4122C40.2744 28.2024 40.3239 28.0061 40.4004 27.8132C40.4322 27.7331 40.528 27.6894 40.5948 27.73C40.683 27.7837 40.7637 27.8527 40.8567 27.8948C40.9483 27.9363 41.0513 27.9529 41.086 27.9625L41.0858 27.963Z" fill="#FCFCFC"/>
<path d="M40.659 46.156C40.5288 45.9559 40.4778 45.7401 40.5288 45.5036C40.5656 45.3331 40.5575 44.9925 40.5187 44.806C40.4974 44.7046 40.4904 44.6001 40.4693 44.4985C40.4455 44.3837 40.3421 44.3181 40.2458 44.354C40.1107 44.4044 39.9726 44.4425 39.8522 44.5341C39.7044 44.6465 39.5387 44.7348 39.3829 44.8369C39.2935 44.8954 39.197 44.9402 39.0917 44.9318C38.7963 44.9082 38.515 44.9981 38.2306 45.0443C37.8937 45.0989 37.5691 45.0028 37.2383 45.0218C37.1998 45.024 37.1562 45.0047 37.1207 44.9852C36.9028 44.865 36.6779 44.7612 36.4463 44.6696C36.3286 44.6231 36.239 44.5298 36.1778 44.4183C36.0879 44.2544 35.9969 44.0956 35.8644 43.9574C35.7475 43.8354 35.7076 43.6695 35.7043 43.4969C35.6984 43.1827 35.6352 42.8799 35.5083 42.5915C35.4895 42.549 35.3923 42.5211 35.3453 42.543C35.308 42.5603 35.2575 42.5656 35.2339 42.5938C35.0419 42.8234 34.7571 42.9203 34.5206 43.0848C34.3227 43.2226 34.0688 43.2785 33.8474 43.391C33.7629 43.434 33.6376 43.4393 33.5436 43.414C33.0533 43.282 32.5607 43.3083 32.0641 43.3553C31.9445 43.3665 31.8145 43.3403 31.699 43.3022C31.5628 43.2573 31.4287 43.2017 31.2946 43.1504C31.1137 43.0811 30.9305 43.0775 30.7462 43.0577C30.3964 43.1633 30.0487 43.043 29.7002 43.0494C29.5265 43.0525 29.374 43.0029 29.2275 42.9178C29.1024 42.8453 28.9823 42.7462 28.8468 42.7132C28.6082 42.6553 28.3594 42.6132 28.1147 42.6119C27.8517 42.6107 27.628 42.5609 27.4297 42.378C27.2912 42.2503 27.1195 42.1798 26.9218 42.169C26.8225 42.1635 26.7184 42.1237 26.6296 42.0754C26.2847 41.8876 25.9415 41.6977 25.5668 41.5731C25.444 41.5324 25.3459 41.4501 25.2773 41.3456C25.1176 41.1026 24.8666 40.9379 24.7238 40.6787C24.6655 40.5727 24.5539 40.4975 24.4783 40.3993C24.3514 40.2342 24.1261 40.1689 24.042 39.9631C23.9633 39.7708 23.8555 39.5941 23.7574 39.4118C23.6889 39.2846 23.638 39.149 23.5438 39.0355C23.5049 38.9887 23.4654 38.9303 23.4567 38.8728C23.4025 38.5125 23.2207 38.2173 23.0156 37.9262C22.9026 37.7659 22.8967 37.5583 22.9715 37.3855C23.0573 37.1869 23.0375 36.9766 23.0955 36.7775C23.1475 36.5991 23.2165 36.4145 23.2135 36.2336C23.2077 35.8656 23.3924 35.5565 23.4882 35.2227C23.5608 34.9697 23.7195 34.7404 23.823 34.4924C23.8386 34.4553 23.8659 34.42 23.8957 34.3922C24.0324 34.2646 24.1554 34.1291 24.2591 33.9699C24.3644 33.8079 24.5344 33.7244 24.7318 33.7024C24.8754 33.6863 25.0182 33.6621 25.1607 33.6375C25.453 33.5867 25.7037 33.6996 25.8465 33.9493C26.02 34.2529 25.9058 34.6504 25.5994 34.8082C25.581 34.8177 25.561 34.828 25.5412 34.8297C25.1921 34.8614 25.077 35.1498 24.9336 35.397C24.8306 35.5743 24.8028 35.7858 24.6605 35.9519C24.5277 36.1068 24.5238 36.3389 24.3713 36.4958C24.3226 36.5459 24.3045 36.6558 24.3174 36.7307C24.3599 36.9763 24.3049 37.2284 24.3842 37.4728C24.4142 37.5652 24.3961 37.6793 24.3774 37.7793C24.3564 37.892 24.382 37.9872 24.4481 38.0699C24.5642 38.2157 24.6912 38.3488 24.7398 38.5416C24.7636 38.6366 24.8581 38.7118 24.8996 38.8052C24.9697 38.963 25.1073 39.0624 25.2049 39.1949C25.2898 39.3102 25.3386 39.4526 25.4255 39.5659C25.6164 39.8147 25.8384 40.0347 26.1332 40.1591C26.251 40.2089 26.3624 40.2649 26.4402 40.364C26.6254 40.6003 26.8779 40.738 27.1394 40.8664C27.2321 40.912 27.3268 40.9574 27.4097 41.018C27.5498 41.1204 27.6995 41.1793 27.874 41.1631C28.1133 41.1406 28.3069 41.2377 28.5164 41.347C28.8053 41.4976 29.1193 41.6276 29.4672 41.5417C29.6117 41.5062 29.7548 41.5265 29.8995 41.5549C30.02 41.5786 30.1444 41.5906 30.2674 41.5926C30.4397 41.5954 30.6046 41.636 30.7365 41.7373C30.9861 41.929 31.2697 41.9522 31.5639 41.95C31.6261 41.9496 31.6893 41.9516 31.7502 41.9416C32.0048 41.8996 32.2482 41.9093 32.4638 42.0738C33.0333 42.2784 33.578 42.1968 34.0635 41.8628C34.3842 41.6421 34.6945 41.3924 34.9136 41.0537C35.0482 40.8457 35.267 40.7085 35.3903 40.4833C35.4449 40.3835 35.5793 40.328 35.6764 40.251C35.7753 40.1725 35.8 40.0833 35.7135 39.9876C35.5437 39.7997 35.4956 39.5454 35.33 39.3508C35.1861 39.1816 35.1005 38.9622 34.9932 38.7627C34.9544 38.6905 34.9119 38.6143 34.8982 38.5353C34.8412 38.2052 34.693 37.9106 34.5692 37.6044C34.4613 37.3373 34.3699 37.0562 34.3263 36.773C34.2889 36.5292 34.4663 36.2999 34.4579 36.0457C34.4567 36.0082 34.4818 35.965 34.5057 35.9324C34.6642 35.7162 34.8231 35.4999 34.9887 35.289C35.0252 35.2427 35.0855 35.2091 35.1415 35.1851C35.2951 35.1192 35.4385 35.0387 35.5729 34.9393C35.7731 34.791 36.0071 34.7679 36.2265 34.8492C36.5596 34.9727 36.9129 34.9895 37.2474 35.0843C37.5614 35.1732 37.9057 35.1887 38.178 35.403C38.4098 35.4418 38.6074 35.5453 38.7796 35.7057C38.8574 35.7785 38.9629 35.8159 39.0677 35.8052C39.3864 35.7724 39.6745 35.9285 39.986 35.943C40.1394 35.9501 40.2513 36.0597 40.3389 36.178C40.4491 36.3271 40.5454 36.4866 40.6502 36.6397C40.735 36.7633 40.7848 36.8956 40.7777 37.048C40.7731 37.1511 40.7618 37.2566 40.777 37.3576C40.8166 37.6226 40.7503 37.8469 40.5691 38.046C40.5015 38.1203 40.4648 38.2221 40.4099 38.3087C40.3659 38.3783 40.3242 38.4523 40.2671 38.51C40.02 38.7591 39.7675 39.0026 39.5068 39.2375C39.4611 39.2789 39.4107 39.3204 39.355 39.3444C38.9135 39.5353 38.5562 39.8565 38.1679 40.1265C37.9481 40.2794 37.7389 40.3647 37.4771 40.3352C37.417 40.3284 37.3521 40.3348 37.2937 40.3509C37.2602 40.3601 37.2148 40.3974 37.2098 40.428C37.1292 40.9143 36.9577 41.3857 36.9663 41.887C36.9674 41.9483 36.9284 42.0161 36.944 42.0704C37.0159 42.3209 36.9741 42.5614 36.9129 42.8056C36.8816 42.9309 36.9254 43.0488 36.9917 43.1612C37.1022 43.348 37.2635 43.4711 37.4561 43.5588C37.7616 43.6979 38.0986 43.7041 38.4193 43.7794C38.4943 43.797 38.5909 43.7798 38.6619 43.7458C38.8296 43.6654 39.0098 43.6228 39.1764 43.5293C39.4305 43.3867 39.6543 43.2041 39.897 43.0478C40.0323 42.9609 40.1705 42.859 40.2463 42.7C40.3407 42.5021 40.5073 42.3883 40.7075 42.3054C40.901 42.2253 41.0687 42.1038 41.1728 41.9109C41.2021 41.8565 41.2366 41.8004 41.2823 41.7607C41.5592 41.521 41.7156 41.2104 41.8233 40.8691C41.8418 40.8102 41.876 40.7547 41.8851 40.6947C41.9503 40.2654 42.1529 39.8712 42.2041 39.439C42.2266 39.2498 42.2784 39.0761 42.3904 38.918C42.5137 38.744 42.5652 38.5433 42.566 38.3301C42.5663 38.2678 42.5621 38.2051 42.5684 38.1434C42.5907 37.9229 42.8146 37.7378 42.6903 37.4928C42.5824 37.2804 42.6327 37.0391 42.5613 36.8252C42.4933 36.6213 42.5531 36.4039 42.4796 36.2119C42.4015 36.0081 42.4151 35.8059 42.4113 35.5988C42.4076 35.3938 42.3283 35.199 42.3675 34.9823C42.3996 34.8047 42.3684 34.6129 42.348 34.4292C42.323 34.2043 42.3021 33.9747 42.2376 33.7598C42.1889 33.5975 42.1446 33.4427 42.1629 33.274C42.2056 32.8793 42.0686 32.5439 41.8298 32.2388C41.6903 32.0605 41.5965 31.8501 41.4194 31.6967C41.287 31.582 41.2458 31.4119 41.25 31.2419C41.2558 31.0141 41.2733 30.786 41.299 30.5597C41.3081 30.4806 41.3527 30.4041 41.388 30.3297C41.5203 30.0492 41.6535 29.7703 41.6689 29.4513C41.6763 29.3004 41.7463 29.1637 41.8523 29.0641C42.1468 28.7875 42.2142 28.4231 42.2589 28.0526C42.2792 27.8836 42.3199 27.7348 42.4076 27.5861C42.5011 27.4275 42.5562 27.2462 42.628 27.0748C42.579 26.7267 42.7923 26.4391 42.8496 26.1151C42.864 26.0341 42.9201 25.9581 42.924 25.8782C42.9425 25.5013 43.1077 25.1559 43.1474 24.7844C43.1561 24.7023 43.17 24.6191 43.1646 24.5377C43.1514 24.3459 43.1789 24.1673 43.2782 23.9983C43.399 23.7926 43.435 23.5722 43.3653 23.3383C43.3149 23.1689 43.3557 23.0033 43.4278 22.8538C43.5188 22.6654 43.602 22.4833 43.5991 22.2656C43.5948 21.9548 43.6003 21.643 43.4715 21.3533C43.4188 21.2349 43.4063 21.1161 43.3923 20.9925C43.3662 20.7631 43.3033 20.5466 43.141 20.3706C43.0252 20.2449 42.9532 20.0949 42.9294 19.9272C42.9048 19.7545 42.8224 19.615 42.7101 19.4891C42.6687 19.4427 42.6068 19.4093 42.5796 19.3569C42.458 19.1215 42.2651 18.9832 42.0227 18.8883C41.9328 18.8532 41.8507 18.7703 41.7919 18.6898C41.6436 18.4868 41.6418 18.2463 41.7928 18.0523C41.8802 17.9399 41.9992 17.852 42.1037 17.7532C42.4894 17.7793 42.8045 17.9777 43.1198 18.1732C43.2248 18.2383 43.3281 18.3082 43.4227 18.3873C43.501 18.453 43.5914 18.5239 43.6311 18.6127C43.7451 18.8682 43.9196 19.0644 44.1422 19.2259C44.3195 19.3545 44.4345 19.5284 44.439 19.7488C44.4439 19.9863 44.577 20.182 44.622 20.4046C44.6446 20.5165 44.7072 20.5809 44.8128 20.6254C44.9694 20.6913 45.0872 20.8022 45.1629 20.9616C45.2711 21.1893 45.4299 21.3777 45.636 21.5274C45.7566 21.6151 45.8417 21.7401 45.876 21.8827C45.9595 22.2289 46.1354 22.53 46.3054 22.836C46.3547 22.9248 46.406 23.0255 46.4113 23.1232C46.4218 23.3131 46.4699 23.4882 46.5368 23.6635C46.5899 23.8023 46.5903 23.9491 46.5484 24.0926C46.4922 24.2848 46.5184 24.4609 46.6364 24.6241C46.6603 24.6572 46.6732 24.6983 46.6919 24.7353C46.7598 24.8698 46.7936 25.0165 46.7467 25.1578C46.6581 25.4254 46.6909 25.6879 46.7403 25.9536C46.7555 26.0349 46.7765 26.1159 46.7822 26.1978C46.7923 26.3448 46.7787 26.4923 46.6899 26.6156C46.5132 26.8608 46.4383 27.1318 46.4404 27.4325C46.441 27.5329 46.4076 27.6373 46.3726 27.7334C46.2668 28.024 46.1688 28.316 46.1313 28.6247C46.1135 28.7721 46.0641 28.9104 45.9717 29.0246C45.7007 29.3598 45.5958 29.7583 45.5493 30.1706C45.5248 30.388 45.4746 30.5792 45.3112 30.7253C45.1774 30.8449 45.122 30.9941 45.1112 31.1651C45.0964 31.4011 45.0242 31.611 44.852 31.781C44.7557 31.876 44.7351 31.9962 44.7543 32.1256C44.7933 32.3897 44.7215 32.6218 44.5363 32.8111C44.3997 32.9506 44.3193 33.1224 44.2814 33.3014C44.2421 33.4867 44.1628 33.6553 44.1155 33.8338C44.051 34.0768 43.9847 34.3078 43.803 34.497C43.7562 34.5457 43.7498 34.6555 43.7604 34.7323C43.7885 34.9351 43.877 35.1225 43.8555 35.3412C43.8357 35.5422 43.8719 35.7504 43.897 35.9537C43.9402 36.3015 43.9051 36.6558 43.9919 36.9999C44.0231 37.1237 43.997 37.2474 43.9493 37.3653C43.8834 37.5276 43.8837 37.6894 43.9593 37.8478C44.0951 38.1328 44.0852 38.4075 43.9132 38.6755C43.7971 38.8564 43.7756 39.0691 43.7559 39.2718C43.7376 39.4605 43.7225 39.6444 43.6301 39.8109C43.5669 39.9247 43.565 40.0483 43.5412 40.1697C43.5215 40.2691 43.4882 40.3729 43.4336 40.457C43.251 40.7383 43.1255 41.0398 43.0556 41.3673C43.0386 41.4467 43.0154 41.5341 42.967 41.5961C42.8109 41.7955 42.8307 42.0771 42.64 42.2612C42.5684 42.3304 42.5203 42.429 42.4766 42.5213C42.3926 42.6984 42.2621 42.8265 42.0898 42.9118C41.857 43.0268 41.7053 43.2192 41.5784 43.4352C41.5233 43.529 41.5146 43.6233 41.5798 43.7257C41.6903 43.8994 41.734 44.107 41.8646 44.2749C41.9236 44.3507 41.9564 44.4701 41.952 44.5675C41.9417 44.7973 41.9647 45.0186 42.0173 45.2418C42.0347 45.3159 42.0109 45.4089 41.9807 45.4832C41.9186 45.6363 41.8395 45.7825 41.7674 45.9316C41.6193 46.2376 41.3009 46.4557 40.8239 46.2425C40.7678 46.2174 40.7147 46.1852 40.6601 46.1562L40.659 46.156ZM43.2179 32.0479C43.3434 31.9101 43.4753 31.7785 43.5894 31.6332C43.637 31.5725 43.6762 31.4796 43.6691 31.4061C43.639 31.0901 43.7604 30.8467 43.9741 30.6251C44.0723 30.5232 44.1456 30.3888 44.1414 30.2338C44.1359 30.0375 44.2067 29.8738 44.327 29.7204C44.4561 29.5557 44.5297 29.3689 44.5522 29.1529C44.5733 28.9503 44.6622 28.759 44.639 28.5447C44.6232 28.3992 44.6859 28.2652 44.7674 28.138C44.9138 27.9092 45.0046 27.6566 45.016 27.3826C45.0234 27.2085 45.0849 27.0603 45.1938 26.9287C45.2928 26.8092 45.3279 26.6773 45.2906 26.5234C45.2355 26.2957 45.2434 26.073 45.3464 25.8559C45.4107 25.7204 45.4288 25.5665 45.367 25.4326C45.2659 25.2132 45.2601 24.9954 45.3029 24.7654C45.3377 24.5779 45.3146 24.3972 45.2271 24.2218C45.1819 24.1316 45.1676 24.0259 45.1401 23.9271C45.1002 23.7838 45.0153 23.6679 44.9193 23.5582C44.8832 23.517 44.8096 23.5334 44.7757 23.5875C44.7208 23.6754 44.6605 23.7608 44.6635 23.8708C44.6674 24.0153 44.6786 24.16 44.6755 24.3044C44.6728 24.4275 44.6838 24.5633 44.6365 24.6705C44.5591 24.8458 44.5489 25.0287 44.5071 25.2079C44.4646 25.3894 44.4114 25.5643 44.4145 25.7543C44.4158 25.8334 44.381 25.9152 44.3529 25.9923C44.2463 26.2837 44.152 26.5774 44.1626 26.8931C44.1693 27.0906 44.1018 27.2649 43.9679 27.4021C43.7865 27.5878 43.6936 27.813 43.647 28.0582C43.6192 28.2046 43.5803 28.3449 43.4864 28.4568C43.2328 28.7593 43.1279 29.1008 43.1691 29.4931C43.197 29.7586 43.106 29.9841 42.8974 30.1539C42.7961 30.2363 42.7447 30.3492 42.6909 30.46C42.6355 30.5739 42.6144 30.6961 42.6578 30.8216C42.6714 30.8608 42.6876 30.8995 42.6967 30.9398C42.7393 31.1274 42.8526 31.2767 42.9615 31.4272C43.0754 31.5845 42.9999 31.8022 43.1351 31.9511C43.1624 31.9811 43.1877 32.0129 43.2171 32.048L43.2179 32.0479Z" fill="#070607"/>
<path d="M34.2212 13.5961C34.2009 13.6766 34.1911 13.7617 34.1588 13.8369C33.9514 14.3203 33.4646 14.4774 33.0287 14.204C32.9765 14.1712 32.9269 14.1299 32.887 14.0834C32.7957 13.9771 32.6834 13.9582 32.5511 13.9705C32.3866 13.986 32.2162 13.9649 32.0565 13.9988C31.8656 14.0392 31.6871 14.0276 31.5035 13.9777C31.3637 13.9396 31.2226 13.9039 31.08 13.8798C30.8902 13.8478 30.7043 13.8683 30.5456 13.9885C30.406 14.094 30.2482 14.1213 30.0797 14.1403C29.7724 14.175 29.4651 14.2193 29.1966 14.3952C29.0691 14.4787 28.9237 14.4816 28.7763 14.4834C28.4801 14.4868 28.2099 14.5834 27.9462 14.714C27.755 14.8086 27.63 14.9791 27.4619 15.0992C27.4251 15.1256 27.4079 15.2157 27.4202 15.2672C27.4439 15.3664 27.504 15.4563 27.5334 15.5548C27.6359 15.9002 27.5037 16.2339 27.1906 16.4071C26.805 16.6206 26.257 16.4276 26.1574 15.9517C26.149 15.911 26.1317 15.869 26.1359 15.8295C26.1631 15.5762 26.13 15.3226 26.0146 15.1059C25.9062 14.9024 25.9122 14.6589 25.7543 14.4763C25.6571 14.364 25.6354 14.2123 25.628 14.0656C25.6124 13.7522 25.5481 13.4534 25.4078 13.1692C25.3638 13.0801 25.3666 12.9684 25.3466 12.8672C25.2866 12.5631 25.2953 12.2495 25.2165 11.9472C25.1907 11.8487 25.1865 11.742 25.1884 11.6393C25.1953 11.267 25.2051 10.8953 25.1686 10.5237C25.152 10.3557 25.1837 10.1975 25.2597 10.0415C25.341 9.8744 25.397 9.69476 25.4613 9.51964C25.5339 9.32237 25.56 9.12416 25.5342 8.9094C25.4969 8.5996 25.6057 8.29541 25.6129 7.98483C25.6152 7.88307 25.6568 7.781 25.6518 7.68064C25.6433 7.51037 25.6677 7.35117 25.7304 7.19339C25.7605 7.11769 25.7687 7.03357 25.7904 6.95428C25.8445 6.75623 25.9144 6.56129 25.952 6.36012C25.9881 6.16799 26.0888 6.0152 26.1904 5.85881C26.2581 5.45708 26.6322 5.27104 26.8282 4.9589C26.8691 4.89366 26.9515 4.84341 27.0258 4.8125C27.2417 4.72245 27.3189 4.545 27.384 4.33804C27.4611 4.09254 27.4837 3.85235 27.4251 3.60294C27.3901 3.45467 27.3096 3.33606 27.1878 3.24897C27.121 3.20121 27.0386 3.17515 26.9715 3.1277C26.8535 3.04436 26.7419 2.95197 26.6278 2.86332C26.3855 2.90592 26.1373 2.88205 25.8952 2.95353C25.5998 3.04077 25.2837 3.04171 24.9897 3.14347C24.7333 3.12677 24.5165 3.29283 24.2654 3.30048C24.0057 3.4425 23.724 3.49697 23.4324 3.52631C23.333 3.5363 23.2359 3.59124 23.1426 3.63572C22.8262 3.78648 22.5163 3.95551 22.2333 4.15809C21.9975 4.32696 21.7077 4.40172 21.4991 4.61648C21.4339 4.68359 21.3134 4.70684 21.2135 4.72885C20.7934 4.8214 20.4736 5.08563 20.1583 5.34986C20.0308 5.45677 19.9138 5.56399 19.7596 5.63781C19.5746 5.72646 19.4015 5.8443 19.2349 5.96525C19.1006 6.06264 18.9931 6.18313 18.9436 6.35699C18.911 6.4714 18.8401 6.58783 18.7556 6.67226C18.5186 6.90855 18.3109 7.16139 18.1798 7.47182C17.9226 7.74354 17.8116 8.11281 17.543 8.385C17.327 8.60381 17.1958 8.89801 17.0857 9.19127C16.9549 9.53977 16.8407 9.89468 16.6715 10.2279C16.6528 10.2649 16.6295 10.3028 16.6239 10.3426C16.5737 10.6952 16.4293 11.014 16.2807 11.3326C16.2465 11.4056 16.2247 11.4916 16.2237 11.5718C16.2188 11.9853 16.146 12.3975 16.2077 12.8123C16.2292 12.9573 16.2214 13.106 16.1431 13.2362C16.0021 13.4703 16.0107 13.7592 15.856 13.9905C15.8159 14.0506 15.8175 14.1533 15.8306 14.2313C15.8613 14.4148 15.9055 14.5901 15.8727 14.7841C15.8459 14.9424 15.9043 15.1137 15.8868 15.2751C15.8656 15.4702 15.8866 15.6533 15.9823 15.8168C16.1189 16.0503 16.1195 16.3363 16.2937 16.5573C16.35 16.6289 16.3486 16.7553 16.352 16.8574C16.3581 17.0436 16.3193 17.2354 16.3517 17.4153C16.3987 17.6774 16.5009 17.929 16.5627 18.189C16.6014 18.3518 16.6319 18.5127 16.7322 18.6522C16.8075 18.7568 16.8293 18.8788 16.8349 19.0062C16.8376 19.0675 16.8391 19.1384 16.8696 19.1872C17.0658 19.5025 17.0183 19.8196 16.9013 20.1452C16.8591 20.2624 16.8755 20.3832 16.9048 20.5101C16.9846 20.8545 17.0667 21.1917 17.2977 21.4759C17.3603 21.5527 17.4116 21.6639 17.4132 21.7602C17.4174 22.0163 17.5725 22.2316 17.5824 22.4841C17.5875 22.6155 17.6601 22.7385 17.7651 22.7976C17.9869 22.9225 18.0972 23.1696 18.3313 23.2782C18.4019 23.311 18.4673 23.3821 18.5057 23.4519C18.5881 23.6019 18.72 23.7015 18.8314 23.8227C19.0435 24.0537 19.132 24.3243 18.9659 24.6206C18.8809 24.7724 18.8409 24.9168 18.8735 25.0938C18.8999 25.2367 18.8475 25.3786 18.7836 25.5136C18.6157 25.8687 18.4848 26.2375 18.4072 26.6234C18.3871 26.7236 18.3775 26.826 18.3623 26.9273C18.3437 27.0497 18.3434 27.1791 18.3011 27.2927C18.2196 27.5117 18.182 27.7341 18.1971 27.9643C18.2134 28.2118 18.1122 28.4556 18.1832 28.7056C18.1988 28.7604 18.1857 28.835 18.16 28.8879C18.0659 29.0814 18.0946 29.2971 18.0406 29.4935C17.9852 29.6948 17.9277 29.891 17.932 30.1012C17.9324 30.1215 17.9227 30.1418 17.9201 30.1622C17.889 30.3977 17.5813 30.564 17.7456 30.8475C17.8811 31.0815 17.7614 31.3412 17.8257 31.5823C17.8694 31.7462 17.8517 31.9101 17.8283 32.0769C17.7561 32.5888 17.8695 33.0689 18.1227 33.5125C18.2185 33.6804 18.2764 33.8493 18.2906 34.0394C18.3001 34.1675 18.3479 34.2732 18.4687 34.3471C18.6716 34.4714 18.7808 34.6574 18.8539 34.8897C18.9741 35.2716 19.2175 35.5829 19.5325 35.8314C19.6486 35.923 19.7568 36.0174 19.8215 36.1515C19.9403 36.3972 20.1037 36.6089 20.3011 36.7955C20.4494 36.9355 20.4944 37.1093 20.4748 37.306C20.4324 37.7311 19.9241 37.9701 19.5823 37.7111C19.302 37.4989 19.0334 37.2741 18.7162 37.1146C18.5847 37.0484 18.4944 36.9291 18.4417 36.7869C18.4128 36.709 18.3836 36.631 18.3498 36.5551C18.2864 36.4129 18.1745 36.3842 18.0621 36.4761C17.9665 36.5543 17.8797 36.6651 17.7695 36.6999C17.4172 36.8112 17.173 37.0647 16.9092 37.296C16.6105 37.558 16.3945 37.8872 16.1715 38.2099C16.1132 38.2941 16.0546 38.3908 16.0388 38.4888C15.9959 38.7554 15.8283 38.9851 15.8292 39.2662C15.8295 39.3607 15.7636 39.4601 15.7129 39.5486C15.6723 39.6194 15.6065 39.6755 15.5561 39.7413C15.4136 39.928 15.3054 40.1438 15.3254 40.3731C15.3586 40.7547 15.1881 41.1048 15.1963 41.479C15.198 41.5599 15.1525 41.6427 15.1584 41.7223C15.1726 41.9162 15.115 42.0872 15.0459 42.2644C14.8502 42.7654 14.7292 43.2022 14.7603 43.6489C14.798 44.1909 14.6741 44.7185 14.6814 45.255C14.6821 45.2956 14.6661 45.3365 14.6577 45.3772C14.6008 45.4367 14.5489 45.5024 14.4859 45.5544C14.1467 45.8348 13.6478 45.6719 13.5527 45.2499C13.5346 45.1697 13.5187 45.0846 13.5254 45.0039C13.5516 44.6938 13.5374 44.3862 13.5025 44.0775C13.4912 43.9779 13.5212 43.8735 13.5338 43.7714C13.5952 43.2785 13.6767 42.7872 13.7125 42.2925C13.7425 41.8786 13.8343 41.4764 13.885 41.0672C13.9927 40.8546 13.8884 40.6063 13.9916 40.3968C14.0827 40.2117 14.1725 40.0283 14.2502 39.8361C14.3307 39.6369 14.3929 39.4513 14.3543 39.2361C14.3198 39.0432 14.366 38.8604 14.4782 38.7028C14.5647 38.5814 14.6081 38.4456 14.6594 38.31C14.6955 38.2145 14.7414 38.1154 14.8085 38.0408C14.907 37.9313 14.9833 37.812 15.0549 37.6849C15.1564 37.5051 15.2658 37.3292 15.3811 37.1579C15.4851 37.0033 15.6428 36.8978 15.7563 36.7454C15.8901 36.5657 16.0685 36.4146 16.2451 36.2731C16.4594 36.1014 16.635 35.9037 16.768 35.6646C16.8621 35.4952 17.0041 35.3827 17.1823 35.3031C17.3169 35.243 17.3679 35.1341 17.3297 35.0031C17.2779 34.8255 17.2367 34.6342 17.138 34.4832C16.9643 34.2173 16.9379 33.8953 16.7728 33.6289C16.7324 33.5637 16.7343 33.4699 16.7249 33.3882C16.7107 33.2649 16.7046 33.1409 16.6938 33.0173C16.67 32.7458 16.6194 32.4835 16.4561 32.2547C16.3421 32.0949 16.3146 31.9126 16.3288 31.7201C16.3378 31.5967 16.3552 31.4709 16.3411 31.3495C16.3168 31.1367 16.3319 30.9374 16.4352 30.7448C16.4962 30.6311 16.4925 30.4992 16.4658 30.3782C16.4015 30.0865 16.3985 29.8115 16.5317 29.5286C16.6085 29.3656 16.5663 29.1641 16.6328 28.982C16.7024 28.7913 16.6921 28.5706 16.7664 28.3827C16.8349 28.2093 16.9053 28.0407 16.9492 27.8578C16.9935 27.6729 17.0271 27.4923 16.9766 27.3063C16.9211 27.1013 16.9073 26.897 16.9651 26.6907C16.9225 26.3091 17.1029 25.9631 17.1446 25.5941C17.1578 25.4776 17.2217 25.3511 17.2989 25.2606C17.4541 25.0791 17.4651 24.8366 17.5905 24.6448C17.6064 24.6203 17.593 24.5535 17.5694 24.5302C17.4378 24.4 17.3191 24.2544 17.1374 24.1826C17.0617 24.1528 16.9898 24.103 16.9286 24.0483C16.8022 23.9353 16.7029 23.7999 16.6899 23.6237C16.6709 23.3642 16.5682 23.1413 16.3975 22.9517C16.1992 22.7313 16.1412 22.4351 15.9739 22.1963C15.9096 22.1045 15.8932 21.9528 15.9094 21.8361C15.9483 21.5566 15.8439 21.3059 15.7919 21.0448C15.7719 20.9441 15.7132 20.8458 15.7153 20.7472C15.7209 20.4697 15.6592 20.2125 15.5445 19.9627C15.5105 19.8886 15.4709 19.8014 15.4799 19.7257C15.5127 19.4521 15.4208 19.1907 15.4225 18.9208C15.4253 18.4816 15.2703 18.0682 15.1969 17.6413C15.1804 17.5449 15.1125 17.452 15.0521 17.3695C14.9254 17.1965 14.838 17.0122 14.8509 16.7939C14.8586 16.6637 14.8019 16.5518 14.7712 16.4319C14.7459 16.3334 14.7198 16.2222 14.7414 16.1273C14.7894 15.9147 14.7688 15.707 14.6861 15.5202C14.5883 15.2993 14.6045 15.0766 14.5891 14.8498C14.5748 14.6415 14.5641 14.4433 14.6214 14.2344C14.6693 14.0596 14.6727 13.8642 14.6541 13.6821C14.6368 13.5113 14.6505 13.3545 14.6971 13.192C14.7709 12.9343 14.7793 12.6629 14.8985 12.412C14.9674 12.2671 14.9633 12.0866 14.9195 11.9222C14.8804 11.7761 14.8937 11.6366 14.9313 11.4924C14.9571 11.3933 14.9685 11.2884 14.9706 11.1857C14.9735 11.0574 15.0045 10.9407 15.0626 10.8275C15.2319 10.4971 15.3707 10.1524 15.533 9.81883C15.7415 9.39026 15.9058 8.94467 16.0747 8.50033C16.1112 8.40435 16.1613 8.31383 16.2027 8.21956C16.2442 8.12467 16.2753 8.02463 16.3238 7.93364C16.4597 7.67908 16.3868 7.33401 16.6426 7.1386C16.8643 6.96927 16.9451 6.69598 17.1558 6.51728C17.3297 6.36979 17.4268 6.15519 17.5001 5.93513C17.568 5.7313 17.7014 5.58569 17.8831 5.46208C18.0691 5.3355 18.2318 5.17053 18.3903 5.00837C18.5781 4.81625 18.7529 4.61117 18.9286 4.40765C19.0268 4.29403 19.1468 4.21631 19.2831 4.16075C20.0068 3.86546 20.0464 3.84205 20.6108 3.39474C20.6752 3.34371 20.7464 3.27269 20.8196 3.26598C21.0994 3.24023 21.305 3.0247 21.573 2.98474C21.8425 2.94447 22.0524 2.72566 22.3376 2.74127C22.5857 2.63686 22.8459 2.54665 23.0361 2.34765C23.23 2.14507 23.4351 1.98323 23.7324 1.99165C23.991 1.85197 24.2889 1.82856 24.5552 1.71587C24.6932 1.6575 24.8288 1.62785 24.9764 1.62317C25.0996 1.61926 25.2329 1.62317 25.3427 1.57791C25.5662 1.48567 25.7964 1.58977 26.0207 1.52094C26.225 1.4582 26.4263 1.55387 26.6294 1.58087C26.8785 1.61396 27.1112 1.67982 27.3494 1.74787C27.5346 1.80093 27.7108 1.85712 27.8329 2.00804C27.98 2.19002 28.2293 2.23747 28.3641 2.43427C28.482 2.60611 28.5083 2.82071 28.6507 2.98474C28.7596 3.11038 28.7969 3.27753 28.7855 3.45296C28.7776 3.57563 28.7969 3.70002 28.7997 3.82363C28.8021 3.92695 28.8235 4.03917 28.7918 4.13218C28.7297 4.31385 28.7364 4.50051 28.7089 4.68421C28.6969 4.76396 28.6713 4.85324 28.6218 4.91364C28.2964 5.31162 28.0419 5.76813 27.6261 6.09214C27.4613 6.22059 27.3403 6.39351 27.3069 6.61139C27.0834 7.04605 27.065 7.52504 27.0072 7.9956C27.0563 8.30946 26.8985 8.60568 26.9294 8.92142C26.9381 9.01147 26.8654 9.11526 26.8151 9.20438C26.6355 9.52214 26.5354 9.84786 26.6592 10.2134C26.7067 10.3537 26.6917 10.5002 26.6642 10.6452C26.5109 11.452 26.5364 11.9993 26.753 12.6636C26.7998 12.8071 26.8047 12.9468 26.79 13.0929C26.775 13.2412 26.8017 13.3806 26.8922 13.5053C26.9547 13.5913 27.0854 13.6532 27.1611 13.6005C27.4216 13.4193 27.7378 13.3787 28.02 13.2513C28.1689 13.1842 28.3312 13.1441 28.479 13.065C28.5678 13.0175 28.6727 12.9804 28.772 12.9759C29.0907 12.9615 29.3797 12.8448 29.6595 12.7158C29.8592 12.6239 30.0592 12.5662 30.261 12.6294C30.6798 12.7608 31.0837 12.6726 31.4829 12.5716C31.6904 12.5192 31.8806 12.4716 32.0883 12.5556C32.1622 12.5854 32.2507 12.5804 32.3329 12.5871C32.4567 12.5971 32.5884 12.5793 32.7031 12.616C32.9996 12.7107 33.3123 12.7196 33.6093 12.8259C33.9634 12.9525 34.1675 13.1641 34.2051 13.5366C34.2072 13.5569 34.217 13.5764 34.2233 13.5963L34.2212 13.5961Z" fill="#070607"/>
<path d="M38.1585 14.7339C38.0449 14.8264 37.952 14.9338 37.9002 15.0741C37.8716 15.1512 37.8406 15.2288 37.7998 15.2998C37.5486 15.7382 36.904 15.7351 36.6357 15.3848C36.4116 15.0924 36.4183 14.7495 36.6405 14.4729C36.7042 14.3936 36.7974 14.3382 36.8631 14.26C36.8996 14.2165 36.907 14.1486 36.9274 14.0916C36.9583 14.0648 37.0018 14.0442 37.0182 14.0103C37.144 13.7517 37.2862 13.4995 37.4008 13.2376C37.4769 13.0633 37.5464 12.8972 37.6892 12.772C37.7725 12.6988 37.8197 12.6166 37.8179 12.5048C37.8112 12.0725 37.8531 11.6393 37.7785 11.208C37.7501 11.0437 37.7669 10.8772 37.8488 10.7244C38.1187 10.2207 38.8079 10.2126 39.111 10.5889C39.2331 10.7404 39.3063 10.909 39.2903 11.1036C39.2735 11.3095 39.2746 11.5146 39.271 11.7204C39.2679 11.9021 39.187 12.0814 39.1723 12.2643C39.1586 12.4363 39.0935 12.5812 39.0256 12.733C38.925 12.9581 38.8262 13.1847 38.8109 13.4396C38.8049 13.5379 38.7503 13.6339 38.7149 13.7298C38.6793 13.8265 38.6237 13.9185 38.6055 14.018C38.5618 14.2557 38.444 14.4379 38.2539 14.5832C38.2097 14.617 38.19 14.6827 38.1591 14.7335L38.1585 14.7339Z" fill="#070607"/>
<path d="M40.3712 16.332C40.1661 16.3401 40.0119 16.465 39.9154 16.6147C39.7558 16.8627 39.5118 17.0214 39.3283 17.2425C39.1669 17.437 38.8858 17.4679 38.6473 17.3558C38.4237 17.2508 38.3043 17.0691 38.2954 16.8197C38.294 16.7788 38.2874 16.7316 38.3043 16.6977C38.4228 16.4603 38.535 16.2184 38.6742 15.9935C38.7354 15.8945 38.8449 15.814 38.9498 15.7564C39.1357 15.6545 39.2576 15.4894 39.4023 15.3466C39.428 15.3211 39.4296 15.271 39.4424 15.2325C39.6743 15.0288 39.9604 14.8969 40.1767 14.6703C40.2299 14.6146 40.3198 14.5799 40.3985 14.5651C40.8063 14.4886 41.1879 14.3341 41.5763 14.1965C41.8111 14.1133 42.0293 14.1929 42.207 14.3575C42.4084 14.5439 42.4639 14.7839 42.3896 15.0418C42.3149 15.3015 42.1368 15.4649 41.8637 15.5108C41.8025 15.5211 41.7401 15.5273 41.6781 15.53C41.4796 15.5384 41.323 15.6205 41.1997 15.7781C41.1084 15.8947 40.9855 15.9701 40.8417 16.0139C40.7412 16.0447 40.6532 16.0993 40.6031 16.1995C40.6026 16.1997 40.5667 16.2268 40.5663 16.227C40.4804 16.224 40.4102 16.2495 40.371 16.3322L40.3712 16.332Z" fill="#070607"/>
<path d="M21.6448 21.466C21.4054 21.4977 21.2087 21.4497 21.0445 21.3004C20.9353 21.201 20.847 21.0835 20.8256 20.9331C20.7564 20.4444 20.6058 19.9709 20.5735 19.4741C20.5588 19.2498 20.5119 19.0229 20.3862 18.8214C20.294 18.6734 20.2988 18.5035 20.3263 18.3369C20.3397 18.2555 20.3741 18.1773 20.3861 18.0957C20.4011 17.9933 20.4168 17.8878 20.4073 17.7859C20.392 17.6221 20.3329 17.46 20.3361 17.298C20.3394 17.1358 20.4248 16.9746 20.4245 16.8131C20.4235 16.36 20.4226 15.9041 20.1963 15.4857C20.1387 15.3794 20.1184 15.2519 20.0878 15.1323C20.0624 15.0331 20.0646 14.9233 20.0237 14.832C19.9527 14.673 19.9342 14.5126 19.96 14.3457C19.9959 14.1132 19.9656 13.9001 19.8593 13.683C19.7441 13.4478 19.7646 13.1967 19.9104 12.9709C19.99 12.8476 20.0394 12.714 20.0933 12.5791C20.1651 12.3995 20.3015 12.2718 20.4952 12.2164C20.6547 12.1707 20.8193 12.1365 20.971 12.0721C21.2331 11.9606 21.478 12.0112 21.6671 12.1866C21.8313 12.3388 22.0128 12.3931 22.2143 12.4393C22.5318 12.5119 22.7044 12.7327 22.7858 13.0347C22.8019 13.0942 22.8043 13.1577 22.8103 13.2197C22.8253 13.3712 22.8865 13.5018 23.0014 13.6C23.2032 13.7721 23.2683 13.9938 23.3202 14.2497C23.4143 14.7128 23.542 15.1723 23.7476 15.6032C23.7916 15.6956 23.8365 15.7927 23.903 15.8682C24.0335 16.0166 24.0997 16.185 24.1057 16.3779C24.1151 16.6727 24.202 16.9414 24.3258 17.2093C24.4287 17.4319 24.4797 17.6791 24.5463 17.9174C24.5624 17.975 24.5662 18.0468 24.5466 18.1019C24.4703 18.3167 24.4244 18.5381 24.3704 18.7587C24.3071 19.0171 24.1317 19.1925 23.8719 19.2695C23.7732 19.2988 23.6695 19.3116 23.569 19.3358C23.5074 19.3506 23.4582 19.3815 23.4325 19.4472C23.336 19.6924 23.161 19.8599 22.9185 19.9612C22.7916 20.0143 22.7428 20.1274 22.7092 20.2516C22.671 20.3932 22.6699 20.536 22.6658 20.6819C22.6532 21.135 22.3796 21.4141 21.9334 21.4525C21.8301 21.4614 21.7261 21.4628 21.6446 21.4665L21.6448 21.466Z" fill="#FF8CBD"/>
<path d="M35.0194 25.1212C35.0345 25.2484 35.0534 25.351 35.0575 25.454C35.0634 25.6015 35.033 25.7404 34.9437 25.8651C34.6698 26.2473 34.5409 26.6735 34.5445 27.1453C34.5462 27.3668 34.428 27.5503 34.2517 27.6694C34.0792 27.786 33.9149 27.9031 33.7735 28.0582C33.7076 28.1305 33.6074 28.1841 33.5125 28.2147C33.2748 28.2915 33.0491 28.3785 32.8462 28.5348C32.7172 28.6344 32.5489 28.6792 32.3749 28.6469C31.943 28.5665 31.7002 28.1937 31.8059 27.7721C31.8108 27.752 31.814 27.73 31.8244 27.713C31.936 27.5308 31.9616 27.3236 31.9959 27.1197C32.0239 26.9537 32.0798 26.8041 32.1736 26.6612C32.3607 26.3762 32.4033 26.0444 32.442 25.7148C32.4461 25.6803 32.4227 25.6277 32.3946 25.6069C32.2118 25.4716 32.0657 25.2949 31.8703 25.1705C31.7281 25.0802 31.6668 24.9157 31.6641 24.7376C31.6596 24.4328 31.8669 24.1553 32.1678 24.1219C32.4971 24.0852 32.8263 24.0584 33.1464 23.9657C33.2043 23.9488 33.2715 23.9485 33.3318 23.9577C33.537 23.9891 33.7446 23.9739 33.9489 23.9916C34.1519 24.0091 34.3484 24.0794 34.5555 24.1022C34.8514 24.1348 35.074 24.4192 35.0646 24.7154C35.0601 24.8595 35.0333 25.0028 35.0194 25.1214V25.1212Z" fill="#070607"/>
<path d="M41.0843 27.9628C41.0497 27.9531 40.9466 27.9366 40.855 27.8951C40.762 27.8528 40.6813 27.784 40.5931 27.7303C40.5263 27.6895 40.4305 27.7334 40.3987 27.8135C40.322 28.0064 40.2726 28.2027 40.2537 28.4125C40.2236 28.7458 39.9604 29.2231 39.7159 29.4335C39.6219 29.5142 39.5148 29.5799 39.4221 29.662C39.1251 29.9246 38.6802 29.8844 38.3836 29.676C38.2866 29.6078 38.2282 29.487 38.1442 29.3976C37.878 29.1142 37.7793 28.802 37.9636 28.4353C37.9863 28.0371 38.1695 27.6855 38.2892 27.3154C38.2956 27.2958 38.3089 27.2777 38.312 27.2578C38.3572 26.9696 38.4876 26.7125 38.5917 26.4441C38.6764 26.2254 38.7566 26.0225 38.9597 25.8897C39.0702 25.8174 39.107 25.6952 39.1641 25.5854C39.2803 25.362 39.481 25.2685 39.7216 25.252C39.8036 25.2464 39.8888 25.2715 39.9692 25.26C40.2663 25.2169 40.4948 25.3186 40.6685 25.5606C40.7036 25.6094 40.7502 25.6584 40.8027 25.6846C41.0414 25.8034 41.1422 26.021 41.2697 26.2398C41.4476 26.5451 41.5703 26.8692 41.7114 27.1881C41.8444 27.4885 41.5766 27.9778 41.0841 27.9633L41.0843 27.9628Z" fill="#070607"/>
<path d="M40.3711 16.3323C40.4104 16.2494 40.4807 16.2238 40.567 16.2268C40.5231 16.3012 40.461 16.3424 40.3711 16.3323Z" fill="#A5B7FF"/>
<path d="M43.2193 32.0479C43.1896 32.0128 43.1644 31.9809 43.1372 31.951C43.002 31.8021 43.0774 31.5844 42.9637 31.427C42.8547 31.2764 42.7414 31.1271 42.6988 30.9396C42.6896 30.8994 42.6734 30.8608 42.6599 30.8215C42.6165 30.696 42.6376 30.5738 42.693 30.4599C42.7469 30.3492 42.7982 30.2364 42.8995 30.1538C43.108 29.984 43.199 29.7585 43.1712 29.493C43.13 29.1006 43.2349 28.7591 43.4885 28.4567C43.5823 28.3448 43.6212 28.2045 43.6491 28.0581C43.6958 27.8129 43.7885 27.5878 43.97 27.4019C44.1039 27.2647 44.1715 27.0904 44.1648 26.893C44.1542 26.5771 44.2484 26.2835 44.355 25.9921C44.3833 25.9152 44.4181 25.8332 44.4167 25.7541C44.4136 25.5642 44.4668 25.3892 44.5092 25.2077C44.5511 25.0285 44.5614 24.8456 44.6386 24.6703C44.6859 24.5631 44.675 24.4275 44.6776 24.3042C44.6808 24.1598 44.6695 24.0152 44.6656 23.8706C44.6627 23.7604 44.7229 23.6752 44.7778 23.5874C44.8117 23.5332 44.8854 23.5168 44.9214 23.558C45.0174 23.6677 45.1023 23.7837 45.1423 23.927C45.1697 24.0258 45.1842 24.1314 45.2292 24.2216C45.3168 24.3971 45.3399 24.5776 45.3051 24.7652C45.2623 24.9951 45.2681 25.213 45.3692 25.4325C45.4308 25.5664 45.4129 25.7202 45.3486 25.8557C45.2456 26.073 45.2376 26.2957 45.2927 26.5232C45.3299 26.6771 45.2949 26.809 45.196 26.9286C45.087 27.0601 45.0254 27.2084 45.0182 27.3824C45.0068 27.6565 44.916 27.909 44.7696 28.1378C44.6881 28.265 44.6254 28.3991 44.6411 28.5445C44.6645 28.7588 44.5754 28.9503 44.5543 29.1527C44.5319 29.3688 44.4582 29.5556 44.3291 29.7202C44.2088 29.8736 44.1381 30.0374 44.1436 30.2337C44.1479 30.3885 44.0746 30.5229 43.9763 30.625C43.7626 30.8468 43.641 31.0899 43.6713 31.406C43.6783 31.4795 43.6391 31.5725 43.5915 31.633C43.4773 31.7785 43.3454 31.9099 43.2201 32.0477L43.2193 32.0479Z" fill="#FCFCFC"/>
<path d="M35.3694 41.0172C35.3694 41.4131 35.4789 41.8006 35.4536 42.2049C35.4346 42.4902 35.588 42.7587 35.5638 43.0436C35.3956 45.0293 35.4821 47.0586 34.6028 48.927C34.4933 49.1544 34.3754 49.3819 34.2659 49.6093C34.1395 49.8704 34.0216 50.1316 33.8953 50.3927C33.88 50.4222 33.869 50.4507 33.8617 50.4781C33.7897 50.7498 33.6706 51.0985 33.7436 51.3698C33.9037 51.9932 33.8026 52.6334 33.9626 53.2652C34.0721 53.72 33.6594 54.1496 33.1877 54.1918C32.7244 54.2339 32.2526 53.8801 32.2442 53.4252C32.2274 52.7597 32.101 52.0774 32.3369 51.4204C32.3706 51.3277 32.3537 51.193 32.32 51.0919C32.2442 50.8392 32.1431 50.5949 32.0589 50.3506C31.7893 49.3734 32.4969 48.986 33.1287 48.5479C33.1455 48.5142 33.1624 48.4805 33.1708 48.4468C33.2214 47.9751 33.7942 47.6719 33.592 47.1243C33.6257 46.6358 33.6847 46.1556 33.6931 45.667C33.6931 45.3301 33.6931 45.0016 33.8194 44.6731C33.87 44.5467 33.8531 44.3782 33.8194 44.235C33.6931 43.6875 33.7184 43.1231 33.651 42.5671C33.5836 42.0112 33.533 41.4552 33.4825 40.8908C33.4656 40.7392 33.4825 40.5876 33.5078 40.4444C33.6257 39.7705 33.5583 39.105 33.432 38.4396C33.373 38.111 33.3646 37.7657 33.3561 37.4287C33.3561 37.016 33.3056 36.6032 33.1371 36.2241C33.1034 36.1568 33.095 36.0809 33.0697 36.0136C32.7581 35.2049 32.8339 34.4046 33.0529 33.5876C33.2045 33.0147 33.3224 32.4251 33.4488 31.8439C33.4572 31.7933 33.4067 31.7007 33.3561 31.6585C33.3056 31.6164 33.2214 31.608 33.154 31.5827C32.3958 31.2458 32.2358 30.8751 32.5054 30.0665C32.6032 29.7891 32.7515 29.5237 33.0007 29.3675C33.681 28.9411 34.4165 28.9184 35.1886 29.1328C35.3891 29.1885 35.467 29.3886 35.6052 29.5442C35.7232 29.6874 35.9001 29.7801 36.0264 29.9148C36.3718 30.2939 36.296 30.9088 35.8664 31.1952C35.7737 31.2542 35.6726 31.33 35.5631 31.3384C35.1672 31.3974 35.0914 31.6585 35.1083 31.9871C35.1251 32.4419 35.083 32.88 34.8724 33.3011C34.7039 33.6465 34.7123 34.0256 34.7629 34.4046C34.8387 34.9269 34.9314 35.4408 34.9903 35.963C35.0324 36.3 35.0998 36.6285 35.2346 36.9402C35.4705 37.4708 35.4873 38.0268 35.3778 38.5996C35.3622 38.6825 35.3491 38.7654 35.3394 38.8483C35.2545 39.5681 35.3525 40.2926 35.3694 41.0172Z" fill="#13C0B5"/>
<path d="M40.4139 31.773C40.5472 31.393 40.9101 31.1173 41.3085 31.0583C41.5275 31.0246 41.7465 30.9488 41.9655 30.9656C42.3451 30.9903 42.7103 30.9514 43.0712 30.8829C43.5075 30.8 44.0484 30.9627 44.3241 31.311C44.7537 31.8754 44.5937 32.5829 43.9703 32.9367C43.844 33.0125 43.6923 33.0547 43.5576 33.1221C43.4396 33.1726 43.3807 33.2905 43.4144 33.3916C43.5997 33.9813 43.5828 34.5709 43.4733 35.169C43.4312 35.3964 43.1448 35.6239 42.8837 35.5986C42.7405 35.5902 42.572 35.5481 42.4709 35.4554C42.1929 35.2027 41.9402 34.9247 41.6875 34.6552C41.5275 34.4867 41.4517 34.2761 41.4432 34.0402C41.4432 33.737 41.4432 33.4421 41.4264 33.1389C41.4264 33.0715 41.3674 32.9873 41.3169 32.9536C41.1568 32.8609 40.9799 32.7935 40.8115 32.7093C40.6346 32.6251 40.5251 32.4819 40.4408 32.305C40.3734 32.1702 40.3397 32.0186 40.3819 31.8669C40.3856 31.8545 40.3973 31.8203 40.4139 31.773Z" fill="#14C0B6"/>
<path d="M40.397 47.009C40.3472 46.7726 40.2348 46.5703 40.326 46.3466C40.3796 46.2154 40.3977 46.0724 40.3549 45.9055C40.2791 45.6107 40.3296 45.3158 40.397 45.0294C40.4812 44.6419 40.7003 44.364 41.0035 44.1365C41.2562 43.9428 41.6942 44.027 41.888 44.2966C42.0733 44.5493 42.1323 44.8273 42.1575 45.1305C42.1739 45.3755 42.3593 45.6442 42.2326 45.8544C42.1596 45.9755 42.1101 46.1095 42.1154 46.2846C42.1323 46.8574 42.048 47.4049 41.8206 47.9356C41.6858 48.2388 41.2815 48.3989 40.9614 48.2725C40.7339 48.1883 40.5823 48.0198 40.5318 47.784C40.4728 47.5313 40.4475 47.2617 40.397 47.009Z" fill="#14BFB4"/>
</g>
<defs>
<clipPath id="clip0_4799_67132">
<rect width="60" height="48" fill="white"/>
</clipPath>
</defs>
</svg>
