<svg width="25" height="24" viewBox="0 0 25 24" fill="none" xmlns="http://www.w3.org/2000/svg">
<g id="&#225;&#132;&#128;&#225;&#133;&#179;&#225;&#134;&#183;&#225;&#132;&#139;&#225;&#133;&#178;&#225;&#134;&#188;&#225;&#132;&#139;&#225;&#133;&#161;&#225;&#132;&#139;&#225;&#133;&#181;&#225;&#132;&#143;&#225;&#133;&#169;&#225;&#134;&#171;_SVG_BNK 1" clip-path="url(#clip0_1736_10077)">
<path id="Vector" d="M11.9562 0.012652C5.33599 0.311096 0.211098 5.91999 0.512654 12.5415C0.81421 19.1631 6.42177 24.2853 13.0429 23.9875C19.664 23.6898 24.788 18.0764 24.4873 11.4567C24.1867 4.83687 18.5787 -0.288904 11.9562 0.012652Z" fill="#D71921"/>
<path id="Vector_2" d="M18.9261 10.5816H19.2972C19.309 10.5816 19.3203 10.5769 19.3287 10.5686C19.337 10.5602 19.3417 10.5489 19.3417 10.5371V9.83937C19.3417 9.82781 19.3372 9.8167 19.3291 9.8084C19.3211 9.8001 19.3101 9.79527 19.2986 9.79492H18.7764C18.1735 9.79492 17.8537 9.98692 17.6724 10.3967L16.539 13.1727C16.4704 13.3383 16.3715 13.4171 16.1761 13.4171V9.83937C16.1761 9.82781 16.1716 9.8167 16.1636 9.8084C16.1555 9.8001 16.1446 9.79527 16.133 9.79492H15.2984C15.2868 9.79492 15.2757 9.79942 15.2674 9.80746C15.2591 9.81551 15.2543 9.82648 15.2539 9.83803V14.1269C15.2541 14.1475 15.2625 14.1672 15.2771 14.1817C15.2918 14.1961 15.3115 14.2043 15.3321 14.2043H16.2655C16.8684 14.2043 17.1435 14.0123 17.3257 13.6014L18.4441 10.8605C18.5344 10.6663 18.6635 10.5811 18.9241 10.5811" fill="white"/>
<path id="Vector_3" d="M8.74862 11.9996C9.08462 11.8611 9.35951 11.5491 9.35951 11.0314C9.35951 10.2634 8.69906 9.79492 7.90173 9.79492H5.43995C5.42816 9.79492 5.41686 9.7996 5.40853 9.80794C5.40019 9.81627 5.39551 9.82758 5.39551 9.83937V10.5383C5.39551 10.55 5.40019 10.5613 5.40853 10.5697C5.41686 10.578 5.42816 10.5827 5.43995 10.5827H7.73151C8.10106 10.5827 8.35106 10.8087 8.35106 11.0867C8.35106 11.3647 8.10017 11.5903 7.73151 11.5903H6.37062V11.0705C6.37062 11.0587 6.36594 11.0474 6.3576 11.0391C6.34927 11.0307 6.33796 11.026 6.32617 11.026H5.43995C5.42816 11.026 5.41686 11.0307 5.40853 11.0391C5.40019 11.0474 5.39551 11.0587 5.39551 11.0705V14.1594C5.39551 14.1712 5.40019 14.1825 5.40853 14.1908C5.41686 14.1991 5.42816 14.2038 5.43995 14.2038H7.8664C8.77351 14.2038 9.42195 13.7816 9.42195 12.918C9.42195 12.494 9.17195 12.1438 8.74995 11.9983M7.77995 13.4349H6.37062V12.402H7.7784C8.15817 12.402 8.4144 12.6338 8.4144 12.9189C8.4144 13.204 8.15817 13.4358 7.7784 13.4358" fill="white"/>
<path id="Vector_4" d="M19.7891 14.1548L18.3615 12.3279C18.3578 12.3226 18.3511 12.3234 18.3495 12.3279L17.9655 13.2686C17.9641 13.2711 17.9634 13.2741 17.9634 13.277C17.9634 13.28 17.9641 13.2829 17.9655 13.2854L18.5891 14.1219C18.6075 14.149 18.6328 14.1708 18.6622 14.1851C18.6917 14.1994 18.7244 14.2057 18.7571 14.2034H19.7651C19.7711 14.2039 19.7771 14.2025 19.7823 14.1994C19.7876 14.1964 19.7917 14.1918 19.7943 14.1864C19.7968 14.1809 19.7977 14.1748 19.7967 14.1688C19.7957 14.1628 19.7929 14.1573 19.7887 14.153" fill="white"/>
<path id="Vector_5" d="M10.9866 11.0273H10.1524C10.1406 11.0273 10.1293 11.032 10.1209 11.0404C10.1126 11.0487 10.1079 11.06 10.1079 11.0718V14.1607C10.1079 14.1725 10.1126 14.1838 10.1209 14.1921C10.1293 14.2004 10.1406 14.2051 10.1524 14.2051H10.9866C10.9984 14.2051 11.0097 14.2004 11.018 14.1921C11.0263 14.1838 11.031 14.1725 11.031 14.1607V11.0718C11.031 11.06 11.0263 11.0487 11.018 11.0404C11.0097 11.032 10.9984 11.0273 10.9866 11.0273Z" fill="white"/>
<path id="Vector_6" d="M14.4149 9.79514H13.5827C13.5709 9.79514 13.5596 9.79983 13.5513 9.80816C13.5429 9.8165 13.5383 9.8278 13.5383 9.83959V13.4174C13.3429 13.4174 13.244 13.3387 13.1754 13.1729L12.042 10.3971C11.8592 9.98825 11.5389 9.79514 10.938 9.79514H10.1514C10.1396 9.79514 10.1283 9.79983 10.12 9.80816C10.1116 9.8165 10.1069 9.8278 10.1069 9.83959V10.5385C10.1069 10.5503 10.1116 10.5616 10.12 10.5699C10.1283 10.5782 10.1396 10.5829 10.1514 10.5829H10.7887C11.0509 10.5829 11.1809 10.6678 11.2687 10.8623L12.3865 13.6027C12.5689 14.0129 12.844 14.2056 13.4463 14.2056H14.3796C14.3898 14.2056 14.3999 14.2037 14.4094 14.1998C14.4189 14.196 14.4275 14.1903 14.4347 14.1831C14.442 14.1759 14.4478 14.1674 14.4517 14.158C14.4557 14.1486 14.4578 14.1385 14.4578 14.1283V9.83937C14.4578 9.82758 14.4531 9.81627 14.4448 9.80794C14.4365 9.7996 14.4252 9.79492 14.4134 9.79492" fill="white"/>
</g>
<defs>
<clipPath id="clip0_1736_10077">
<rect width="24" height="24" fill="white" transform="translate(0.5)"/>
</clipPath>
</defs>
</svg>
