<svg width="25" height="24" viewBox="0 0 25 24" fill="none" xmlns="http://www.w3.org/2000/svg">
<g id="&#225;&#132;&#128;&#225;&#133;&#179;&#225;&#134;&#183;&#225;&#132;&#139;&#225;&#133;&#178;&#225;&#134;&#188;&#225;&#132;&#139;&#225;&#133;&#161;&#225;&#132;&#139;&#225;&#133;&#181;&#225;&#132;&#143;&#225;&#133;&#169;&#225;&#134;&#171;_SVG_&#225;&#132;&#146;&#225;&#133;&#161;&#225;&#132;&#130;&#225;&#133;&#161; 1" clip-path="url(#clip0_1736_9932)">
<path id="Vector" d="M11.9562 0.012652C5.33599 0.311096 0.211098 5.91999 0.512654 12.5415C0.81421 19.1631 6.42177 24.2853 13.0429 23.9875C19.664 23.6898 24.788 18.0764 24.4873 11.4567C24.1867 4.83687 18.5787 -0.288904 11.9562 0.012652Z" fill="#009591"/>
<path id="Vector_2" d="M15.1572 13.6929C15.1253 13.4958 15.0687 13.3036 14.9888 13.1207C14.7356 12.5749 14.3834 12.1164 13.8554 11.8095C13.4576 11.5736 13.003 11.4504 12.5405 11.4532C12.0779 11.456 11.6248 11.5846 11.2299 11.8253C10.8613 12.0473 10.5623 12.368 10.3665 12.7511C10.3013 12.8816 10.2466 13.017 10.203 13.1562C9.98942 13.8369 9.99676 14.7515 10.383 15.3729C10.5049 15.5794 10.69 15.7412 10.911 15.8344C11.0218 15.8792 11.1415 15.8978 11.2607 15.8885C11.3798 15.8793 11.4953 15.8426 11.5979 15.7813C11.8561 15.6147 11.9028 15.2964 11.8543 15.0133C11.7932 14.6509 11.7468 14.2933 11.8796 13.9409C11.9203 13.8264 11.9859 13.7223 12.0716 13.6362C12.1255 13.5856 12.1869 13.5436 12.2536 13.5118C12.3935 13.4411 12.5517 13.4153 12.7068 13.438C12.975 13.4811 13.1956 13.69 13.315 13.9347C13.4343 14.1793 13.4665 14.4564 13.4796 14.7287C13.5368 15.9138 13.2539 17.1411 12.9516 18.2807C12.9196 18.3977 12.8876 18.5145 12.8556 18.6311C12.8301 18.7213 12.7836 18.836 12.8412 18.9233C12.8676 18.9602 12.9043 18.9884 12.9468 19.0044C13.1214 19.0751 13.2663 18.9671 13.3841 18.8489C14.0785 18.15 14.5241 17.2489 14.8285 16.3202C14.9446 15.9748 15.0372 15.622 15.1056 15.2642C15.1945 14.7738 15.2461 14.2115 15.1588 13.6942" fill="white"/>
<path id="Vector_3" d="M20.1322 8.21299C20.1322 8.03521 19.9746 7.91743 19.8057 7.9241C19.6368 7.93076 19.4739 8.0201 19.3168 8.07965C16.2602 9.24165 12.8124 9.46254 9.59104 8.99788C9.04015 8.91876 8.48193 8.80587 7.92704 8.72054C7.58082 8.66676 7.23815 8.58854 6.88838 8.56165C6.59015 8.53943 6.21926 8.52788 5.97726 8.73587C5.65904 9.00987 5.68149 9.52965 5.86193 9.87387C6.07838 10.2868 6.45771 10.5939 6.85171 10.831C7.23571 11.059 7.69215 11.3028 8.14771 11.2737C9.37882 11.1947 10.6064 11.0762 11.8304 10.9181C13.9177 10.6468 16.1055 10.3901 18.065 9.58165C18.7062 9.31676 19.3384 8.98654 19.8888 8.55943C19.9893 8.48454 20.1333 8.35943 20.1333 8.21476" fill="white"/>
<path id="Vector_4" d="M11.3654 7.16648C11.3728 7.48052 11.5027 7.7792 11.7274 7.99869C11.9521 8.21818 12.2538 8.34105 12.5679 8.34105C12.882 8.34105 13.1837 8.21818 13.4084 7.99869C13.6331 7.7792 13.7631 7.48052 13.7705 7.16648C13.7701 7.06659 13.7479 6.96797 13.7054 6.87759C13.602 6.65915 13.4865 6.55359 13.4974 6.29159C13.5134 5.93826 13.0603 5.93359 12.8169 5.93359C12.5503 5.93359 12.2687 5.97048 12.0287 6.09093C11.8333 6.18901 11.6683 6.33835 11.5513 6.52299C11.4342 6.70763 11.3696 6.92061 11.3643 7.13915V7.16715" fill="white"/>
</g>
<defs>
<clipPath id="clip0_1736_9932">
<rect width="24" height="24" fill="white" transform="translate(0.5)"/>
</clipPath>
</defs>
</svg>
