<svg width="25" height="24" viewBox="0 0 25 24" fill="none" xmlns="http://www.w3.org/2000/svg">
<g id="&#225;&#132;&#128;&#225;&#133;&#179;&#225;&#134;&#183;&#225;&#132;&#139;&#225;&#133;&#178;&#225;&#134;&#188;&#225;&#132;&#139;&#225;&#133;&#161;&#225;&#132;&#139;&#225;&#133;&#181;&#225;&#132;&#143;&#225;&#133;&#169;&#225;&#134;&#171;_SVG_KB 1" clip-path="url(#clip0_1736_9912)">
<path id="Vector" d="M11.9562 0.012652C5.33599 0.311096 0.211098 5.91999 0.512654 12.5415C0.81421 19.1631 6.42177 24.2853 13.0429 23.9875C19.664 23.6898 24.788 18.0764 24.4873 11.4567C24.1867 4.83687 18.5787 -0.288904 11.9562 0.012652Z" fill="#60584C"/>
<path id="Vector_2" d="M9.43649 12.3409C9.45138 13.3998 9.50515 14.6094 9.69137 15.5703C9.69185 15.5766 9.694 15.5828 9.6976 15.588C9.84538 15.8049 9.99937 16.6656 10.1209 16.9354C10.1278 16.9461 10.137 16.9551 10.1478 16.9618C10.2314 17.0189 10.5207 17.134 10.7103 17.1107C10.7161 17.1111 10.7219 17.1091 10.7263 17.1052C10.7307 17.1014 10.7334 17.0959 10.7338 17.09C10.7765 16.8678 10.7492 16.658 10.7238 16.2496C10.6572 15.2445 10.584 13.6451 10.5956 12.6754C11.3823 13.1136 14.3325 15.2285 15.8707 15.6669C15.8873 15.6718 15.9048 15.6722 15.9216 15.6684C15.9384 15.6645 15.954 15.6563 15.9667 15.6447C16.0483 15.5594 16.1 15.5445 16.1934 15.5051C16.236 15.4854 16.286 15.3718 16.2749 15.242C17.2494 15.206 18.6009 14.832 19.31 13.9411C19.7989 13.3283 19.79 12.4745 19.4856 12.1874C19.4574 12.1623 19.3998 12.1476 19.358 12.1063C18.8934 11.6436 18.2625 11.5191 17.5863 11.5596C16.9 11.6003 16.3494 11.8878 15.9223 12.1576C15.9223 12.1576 15.9178 12.1576 15.9169 12.1547C15.88 11.498 16.1425 10.6643 15.9125 10.1247C15.909 10.1151 15.9023 10.1071 15.8936 10.1019C15.8848 10.0967 15.8746 10.0946 15.8645 10.096C15.6592 10.0994 15.2598 10.2434 15.1734 10.3183C15.1631 10.3267 15.1549 10.3374 15.1495 10.3496C15.1441 10.3617 15.1416 10.375 15.1423 10.3883C15.1398 10.5414 15.0943 11.3391 15.0165 11.416C15.0025 11.4305 15.0067 11.4451 15.0025 11.4778C14.9118 12.4378 14.9136 13.2538 14.9963 13.9423C14.9992 13.9645 15.0923 14.0623 15.2036 14.1025C15.28 14.1303 15.5847 14.0674 15.8467 13.9691C15.8796 13.959 15.9137 13.9531 15.948 13.9518C15.9749 13.9518 15.9856 13.9187 15.9832 13.8869C15.9787 13.8117 15.9809 13.7362 15.9898 13.6614C16.14 13.0523 16.7616 12.2598 17.5454 12.1387C18.0445 12.0605 18.3738 12.2347 18.6014 12.484C18.6607 12.5491 18.7318 13.0396 18.4487 13.5696C18.2443 13.9536 17.8314 14.2896 17.2736 14.5009C16.6865 14.7231 16.0972 14.7707 15.4865 14.7485C14.8909 14.3896 13.8925 13.5576 13.0165 13.2265C12.8778 13.1723 12.6298 12.9558 12.5198 12.8669C12.0947 12.5247 11.1852 11.932 10.6452 11.5687C10.6412 11.5651 10.6412 11.5614 10.6412 11.5538C10.6351 11.5158 10.6376 11.4769 10.6485 11.44C10.6517 11.4296 10.6571 11.4199 10.6643 11.4116C10.6715 11.4033 10.6803 11.3967 10.6903 11.392C10.8798 11.2663 11.6789 10.8289 11.7463 10.7254C11.7734 10.7017 11.8032 10.6812 11.8352 10.6645C13.0352 9.9367 15.1438 8.95025 16.0654 7.99781C16.0763 7.98147 16.081 7.96175 16.0785 7.94225C16.079 7.90329 16.0848 7.86458 16.0956 7.82714C16.135 7.71238 16.1384 7.58834 16.1054 7.47159C16.1028 7.46274 16.0982 7.45462 16.092 7.44786C16.0857 7.44111 16.078 7.43592 16.0694 7.4327C15.5778 7.3847 14.924 7.68381 14.3163 8.25337C14.1358 8.42248 13.9909 8.48536 13.8307 8.57648C13.1418 8.96759 11.5107 9.98048 10.7323 10.4816C10.7305 10.4831 10.7283 10.4841 10.726 10.4844C10.7237 10.4847 10.7214 10.4843 10.7193 10.4833C10.7172 10.4822 10.7154 10.4806 10.7142 10.4787C10.713 10.4767 10.7124 10.4744 10.7125 10.472C10.7612 9.55581 10.9365 8.25136 11.1298 7.2447C11.1346 7.21973 11.1299 7.19387 11.1165 7.17225C11.0532 7.07625 11.0156 6.96248 10.9925 6.93848C10.9896 6.9349 10.9861 6.93195 10.982 6.92981C10.85 6.86314 10.7445 6.88803 10.646 6.9107C10.5476 6.93336 10.4276 7.01092 10.2732 7.04803C10.2641 7.04956 10.2556 7.05337 10.2485 7.05908C10.2413 7.06479 10.2358 7.07223 10.2323 7.0807C9.85982 8.00559 9.52382 9.5887 9.45849 10.816C9.45849 10.8203 9.45849 10.8289 9.45026 10.8236C8.84053 10.4346 8.2079 10.0828 7.55582 9.77003C7.54637 9.76633 7.53653 9.76372 7.52649 9.76225C7.38249 9.7447 7.21649 9.63892 7.06182 9.54692C6.89093 9.44359 6.55493 9.20603 6.34515 9.0847C6.33498 9.07729 6.32343 9.07199 6.31118 9.06909C6.29894 9.06619 6.28624 9.06575 6.27382 9.06781C6.10582 9.0967 5.75626 9.33025 5.65937 9.48159C5.62804 9.52959 5.69249 9.6327 5.68471 9.69648C5.68395 9.69985 5.68409 9.70337 5.6851 9.70668C5.68612 9.70999 5.68797 9.71299 5.69049 9.71536C5.88537 9.91536 6.39893 10.2709 6.9476 10.5649C7.58115 10.9067 8.22582 11.2316 8.49315 11.4005C8.49976 11.4049 8.50536 11.4106 8.5096 11.4174C8.55037 11.4621 8.59922 11.4988 8.6536 11.5254C8.77982 11.6007 8.80626 11.6094 8.84271 11.642C8.85938 11.6578 8.85137 11.6756 8.83404 11.69C8.16204 12.1567 6.83249 13.0205 6.19693 13.4474C6.0253 13.5402 5.84908 13.6243 5.66893 13.6994C5.50715 13.766 5.36182 13.8731 5.3056 13.9949C5.29449 14.0171 5.30937 14.0305 5.32626 14.0358C5.42849 14.0645 5.45337 14.1365 5.52449 14.1645C5.55056 14.1718 5.57765 14.1749 5.60471 14.1736C5.73671 14.1787 5.97026 14.0891 6.38737 13.9069C6.86315 13.6951 8.34404 12.7869 8.52293 12.6829C8.52627 12.6801 8.53057 12.6787 8.53493 12.6789C8.62093 12.6789 8.70049 12.6151 8.77937 12.5543C8.91138 12.4577 9.05214 12.3738 9.19982 12.3036L9.43982 12.1703L9.43649 12.3409Z" fill="#FFCC00"/>
</g>
<defs>
<clipPath id="clip0_1736_9912">
<rect width="24" height="24" fill="white" transform="translate(0.5)"/>
</clipPath>
</defs>
</svg>
