<svg width="25" height="24" viewBox="0 0 25 24" fill="none" xmlns="http://www.w3.org/2000/svg">
<g id="&#225;&#132;&#128;&#225;&#133;&#179;&#225;&#134;&#183;&#225;&#132;&#139;&#225;&#133;&#178;&#225;&#134;&#188;&#225;&#132;&#139;&#225;&#133;&#161;&#225;&#132;&#139;&#225;&#133;&#181;&#225;&#132;&#143;&#225;&#133;&#169;&#225;&#134;&#171;_SVG_&#225;&#132;&#130;&#225;&#133;&#169;&#225;&#134;&#188;&#225;&#132;&#146;&#225;&#133;&#167;&#225;&#134;&#184; 1" clip-path="url(#clip0_1736_9925)">
<path id="Vector" d="M12.5 24C19.1274 24 24.5 18.6274 24.5 12C24.5 5.37258 19.1274 0 12.5 0C5.87258 0 0.5 5.37258 0.5 12C0.5 18.6274 5.87258 24 12.5 24Z" fill="#005BAC"/>
<path id="Vector_2" d="M14.8658 6L12.4998 7.18756L10.1338 6L12.4998 10.498L14.8658 6Z" fill="#FABE00"/>
<path id="Vector_3" d="M15.6936 9.47604L15.6582 9.44382L17.3447 8.73537V6.35938L14.4113 7.61026C14.4113 7.61026 12.8242 10.6198 12.7873 10.6905C13.4123 10.764 13.9855 11.0735 14.3897 11.5557C14.7939 12.0379 14.9986 12.6564 14.9618 13.2845C14.925 13.9127 14.6495 14.503 14.1918 14.9348C13.734 15.3665 13.1286 15.6069 12.4993 15.6069C11.8701 15.6069 11.2647 15.3665 10.8069 14.9348C10.3491 14.503 10.0737 13.9127 10.0369 13.2845C10.0001 12.6564 10.2047 12.0379 10.609 11.5557C11.0132 11.0735 11.5864 10.764 12.2113 10.6905C12.1758 10.6214 10.5891 7.61026 10.5891 7.61026L7.66089 6.35938V8.73537L9.34844 9.44537L9.312 9.47649C7.28978 11.2394 7.07889 14.308 8.84178 16.3307C10.6047 18.3534 13.6736 18.5638 15.696 16.8009C17.7184 15.038 17.9291 11.9694 16.1669 9.94671C16.0211 9.77937 15.864 9.62226 15.6967 9.47649L15.6936 9.47604Z" fill="#FABE00"/>
</g>
<defs>
<clipPath id="clip0_1736_9925">
<rect width="24" height="24" fill="white" transform="translate(0.5)"/>
</clipPath>
</defs>
</svg>
