<svg width="25" height="24" viewBox="0 0 25 24" fill="none" xmlns="http://www.w3.org/2000/svg">
<g id="&#225;&#132;&#128;&#225;&#133;&#179;&#225;&#134;&#183;&#225;&#132;&#139;&#225;&#133;&#178;&#225;&#134;&#188;&#225;&#132;&#139;&#225;&#133;&#161;&#225;&#132;&#139;&#225;&#133;&#181;&#225;&#132;&#143;&#225;&#133;&#169;&#225;&#134;&#171;_SVG_&#225;&#132;&#137;&#225;&#133;&#181;&#225;&#134;&#171;&#225;&#132;&#146;&#225;&#133;&#161;&#225;&#134;&#171; 1" clip-path="url(#clip0_1736_10095)">
<path id="Vector" d="M11.9562 0.012652C5.33599 0.311096 0.211098 5.91999 0.512654 12.5415C0.81421 19.1631 6.42177 24.2853 13.0429 23.9875C19.664 23.6898 24.788 18.0764 24.4873 11.4567C24.1867 4.83687 18.5787 -0.288904 11.9562 0.012652Z" fill="#0575CA"/>
<path id="Vector_2" d="M12.1736 4.80001C8.19845 4.98045 5.12223 8.34957 5.30245 12.3253C5.48268 16.3011 8.85112 19.3778 12.8265 19.1976C16.8018 19.0173 19.8778 15.6482 19.6976 11.6725C19.5173 7.69801 16.1498 4.62223 12.176 4.80245H12.1736V4.80001ZM12.9069 11.8222C14.0418 12.8691 15.0778 13.8285 15.0778 13.8285C16.6311 15.5056 15.7565 16.7556 15.3222 17.0831C14.6698 17.5785 13.9889 17.7418 13.142 17.7871C13.0665 17.7985 12.9273 17.7549 12.9198 17.6198C12.9151 17.4758 13.1253 17.4398 13.1253 17.4398C15.0125 17.0678 14.4111 15.8222 13.7445 15.1909C13.4631 14.9242 10.8851 12.6645 10.8851 12.6645C8.37912 10.5073 8.57845 8.82223 8.57845 8.82223C8.73979 6.70423 10.5131 6.23468 11.8873 6.35401C12.0478 6.36779 12.1367 6.46512 12.1096 6.59979C12.0782 6.74401 11.8651 6.75534 11.8651 6.75534C11.428 6.78179 11.038 6.8269 10.74 7.02712C9.63534 7.77134 9.96223 9.03623 11.4356 10.4462C11.6211 10.624 11.8198 10.81 12.0202 11.0002C12.02 11.0013 12.3182 11.262 12.9071 11.8222H12.9069ZM12.0507 17.1811C12.0627 17.3836 11.5705 17.4718 11.0089 17.4167C10.3038 17.3473 9.46268 17.1245 8.72868 16.4909C8.05623 15.9076 7.6369 15.1053 7.43423 14.402C7.22623 13.6813 7.14023 12.8382 7.48223 12.9047C7.58845 12.9247 7.77112 13.3889 7.96779 13.7269C8.17201 14.0749 8.33912 14.268 8.49623 14.3856C8.56579 14.4389 8.80734 13.9029 9.15712 13.5987C9.35979 13.4311 9.58179 13.3729 9.61823 13.8745C9.66268 14.4898 9.55156 15.2196 9.73112 15.2196C9.89934 15.2196 10.2769 15.0927 11.1073 15.0218C11.4196 14.9947 11.5982 15.0545 11.2996 15.4747C11.0828 15.8045 10.8057 16.0906 10.4829 16.3178C11.1889 16.9789 12.0353 16.8987 12.0507 17.1811ZM12.6073 10.7496C12.5547 10.5438 12.542 10.2829 12.5851 9.94823C12.674 9.25201 12.8611 8.9249 13.074 8.3849C13.3629 7.65957 12.6616 7.23534 12.7787 6.96823C12.9358 6.60645 13.4362 7.06423 13.9953 7.09979C14.4758 7.12623 14.7638 7.09979 15.138 7.15179C15.6347 7.21845 16.2289 7.38668 16.4936 7.6969C16.7367 7.98134 16.3662 8.32823 15.92 8.11068C15.5942 7.95201 15.1842 8.05001 15.4247 8.38934C15.7136 8.71201 15.8571 8.70912 16.228 8.8369C17.0229 9.1089 16.9965 9.80223 16.4253 10.1822C15.7365 10.6376 15.1682 10.4631 14.9142 9.56445C14.7869 9.11556 14.4698 8.8869 14.1456 9.01468C13.8213 9.14245 14.0136 9.73201 14.2596 10.2787C14.7498 11.5327 13.5302 11.4902 13.3882 11.4729C13.2038 11.4366 13.0331 11.3497 12.8952 11.222C12.7573 11.0943 12.6576 10.9307 12.6073 10.7496Z" fill="white"/>
</g>
<defs>
<clipPath id="clip0_1736_10095">
<rect width="24" height="24" fill="white" transform="translate(0.5)"/>
</clipPath>
</defs>
</svg>
