<svg width="25" height="24" viewBox="0 0 25 24" fill="none" xmlns="http://www.w3.org/2000/svg">
<g id="&#225;&#132;&#128;&#225;&#133;&#179;&#225;&#134;&#183;&#225;&#132;&#139;&#225;&#133;&#178;&#225;&#134;&#188;&#225;&#132;&#139;&#225;&#133;&#161;&#225;&#132;&#139;&#225;&#133;&#181;&#225;&#132;&#143;&#225;&#133;&#169;&#225;&#134;&#171;_SVG_&#225;&#132;&#137;&#225;&#133;&#181;&#225;&#134;&#171;&#225;&#132;&#146;&#225;&#133;&#167;&#225;&#134;&#184; 1" clip-path="url(#clip0_1736_10060)">
<path id="Vector" d="M11.9562 0.012652C5.33599 0.311096 0.211098 5.91999 0.512654 12.5415C0.81421 19.1631 6.42177 24.2853 13.0429 23.9875C19.664 23.6898 24.788 18.0764 24.4873 11.4567C24.1867 4.83687 18.5787 -0.288904 11.9562 0.012652Z" fill="#0C59FF"/>
<path id="Vector_2" d="M18.3283 13.7631C17.6917 15.3471 16.6248 15.7925 16.6248 15.7925C19.7634 12.612 17.847 8.94801 17.847 8.94801C17.3839 8.12579 17.9737 7.76868 17.9737 7.76868C16.6248 8.10445 17.0461 9.22134 17.0461 9.22134C17.7234 10.8347 17.5872 12.1456 17.3572 12.9562L16.9128 12.7071L16.9199 12.6969C16.9199 12.6969 17.9721 8.54979 13.6799 7.09534L13.6761 6.3149H12.7703V11.4538L16.9828 13.8538C16.9059 14.0099 16.8249 14.1571 16.7399 14.2953L12.5092 11.8436L8.26034 14.2953C8.17545 14.1568 8.09449 14.0096 8.01745 13.8538L12.2299 11.4538V6.31445H11.3241L11.3208 7.0949C7.02811 8.54934 8.08034 12.6965 8.08034 12.6965L8.08745 12.7067L7.643 12.9558C7.413 12.1449 7.27678 10.834 7.95411 9.2209C7.95411 9.2209 8.37634 8.1049 7.02723 7.76779C7.02723 7.76779 7.617 8.12601 7.15389 8.94712C7.15389 8.94712 5.23678 12.612 8.37612 15.7916C8.37612 15.7916 7.30945 15.3442 6.67323 13.7622C6.67323 13.7622 6.31167 12.9905 5.30078 13.1589C5.30078 13.1589 5.68478 13.3316 5.90656 14.0309C5.90656 14.0309 6.81767 16.9293 10.335 17.3713V18.9713H12.0623V16.6142C12.0623 16.6142 10.2301 16.5993 8.831 15.06L9.26545 14.8071C9.34611 14.8833 10.6761 16.1142 12.4906 16.1462H12.5117C14.3261 16.1142 15.6561 14.8833 15.7368 14.8071L16.1688 15.06C14.7688 16.5993 12.9374 16.6142 12.9374 16.6142V18.9731H14.6654V17.3731C18.1832 16.9311 19.0939 14.0327 19.0939 14.0327C19.3179 13.3325 19.7001 13.1598 19.7001 13.1598C18.6892 12.9913 18.3283 13.7631 18.3283 13.7631ZM16.0779 12.2329L16.0746 12.2371L13.6981 10.906L13.6852 8.06267H13.6981C13.6981 8.06267 16.5619 8.84156 16.0779 12.2329ZM11.303 8.06267H11.3159L11.303 10.9071L8.92656 12.2382L8.92323 12.234C8.43834 8.84156 11.303 8.06267 11.303 8.06267ZM12.5072 12.9198L14.8766 14.3049V14.3093L14.8543 14.2973C14.0072 14.9665 13.1983 15.1878 12.4988 15.1878C11.7992 15.1878 10.9906 14.9656 10.1432 14.2969L10.1221 14.3089V14.3045L12.5057 12.9193L12.5072 12.9198Z" fill="white"/>
</g>
<defs>
<clipPath id="clip0_1736_10060">
<rect width="24" height="24" fill="white" transform="translate(0.5)"/>
</clipPath>
</defs>
</svg>
