<svg width="25" height="24" viewBox="0 0 25 24" fill="none" xmlns="http://www.w3.org/2000/svg">
<g id="&#225;&#132;&#128;&#225;&#133;&#179;&#225;&#134;&#183;&#225;&#132;&#139;&#225;&#133;&#178;&#225;&#134;&#188;&#225;&#132;&#139;&#225;&#133;&#161;&#225;&#132;&#139;&#225;&#133;&#181;&#225;&#132;&#143;&#225;&#133;&#169;&#225;&#134;&#171;_SVG_&#225;&#132;&#144;&#225;&#133;&#169;&#225;&#132;&#137;&#225;&#133;&#179; 1" clip-path="url(#clip0_1737_6956)">
<path id="Vector" d="M11.9562 0.012652C5.33599 0.311096 0.211098 5.91999 0.512654 12.5415C0.81421 19.1631 6.42177 24.2853 13.0429 23.9875C19.664 23.6898 24.788 18.0764 24.4873 11.4567C24.1867 4.83687 18.5787 -0.288904 11.9562 0.012652Z" fill="#0064FF"/>
<path id="Vector_2" fill-rule="evenodd" clip-rule="evenodd" d="M13.3444 6.74219H13.2753C8.01778 6.74219 6.5 12.9822 6.5 15.9235L8.83089 14.5415C9.70933 16.1615 11.4013 17.2593 13.342 17.2593C16.1922 17.26 18.5 14.9055 18.5 12.0009C18.5 9.09619 16.1922 6.74219 13.3444 6.74219Z" fill="white"/>
</g>
<defs>
<clipPath id="clip0_1737_6956">
<rect width="24" height="24" fill="white" transform="translate(0.5)"/>
</clipPath>
</defs>
</svg>
