<svg width="25" height="24" viewBox="0 0 25 24" fill="none" xmlns="http://www.w3.org/2000/svg">
<g clip-path="url(#clip0_1736_9830)">
<path d="M11.9562 0.012652C5.33599 0.311096 0.211098 5.91999 0.512654 12.5415C0.81421 19.1631 6.42177 24.2853 13.0429 23.9875C19.664 23.6898 24.788 18.0764 24.4873 11.4567C24.1867 4.83687 18.5787 -0.288904 11.9562 0.012652Z" fill="#0062AC"/>
<path d="M19.6998 12.0008C19.6998 15.9786 16.4762 19.2008 12.4998 19.2008C8.52336 19.2008 5.2998 15.9786 5.2998 12.0008C5.2998 8.023 8.52336 4.80078 12.4998 4.80078C16.4762 4.80078 19.6998 8.02434 19.6998 12.0008Z" fill="white"/>
<path d="M12.5002 18.8389C16.2911 18.8389 19.3642 15.7658 19.3642 11.9749C19.3642 8.18399 16.2911 5.11133 12.5002 5.11133C8.70934 5.11133 5.63623 8.18399 5.63623 11.9749C5.63623 15.7658 8.70934 18.8389 12.5002 18.8389Z" fill="#007BC6"/>
<mask id="mask0_1736_9830" style="mask-type:luminance" maskUnits="userSpaceOnUse" x="5" y="5" width="15" height="14">
<path d="M12.5002 18.8393C16.2911 18.8393 19.3642 15.7662 19.3642 11.9753C19.3642 8.18445 16.2911 5.11133 12.5002 5.11133C8.70935 5.11133 5.63623 8.18445 5.63623 11.9753C5.63623 15.7662 8.70935 18.8393 12.5002 18.8393Z" fill="white"/>
</mask>
<g mask="url(#mask0_1736_9830)">
<path d="M12.5293 15.2867C15.5442 15.2867 18.128 16.1276 19.2366 17.3218C19.6178 16.4454 19.8139 15.4997 19.8126 14.544C19.8126 10.6051 16.5486 7.41602 12.5293 7.41602C8.50997 7.41602 5.24463 10.6047 5.24463 14.5442C5.24377 15.4999 5.43984 16.4455 5.82063 17.322C6.92708 16.1282 9.51285 15.2867 12.5293 15.2867Z" fill="#007BC6"/>
<path d="M12.5284 15.2937C15.5349 15.2937 18.1162 16.1281 19.2202 17.3126C19.6005 16.4437 19.7967 15.5055 19.7962 14.557C19.7962 10.6492 16.5418 7.47656 12.532 7.47656C8.52221 7.47656 5.26221 10.6497 5.26221 14.5579C5.2612 15.5064 5.45735 16.4448 5.83821 17.3135C6.93888 16.1281 9.51999 15.2937 12.5284 15.2937Z" fill="#007DC7"/>
<path d="M12.5272 15.3009C15.5272 15.3009 18.0986 16.1302 19.1992 17.3044C19.5779 16.443 19.7729 15.5121 19.7719 14.5711C19.7719 10.6944 16.5257 7.53711 12.5239 7.53711C8.52211 7.53711 5.27589 10.6951 5.27589 14.5722C5.27441 15.5136 5.47065 16.4448 5.85189 17.3056C6.953 16.1284 9.52678 15.3009 12.5272 15.3009Z" fill="#007FC9"/>
<path d="M12.5252 15.309C15.5176 15.309 18.0832 16.1312 19.181 17.2952C19.5598 16.4417 19.7545 15.5179 19.7525 14.5841C19.7525 10.7397 16.515 7.59766 12.5252 7.59766C8.53541 7.59766 5.3003 10.741 5.3003 14.5861C5.29896 15.5191 5.49337 16.442 5.87097 17.2952C6.96697 16.129 9.53386 15.309 12.5252 15.309Z" fill="#0080CA"/>
<path d="M12.5255 15.3151C15.5101 15.3151 18.0686 16.1311 19.1635 17.2855C19.5412 16.4395 19.7355 15.5231 19.7337 14.5966C19.7337 10.7844 16.5048 7.6582 12.5255 7.6582C8.54614 7.6582 5.31592 10.7853 5.31592 14.5991C5.31488 15.5256 5.50934 16.4418 5.88659 17.288C6.98059 16.1273 9.54081 15.3151 12.5255 15.3151Z" fill="#0081CB"/>
<path d="M12.5253 15.3231C15.5013 15.3231 18.0531 16.13 19.1455 17.2787C19.5214 16.44 19.7152 15.5311 19.7144 14.612C19.7144 10.8311 16.4935 7.7207 12.5253 7.7207C8.55705 7.7207 5.3335 10.8318 5.3335 14.614C5.33265 15.5332 5.52669 16.4421 5.90283 17.2807C6.99328 16.13 9.54794 15.3231 12.5253 15.3231Z" fill="#0083CC"/>
<path d="M12.5238 15.3319C15.4916 15.3319 18.0376 16.1335 19.1267 17.2701C19.5024 16.4392 19.6958 15.5376 19.6941 14.6257C19.6941 10.8764 16.4829 7.78125 12.5238 7.78125C8.56472 7.78125 5.35206 10.8764 5.35206 14.6257C5.35074 15.5375 5.54417 16.4391 5.91939 17.2701C7.00672 16.1339 9.5545 15.3319 12.5238 15.3319Z" fill="#0085CE"/>
<path d="M12.5227 15.3393C15.4838 15.3393 18.0236 16.1322 19.1093 17.2593C19.4838 16.4368 19.6768 15.5433 19.6753 14.6395C19.6751 10.9218 16.4716 7.84375 12.5227 7.84375C8.57377 7.84375 5.37111 10.9218 5.37111 14.6395C5.36935 15.5433 5.562 16.4369 5.93599 17.2597C7.02022 16.1326 9.56 15.3393 12.5227 15.3393Z" fill="#0087CF"/>
<path d="M12.521 15.347C15.475 15.347 18.0079 16.1332 19.0917 17.2526C19.4644 16.4365 19.6568 15.5497 19.6557 14.6526C19.6557 10.9661 16.4599 7.90234 12.521 7.90234C8.58214 7.90234 5.3877 10.9661 5.3877 14.653C5.3866 15.5501 5.57898 16.437 5.9517 17.253C7.0337 16.1337 9.56703 15.347 12.521 15.347Z" fill="#0089D1"/>
<path d="M12.5193 15.3555C15.4651 15.3555 17.9913 16.1346 19.0729 17.2444C19.4452 16.4361 19.6375 15.5566 19.6364 14.6666C19.6364 11.012 16.4473 7.96484 12.5193 7.96484C8.59132 7.96484 5.40577 11.0113 5.40577 14.6666C5.40472 15.5562 5.59598 16.4356 5.96643 17.2444C7.04799 16.1344 9.57221 15.3555 12.5193 15.3555Z" fill="#008BD2"/>
<path d="M12.5196 15.3625C15.4587 15.3625 17.9767 16.1345 19.0549 17.2345C19.4265 16.4344 19.6185 15.5627 19.6173 14.6805C19.6173 11.0583 16.4396 8.02539 12.5196 8.02539C8.59956 8.02539 5.42334 11.0569 5.42334 14.6801C5.42284 15.5614 5.61432 16.4324 5.98445 17.2323C7.06201 16.1345 9.58112 15.3625 12.5196 15.3625Z" fill="#008DD3"/>
<path d="M12.5194 15.3708C15.4474 15.3708 17.9611 16.1388 19.0365 17.2264C19.4063 16.4331 19.5972 15.5683 19.5956 14.693C19.5956 11.1017 16.4276 8.08594 12.5194 8.08594C8.61115 8.08594 5.44092 11.1022 5.44092 14.6944C5.43976 15.5691 5.63046 16.4334 5.99959 17.2264C7.07626 16.1364 9.58759 15.3708 12.5194 15.3708Z" fill="#008FD5"/>
<path d="M12.5187 15.3776C15.4409 15.3776 17.9461 16.136 19.0189 17.2169C19.3886 16.4315 19.5793 15.5739 19.5772 14.7058C19.5772 11.1465 16.4163 8.14648 12.5212 8.14648C8.62605 8.14648 5.4585 11.1465 5.4585 14.7067C5.45824 15.574 5.64882 16.4307 6.01672 17.216C7.08805 16.1356 9.59516 15.3776 12.5187 15.3776Z" fill="#0091D6"/>
<path d="M12.5171 15.3863C15.432 15.3863 17.932 16.1365 19.0005 17.2103C19.3684 16.4318 19.5582 15.5811 19.556 14.7201C19.556 11.1921 16.4034 8.20898 12.5169 8.20898C8.63048 8.20898 5.47803 11.1921 5.47803 14.7201C5.47683 15.5806 5.66657 16.4307 6.03359 17.209C7.10159 16.1365 9.60159 15.3863 12.5171 15.3863Z" fill="#0093D7"/>
<path d="M12.5173 15.3935C15.4222 15.3935 17.9173 16.1391 18.984 17.1993C19.3501 16.4292 19.5394 15.5869 19.5382 14.7342C19.5382 11.2386 16.3938 8.26953 12.5173 8.26953C8.6409 8.26953 5.49512 11.2386 5.49512 14.7362C5.49412 15.5886 5.68394 16.4305 6.05068 17.2C7.11445 16.1391 9.60845 15.3935 12.5173 15.3935Z" fill="#0095D8"/>
<path d="M12.5154 15.4006C15.4145 15.4006 17.9018 16.1383 18.9636 17.191C19.33 16.4283 19.5199 15.5928 19.5191 14.7466C19.5191 11.2815 16.382 8.32812 12.516 8.32812C8.65004 8.32812 5.5127 11.2808 5.5127 14.7477C5.5113 15.5936 5.7001 16.429 6.06515 17.1921C7.12826 16.1388 9.61559 15.4006 12.5154 15.4006Z" fill="#0098DA"/>
<path d="M12.5148 15.4088C15.4052 15.4088 17.887 16.1393 18.9468 17.1813C19.3108 16.4266 19.4994 15.5992 19.4983 14.7613C19.4983 11.3277 16.3701 8.39062 12.5148 8.39062C8.65943 8.39062 5.53076 11.3288 5.53076 14.7617C5.5306 15.5995 5.71871 16.4266 6.08121 17.182C7.1421 16.1397 9.62276 15.4088 12.5148 15.4088Z" fill="#009ADB"/>
<path d="M12.5131 15.4169C15.3976 15.4169 17.8705 16.1414 18.9285 17.1738C19.2923 16.4261 19.4809 15.6054 19.48 14.7738C19.48 11.3725 16.36 8.45117 12.5131 8.45117C8.66625 8.45117 5.54736 11.3729 5.54736 14.7756C5.54732 15.6069 5.73559 16.4275 6.09803 17.1756C7.15536 16.1414 9.62847 15.4169 12.5131 15.4169Z" fill="#009CDD"/>
<path d="M12.5135 15.4235C15.3877 15.4235 17.8568 16.1402 18.9095 17.1639C19.2726 16.4239 19.4611 15.6105 19.4606 14.7862C19.4606 11.4177 16.3495 8.51172 12.5139 8.51172C8.67836 8.51172 5.56592 11.4179 5.56592 14.7864C5.56603 15.6106 5.75437 16.4238 6.11658 17.1642C7.16836 16.1402 9.63503 15.4235 12.5135 15.4235Z" fill="#009FDE"/>
<path d="M12.5115 15.4309C15.3795 15.4309 17.8395 16.142 18.8911 17.1547C19.2524 16.4233 19.4405 15.6185 19.4406 14.8027C19.4406 11.4651 16.3366 8.57422 12.5115 8.57422C8.68639 8.57422 5.5835 11.4631 5.5835 14.8018C5.58259 15.6178 5.76989 16.423 6.13083 17.1549C7.18061 16.1413 9.64239 15.4309 12.5115 15.4309Z" fill="#00A1DF"/>
<path d="M12.5113 15.4397C15.3711 15.4397 17.8258 16.1423 18.8731 17.1465C19.2337 16.4223 19.4214 15.6243 19.4213 14.8152C19.4213 11.5085 16.3273 8.63477 12.5102 8.63477C8.69312 8.63477 5.60156 11.5085 5.60156 14.8152C5.60112 15.6239 5.7876 16.4218 6.14645 17.1465C7.19579 16.1423 9.64845 15.4397 12.5113 15.4397Z" fill="#00A3E1"/>
<path d="M12.5101 15.4465C15.3632 15.4465 17.8103 16.1425 18.8567 17.1376C19.2141 16.4202 19.4003 15.6297 19.401 14.8282C19.401 11.5534 16.3165 8.69336 12.5101 8.69336C8.70363 8.69336 5.61963 11.5534 5.61963 14.8282C5.61957 15.6293 5.80613 16.4194 6.16452 17.1358C7.20852 16.1425 9.65607 15.4465 12.5101 15.4465Z" fill="#00A5E2"/>
<path d="M12.5098 15.4565C15.3542 15.4565 17.7947 16.1467 18.8367 17.1316C19.1949 16.4225 19.3816 15.6392 19.3816 14.8447C19.3816 11.6003 16.3047 8.75781 12.5098 8.75781C8.7149 8.75781 5.63623 11.6003 5.63623 14.8425C5.63629 15.6364 5.82149 16.4193 6.17712 17.1291C7.22023 16.1443 9.66245 15.4565 12.5098 15.4565Z" fill="#00A7E3"/>
<path d="M12.5084 15.4631C15.3451 15.4631 17.7793 16.1446 18.8195 17.122C19.1769 16.4199 19.363 15.6431 19.3624 14.8553C19.3624 11.6446 16.2942 8.81641 12.5095 8.81641C8.72487 8.81641 5.65576 11.6451 5.65576 14.8569C5.65517 15.6438 5.83993 16.4198 6.1951 17.122C7.23599 16.1446 9.66821 15.4631 12.5084 15.4631Z" fill="#00AAE4"/>
<path d="M12.5071 15.4687C15.3357 15.4687 17.7642 16.145 18.8009 17.1118C19.1567 16.4177 19.3421 15.6488 19.3417 14.8687C19.3417 11.6892 16.2824 8.87695 12.5071 8.87695C8.73174 8.87695 5.67285 11.6885 5.67285 14.8687C5.67261 15.6485 5.85721 16.4172 6.21152 17.1118C7.24819 16.145 9.67663 15.4687 12.5071 15.4687Z" fill="#00ACE6"/>
<path d="M12.5069 15.4775C15.3291 15.4775 17.75 16.1442 18.7829 17.1022C19.1376 16.4158 19.3226 15.6544 19.3224 14.8817C19.3224 11.7326 16.2715 8.9375 12.5064 8.9375C8.74132 8.9375 5.69043 11.7326 5.69043 14.8817C5.69038 15.6542 5.87507 16.4156 6.2291 17.1022C7.26199 16.1446 9.68399 15.4775 12.5069 15.4775Z" fill="#00AFE7"/>
<path d="M12.5054 15.4853C15.3201 15.4853 17.7338 16.1473 18.7649 17.0949C19.1184 16.4161 19.3032 15.6622 19.3036 14.8969C19.3036 11.7798 16.2592 9 12.5054 9C8.75161 9 5.7085 11.7798 5.7085 14.8969C5.70911 15.6618 5.89282 16.4155 6.24427 17.0949C7.27472 16.1473 9.6905 15.4853 12.5054 15.4853Z" fill="#00B1E9"/>
<path d="M12.5046 15.4926C15.3097 15.4926 17.7183 16.1473 18.7446 17.0857C19.0969 16.4138 19.2812 15.6666 19.2817 14.9079C19.2817 11.8239 16.2452 9.05859 12.5023 9.05859C8.75946 9.05859 5.72657 11.8248 5.72657 14.9088C5.72574 15.6677 5.90874 16.4154 6.2599 17.0881C7.28857 16.1473 9.69812 15.4926 12.5046 15.4926Z" fill="#10B4EA"/>
<path d="M12.5044 15.5006C15.302 15.5006 17.7044 16.1491 18.7286 17.0771C19.0798 16.4135 19.2636 15.6741 19.264 14.9233C19.264 11.8704 16.2371 9.12109 12.5044 9.12109C8.77174 9.12109 5.74463 11.8704 5.74463 14.9233C5.74456 15.6739 5.92763 16.4132 6.27796 17.0771C7.30218 16.1491 9.70418 15.5006 12.5044 15.5006Z" fill="#18B6EC"/>
<path d="M12.5028 15.5085C15.2935 15.5085 17.6902 16.1492 18.7106 17.0681C19.0601 16.4122 19.2433 15.6804 19.2439 14.9372C19.2439 11.9132 16.2266 9.18164 12.5024 9.18164C8.77816 9.18164 5.76172 11.915 5.76172 14.9372C5.7627 15.68 5.94542 16.4112 6.29394 17.0672C7.31639 16.1492 9.71216 15.5085 12.5028 15.5085Z" fill="#24B9ED"/>
<path d="M12.5003 15.5153C15.2843 15.5153 17.6732 16.1495 18.6923 17.0595C19.0417 16.4114 19.225 15.6867 19.2256 14.9504C19.2256 11.9595 16.2158 9.24219 12.5016 9.24219C8.78738 9.24219 5.78027 11.9595 5.78027 14.9504C5.78004 15.6862 5.9614 16.4106 6.30827 17.0595C7.32916 16.1495 9.71627 15.5153 12.5003 15.5153Z" fill="#2DBBEE"/>
<path d="M12.5005 15.5221C15.2754 15.5221 17.6592 16.149 18.6747 17.0494C19.0213 16.4087 19.2028 15.6918 19.2027 14.9634C19.2027 12.0045 16.2014 9.30273 12.4985 9.30273C8.79563 9.30273 5.79785 12.0045 5.79785 14.9634C5.79816 15.6918 5.97961 16.4086 6.32585 17.0494C7.34341 16.149 9.72607 15.5221 12.5005 15.5221Z" fill="#36BDEF"/>
<path d="M12.5002 15.5394C15.2722 15.5394 17.6515 16.1634 18.6653 17.0569C19.0124 16.421 19.194 15.7079 19.1933 14.9834C19.1949 12.0436 16.1991 9.35938 12.5002 9.35938C8.80131 9.35938 5.80664 12.0436 5.80664 14.9834C5.80754 15.7077 5.98901 16.4204 6.33464 17.0569C7.3502 16.1634 9.7282 15.5394 12.5002 15.5394Z" fill="#43BFEF"/>
<path d="M12.5003 15.5582C15.2674 15.5582 17.645 16.1782 18.6577 17.0671C19.0032 16.4356 19.1847 15.7275 19.1857 15.0076C19.1857 12.0871 16.1963 9.41602 12.5003 9.41602C8.80432 9.41602 5.81543 12.0865 5.81543 15.0069C5.81623 15.727 5.99777 16.4354 6.34343 17.0671C7.35721 16.1767 9.7321 15.5582 12.5003 15.5582Z" fill="#50C1F0"/>
<path d="M12.5005 15.5745C15.2638 15.5745 17.6365 16.1903 18.6494 17.0727C18.9953 16.4461 19.177 15.742 19.1774 15.0263C19.1774 12.1251 16.1907 9.4707 12.5014 9.4707C8.81204 9.4707 5.82471 12.1256 5.82471 15.0263C5.82624 15.7419 6.00782 16.4457 6.35271 17.0727C7.36449 16.1903 9.73515 15.5745 12.5005 15.5745Z" fill="#5AC3F0"/>
<path d="M12.5002 15.5931C15.2598 15.5931 17.6295 16.2033 18.6404 17.082C18.9857 16.4601 19.1674 15.7606 19.1684 15.0493C19.1684 12.1693 16.1838 9.5293 12.5007 9.5293C8.81754 9.5293 5.83398 12.1693 5.83398 15.0493C5.83572 15.7605 6.01735 16.4598 6.36198 17.082C7.37087 16.2033 9.73932 15.5931 12.5002 15.5931Z" fill="#65C6F1"/>
<path d="M12.5004 15.6109C15.256 15.6109 17.6244 16.218 18.6337 17.0884C18.9784 16.4713 19.1601 15.7764 19.1617 15.0695C19.1617 12.2071 16.1815 9.58398 12.5037 9.58398C8.82597 9.58398 5.84619 12.2062 5.84619 15.0695C5.84552 15.776 6.02479 16.4711 6.36708 17.0891C7.37775 16.218 9.74486 15.6109 12.5004 15.6109Z" fill="#6DC8F2"/>
<path d="M12.5005 15.6275C15.2522 15.6275 17.6153 16.2324 18.6238 17.096C18.9684 16.4838 19.1502 15.7935 19.1518 15.0911C19.1518 12.2484 16.1758 9.64062 12.5018 9.64062C8.82779 9.64062 5.85156 12.2484 5.85156 15.0911C5.85272 15.7931 6.03308 16.4832 6.37556 17.096C7.38512 16.2324 9.74756 15.6275 12.5005 15.6275Z" fill="#74CAF2"/>
<path d="M12.5002 15.6435C15.2482 15.6435 17.6084 16.2435 18.6144 17.1022C18.9574 16.4948 19.1384 15.8093 19.14 15.1118C19.1404 12.288 16.1684 9.69531 12.5002 9.69531C8.832 9.69531 5.85889 12.288 5.85889 15.1102C5.86024 15.8081 6.04058 16.4939 6.38266 17.1022C7.39155 16.2435 9.75178 15.6435 12.5002 15.6435Z" fill="#7DCCF3"/>
<path d="M12.5003 15.6622C15.2445 15.6622 17.6016 16.2571 18.6058 17.1104C18.9497 16.5079 19.1316 15.8265 19.1338 15.1327C19.1338 12.3271 16.1645 9.75 12.5016 9.75C8.8387 9.75 5.86914 12.3273 5.86914 15.1327C5.8702 15.826 6.05056 16.5074 6.3927 17.1104C7.39892 16.2571 9.75425 15.6622 12.5003 15.6622Z" fill="#83CFF3"/>
<path d="M12.5005 15.68C15.2418 15.68 17.5951 16.272 18.5994 17.1175C18.9416 16.5196 19.1225 15.8429 19.1245 15.154C19.1245 12.37 16.1605 9.80664 12.5005 9.80664C8.84047 9.80664 5.87646 12.3684 5.87646 15.1535C5.87824 15.8427 6.0583 16.5197 6.39913 17.1186C7.4058 16.272 9.75824 15.6815 12.5005 15.68Z" fill="#8AD1F4"/>
<path d="M12.5006 15.6958C15.2366 15.6958 17.5895 16.2831 18.5895 17.1242C18.93 16.5305 19.1101 15.8584 19.1122 15.174C19.1122 12.4067 16.1526 9.86133 12.4997 9.86133C8.84685 9.86133 5.88574 12.4053 5.88574 15.1724C5.88795 15.8572 6.06756 16.5296 6.40708 17.1242C7.41174 16.2847 9.7613 15.6958 12.5006 15.6958Z" fill="#91D3F4"/>
<path d="M12.5004 15.7144C15.2337 15.7144 17.5806 16.2971 18.5815 17.1317C18.9217 16.543 19.102 15.8755 19.1046 15.1955C19.1046 12.4489 16.148 9.91797 12.5004 9.91797C8.85284 9.91797 5.89551 12.4489 5.89551 15.1951C5.89723 15.8751 6.07647 16.5429 6.41551 17.1324C7.41773 16.2971 9.7644 15.7144 12.5004 15.7144Z" fill="#98D5F5"/>
<path d="M12.5004 15.7335C15.2293 15.7335 17.5727 16.3133 18.5729 17.1422C18.9134 16.5578 19.0936 15.8939 19.0951 15.2175C19.0951 12.4891 16.1422 9.97461 12.5004 9.97461C8.85865 9.97461 5.90576 12.4891 5.90576 15.2164C5.90722 15.892 6.08615 16.5554 6.42465 17.1402C7.42487 16.3113 9.76976 15.7335 12.5004 15.7335Z" fill="#9FD8F6"/>
<path d="M12.5002 15.7508C15.2262 15.7508 17.5656 16.3268 18.5645 17.1492C18.9038 16.5698 19.0838 15.911 19.0862 15.2396C19.0862 12.5285 16.1367 10.0332 12.5002 10.0332C8.8638 10.0332 5.91357 12.5325 5.91357 15.2392C5.91513 15.9108 6.09413 16.5701 6.43246 17.1503C7.43202 16.3268 9.77335 15.7519 12.5002 15.7508Z" fill="#A5DAF6"/>
<path d="M12.5003 15.7666C15.2219 15.7666 17.5601 16.3379 18.5561 17.1557C18.8946 16.5807 19.0741 15.9261 19.0763 15.2588C19.0763 12.5699 16.1321 10.0859 12.5003 10.0859C8.86854 10.0859 5.92432 12.5699 5.92432 15.2579C5.92646 15.9253 6.1055 16.5801 6.44321 17.1557C7.44009 16.3379 9.77832 15.7677 12.5003 15.7666Z" fill="#AADCF7"/>
<path d="M12.5005 15.7836C15.2183 15.7836 17.5516 16.3514 18.5485 17.1628C18.8858 16.5927 19.0649 15.9429 19.0674 15.2805C19.0674 12.6094 16.1265 10.1445 12.5005 10.1445C8.87449 10.1445 5.93115 12.6132 5.93115 15.2805C5.93467 15.9434 6.11461 16.5934 6.45249 17.1636C7.4456 16.3514 9.78137 15.785 12.5005 15.7836Z" fill="#B1DFF7"/>
<path d="M12.5007 15.8032C15.2155 15.8032 17.5451 16.3663 18.54 17.1717C18.8775 16.6065 19.0567 15.9609 19.0589 15.3026C19.0589 12.6506 16.1229 10.1992 12.5007 10.1992C8.87843 10.1992 5.94043 12.653 5.94043 15.3012C5.94312 15.9602 6.1218 16.6065 6.45799 17.1732C7.45443 16.3688 9.78532 15.8037 12.5007 15.8032Z" fill="#B6E1F8"/>
<path d="M12.5002 15.821C15.2098 15.821 17.5402 16.3796 18.5313 17.1799C18.8678 16.6193 19.0469 15.9783 19.0498 15.3245C19.0498 12.6919 16.1164 10.2559 12.5002 10.2559C8.88397 10.2559 5.9502 12.6932 5.9502 15.3225C5.95252 15.9767 6.13049 16.6182 6.46553 17.1801C7.4602 16.3787 9.78908 15.8232 12.5002 15.821Z" fill="#BBE3F8"/>
<path d="M12.5005 15.8368C15.2067 15.8368 17.5309 16.3923 18.5227 17.1859C18.858 16.6297 19.0366 15.9931 19.0396 15.3437C19.04 12.7328 16.112 10.3105 12.5005 10.3105C8.8889 10.3105 5.95801 12.7328 5.95801 15.3432C5.96085 15.9933 6.13928 16.6306 6.47445 17.1877C7.46823 16.3921 9.79379 15.8397 12.5005 15.8368Z" fill="#C1E5F9"/>
<path d="M12.5006 15.8561C15.2031 15.8561 17.5244 16.4065 18.5146 17.1943C18.8496 16.643 19.0281 16.0109 19.0311 15.3659C19.0311 12.7739 16.1064 10.3672 12.5031 10.3672C8.89973 10.3672 5.96973 12.7739 5.96973 15.3659C5.97252 16.0109 6.14982 16.6432 6.48284 17.1956C7.4755 16.4065 9.79639 15.8561 12.5006 15.8561Z" fill="#C6E7F9"/>
<path d="M12.5003 15.8719C15.1979 15.8719 17.5168 16.4197 18.5066 17.201C18.8408 16.6544 19.0192 16.0268 19.0226 15.3861C19.0226 12.8119 16.1017 10.4219 12.5003 10.4219C8.89901 10.4219 5.97656 12.8159 5.97656 15.3852C5.97989 16.0261 6.15724 16.6541 6.48967 17.2021C7.48056 16.4197 9.7999 15.8723 12.5003 15.8719Z" fill="#CBE9FA"/>
<path d="M12.5005 15.8896C15.1963 15.8896 17.5103 16.4321 18.5005 17.2083C18.833 16.6666 19.0103 16.0439 19.0132 15.4083C19.0132 12.8527 16.0972 10.4785 12.501 10.4785C8.90473 10.4785 5.98584 12.8532 5.98584 15.4074C5.99007 16.0438 6.16803 16.667 6.50051 17.2096C7.4874 16.4321 9.80473 15.8901 12.5005 15.8896Z" fill="#D0EBFA"/>
<path d="M12.5005 15.9068C15.1923 15.9068 17.5032 16.4456 18.4899 17.2165C18.8225 16.6795 19.0001 16.0609 19.0032 15.4292C19.0032 12.8923 16.091 10.5332 12.5005 10.5332C8.9101 10.5332 5.99365 12.8928 5.99365 15.4292C5.99744 16.0616 6.17478 16.6809 6.50632 17.2194C7.49454 16.4456 9.80921 15.9081 12.5005 15.9068Z" fill="#D5EDFA"/>
<path d="M12.5002 15.9261C15.1891 15.9261 17.496 16.4607 18.4816 17.2254C18.8137 16.6923 18.9914 16.0775 18.9947 15.4494C18.9947 12.9327 16.0862 10.5898 12.5002 10.5898C8.91422 10.5898 6.00244 12.9365 6.00244 15.4494C6.00627 16.0771 6.18312 16.6917 6.51355 17.2254C7.50022 16.4607 9.81133 15.9261 12.5002 15.9261Z" fill="#DBEFFB"/>
<path d="M12.5006 15.9429C15.1828 15.9429 17.4897 16.4743 18.4728 17.2332C18.804 16.7051 18.9819 16.0953 18.9864 15.472C18.9864 12.976 16.0815 10.6465 12.5006 10.6465C8.91972 10.6465 6.01172 12.976 6.01172 15.4705C6.01483 16.0942 6.19242 16.7046 6.52439 17.2327C7.50861 16.4743 9.8155 15.9429 12.5006 15.9429Z" fill="#DFF1FB"/>
<path d="M12.5005 15.96C15.179 15.96 17.4825 16.488 18.4636 17.2407C18.7947 16.7178 18.9725 16.1125 18.9767 15.4936C18.9767 13.0149 16.077 10.7031 12.5005 10.7031C8.92406 10.7031 6.02051 13.0162 6.02051 15.4916C6.0241 16.1107 6.20067 16.7165 6.53029 17.2407C7.51673 16.4876 9.81829 15.9607 12.5005 15.96Z" fill="#E4F3FC"/>
<path d="M12.5002 15.9784C15.1762 15.9784 17.4736 16.5013 18.4558 17.2487C18.785 16.7301 18.962 16.1295 18.9669 15.5153C18.9669 13.0562 16.0705 10.7598 12.5002 10.7598C8.93001 10.7598 6.02979 13.0569 6.02979 15.5118C6.03376 16.1264 6.21007 16.7275 6.53867 17.2469C7.52245 16.5009 9.8229 15.9784 12.5002 15.9784Z" fill="#E9F5FC"/>
<path d="M12.5004 15.9942C15.1721 15.9942 17.4675 16.514 18.4466 17.2542C18.7762 16.741 18.9535 16.1448 18.9577 15.5349C18.9577 13.0945 16.0657 10.8145 12.4997 10.8145C8.93368 10.8145 6.03857 13.0965 6.03857 15.5333C6.0423 16.1439 6.21906 16.7409 6.54835 17.2551C7.52902 16.5122 9.8268 15.9951 12.5004 15.9942Z" fill="#EDF7FD"/>
<path d="M12.5004 16.0129C15.1671 16.0129 17.4598 16.5284 18.4391 17.2633C18.7684 16.7547 18.9457 16.1627 18.9502 15.5569C18.9502 13.1362 16.0613 10.8711 12.5013 10.8711C8.94132 10.8711 6.04932 13.1375 6.04932 15.5564C6.05287 16.1625 6.22883 16.7551 6.55665 17.2649C7.53732 16.5284 9.83065 16.0138 12.5004 16.0129Z" fill="#F1F9FD"/>
<path d="M12.5006 16.0313C15.1646 16.0313 17.4537 16.5424 18.4299 17.2711C18.7589 16.7678 18.9363 16.1807 18.941 15.5795C18.9413 13.1768 16.0562 10.9277 12.5006 10.9277C8.94504 10.9277 6.05615 13.1795 6.05615 15.5768C6.06059 16.1788 6.23675 16.7669 6.56393 17.2722C7.54326 16.5391 9.83571 16.0313 12.5006 16.0313Z" fill="#F7FBFD"/>
<path d="M12.5004 16.0468C15.161 16.0468 17.4444 16.5544 18.4221 17.2773C18.7498 16.7788 18.9273 16.1966 18.9332 15.6002C18.9324 13.2177 16.0524 10.9844 12.5004 10.9844C8.94836 10.9844 6.06836 13.2197 6.06836 15.5986C6.07303 16.1955 6.2488 16.7786 6.5748 17.2786C7.54969 16.5555 9.83725 16.0484 12.5004 16.0468Z" fill="#FBFDFF"/>
<path d="M12.5004 16.0651C15.1567 16.0651 17.4402 16.5682 18.4135 17.2853C18.7404 16.7912 18.9172 16.213 18.9227 15.6206C18.9227 13.2571 16.046 11.0391 12.5004 11.0391C8.95488 11.0391 6.07666 13.2586 6.07666 15.6193C6.08134 16.2122 6.25645 16.7912 6.5811 17.2873C7.55644 16.5682 9.84177 16.0662 12.5004 16.0651Z" fill="white"/>
</g>
<path d="M12.5001 13.707C10.1725 13.707 8.01495 14.1017 6.2334 14.7693C7.77562 18.2324 11.8334 19.7893 15.2961 18.247C16.8451 17.5571 18.0839 16.3183 18.7738 14.7693C16.989 14.1017 14.8267 13.707 12.5001 13.707Z" fill="#007BC6"/>
</g>
<defs>
<clipPath id="clip0_1736_9830">
<rect width="24" height="24" fill="white" transform="translate(0.5)"/>
</clipPath>
</defs>
</svg>
